<?xml version="1.0" encoding="utf-8" ?>
<svg baseProfile="full" height="300mm" version="1.1" viewBox="0,0,200,300" width="200mm" xmlns="http://www.w3.org/2000/svg" xmlns:ev="http://www.w3.org/2001/xml-events" xmlns:xlink="http://www.w3.org/1999/xlink"><defs /><rect fill="#222222" height="300" width="200" x="0" y="0" /><text fill="#FFFFFF" style="font-size:12px; font-family:Arial; font-weight:bold;" x="10" y="20">Over 3km Runs</text><text fill="#FFFFFF" style="font-size:4px; font-family:Arial" x="10" y="280">ATHLETE</text><text fill="#FFFFFF" style="font-size:9px; font-family:Arial" x="10" y="290">jdzj</text><text fill="#FFFFFF" style="font-size:4px; font-family:Arial" x="120" y="280">STATISTICS</text><text fill="#FFFFFF" style="font-size:3px; font-family:Arial" x="120" y="285">Number: 61</text><text fill="#FFFFFF" style="font-size:3px; font-family:Arial" x="120" y="290">Weekly: 3.4</text><text fill="#FFFFFF" style="font-size:3px; font-family:Arial" x="141" y="285">Total: 124.9 km</text><text fill="#FFFFFF" style="font-size:3px; font-family:Arial" x="141" y="290">Avg: 2.0 km</text><text fill="#FFFFFF" style="font-size:3px; font-family:Arial" x="167" y="285">Min: 1.0 km</text><text fill="#FFFFFF" style="font-size:3px; font-family:Arial" x="167" y="290">Max: 13.2 km</text><polyline fill="none" points="13.139791538822465,41.39302836326533 12.87492335983552,41.65923301197472 14.23237277730368,42.34375840757275 21.052728387294337,45.11987672073883 24.9926425506128,44.92973226841423 28.932556713582017,45.462136498623295 34.428571428521536,44.73958772222977 32.24340895144269,44.28324042906752 32.64071121998131,43.750834571023006 29.694052728358656,44.24521146362531 26.350091967964545,43.142369833163684 23.900061311898753,43.56068944366416 21.81422440195456,42.68602064967854 17.808093194267713,42.914195308985654 13.206008583540097,41.77332066226518 11.285714285681024,40.25214921563747" stroke="#4dd2ff" stroke-linecap="round" stroke-linejoin="round" stroke-width="0.5"><title>2021-06-16 1.4km</title></polyline><polyline fill="none" points="58.99128640210256,43.34784011656302 58.24833753728308,43.77452601285768 50.59596422826871,40.83038476295769 45.50676450342871,41.427748375892406 42.57211648696102,41.086397840990685 42.0520522815641,41.683761100430274 37.0,40.23302032513311 43.017885805806145,41.93977367330808 50.001605136319995,42.57980444308487 60.1428571427241,45.48126538912766" stroke="#4dd2ff" stroke-linecap="round" stroke-linejoin="round" stroke-width="0.5"><title>2021-06-15 1.2km</title></polyline><polyline fill="none" points="77.54833512334153,47.95457956628525 75.72126745432615,49.05400847905548 72.8501611170359,48.704190447577275 64.41084855026565,35.510876832937356 62.714285714318976,36.46040709532099 64.67185821686871,40.50838455418125 66.67293233098462,42.357449910545256 69.10902255657129,43.057094500778476 71.50161117059179,46.70522563144914 75.02524167555384,49.1039824639156 77.54833512334153,50.203408881352516 83.85606874316,48.20444998331368 85.85714285704307,48.45432027708739" stroke="#4dd2ff" stroke-linecap="round" stroke-linejoin="round" stroke-width="0.5"><title>2021-06-11 1.2km</title></polyline><polyline fill="none" points="108.83488738849701,54.425259340070625 108.9273236796289,54.412010982778156 109.14108260287321,54.25634239601641 109.5397141083813,53.829078125523665 109.54549137657159,53.60716354561009 109.3519528920151,53.76945942617749 109.23929616220994,53.62703655241421 109.27684840546863,53.74627434805734 109.34617562382482,53.77277157890421 109.54549137657159,53.597227037829725 109.54838001067401,53.7992687889855 109.45305508545425,53.935066664926126 108.91576914323377,54.425259340070625 108.66734661081864,54.42857142857247 108.01740393877844,52.53069156541824 107.95963125683193,51.43099865868862 107.61877243327035,50.987136573581665 107.02660244317667,50.62276782133995 107.02371380910336,50.341207460187434 106.9139457133715,50.17558262323291 106.41421201443882,49.68864090412899 106.04735548398457,49.47001172889577 105.59672856472025,48.99299771250662 105.44940822572971,48.96649673649881 104.97278359957272,49.05262483257684 104.91212228352379,49.07581312865295 105.05366535430949,49.0990014088311 105.02477901332895,49.13875270925564 104.7821337491041,49.22488036656432 103.96465029940009,49.37725953052359 103.67867552369717,49.3640091956986 103.76533454665332,49.39382244175067 103.7162277669704,49.433573395599524 103.77400044893147,49.403760184588464 103.78266635123873,49.486574594691774 103.79133225351688,49.39050986015354 103.67000962140446,49.37063436376047 103.20205089754018,49.11225184749492 102.06104042887455,49.12550228097825 101.7548452144838,49.00293557315672 101.1828956630925,49.24806854450799 100.51273255237902,49.10562662880693 100.31630543370557,49.01949866774885 99.97255797607068,48.6418580947211 99.60570144564554,48.330467080901144 99.09441321028862,48.214522885595215 98.50513185432646,48.20127209510974 98.09783444652567,48.00582233204841 97.72808928199811,47.71761468774639 95.57605687902833,46.7767818278553 95.39696156496939,46.75690479485638 94.8510097204562,46.85297701273521 94.57081221295812,46.81984869257576 94.29350333956245,46.67077085015262 93.89776046814222,46.24009783452129 93.30270184396068,45.72328297278 93.15538150497014,45.19652123225387 92.94739984991611,44.93148077413207 92.54299107621773,44.156225503356836 92.2252413254464,43.84148004020972 91.2373284639616,41.323410796016105 91.21999665937619,41.10804089966041 91.27488070723484,40.836341533551604 91.69662128551863,40.0908137570259 91.80061211304564,39.7561492716668 91.72839626060158,39.48112548021527 91.37598290067399,38.90787592245397 91.10156266135164,38.34787129627148 90.91957871319028,37.77128878539952 90.94557642006839,37.47305259005225 91.18244441610295,36.64460489631165 91.21133075708349,36.13095712049835 91.15355807512242,35.70014973616344 90.86758329943405,34.55682656885256 90.91669007908786,33.90395510615781 90.89069237220974,32.95942328661113 90.80981061747298,32.58491738982775 90.81847651976568,32.20377880464366 90.68271071715571,31.646977310447255 90.45161998932599,31.285714285717404" stroke="#4dd2ff" stroke-linecap="round" stroke-linejoin="round" stroke-width="0.5"><title>2021-06-10 13.2km</title></polyline><polyline fill="none" points="123.15408889192622,47.84171489946311 123.46131251053885,48.87092082289746 124.81821682641748,48.72389162276522 124.89502273104154,49.4884426719218 125.86789752356708,49.37081956115435 126.45674279262312,50.16477465824573 126.78956837963779,49.459036898537306 126.09831523743924,48.98854413081426 126.73836444318295,49.047355767397676 127.096791998134,49.459036898537306 126.61035460198764,50.19418036195566 128.1464726952836,50.370614523562836 127.37841364869382,50.87051074774354 127.30160774406977,50.31180314795347 127.78804514021613,50.01774609601125 128.01846285432111,50.34120883716969 127.83924907667097,49.87071746139554 128.24888056819327,50.10596324206563 127.81364710850175,50.07655752968276 127.8648510449566,49.694283004064346 128.50490025046747,50.929322013049386 128.01846285432111,51.63505629316205 126.68716050661169,52.076139370095916 124.53659517597407,52.017328330897726 122.23241803585552,53.63462768352474 121.46435898926575,53.164141503715655 120.97792159300297,53.693438403715845 121.5411648938898,54.310950266430154 122.41163181350566,54.016897157998756 121.69477670325432,54.252139667834854 122.25802000414114,54.310950266430154 122.36042787705082,53.8110598095227 122.38602984533645,54.10511312086601 121.66917473496869,53.98749183118343 122.38602984533645,54.10511312086601 121.92519441735931,53.84046515368391 122.48843771812972,53.8110598095227 120.64509600610472,54.10511312086601 121.41315505281091,53.86987049502204 121.72037867142353,54.428571428579744 121.72037867142353,54.10511312086601 121.08032946591265,54.19332905783085 121.64357276679948,53.95808650145773 122.36042787705082,54.163923748390516 121.8227865442168,54.163923748390516 121.97639835369773,53.5758169516339 121.89959244907368,54.252139667834854 121.46435898926575,54.04630248178728 121.8227865442168,53.781654462451115 121.74598063970916,54.34035556128947 121.38755308452528,53.54641158133745 121.89959244907368,53.51700620815973 121.66917473496869,54.07570780284004 121.13153340225108,53.92868116887985 121.36195111623965,52.78187093610177 120.235464514466,51.2821893619257 120.0818527052179,49.606065736181336 118.75055035762489,47.665279241715325 118.622540516546,47.106565636524465 119.10897791269235,46.43022671388462 118.57133658009116,44.84229451874853 119.1601818491472,43.31316663484904 119.08337594440673,41.60759166706703 120.64509600610472,31.285714285739232 121.18273733882234,31.31512185142492 121.18273733882234,31.844457537081325 121.97639835369773,32.28556989048957 124.48539123940282,32.55023698936566 124.7158089535078,33.05016309054918 126.71276247489732,32.28556989048957 128.68411402811762,33.31482951072394 129.68259078869596,33.02075569608132 129.91300850280095,33.491273660212755 131.85875808773562,32.96194089832716 132.14037973817904,34.285271040920634 132.85723484831396,34.75578700948972" stroke="#4dd2ff" stroke-linecap="round" stroke-linejoin="round" stroke-width="0.5"><title>2021-06-08 2.7km</title></polyline><polyline fill="none" points="163.0,40.081922591954935 154.6564903287217,37.17648277845001 146.01095315767452,36.61273850098951 142.61314378934912,34.704675582877826 142.80191097641364,33.14352703597979 142.42437660205178,33.27362295993953 139.85714285704307,48.62467172124889 140.38569098105654,50.14240166492527 141.631554416148,51.22649127457407 141.06525285472162,52.570758678310085" stroke="#4dd2ff" stroke-linecap="round" stroke-linejoin="round" stroke-width="0.5"><title>2021-06-08 1.1km</title></polyline><polyline fill="none" points="188.06281118351035,43.92615307710366 180.5243201837875,41.03983765779412 176.58445040218066,41.78814386960585 173.97855227882974,41.574342252948554 173.51321332808584,42.00194535974879 169.5112983530853,40.71913452123408 165.57142857147846,41.28927323399694 169.01493680570275,40.57659970244276 173.38912294141483,42.00194535974879 179.81080045958515,42.28701381635619 184.68134814244695,44.03305320534855 188.68326311768033,45.137686011818005 188.71428571431898,44.7813532174041" stroke="#4dd2ff" stroke-linecap="round" stroke-linejoin="round" stroke-width="0.5"><title>2021-06-07 1.5km</title></polyline><polyline fill="none" points="26.513172862818465,79.73927735723555 26.335910802008584,74.70387231803034 24.91781431483105,73.83920187567128 21.06236449070275,68.75287590129301 18.314802546752617,69.31237420643447 22.87930061481893,64.2260037237429 26.513172862818465,58.071428571420256 19.37837491207756,68.54942182224477 20.885102429660037,68.49855829006992 21.992990310303867,69.41410110599827 26.2915952866897,74.60214645869564 26.335910802008584,79.63755248807138 27.39948316756636,81.21428571426077 26.424541832646355,80.6548002808122" stroke="#4dd2ff" stroke-linecap="round" stroke-linejoin="round" stroke-width="0.5"><title>2021-06-04 1.3km</title></polyline><polyline fill="none" points="50.91820786439348,72.97476857290894 51.169121373677626,73.36471347388579 51.90710228349781,73.36471347388579 51.71522724692477,72.94086027883168 52.11373693821952,72.75436454183364 51.670948392362334,72.82218119688332 51.759506101487204,72.21183033807029 51.30195793748135,72.00837957010663 51.28719831927447,72.26269299242995 51.759506101487204,72.771318708139 51.77426571975229,73.44948398749693 51.15436175552895,73.39862168434775 50.69681359146489,72.82218119688332 50.78537130064797,73.11040168232284 50.23926542745903,73.21212644409388 49.56032299052458,72.00837957010663 48.79282284446526,71.21152840986906 46.18037042400101,69.36349766860076 45.88517806009622,67.78672178313718 46.19513004209148,66.19297661620658 47.64157262520166,63.80233115046576 48.999457499128766,62.70024934515823 50.38686160946963,61.072546365030576 50.445900082122535,59.75002633991244 49.91455382719869,58.71574076528486 49.45700566319283,58.41054055355198 48.969938262715004,58.88529620417103 48.8371016990277,58.46140729317267 49.0437363536912,58.444451714953175 48.7633036080515,58.39358497039939 48.95517864456633,58.427496135089314 48.80758246255573,58.76660741450905 48.881380553590134,58.49531844459125 48.60094780783402,58.69878521216742 48.82234208082082,58.54618515903712 48.63046704424778,58.49531844459125 48.689505517017096,58.69878521216742 48.14339964382816,59.10571802461345 48.7633036080515,58.76660741450905 48.52714971691603,58.91920727187244 48.61570742609911,58.58009629367734 48.42383238952607,59.00398491184751 48.42383238952607,58.69878521216742 48.969938262715004,58.35967379891372 49.23561139020603,58.732696316670626 49.1175344446674,58.851385129761184 49.53080375411082,58.88529620417103 49.05849597189808,59.10571802461345 48.45335162593983,58.29185143597715 49.1175344446674,58.39358497039939 49.13229406287428,58.07142857143481 48.15815926209325,59.12267353756761 48.999457499128766,59.10571802461345 48.999457499128766,58.88529620417103 48.39431315311231,58.95311833289452 49.23561139020603,58.35967379891372 48.482870862295385,58.851385129761184 48.778063226200175,58.83442959007516 48.89614017173881,58.69878521216742 48.586188189685345,58.54618515903712 48.67474589886842,58.851385129761184 49.13229406287428,58.61400742160913 48.999457499128766,58.86834066777374 49.01421711727744,58.664874100955785 48.80758246255573,58.76660741450905 48.89614017173881,58.52922958918498 49.191332535643596,58.51227401768847 49.088015208311845,58.91920727187244 49.32416909938911,58.597051858494524 48.95517864456633,59.05485147575382 49.14705368102295,58.76660741450905 48.910899790003896,58.122295411420055 49.3389287176542,58.32576262076327 48.67474589886842,58.88529620417103 48.95517864456633,59.00398491184751 49.13229406287428,58.78356296093261 49.01421711727744,59.05485147575382 49.279890244826674,58.41054055355198 49.1175344446674,58.936162803234765 49.294649863033555,59.15658455841185 49.0437363536912,58.902251738880295 46.903591715556104,61.08950168386218 49.5455633723177,58.630962983035715 51.44955411943374,60.156956662627636 52.3351312110899,61.47947355559154 51.464313737582415,76.53510222148907 46.06229347840417,76.67073252121918 44.9700817320263,76.95894655273878 44.80772593180882,79.38331603964616 45.36859142326284,79.79019987511856 46.56412049703067,79.51894409183296 47.095466752012726,80.0953621196677 46.65267820621375,80.4513840534928 47.44969758874504,80.55310447057127 47.597293770639226,80.84131199204421 47.56777453428367,81.21428571428987 47.30210140673444,80.85826536059903 47.15450522478204,80.94303217838751" stroke="#4dd2ff" stroke-linecap="round" stroke-linejoin="round" stroke-width="0.5"><title>2021-06-02 5.9km</title></polyline><polyline fill="none" points="69.37093693157658,80.52029571883031 71.43909383239225,78.6251601264812 74.6458989145467,74.300998238381 77.41118735505734,68.53534155862872 78.59631097246893,64.13093770982232 78.57307325443253,58.07142857144936 79.03782761411276,58.498534983053105 79.27020479389466,63.14327367171063 77.64356453495566,69.2560553624644 75.85426024987828,73.42014197443496 72.9727832195349,77.69093347160378 69.3012237775838,81.21428571428987" stroke="#4dd2ff" stroke-linecap="round" stroke-linejoin="round" stroke-width="0.5"><title>2021-06-01 2.2km</title></polyline><polyline fill="none" points="111.57142857159488,71.22466962254839 111.10642525949515,71.7587849511765 101.16250828001648,68.59516878926661 94.33053654246032,68.80059913959121 93.75822477391921,69.33471757633379 89.32280856696889,67.77344637486385 88.42857142863795,67.81453253410291 88.46434091427363,68.2664800179773 89.28703908179887,67.52692933450453 94.25899757142179,69.5812335468363 103.27290792693384,69.86883532820502" stroke="#4dd2ff" stroke-linecap="round" stroke-linejoin="round" stroke-width="0.5"><title>2021-05-31 1.1km</title></polyline><polyline fill="none" points="126.81463119271211,80.35317377815954 127.28286331123672,76.53197312052362 128.07885791291483,77.12399188056588 130.9818970472552,76.53197312052362 131.96518449601717,75.4555737246992 132.71435588574968,72.28018310031621 134.44681472401135,72.92602676257957 133.41670406330377,72.49546440632548 133.93175939377397,71.74197946320055 133.8381129698828,73.03366729838308 133.93175939377397,71.68815907009412 133.88493618182838,73.6795100661111 132.3865934025962,72.17254241544288 137.16256101126783,74.80973306519445 132.29294697893783,72.97984703310067 133.46352727524936,72.44164408801589 132.85482552135363,70.66557059111074 132.3865934025962,73.30276854481781 133.8381129698828,71.95726098190062 133.3230576396454,71.09613439551322 134.6341075715609,73.03366729838308 135.24280932545662,72.76456591900205 133.51035048719496,73.57186965807341 131.9183612843044,72.81838620558847 134.21269866498187,72.6031050272868 132.62070946209133,72.2263627606444 131.4501291657798,76.04759365593782 126.95510082831606,76.80107263673563 127.09557046392001,78.84622461081017 125.22264198982157,80.29935423698043 125.31628841347992,81.21428571426077 126.01863659126684,80.19171513838228 123.95841526985168,74.5944526749663 114.26601041737013,58.071428571420256" stroke="#4dd2ff" stroke-linecap="round" stroke-linejoin="round" stroke-width="0.5"><title>2021-05-30 1.4km</title></polyline><polyline fill="none" points="140.69752593769226,67.3595998614328 144.02673583396245,69.25303945178166 150.10335195530206,71.51772919850191 152.91540303267539,71.25784746056888 156.47086991218384,71.92611442427733 162.4505187550094,71.0350915423769 163.0,70.58957931064651 162.38587390258908,71.0722175379342 156.69712689542212,71.7033589015191 148.77813248208258,71.18359550257446 143.509577015182,69.77280551634612 139.8571428571595,67.87936854053987" stroke="#4dd2ff" stroke-linecap="round" stroke-linejoin="round" stroke-width="0.5"><title>2021-05-27 1.4km</title></polyline><polyline fill="none" points="188.71428571431898,71.30716074805241 185.81639751559123,71.16846956071095 179.9401242234744,68.94940498139476 171.04521739156917,68.62579051917419 165.57142857136205,67.146407274995 168.95229813689366,68.4408678690088 178.08869565208443,69.27301922018523 187.5068322981242,72.13930701074423 188.27155279484577,71.90815541925258" stroke="#4dd2ff" stroke-linecap="round" stroke-linejoin="round" stroke-width="0.5"><title>2021-05-25 1.1km</title></polyline><polyline fill="none" points="11.922939388547093,94.5488457721367 13.023600929765962,95.44712555911974 16.70212765946053,95.77982116944622 20.351689612027258,97.87579596941941 24.725370999309234,97.70944923875504 27.187377078458667,98.10868125437992 32.343107455642894,97.37675553164445 34.428571428521536,96.34540295400075 34.428571428521536,97.110600329499 26.202574646798894,98.30829708499368 23.074378687655553,97.77598794092773 20.293760057189502,98.00887329480611 14.790452351095155,96.67809767840663 11.285714285681024,95.11442962058936" stroke="#4dd2ff" stroke-linecap="round" stroke-linejoin="round" stroke-width="0.5"><title>2021-05-24 1.6km</title></polyline><polyline fill="none" points="46.014950166107155,95.82970091036987 51.397009966662154,95.98424929162138 51.397009966662154,96.64107923212578 54.828073089709505,98.18655710088206 60.14285714284051,97.68427746230736 54.7271594684571,98.22519396943972 50.89244186040014,97.5683666850382 46.889534883666784,97.76155129476683 37.0,94.63194888771977" stroke="#4dd2ff" stroke-linecap="round" stroke-linejoin="round" stroke-width="0.5"><title>2021-05-21 1.1km</title></polyline><polyline fill="none" points="76.58788926294073,108.0 77.41294619126711,107.20516170194605 77.14679879508913,106.41032136545982 77.5726346289739,102.71122990522417 79.16951900639106,102.16094806444016 79.51551062159706,101.33552347120713 81.43177187454421,101.79409296109225 85.37075333879329,101.24380949186161 85.23767964052968,99.47066722231102 83.90694265940692,96.59693234454608 81.245468697045,92.86715159617597 79.32920744421426,91.06338906477322 76.26851238752715,89.25961603413452 71.93030982895289,88.64816516652354 70.33342545165215,88.00614045688417 67.99132836482022,88.34243928018259 65.0637070061639,86.59979596876656 64.50479747413192,84.85714285715949 63.20067523268517,85.31573673133971 63.280519451596774,86.29406806151383" stroke="#4dd2ff" stroke-linecap="round" stroke-linejoin="round" stroke-width="0.5"><title>2021-05-20 1.7km</title></polyline><polyline fill="none" points="88.53983516502194,94.44764541630866 88.42857142863795,92.08328114758478 93.37980769248679,91.18865457957145 111.18200549460016,91.57206611719448 111.57142857159488,100.26266677299282 110.51442307699472,101.02947888080962 101.50206043967046,100.26266677299282 100.38942307699472,101.02947888080962 93.54670329694636,101.66848827752983 89.5968406596221,101.09337984892773 88.70673076924868,100.32656781654805 88.70673076924868,93.68082551792031" stroke="#4dd2ff" stroke-linecap="round" stroke-linejoin="round" stroke-width="0.5"><title>2021-05-18 1.1km</title></polyline><polyline fill="none" points="114.14285714284051,97.21597172370821 115.04319818096701,98.06209703764762 119.44259189080913,99.9188615022722 122.20500189461745,99.84835172355815 124.06707086006645,100.27141008287435 127.27965138305444,99.895358245034 130.81962864717934,98.8612126311491 131.82228116702754,98.25012447715562 133.43880257674027,97.12195761447947 137.28571428568102,93.33785892695596 136.6718453959329,92.58573277427058 135.15763546794187,93.76092884450918 126.2974611595273,94.72458529734286 125.00833649095148,94.37202851056645 118.03069344442338,94.16049418812327 117.66237211052794,94.74808906455291 117.74422129592858,94.51305128788226 117.33497536939103,94.67757775592327 116.90526714653242,95.57071945742064 116.27093596046325,95.82925985152542 114.4293292913353,95.45320100369281 114.16331943904515,94.95962286536815" stroke="#4dd2ff" stroke-linecap="round" stroke-linejoin="round" stroke-width="0.5"><title>2021-05-10 2.5km</title></polyline><polyline fill="none" points="163.0,103.81901858469064 162.88476585655008,103.15720838669222 162.097332542995,102.34097311219375 160.8489626556402,102.95866494542861 160.2151748666074,102.7601213279122 160.17676348553505,102.14242894631752 160.59928867814597,101.43649270702736 160.44564315362368,99.47309582488379 159.98470657970756,98.81127276693587 157.54558387678117,99.56133875134401 155.9131001777714,99.38485286370269 155.85548310622107,98.87745516083669 151.63023117964622,98.94363753523794 149.42157676350325,98.59066464568605 145.88772969774436,99.23042759775126 143.3717842324404,99.29660986764065 141.3743924126029,98.85539436506224 139.8571428571595,96.23014412712655 142.06579727330245,94.64174246491166 143.0452874925686,93.5607404375769 145.0618850030005,92.52385603210132 145.31155898037832,91.77376644400647 147.44339063426014,90.8251201264793 149.4983995257644,89.41317396903469 148.67255483102053,90.33976464046282 146.38707765273284,91.33253609923122 144.23604030825663,89.43523569629178 142.87243627745192,89.03812427243975" stroke="#4dd2ff" stroke-linecap="round" stroke-linejoin="round" stroke-width="0.5"><title>2021-05-08 2.6km</title></polyline><polyline fill="none" points="188.71428571408615,92.42594468028983 188.5627776477486,94.03570841200417 184.01753565575927,94.29675062579918 183.33574935700744,95.55845248090918 176.32850128575228,93.94869430654217 172.69230769225396,94.25324360097875 171.36661211121827,94.99286244047107 166.2153378536459,93.86168018370518 165.57142857136205,94.9058485236892 170.94996492844075,96.82015072734794 178.75263034831733,97.60327196161961 188.5627776477486,100.43119817684055" stroke="#4dd2ff" stroke-linecap="round" stroke-linejoin="round" stroke-width="0.5"><title>2021-05-08 1.3km</title></polyline><polyline fill="none" points="34.42857142863795,122.82648253321531 33.845395983429626,123.14378154446604 30.40773020091001,121.87458380952012 29.855248200241476,122.36816124198958 26.356195528642274,121.02844948243 24.084880636655726,122.08611707825912 19.143236074247397,122.40341674664523 15.98181129223667,121.38100569549715 12.789693065569736,121.94509491298231 11.68472906399984,121.76881712814793 11.285714285681024,121.20472763248836 16.411519514862448,121.41626129770884 19.419477074756287,122.75597160353209 24.330428192624822,122.61494970251806 34.24441076174844,125.40012194612063" stroke="#4dd2ff" stroke-linecap="round" stroke-linejoin="round" stroke-width="0.5"><title>2021-05-07 1.5km</title></polyline><polyline fill="none" points="37.10681318701245,127.65871253790101 37.0,127.0442818114825 38.709010989172384,126.47081230769982 39.421098901191726,124.75039901401033 48.35780219803564,119.42526477796491 51.20615384634584,120.24452067280072 51.88263736269437,121.14570027802256 52.70153846172616,119.13852483037044 52.38109890115447,118.76985889070784 52.38109890115447,120.1625951564929 52.20307692326605,119.71200452625635 51.5265934066847,121.26858825361705 52.41670329682529,120.24452067280072 51.56219780235551,121.14570027802256 52.02505494491197,119.63007890424342 51.70461538457312,121.22762559913099 52.48791208793409,120.53125985170482 53.94769230787642,120.77703613199992 56.119560439605266,119.99874407521565 58.11340659344569,120.08066962391604 60.14285714295693,121.26858825361705 58.82549450546503,120.36740891664522 57.223296703305095,120.1625951564929 53.4848351648543,121.0637749407324 51.633406593464315,119.87585572141688" stroke="#4dd2ff" stroke-linecap="round" stroke-linejoin="round" stroke-width="0.5"><title>2021-05-06 1.2km</title></polyline><polyline fill="none" points="68.48906292207539,125.32524376077345 69.4952741023153,123.16413989913417 76.66999729955569,117.83672841824591 79.68863083980978,114.62015110583161 83.66972724837251,112.50926120232907 85.2009181745816,113.96678135640104 85.85714285704307,128.79304241976934 85.02592492569238,124.3703385341505 72.9951390766073,130.95412239426514 69.84526059962809,127.93865943516721 63.93923845537938,131.15515262339613 62.714285714318976,133.21570789607358 63.98298676754348,133.91931022622157 67.7453416150529,130.4012888551224 69.14528760476969,127.18479090556502 68.3578179855831,126.02885699245962" stroke="#4dd2ff" stroke-linecap="round" stroke-linejoin="round" stroke-width="0.5"><title>2021-05-06 1.8km</title></polyline><polyline fill="none" points="102.44722118612844,119.63472422634368 104.53189108532388,119.00610576893087 104.74337933608331,118.34256282169372 102.32637075718958,117.36470773193287 102.62849682953674,117.43455461607664 102.26594554272015,117.81871222535847 104.04848936968483,118.51717951043975 105.6195449460065,118.27271612148616 105.1059306228999,120.54272664344171 106.67698619922157,119.6696474404016 106.61656098463573,120.33318783622235 107.25102573668119,120.29826468924875 109.60760910110548,122.18410956606385 111.3297277133679,122.5682618888386 111.35994032071903,123.54610223532654 110.81611339037772,124.31440342121641 111.57142857136205,127.8066599839658 110.936963819433,129.06386369661777 94.13875419623218,127.07328903686721 89.4558000745019,127.70189280124032 88.42857142852154,128.47018473630305 89.15367400227115,127.73681519911042" stroke="#4dd2ff" stroke-linecap="round" stroke-linejoin="round" stroke-width="0.5"><title>2021-05-02 1.6km</title></polyline><polyline fill="none" points="121.23218806530349,117.69258625415387 122.87269439431839,118.37010346463649 124.86473779426888,116.67630915058544 132.77432188089006,115.3890226012445 136.28969258605503,116.81181285361527 137.28571428591385,119.18312321125995 136.0553345393855,125.9582493120688 126.09511754079722,129.48128774855286 114.84593128389679,131.03954882733524 114.14285714295693,129.8877909888397 119.00578661845066,115.93103829259053" stroke="#4dd2ff" stroke-linecap="round" stroke-linejoin="round" stroke-width="0.5"><title>2021-05-01 1.0km</title></polyline><polyline fill="none" points="150.89678327250294,122.26409568695817 149.49479631590657,124.50011985120364 147.41598806995898,120.1957652666024 147.51267682551406,118.63053709123051 149.2047300490085,116.00317981373519 151.86367082875222,114.88515164516866 158.72857247828506,114.99695456383051 162.74115583696403,111.64285714289872 157.6649961664807,115.2205603334587 145.72393484646454,113.59941645013168 144.70870291232131,114.10253057884984 142.7265834219288,118.35103159263963 142.04976213234477,128.74854079651413 141.22790770977736,131.43173716962337 140.26102015329525,131.82303555042017 140.11598702007905,134.78571428573923 140.88949706498533,134.39441800618079 141.22790770977736,132.54973180714296 142.53320591058582,118.01562480744906 144.27360351197422,116.28268650179962 144.99876917898655,116.7298969082185" stroke="#4dd2ff" stroke-linecap="round" stroke-linejoin="round" stroke-width="0.5"><title>2021-05-01 1.8km</title></polyline><polyline fill="none" points="185.15844323526835,121.11196604790166 184.35165544593474,121.2492628138425 183.0368901595939,122.19317514655995 181.43825509550516,122.12452714961546 181.15438531769905,122.46776686352678 181.19920686160913,122.14168915140908 180.1234898091643,122.50209079768683 177.58360232412815,122.17601314984495 176.08955086232163,122.3476330406993 175.64133542386116,122.10736514616292 174.01281933049904,122.41628094959015 170.3374527344713,122.50209079768683 166.67702665313846,122.12452714961546 165.57142857142026,123.06843473330082 165.6461311444873,123.39451070840005 169.94899935438298,124.23544066575414 170.41215530759655,124.09814625648141 171.26376464084024,124.54435269045644 173.53472286270699,124.57867621489277 174.95407175133005,125.12785168494156 175.5666328506777,124.93907281266002 177.18020842940314,125.31663035246311 177.58360232412815,125.62554045740399 178.58461680350592,125.74567201673926 178.85354606661713,125.53973214994767 179.5856312828837,125.88296512588568 180.49700267449953,125.72851037052169 182.02093516552122,126.17471262297477 182.15539979713503,125.76283366132702 182.4840911187348,125.72851037052169 183.09665221796604,126.05458135988738 183.3058194227051,125.5568938148208 184.20225029974245,125.07636655832175 185.27796735218726,123.99517537841166 186.4732085216092,123.53180567294476 187.10071013559354,122.77668202701898 188.14654615882318,122.45060489393654 188.71428571431898,121.66115246160189 188.4154754219344,120.75156152168347 187.95231946877902,120.25385880560498 187.0110670478898,120.85453431966016 185.57677764457185,120.76872365892632 185.4871345568681,121.31791115620581 183.47016508347588,122.31330907608208 183.88849949277937,122.70803426031489 184.17236927046906,122.5192527621839 185.14350272063166,123.25721563551633 185.9502905100817,123.1370823578327 186.01005256851204,122.93113940308103" stroke="#4dd2ff" stroke-linecap="round" stroke-linejoin="round" stroke-width="0.5"><title>2021-04-30 3.7km</title></polyline><polyline fill="none" points="34.245768449502066,148.48820038500708 32.7833446173463,150.58793240433442 31.97901150980033,150.7139159962826 24.00880162487738,148.53019512692117 16.91604603920132,148.48820038500708 17.866621530149132,149.28609977214364 11.285714285681024,147.31234593104455 16.550440081162378,149.16011575769517 24.95937711582519,149.95801388574182 33.62423832085915,152.68765406892635 34.42857142863795,152.51967671670718 33.33175355452113,152.14172743225936" stroke="#4dd2ff" stroke-linecap="round" stroke-linejoin="round" stroke-width="0.5"><title>2021-04-29 1.4km</title></polyline><polyline fill="none" points="45.893469387781806,149.43047091850895 47.77795918378979,147.94926159654278 47.11673469399102,146.7718860177556 48.27387755084783,146.39208667571074 56.17551020393148,138.83400182423065 57.10122448974289,138.72005971087492 60.14285714284051,142.21426917539793 56.274693877319805,144.7209651178273 56.704489795840345,144.75894523365423 54.2910204079235,147.3795641855977 55.31591836723965,146.99976544317906 55.54734693875071,146.12622691321303 54.39020408154465,147.075725221599 48.86897959175985,153.76012702164007 45.13306122459471,155.96291581957485 42.587346938671544,158.20367080028518 42.42204081628006,159.6468620170781 40.33918367349543,161.27994028912508 38.62000000011176,160.40643416825333 37.0,158.08973442119895 37.13224489800632,155.84897877721232 39.41346938780043,154.78556475465302 40.23999999999069,153.4942723486747 42.5212244897848,152.50681052697473 42.951020408188924,151.5193461717863 44.07510204077698,150.873695031245 44.40571428567637,149.7343080235878 45.26530612248462,149.0886538886116 46.224081632564776,149.3165319423424 46.422448979574256,148.59491764285485" stroke="#4dd2ff" stroke-linecap="round" stroke-linejoin="round" stroke-width="0.5"><title>2021-04-26 2.2km</title></polyline><polyline fill="none" points="76.36827058740892,157.48240971943596 76.99934825475793,156.6123983662401 77.7313983484637,147.4771236066299 80.2052228039829,138.42857142857974 77.93334320210852,147.33211695510545 76.1410826271167,148.17315453774063 73.54104263836052,147.99914695954067 70.84003022278193,148.40516448163544 69.42641624831595,149.27520013938192 68.44193508732133,150.66725183240487 68.36620576737914,159.19342453192803 69.50214556837454,161.2814291092218 70.25943876884412,161.57142857142026 70.76430090260692,161.31042906831135 73.49055642506573,159.0194234807277 74.42455137241632,159.6574268315162 75.33330321323592,158.99042329547228 75.51000496000051,158.23641747501097" stroke="#4dd2ff" stroke-linecap="round" stroke-linejoin="round" stroke-width="0.5"><title>2021-04-25 2.2km</title></polyline><polyline fill="none" points="100.89424754248466,161.57142857142026 100.21179547067732,156.48881911006174 100.58832075167447,153.59601522693993 100.21179547067732,148.21585946154664 100.56478792161215,138.83412898430834 100.28239396086428,138.42857142855064 99.69407320918981,138.83412898430834 99.10575245751534,148.4051129653235 99.34108075825498,157.81355087601696 100.28239396086428,158.08390351053094 100.35299245093483,157.84058615152026 100.47065660147928,153.21751526230946 100.16472981043626,156.81324380839942" stroke="#4dd2ff" stroke-linecap="round" stroke-linejoin="round" stroke-width="0.5"><title>2021-04-18 2.2km</title></polyline><polyline fill="none" points="137.28571428568102,153.29425466191606 133.14121981163044,152.8753354504588 120.60826852242462,149.10504209555802 115.07122390496079,148.57186632679077 114.14285714284051,147.962521689391 120.74089234543499,147.88635354221333 122.19975440041162,146.70574533808394 125.05116659833584,148.00060575746465" stroke="#4dd2ff" stroke-linecap="round" stroke-linejoin="round" stroke-width="0.5"><title>2021-04-16 1.0km</title></polyline><polyline fill="none" points="163.0,151.85609610054235 162.3221757321735,152.03683598682983 162.04378362221178,151.4668094044464 161.5596234309487,151.2721656532376 160.94231918704463,151.42510005178337 160.72444710100535,151.2443593810749 160.42184698145138,150.82726464112056 160.95442319184076,149.8818453278509 160.77286312007345,149.18668002246704 160.40974297671346,149.03374319522118 157.5895098625333,149.2283900375187 155.18081291095586,149.01983983903483 154.00672444712836,149.29790670175862 153.51046025106916,149.10325995543099 152.711595935456,149.18668002246704 152.51793185895076,149.01983983903483 150.94441123725846,149.20058336216607 150.38762701733503,149.0059364814806 149.7461147638969,149.18668002246704 149.1046025104588,148.92251630745886 147.7489539749222,149.1727766814147 146.6353855349589,148.72786904277746 145.71548117155908,148.83909608410613 145.19500896596583,148.19953939794505 144.25089659291552,148.25515313800133 143.39151225343812,147.99098767715623 143.04049611481605,148.15782907845278 142.55633592349477,147.68511126183148 141.8421996413963,147.93537383283547 140.80125523009337,147.58778680866817 140.19605499104364,147.90756690247508 140.61969515844248,147.60169030608085 140.7165271966369,148.07440840247727 139.8571428571595,148.03269804599404 140.5833831440541,147.768532168222 140.23236700543202,147.85195302522334 140.60759115364635,147.82414607839019 140.30499103409238,147.9492772959784 140.4986551105976,148.15782907845278 140.29288702929625,147.99098767715623 140.5833831440541,147.89366343518486 140.4986551105976,147.74072520490154 140.25657501496607,147.82414607839019 140.34130304842256,148.03269804599404 140.7165271966369,147.87975996655587 140.5349671249278,147.81024260287813 140.51075911539374,148.00489113479853 140.60759115364635,147.7546286872821 140.47444710106356,148.00489113479853 140.55917513446184,147.81024260287813 140.61969515844248,147.96318075773888 140.43813508673338,147.46265527012292 140.54707112978213,147.82414607839019 140.48655110580148,147.58778680866817 140.51075911539374,147.82414607839019 140.268679019704,147.64340079014073 140.3534070532187,147.51826930095558 140.43813508673338,147.64340079014073 140.25657501496607,147.7129182361241 140.4986551105976,147.83804955247615 140.30499103409238,147.7268217212113 140.5349671249278,147.51826930095558 140.36551105801482,147.81024260287813 140.1718469815096,147.81024260287813 140.36551105801482,147.44875175897323 140.1839509862475,147.5738833098876 140.47444710106356,147.82414607839019 140.268679019704,147.69901474965445 140.30499103409238,147.82414607839019 140.36551105801482,147.7129182361241 140.42603108187905,148.29686342869536 140.30499103409238,149.60377961714403 141.47907949791988,149.8540387814719 141.5759115361725,150.07649099895207 142.62895995221334,149.97916819700913 143.23416019132128,150.20162021700526 148.0636580992723,150.41016866694554 152.83263598330086,151.0219090066821 155.12029288703343,151.10532793823222 156.1370292887441,151.32777818097384 157.3111177525716,151.92561146889057 159.15092647931306,151.71706526105118 159.3445905558765,152.0507390454295 159.59877465630416,151.93951453841873 161.3296473401133,152.3009938653704 161.63224745966727,152.55124824102677 162.17692767485278,152.4261211087287 162.34638374176575,151.9117083979363 162.83054393308703,151.71706526105118" stroke="#4dd2ff" stroke-linecap="round" stroke-linejoin="round" stroke-width="0.5"><title>2021-04-09 4.9km</title></polyline><polyline fill="none" points="188.2471162378788,151.23832400713582 180.98802129551768,149.1331830608833 180.16149068344384,148.34891215793323 175.0585625555832,148.76168650068576 171.3571428572759,148.39018961059628 172.03992901509628,148.80296391260345 171.71650399290957,148.96807351932512 165.57142857136205,147.5646397852979 170.6743566992227,149.09190568162012 178.00532386871055,149.71106594376033 188.17524401075207,152.4353602147021 186.8096716948785,151.89875820017187 188.71428571431898,151.65109549998306 188.21118012419902,151.0319381080044" stroke="#4dd2ff" stroke-linecap="round" stroke-linejoin="round" stroke-width="0.5"><title>2021-04-09 1.4km</title></polyline><polyline fill="none" points="12.206168831209652,175.50191781527246 13.323863636469468,176.44589635328157 21.41071428579744,179.54212962117163 24.99391233769711,179.3910944329109 28.11688311700709,180.03299357136711 33.90259740280453,179.3910944329109 34.428571428521536,178.74919421831146 32.094561688485555,178.14505185672897 29.300324675394222,178.7114353486395 26.40746753255371,177.61642650826252 24.00771103904117,177.805221359391 19.93141233769711,175.72847287659533 19.405438311747275,174.74673330882797 17.071428571478464,173.8405099347292 15.296266233897768,173.53843500008225 11.285714285681024,174.52017766638892" stroke="#4dd2ff" stroke-linecap="round" stroke-linejoin="round" stroke-width="0.5"><title>2021-04-08 1.4km</title></polyline><polyline fill="none" points="59.99257884977851,177.75235782240634 60.14285714284051,178.5463806631451 58.18923933210317,178.58090335456654 53.019666048232466,176.82024175437982 45.205194805166684,176.44049005192937 41.08756957319565,174.99052521688282 37.0,175.61193945314153 40.87717996281572,175.1631403931824 44.99480519478675,176.40596714953426 52.65899814479053,176.7511960209522" stroke="#4dd2ff" stroke-linecap="round" stroke-linejoin="round" stroke-width="0.5"><title>2021-04-06 1.3km</title></polyline><polyline fill="none" points="69.78186484170146,173.3106607530499 72.69204448233359,172.4017847928917 73.89307100092992,173.36412399582332 73.89307100092992,174.37992457667133 73.10778443119489,174.80762949713971 74.49358425987884,176.30459397862433 75.92557741631754,176.4649827774847 77.77331052161753,175.60957528511062 79.85201026499271,172.9898811817984 81.69974337029271,173.68490333872614 83.22412318224087,172.7760280255461 85.81094952928834,173.09680772718275 85.81094952928834,169.83553830580786 85.53378956369124,171.8136877460638 84.00940975197591,171.5463706891751 85.85714285704307,171.8671511412249 85.76475620176643,173.25719750468852 81.79213002556935,173.63144012837438 79.85201026499271,172.93641790095717 76.7108639862854,176.89268600166542 77.4499572282657,176.25113103486365 73.98545765597373,176.19766808568966 73.29255774151534,175.02148182695964 74.30881094955839,175.02148182695964 74.21642429428175,174.48685083934106 73.01539777568541,172.34832145209657 72.5072711717803,173.09680772718275 71.49101796397008,172.9898811817984 70.1976047900971,175.7699642960215 65.90162532054819,178.01540530950297 64.5158254916314,180.5816118667717 64.33105218107812,178.60349541861797 63.961505559971556,181.11623665632214 63.63815226661973,179.94006140186684 63.961505559971556,180.74199936079094 63.68434559414163,180.04698653373634 65.57827202719636,181.00931174191646 67.1026518389117,183.3081926088198 69.08896492701024,183.14780589792645 69.64328485867009,182.02509755053325 68.44225834030658,181.49047368543688 69.50470487587154,181.49047368543688 68.99657827196643,182.13202225847635 68.53464499535039,181.70432329678442 69.08896492701024,182.34587160876254 69.22754491004162,181.8112480698037 69.4585115481168,183.04088139667874 68.67322497838177,183.7358902656706 66.13259195862338,183.52204148081364 63.776732249418274,180.74199936079094 64.19247219804674,178.33618181425845 64.46963216387667,180.26083673210815 62.714285714318976,181.2766239870689 63.22241231822409,180.42122432397446 62.89905902463943,181.49047368543688 64.19247219804674,180.5816118667717 64.37724550883286,178.22925633442355" stroke="#4dd2ff" stroke-linecap="round" stroke-linejoin="round" stroke-width="0.5"><title>2021-04-05 1.9km</title></polyline><polyline fill="none" points="106.62896687281318,182.874352177736 105.72142974147573,183.33125652201124 106.07655296672601,182.78297119712806 106.7078831451945,182.78297119712806 106.84598662157077,182.39460161403986 106.13574017107021,186.62094031469314 104.6166019293014,187.7174908529705 104.53768565692008,188.35714285714494 104.47849845280871,187.7174908529705 106.194927375298,186.68947488044796 106.76707034942228,184.45066823037632 107.16165171086323,180.88680744508747 106.17519830714446,180.17859759292332 104.0444589551771,179.7902234983776 102.78179859847296,180.77258020092268 100.1381034766091,181.5264789370558 95.32421086647082,184.4278231493081 94.45613187120762,183.0342688041419 93.44994939956814,183.468327643699 92.97645176562946,183.28556612947432 90.21438223531004,171.4285945227457 90.05654969078023,169.25817536185787 91.45731352397706,175.6094479951571 91.89135302160867,175.79221576709824 96.96172351657879,173.48476171219954 100.8680789952632,172.22821733748424 103.31448343640659,170.8574336230231 106.74734128126875,168.09299430117244 108.77943529293407,165.21428571428987 109.94345030921977,165.80830797379895 109.80534683272708,165.99108373692434 109.33184919902124,165.83115495233505 109.60805615200661,165.60268506214197 109.60805615200661,165.96823677470093 109.72643056046218,165.3513679139287 109.05564224591944,165.55699105607346" stroke="#4dd2ff" stroke-linecap="round" stroke-linejoin="round" stroke-width="0.5"><title>2021-04-05 3.7km</title></polyline><polyline fill="none" points="119.98264352465048,168.39462557143997 123.65954606141895,171.31691999925533 126.68758344464004,179.74976831802633 126.75967957265675,184.00790626066737 128.41789052076638,183.67393545759842 130.07610146841034,185.17680299998028 133.82510013366118,182.42154373251833 137.2857142854482,183.3399645179743 130.22029372490942,181.67010777798714 130.22029372490942,184.4253695734078 130.5807743659243,180.58469907118706 130.43658210942522,184.5923548389692 130.652870493941,183.256471761968 127.76902536675334,183.84092087624595 129.71562082786113,182.58852940646466 130.72496662195772,184.4253695734078 128.92256341781467,183.256471761968 130.22029372490942,182.92250065220287 129.93190921237692,184.50886221032124 130.72496662195772,184.50886221032124 129.78771695587784,182.83900785335572 131.4459279035218,184.92632526782108 129.78771695587784,183.4234572655405 129.93190921237692,182.0875722822966 131.15754339145496,184.00790626066737 130.00400534039363,182.1710651575122 128.0574098797515,182.0875722822966 127.19225634168833,184.25838427391136 127.40854472620413,183.17297899740515 123.73164218943566,180.41771298879758 125.1735647530295,175.07414037082344 123.73164218943566,175.65859532402828 123.80373831791803,173.48776053875918 119.5500667556189,171.14993202721234 114.1428571427241,171.6508958415361 117.17089452594519,172.73631638777442 118.18024032050744,175.57510178466327" stroke="#4dd2ff" stroke-linecap="round" stroke-linejoin="round" stroke-width="0.5"><title>2021-04-04 1.4km</title></polyline><polyline fill="none" points="154.1436552272644,166.42605263722362 146.96807661582716,169.69365809333976 140.0510774140712,177.71408405760303 146.58020750200376,184.91754192020744 150.39425379084423,180.61032798164524 154.8547486034222,178.753762646229 154.98403830826283,176.30308938998496 159.12130885850638,173.25830240885261 153.04469273728319,165.53488505014684 147.9377494014334,168.95102173567284 139.85714285704307,178.15966077148914 146.45091779716313,184.1006584125571 150.32960893842392,179.57065195811447 156.66480446909554,178.53097449807683 158.53950518765487,177.11998136213515 159.50917797279544,173.40682888880838 159.250598563347,172.738459497632 158.47486033523455,174.22372400481254 156.212290502619,175.33767046168214 156.1476456504315,174.66930278541986 163.0,170.1392395562725 160.47885075816885,168.80249437619932 157.82841181149706,165.53488505014684 156.3415802072268,167.98559337487677 151.81644054269418,166.05473293748219 142.89545091753826,174.0751976860338 140.11572226625867,178.01113522954984 146.58020750200376,184.1006584125571 150.39425379084423,180.09049014939228 150.97605746192858,180.5360654562246 149.3599361530505,182.76393803261453 158.2162809255533,184.62049347464927 161.06065442948602,188.03654352127342 155.04868316021748,177.04571849212516 155.69513168395497,175.04061823431402 158.8627294495236,172.36714291304816 155.37190742208622,170.21350310766138 153.43256185133941,166.50031655514613 152.0750199521426,165.9804689756129 150.91141260950826,166.79737215361092 151.49321628105827,167.31721916876268" stroke="#4dd2ff" stroke-linecap="round" stroke-linejoin="round" stroke-width="0.5"><title>2021-04-02 3.1km</title></polyline><polyline fill="none" points="179.7689969605999,185.72942619532114 177.06079027371015,184.78677636021166 171.95212765969336,184.6925111721357 166.41261398186907,183.96195470365637 165.94072948337998,183.51419318340777 165.57142857147846,181.27537299469986 166.10486322198994,180.8511731212202 167.21276595757809,180.80403975537047 166.20744680869393,177.66965006171085 166.45364741655067,173.42755340767326 167.9924012159463,171.23577395551547 168.60790273570456,169.75100870768074 171.54179331311025,167.72417140823381 172.73176291806158,169.0204065471189 173.83966565364972,169.25608490752347 174.41413373872638,169.939550837953 176.8351063830778,169.939550837953 180.56914893630892,170.52874403604073 182.3746200609021,171.47145013038244 185.37006079033017,174.13457474780444 188.2013677811483,179.03653182649578 188.28343465051148,179.67283618729562 187.62689969607163,180.23843864086666 187.3601823708741,181.13397312052257 187.93465045595076,181.11040646670153 188.7142857144354,183.1135637434054 188.2013677811483,184.17405197306653 186.41641337389592,184.50398068447248 185.98556231008843,185.04600543562265 184.98024316108786,184.55111332028173 184.54939209739678,184.73964377082302 183.48252279637381,184.40971538484155 182.96960486320313,185.847257163201 182.80547112470958,185.68229379189142" stroke="#4dd2ff" stroke-linecap="round" stroke-linejoin="round" stroke-width="0.5"><title>2021-04-02 3.2km</title></polyline><polyline fill="none" points="13.710496400250122,201.61477394215763 21.537324744276702,205.1050262322533 25.773020083317533,205.06977132891188 28.35126942023635,205.66910421149805 31.819628647295758,204.8229869088682 34.428571428521536,204.85824183633667 28.53543008712586,205.6338493639778 25.95718075032346,205.03451642225264 21.782872300129384,205.24604581054882 16.380826070555486,203.69482738969964 11.285714285681024,201.47375293137156" stroke="#4dd2ff" stroke-linecap="round" stroke-linejoin="round" stroke-width="0.5"><title>2021-04-01 1.4km</title></polyline><polyline fill="none" points="37.0,200.65650893500424 39.61351414537057,203.31040054565528 42.68155248998664,203.96299439755967 46.27986906724982,205.8337580889056 51.203881225315854,205.7467460001062 53.93102642032318,206.48634820783627 60.14285714295693,205.7467460001062 55.78700023377314,206.39933624776313 50.52209492633119,205.6162278347765 45.82534486800432,205.8337580889056 38.780219780281186,203.91948817073717 38.06055646482855,203.52793193684192 38.89385083015077,203.1798816593655" stroke="#4dd2ff" stroke-linecap="round" stroke-linejoin="round" stroke-width="0.5"><title>2021-03-29 1.2km</title></polyline><polyline fill="none" points="73.86368685797788,215.1428571428405 72.78517232020386,209.06122434331337 72.03490133699961,208.84594406792894 68.37733029597439,203.57155087549472 65.93894960172474,203.35626844118815 73.53544330270961,192.0 76.06760786985978,193.56082811160013 81.03815313102677,198.62003346602432 80.5223418304231,202.2260342721711 82.6324789696373,214.6046622749418 75.9269320606254,210.13762444985332 73.48855136614293,209.6532446637866 73.25409168424085,210.67582370952005" stroke="#4dd2ff" stroke-linecap="round" stroke-linejoin="round" stroke-width="0.5"><title>2021-03-28 1.4km</title></polyline><polyline fill="none" points="99.71516483533196,199.379507933103 101.03252747259103,200.15655635067378 101.35296703316271,199.502199885319 102.6347252749838,199.42040525449556 102.91956043988466,198.76604762728675 103.31120879133232,199.21591860699118 103.91648351657204,198.76604762728675 105.80351648363285,199.82937824717374 106.90725274733268,199.01143185855472 110.14725274732336,199.9929673311126 109.93362637399696,199.17502126528416 111.46461538481526,199.33861060769414 110.32527472544461,198.92963713093195 110.61010989034548,198.2752787291247 110.68131868145429,199.17502126528416 110.50329670356587,198.76604762728675 110.11164835188538,199.2977132780943 110.18285714299418,198.6433554571413 110.68131868145429,199.33861060769414 110.14725274732336,199.17502126528416 111.21538461558521,199.05232921626884 111.21538461558521,199.46130257184268 110.75252747256309,198.88873976102332 110.00483516510576,199.2977132780943 111.50021978025325,199.05232921626884 111.03736263746396,198.68425285126432 110.89494505501352,199.91117279726313 110.25406593433581,199.379507933103 110.18285714299418,199.82937824717374 111.07296703290194,199.25681594459456 110.68131868145429,199.2977132780943 111.57142857159488,200.40193975897273 111.46461538481526,199.21591860699118 110.93054945068434,199.2977132780943 111.21538461558521,199.87027552415384 110.43208791222423,200.1156591019244 110.32527472544461,199.66578909853706 109.89802197809331,200.2792480729695 108.402637362713,200.07476184910047 108.402637362713,199.25681594459456 108.75868131872267,206.29109799026628 104.73538461560383,207.1908231319685 101.45978021994233,206.12751139121247 101.70901098917238,206.65916760251275 100.71208791225217,206.12751139121247 94.94417582429014,205.84123468736652 92.06021978054196,206.7000642058556 91.81098901107907,208.17233924171887 91.13450549473055,208.70399283096776 88.82021978031844,208.86757841374492 88.42857142863795,208.21323569581727" stroke="#4dd2ff" stroke-linecap="round" stroke-linejoin="round" stroke-width="0.5"><title>2021-03-26 1.5km</title></polyline><polyline fill="none" points="116.58885017433204,202.1049270813528 123.92682926834095,205.09968118922552 126.50721752119716,204.91443949838867 128.76505724247545,205.40841709711822 132.01742160273716,204.76007133896928 133.30761572916526,204.91443949838867 137.28571428568102,203.49424955999712 133.7645594823407,204.91443949838867 129.22200099553447,205.28492277048645 126.82976605277508,204.79094497693586 124.16874066716991,205.0070603575441 118.4435042309342,203.61774459303706 114.14285714284051,201.7344400457223" stroke="#4dd2ff" stroke-linecap="round" stroke-linejoin="round" stroke-width="0.5"><title>2021-03-26 1.6km</title></polyline><polyline fill="none" points="163.0,205.62492482137168 161.23186999745667,205.39926684994134 158.59932088269852,203.7293944018311 156.35968954628333,203.77452616984374 153.13776376401074,202.5108349857619 145.27940819761716,202.73649438176653 146.45816153264605,203.3232082904142 145.9866601987742,203.45860370088485 139.85714285704307,201.51793232149794 144.8079068637453,203.4134719017602 151.8411350955721,203.86478969233576 157.85277710389346,205.30900363012915" stroke="#4dd2ff" stroke-linecap="round" stroke-linejoin="round" stroke-width="0.5"><title>2021-03-24 1.1km</title></polyline><polyline fill="none" points="188.71428571431898,205.26895937227528 187.04774844716303,205.16060682866373 185.4126552796224,203.9326090940449 182.80279503110796,203.49919714560383 180.66459627333097,202.52401838634978 174.12422360258643,202.66848947745166 174.69021739147138,203.28249097903608 169.56482919270638,201.87389777059434 165.57142857147846,202.3795472381462 167.1436335403705,202.59625393897295 169.69060559011996,201.91001561292796 174.4072204970289,203.3547263822402 182.99145962740295,203.7159031839401" stroke="#4dd2ff" stroke-linecap="round" stroke-linejoin="round" stroke-width="0.5"><title>2021-03-23 1.3km</title></polyline><polyline fill="none" points="33.96694528858643,231.5059956831974 26.18085106369108,228.7841083787207 23.011018236982636,229.31434778639232 19.871960486168973,228.96085493505234 20.73366261390038,229.52644332990167 20.395136778010055,229.63249105465366 15.44034954381641,228.14782005373854 11.285714285681024,228.74875905684894 15.132598784053698,228.21851881232578 19.7796352582518,229.5617925749102 25.934650455834344,229.98598324356135 34.428571428521536,232.56646566055133 33.04369300894905,231.89483503918746 34.428571428521536,231.5059956831974" stroke="#4dd2ff" stroke-linecap="round" stroke-linejoin="round" stroke-width="0.5"><title>2021-03-22 1.6km</title></polyline><polyline fill="none" points="56.70772762037814,218.9288253129198 57.02645097812638,219.1523246364377 56.8493824461475,219.86345724125567 58.46070608810987,220.10727357154246 58.88567056495231,220.4526795476122 58.74401573929936,221.08253601926845 59.38146245479584,221.50921189438668 60.14285714284051,222.82986973981315 59.68247895932291,224.04893103739596 59.0096185375005,224.33337763986492 58.76172259263694,225.06480996473692 55.48595474904869,227.90924442376127 51.87375669460744,229.3111298778531 50.740518089267425,230.04254460487573 49.87288228212856,230.7739567461831 47.340802273363806,234.2684457350406 37.0,241.78546040135552" stroke="#4dd2ff" stroke-linecap="round" stroke-linejoin="round" stroke-width="0.5"><title>2021-03-21 1.3km</title></polyline><polyline fill="none" points="73.2051220497815,228.34655612187635 72.91136882058345,226.4681330274907 70.89706096344162,223.96354649352725 70.07874839648139,223.72271951571747 67.30907509266399,226.25139097425563 64.56038416258525,229.7433229310991 63.867965836660005,229.93597979696642 63.11260039021727,231.98294963951048 64.3925251745386,233.81316701477044 67.43496933381539,235.25806581016514 70.72920197527856,237.9311061151966 70.54036061360966,238.07559394951386 70.98099045746494,238.02743134753837 70.58232536085416,237.81069952159305 71.0859023249941,238.65354443434626 72.19796812115237,239.9780091530556 76.41542519722134,241.9285714285652 78.59759204252623,241.71184305369388 83.73827355308458,238.1237565419724 84.43069187912624,236.67887464862724 85.4588281812612,232.05519532147446 84.43069187912624,230.27312894770876 80.59091752627864,226.7330397209589 76.43640757084358,221.50710020892438 73.35199866432231,218.78571428571013 69.8899070348125,223.60230593796587 70.51937824022025,223.67455409171816 71.37965555419214,224.46928237644897 73.05824543524068,226.61262762307888 73.03726306173485,227.28693460885552" stroke="#4dd2ff" stroke-linecap="round" stroke-linejoin="round" stroke-width="0.5"><title>2021-03-20 3.7km</title></polyline><polyline fill="none" points="109.29134412389249,236.18444657346117 101.38705137232319,233.6527601929265 93.02674173144624,233.3908607751655 88.54257565108128,232.43056158415857 88.42857142863795,230.85915841310634 89.07459535542876,230.16075521256425 88.46657283627428,228.98219731246354 88.61857846588828,226.93062607294996 91.01266713580117,224.5298391408287 94.96481351181865,225.0099975692574 98.9929627024103,226.36316851896117 106.59324419428594,226.18856604839675 110.65939479251392,225.53380616972572 111.1534130894579,224.9663468245417 110.4313863478601,226.6250720959215 109.97536945808679,232.2559615074424 110.3553835330531,235.1368539656687 111.57142857159488,235.3551026301575" stroke="#4dd2ff" stroke-linecap="round" stroke-linejoin="round" stroke-width="0.5"><title>2021-03-19 1.6km</title></polyline><polyline fill="none" points="123.52171030838508,230.12072870226984 128.55120981112123,232.27938580149203 130.50215445819777,232.15603456941608 132.20251905871555,232.52608804662304 133.9923765329877,232.13547602368635 134.9410009944113,232.21771019458538 137.28571428568102,231.51871870773903 132.93636062322184,232.5055295373022 130.69903878041077,232.15603456941608 128.19323831633665,232.2588272678986 118.18793503486086,229.07223004521802 114.14285714284051,228.64049377107585 115.01988730533049,228.76384708344995 114.42923433880787,228.51714038562204 114.60822008620016,228.41434584201488 115.96851176663768,228.49658148099843 117.77626781573053,228.18819766766683 118.38481935695745,228.64049377107585 118.74279085185844,228.41434584201488 119.17235664569307,228.8255237123376 119.54822671529837,228.70217043644516 120.03148823347874,229.11334773898125 120.64003977470566,228.88720032288984 121.89294000668451,229.79178851486358 122.14352005301043,229.48340661777183 121.49917136237491,228.51714038562204 121.24859131593257,228.5376992882957 121.33808418957051,229.23670077153656 122.50149154791143,229.8123472918087 122.98475306597538,228.66105266156956 123.25323168723844,229.2161419378681 123.61120318202302,229.1544654245663 123.23533311241772,229.25725960324053 123.45011600933503,229.19558310210414 122.93105734174605,228.476022574323 123.70069605577737,228.41434584201488" stroke="#4dd2ff" stroke-linecap="round" stroke-linejoin="round" stroke-width="0.5"><title>2021-03-19 3.1km</title></polyline><polyline fill="none" points="149.59587967564585,241.9285714285652 149.46590153709985,241.52546807244653 149.21894307399634,241.48067874439585 148.85500428610248,241.8240632541274 149.2969299570541,239.30091542800074 149.12795837695012,239.91304391274753 149.20594526006607,241.03278473486716 148.95898679696256,241.22687230171869 147.55522290105,241.1970126922388 147.38625132094603,240.3012216691277 147.50323164561996,239.50993518896576 150.9086588745704,238.74850467036595 153.19627411232796,238.59920411957137 153.118287229212,224.16114505915903 153.88515824644128,223.17566371365683 155.47089153627167,221.77208829247684 155.18493963149376,221.0553639066202 153.248265367758,218.78571428571013" stroke="#4dd2ff" stroke-linecap="round" stroke-linejoin="round" stroke-width="0.5"><title>2021-03-18 2.7km</title></polyline><polyline fill="none" points="173.42035266949097,240.01886642799946 174.06827627244638,240.131202725388 174.16607606154867,240.67884090576263 174.41057553433347,240.8192606126686 175.730872687418,241.0860576742998 177.4423689970281,240.93159627846035 178.62819144007517,241.2686027441232 179.72843906766502,241.9285714285652 180.0096134613268,241.04393185566005 179.85068880405743,237.29468407812237 180.86536161619006,237.19638786430005 179.41058975300984,236.78915996958676 178.00471778440988,236.71894814589177 177.3812441288028,236.04491287627025 176.14652179117547,223.27976736726123 177.49126889155013,221.70686493214453 178.44481683545746,221.15915375344048 177.76021831162507,219.93732891215768 176.58662084222306,218.78571428571013" stroke="#4dd2ff" stroke-linecap="round" stroke-linejoin="round" stroke-width="0.5"><title>2021-03-17 2.8km</title></polyline><polyline fill="none" points="12.065349544165656,255.89391371404054 12.352583586703986,255.89391371404054 13.788753799628466,256.5066148660262 14.199088145978749,257.02505368881975 18.466565349604934,258.20332164887805 22.980243161087856,258.81601984013105 24.498480243142694,258.72175863123266 25.565349544165656,258.9574116189906 26.09878419456072,259.1459339254652 28.232522796373814,259.4758477830619 29.99696048628539,260.18280528255855 30.57142857136205,260.32419665690395 31.556231003254652,260.84263133845525 32.37689969618805,261.3610654574586 32.70516717340797,261.4553261459805 33.07446808530949,261.64384746726137 33.977203647606075,261.87949901423417 34.42857142863795,261.83236871418194 34.38753799418919,261.83236871418194 34.38753799418919,261.83236871418194 34.264437690144405,261.87949901423417 34.34650455950759,261.83236871418194 34.38753799418919,261.83236871418194 34.42857142863795,261.87949901423417 34.182370820781216,261.83236871418194 33.64893617038615,261.83236871418194 31.84346504556015,261.87949901423417 30.612462006276473,261.50245648334385 29.42249240120873,261.2668047504267 28.232522796373814,261.1725440247974 27.0425531915389,261.2196743898385 26.427051672013476,261.2668047504267 25.23708206694573,261.3610654574586 24.703647416317835,261.3610654574586 22.857142857275903,261.2196743898385 22.282674772199243,261.0782832803379 21.174772036494687,260.79550093601574 20.600303951418027,260.51271842437563 19.492401215946302,260.13567481495556 18.917933130869642,259.9471528988797 16.579027355648577,259.4758477830619 15.060790273593739,258.86315043776995 14.937689969781786,258.58036678266944 15.430091185495257,258.4861055270885 15.635258358670399,258.4861055270885 15.799392097396776,258.29758296033833 15.635258358670399,258.2504523069074 15.224924012087286,258.1561909862794 15.019756838912144,258.10906031905324 14.896656535100192,258.06192964711227 14.650455927243456,258.06192964711227 14.486322188517079,257.9676682892605 14.281155015341938,257.9676682892605 14.075987841933966,257.9676682892605 13.788753799628466,257.87340691289864 13.583586626220495,257.7791455179686 13.460486322175711,257.7320148134604 13.050151975825429,257.49636122150696 12.927051671780646,257.4020997521002 12.721884498605505,257.2607075131382 12.598784194560722,257.1664459973981 12.475683890748769,257.02505368881975 12.311550152022392,256.83653054561 12.024316109484062,256.60087651206413 11.778115501627326,256.45948403605144 11.655015197582543,256.36522236216115 11.449848024407402,256.1295680962212 11.367781155044213,255.70539012463996 11.367781155044213,255.32834272275795 11.32674772059545,255.0926879454055 11.285714285681024,254.9041640399373 11.408814589725807,254.5271160059492 11.367781155044213,254.00867447335622 11.367781155044213,253.77301904538763 11.32674772059545,253.63162573272712 11.408814589725807,253.49023237838992 11.367781155044213,253.4431012510031 11.408814589725807,253.1131832288229 11.449848024407402,252.87752735917456 11.655015197582543,252.8303961713682 12.065349544165656,252.68900257983478 12.270516717340797,252.59474016228341 12.39361702138558,252.54760894659557 12.639817629242316,252.45334650125005 12.68085106392391,252.45334650125005 12.68085106392391,252.40621527150506 12.721884498605505,252.40621527150506" stroke="#4dd2ff" stroke-linecap="round" stroke-linejoin="round" stroke-width="0.5"><title>2021-03-02 1.4km</title></polyline><polyline fill="none" points="41.25182724255137,257.4828915896942 41.520930232713,257.60652762424434 44.48106312286109,258.1628894788446 46.36478405329399,258.8428866302129 47.06445182720199,259.15197600075044 48.94817275740206,259.6465186763671 49.64784053131007,259.6465186763671 51.639202657854185,259.52288304426474 52.285049833822995,259.3374295498361 54.27641195990145,259.21379385649925 55.51428571413271,259.6465186763671 56.16013289033435,259.89378986804513 57.290365448687226,260.3265142185264 58.366777408635244,260.51196742011234 59.71229235874489,260.3883319586166 59.92757475050166,260.26469647255726 60.1428571427241,260.3883319586166 60.0890365447849,261.25377967813984 59.12026578071527,261.5010502357036 58.31295681069605,262.1810437658569 57.936212624423206,262.3046788741485 57.55946843838319,262.4283139578183 57.34418604639359,262.4283139578183 57.02126245829277,262.4901314903982 56.805980066535994,262.6137665374554 56.052491694223136,262.9228540487238 56.16013289033435,263.2319414073718 56.53687707637437,263.47921118466184 56.53687707637437,263.5410286138649 56.53687707637437,263.60284603672335 56.59069767431356,263.5410286138649 56.32159468438476,263.47921118466184 55.99867109628394,263.60284603672335 55.891029900405556,263.6646634535282 55.78338870406151,263.72648086445406 55.729568106122315,263.7882982690353 55.729568106122315,263.7882982690353 55.51428571413271,263.47921118466184 55.406644518254325,263.3555763082113 55.245182723971084,263.1701239479007 55.19136212603189,263.0464890105068 54.6531561461743,262.9228540487238 54.43787375395186,262.9228540487238 54.168770764023066,262.9228540487238 53.89966777409427,262.86103655869374 53.57674418599345,262.86103655869374 53.30764119606465,262.86103655869374 52.76943521597423,262.7374015604146 52.5003322258126,262.6755840519909 52.23122923611663,262.6137665374554 51.962126245722175,262.5519490170409 51.42392026586458,262.4283139578183 51.20863787364215,262.3046788741485 50.93953488371335,262.2428613230586 50.67043189378455,262.119226202718 50.401328903390095,261.99559105804656 50.18604651163332,261.8101382954046 49.70166112948209,261.5628678597277 49.21727574733086,261.31559732655296 48.840531561523676,260.9446913438733 48.57142857112922,260.82105596771 48.30232558120042,260.69742056692485 48.033222591504455,260.5737851418671 47.764119601109996,260.4501496924204 47.60265780752525,260.3883319586166 47.17209302331321,260.20287872024346 46.956810631323606,260.1410609620507 46.74152823910117,260.0792431976297 46.52624584711157,259.9556076506851 46.25714285718277,259.89378986804513 45.98803986702114,259.83197207935154 45.396013288991526,259.77015428437153 45.18073089700192,259.70833648351254 44.911627906840295,259.6465186763671 44.588704318739474,259.6465186763671 44.37342192674987,259.58470086334273 43.835215946659446,259.52288304426474 43.56611295673065,259.3992473874241 43.08172757457942,259.028340270801 42.543521594721824,258.8428866302129 42.32823920273222,258.78106873785146 42.05913621280342,258.7192508394364 41.7362126247026,258.6574329348514 41.520930232713,258.59561502427096 41.25182724255137,258.47197918442544 40.76744186040014,258.22470743209124 40.49833887047134,258.1010715193115 40.28305647824891,257.9774355820846 39.744850498391315,257.6683456324972 39.583388704340905,257.54470960999606 39.36810631211847,257.4210735632223 38.88372093020007,257.1119833391858 38.66843853821047,256.9265291317133 38.39933554804884,256.55562055198243 38.022591362008825,256.1228935983381 37.376744186040014,255.62834814260714 37.376744186040014,255.4428934963653 37.26910299016163,255.13380229682662 37.16146179428324,254.8865292276023 37.0,254.08289107889868 37.16146179428324,253.77379920892417 37.215282391989604,253.464707186562 37.26910299016163,253.21743345883442 37.32292358833365,253.03197809914127 37.32292358833365,252.72288571088575 37.32292358833365,251.91924478829606 37.32292358833365,251.36287739221007 37.91495016613044,251.11560283537256 38.345514950109646,250.8683281810372 38.72225913638249,250.74469081725692 38.99136212631129,250.68287212622818 39.099003322189674,250.55923472589348 39.8524916942697,250.49741601670394" stroke="#4dd2ff" stroke-linecap="round" stroke-linejoin="round" stroke-width="0.5"><title>2020-12-25 1.0km</title></polyline><polyline fill="none" points="63.062298603821546,254.46970547479577 63.323308270890266,254.71953398990445 63.540816326625645,254.96936238187482 64.01933404942974,255.26915628972347 65.88990332977846,255.76881240849616 66.89044038672,256.06860584329115 67.5429645543918,256.2185024942446 70.58807733631693,257.4176741045958 71.45810955972411,258.0172588455607 72.45864661666565,258.4669469354558 73.93770139641128,259.0165651703137 74.50322234164923,259.11649569429574 75.54726100992411,259.11649569429574 76.15628356602974,259.11649569429574 77.20032223407179,258.91663462657016 78.15735768014565,258.8167040629196 79.24489795928821,258.8666693471896 79.85392051562667,258.8167040629196 81.55048335134052,259.11649569429574 82.11600429657847,259.31635668332456 83.20354457572103,259.5162175935693 83.81256713252515,259.46625237332773 84.9001074116677,259.416287148284 85.3786251344718,259.3663219183218 85.8571428572759,259.56618280886323 85.81364124594256,259.6161480190931 85.68313641287386,259.6661132244044 85.63963480154052,259.7160784249427 85.63963480154052,259.7660436203878 85.59613319020718,259.7160784249427 85.50912996800616,259.81600881091435 85.50912996800616,259.7160784249427 85.5526315793395,259.7660436203878 85.59613319020718,259.81600881091435 85.5526315793395,259.7660436203878 85.63963480154052,259.6661132244044 85.59613319020718,259.6661132244044 85.5526315793395,259.6661132244044 85.5526315793395,259.7160784249427 85.5526315793395,259.6661132244044 85.5526315793395,259.6661132244044 85.5526315793395,259.6661132244044 85.5526315793395,259.7160784249427 85.50912996800616,259.7160784249427 85.50912996800616,259.7160784249427 85.46562835667282,259.7160784249427 85.42212674580514,259.7160784249427 85.50912996800616,259.7160784249427 85.50912996800616,259.7160784249427 85.50912996800616,259.7160784249427 85.46562835667282,259.7160784249427 85.46562835667282,259.7660436203878 85.3786251344718,259.7160784249427 84.37808807753026,259.7160784249427 83.24704618705437,259.7160784249427 82.11600429657847,259.46625237332773 81.59398496267386,259.31635668332456 80.50644468329847,259.0165651703137 79.94092373806052,258.91663462657016 78.76638023625128,258.91663462657016 78.20085929124616,258.8666693471896 77.02631578966975,258.96659990079934 75.80827067676,259.11649569429574 75.24274973175488,259.11649569429574 74.06820623017848,259.066530434764 73.45918367360719,258.91663462657016 70.71858216985129,258.0172588455607 70.15306122461334,257.81739734398434 68.54350161133334,257.4176741045958 68.10848549939692,257.3677086775424 66.36842105281539,257.0679160114378 65.36788399564102,256.61822667971137 64.8023630506359,256.318433570239 63.714822771493345,255.71884681881056 62.714285714318976,255.3690875529137" stroke="#4dd2ff" stroke-linecap="round" stroke-linejoin="round" stroke-width="0.5"><title>2020-12-08 1.1km</title></polyline><polyline fill="none" points="88.42857142863795,254.75732605491066 88.6510989011731,254.79992505762493 90.13461538450792,255.9500965391926 90.61675824178383,256.12049205377116 92.50824175821617,256.6742770120618 93.39835164835677,256.9298698302882 93.84340659342706,257.1002649583097 94.88186813192442,257.48365375094 95.80906593403779,257.9522395907843 96.2912087913137,258.2504303151509 98.66483516478911,259.0598041006888 99.18406593427062,259.1024026789237 100.66758241760544,258.93200834063464 101.11263736267574,258.8894097454613 103.44917582417838,258.93200834063464 103.93131868122146,258.9746069314715 105.37774725281633,259.40059260939597 106.86126373615116,259.52838823079946 107.30631868122146,259.485789694445 108.27060439577326,259.52838823079946 109.75412087910809,259.3153955073212 110.19917582417838,259.2727969500702 111.12637362652458,259.18759982287884 111.57142857136205,259.14500125305494 111.3859890110325,258.8042125427164 110.34752747253515,258.7616139349702 109.90247252746485,258.8042125427164 108.97527472535148,259.0598041006888 108.64148351643234,259.14500125305494 107.67719780211337,259.3579940604395 107.23214285704307,259.40059260939597 106.3049450549297,259.40059260939597 105.82280219788663,259.3153955073212 104.89560439554043,259.14500125305494 104.45054945070297,259.0172055181174 103.00412087910809,258.7616139349702 102.52197802206501,258.7616139349702 101.55769230774604,258.8042125427164 101.03846153826453,258.8042125427164 100.07417582417838,258.8894097454613 99.1098901098594,258.93200834063464 98.18269230774604,258.8894097454613 97.29258241760544,258.6764167070214 96.84752747253515,258.54862083363696 95.883241758449,258.2504303151509 95.43818681314588,258.0800356406835 94.54807692300528,257.78184479873744 93.36126373615116,257.44105501295417 93.02747252746485,257.3984562708938 92.13736263732426,257.18546249720384 90.91346153849736,256.80207344004884 90.57967032981105,256.54648054629797 89.80082417582162,256.12049205377116 89.39285714295693,255.90749764998327" stroke="#4dd2ff" stroke-linecap="round" stroke-linejoin="round" stroke-width="0.5"><title>2020-12-03 1.3km</title></polyline><polyline fill="none" points="137.0412474849727,257.75124980477267 137.24496981874108,258.50003445113543 137.28571428568102,258.7340294107853 136.59305835003033,259.15522004745435 135.41146881273016,259.108421106328 133.78169014072046,258.8276273623633 132.2334004023578,258.17244131377083 131.7037223340012,258.07884323288454 128.68863179069012,256.90886566552217 127.588531187037,256.72166898686555 125.91800804808736,256.7684681635292 124.77716297772713,256.72166898686555 123.96227364172228,256.72166898686555 123.4733400400728,256.72166898686555 122.37323943665251,256.6280706200632 122.0065392353572,256.581271429779 120.74346076440997,256.4876730349497 120.2545271627605,256.44087383081205 118.54325955733657,256.30047619043035 118.01358148874715,256.20687774042017 116.9542253522668,256.11327927189996 115.56891348096542,255.50488877680618 115.039235412376,255.3176915445365 114.14285714295693,255.13049423822667 115.16146881273016,255.36449085953063 116.05784708238207,255.7856844868511 116.9542253522668,256.20687774042017 117.48390342039056,256.25367696766625 118.82847082498483,256.3940746219014 119.23591549298726,256.44087383081205 120.29527162970044,256.53447223463445 120.82494969805703,256.581271429779 121.92505030171014,256.581271429779 122.41398390335962,256.6280706200632 123.51408450701274,256.72166898686555 124.00301810866222,256.72166898686555 125.51056338008493,256.7684681635292 125.99949698196724,256.7684681635292 126.73289738432504,256.67486980577814 126.97736418503337,256.67486980577814 127.14034205232747,256.67486980577814 127.30331991938874,256.67486980577814 127.46629778668284,256.67486980577814 127.67002012068406,256.6280706200632 127.87374245468527,256.6280706200632 128.2811871226877,256.67486980577814 128.4441649899818,256.67486980577814 128.81086519127712,256.8152673353907 129.1775653923396,257.002463976969 129.1368209256325,257.09606227008044 129.1368209256325,257.1428614096367 129.09607645869255,257.1428614096367" stroke="#4dd2ff" stroke-linecap="round" stroke-linejoin="round" stroke-width="0.5"><title>2020-11-30 1.0km</title></polyline></svg>