<?xml version="1.0" encoding="utf-8" ?>
<svg baseProfile="full" height="300mm" version="1.1" viewBox="0,0,200,300" width="200mm" xmlns="http://www.w3.org/2000/svg" xmlns:ev="http://www.w3.org/2001/xml-events" xmlns:xlink="http://www.w3.org/1999/xlink"><defs /><rect fill="#222222" height="300" width="200" x="0" y="0" /><text fill="#FFFFFF" style="font-size:12px; font-family:Arial; font-weight:bold;" x="10" y="20">Over 3km Runs</text><text fill="#FFFFFF" style="font-size:4px; font-family:Arial" x="10" y="280">ATHLETE</text><text fill="#FFFFFF" style="font-size:9px; font-family:Arial" x="10" y="290">jdzj</text><text fill="#FFFFFF" style="font-size:4px; font-family:Arial" x="120" y="280">STATISTICS</text><text fill="#FFFFFF" style="font-size:3px; font-family:Arial" x="120" y="285">Number: 23</text><text fill="#FFFFFF" style="font-size:3px; font-family:Arial" x="120" y="290">Weekly: 2.9</text><text fill="#FFFFFF" style="font-size:3px; font-family:Arial" x="141" y="285">Total: 43.8 km</text><text fill="#FFFFFF" style="font-size:3px; font-family:Arial" x="141" y="290">Avg: 1.9 km</text><text fill="#FFFFFF" style="font-size:3px; font-family:Arial" x="167" y="285">Min: 1.0 km</text><text fill="#FFFFFF" style="font-size:3px; font-family:Arial" x="167" y="290">Max: 3.7 km</text><polyline fill="none" points="40.311726246611215,59.47121449871338 38.900001820060425,60.1819545897888 39.45241572603118,59.329066306643654 40.43448489240836,59.329066306643654 40.649312522495165,58.724935844074935 39.544484710437246,65.29924048951943 37.18138077890035,67.00498577128747 37.058622132986784,68.0 36.966553148813546,67.00498577128747 39.6365536947269,65.40584981403663 40.52655387681443,61.923261691699736 41.140347105800174,56.37947824789444 39.605864033219405,55.277818477887195 36.291380596812814,54.673680997482734 34.327242264174856,56.20179142363486 30.214827630203217,57.37452279095305 22.726550236693583,61.88772489893017 21.37620513292495,59.71997369531891 19.811032399185933,60.395176334655844 19.074480524403043,60.110880645836005 14.777927921502851,41.666702590940986 14.53241063002497,38.29049500732799 16.711376592866145,48.17025243691751 17.386549144634046,48.4545578599209 25.273792136926204,44.865184885653434 31.350345103652216,42.91056030272739 35.1558631232474,40.77823008026462 40.49586421530694,36.47799113515066 43.6568993445253,32.0 45.467589369858615,32.924034625903005 45.25276173977181,33.20835247964715 44.51620986498892,32.95957437029574 44.94586512527894,32.604176763328724 44.94586512527894,33.17281276063295 45.130003093974665,32.21323897721595 44.086554604698904,32.53309719832032" stroke="#4dd2ff" stroke-linecap="round" stroke-linejoin="round" stroke-width="0.5"><title>2021-04-05 3.7km</title></polyline><polyline fill="none" points="67.75077881570905,36.947195333312266 73.47040498396382,41.49298666557297 78.18068535858765,54.61075071699452 78.29283489054069,61.23452085000463 80.87227414315566,60.715010711806826 83.45171339530498,63.052804666687734 89.2834890964441,58.76684580615256 94.66666666651145,60.19550036138389 83.67601246060804,57.59794543241151 83.67601246060804,61.88390822533984 84.23676012456417,55.90953188855201 84.01246105879545,62.14366308285389 84.34890965698287,60.06562274089083 79.86292834859341,60.97476580750663 82.89096573228016,59.026601298945025 84.46105918986723,61.88390822533984 81.6573208719492,60.06562274089083 83.67601246060804,59.546112125739455 83.22741433046758,62.01378566049971 84.46105918986723,62.01378566049971 83.00311526469886,59.41623443865683 85.58255451638252,62.66317263885867 83.00311526469886,60.32537796860561 83.22741433046758,58.247334661427885 85.13395638624206,61.23452085000463 83.33956386288628,58.37721246725414 80.31152647966519,58.247334661427885 78.96573208691552,61.62415331497323 79.30218068510294,59.93574510712642 73.58255451684818,55.64977576036472 75.82554517127573,47.33755168796051 73.58255451684818,48.246703837416135 73.6947040501982,44.86984972690698 67.07788161933422,41.233227597898804 58.666666666511446,42.01250464236364 63.37694704066962,43.70093660324346 64.94704049825668,48.1168249984039" stroke="#4dd2ff" stroke-linecap="round" stroke-linejoin="round" stroke-width="0.5"><title>2021-04-04 1.4km</title></polyline><polyline fill="none" points="127.55679702060297,33.88497076916974 116.3947858470492,38.9679125896655 105.63500931113958,51.44413075631019 115.79143389221281,62.649509653798304 121.72439478570595,55.949399082688615 128.6629422721453,53.0614085609559 128.86405959073454,49.24925016227644 135.29981378046796,44.51291485829279 125.84729981375858,32.49871007807087 117.90316573577002,37.81270047777798 105.33333333348855,52.13725008908659 115.59031657362357,61.378801975166425 121.62383612664416,54.332125268294476 131.47858473006636,52.714849219308235 134.39478584751487,50.51997100783046 135.90316573577002,44.74395604932215 135.5009310990572,43.70427032967564 134.29422718845308,46.01468178536743 130.7746741157025,47.747487384825945 130.67411545664072,46.707804332952946 141.33333333348855,39.6610393099254 137.41154562402517,37.581657918635756 133.28864059597254,32.49871007807087 130.9757914338261,36.31092302768957 123.93668528879061,33.307362347259186 110.05959031637758,45.783640844980255 105.73556796973571,51.90621035709046 115.79143389221281,61.378801975166425 121.72439478570595,55.140762454713695 122.6294227191247,55.83387959864922 120.11545623838902,59.299459161935374 133.8919925512746,62.18743429402821 138.31657355744392,67.50128992204554 128.96461824933067,50.404450987814926 129.97020484227687,47.285406142356806 134.89757914375514,43.12666675366927 129.46741154557094,39.77656038978603 126.45065176906064,34.000492419232614 124.33891992550343,33.1918406287441 122.52886405959725,34.46257890574634 123.433891993016,35.27122981811408" stroke="#4dd2ff" stroke-linecap="round" stroke-linejoin="round" stroke-width="0.5"><title>2021-04-02 3.1km</title></polyline><polyline fill="none" points="174.08510638284497,63.91244074827409 169.87234042549971,62.446096560306614 161.92553191480692,62.29946182333515 153.30851063830778,61.16304065013537 152.57446808519308,60.46652272972278 152.0,56.9839135473012 152.82978723407723,56.324047077447176 154.5531914893072,56.25072850837023 152.9893617022317,51.375011207099305 153.37234042549971,44.776194189704256 155.7659574468853,41.36675948635093 156.7234042553464,39.05712465639226 161.28723404253833,35.90426663501421 163.138297872385,37.92063240663265 164.861702127615,38.28724318949389 165.75531914888415,39.35041241458384 169.52127659565303,39.35041241458384 175.32978723396081,40.266935167164775 178.1382978722686,41.73336686947732 182.79787234042305,45.87600516324164 187.20212765934411,53.501271730085136 187.32978723396081,54.49107851358713 186.30851063807495,55.37090455245925 185.89361702126916,56.763958187482785 186.78723404242191,56.72729894818622 188.0,59.84332137860474 187.20212765934411,61.492969735874794 184.42553191480692,62.00619217584608 183.75531914876774,62.84934178873664 182.1914893614594,62.07950960932067 181.52127659565303,62.372779199067736 179.86170212749857,61.85955726529937 179.06382978707552,64.09573336495669 178.80851063819136,63.83912367626908" stroke="#4dd2ff" stroke-linecap="round" stroke-linejoin="round" stroke-width="0.5"><title>2021-04-02 3.2km</title></polyline><polyline fill="none" points="15.771883289329708,86.95631502108881 27.946949602104723,92.38559636118589 34.53580901864916,92.33075540047139 38.54641909827478,93.2630509956507 43.94164456240833,91.94686852482846 48.0,92.0017095230869 38.83289124676958,93.20821012166562 34.822281167143956,92.2759144345182 28.32891246676445,92.60496014967794 19.92572944308631,90.19195371726528 12.0,86.73694900429109" stroke="#4dd2ff" stroke-linecap="round" stroke-linejoin="round" stroke-width="0.5"><title>2021-04-01 1.4km</title></polyline><polyline fill="none" points="58.66666666674428,85.46568056556862 62.73213311517611,89.5939564043656 67.50463720690459,90.60910239623627 73.10201854910702,93.51917924941517 80.76159301702864,93.38382711133454 85.00381887634285,94.53431943443138 94.66666666674428,93.38382711133454 87.89088925276883,94.3989674965851 79.7010365522001,93.18079885409679 72.39498090581037,93.51917924941517 61.435897435992956,90.5414260433754 60.31642116769217,89.93233856844017 61.612656847108155,89.39092702569906" stroke="#4dd2ff" stroke-linecap="round" stroke-linejoin="round" stroke-width="0.5"><title>2021-03-29 1.2km</title></polyline><polyline fill="none" points="122.67684622341767,108.0 120.99915694259107,98.539682311879 119.8320687469095,98.20480188349029 114.14251379389316,90.00019025075017 110.34947715839371,89.66530646407045 122.16624513780698,72.0 126.10516779776663,74.42795484029921 133.83712709276006,82.29782983608311 133.03475395869464,87.90716442343546 136.31718950811774,107.16280798328808 125.88633876107633,100.21408247761428 122.09330212557688,99.46060281037353 121.72858706442639,101.05128132598475" stroke="#4dd2ff" stroke-linecap="round" stroke-linejoin="round" stroke-width="0.5"><title>2021-03-28 1.4km</title></polyline><polyline fill="none" points="169.55692307720892,83.47923456260469 171.60615384601988,84.68797654553782 172.10461538471282,83.6700887104962 174.09846153855324,83.54285261814948 174.54153846180998,82.5249629758182 175.15076923067681,83.22476227750303 176.09230769239366,82.5249629758182 179.0276923077181,84.17903282894986 180.74461538461037,82.90667177998694 185.7846153844148,84.43350473733153 185.4523076924961,83.1611441904679 187.83384615392424,83.41561650083167 186.06153846159577,82.77943553699879 186.50461538461968,81.76154468976893 186.61538461525925,83.1611441904679 186.33846153854392,82.5249629758182 185.72923076944426,83.35199843259761 185.84000000008382,82.33410848886706 186.61538461525925,83.41561650083167 185.7846153844148,83.1611441904679 187.44615384633653,82.97028989199316 187.44615384633653,83.60647066734964 186.7261538458988,82.71581740601687 185.56307692313567,83.35199843259761 187.8892307691276,82.97028989199316 187.16923076915555,82.39772665750934 186.9476923076436,84.30626879574265 185.9507692309562,83.47923456260469 185.84000000008382,84.17903282894986 187.22461538459174,83.28838035825174 186.61538461525925,83.35199843259761 188.0,85.06968406954547 187.83384615392424,83.22476227750303 187.00307692331262,83.35199843259761 187.44615384633653,84.24265081534395 186.22769230790436,84.6243586030323 186.06153846159577,83.92456081992714 185.3969230770599,84.87883033574326 183.07076923083514,84.56074065412395 183.07076923083514,83.28838035825174 183.6246153844986,94.23059687373461 177.36615384626202,95.63016931642778 172.27076923078857,93.97612883080728 172.6584615383763,94.80314960394753 171.1076923077926,93.97612883080728 162.13538461527787,93.53080951370066 157.64923076936975,94.8667665424291 157.2615384615492,97.15697215381078 156.20923076942563,97.98398884816561 152.6092307693325,98.23845531028928 152.0,97.2205888601602" stroke="#4dd2ff" stroke-linecap="round" stroke-linejoin="round" stroke-width="0.5"><title>2021-03-26 1.5km</title></polyline><polyline fill="none" points="15.804878049064428,127.71877545994357 27.219512195326388,132.37728184994194 31.23344947746955,132.08912810866605 34.745644599432126,132.8575377066445 39.8048780488316,131.8489998606383 41.81184668978676,132.08912810866605 48.0,129.87994376005372 42.52264808374457,132.08912810866605 35.456445993157104,132.6654354208149 31.735191637650132,131.89702551972005 27.595818815520033,132.2332050006371 18.68989547039382,130.07204714475665 12.0,127.14246229335549" stroke="#4dd2ff" stroke-linecap="round" stroke-linejoin="round" stroke-width="0.5"><title>2021-03-26 1.6km</title></polyline><polyline fill="none" points="94.66666666674428,133.1943274998921 91.91624221857637,132.8433039888041 87.8211658175569,130.24572462507058 84.33729484979995,130.3159295975347 79.32541029993445,128.3501877555973 67.10130164097063,128.70121348276734 68.93491793982685,129.61387956282124 68.20147142047063,129.8244946458144 58.66666666674428,126.8056725001079 66.36785512138158,129.75428962497972 77.30843237112276,130.45633952139178 86.65987549512647,132.7028945357306" stroke="#4dd2ff" stroke-linecap="round" stroke-linejoin="round" stroke-width="0.5"><title>2021-03-24 1.1km</title></polyline><polyline fill="none" points="141.33333333325572,132.6406034679967 138.7409420288168,132.47205506678438 136.1974637680687,130.56183636852074 132.13768115942366,129.8876400042791 128.81159420288168,128.37069526768755 118.63768115942366,128.59542807604885 119.51811594213359,129.5505415229709 111.54528985521756,127.35939653206151 105.33333333325572,128.14596237044316 107.77898550708778,128.48306168289855 111.74094202881679,127.41557984234532 119.07789855077863,129.6629077057005 132.43115942040458,130.22473828616785" stroke="#4dd2ff" stroke-linecap="round" stroke-linejoin="round" stroke-width="0.5"><title>2021-03-23 1.3km</title></polyline><polyline fill="none" points="187.28191489353776,131.7871043960913 175.17021276592277,127.55305747798411 170.23936170199886,128.37787433440099 165.35638297884725,127.8279965656111 166.6968085106928,128.70780073542846 166.17021276592277,128.87276386277517 158.46276595722884,126.56327563914238 152.0,127.49806964403251 157.98404255323112,126.67325148585951 165.21276595746167,128.76278844987974 174.78723404277116,129.42264060105663 188.0,133.43672436085762 185.8457446808461,132.39196561649442 188.0,131.7871043960913" stroke="#4dd2ff" stroke-linecap="round" stroke-linejoin="round" stroke-width="0.5"><title>2021-03-22 1.6km</title></polyline><polyline fill="none" points="42.656465187319554,152.22261715342756 43.152257077163085,152.57028276778874 42.87681713839993,153.67648904197267 45.38332058151718,154.05575888909516 46.044376434525475,154.5930570740602 45.8240244834451,155.57283380776062 46.81560826301575,156.23655183572555 48.0,158.29090848416672 47.28385615895968,160.18722605818766 46.23718439170625,160.6296985509107 45.851568477461115,161.76748216737178 40.75592960976064,166.19215799254016 35.13695485831704,168.37286869887612 33.37413925002329,169.51062494094367 32.02448355010711,170.64837716071634 28.085692425374873,176.08424892116454 12.0,187.77738284657244" stroke="#4dd2ff" stroke-linecap="round" stroke-linejoin="round" stroke-width="0.5"><title>2021-03-21 1.3km</title></polyline><polyline fill="none" points="74.98574541090056,166.87242063402664 74.52879594324622,163.95042915389058 71.39542816544417,160.0544056566141 70.12249750562478,159.67978591335122 65.81411681091413,163.61327484884532 61.53837536403444,169.0451690039481 60.46128019050229,169.34485746195423 59.28626727371011,172.52903277258156 61.27726138266735,175.37603757853503 66.00995229708496,177.62365792694618 71.13431418384425,181.78172062366502 70.84056095464621,182.0064794770151 71.52598515618593,181.93155987397768 70.9058394501917,181.59442147804657 71.6891813945258,182.90551356453216 73.41906152199954,184.96579201586428 79.9795503069181,188.0 83.37403206632007,187.66286697244504 91.37064774928149,182.08139906529686 92.44774292304646,179.8338050089951 94.04706605977844,172.64141494454816 92.44774292304646,169.8693116964423 86.47476059652399,164.36250623263186 80.01218955463264,156.23326699167956 75.21422014466953,152.0 69.82874427642673,159.4924759035057 70.8079217071645,159.60486192046665 72.14613086218014,160.84110591892386 74.75727067701519,164.175198524812 74.72463142941706,165.2241205026803" stroke="#4dd2ff" stroke-linecap="round" stroke-linejoin="round" stroke-width="0.5"><title>2021-03-20 3.7km</title></polyline><polyline fill="none" points="137.7865353038069,179.06469466985436 125.49096880108118,175.12651585572166 112.48604269325733,174.71911676140735 105.51067323493771,173.22531801980222 105.33333333325572,170.7809130870737 106.33825944177806,169.69450810848502 105.39244663412683,167.8611958194524 105.6288998357486,164.66986278019613 109.35303776687942,160.93530533020385 115.50082101812586,161.6822184410994 121.76683087018318,163.7871510295663 133.58949096896686,163.51554718642728 139.91461412166245,162.49703181959921 140.68308702786453,161.61431728268508 139.5599343185313,164.19455659366213 138.85057471250184,172.9537179004983 139.44170771772042,177.43510616885033 141.33333333325572,177.77460409136256" stroke="#4dd2ff" stroke-linecap="round" stroke-linejoin="round" stroke-width="0.5"><title>2021-03-19 1.6km</title></polyline><polyline fill="none" points="166.58932714629918,169.6322446479753 174.41299303958658,172.99015569119365 177.44779582391493,172.7982759968727 180.09280742472038,173.37391473917523 182.87703016248997,172.7662960368325 184.3526682134252,172.8942158582504 188.0,171.8068957676005 181.23433874722105,173.3419348358002 177.75406032497995,172.7982759968727 173.85614849207923,172.95817575007095 158.29234338761307,168.0012467369961 152.0,167.32965697723557 153.36426914157346,167.52153990761144 152.44547563802917,167.13777393320925 152.72389791184105,166.97787130982033 154.8399071925087,167.10579341487028 157.65197215788066,166.62608526082477 158.5986078886781,167.32965697723557 159.15545243630186,166.97787130982033 159.8236658932874,167.61748133029323 160.4083526682807,167.42559845669894 161.1600928074913,168.065207593987 162.10672853840515,167.71342272451147 164.0556844547391,169.12055991202942 164.44547563802917,168.64085473876912 163.44315545249265,167.13777393320925 163.05336426920258,167.1697544484632 163.1925754060503,168.25709008905687 165.00232018565293,169.15254023170564 165.75406032497995,167.36163747357205 166.17169373563956,168.22510968113784 166.72853828314692,168.1291684382013 166.1438515081536,168.28907049392 166.477958236821,168.19312926995917 165.6705336427549,167.0738128933881 166.86774942011107,166.97787130982033" stroke="#4dd2ff" stroke-linecap="round" stroke-linejoin="round" stroke-width="0.5"><title>2021-03-19 3.1km</title></polyline><polyline fill="none" points="27.149146161973476,228.0 26.94695794652216,227.37295033491682 26.56280033721123,227.3032780468493 25.996673333924264,227.8374317286507 26.68411326641217,223.9125351102266 26.421268586302176,224.86473497538827 26.54258151561953,226.6065540320269 26.1584239063086,226.9084680248925 23.974791179411113,226.86201974347932 23.711946499184705,225.46856704085076 23.893915893160738,224.2376769606053 29.19124713819474,223.05322948723915 32.74975973018445,222.820984186008 32.62844680098351,200.3617812031298 33.82135727221612,198.8288102212391 36.288053500815295,196.6454706771765 35.84323942672927,195.53056607696635 32.830635016434826,192.0" stroke="#4dd2ff" stroke-linecap="round" stroke-linejoin="round" stroke-width="0.5"><title>2021-03-18 2.7km</title></polyline><polyline fill="none" points="70.87610415252857,225.02934777688642 71.88398531265557,225.20409312837 72.03611831797753,226.0559747422958 72.41645083122421,226.27440539748932 74.47024640266318,226.68942304889788 77.13257399538998,226.4491497664858 78.97718668461312,226.9733820464171 80.68868299410678,228.0 81.12606538436376,226.62389399770473 80.87884925073013,220.79173078820168 82.45722918072715,220.6388255666825 80.19425072695594,220.00535995270184 78.0073387757875,219.896141560268 77.0374908670783,218.84764225195977 75.11681167513598,198.99074923795706 77.20864049799275,196.54401211666118 78.69193729956169,195.69201694978983 77.62700626254082,193.7914005300263 75.80141019902658,192.0" stroke="#4dd2ff" stroke-linecap="round" stroke-linejoin="round" stroke-width="0.5"><title>2021-03-17 2.8km</title></polyline><polyline fill="none" points="106.5460992907174,208.05719911074266 106.99290780141018,208.05719911074266 109.2269503546413,209.0102897916222 109.86524822679348,209.81675018259557 116.5035460991785,211.64961145381676 123.52482269494794,212.60269752907334 125.88652482256293,212.45606898190454 127.5460992907174,212.82264029618818 128.37588652479462,213.115897217358 131.6950354608707,213.62909655139083 134.43971631210297,214.7288082172745 135.33333333325572,214.94875035516452 136.8652482270263,215.75520430423785 138.14184397179633,216.5616573782754 138.65248226956464,216.70828511595028 139.2269503546413,217.0015405046288 140.6312056737952,217.36810957768466 141.33333333325572,217.29479577759048 141.26950354641303,217.29479577759048 141.26950354641303,217.29479577759048 141.07801418472081,217.36810957768466 141.20567375887185,217.29479577759048 141.26950354641303,217.29479577759048 141.33333333325572,217.36810957768466 140.95035460987128,217.29479577759048 140.12056737602688,217.29479577759048 137.31205673748627,217.36810957768466 135.39716312056407,216.7815989740775 133.5460992907174,216.41502961178776 131.6950354608707,216.2684018163127 129.84397163125686,216.34171571751358 128.88652482279576,216.41502961178776 127.03546099294908,216.5616573782754 126.20567375863902,216.5616573782754 123.33333333325572,216.34171571751358 122.43971631210297,216.12177399161737 120.71631205640733,215.6818903448875 119.82269503548741,215.2420064379112 118.09929078025743,214.6554941565846 117.20567375887185,214.36223784269532 113.56737588648684,213.62909655139083 111.20567375887185,212.67601179209305 111.01418439717963,212.23612610634882 111.78014184394851,212.08949748653686 112.09929078025743,212.08949748653686 112.35460992902517,211.79624016053276 112.09929078025743,211.72292581072543 111.46099290763959,211.57629708974855 111.1418439715635,211.5029827185208 110.95035461010411,211.42966833990067 110.56737588648684,211.42966833990067 110.3120567377191,211.28303956106538 109.99290780141018,211.28303956106538 109.67375886510126,211.28303956106538 109.2269503546413,211.1364107534173 108.90780141833238,210.98978191684 108.71631205664016,210.9164674875792 108.07801418448798,210.54989523341646 107.88652482256293,210.40326628106413 107.56737588648684,210.18332279816968 107.37588652479462,210.03669377375627 107.1843971631024,209.81675018259557 106.92907801410183,209.52349195978604 106.48226950364187,209.1569190187729 106.09929078025743,208.93697516719112 105.90780141833238,208.79034589667572 105.58865248248912,208.4237725941348 105.46099290763959,207.76394019386498 105.46099290763959,207.17742201313376 105.39716312056407,206.81084791506873 105.33333333325572,206.51758850651095 105.52482269494794,205.93106934253592 105.46099290763959,205.12460473628016 105.46099290763959,204.75802962610032 105.39716312056407,204.53808447311167 105.52482269494794,204.31813925527968 105.46099290763959,204.2448241682141 105.52482269494794,203.73161835590145 105.58865248248912,203.3650425586966 105.90780141833238,203.29172737762565 106.5460992907174,203.0717817908735 106.86524822679348,202.92515136353904 107.0567375884857,202.8518361391616 107.43971631210297,202.70520566857886 107.5035460991785,202.70520566857886 107.5035460991785,202.63189042231534 107.56737588648684,202.63189042231534" stroke="#4dd2ff" stroke-linecap="round" stroke-linejoin="round" stroke-width="0.5"><title>2021-03-02 1.4km</title></polyline><polyline fill="none" points="158.61395348841324,210.52894247276708 159.0325581394136,210.72126519324956 163.6372093022801,211.58671696705278 166.56744186067954,212.64449031359982 167.65581395337358,213.12529600114794 170.58604651130736,213.8945846076822 171.67441860446706,213.8945846076822 174.7720930231735,213.7022625132231 175.77674418594688,213.41377929970622 178.87441860418767,213.2214571100776 180.79999999981374,213.8945846076822 181.8046511625871,214.2792286836193 183.56279069790617,214.95235545100877 185.23720930190757,215.2408382090507 187.33023255784065,215.04851638001855 187.66511627845466,214.85619451286038 188.0,215.04851638001855 187.91627906961367,216.39476838818518 186.4093023254536,216.77941147767706 185.1534883719869,217.83717919129413 184.56744186021388,218.02950047084596 183.98139534844086,218.22182171215536 183.64651162736118,218.22182171215536 183.1441860459745,218.31798231840366 182.80930232536048,218.51030350272777 181.63720930181444,218.99110629793722 181.8046511625871,219.47190885589225 182.39069767436013,219.8565507316962 182.39069767436013,219.95271117705852 182.39069767436013,220.04887161270017 182.4744186042808,219.95271117705852 182.05581395328045,219.8565507316962 181.55348837189376,220.04887161270017 181.38604651158676,220.14503203879576 181.2186046508141,220.24119245575275 181.13488372042775,220.33735286293086 181.13488372042775,220.33735286293086 180.79999999981374,219.8565507316962 180.63255813950673,219.6642298127408 180.38139534834772,219.37574836343993 180.29767441842705,219.18342734966427 179.46046511642635,218.99110629793722 179.125581394881,218.99110629793722 178.70697674388066,218.99110629793722 178.2883720928803,218.89494575798744 177.78604651149362,218.89494575798744 177.36744186049327,218.89494575798744 176.5302325580269,218.70262464950792 176.1116279065609,218.60646408086177 175.6930232560262,218.51030350272777 175.27441860409454,218.41414291533874 174.43720930209383,218.22182171215536 174.10232558101416,218.02950047084596 173.6837209300138,217.93333983584307 173.26511627901345,217.74101853754837 172.84651162754744,217.54869720136048 172.51162790693343,217.26021512615262 171.7581395348534,216.8755722262431 171.0046511623077,216.4909291745862 170.418604651466,215.91396431264002 169.99999999953434,215.72164261637954 169.581395348534,215.52932088187663 169.16279069753364,215.33699910959695 168.74418604606763,215.14467729930766 168.49302325583994,215.04851638001855 167.8232558136806,214.7600335647585 167.48837209306657,214.6638726075762 167.1534883719869,214.56771164073143 166.81860465090722,214.3753896788694 166.39999999990687,214.2792286836193 165.98139534844086,214.18306767899776 165.06046511605382,214.08690666459734 164.7255813954398,213.9907456410001 164.3069767439738,213.8945846076822 163.8046511625871,213.8945846076822 163.46976744150743,213.79842356516747 162.63255813904107,213.7022625132231 162.21395348850638,213.50994038046338 161.4604651159607,212.93297375459224 160.62325581396,212.64449031359982 160.2883720928803,212.54832914774306 159.86976744187996,212.45216797245666 159.36744186049327,212.3560067875078 159.0325581394136,212.2598455932457 158.61395348841324,212.0675231757341 157.86046511586756,211.68287822772982 157.4418604648672,211.49055569665506 157.10697674378753,211.29823312768713 156.26976744178683,210.81742653943365 156.01860465109348,210.62510383781046 155.6837209300138,210.43278109835228 154.93023255793378,209.95197408314561 154.59534883731976,209.66348976042354 154.17674418585375,209.08652085863287 153.59069767408073,208.41339004185284 152.58604651130736,207.6440971107222 152.58604651130736,207.3556121054571 152.41860465100035,206.87480357283494 152.25116279069334,206.49015657627024 152.0,205.24005278939148 152.25116279069334,204.75924321386265 152.33488372061402,204.2784334013122 152.41860465100035,203.8937853804091 152.50232558138669,203.60529926529853 152.50232558138669,203.12448888353538 152.50232558138669,201.87438078178093 152.50232558138669,201.00892038783059 153.42325581423938,200.62427107722033 154.09302325593308,200.2396216149209 154.6790697677061,200.0472968267859 155.09767441870645,199.95113441854483 155.26511627901345,199.75880957359914 156.43720930209383,199.66264713701094" stroke="#4dd2ff" stroke-linecap="round" stroke-linejoin="round" stroke-width="0.5"><title>2020-12-25 1.0km</title></polyline><polyline fill="none" points="12.541353383334354,245.84176407189807 12.947368421126157,246.23038620653097 13.285714285448194,246.61900814960245 14.030075187794864,247.085354228504 16.93984962394461,247.86259707988938 18.496240601409227,248.32894242287148 19.51127819553949,248.56211499107303 24.248120300471783,250.42749305156758 25.601503759156913,251.3601804264472 27.15789473662153,252.05969523295062 29.458646616432816,252.91465693159262 30.338345864554867,253.0701044133748 31.96240601525642,253.0701044133748 32.909774435916916,253.0701044133748 34.53383458615281,252.759209419135 36.02255639107898,252.6037618756527 37.714285714318976,252.68148565123556 38.66165413544513,252.6037618756527 41.30075187981129,253.0701044133748 42.18045112770051,253.38099928520387 43.872180450940505,253.6918940344476 44.81954887253232,253.61417035851628 46.51127819553949,253.53644667513436 47.25563909788616,253.45872298406903 48.0,253.76961770269554 47.932330826995894,253.84734136302723 47.72932330868207,253.9250650157337 47.66165413544513,254.00278866104782 47.66165413544513,254.08051229838748 47.59398496244103,254.00278866104782 47.458646616665646,254.15823592810193 47.458646616665646,254.00278866104782 47.52631578966975,254.08051229838748 47.59398496244103,254.15823592810193 47.52631578966975,254.08051229838748 47.66165413544513,253.9250650157337 47.59398496244103,253.9250650157337 47.52631578966975,253.9250650157337 47.52631578966975,254.00278866104782 47.52631578966975,253.9250650157337 47.52631578966975,253.9250650157337 47.52631578966975,253.9250650157337 47.52631578966975,254.00278866104782 47.458646616665646,254.00278866104782 47.458646616665646,254.00278866104782 47.39097744342871,254.00278866104782 47.323308270890266,254.00278866104782 47.458646616665646,254.00278866104782 47.458646616665646,254.00278866104782 47.458646616665646,254.00278866104782 47.39097744342871,254.00278866104782 47.39097744342871,254.08051229838748 47.25563909788616,254.00278866104782 45.699248120421544,254.00278866104782 43.93984962394461,254.00278866104782 42.18045112770051,253.61417035851628 41.36842105258256,253.38099928520387 39.676691729109734,252.91465693159262 38.796992481220514,252.759209419135 36.969924811972305,252.759209419135 36.090225564083084,252.68148565123556 34.263157894834876,252.8369331790018 32.36842105258256,253.0701044133748 31.48872180469334,253.0701044133748 29.661654135445133,252.9923806763254 28.714285714086145,252.759209419135 24.4511278194841,251.3601804264472 23.57142857159488,251.04928475728957 21.067669173004106,250.42749305156758 20.39097744342871,250.3497690539807 17.68421052629128,249.88342490670038 16.127819548593834,249.1839081684593 15.248120300704613,248.7175633314764 13.556390977464616,247.7848728292738 12.0,247.2408028601203" stroke="#4dd2ff" stroke-linecap="round" stroke-linejoin="round" stroke-width="0.5"><title>2020-12-08 1.1km</title></polyline><polyline fill="none" points="58.66666666674428,246.2891738631879 59.01282051298767,246.35543897852767 61.32051282073371,248.1445946165477 62.07051282073371,248.40965430589858 65.01282051298767,249.2710975743248 66.3974358974956,249.66868640267057 67.08974358998239,249.93374549073633 68.70512820524164,250.53012805699836 70.14743589772843,251.25903936347459 70.89743589772843,251.7228916013264 74.58974358974956,252.98191748996032 75.39743589796126,253.0481819449924 77.70512820524164,252.78312408539932 78.3974358974956,252.7168596040574 82.03205128223635,252.78312408539932 82.78205128200352,252.84938856010558 85.03205128223635,253.5120329479687 87.33974358974956,253.7108261368121 88.03205128223635,253.6445617469144 89.53205128246918,253.7108261368121 91.83974358974956,253.37950412248028 92.53205128200352,253.3132397001027 93.97435897449031,253.18071083561517 94.66666666674428,253.11444639367983 94.37820512847975,252.58433062199038 92.76282051275484,252.51806612103246 92.07051282073371,252.58433062199038 90.62820512847975,252.98191748996032 90.10897435923107,253.11444639367983 88.60897435899824,253.445768538455 87.91666666674428,253.5120329479687 86.47435897449031,253.5120329479687 85.72435897449031,253.37950412248028 84.28205128200352,253.11444639367983 83.58974358998239,252.91565302817617 81.33974358974956,252.51806612103246 80.58974358998239,252.51806612103246 79.08974358998239,252.58433062199038 78.28205128200352,252.58433062199038 76.78205128223635,252.7168596040574 75.28205128223635,252.78312408539932 73.83974358998239,252.7168596040574 72.45512820547447,252.3855370997917 71.76282051298767,252.1867435189779 70.2628205132205,251.7228916013264 69.57051282073371,251.45783321885392 68.18589743599296,250.99398079805542 66.33974358974956,250.4638633534778 65.82051282050088,250.39759864361258 64.43589743599296,250.06627499568276 62.53205128223635,249.46989201783435 62.01282051298767,249.07230307202553 60.8012820512522,248.40965430589858 60.16666666674428,248.07832967775175" stroke="#4dd2ff" stroke-linecap="round" stroke-linejoin="round" stroke-width="0.5"><title>2020-12-03 1.3km</title></polyline><polyline fill="none" points="140.95305164298043,250.94638858520193 141.26995305134915,252.1111647017533 141.33333333325572,252.47515686118277 140.25586854456924,253.13034229603363 138.41784037533216,253.05754394317046 135.8826291076839,252.6207536747679 133.47417840338312,251.60157537698979 132.65023474162444,251.45597836223897 127.96009389660321,249.63601325749187 126.24882629071362,249.34481842402602 123.65023474162444,249.4176171432482 121.87558685406111,249.34481842402602 120.60798122058623,249.34481842402602 119.84741784003563,249.34481842402602 118.1361502346117,249.19922096451046 117.56572769931518,249.12642222410068 115.60093896696344,248.9808247210458 114.84037558641285,248.90802595904097 112.17840375564992,248.68962962954538 111.35446009342559,248.5440320406342 109.70657276990823,248.39843442296842 107.55164319253527,247.4520492083393 106.72769953031093,247.16085351374932 105.33333333325572,246.86965770390816 106.91784037533216,247.23365244816523 108.3122065726202,247.88884253508877 109.70657276990823,248.5440320406342 110.53051643166691,248.61683083855314 112.6220657278318,248.83522718958557 113.25586854433641,248.90802595904097 114.90375586831942,249.0536234761239 115.7276995300781,249.12642222410068 117.43896713596769,249.12642222410068 118.19953051628545,249.19922096451046 119.91079812194221,249.34481842402602 120.67136150202714,249.34481842402602 123.01643192465417,249.4176171432482 123.77699530497193,249.4176171432482 124.91784037533216,249.2720196978771 125.29812206560746,249.2720196978771 125.55164319230244,249.2720196978771 125.80516431899741,249.2720196978771 126.05868544569239,249.2720196978771 126.37558685429394,249.19922096451046 126.69248826266266,249.19922096451046 127.32629107940011,249.2720196978771 127.57981220632792,249.2720196978771 128.15023474162444,249.49041585507803 128.72065727668814,249.7816106308601 128.65727699524723,249.92720797570655 128.65727699524723,250.00000663724495 128.59389671334065,250.00000663724495" stroke="#4dd2ff" stroke-linecap="round" stroke-linejoin="round" stroke-width="0.5"><title>2020-11-30 1.0km</title></polyline></svg>