<?xml version="1.0" encoding="utf-8" ?>
<svg baseProfile="full" height="300mm" version="1.1" viewBox="0,0,200,300" width="200mm" xmlns="http://www.w3.org/2000/svg" xmlns:ev="http://www.w3.org/2001/xml-events" xmlns:xlink="http://www.w3.org/1999/xlink"><defs /><rect fill="#222222" height="300" width="200" x="0" y="0" /><text fill="#FFFFFF" style="font-size:12px; font-family:Arial; font-weight:bold;" x="10" y="20">Over 3km Runs</text><text fill="#FFFFFF" style="font-size:4px; font-family:Arial" x="10" y="280">ATHLETE</text><text fill="#FFFFFF" style="font-size:9px; font-family:Arial" x="10" y="290">jdzj</text><text fill="#FFFFFF" style="font-size:4px; font-family:Arial" x="120" y="280">STATISTICS</text><text fill="#FFFFFF" style="font-size:3px; font-family:Arial" x="120" y="285">Number: 52</text><text fill="#FFFFFF" style="font-size:3px; font-family:Arial" x="120" y="290">Weekly: 3.2</text><text fill="#FFFFFF" style="font-size:3px; font-family:Arial" x="141" y="285">Total: 95.3 km</text><text fill="#FFFFFF" style="font-size:3px; font-family:Arial" x="141" y="290">Avg: 1.8 km</text><text fill="#FFFFFF" style="font-size:3px; font-family:Arial" x="167" y="285">Min: 1.0 km</text><text fill="#FFFFFF" style="font-size:3px; font-family:Arial" x="167" y="290">Max: 4.9 km</text><polyline fill="none" points="18.236527188215405,54.613640004681656 20.381282492657192,52.648314205231145 23.70685813354794,48.16399817314232 26.5745646643918,42.18479865338304 27.803581749089062,37.617268736095866 27.77948337479029,31.333333333343035 28.261450859019533,31.77625850093318 28.502434600959532,36.59302454843419 26.815548406448215,42.932205561053706 24.95997359242756,47.25051760309725 21.97177519055549,51.6794865631382 18.164232065551914,55.333333333343035" stroke="#4dd2ff" stroke-linecap="round" stroke-linejoin="round" stroke-width="0.5"><title>2021-06-01 2.2km</title></polyline><polyline fill="none" points="66.0,44.9737314604281 65.51777434325777,45.52762883825926 55.20556414220482,42.24684170738328 48.12055641436018,42.45988058921648 47.52704791352153,43.013781190267764 42.92735703242943,41.39468512948952 42.0,41.43729299833649 42.037094281520694,41.90597927791532 42.890262751374394,41.139037828397704 48.04636785178445,43.269427381892456 57.39412673888728,43.56768108109827" stroke="#4dd2ff" stroke-linecap="round" stroke-linejoin="round" stroke-width="0.5"><title>2021-05-31 1.1km</title></polyline><polyline fill="none" points="85.80776568152942,54.440328362514265 86.2933397302404,50.477601754595526 87.1188156134449,51.0915471353801 90.12937471596524,50.477601754595526 91.1490802182816,49.361335714464076 91.92599869635887,46.068338029959705 93.72262267698534,46.738101827853825 92.65435976954177,46.291592717694584 93.18849122337997,45.51020092476392 93.09137641335838,46.84972905018367 93.18849122337997,45.45438718376681 93.13993381825276,47.5194919204223 91.5860968620982,45.95671065308852 96.53895215992816,48.6915750305634 91.48898205254227,46.7939154417254 92.70291717443615,46.23577905423008 92.07167091104202,44.39392505749129 91.5860968620982,47.128797009412665 93.09137641335838,45.733455833105836 92.557244959753,44.84043566940818 93.91685229656287,46.84972905018367 94.548098559957,46.570660953002516 92.75147457933053,47.4078648306313 91.10052281338722,46.62647458357969 93.47983565274626,46.40322002826724 91.82888388680294,46.01252434437629 90.61494876467623,49.9752823098097 85.95343789621256,50.756667919573374 86.09911011089571,52.877566263021436 84.1568139155861,54.38451550499303 84.25392872514203,55.33333333331393 84.98228979855776,54.27288977307035 82.84576398367062,48.468321292544715 72.7943811735604,31.33333333331393" stroke="#4dd2ff" stroke-linecap="round" stroke-linejoin="round" stroke-width="0.5"><title>2021-05-30 1.4km</title></polyline><polyline fill="none" points="104.20484171318822,40.96551096744952 107.65735567966476,42.9290779500152 113.9590316574322,45.277645094756735 116.8752327747643,45.00813810728141 120.56238361273427,45.701155699265655 126.76350093120709,44.77713196989498 127.33333333337214,44.31511928513646 126.69646182493307,44.81563300231937 120.79702048422769,45.470149971952196 112.58472998137586,44.93113607677515 107.12104283063672,43.468094609561376 103.33333333337214,41.50453033836675" stroke="#4dd2ff" stroke-linecap="round" stroke-linejoin="round" stroke-width="0.5"><title>2021-05-27 1.4km</title></polyline><polyline fill="none" points="158.0,45.05927781277569 154.99478260870092,44.91544991481351 148.9008695653174,42.61419775846298 139.6765217394568,42.27859757540864 134.0,40.744422359217424 137.50608695670962,42.08682593819685 146.98086956515908,42.94979770982172 156.7478260868229,45.92224430743954 157.54086956521496,45.682531545870006" stroke="#4dd2ff" stroke-linecap="round" stroke-linejoin="round" stroke-width="0.5"><title>2021-05-25 1.1km</title></polyline><polyline fill="none" points="165.3274926992599,41.383988208166556 166.4689194826642,42.31553761687246 170.283687943127,42.66055528682773 174.06841885694303,44.83415878310916 178.60408844379708,44.66165106242988 181.1572799332207,45.07566944899736 186.50396328733768,44.31663536615088 188.66666666662786,43.247084544884274 188.66666666662786,44.04062256391626 180.13600333745126,45.28267845851951 176.8919482686324,44.73065416098689 174.00834376295097,44.97216489829589 168.30120984558016,43.592101296118926 164.66666666662786,41.970519606547896" stroke="#4dd2ff" stroke-linecap="round" stroke-linejoin="round" stroke-width="0.5"><title>2021-05-24 1.6km</title></polyline><polyline fill="none" points="20.682170542655513,69.37894909220631 26.26356589142233,69.53922148759011 26.26356589142233,70.22037846289459 29.82170542643871,71.82309625274502 35.33333333337214,71.30221366457408 29.71705426357221,71.86316411645385 25.740310077555478,71.18200989556499 21.589147286722437,71.38234949085745 11.333333333372138,68.13683588354615" stroke="#4dd2ff" stroke-linecap="round" stroke-linejoin="round" stroke-width="0.5"><title>2021-05-21 1.1km</title></polyline><polyline fill="none" points="56.38744071708061,82.0 57.243055309401825,81.17572324647335 56.96705060231034,80.35144437898998 57.408658133703284,76.51534953134251 59.064686376950704,75.94468688164488 59.423492496367544,75.0886910072004 61.4107263883343,75.56424455222441 65.49559605494142,74.99358021377702 65.35759370110463,73.15476600831607 63.97757016518153,70.17459650547244 61.217523093218915,66.30667572937091 59.23028920125216,64.43610717827687 56.05623506847769,62.565527739119716 51.557358341058716,61.93143054304528 49.90133009792771,61.265627140470315 47.47248867456801,61.61438147575245 44.43643689516466,59.80719581944868 43.85682701016776,58.0 42.50440394494217,58.475578832498286 42.58720535703469,59.49014465638902" stroke="#4dd2ff" stroke-linecap="round" stroke-linejoin="round" stroke-width="0.5"><title>2021-05-20 1.7km</title></polyline><polyline fill="none" points="72.78205128223635,67.94570635765558 72.66666666674428,65.49377304199152 77.80128205148503,64.56601215660339 96.26282051298767,64.96362412156304 96.66666666674428,73.976098875748 95.57051282050088,74.77131143194856 86.22435897449031,73.976098875748 85.07051282073371,74.77131143194856 77.97435897449031,75.43398784339661 73.87820512847975,74.83757910266286 72.95512820524164,74.04236662463518 72.95512820524164,67.1504857223481" stroke="#4dd2ff" stroke-linecap="round" stroke-linejoin="round" stroke-width="0.5"><title>2021-05-18 1.1km</title></polyline><polyline fill="none" points="103.33333333337214,70.81656326903612 104.26702033588663,71.69402655756858 108.82935455348343,73.61956007643312 111.69407603889704,73.54643882444361 113.62511052167974,73.98516601187293 116.95667550840881,73.59518632819527 120.62776304164436,72.52273902489105 121.6675508399494,71.88901797631115 123.34394341299776,70.71906715576188 127.33333333337214,66.79481666500214 126.69672855886165,66.01483398814162 125.12643678160384,67.23355583875673 115.93810786923859,68.2329032713169 114.6012378425803,67.86728882577154 107.36516357201617,67.64791989880905 106.98320070724003,68.25727754842956 107.06808134389576,68.01353466892033 106.64367816096637,68.18415470984473 106.19805481866933,69.1103757336241 105.54022988502402,69.3784916978766 103.63041556149255,68.9885047445714 103.35455349239055,68.47664593446825" stroke="#4dd2ff" stroke-linecap="round" stroke-linejoin="round" stroke-width="0.5"><title>2021-05-10 2.5km</title></polyline><polyline fill="none" points="158.0,77.66416742117144 157.88049792533275,76.97784573436365 157.06390041508712,76.1313795237511 155.76929460582323,76.7719488323055 155.11203319509514,76.56605174747529 155.07219917024486,75.92548187026114 155.5103734440636,75.19339984432736 155.35103734442964,73.15728455914359 154.87302904564422,72.47094953607302 152.3435684647411,73.24879574213992 150.6506224066252,73.06577334013127 150.59087136934977,72.53958312976465 146.2091286306968,72.60821670321457 143.9186721991282,72.24217074367334 140.25394190871157,72.90562861990475 137.6448132781079,72.97426208495745 135.57344398344867,72.51670526748057 134.0,69.79422353924019 136.2904564315686,68.14699218583701 137.30622406641487,67.02595304638089 139.39751037349924,65.95066551478521 139.6564315352589,65.1727948308253 141.86721991701052,64.1890134645073 143.99834024906158,62.724773004927556 143.14190871373285,63.6856818493834 140.7717842324637,64.71522262143844 138.5410788381705,62.74765183319687 137.12697095435578,62.33583257882856" stroke="#4dd2ff" stroke-linecap="round" stroke-linejoin="round" stroke-width="0.5"><title>2021-05-08 2.6km</title></polyline><polyline fill="none" points="188.66666666674428,65.84912781661842 188.50954719050787,67.51851242731209 183.79596290225163,67.78922287124442 183.08892525918782,69.09765442466596 175.82214948162436,67.42827557717101 172.0512820512522,67.74410447510309 170.67648663395084,68.51111660496099 165.334424440749,67.33803870904376 164.66666666674428,68.42087995051406 170.2444080740679,70.40608223580057 178.3360611021053,71.21820796022075 188.50954719050787,74.15087218341068" stroke="#4dd2ff" stroke-linecap="round" stroke-linejoin="round" stroke-width="0.5"><title>2021-05-08 1.3km</title></polyline><polyline fill="none" points="35.33333333337214,96.2645004047954 34.7285587976221,96.59355123128626 31.163572060293518,95.27734617283568 30.590627763187513,95.78920425093384 26.961980548221618,94.39987353736069 24.60654288250953,95.4967140070803 19.481874447432347,95.82576551503735 16.20335985859856,94.7654873879219 12.893015031004325,95.35046879865695 11.747126436675899,95.167662206979 11.333333333372138,94.58268050776678 16.64898320066277,94.80204875319032 19.768346596043557,96.19137795921415 24.86118479236029,96.04513302483247 35.14235190115869,98.93345979598234" stroke="#4dd2ff" stroke-linecap="round" stroke-linejoin="round" stroke-width="0.5"><title>2021-05-07 1.5km</title></polyline><polyline fill="none" points="42.11076923063956,101.27570189113612 42.0,100.63851447112393 43.77230769232847,100.04380535610835 44.51076923077926,98.25967305153608 53.778461538488045,92.73731162154581 56.732307692291215,93.5869103273144 57.43384615378454,94.52146695493138 58.28307692310773,92.43995167588582 57.95076923072338,92.0576314421487 57.95076923072338,93.50195053263451 57.76615384616889,93.0346713605104 57.06461538467556,94.64890633703908 57.987692307680845,93.5869103273144 57.101538461400196,94.52146695493138 57.58153846138157,92.94971145619638 57.24923076923005,94.60642654719413 58.061538461595774,93.88426947579137 59.57538461545482,94.13914858130738 61.827692307531834,93.33203089277958 63.895384615287185,93.4169907210744 66.0,94.64890633703908 64.63384615373798,93.7143499875674 62.9723076922819,93.50195053263451 59.09538461524062,94.43650734590483 57.175384615315124,93.20459111846867" stroke="#4dd2ff" stroke-linecap="round" stroke-linejoin="round" stroke-width="0.5"><title>2021-05-06 1.2km</title></polyline><polyline fill="none" points="78.65532451169565,98.85580834455322 79.69880277267657,96.6146635991172 87.1392564587295,91.08994058187818 90.26969124143943,87.75423077639425 94.39823566493578,85.56515976542141 95.98613736615516,87.07666214735946 96.66666666674428,102.45204399089562 95.80466288584284,97.86553625762463 83.3282923756633,104.69316396443173 80.06175173283555,101.56601719203172 73.93698802776635,104.9016397576197 72.66666666674428,107.03851189225679 73.98235664796084,107.76817356795073 77.88405797118321,104.11985510902014 79.33585381228477,100.7842276057927 78.51921865157783,99.58548132551368" stroke="#4dd2ff" stroke-linecap="round" stroke-linejoin="round" stroke-width="0.5"><title>2021-05-06 1.8km</title></polyline><polyline fill="none" points="117.87119234120473,92.95452882733662 120.03307223669253,92.30262820480857 120.25239338562824,91.61450959285139 117.74586597050074,90.6004376479541 118.05918189731892,90.67287145371665 117.68320278509054,91.07125712258858 119.53176675376017,91.79559356640675 121.1610095736105,91.54207597786444 120.62837249785662,93.8961609636026 122.25761531770695,92.99074549373472 122.19495213229675,93.67886145980447 122.85291557887103,93.64264486293541 125.29677980858833,95.59833584629814 127.08268059173133,95.99671603288152 127.11401218455285,97.01077268848894 126.55004351609387,97.807529473881 127.33333333337214,101.42912887225975 126.67536988691427,102.73289568538894 109.2550043517258,100.6685960382456 104.39860748476349,101.32048142352141 103.33333333337214,102.11722861544695 104.08529155794531,101.35669724352192" stroke="#4dd2ff" stroke-linecap="round" stroke-linejoin="round" stroke-width="0.5"><title>2021-05-02 1.6km</title></polyline><polyline fill="none" points="141.35189873422496,90.94045981910313 143.05316455685534,91.64307025959715 145.11898734187707,89.88654282281641 153.3215189871844,88.55157899385085 156.96708860760555,90.02706518152263 158.0,92.48620184866013 156.72405063314363,99.51225854584482 146.39493670873344,103.16577988734934 134.7291139238514,104.78175433946308 134.0,103.58733880321961 139.04303797450848,89.11366934044054" stroke="#4dd2ff" stroke-linecap="round" stroke-linejoin="round" stroke-width="0.5"><title>2021-05-01 1.0km</title></polyline><polyline fill="none" points="176.1151826530695,95.6812844161177 174.66127025336027,98.00012429011986 172.5054691096302,93.53634916536976 172.60573893017136,91.91314957605209 174.36046079173684,89.18848276976496 177.11788085941225,88.02904615050647 184.23703812574968,88.1449899179861 188.39823568286374,84.66666666668607 183.13407009863295,88.3768773828051 170.75074724806473,86.69569113344187 169.69791413121857,87.21743911877275 167.64238280802965,91.62329202197725 166.94049406331033,102.40589415928116 166.0882005880121,105.18846817588201 165.0855023812037,105.59425908932462 164.93509765039198,108.66666666668607 165.73725621541962,108.26087793230545 166.0882005880121,106.3478700221749 167.4418431664817,91.27546276326757 169.24669993831776,89.47834155743476 169.99872359307483,89.94211531220935" stroke="#4dd2ff" stroke-linecap="round" stroke-linejoin="round" stroke-width="0.5"><title>2021-05-01 1.8km</title></polyline><polyline fill="none" points="31.645792984694708,121.15314997560927 30.80912416614592,121.29553180695802 29.44566386914812,122.27440385569935 27.787820098979864,122.20321334035543 27.4934366257512,122.5591656362667 27.539918226830196,122.2210109718435 26.42435980204027,122.59476082723995 23.790402410144452,122.25660622947908 22.241015709063504,122.43458241259214 21.776199698797427,122.18541570715024 20.087368194537703,122.50577283662278 16.275876909843646,122.59476082723995 12.479879492137115,122.20321334035543 11.33333333331393,123.18208046417567 11.410802668367978,123.52023332724639 15.873036367527675,124.39230883856362 16.353346244897693,124.24992945116537 17.236496664525475,124.71266204936546 19.591564450180158,124.7482568154519 21.06348181620706,125.31777211773442 21.698730363626964,125.12200143537484 23.372068000840954,125.51354258775245 23.790402410144452,125.83389380767767 24.82849149988033,125.958474684041 25.107381106063258,125.74490741477348 25.866580589616206,126.10085272316064 26.8117064772523,125.94067742128391 28.39208091236651,126.40340568308602 28.531525715487078,125.9762719450955 28.872390789794736,125.94067742128391 29.507639337156434,126.27882511395728 29.72455347533105,125.76270469685551 30.654185496037826,125.26438013456936 31.769743920769542,124.14314483686758 33.00925328169251,123.66261329047848 33.65999569615815,122.8795221021137 34.74456638691481,122.54136803817528 35.33333333331393,121.72267662685772 35.02345599309774,120.77939713360684 34.54314611578593,120.26326098360005 33.56703249405837,120.88618373891222 32.07962126098573,120.79719490556454 31.986658059002366,121.36672268052644 29.89498601242667,122.39898719001212 30.328814288775902,122.80833182552306 30.623197761946358,122.61255842006358 31.630299117648974,123.37785325165896 32.466967936372384,123.2532705933263 32.52894340432249,123.03970012172067" stroke="#4dd2ff" stroke-linecap="round" stroke-linejoin="round" stroke-width="0.5"><title>2021-04-30 3.7km</title></polyline><polyline fill="none" points="65.81042654020712,121.7655411400192 64.29383886232972,123.94304101192392 63.45971563947387,124.0736906628299 55.1943127962295,121.80909124275786 47.838862559059635,121.7655411400192 48.82464454974979,122.59299235630897 42.0,120.54613652112312 47.45971563947387,122.46234226727393 56.18009478645399,123.28979217782035 65.16587677691132,126.12053014556295 66.0,125.9463314099412 64.86255924170837,125.55438400385901" stroke="#4dd2ff" stroke-linecap="round" stroke-linejoin="round" stroke-width="0.5"><title>2021-04-29 1.4km</title></polyline><polyline fill="none" points="81.88952380954288,122.74271058212616 83.84380952373613,121.20664165564813 83.15809523803182,119.98565957395476 84.35809523786884,119.5917935896141 92.55238095216919,111.7537796695542 93.51238095224835,111.63561747793574 96.66666666662786,115.25924210780067 92.65523809497245,117.85877864068607 93.10095238080248,117.89816542746848 90.59809523774311,120.6158443405875 91.66095238074195,120.22197897810838 91.90095238084905,119.31608716922347 90.7009523807792,120.30075208164635 84.97523809503764,127.23272431871737 81.1009523809189,129.5170978869719 78.46095238078851,131.84084379288834 78.28952380944975,133.33748653618386 76.12952380941715,135.03104918872123 74.34666666667908,134.12519098928897 72.66666666662786,131.72268754788092 72.80380952369887,129.39894095412455 75.1695238094544,128.29614122700877 76.02666666661389,126.9570231763937 78.39238095236942,125.93298869460705 78.83809523808304,124.9089515855303 80.00380952376872,124.2393874397967 80.34666666656267,123.057800913346 81.23809523798991,122.38823366226279 82.23238095222041,122.62455164387939 82.43809523794334,121.87621088884771" stroke="#4dd2ff" stroke-linecap="round" stroke-linejoin="round" stroke-width="0.5"><title>2021-04-26 2.2km</title></polyline><polyline fill="none" points="117.4930213498883,131.0928693386668 118.14747226412874,130.1906353427621 118.90663532435428,120.7170170735335 121.47208290791605,111.33333333334303 119.11605961702298,120.56663980529993 117.25741902075242,121.43882692803163 114.56108125462197,121.258374624711 111.76003134215716,121.67942983278772 110.294061294524,122.58168903342448 109.27311786834616,124.02529819656047 109.19458375871181,132.86725507015944 110.37259540427476,135.032593150303 111.1579365010839,135.33333333334303 111.6814972324064,135.0626671819482 114.50872518157121,132.68680953557487 115.47731253434904,133.34844264006824 116.41972185077611,132.6567352693819 116.6029681066284,131.874803307408" stroke="#4dd2ff" stroke-linecap="round" stroke-linejoin="round" stroke-width="0.5"><title>2021-04-25 2.2km</title></polyline><polyline fill="none" points="146.92736782180145,135.33333333334303 146.21963974728715,130.06247907713987 146.61011040920857,127.06253430945799 146.21963974728715,121.48311351571465 146.58570599276572,111.75391153933015 146.29285299638286,111.33333333334303 145.6827425872907,111.75391153933015 145.07263217819855,121.67937640851596 145.31667634181213,131.43627498258138 146.29285299638286,131.71664067762322 146.36606624536216,131.46431156454491 146.48808832734358,126.67001582760713 146.17083091451786,130.39891950503807" stroke="#4dd2ff" stroke-linecap="round" stroke-linejoin="round" stroke-width="0.5"><title>2021-04-18 2.2km</title></polyline><polyline fill="none" points="188.66666666662786,126.74959742717328 184.3686723972205,126.31516268939595 171.37153772683814,122.40522883983795 165.62941738287918,121.85230582038639 164.66666666662786,121.22039286309155 171.50907354336232,121.14140367342043 173.02196752629243,119.91706923948368 175.9789875834249,121.2598874521791" stroke="#4dd2ff" stroke-linecap="round" stroke-linejoin="round" stroke-width="0.5"><title>2021-04-16 1.0km</title></polyline><polyline fill="none" points="35.33333333331393,151.92484040056297 34.63040446297964,152.1122743566957 34.34170153416926,151.52113567868946 33.83960948395543,151.31928289965435 33.19944211986149,151.47788153517467 32.973500697291456,151.29044676554622 32.65969316591509,150.85790407226887 33.21199442114448,149.87746922887163 33.02370990230702,149.15655706032703 32.6471408646903,148.99795590614667 29.72245467227185,149.19981189075042 27.224546722427476,148.98353761083854 26.006973500712775,149.2719032462628 25.492329149215948,149.0700473611796 24.66387726640096,149.15655706032703 24.46304044633871,148.98353761083854 22.8312412831001,149.17097533853666 22.253835425362922,148.96911931411887 21.588563458877616,149.15655706032703 20.9232914923341,148.88260950402764 19.51743375172373,149.14213878072042 18.362622036249377,148.6807530813967 17.408647140895482,148.79609964277188 16.868898186890874,148.13285567193816 15.88981868897099,148.19052918013767 14.998605299857445,147.9165798133472 14.634588563465513,148.0896005257964 14.13249651325168,147.59937464189716 13.391910739184823,147.85890619699785 12.312412831233814,147.49844557934557 11.684797768481076,147.83006938034669 12.124128312454559,147.51286402110418 12.224546722427476,148.00309019515407 11.33333333331393,147.95983501065348 12.086471408663783,147.68588521148195 11.722454672271851,147.77239572985854 12.111576011171564,147.74355889609433 11.797768479795195,147.87332460323523 11.998605299857445,148.0896005257964 11.7852161785122,147.9165798133472 12.086471408663783,147.81565096980194 11.998605299857445,147.65704836063378 11.747559274779633,147.74355889609433 11.835425383527763,147.95983501065348 12.224546722427476,147.80123255790386 12.03626220364822,147.72914047705126 12.01115760114044,147.93099821385113 12.111576011171564,147.67146678679273 11.973500697407871,147.93099821385113 12.061366806097794,147.72914047705126 12.124128312454559,147.88774300801742 11.935843793617096,147.36867953937326 12.048814504931215,147.74355889609433 11.98605299857445,147.49844557934557 12.01115760114044,147.74355889609433 11.76011157600442,147.55611933792534 11.847977684810758,147.42635334911756 11.935843793617096,147.55611933792534 11.747559274779633,147.62821150412492 11.998605299857445,147.75797731366765 11.797768479795195,147.6426299330924 12.03626220364822,147.42635334911756 11.860529986093752,147.72914047705126 11.659693165973295,147.72914047705126 11.860529986093752,147.35426108336833 11.672245467198081,147.48402713616088 11.973500697407871,147.74355889609433 11.76011157600442,147.61379307370225 11.797768479795195,147.74355889609433 11.860529986093752,147.62821150412492 11.923291492334101,148.23378429640434 11.797768479795195,149.58910478814505 13.015341701509897,149.84863281040452 13.11576011159923,150.07932399889978 14.207810320833232,149.97839664873027 14.83542538358597,150.20908763245097 19.843793584383093,150.4253600990487 24.789400278998073,151.05975748841593 27.16178521612892,151.14626601000782 28.216178521630354,151.37695515064115 29.433751743403263,151.99693041216233 31.341701534111053,151.78066027071327 31.54253835423151,152.12669234340137 31.806136680592317,152.01134841020394 33.6011157601024,152.38621586037334 33.91492329147877,152.64573891661712 34.47977684799116,152.5159774460917 34.65550906554563,151.98251241266553 35.15760111575946,151.78066027071327" stroke="#4dd2ff" stroke-linecap="round" stroke-linejoin="round" stroke-width="0.5"><title>2021-04-09 4.9km</title></polyline><polyline fill="none" points="65.51552795059979,151.28418785930262 57.98757763998583,149.10107872981462 57.13043478294276,148.28776075641508 51.83850931702182,148.71582303778268 48.00000000023283,148.33056700360612 48.70807453431189,148.75862924274406 48.37267080764286,148.9298540200689 42.0,147.47444125884795 47.29192546592094,149.0582725587592 54.894409938016906,149.70036468244507 65.44099378888495,152.52555874118116 64.02484472072683,151.96908257799805 66.0,151.71224718517624 65.47826086962596,151.0701580379682" stroke="#4dd2ff" stroke-linecap="round" stroke-linejoin="round" stroke-width="0.5"><title>2021-04-09 1.4km</title></polyline><polyline fill="none" points="73.62121212133206,148.66865551209776 74.78030303039122,149.64759621821577 83.16666666674428,152.85850479229703 86.8825757575687,152.70187570818234 90.12121212133206,153.36754888881114 96.12121212144848,152.70187570818234 96.66666666662786,152.03620141156716 94.24621212133206,151.40968340693507 91.34848484850954,151.9970440652105 88.34848484850954,150.86147934186738 85.85984848497901,151.05726659490028 81.6325757575687,148.90360150163178 81.0871212122729,147.8855012091226 78.66666666674428,146.94571400637506 76.82575757591985,146.63245111115975 72.66666666662786,147.65055461696465" stroke="#4dd2ff" stroke-linecap="round" stroke-linejoin="round" stroke-width="0.5"><title>2021-04-08 1.4km</title></polyline><polyline fill="none" points="127.17748917767312,151.00244514914812 127.33333333337214,151.82587624323787 125.30735930753872,151.86167755286442 119.94632034644019,150.03580626379699 111.84242424252443,149.64198968347046 107.57229437236674,148.13832244710648 103.33333333337214,148.78275202546502 107.35411255410872,148.31733077811077 111.62424242426641,149.6061881550413 119.57229437248316,149.96420328097884" stroke="#4dd2ff" stroke-linecap="round" stroke-linejoin="round" stroke-width="0.5"><title>2021-04-06 1.3km</title></polyline><polyline fill="none" points="141.32934131729417,146.39624078094494 144.34730538912117,145.45370274817105 145.59281437122263,146.45168414380169 145.59281437122263,147.50510696839774 144.77844311390072,147.9486528118141 146.21556886215694,149.50106042221887 147.7005988021847,149.66738954698667 149.61676646699198,148.7803002956789 151.77245508972555,146.06358048476977 153.68862275453284,146.78434420307167 155.2694610778708,145.8418068413157 157.95209580822848,146.17446727264905 157.95209580822848,142.79241009487305 157.6646706587635,144.84382432926213 156.08383233542554,144.5666066405829 158.0,144.89926785015268 157.9041916166898,146.34079741226742 153.78443113761023,146.72890087385895 151.77245508972555,146.00813708244823 148.51497005997226,150.11093363136752 149.28143712575547,149.44561736949254 145.68862275453284,149.39017431106186 144.9700598800555,148.17042559827678 146.02395209600218,148.17042559827678 145.92814371269196,147.61599346302683 144.6826347305905,145.39825928362552 144.15568862250075,146.17446727264905 143.10179640725255,146.06358048476977 141.76047904184088,148.94662964023883 137.305389221292,151.27523513574852 135.86826347303577,153.93648638034938 135.67664670641534,151.88510636007413 135.29341317340732,154.49091208801838 134.95808383217081,153.27117478707805 135.29341317340732,154.10281415190548 135.0059880237095,153.3820601090556 136.97005988028832,154.3800269915955 138.55089820339344,156.76405159430578 140.61077844304964,156.59772463486297 141.18562874244526,155.43343449680833 139.9401197603438,154.8790097478195 141.04191616759636,154.8790097478195 140.51497005973943,155.54431937914342 140.0359281434212,155.10077971516876 140.61077844304964,155.76608907571062 140.75449101789854,155.21166466496652 140.99401197605766,156.4868399669067 140.1796407182701,157.20758990512695 137.5449101794511,156.9858207948855 135.1017964067869,154.10281415190548 135.53293413156644,151.60789225180633 135.82035928126425,153.60383068514057 134.0,154.6572396902484 134.52694610785693,153.77015855815262 134.1916167663876,154.8790097478195 135.53293413156644,153.93648638034938 135.72455089818686,151.4970065690577" stroke="#4dd2ff" stroke-linecap="round" stroke-linejoin="round" stroke-width="0.5"><title>2021-04-05 1.9km</title></polyline><polyline fill="none" points="183.54115083103534,156.3141429991374 182.60000121337362,156.78796972653072 182.96827715064865,156.2193775377673 183.62298992823344,156.2193775377673 183.7662083483301,155.8166238960548 183.02965647354722,160.19949365968932 181.45425385260023,161.3366571808583 181.37241475528572,162.0 181.31103543250356,161.3366571808583 183.0910357964458,160.27056654269109 183.684369251132,157.94884112779982 184.0935647371225,154.252985498606 183.07057602214627,153.5185456519248 180.86092039791401,153.11578733165516 179.55149484274443,154.13452761576627 176.80988508672453,154.9163485273166 171.81770015775692,157.92514993262012 170.91747008857783,156.47998246355564 169.87402159941848,156.93011755643238 169.3829870162299,156.74058709722885 166.51861861429643,144.44446839395096 166.35494042001665,142.19366333822836 167.8075843951665,148.7801682912832 168.25769942975603,148.96970523995697 173.51586142450105,146.57678992376896 177.56689673569053,145.27370686849463 180.1039087488316,143.85215338683338 183.6639094768325,140.98532742344833 185.77126622968353,138.0 186.97839291323908,138.61602308394504 186.8351744931424,138.80556831977447 186.3441399099538,138.63971624686383 186.63057675014716,138.40278450888582 186.63057675014716,138.781875173765 186.7533353959443,138.14215931814397 186.05770306976046,138.35539813223295" stroke="#4dd2ff" stroke-linecap="round" stroke-linejoin="round" stroke-width="0.5"><title>2021-04-05 3.7km</title></polyline><polyline fill="none" points="17.389408099930733,167.96479688893305 21.202492211945355,170.99532444373472 24.342679128516465,179.74050047801575 24.417445483151823,184.15634723333642 26.137071651406586,183.81000714126276 27.85669781966135,185.3685364444391 31.74454828724265,182.51123053743504 35.333333333488554,183.46366690756986 28.006230529863387,181.73196362162707 28.006230529863387,184.58927215024596 28.380062305834144,180.60635459242621 28.230529595166445,184.76244205527473 28.454828660469502,183.37708182726055 25.464174455031753,183.98317720502382 27.482866044156253,182.68440086598275 28.529595016036183,184.58927215024596 26.66043613711372,183.37708182726055 28.006230529863387,183.03074141714023 27.70716510945931,184.6758571070386 28.529595016036183,184.6758571070386 27.557632399257272,182.94415629241848 29.277258567046374,185.10878175927792 27.557632399257272,183.5502519790898 27.70716510945931,182.16488977428526 28.978193146642298,184.15634723333642 27.78193146456033,182.25147497816943 25.76323987590149,182.16488977428526 24.866043613757938,184.41610221005976 25.090342679526657,183.29049673810368 21.277258567512035,180.43318384024315 22.77258566999808,174.89170112536522 21.277258567512035,175.49780255829683 21.352024922613055,173.24656648462405 16.940809968858957,170.82215173193254 11.333333333488554,171.34166976157576 14.473520249594003,172.46729106886778 15.520249221473932,175.4112166656414" stroke="#4dd2ff" stroke-linecap="round" stroke-linejoin="round" stroke-width="0.5"><title>2021-04-04 1.4km</title></polyline><polyline fill="none" points="56.81564245792106,165.92331384605495 49.37430167593993,169.31194172642427 42.20111731835641,177.6294205042068 48.97206703922711,185.0996731024934 52.9273743017111,180.6329327217536 57.553072625771165,178.70760570722632 57.68715083808638,176.16616677481215 61.97765363124199,173.00860990548972 55.67597765359096,164.99914005200844 50.37988826818764,168.54180031851865 42.0,178.09150005935226 48.837988826679066,184.25253465009155 52.860335195437074,179.55475017882418 59.43016759771854,178.4765661461861 61.37430167617276,177.0133140052203 62.37988826818764,173.16263736621477 62.11173184355721,172.4695135531365 61.30726257013157,174.009787856834 58.960893854731694,175.16499158990337 58.8938547486905,174.47186955524376 66.0,169.77402620657813 63.38547486043535,168.38777194573777 60.636871508322656,164.99914005200844 59.09497206681408,167.54061535175424 54.40223463694565,165.53824156482005 45.150837988592684,173.85576056333957 42.26815642416477,177.93747357139364 48.97206703922711,184.25253465009155 52.9273743017111,180.093841636437 53.53072625701316,180.5559197324328 51.854748603189364,182.8663061078987 61.039106145268306,184.79162286262726 63.98882681597024,188.3341932813637 57.754189943894744,176.9363006585627 58.42458100570366,174.85693742817966 61.70949720684439,172.08444450248498 58.0893854747992,169.85104025981855 56.07821229053661,166.0003282794496 54.67039106157608,165.4612270858488 53.46368715073913,166.30838593712542 54.067039106274024,166.8474865454482" stroke="#4dd2ff" stroke-linecap="round" stroke-linejoin="round" stroke-width="0.5"><title>2021-04-02 3.1km</title></polyline><polyline fill="none" points="87.39007092185784,185.9416271655209 84.58156028366648,184.96406437354744 79.283687943127,184.86630788222828 73.53900709224399,184.10869376675691 73.0496453900123,183.64434848650126 72.66666666662786,181.32260903154383 73.21985815593507,180.882698051646 74.3687943262048,180.83381900558015 73.32624113478232,177.58334080473287 73.58156028366648,173.18412945981254 75.17730496451259,170.91117299090547 75.8156028368976,169.3714164375997 78.85815602832008,167.26951109002403 80.0921985815512,168.61375493775995 81.24113475170452,168.85816212632926 81.83687943255063,169.56694160972256 84.34751773043536,169.56694160972256 88.21985815593507,170.17795677811955 90.09219858143479,171.15557791299943 93.19858156016562,173.91733677549928 96.13475177285727,179.00084782007616 96.21985815593507,179.66071900905808 95.53900709201116,180.2472697016492 95.26241134747397,181.17597212498367 95.85815602820367,181.1515326321387 96.66666666662786,183.22888091907953 96.13475177285727,184.3286464905832 94.283687943127,184.67079478390224 93.83687943243422,185.23289452583413 92.79432624089532,184.71967307289015 92.34751773043536,184.91518613271182 91.24113475170452,184.5730381768808 90.70921985805035,186.063822243319 90.53900709212758,185.89274911752727" stroke="#4dd2ff" stroke-linecap="round" stroke-linejoin="round" stroke-width="0.5"><title>2021-04-02 3.2km</title></polyline><polyline fill="none" points="105.84792219277006,174.63754334743135 113.96463306806982,178.2570642408682 118.35720601235516,178.22050360037247 121.03094606543891,178.84203399711987 124.62776304164436,177.96457901661051 127.33333333337214,178.00113968213554 121.22192749776877,178.80547341448255 118.54818744480144,178.18394295641338 114.21927497792058,178.40330676650046 108.61715296201874,176.7946358115587 103.33333333337214,174.49129933625227" stroke="#4dd2ff" stroke-linecap="round" stroke-linejoin="round" stroke-width="0.5"><title>2021-04-01 1.4km</title></polyline><polyline fill="none" points="134.0,173.6437870437221 136.71031096577644,176.39597093625343 139.8919803602621,177.07273493081448 143.62356792157516,179.01278616627678 148.7299509004224,178.92255140753696 151.55810147314332,179.68954628962092 158.0,178.92255140753696 153.48281505750492,179.59931166438037 148.02291325712577,178.78719923607423 143.15220949286595,179.01278616627678 135.8461538462434,177.02761736226967 135.09983633412048,176.62155904562678 135.96399345365353,176.2606180171133" stroke="#4dd2ff" stroke-linecap="round" stroke-linejoin="round" stroke-width="0.5"><title>2021-03-29 1.2km</title></polyline><polyline fill="none" points="176.2290085933637,188.66666666668607 175.110549072735,182.35978820791934 174.33249027561396,182.13653458899353 170.53945364034735,176.6667935004807 168.01076254993677,176.44353764271364 175.88860786962323,164.66666666668607 178.5145563094411,166.28530322684674 183.66919583966956,171.53188655734994 183.13428041688167,175.27144294895697 185.32257078331895,188.10853865550598 178.36867028521374,183.4760549850762 175.83997919457033,182.9737352069351 175.59683582070284,184.0341875506565" stroke="#4dd2ff" stroke-linecap="round" stroke-linejoin="round" stroke-width="0.5"><title>2021-03-28 1.4km</title></polyline><polyline fill="none" points="23.03794871782884,198.9861563750601 24.404102563858032,199.79198436369188 24.73641025624238,199.11339247366413 26.065641025546938,199.02856841208995 26.36102564097382,198.34997531719273 26.767179487040266,198.81650818500202 27.394871794851497,198.34997531719273 29.351794871501625,199.45268855261384 30.496410256251693,198.60444785331492 33.85641025612131,199.62233649153495 33.634871794842184,198.7740961269883 35.22256410238333,198.94374433389748 34.04102564090863,198.51962369136163 34.33641025633551,197.84102979316958 34.41025641001761,198.7740961269883 34.22564102546312,198.34997531719273 33.819487179396674,198.9013322883984 33.89333333307877,198.22273899259744 34.41025641001761,198.94374433389748 33.85641025612131,198.7740961269883 34.96410256391391,198.64685992800514 34.96410256391391,199.07098044487066 34.48410256393254,198.47721160401125 33.70871794852428,198.9013322883984 35.259487179340795,198.64685992800514 34.77948717935942,198.26515110500623 34.631794871762395,199.5375125304854 33.9671794869937,198.9861563750601 33.89333333307877,199.45268855261384 34.816410256084055,198.8589202388539 34.41025641001761,198.9013322883984 35.33333333325572,200.04645604634425 35.22256410238333,198.81650818500202 34.66871794871986,198.9013322883984 34.96410256391391,199.49510054357233 34.15179487178102,199.74957240201184 34.04102564090863,199.2830405466084 33.59794871788472,199.91922022381914 32.047179487068206,199.70716043608263 32.047179487068206,198.8589202388539 32.41641025617719,206.1537312491855 28.24410256394185,207.0867795442755 24.847179487114772,205.98408588720486 25.10564102558419,206.53543306927895 24.071794871706516,205.98408588720486 18.090256409952417,205.6872063424671 15.099487179424614,206.5778443616291 14.841025640955195,208.10464810254052 14.139487179461867,208.65599256544374 11.739487179322168,208.8256368735165 11.333333333255723,208.1470592401165" stroke="#4dd2ff" stroke-linecap="round" stroke-linejoin="round" stroke-width="0.5"><title>2021-03-26 1.5km</title></polyline><polyline fill="none" points="44.53658536612056,201.81251697329571 52.146341463550925,204.9181878999807 54.82229965168517,204.72608540576766 57.163763066288084,205.23835847110604 60.53658536588773,204.5659999071213 61.87456446001306,204.72608540576766 66.0,203.25329584005522 62.348432055907324,204.72608540576766 57.63763066206593,205.11029028054327 55.1567944252165,204.598017013137 52.39721254375763,204.8221366670914 46.459930313634686,203.3813647631905 42.0,201.42830819558003" stroke="#4dd2ff" stroke-linecap="round" stroke-linejoin="round" stroke-width="0.5"><title>2021-03-26 1.6km</title></polyline><polyline fill="none" points="96.66666666674428,205.46288499992806 94.8330503681209,205.2288693258597 92.10299943410791,203.49714975003735 89.78041878901422,203.54395306500373 86.43916242220439,202.23345850370242 78.28975664963946,202.46747565513942 79.51216751569882,203.0759197085572 79.02320316922851,203.21632976384717 72.66666666674428,201.2037816666998 77.80079230340198,203.16952641663374 85.09451046981849,203.63755968090845 91.32880588574335,205.1352630238107" stroke="#4dd2ff" stroke-linecap="round" stroke-linejoin="round" stroke-width="0.5"><title>2021-03-24 1.1km</title></polyline><polyline fill="none" points="127.33333333337214,205.09373564532143 125.60507246374618,204.98137004452292 123.90942028991412,203.70789091230836 121.20289855077863,203.2584266694903 118.98550724645611,202.24713017840986 112.20289855089504,202.39695205065073 112.78985507262405,203.03369434861816 107.4746376813855,201.57293102133553 103.33333333337214,202.0973082469427 104.96376811596565,202.32204112189356 107.60507246374618,201.61038656151504 112.49637681175955,203.10860513712396 121.3985507247271,203.48315885741613" stroke="#4dd2ff" stroke-linecap="round" stroke-linejoin="round" stroke-width="0.5"><title>2021-03-23 1.3km</title></polyline><polyline fill="none" points="157.52127659565303,204.52473626405117 149.44680851057637,201.70203831864637 146.15957446803804,202.2519162229146 142.9042553191539,201.88533104374073 143.79787234042305,202.4718671569426 143.44680851057637,202.58184257516405 138.30851063819136,201.04218375941855 134.0,201.66537976264954 137.98936170211527,201.1155009905342 142.80851063830778,202.50852563322405 149.19148936169222,202.94842706737109 158.0,205.62448290723842 156.56382978719193,204.92797707766294 158.0,204.52473626405117" stroke="#4dd2ff" stroke-linecap="round" stroke-linejoin="round" stroke-width="0.5"><title>2021-03-22 1.6km</title></polyline><polyline fill="none" points="185.1043101247633,191.48174476895656 185.43483805144206,191.71352184518764 185.25121142552234,192.45099269464845 186.92221372097265,192.70383925938222 187.36291762290057,193.06203804937832 187.21601632225793,193.71522253850708 187.87707217526622,194.15770122382673 188.66666666662786,195.5272723227681 188.18923743919004,196.79148403878207 187.49145626102109,197.08646570060228 187.23437898489647,197.8449881115812 183.83728640642948,200.79477199501707 180.09130323887803,202.24857913258893 178.91609283327125,203.00708329395275 178.01632236666046,203.7655847738206 175.39046161680017,207.38949928077636 164.66666666662786,215.18492189771496" stroke="#4dd2ff" stroke-linecap="round" stroke-linejoin="round" stroke-width="0.5"><title>2021-03-21 1.3km</title></polyline><polyline fill="none" points="22.212719162693247,227.9149470893608 21.908086184295826,225.9669527692604 19.819174332427792,223.36960377107607 18.970553892548196,223.11985727556748 16.098300096113235,225.74218323256355 13.24780579819344,229.36344600263692 12.529742349172011,229.56323830796464 11.746400404605083,231.686021848378 13.07372981053777,233.58402505236154 16.228857086854987,235.08243861795927 19.645098344655707,237.85448041577183 19.449262858601287,238.00431965135795 19.906212326255627,237.95437324931845 19.49278185563162,237.7296143186977 20.015009818482213,238.60367570970266 21.16826323675923,239.97719467725256 25.54192242678255,242.0 27.80491026630625,241.77524464829185 33.135987388319336,238.0542660435458 33.854050837573595,236.5558700059919 34.92026626202278,231.76094329636544 33.854050837573595,229.91287446429487 29.87206261989195,226.24167082174972 25.563681925297715,220.82217799444334 22.36503565183375,218.0 18.77471840637736,222.99498393567046 19.427503360202536,223.06990794697776 20.319642796879634,223.8940706126159 22.06040267343633,226.11679901654134 22.038643175037578,226.8160803351202" stroke="#4dd2ff" stroke-linecap="round" stroke-linejoin="round" stroke-width="0.5"><title>2021-03-20 3.7km</title></polyline><polyline fill="none" points="63.63546798028983,236.0431297798932 55.43842364498414,233.41767723709927 46.76847290643491,233.14607784088003 42.118226600810885,232.15021201319178 42.0,230.5206087247061 42.66995073878206,229.7963387389609 42.03940886701457,228.5741305462434 42.19704433484003,226.4465751867392 44.679802955593914,223.9568702201068 48.77832512324676,224.45481229404686 52.95566502446309,225.85810068633873 60.8374384236522,225.6770314575988 65.05418719211593,224.99802121304674 65.56650246283971,224.40954485506518 64.8177339900285,226.12970439574565 64.34482758608647,231.96914526695036 64.73891625623219,234.9567374458711 66.0,235.1830693942029" stroke="#4dd2ff" stroke-linecap="round" stroke-linejoin="round" stroke-width="0.5"><title>2021-03-19 1.6km</title></polyline><polyline fill="none" points="82.39288476412185,229.75482976532658 87.60866202635225,231.99343712747213 89.63186388253234,231.8655173312436 91.39520494965836,232.24927649278834 93.25135344162118,231.84419735790289 94.23511214228347,231.92947723883844 96.66666666662786,231.2045971783955 92.1562258314807,232.22795655720984 89.83604021661449,231.8655173312436 87.2374323279364,231.97211716671882 76.8615622583311,228.66749782467377 72.66666666662786,228.2197713181522 73.57617942767683,228.34769327173126 72.96365042531397,228.0918492888013 73.1492652745219,227.98524753988022 74.55993812833913,228.0705289432517 76.43464810517617,227.7507235072262 77.06573859241325,228.2197713181522 77.43696829071268,227.98524753988022 77.88244392885827,228.4116542201955 78.27223511203192,228.28373230446596 78.7733952049166,228.71013839599618 79.40448569215368,228.47561514966947 80.70378963649273,229.41370660801476 80.96365042531397,229.09390315918426 80.29543696821202,228.0918492888013 80.03557617939077,228.1131696322991 80.12838360399473,228.83806005938095 81.33488012372982,229.43502682114195 81.83604021649808,228.24109164904803 82.11446249042638,228.81673978742037 82.4856921887258,228.75277895880572 82.09590100543573,228.8593803292897 82.31863882450853,228.79541951330611 81.78035576175898,228.04920859559206 82.57849961332977,227.98524753988022" stroke="#4dd2ff" stroke-linecap="round" stroke-linejoin="round" stroke-width="0.5"><title>2021-03-19 3.1km</title></polyline><polyline fill="none" points="113.43276410800172,242.0 113.29797196434811,241.5819668899494 113.04186689149356,241.53551869789953 112.66444888926344,241.8916211524338 113.12274217762752,239.27502340682258 112.94751239090692,239.90982331692067 113.02838767709909,241.07103602134157 112.77228260418633,241.27231201659015 111.31652745290194,241.24134649564803 111.14129766612314,240.312378027229 111.26261059538228,239.4917846403987 114.79416475875769,238.70215299149277 117.16650648677023,238.54732279067684 117.08563120063627,223.57452080208168 117.88090484810527,222.5525401474879 119.52536900050472,221.09698045144614 119.22882628446678,220.35371071797272 117.22042334428988,218.0" stroke="#4dd2ff" stroke-linecap="round" stroke-linejoin="round" stroke-width="0.5"><title>2021-03-18 2.7km</title></polyline><polyline fill="none" points="142.13962499058107,240.01956518460065 142.81154576397967,240.13606208558485 142.91296776750823,240.70398316152568 143.16652277635876,240.8496035983262 144.53571982396534,241.1262820326083 146.3106048858026,240.9660998443287 147.54034667857923,241.31558803094958 148.68134421831928,242.0 148.972932478413,241.08259599846497 148.80812172271544,237.1944871921296 149.86037500936072,237.09255037779803 148.35172270680778,236.67023996847274 146.89378140604822,236.59742770684534 146.24721613357542,235.89842816797318 144.9667633390054,222.66049949197622 146.36131588753778,221.02934141110745 147.35018042195588,220.46134463319322 146.6402263972559,219.19426702002238 145.42316235491307,218.0" stroke="#4dd2ff" stroke-linecap="round" stroke-linejoin="round" stroke-width="0.5"><title>2021-03-17 2.8km</title></polyline><polyline fill="none" points="165.4751773052849,228.70479940716177 165.77304964559153,228.70479940716177 167.26241134782322,229.3401931943954 167.68794326251373,229.87783345507341 172.11347517743707,231.09974096922087 176.79432624136098,231.7351316860586 178.36879432643764,231.6373793212697 179.4751773052849,231.8817601974879 180.0283687945921,232.0772648116108 182.24113475205377,232.41939770092722 184.070921986131,233.15253881152603 184.66666666674428,233.29916690345271 185.68794326274656,233.8368028694822 186.53900709259324,234.3744382521836 186.87943262443878,234.4721900773293 187.26241134782322,234.66769366973313 188.19858156051487,234.91207305178978 188.66666666674428,234.86319718507002 188.62411347567104,234.86319718507002 188.62411347567104,234.86319718507002 188.49645390105434,234.91207305178978 188.5815602838993,234.86319718507002 188.62411347567104,234.86319718507002 188.66666666674428,234.91207305178978 188.41134751797654,234.86319718507002 187.85815602866933,234.86319718507002 185.9858156030532,234.91207305178978 184.709219858516,234.52106598272803 183.4751773052849,234.2766864078585 182.24113475205377,234.17893454423756 181.00709219882265,234.22781047833269 180.36879432667047,234.2766864078585 179.13475177343935,234.3744382521836 178.5815602838993,234.3744382521836 176.66666666674428,234.22781047833269 176.070921986131,234.08118266108795 174.92198581574485,233.78792689662077 174.32624113489874,233.49467095860746 173.17730496474542,233.1036627710855 172.5815602838993,232.90815856179688 170.15602836897597,232.41939770092722 168.5815602838993,231.78400786139537 168.45390070951544,231.49075073757558 168.96453900728375,231.392998324387 169.17730496474542,231.392998324387 169.3475177306682,231.19749344035517 169.17730496474542,231.14861720716 168.75177304982208,231.05086472650873 168.5390070923604,231.00198847902357 168.41134751797654,230.95311222661985 168.15602836897597,230.95311222661985 167.9858156030532,230.85535970737692 167.77304964559153,230.85535970737692 167.56028368812986,230.85535970737692 167.26241134782322,230.75760716895456 167.04964539036155,230.65985461123637 166.92198581574485,230.6109783250722 166.4964539008215,230.36659682227764 166.36879432643764,230.2688441873761 166.15602836897597,230.1222151987895 166.0283687945921,230.0244625158375 165.9007092199754,229.87783345507341 165.73049645405263,229.6823279732198 165.432624113746,229.43794601250556 165.17730496474542,229.29131677813712 165.04964539036155,229.19356393112685 164.83687943289988,228.9491817294038 164.75177304982208,228.50929346258636 164.75177304982208,228.11828134211828 164.709219858516,227.87389861006523 164.66666666674428,227.67839233769337 164.79432624136098,227.28737956171972 164.75177304982208,226.74973649086314 164.75177304982208,226.505353084096 164.709219858516,226.35872298205504 164.79432624136098,226.21209283685312 164.75177304982208,226.16321611215244 164.79432624136098,225.8210789039731 164.83687943289988,225.57669503914076 165.04964539036155,225.52781825177954 165.4751773052849,225.38118786059204 165.68794326251373,225.28343424235936 165.81560283713043,225.23455742609804 166.070921986131,225.13680377905257 166.11347517743707,225.13680377905257 166.11347517743707,225.08792694821022 166.15602836897597,225.08792694821022" stroke="#4dd2ff" stroke-linecap="round" stroke-linejoin="round" stroke-width="0.5"><title>2021-03-02 1.4km</title></polyline><polyline fill="none" points="15.742635658942163,257.0192949818447 16.02170542650856,257.14751012885245 19.091472868109122,257.7244779780158 21.044961240375414,258.42966020910535 21.770542635582387,258.75019733409863 23.72403100761585,259.26305640512146 24.449612402822822,259.26305640512146 26.514728682115674,259.1348416755209 27.184496123809367,258.9425195331569 29.24961240286939,258.81430474005174 30.533333333209157,259.26305640512146 31.20310077513568,259.5194857890601 32.37519379844889,259.9682369673392 33.49147286801599,260.1605588060338 34.88682170538232,260.0323442533263 35.110077518969774,259.90412967524026 35.33333333325572,260.0323442533263 35.277519379742444,260.92984559212346 34.27286821696907,261.1862743184902 33.43565891473554,261.8914527941961 33.04496123990975,262.0196669806028 32.65426356554963,262.1478811414563 32.43100775172934,262.1478811414563 32.09612403064966,262.2119882122497 31.872868217062205,262.34020233515184 31.091472868109122,262.66073753195815 31.20310077513568,262.98127257061424 31.593798449495807,263.23770048783626 31.593798449495807,263.30180745141115 31.593798449495807,263.3659144084668 31.649612403009087,263.30180745141115 31.37054263567552,263.23770048783626 31.035658914595842,263.3659144084668 30.924031007802114,263.430021359236 30.812403100542724,263.49412830383517 30.756589147029445,263.5582352419733 30.756589147029445,263.5582352419733 30.533333333209157,263.23770048783626 30.42170542641543,263.1094865418272 30.25426356564276,262.9171655756072 30.19844961212948,262.78895156644285 29.640310077462345,262.66073753195815 29.417054263409227,262.66073753195815 29.13798449607566,262.66073753195815 28.858914728742093,262.59663050534436 28.524031007662416,262.59663050534436 28.244961240096018,262.59663050534436 27.686821705196053,262.4684164330247 27.407751937862486,262.4043093872606 27.12868217076175,262.34020233515184 26.84961240296252,262.2760952769313 26.291472868295386,262.1478811414563 26.068217054009438,262.0196669806028 25.78914728667587,261.95555989054265 25.510077519342303,261.8273456916795 25.231007751543075,261.69913146761246 25.007751937955618,261.50681008410174 24.505426356568933,261.25038148416206 24.003100774949417,260.99395278305747 23.61240310082212,260.60930954176 23.333333333022892,260.48109507758636 23.054263565689325,260.35288058791775 22.775193798355758,260.2246660730452 22.49612403055653,260.09645153285237 22.328682170715183,260.0323442533263 21.882170542608947,259.84002237650566 21.65891472855583,259.77591507171746 21.43565891450271,259.7118077604682 21.212403100682423,259.58359311922686 20.933333333348855,259.5194857890601 20.654263565782458,259.4553784526652 20.040310077369213,259.39127110975096 19.817054263548926,259.32716376066674 19.537984495982528,259.26305640512146 19.20310077490285,259.26305640512146 18.979844961082563,259.1989490434644 18.421705426182598,259.1348416755209 18.14263565884903,259.0066269203089 17.640310077462345,258.6219825030421 17.08217054256238,258.42966020910535 16.858914728509262,258.36555276514264 16.579844961175695,258.3014453150099 16.24496124032885,258.23733785835793 16.02170542650856,258.17323039547773 15.742635658942163,258.0450154504506 15.240310077322647,257.7885854851338 14.96124030998908,257.6603704644367 14.737984495935962,257.5321554184775 14.179844961268827,257.21161769295577 14.012403100728989,257.0834025585209 13.78914728667587,256.9551873988821 13.286821705289185,256.63464938878315 13.063565891468897,256.44232650694903 12.7844961239025,256.0576805724413 12.393798449542373,255.60892669460736 11.72403100761585,255.09606474050088 11.72403100761585,254.90374140365748 11.612403100822121,254.58320238190936 11.500775193795562,254.32677105080802 11.333333333255723,253.49336852622218 11.500775193795562,253.17282880924176 11.55658914707601,252.85228893422754 11.612403100822121,252.59585692029214 11.6682170543354,252.40353284351295 11.6682170543354,252.082992589043 11.6682170543354,251.24958718783455 11.6682170543354,250.67261359188706 12.282170542748645,250.4161807181663 12.72868217062205,250.1597477432806 13.119379845215008,250.03153121785726 13.398449612548575,249.96742294571595 13.510077519342303,249.83920638239942 14.291472868062556,249.77509809134062" stroke="#4dd2ff" stroke-linecap="round" stroke-linejoin="round" stroke-width="0.5"><title>2020-12-25 1.0km</title></polyline><polyline fill="none" points="42.360902255401015,253.89450938126538 42.63157894718461,254.15359080431517 42.85714285704307,254.41267209971556 43.3533834584523,254.72356948564993 45.29323308262974,255.24173138657352 46.33082706760615,255.5526282818755 47.007518796948716,255.70807666069595 50.165413533570245,256.9516620343784 51.067669172771275,257.57345361763146 52.105263157747686,258.0397968219477 53.63909774413332,258.609771287709 54.225563909625635,258.71340294223046 55.30827067676,258.71340294223046 55.93984962394461,258.71340294223046 57.02255639084615,258.50613961275667 58.01503759413026,258.4025079170824 59.1428571427241,258.45432376745157 59.774436090141535,258.4025079170824 61.53383458638564,258.71340294223046 62.12030075164512,258.9206661900971 63.24812030047178,259.1279293562402 63.87969924812205,259.0761135723442 65.00751879694872,259.0242977833841 65.50375939859077,258.97248198935995 66.0,259.17974513507215 65.95488721784204,259.2315609086654 65.81954887229949,259.2833766771364 65.77443609014153,259.33519244065974 65.77443609014153,259.3870081988862 65.72932330821641,259.33519244065974 65.63909774436615,259.43882395204855 65.63909774436615,259.33519244065974 65.68421052652411,259.3870081988862 65.72932330821641,259.43882395204855 65.68421052652411,259.3870081988862 65.77443609014153,259.2833766771364 65.72932330821641,259.2833766771364 65.68421052652411,259.2833766771364 65.68421052652411,259.33519244065974 65.68421052652411,259.2833766771364 65.68421052652411,259.2833766771364 65.68421052652411,259.2833766771364 65.68421052652411,259.33519244065974 65.63909774436615,259.33519244065974 65.63909774436615,259.33519244065974 65.5939849622082,259.33519244065974 65.5488721805159,259.33519244065974 65.63909774436615,259.33519244065974 65.63909774436615,259.33519244065974 65.63909774436615,259.33519244065974 65.5939849622082,259.33519244065974 65.5939849622082,259.3870081988862 65.50375939859077,259.33519244065974 64.46616541338153,259.33519244065974 63.29323308262974,259.33519244065974 62.12030075164512,259.0761135723442 61.578947368310764,258.9206661900971 60.4511278194841,258.609771287709 59.86466165422462,258.50613961275667 58.64661654108204,258.50613961275667 58.06015037582256,258.45432376745157 56.84210526314564,258.55795545264846 55.578947368310764,258.71340294223046 54.992481203051284,258.71340294223046 53.774436090141535,258.66158711753087 53.1428571427241,258.50613961275667 50.300751879578456,257.57345361763146 49.714285714318976,257.36618983815424 48.04511278192513,256.9516620343784 47.5939849622082,256.89984603592893 45.7894736842718,256.58894993778085 44.751879699062556,256.12260544562014 44.165413533803076,255.81170888763154 43.03759398497641,255.18991521949647 42.0,254.82720190670807" stroke="#4dd2ff" stroke-linecap="round" stroke-linejoin="round" stroke-width="0.5"><title>2020-12-08 1.1km</title></polyline><polyline fill="none" points="72.66666666674428,254.1927825754683 72.8974358974956,254.23695931903785 74.43589743599296,255.42972974435543 74.93589743599296,255.6064362039324 76.8974358974956,256.18073171624565 77.82051282073371,256.4457909351331 78.28205128223635,256.6224969938339 79.35897435923107,257.02008537136135 80.32051282073371,257.5060262423358 80.82051282073371,257.81526106756064 83.28205128223635,258.65461165999295 83.82051282096654,258.69878796333796 85.35897435923107,258.52208272361895 85.82051282073371,258.47790640272433 88.243589743739,258.52208272361895 88.743589743739,258.5662590400607 90.243589743739,259.00802196530276 91.78205128223635,259.14055075787473 92.243589743739,259.09637449795264 93.24358974397182,259.14055075787473 94.78205128223635,258.91966941498686 95.243589743739,258.8754931334115 96.20512820547447,258.7871405570768 96.66666666674428,258.7429642624629 96.47435897449031,258.389553748013 95.3974358974956,258.34537741405074 94.93589743599296,258.389553748013 93.97435897472315,258.65461165999295 93.62820512847975,258.7429642624629 92.62820512847975,258.96384569234215 92.16666666674428,259.00802196530276 91.20512820524164,259.00802196530276 90.70512820524164,258.91966941498686 89.743589743739,258.7429642624629 89.28205128246918,258.61043535213685 87.78205128223635,258.34537741405074 87.28205128223635,258.34537741405074 86.28205128223635,258.389553748013 85.743589743739,258.389553748013 84.743589743739,258.47790640272433 83.743589743739,258.52208272361895 82.78205128223635,258.47790640272433 81.85897435923107,258.25702473323327 81.39743589772843,258.124495679338 80.39743589772843,257.81526106756064 79.93589743622579,257.63855547926505 79.01282051298767,257.32932053203695 77.78205128200352,256.97590890232823 77.43589743599296,256.93173242907505 76.51282051298767,256.71084999712184 75.24358974397182,256.3132613452326 74.89743589772843,256.0482020480267 74.08974358998239,255.6064362039324 73.66666666674428,255.38555311851087" stroke="#4dd2ff" stroke-linecap="round" stroke-linejoin="round" stroke-width="0.5"><title>2020-12-03 1.3km</title></polyline><polyline fill="none" points="127.07981220632792,257.297592390154 127.29107981198467,258.07410980117857 127.33333333325572,258.3167712408176 126.61502347420901,258.7535615306988 125.38967136130668,258.7050292954664 123.69953051628545,258.4138357832271 122.09389671334065,257.73438358466956 121.54460093891248,257.6373189082078 118.41784037556499,256.4240088383376 117.27699530497193,256.2298789493507 115.54460093867965,256.27841142885154 114.36150234704837,256.2298789493507 113.51643192465417,256.2298789493507 113.00938967126422,256.2298789493507 111.86854460067116,256.1328139763791 111.48826291062869,256.0842814827338 110.17840375564992,255.9872164807166 109.67136150202714,255.93868397272308 107.89671361492947,255.79308641972602 107.34741784003563,255.6960213604325 106.24882629094645,255.59895628198865 104.81220657285303,254.96803280559834 104.2629107979592,254.77390234250925 103.33333333325572,254.57977180264425 104.38967136130668,254.8224349654629 105.31924882624298,255.25922835676465 106.24882629094645,255.6960213604325 106.79812206560746,255.74455389240757 108.1924882628955,255.89015145975281 108.61502347397618,255.93868397272308 109.71361502329819,256.0357489840826 110.2629107979592,256.0842814827338 111.40375586831942,256.0842814827338 111.91079812194221,256.1328139763791 113.05164319253527,256.2298789493507 113.55868544592522,256.2298789493507 115.12206572759897,256.27841142885154 115.62910798122175,256.27841142885154 116.38967136130668,256.1813464652805 116.64319248823449,256.1813464652805 116.8122065726202,256.1813464652805 116.9812206570059,256.1813464652805 117.15023474162444,256.1813464652805 117.3615023472812,256.1328139763791 117.57276995270513,256.1328139763791 117.99530516401865,256.1813464652805 118.16431924863718,256.1813464652805 118.54460093891248,256.32694390340475 118.92488262895495,256.5210737539164 118.88262910791673,256.61813865049044 118.88262910791673,256.66667109151604 118.84037558664568,256.66667109151604" stroke="#4dd2ff" stroke-linecap="round" stroke-linejoin="round" stroke-width="0.5"><title>2020-11-30 1.0km</title></polyline></svg>