<?xml version="1.0" encoding="utf-8" ?>
<svg baseProfile="full" height="300mm" version="1.1" viewBox="0,0,200,300" width="200mm" xmlns="http://www.w3.org/2000/svg" xmlns:ev="http://www.w3.org/2001/xml-events" xmlns:xlink="http://www.w3.org/1999/xlink"><defs /><rect fill="#222222" height="300" width="200" x="0" y="0" /><text fill="#FFFFFF" style="font-size:12px; font-family:Arial; font-weight:bold;" x="10" y="20">Over 3km Runs</text><text fill="#FFFFFF" style="font-size:4px; font-family:Arial" x="10" y="280">ATHLETE</text><text fill="#FFFFFF" style="font-size:9px; font-family:Arial" x="10" y="290">jdzj</text><text fill="#FFFFFF" style="font-size:4px; font-family:Arial" x="120" y="280">STATISTICS</text><text fill="#FFFFFF" style="font-size:3px; font-family:Arial" x="120" y="285">Number: 37</text><text fill="#FFFFFF" style="font-size:3px; font-family:Arial" x="120" y="290">Weekly: 3.4</text><text fill="#FFFFFF" style="font-size:3px; font-family:Arial" x="141" y="285">Total: 71.9 km</text><text fill="#FFFFFF" style="font-size:3px; font-family:Arial" x="141" y="290">Avg: 1.9 km</text><text fill="#FFFFFF" style="font-size:3px; font-family:Arial" x="167" y="285">Min: 1.0 km</text><text fill="#FFFFFF" style="font-size:3px; font-family:Arial" x="167" y="290">Max: 4.9 km</text><polyline fill="none" points="27.8550913836807,40.82384493073914 30.287206266075373,40.09045673039509 30.533942558802664,39.3163232919469 27.71409921674058,38.17549235391198 28.066579634323716,38.25698038539849 27.643603133037686,38.70516426290851 29.72323759784922,39.520042762189405 31.556135770166293,39.23483547507203 30.956919059855863,41.88318108403473 32.78981723240577,40.864588680444285 32.719321148702875,41.63871914224001 33.45953002618626,41.59797547079506 36.20887728454545,43.79812782708905 38.21801566565409,44.24630553697352 38.25326370750554,45.387119274557335 37.618798955343664,46.283470658090664 38.5,50.357769981288584 37.75979112274945,51.82450764605892 18.1618798954878,49.502170543011744 12.698433420155197,50.23554160146159 11.5,51.131882192363264 12.34595300257206,50.27628439894761" stroke="#4dd2ff" stroke-linecap="round" stroke-linejoin="round" stroke-width="0.5"><title>2021-05-02 1.6km</title></polyline><polyline fill="none" points="57.2708860761486,38.55801729654195 59.18481012666598,39.348454042105004 61.508860759902745,37.372360675712116 70.73670886084437,35.870526368147694 74.83797468361445,37.53044832928572 76.0,40.29697707982268 74.5645569623448,48.20129086408997 62.94430379755795,52.31150237331167 49.82025316450745,54.129473631910514 49.0,52.78575615363661 54.67341772140935,36.50287800800288" stroke="#4dd2ff" stroke-linecap="round" stroke-linejoin="round" stroke-width="0.5"><title>2021-05-01 1.0km</title></polyline><polyline fill="none" points="99.37958048470318,43.89144496811787 97.74392903526314,46.50013982632663 95.31865274859592,41.478392811026424 95.43145629670471,39.652293273073155 97.40551839070395,36.58704311598558 100.50761596718803,35.28267691930523 108.51666789175943,35.41311365773436 113.19801514339633,31.5 107.27582886116579,35.67398705566302 93.34459065436386,33.78265252505662 92.16015339782462,34.36961900861934 89.84768065926619,39.32620352465892 89.05805582134053,51.45663092919858 88.09922566148452,54.58702669781633 86.97119017899968,55.0435414754902 86.8019848568365,58.5 87.70441324263811,58.04348767379997 88.09922566148452,55.89135377493221 89.62207356258295,38.93489560863236 91.65253743086942,36.91313425207045 92.4985640423838,37.43487972620642" stroke="#4dd2ff" stroke-linecap="round" stroke-linejoin="round" stroke-width="0.5"><title>2021-05-01 1.8km</title></polyline><polyline fill="none" points="146.85151710780337,42.547293722542236 145.91026468691416,42.70747328280413 144.37637185282074,43.808704337629024 142.51129761134507,43.72861500787258 142.18011620396283,44.12906134077639 142.23240800516214,43.748637343305745 140.97740477730986,44.16910593061766 138.01420271140523,43.78868200814759 136.27114267268917,43.98890521413705 135.74822466110345,43.708592670518556 133.84828921884764,44.068994441171526 129.56036152353045,44.16910593061766 125.28986442863243,43.72861500787258 124.0,44.82984052217216 124.08715300186304,45.21026249312854 129.1071659134468,46.191347443367704 129.6475145255099,46.03117063254467 130.64105874759844,46.551744805517956 133.29051000642357,46.59178891735792 134.9464170432184,47.232493632429396 135.66107165906578,47.01225161476759 137.54357650096063,47.45273541120696 138.01420271140523,47.81313053362828 139.18205293739447,47.953284019517014 139.49580374429934,47.71302084159106 140.3499031633255,48.11345931352116 141.4131697868579,47.933262098929845 143.19109102641232,48.45383139346086 143.34796642995207,47.97330593819788 143.73143963847542,47.933262098929845 144.4460942542646,48.313678253180115 144.6901226597838,47.73304278393334 145.73595868301345,47.172427651370526 146.99096191086574,45.91103794146329 148.3854099418386,45.37043995175918 149.11749515816336,44.4894623648579 150.33763718529372,44.109039042916265 151.0,43.18801120518765 150.6513879922568,42.126821775280405 150.1110393802519,41.54616860652459 149.01291155582294,42.246956706250785 147.33957391860895,42.14684426873282 147.23499031632673,42.78756301557587 144.88185926398728,43.94886058874545 145.36991607490927,44.409373303700704 145.7010974822333,44.1891282225406 146.8340865073842,45.05008490809996 147.77533892838983,44.90992941746663 147.8450613298919,44.66966263690847" stroke="#4dd2ff" stroke-linecap="round" stroke-linejoin="round" stroke-width="0.5"><title>2021-04-30 3.7km</title></polyline><polyline fill="none" points="188.28672985779122,43.23623378251796 186.58056872035377,45.685921138414415 185.64218009449542,45.83290199568728 176.34360189572908,43.28522764809895 168.06872037914582,43.23623378251796 169.17772511858493,44.16711640084395 161.5,41.86440358625259 167.64218009449542,44.020135050668614 177.45260663493536,44.951016200036975 187.56161137414165,48.13559641374741 188.5,47.93962283618748 187.22037914698012,47.498682004312286" stroke="#4dd2ff" stroke-linecap="round" stroke-linejoin="round" stroke-width="0.5"><title>2021-04-29 1.4km</title></polyline><polyline fill="none" points="21.875714285764843,74.33554940490285 24.07428571442142,72.60747186263325 23.30285714287311,71.23386702072457 24.65285714273341,70.79076778833405 33.871428571408615,61.97300212824484 34.95142857148312,61.840069662663154 38.5,65.91664737128303 33.987142856931314,68.84112597076455 34.488571428461,68.88543610589113 31.672857142519206,71.94282488318277 32.86857142834924,71.49972635036102 33.1385714286007,70.48059806539095 31.788571428507566,71.58834609185578 25.34714285703376,79.38681485856068 20.98857142869383,81.95673512283247 18.01857142848894,84.57094926701393 17.825714285718277,86.25467235324322 15.39571428578347,88.15993033730774 13.390000000130385,87.14083986292826 11.5,84.43802349138423 11.654285714263096,81.82380857339012 14.315714285708964,80.58315888041398 15.28000000002794,79.07665107343928 17.941428571473807,77.92461228143657 18.442857143003494,76.77257053373614 19.75428571435623,76.01931086977129 20.140000000130385,74.6900260274997 21.142857142956927,73.93676287005655 22.26142857130617,74.20262059936067 22.49285714281723,73.36073724998278" stroke="#4dd2ff" stroke-linecap="round" stroke-linejoin="round" stroke-width="0.5"><title>2021-04-26 2.2km</title></polyline><polyline fill="none" points="64.92964901856612,83.72947800598922 65.66590629715938,82.71446476058918 66.51996473991312,72.05664420773974 69.4060932713328,61.5 66.755567069049,71.8874697809515 64.66459639824461,72.86868029402103 61.6312164113624,72.6656714527926 58.48003525985405,73.13935856189346 56.83081895625219,74.15440016260254 55.68225760187488,75.77846047110506 55.59390672855079,85.72566195391119 56.91916982969269,88.16166729407269 57.80267856363207,88.5 58.391684386413544,88.19550057966262 61.57231582922395,85.52266072752536 62.661976601113565,86.26699797008769 63.72218708205037,85.488827178051 63.9283391200006,84.60915372084128" stroke="#4dd2ff" stroke-linecap="round" stroke-linejoin="round" stroke-width="0.5"><title>2021-04-25 2.2km</title></polyline><polyline fill="none" points="101.04328879958484,88.5 100.24709471571259,82.57028896175325 100.68637421028689,79.19535109811113 100.24709471571259,72.9185027051426 100.65891924186144,61.97315048170276 100.32945962098893,61.5 99.64308541070204,61.97315048170276 98.95671120041516,73.13929845957318 99.2312608845532,84.11580935536767 100.32945962098893,84.4312207622861 100.41182452614885,84.14735051008756 100.54909936827607,78.753767806018 100.1921847788617,82.94878444314236" stroke="#4dd2ff" stroke-linecap="round" stroke-linejoin="round" stroke-width="0.5"><title>2021-04-18 2.2km</title></polyline><polyline fill="none" points="151.0,78.84329710557358 146.16475644684397,78.35455802554497 131.5429799426347,73.95588244483224 125.08309455565177,73.33384404791286 124.0,72.62294197097071 131.6977077361662,72.53407913257251 133.39971346687526,71.15670289442642 136.72636103141122,72.66737338370876" stroke="#4dd2ff" stroke-linecap="round" stroke-linejoin="round" stroke-width="0.5"><title>2021-04-16 1.0km</title></polyline><polyline fill="none" points="188.5,77.16544545063516 187.70920502085937,77.37630865129177 187.38441422593314,76.71127763851837 186.81956066942075,76.48419326210569 186.0993723848951,76.66261672708788 185.84518828446744,76.45175261124677 185.49215481168358,75.96514208130247 186.11349372385303,74.86215288248786 185.9016736401245,74.05112669288064 185.47803347278386,73.87270039442228 182.18776150629856,74.09978837710514 179.37761506275274,73.85647981220973 178.00784518831642,74.1808911520493 177.42887029290432,73.95380328134343 176.49686192470836,74.05112669288064 176.27092050213832,73.85647981220973 174.4351464434876,74.06734725587012 173.78556485357694,73.84025922839646 173.03713389125187,74.05112669288064 172.2887029288686,73.74293569203292 170.70711297076195,74.03490612830501 169.4079497908242,73.51584721657855 168.3347280335147,73.6456120981311 167.72751046030317,72.89946263092861 166.6260460250778,72.9643453276658 165.62343096232507,72.6561522900156 165.21391213394236,72.85080059153552 164.64905857742997,72.29929647214885 163.8158995815902,72.59126947163895 162.60146443516714,72.18575127677468 161.89539748959942,72.55882805289002 162.38964435155503,72.20197202375857 162.50261506275274,72.75347646955925 161.5,72.70481438699062 162.34728033473948,72.39662086291355 161.93776150635676,72.49394519609632 162.3755230125971,72.46150375812431 162.02248953975504,72.60749017864873 162.24843096238328,72.85080059153552 162.00836820085533,72.6561522900156 162.34728033473948,72.54260734103445 162.24843096238328,72.36417940571846 161.96600418409798,72.46150375812431 162.0648535565124,72.70481438699062 162.50261506275274,72.52638662765094 162.29079497908242,72.44528303669358 162.2625523013412,72.67237299059343 162.3755230125971,72.38040013515274 162.22018828458386,72.67237299059343 162.31903765688185,72.44528303669358 162.38964435155503,72.6237108840287 162.1778242678265,72.03976448181493 162.30491631804034,72.46150375812431 162.23430962342536,72.18575127677468 162.2625523013412,72.46150375812431 161.9801255229977,72.25063425516419 162.0789748954703,72.10464751777181 162.1778242678265,72.25063425516419 161.96600418409798,72.33173794214963 162.24843096238328,72.47772447788157 162.02248953975504,72.34795867474168 162.29079497908242,72.10464751777181 162.09309623437002,72.44528303669358 161.86715481174178,72.44528303669358 162.09309623437002,72.02354371879483 161.8812761506415,72.16953052819008 162.22018828458386,72.46150375812431 161.9801255229977,72.31551720792777 162.02248953975504,72.46150375812431 162.09309623437002,72.33173794214963 162.1637029288686,73.01300733347307 162.02248953975504,74.53774288666318 163.39225941424957,74.82971191170509 163.50523012556368,75.08923949877499 164.73378661094466,74.97569622984156 165.4398535565124,75.23522358651098 171.07426778244553,75.47853011143161 176.6380753138801,76.19222717446974 179.30700836819597,76.28954926127335 180.4932008368778,76.54907454446948 181.86297071131412,77.24654671369353 184.00941422587493,77.00324280455243 184.23535564856138,77.39252888633928 184.53190376568818,77.26276696148852 186.55125523015158,77.68449284293456 186.90428870293545,77.97645628120517 187.5397489540046,77.830474626855 187.7374476987752,77.23032646426873 188.3023012552294,77.00324280455243" stroke="#4dd2ff" stroke-linecap="round" stroke-linejoin="round" stroke-width="0.5"><title>2021-04-09 4.9km</title></polyline><polyline fill="none" points="37.95496894442476,106.44471134166815 29.48602484492585,103.98871357101598 28.521739130606875,103.0737308509415 22.56832298170775,103.55530091744731 18.25000000023283,103.1218878790387 19.046583851100877,103.60345789804705 18.66925465851091,103.79608577254112 11.5,102.15874641618575 17.453416149131954,103.94055662854225 26.006211180239916,104.66291026771069 37.87111801258288,107.84125358381425 36.27795031084679,107.21521790020051 38.5,106.92627808329416 37.91304347827099,106.20392779266695" stroke="#4dd2ff" stroke-linecap="round" stroke-linejoin="round" stroke-width="0.5"><title>2021-04-09 1.4km</title></polyline><polyline fill="none" points="50.07386363646947,103.50223745114636 51.377840909175575,104.60354574551457 60.81250000023283,108.21581789135234 64.9928977272939,108.03961017174879 68.6363636367023,108.788492499938 75.3863636367023,108.03961017174879 76.0,107.29072658804944 73.2769886367023,106.58589383284561 70.01704545458779,107.2466745733982 66.64204545458779,105.96916425964446 63.84232954564504,106.18942491928465 59.086647727293894,103.76655168936122 58.47301136376336,102.6211888602993 55.75000000023283,101.56392825720832 53.67897727293894,101.2115075000911 49.0,102.3568739441107" stroke="#4dd2ff" stroke-linecap="round" stroke-linejoin="round" stroke-width="0.5"><title>2021-04-08 1.4km</title></polyline><polyline fill="none" points="113.32467532483861,106.12775079283165 113.5,107.05411077366443 111.22077922080643,107.0943872469943 105.18961038975976,105.04028204680071 96.07272727275267,104.597238393937 91.26883116876706,102.9056127530348 86.5,103.63059602869907 91.02337662340142,103.10699712540372 95.82727272738703,104.55696167447604 104.7688311689999,104.95972869111574" stroke="#4dd2ff" stroke-linecap="round" stroke-linejoin="round" stroke-width="0.5"><title>2021-04-06 1.3km</title></polyline><polyline fill="none" points="132.24550898186862,100.9457708785194 135.64071856276132,99.88541559164878 137.04191616759636,101.00814466172596 137.04191616759636,102.19324533944018 136.1257485030219,102.69223441329086 137.74251497001387,104.4386929749744 139.41317365248688,104.62581324036 141.56886227522045,103.62783783260966 143.99401197605766,100.57152804534417 146.14970059879124,101.38238722848473 147.92814371269196,100.32203269645106 150.94610778428614,100.69627568172291 150.94610778428614,96.89146135671763 150.62275449116714,99.19930237036897 148.84431137726642,98.88743247062666 151.0,99.26167633139994 150.8922155688051,100.88339708879357 146.2574850297533,101.32001348305494 143.99401197605766,100.50915421778336 140.32934131729417,105.12480033526663 141.19161676662043,104.37631954066455 137.14970059879124,104.31394609995186 136.341317364946,102.94172879809048 137.52694610785693,102.94172879809048 137.41916167666204,102.3179926458979 136.017964071827,99.82304169406416 135.42514970037155,100.69627568172291 134.2395209579263,100.57152804534417 132.73053892189637,103.81495834531961 127.7185628740117,106.43463952775346 126.10179640701972,109.42854717787122 125.88622754462995,107.12074465502519 125.45508982008323,110.0522760989843 125.07784431125037,108.68007163546281 125.45508982008323,109.61566592089366 125.1317365267314,108.8048176226439 127.34131736517884,109.9275303655304 129.11976047884673,112.609558043594 131.43712574825622,112.42244021419901 132.0838323351927,111.11261380888755 130.68263473035768,110.48888596630422 131.9221556885168,110.48888596630422 131.32934131729417,111.23735930153634 130.79041916131973,110.73837717954302 131.43712574825622,111.48685021017445 131.59880239493214,110.86312274809461 131.86826347303577,112.29769496276276 130.95209580799565,113.10853864328237 127.9880239518825,112.85904839425348 125.23952095769346,109.61566592089366 125.72455089795403,106.80887878325302 126.04790419130586,109.05430952075403 124.0,110.23939465155127 124.59281437122263,109.2414283779217 124.21556886192411,110.48888596630422 125.72455089795403,109.42854717787122 125.9401197603438,106.68413239018992" stroke="#4dd2ff" stroke-linecap="round" stroke-linejoin="round" stroke-width="0.5"><title>2021-04-05 1.9km</title></polyline><polyline fill="none" points="182.73379468498752,112.10341087402776 181.67500136501621,112.6364659423416 182.0893117946107,111.99679972996819 182.82586366939358,111.99679972996819 182.98698439181317,111.5437018830562 182.15836353285704,116.47443036714685 180.38603558414616,117.75373932847288 180.2939665997401,118.5 180.22491486161016,117.75373932847288 182.22741527110338,116.5543873605202 182.89491540763993,113.9424462687748 183.35526032932103,109.78460868593538 182.20439802494366,108.95836385842995 179.7185354476096,108.50526074811933 178.24543169816025,109.65134356773342 175.1611207226524,110.53089209322934 169.54491267749108,113.91579367421218 168.53215384972282,112.28998027148191 167.35827429941855,112.79638225099188 166.8058603933314,112.58316048438428 163.58344594121445,98.75002694319119 163.39930797251873,96.21787125550327 165.0335324446205,103.6276893276954 165.53991185850464,103.84091839494067 171.45534410269465,101.1488886642328 176.01275882776827,99.6829202270601 178.86689734249376,98.08367256019847 182.8718981614802,94.85849335137755 185.24267450836487,91.5 186.60069202748127,92.19302596943453 186.43957130482886,92.40626435974264 185.8871573987417,92.2196807777218 186.2093988439301,91.95313257249654 186.2093988439301,92.37960957048927 186.3475023205392,91.65992923290469 185.56491595355328,91.89982289876207" stroke="#4dd2ff" stroke-linecap="round" stroke-linejoin="round" stroke-width="0.5"><title>2021-04-05 3.7km</title></polyline><polyline fill="none" points="18.31308411201462,125.2103965000133 22.602803737856448,128.61973999917973 26.135514019057155,138.45806303771678 26.2196261677891,143.42589063744526 28.154205607250333,143.03625803388422 30.088785046711564,144.7896034999867 34.46261682221666,141.57513435458532 38.5,142.64662527100882 30.257009345572442,140.69845907430863 30.257009345572442,143.91293116903398 30.677570093423128,139.432148916414 30.50934579409659,144.10774731216952 30.761682242620736,142.54921705560992 27.39719626121223,143.23107435565908 29.66822429932654,141.76995097420877 30.845794392284006,143.91293116903398 28.742990653961897,142.54921705560992 30.257009345572442,142.15958409424638 29.920560747850686,144.01033924537478 30.845794392284006,144.01033924537478 29.752336448524147,142.06217582896352 31.686915887519717,144.4973794791731 29.752336448524147,142.7440334765124 29.920560747850686,141.1855009960709 31.35046728979796,143.42589063744526 30.004672897048295,141.2829093504115 27.733644859865308,141.1855009960709 26.724299065303057,143.71811498625902 26.976635513827205,142.4518088303157 22.68691588798538,139.23733182030264 24.3691588784568,133.0031637659995 22.68691588798538,133.6850278780912 22.771028037648648,131.15238729520934 17.808411214500666,128.4249206984532 11.5,129.00937848177273 15.032710280269384,130.2757024524617 16.210280373692513,133.58761874877382" stroke="#4dd2ff" stroke-linecap="round" stroke-linejoin="round" stroke-width="0.5"><title>2021-04-04 1.4km</title></polyline><polyline fill="none" points="65.66759776556864,122.9137280768482 57.29608938563615,126.72593444224913 49.22625698335469,136.08309806726174 56.84357541939244,144.48713224026142 61.29329608939588,139.46204931195825 66.49720670422539,137.29605642065872 66.64804469328374,134.43693762167823 71.47486033523455,130.88468614366138 64.38547486020252,121.87403255852405 58.42737430194393,125.85952535836259 49.0,136.60293756675674 56.69273743033409,143.5341014813166 61.21787709509954,138.24909395119175 68.6089385477826,137.03613691445207 70.79608938563615,135.38997825584374 71.92737430194393,131.05796703702072 71.6256983242929,130.27820274728583 70.72067039133981,132.01101133896736 68.08100558677688,133.31061553861946 68.00558659248054,132.5308532496565 76.0,127.24577948241495 73.0586592182517,125.68624343891861 69.9664804469794,121.87403255852405 68.23184357536957,124.73319227073807 62.952513966709375,122.48052176041529 52.544692737516016,131.8377306337352 49.30167597765103,136.42965776781784 56.84357541939244,143.5341014813166 61.29329608939588,138.85557184100617 61.972067039459944,139.3754096989869 60.08659217879176,141.97459437139332 70.41899441368878,144.14057572046295 73.7374301678501,148.12596744153416 66.72346368711442,135.3033382408903 67.47765363147482,132.9640546067385 71.17318435804918,129.84500006528106 67.10055865952745,127.33242029225221 64.8379888269119,123.00036931439536 63.254189944360405,122.39388047158718 61.89664804469794,123.34693417925155 62.575418994762,123.95342236361466" stroke="#4dd2ff" stroke-linecap="round" stroke-linejoin="round" stroke-width="0.5"><title>2021-04-02 3.1km</title></polyline><polyline fill="none" points="103.06382978719193,145.4343305611983 99.90425531915389,144.3345724202518 93.9441489361925,144.22459636750864 87.48138297873084,143.37228048761608 86.93085106392391,142.8498920472921 86.5,140.23793516049045 87.12234042549971,139.74303530808538 88.41489361703862,139.68804638125584 87.24202127661556,136.03125840533176 87.52925531915389,131.08214564228547 89.32446808519308,128.52506961475592 90.0425531915389,126.7928434922942 93.46542553184554,124.42819997627521 94.85372340434697,125.94047430498176 96.14627659576945,126.21543239211314 96.81648936169222,127.01280931095243 99.64095744676888,127.01280931095243 103.99734042549971,127.70020137538086 106.10372340423055,128.80002515210072 109.5984042553464,131.90700387241668 112.90159574453719,137.62595379757113 112.99734042549971,138.36830888519762 112.23138297861442,139.028178414359 111.92021276592277,140.07296864059754 112.59042553184554,140.0454742111324 113.5,142.38249103396083 112.90159574453719,143.6197273019061 110.81914893607609,144.00464413187 110.3164893615758,144.63700634156703 109.14361702115275,144.05963220700505 108.64095744676888,144.27958439930808 107.39627659565303,143.89466794897453 106.79787234030664,145.5718000237248 106.60638297861442,145.37934275722364" stroke="#4dd2ff" stroke-linecap="round" stroke-linejoin="round" stroke-width="0.5"><title>2021-04-02 3.2km</title></polyline><polyline fill="none" points="126.82891246699728,132.71723626583116 135.96021220157854,136.78919727093307 140.90185676398687,136.74806655038265 143.90981432353146,137.44728824673803 147.95623342180625,136.4601513936359 151.0,136.50128214235883 144.12466843496077,137.40615759126376 141.11671087541617,136.7069358259323 136.24668435007334,136.953720112273 129.94429708225653,135.14396528797806 124.0,132.55271175326197" stroke="#4dd2ff" stroke-linecap="round" stroke-linejoin="round" stroke-width="0.5"><title>2021-04-01 1.4km</title></polyline><polyline fill="none" points="161.5,131.59926042420557 164.54909983626567,134.6954673033033 168.1284779049456,135.45682679719175 172.32651391159743,137.63938443706138 178.0711947628297,137.5378703335009 181.2528641570825,138.40073957582354 188.5,137.5378703335009 183.418166939402,138.29922562243883 177.27577741397545,137.3855991406017 171.79623567918316,137.63938443706138 163.5769230767619,135.40606953256065 162.73731587571092,134.94925392634468 163.7094926352147,134.5431952692743" stroke="#4dd2ff" stroke-linecap="round" stroke-linejoin="round" stroke-width="0.5"><title>2021-03-29 1.2km</title></polyline><polyline fill="none" points="24.507634667446837,178.5 23.249367706710473,171.4047617338947 22.374051559716463,171.15360141260317 18.106885345187038,165.00014268804807 15.262107868678868,164.74897984799463 24.12468385323882,151.5 27.07887584809214,153.32096613023896 32.87784531945363,159.22337237704778 32.27606546878815,163.43037331756204 34.7378921310883,177.8721059873933 26.914754070574418,172.6605618582107 24.069976593833417,172.09545210778015 23.79644029820338,173.28846099448856" stroke="#4dd2ff" stroke-linecap="round" stroke-linejoin="round" stroke-width="0.5"><title>2021-03-28 1.4km</title></polyline><polyline fill="none" points="62.16769230784848,160.10942592195352 63.70461538457312,161.01598240912426 64.07846153830178,160.25256653287215 65.57384615391493,160.157139463583 65.90615384629928,159.3937222318491 66.3630769229494,159.91857170814183 67.06923076929525,159.3937222318491 69.27076923055574,160.63427462166874 70.55846153851599,159.68000383497565 74.3384615383111,160.82512855296955 74.08923076931387,159.87085814285092 75.87538461526856,160.0617123756092 74.546153845964,159.58457665276364 74.87846153834835,158.8211585173267 74.96153846150264,159.87085814285092 74.75384615384974,159.3937222318491 74.29692307696678,160.01399882443366 74.37999999988824,159.2505813666503 74.96153846150264,160.0617123756092 74.3384615383111,159.87085814285092 75.58461538469419,159.72771741898032 75.58461538469419,160.20485300049768 75.0446153844241,159.5368630544981 74.17230769223534,160.01399882443366 75.9169230768457,159.72771741898032 75.37692307680845,159.29829499311745 75.2107692307327,160.7297015967779 74.46307692304254,160.10942592195352 74.37999999988824,160.63427462166874 75.4184615383856,159.9662852686888 74.96153846150264,160.01399882443366 76.0,161.30226305214455 75.87538461526856,159.91857170814183 75.25230769230984,160.01399882443366 75.58461538469419,160.68198811152251 74.67076923092827,160.96826895224513 74.546153845964,160.4434206149308 74.04769230773672,161.1591227517929 72.30307692289352,160.92055549059296 72.30307692289352,159.9662852686888 72.71846153843217,168.1729476553155 68.02461538463831,169.22262698729173 64.20307692303322,167.98209662307636 64.49384615384042,168.602362202917 63.33076923084445,167.98209662307636 56.601538461400196,167.64810713526094 53.2369230769109,168.65007490682183 52.9461538461037,170.36772911532898 52.15692307706922,170.9879916361242 49.45692307688296,171.1788414827024 49.0,170.4154416451056" stroke="#4dd2ff" stroke-linecap="round" stroke-linejoin="round" stroke-width="0.5"><title>2021-03-26 1.5km</title></polyline><polyline fill="none" points="89.35365853691474,163.28908159493585 97.9146341466112,166.78296138744918 100.92508710816037,166.56684608149226 103.5592334496323,167.14315327999066 107.3536585366819,166.38674989546416 108.85888501745649,166.56684608149226 113.5,164.90995782002574 109.39198606286664,166.56684608149226 104.09233449492604,166.99907656561118 101.30139372847043,166.42276913978276 98.19686411181465,166.67490375047782 91.51742160285357,165.0540353585675 86.5,162.85684672000934" stroke="#4dd2ff" stroke-linecap="round" stroke-linejoin="round" stroke-width="0.5"><title>2021-03-26 1.6km</title></polyline><polyline fill="none" points="151.0,167.39574562490452 148.93718166393228,167.13247799157398 145.86587436310947,165.18429346877383 143.25297113740817,165.23694719810737 139.49405772495084,163.76264081668342 130.32597623066977,164.0259101120173 131.70118845487013,164.71040967211593 131.15110356523655,164.8683709843317 124.0,162.60425437503727 129.77589134103619,164.81571721867658 137.98132427828386,165.34225464100018 144.99490662128665,167.02717090176884" stroke="#4dd2ff" stroke-linecap="round" stroke-linejoin="round" stroke-width="0.5"><title>2021-03-24 1.1km</title></polyline><polyline fill="none" points="188.5,166.98045260098297 186.555706521729,166.85404130007373 184.64809782616794,165.42137727636145 181.60326086962596,164.91573000318022 179.10869565233588,163.77802145073656 171.47826086962596,163.94657105699298 172.13858695677482,164.6629061421845 166.1589673915878,163.01954739898792 161.5,163.60947177780326 163.33423913037404,163.8622962621157 166.305706521729,163.06168488171534 171.8084239133168,164.74718077926082 181.82336956541985,165.16855371458223" stroke="#4dd2ff" stroke-linecap="round" stroke-linejoin="round" stroke-width="0.5"><title>2021-03-23 1.3km</title></polyline><polyline fill="none" points="37.96143617015332,196.34032829705393 28.87765957438387,193.16479310847353 25.17952127661556,193.78340575075708 21.51728723407723,193.37099742420833 22.52260638284497,194.0308505515568 22.12765957438387,194.15457289706683 16.34707446792163,192.42245672934223 11.5,193.12355223300983 15.98803191492334,192.50493861435098 21.40957446815446,194.0720913373807 28.59042553184554,194.56698045079247 38.5,197.57754327062867 36.88430851045996,196.7939742123708 38.5,196.34032829705393" stroke="#4dd2ff" stroke-linecap="round" stroke-linejoin="round" stroke-width="0.5"><title>2021-03-22 1.6km</title></polyline><polyline fill="none" points="71.99234889051877,181.66696286508522 72.36419280793052,181.92771207584883 72.15761285379995,182.75736678148678 74.03749043610878,183.0418191668141 74.5332823258359,183.4447928055597 74.36801836267114,184.17962535582774 75.11170619726181,184.6774138768087 76.0,186.21818136313232 75.46289211930707,187.64041954364802 74.67788829375058,187.97227391318302 74.38867635803763,188.8256116255361 70.56694720732048,192.1441184944124 66.35271614382509,193.77965152416436 65.03060443745926,194.63296870570048 64.01836266263854,195.4862828705518 61.06426931906026,199.56318669089524 49.0,208.33303713492933" stroke="#4dd2ff" stroke-linecap="round" stroke-linejoin="round" stroke-width="0.5"><title>2021-03-21 1.3km</title></polyline><polyline fill="none" points="98.73930905794259,192.65431547551998 98.39659695723094,190.4628218654252 96.0465711238794,187.5408042424533 95.09187312901486,187.2598394350207 91.86058760806918,190.20995613664854 88.65378152288031,194.28387675297563 87.845960142673,194.5086430964584 86.96470045519527,196.89677457942162 88.45794603682589,199.032028183894 92.00746422261,200.7177434452169 95.85073563770857,203.83629046773422 95.63042071578093,204.00485960778315 96.14448886690661,203.94866990548326 95.67937958752736,203.69581610852038 96.26688604569063,204.67913517341367 97.56429614126682,206.22434401192004 102.48466273001395,208.5 105.03052404953633,208.24715022931923 111.0279858118156,204.06104929899448 111.83580719213933,202.37535375673906 113.03529954468831,196.98106120841112 111.83580719213933,194.90198377234628 107.35607044724748,190.77187967445934 102.50914216588717,184.67495024375967 98.91066510824021,181.5 94.87155820708722,187.11935692763655 95.60594128014054,187.20364644034998 96.60959814640228,188.13082943920745 98.56795300764497,190.63139889360173 98.54347357188817,191.41809037700295" stroke="#4dd2ff" stroke-linecap="round" stroke-linejoin="round" stroke-width="0.5"><title>2021-03-20 3.7km</title></polyline><polyline fill="none" points="148.33990147779696,201.79852100237622 139.11822660081089,198.8448868917476 129.36453201971017,198.53933757098275 124.13300492614508,197.4189885148371 124.0,195.58568481527618 124.75369458133355,194.7708810813201 124.04433497553691,193.395896864502 124.22167487675324,191.00239708510344 127.01477832510136,188.20147899762378 131.6256157637108,188.76166383081 136.3251231526956,190.34036327208742 145.19211822655052,190.1366603898059 149.93596059107222,189.37277386462665 150.51231527072378,188.7107379619556 149.66995073878206,190.6459174452175 149.1379310344346,197.21528842530097 149.5812807881739,200.57632962657954 151.0,200.83095306847827" stroke="#4dd2ff" stroke-linecap="round" stroke-linejoin="round" stroke-width="0.5"><title>2021-03-19 1.6km</title></polyline><polyline fill="none" points="172.4419953597244,194.7241834859742 178.30974477971904,197.2426167684025 180.5858468679944,197.09870699765452 182.56960556854028,197.53043605438143 184.6577726219548,197.07472202762438 185.7645011601271,197.1706618936878 188.5,196.3551718256931 183.4257540605031,197.50645112684288 180.81554524379317,197.09870699765452 177.89211136905942,197.21863181254594 166.2192575406516,193.50093505275436 161.5,192.9972427329194 162.5232018561801,193.14115493069403 161.83410672855098,192.85333044989966 162.042923433939,192.73340348235797 163.62993039446883,192.8293450611527 165.7389791184105,192.46956394561857 166.44895591656677,192.9972427329194 166.8665893272264,192.73340348235797 167.36774941999465,193.21311099771992 167.80626450118143,193.0691988425242 168.3700696056476,193.54890569548297 169.08004640380386,193.2850670433836 170.54176334117074,194.3404199340148 170.83410672855098,193.98064105407684 170.0823665894568,192.85333044989966 169.79002320196014,192.87731583633285 169.89443155459594,193.69281756679993 171.2517401392106,194.36440517377923 171.81554524379317,193.02122810516448 172.12877030181699,193.66883226085338 172.5464037123602,193.59687632865098 172.1078886311734,193.71680287044728 172.35846867761575,193.6448469524621 171.75290023209527,192.8053596700338 172.6508120651124,192.73340348235797" stroke="#4dd2ff" stroke-linecap="round" stroke-linejoin="round" stroke-width="0.5"><title>2021-03-19 3.1km</title></polyline><polyline fill="none" points="22.861859621538315,238.5 22.71021845994983,238.02971275118762 22.422100252995733,237.9774585351406 21.997505000443198,238.3780737964844 22.513084949867334,235.43440133267723 22.31595143978484,236.1485512315412 22.406936136772856,237.45491552402382 22.118817929760553,237.68135101867665 20.481093384558335,237.6465148076095 20.283959874417633,236.60142528064898 20.420436919899657,235.67825772045762 24.393435353646055,234.7899221154221 27.062319797696546,234.61573813950235 26.971335100766737,217.77133590234735 27.866017954191193,216.62160766593297 29.716040125640575,214.98410300788237 29.382429570076056,214.14792455772113 27.122976262355223,211.5" stroke="#4dd2ff" stroke-linecap="round" stroke-linejoin="round" stroke-width="0.5"><title>2021-03-18 2.7km</title></polyline><polyline fill="none" points="58.15707811439643,236.27201083266118 58.912988984549884,236.40306984627387 59.02708873845404,237.04198105671094 59.312338123389054,237.20580404812063 60.85268480202649,237.51706728668069 62.84943049651338,237.33686232486798 64.23289001343073,237.73003653480555 65.5165122456383,238.5 65.84454903821461,237.46792049828218 65.6591369381058,233.0937980911549 66.84292188554537,232.97911917501187 65.14568804518785,232.50401996453002 63.50550408184063,232.42210617019737 62.77811815030873,231.6357316889771 61.33760875638109,216.74306192847143 62.906480373523664,214.90800908749225 64.01895297470037,214.2690127123351 63.22025469696382,212.84355039751972 61.85105764924083,211.5" stroke="#4dd2ff" stroke-linecap="round" stroke-linejoin="round" stroke-width="0.5"><title>2021-03-17 2.8km</title></polyline><polyline fill="none" points="87.40957446815446,223.5428993329988 87.74468085099943,223.5428993329988 89.42021276592277,224.25771734368755 89.89893617015332,224.86256263690302 94.87765957438387,226.23720859031891 100.14361702115275,226.95202314679045 101.9148936169222,226.8420517363702 103.15957446815446,227.11698022211203 103.78191489353776,227.33692291303305 106.27127659553662,227.72182241349947 108.32978723407723,228.5466061629122 109.0,228.7115627663443 110.14893617038615,229.31640322814928 111.10638297884725,229.9212430336629 111.48936170223169,230.03121383691905 111.92021276592277,230.2511553784134 112.97340425522998,230.5260821832344 113.5,230.4710968331783 113.45212765969336,230.4710968331783 113.45212765969336,230.4710968331783 113.30851063854061,230.5260821832344 113.40425531915389,230.4710968331783 113.45212765969336,230.4710968331783 113.5,230.5260821832344 113.21276595722884,230.4710968331783 112.59042553184554,230.4710968331783 110.48404255299829,230.5260821832344 109.04787234053947,230.08619923051447 107.65957446815446,229.81127220881172 106.27127659553662,229.70130136219086 104.88297872338444,229.75628678809153 104.16489361715503,229.81127220881172 102.77659574477002,229.9212430336629 102.15425531892106,229.9212430336629 100.0,229.75628678809153 99.32978723407723,229.59133049368393 98.0372340423055,229.26141775865108 97.36702127661556,228.93150482838973 96.07446808507666,228.4916206173948 95.40425531915389,228.27167838194873 92.67553191492334,227.72182241349947 90.90425531915389,227.00700884399703 90.76063829776831,226.6770945797325 91.33510638284497,226.5671231148881 91.57446808507666,226.5671231148881 91.76595744676888,226.34718012035592 91.57446808507666,226.29219435801497 91.09574468061328,226.18222281726776 90.85638297861442,226.1272370388615 90.71276595746167,226.0722512549255 90.42553191492334,226.0722512549255 90.23404255323112,225.96227967075538 89.99468085099943,225.96227967075538 89.75531914876774,225.96227967075538 89.42021276592277,225.8523080649902 89.18085106369108,225.7423364375718 89.03723404253833,225.6873506156844 88.55851063830778,225.4124214250478 88.4148936169222,225.30244971072534 88.17553191492334,225.1374920986127 88.03191489353776,225.02752033027355 87.88829787238501,224.86256263690302 87.69680851045996,224.64261896983953 87.36170212761499,224.3676892640069 87.07446808507666,224.20273137534969 86.93085106369108,224.09275942249224 86.69148936169222,223.81782944552833 86.59574468061328,223.32295514538419 86.59574468061328,222.88306650985032 86.54787234053947,222.6081359362579 86.5,222.38819137983955 86.64361702115275,221.94830200687284 86.59574468061328,221.34345355216647 86.59574468061328,221.06852221954614 86.54787234053947,220.90356335480465 86.64361702115275,220.73860444140155 86.59574468061328,220.68361812614603 86.64361702115275,220.29871376691153 86.69148936169222,220.02378191897878 86.93085106369108,219.96879553317558 87.40957446815446,219.80383634311147 87.64893617015332,219.69386352261063 87.79255319130607,219.63887710432755 88.07978723407723,219.52890425140504 88.12765957438387,219.52890425140504 88.12765957438387,219.4739178167074 88.17553191492334,219.4739178167074" stroke="#4dd2ff" stroke-linecap="round" stroke-linejoin="round" stroke-width="0.5"><title>2021-03-02 1.4km</title></polyline><polyline fill="none" points="128.96046511642635,225.39670685463352 129.27441860502586,225.54094889492262 132.7279069768265,226.1900377253187 134.92558139562607,226.98336773522897 135.7418604651466,227.3439720008755 137.93953488394618,227.92093845579075 138.7558139534667,227.92093845579075 141.07906976761296,227.77669688494643 141.832558139693,227.56033447483787 144.1558139536064,227.41609283257276 145.60000000009313,227.92093845579075 146.35348837217316,228.20942151272902 147.67209302354604,228.71426658827113 148.92790697677992,228.93062865681713 150.49767441884615,228.78638728504302 150.74883720930666,228.64214588463074 151.0,228.78638728504302 150.9372093025595,229.79607629112434 149.80697674443945,230.08455860830145 148.8651162791066,230.8778843934997 148.4255813951604,231.02212535316357 147.9860465116799,231.16636628413107 147.73488372098655,231.16636628413107 147.35813953494653,231.2384867388173 147.10697674448602,231.38272762706038 146.2279069768265,231.74332972348202 146.35348837217316,232.10393164196284 146.7930232558865,232.39241304877214 146.7930232558865,232.4645333828521 146.7930232558865,232.53665370953968 146.85581395355985,232.4645333828521 146.54186046519317,232.39241304877214 146.16511627915315,232.53665370953968 146.0395348840393,232.60877402912593 145.91395348822698,232.68089434184367 145.85116279078647,232.75301464722725 145.85116279078647,232.75301464722725 145.60000000009313,232.39241304877214 145.47441860474646,232.24817235959927 145.28604651149362,232.03181127260905 145.22325581405312,231.8875705123064 144.5953488375526,231.74332972348202 144.34418604662642,231.74332972348202 144.03023255825974,231.74332972348202 143.7162790701259,231.67120931850513 143.33953488408588,231.67120931850513 143.02558139548637,231.67120931850513 142.397674418753,231.52696848718915 142.0837209301535,231.45484806067543 141.7697674422525,231.38272762706038 141.45581395342015,231.3106071865186 140.82790697691962,231.16636628413107 140.57674418599345,231.02212535316357 140.2627906978596,230.9500048768823 139.94883720949292,230.80576390313217 139.6348837208934,230.6615229010349 139.3837209304329,230.44516134465812 138.81860465137288,230.15667916968232 138.25348837208003,229.86819688096875 137.81395348883234,229.43547323450912 137.5,229.2912319623283 137.18604651163332,229.14699066145113 136.87209302349947,229.0027493322268 136.55813953466713,228.85850797448074 136.3697674421128,228.78638728504302 135.8674418607261,228.57002517359797 135.61627907003276,228.4979044556967 135.3651162791066,228.42578373057768 135.11395348841324,228.28154225915205 134.8000000002794,228.20942151272902 134.4860465116799,228.13730075926287 133.7953488372732,228.06517999846255 133.54418604681268,227.99305923079373 133.23023255821317,227.92093845579075 132.85348837217316,227.92093845579075 132.60232558147982,227.84881767391926 131.97441860474646,227.77669688494643 131.66046511637978,227.63245528534753 131.09534883731976,227.19973031594418 130.4674418605864,226.98336773522897 130.21627906989306,226.9112468608073 129.90232558175921,226.8391259793425 129.52558139548637,226.76700509065995 129.27441860502586,226.69488419493428 128.96046511642635,226.55064238182968 128.39534883736633,226.2621586708119 128.08139534899965,226.1179167724913 127.83023255807348,225.97367484582355 127.20232558157295,225.6130699045607 127.01395348855294,225.46882787835784 126.76279069762677,225.32458582380787 126.19767441879958,224.96398056240287 125.94651162810624,224.7476173203322 125.63255813973956,224.3148906439892 125.19302325602621,223.81004253140418 124.43953488371335,223.23307283304166 124.43953488371335,223.01670907909283 124.31395348859951,222.65610267966986 124.18837209348567,222.36761743220268 124.0,221.43003959202906 124.18837209348567,221.06943241041154 124.25116279069334,220.7088250509696 124.31395348859951,220.42033903533593 124.37674418650568,220.20397444895934 124.37674418650568,219.84336666268064 124.37674418650568,218.9057855863357 124.37674418650568,218.25669029093115 125.06744186067954,217.96820330794435 125.56976744206622,217.67971621121978 126.0093023260124,217.53547262010397 126.32325581437908,217.46335081395227 126.44883720949292,217.31910718022846 127.32790697691962,217.24698535277275" stroke="#4dd2ff" stroke-linecap="round" stroke-linejoin="round" stroke-width="0.5"><title>2020-12-25 1.0km</title></polyline><polyline fill="none" points="161.90601503755897,221.8813230539672 162.2105263157282,222.17278965492733 162.46428571431898,222.46425611217273 163.02255639084615,222.814015671378 165.20488721807487,223.3969478099607 166.37218045117334,223.7467068171827 167.13345864671282,223.92158624331933 170.68609022558667,225.32061978871934 171.7011278194841,226.02013531984994 172.86842105258256,226.54477142472751 174.59398496244103,227.18599269870901 175.25375939835794,227.30257831001654 176.47180451150052,227.30257831001654 177.1823308269959,227.30257831001654 178.4003759396728,227.06940706435125 179.51691729342565,226.95282140676863 180.78571428591385,227.01111423841212 181.49624060164206,226.95282140676863 183.47556390985847,227.30257831001654 184.13533834577538,227.53574946388835 185.4041353382636,227.76892052585026 186.11466165445745,227.7106277688872 187.38345864671282,227.65233500633622 187.94172932347283,227.59404223808087 188.5,227.82721327705076 188.4492481201887,227.88550602231408 188.29699248145334,227.94379876181483 188.24624060164206,228.00209149578586 188.24624060164206,228.0603842238197 188.19548872183077,228.00209149578586 188.09398496244103,228.118676946091 188.09398496244103,228.00209149578586 188.14473684248514,228.0603842238197 188.19548872183077,228.118676946091 188.14473684248514,228.0603842238197 188.24624060164206,227.94379876181483 188.19548872183077,227.94379876181483 188.14473684248514,227.94379876181483 188.14473684248514,228.00209149578586 188.14473684248514,227.94379876181483 188.14473684248514,227.94379876181483 188.14473684248514,227.94379876181483 188.14473684248514,228.00209149578586 188.09398496244103,228.00209149578586 188.09398496244103,228.00209149578586 188.04323308262974,228.00209149578586 187.99248120328411,228.00209149578586 188.09398496244103,228.00209149578586 188.09398496244103,228.00209149578586 188.09398496244103,228.00209149578586 188.04323308262974,228.00209149578586 188.04323308262974,228.0603842238197 187.94172932347283,228.00209149578586 186.77443609037437,228.00209149578586 185.45488721807487,228.00209149578586 184.13533834577538,227.7106277688872 183.52631578966975,227.53574946388835 182.25751879694872,227.18599269870901 181.5977443610318,227.06940706435125 180.22744360892102,227.06940706435125 179.5676691730041,227.01111423841212 178.19736842112616,227.127699884295 176.77631578943692,227.30257831001654 176.11654135352,227.30257831001654 174.74624060164206,227.24428550724406 174.03571428568102,227.06940706435125 170.83834586455487,226.02013531984994 170.17857142863795,225.78696356801083 168.3007518798113,225.32061978871934 167.79323308262974,225.26232679048553 165.76315789483488,224.91256868001074 164.59586466150358,224.38793112634448 163.93609022558667,224.0381724986364 162.66729323309846,223.3386546219699 161.5,222.93060214509023" stroke="#4dd2ff" stroke-linecap="round" stroke-linejoin="round" stroke-width="0.5"><title>2020-12-08 1.1km</title></polyline><polyline fill="none" points="11.5,252.21688039737637 11.759615384740755,252.26657923389575 13.490384615492076,253.6084459623671 14.052884615492076,253.80724072939483 16.259615384740755,254.45332318075816 17.298076923238114,254.75151480198838 17.817307692486793,254.95030911802314 19.028846153989434,255.39759604274877 20.110576923238114,255.94427952257684 20.673076923238114,256.29216870098026 23.442307692253962,257.2364381174557 24.048076923470944,257.2861364587152 25.778846153989434,257.0873430640495 26.298076923238114,257.0376447030285 29.024038461735472,257.0873430640495 29.58653846150264,257.13704142006463 31.274038461735472,257.6340247109474 33.00480769248679,257.7831196025945 33.52403846173547,257.73342131017125 34.6490384619683,257.7831196025945 36.37980769225396,257.53462809184566 36.89903846173547,257.4849297750625 37.98076923098415,257.3855331266823 38.5,257.33583479523077 38.283653846243396,256.9382479664928 37.072115384740755,256.88854959077435 36.552884615492076,256.9382479664928 35.47115384647623,257.2364381174557 35.08173076948151,257.33583479523077 33.95673076948151,257.5843264038558 33.4375,257.6340247109474 32.35576923098415,257.6340247109474 31.79326923098415,257.53462809184566 30.71153846150264,257.33583479523077 30.192307692719623,257.1867397711321 28.504807692486793,256.88854959077435 27.942307692486793,256.88854959077435 26.817307692486793,256.9382479664928 26.21153846150264,256.9382479664928 25.086538461735472,257.0376447030285 23.961538461735472,257.0873430640495 22.879807692486793,257.0376447030285 21.841346153989434,256.78915282484377 21.322115384740755,256.64005763921887 20.197115384973586,256.29216870098026 19.677884615492076,256.09337491414044 18.639423076994717,255.74548559851246 17.254807692253962,255.34789751510834 16.865384615492076,255.29819898269488 15.826923076994717,255.04970624673297 14.399038461735472,254.6024190133612 14.009615384740755,254.3042273040046 13.100961538497359,253.80724072939483 12.62500000023283,253.55874725829926" stroke="#4dd2ff" stroke-linecap="round" stroke-linejoin="round" stroke-width="0.5"><title>2020-12-03 1.3km</title></polyline><polyline fill="none" points="75.71478873235174,255.7097914389451 75.95246478868648,256.5833735263441 76.0,256.85636764595984 75.19190140860155,257.3477567220689 73.81338028167374,257.29315795737784 71.91197183099575,256.96556525613414 70.10563380271196,256.2011815327569 69.48767605633475,256.09198377176654 65.97007042262703,254.72700994316256 64.68661971832626,254.50861381803406 62.73767605633475,254.56321285746526 61.40669014072046,254.50861381803406 60.45598591561429,254.50861381803406 59.88556338031776,254.50861381803406 58.602112676016986,254.3994157234556 58.174295774661005,254.3448166680755 56.700704225338995,254.23561854078434 56.130281690042466,254.18101946933893 54.133802816970274,254.0172222222318 53.51584507036023,253.90802403050475 52.2799295776058,253.79882581724087 50.66373239457607,253.08903690631269 50.04577464796603,252.870640135312 49.0,252.65224327798933 50.188380281673744,252.92523933615303 51.23415492963977,253.41663190134568 52.2799295776058,253.90802403050475 52.897887323983014,253.9626231289585 54.466549295932055,254.12642039224738 54.94190140836872,254.18101946933893 56.17781690158881,254.29021760710748 56.7957746477332,254.3448166680755 58.0792253522668,254.3448166680755 58.64964788756333,254.3994157234556 59.93309859163128,254.50861381803406 60.50352112669498,254.50861381803406 62.26232394366525,254.56321285746526 62.83274647896178,254.56321285746526 63.688380281673744,254.4540147734224 63.97359154932201,254.4540147734224 64.16373239434324,254.4540147734224 64.35387323936448,254.4540147734224 64.54401408438571,254.4540147734224 64.78169014095329,254.3994157234556 65.0193661970552,254.3994157234556 65.4947183097247,254.4540147734224 65.68485915497877,254.4540147734224 66.11267605656758,254.61781189130852 66.54049295769073,254.83620797318872 66.49295774661005,254.94540598179447 66.49295774661005,255.00000497797737 66.4454225350637,255.00000497797737" stroke="#4dd2ff" stroke-linecap="round" stroke-linejoin="round" stroke-width="0.5"><title>2020-11-30 1.0km</title></polyline></svg>