<?xml version="1.0" encoding="utf-8" ?>
<svg baseProfile="full" height="300mm" version="1.1" viewBox="0,0,200,300" width="200mm" xmlns="http://www.w3.org/2000/svg" xmlns:ev="http://www.w3.org/2001/xml-events" xmlns:xlink="http://www.w3.org/1999/xlink"><defs /><rect fill="#222222" height="300" width="200" x="0" y="0" /><text fill="#FFFFFF" style="font-size:12px; font-family:Arial; font-weight:bold;" x="10" y="20">Over 3km Runs</text><text fill="#FFFFFF" style="font-size:4px; font-family:Arial" x="10" y="280">ATHLETE</text><text fill="#FFFFFF" style="font-size:9px; font-family:Arial" x="10" y="290">jdzj</text><text fill="#FFFFFF" style="font-size:4px; font-family:Arial" x="120" y="280">STATISTICS</text><text fill="#FFFFFF" style="font-size:3px; font-family:Arial" x="120" y="285">Number: 56</text><text fill="#FFFFFF" style="font-size:3px; font-family:Arial" x="120" y="290">Weekly: 3.3</text><text fill="#FFFFFF" style="font-size:3px; font-family:Arial" x="141" y="285">Total: 105.1 km</text><text fill="#FFFFFF" style="font-size:3px; font-family:Arial" x="141" y="290">Avg: 1.9 km</text><text fill="#FFFFFF" style="font-size:3px; font-family:Arial" x="167" y="285">Min: 1.0 km</text><text fill="#FFFFFF" style="font-size:3px; font-family:Arial" x="167" y="290">Max: 5.9 km</text><polyline fill="none" points="34.42857142863795,40.081922591954935 26.085061757359654,37.17648277845001 17.439524586312473,36.61273850098951 14.041715217987075,34.704675582877826 14.230482405051589,33.14352703597979 13.852948030689731,33.27362295993953 11.285714285681024,48.62467172124889 11.814262409694493,50.14240166492527 13.060125844785944,51.22649127457407 12.493824283359572,52.570758678310085" stroke="#4dd2ff" stroke-linecap="round" stroke-linejoin="round" stroke-width="0.5"><title>2021-06-08 1.1km</title></polyline><polyline fill="none" points="59.491382612031884,43.92615307710366 51.95289161230903,41.03983765779412 48.0130218307022,41.78814386960585 45.407123707351275,41.574342252948554 44.941784756607376,42.00194535974879 40.93986978160683,40.71913452123408 37.0,41.28927323399694 40.44350823422428,40.57659970244276 44.81769436993636,42.00194535974879 51.23937188810669,42.28701381635619 56.109919570968486,44.03305320534855 60.11183454620186,45.137686011818005 60.14285714284051,44.7813532174041" stroke="#4dd2ff" stroke-linecap="round" stroke-linejoin="round" stroke-width="0.5"><title>2021-06-07 1.5km</title></polyline><polyline fill="none" points="77.94174429145642,52.95356307155453 77.76448223064654,47.91815803234931 76.346385743469,47.053487589990254 72.4909359193407,41.967161615611985 69.74337397539057,42.526659920753445 74.30787204345688,37.44028943806188 77.94174429145642,31.285714285739232 70.80694634071551,41.76370753656374 72.31367385829799,41.7128440043889 73.42156173894182,42.628386820317246 77.72016671532765,47.81643217301462 77.76448223064654,52.851838202390354 78.82805459620431,54.428571428579744 77.8531132612843,53.86908599513117" stroke="#4dd2ff" stroke-linecap="round" stroke-linejoin="round" stroke-width="0.5"><title>2021-06-04 1.3km</title></polyline><polyline fill="none" points="102.34677929297322,46.18905428718426 102.59769280225737,46.578999188161106 103.33567371207755,46.578999188161106 103.14379867550451,46.155145993107 103.54230836679926,45.96865025610896 103.09951982094208,46.03646691115864 103.18807753006695,45.426116052345606 102.73052936606109,45.22266528438195 102.71576974785421,45.47697870670527 103.18807753006695,45.985604422414326 103.20283714833204,46.66376970177225 102.5829331841087,46.612907398623065 102.12538502004463,46.03646691115864 102.21394272922771,46.324687396598165 101.66783685603878,46.4264121583692 100.98889441910433,45.22266528438195 100.22139427304501,44.42581412414438 97.60894185258076,42.57778338287608 97.31374948867597,41.0010074974125 97.62370147067122,39.4072623304819 99.0701440537814,37.01661686474108 100.42802892770851,35.91453505943355 101.81543303804938,34.286832079305896 101.87447151070228,32.96431205418776 101.34312525577843,31.930026479560183 100.88557709177257,31.624826267827302 100.39850969129475,32.09958191844635 100.26567312760744,31.67569300744799 100.47230778227095,31.658737429228495 100.19187503663125,31.607870684674708 100.38375007314608,31.641781849364634 100.23615389113547,31.980893128784373 100.30995198216988,31.70960415886657 100.02951923641376,31.913070926442742 100.25091350940056,31.760470873312443 100.05903847282752,31.70960415886657 100.11807694559684,31.913070926442742 99.5719710724079,32.32000373888877 100.19187503663125,31.980893128784373 99.95572114549577,32.13349298614776 100.04427885467885,31.794382007952663 99.85240381810581,32.21827062612283 99.85240381810581,31.913070926442742 100.39850969129475,31.57395951318904 100.66418281878578,31.946982030945946 100.54610587324714,32.065670844036504 100.95937518269056,32.09958191844635 100.48706740047783,32.32000373888877 99.88192305451958,31.50613715025247 100.54610587324714,31.607870684674708 100.56086549145402,31.285714285710128 99.586730690673,32.33695925184293 100.42802892770851,32.32000373888877 100.42802892770851,32.09958191844635 99.82288458169205,32.16740404716984 100.66418281878578,31.57395951318904 99.91144229087513,32.065670844036504 100.20663465477992,32.04871530435048 100.32471160031855,31.913070926442742 100.01475961826509,31.760470873312443 100.10331732744817,32.065670844036504 100.56086549145402,31.82829313588445 100.42802892770851,32.08262638204906 100.44278854585718,31.879159815231105 100.23615389113547,31.980893128784373 100.32471160031855,31.7435153034603 100.61990396422334,31.72655973196379 100.51658663689159,32.13349298614776 100.75274052796885,31.811337572769844 100.38375007314608,32.26913719002914 100.5756251096027,31.980893128784373 100.33947121858364,31.336581125695375 100.76750014623394,31.54004833503859 100.10331732744817,32.09958191844635 100.38375007314608,32.21827062612283 100.56086549145402,31.997848675207933 100.44278854585718,32.26913719002914 100.70846167340642,31.624826267827302 100.54610587324714,32.150448517510085 100.7232212916133,32.37087027268717 100.47230778227095,32.116537453155615 98.33216314413585,34.3037873981375 100.97413480089745,31.845248697311035 102.87812554801349,33.371242376902956 103.76370263966965,34.69375926986686 102.89288516616216,49.74938793576439 97.49086490698392,49.8850182354945 96.39865316060605,50.1732322670141 96.23629736038856,52.59760175392148 96.79716285184259,53.00448558939388 97.99269192561042,52.733229806108284 98.52403818059247,53.30964783394302 98.0812496347935,53.66566976776812 98.87826901732478,53.76739018484659 99.02586519921897,54.05559770631953 98.99634596286342,54.42857142856519 98.73067283531418,54.072551074874355 98.58307665336179,54.15731789266283" stroke="#4dd2ff" stroke-linecap="round" stroke-linejoin="round" stroke-width="0.5"><title>2021-06-02 5.9km</title></polyline><polyline fill="none" points="120.79950836009812,53.734581433120184 122.86766526091378,51.83944584077108 126.07447034306824,47.51528395267087 128.83975878357887,41.74962727291859 130.02488240099046,37.34522342411219 130.00164468295407,31.285714285739232 130.4663990426343,31.712820697342977 130.6987762224162,36.3575593860005 129.0721359634772,42.470341076754266 127.28283167839982,46.63442768872483 124.40135464805644,50.90521918589366 120.72979520610534,54.428571428579744" stroke="#4dd2ff" stroke-linecap="round" stroke-linejoin="round" stroke-width="0.5"><title>2021-06-01 2.2km</title></polyline><polyline fill="none" points="163.0,44.43895533683826 162.53499668790027,44.973070665466366 152.5910797084216,41.80945450355648 145.75910797086544,42.014884853881085 145.18679620232433,42.54900329062366 140.751379995374,40.987732089153724 139.85714285704307,41.02881824839278 139.89291234267876,41.48076573226717 140.715610510204,40.7412150487944 145.6875689998269,42.795519261126174 154.70147935533896,43.083121042494895" stroke="#4dd2ff" stroke-linecap="round" stroke-linejoin="round" stroke-width="0.5"><title>2021-05-31 1.1km</title></polyline><polyline fill="none" points="178.24320262111723,53.56745949247852 178.71143473964185,49.74625883484259 179.50742934131995,50.33827759488486 182.4104684756603,49.74625883484259 183.3937559244223,48.66985943901818 184.1429273141548,45.494468814635184 185.87538615241647,46.14031247689854 184.8452754917089,45.70975012064446 185.3603308221791,44.956265177519526 185.2666843982879,46.247953012702055 185.3603308221791,44.90244478441309 185.3135076102335,46.89379578043008 183.8151648310013,45.38682812976185 188.59113243967295,48.024018779513426 183.72151840734296,46.194132747419644 184.89209870365448,45.65592980233487 184.28339694975875,43.87985630542971 183.8151648310013,46.517054259136785 185.2666843982879,45.17154669621959 184.75162906805053,44.310420109832194 186.062678999966,46.247953012702055 186.67138075386174,45.97885163332103 184.93892191560008,46.786155372392386 183.34693271270953,46.03267191990744 185.641270093387,45.81739074160578 184.04928089049645,45.44064847496338 182.87870059418492,49.26187937025679 178.38367225672118,50.0153583510546 178.52414189232513,52.060510325129144 176.6512134182267,53.51363995129941 176.74485984188505,54.428571428579744 177.44720801967196,53.406000852701254 175.3869866982568,47.80873838928528 165.69458184577525,31.285714285739232" stroke="#4dd2ff" stroke-linecap="round" stroke-linejoin="round" stroke-width="0.5"><title>2021-05-30 1.4km</title></polyline><polyline fill="none" points="12.126097366213799,71.18613047368126 15.455307262483984,73.07957006403012 21.531923383823596,75.34425981075037 24.34397446119692,75.08437807281734 27.89944134070538,75.75264503652579 33.879090183530934,74.86162215462537 34.428571428521536,74.41610992289498 33.81444533111062,74.89874815018266 28.125698323943652,75.52988951376756 20.20670391060412,75.01012611482292 14.93814844370354,73.59933612859459 11.285714285681024,71.70589915278833" stroke="#4dd2ff" stroke-linecap="round" stroke-linejoin="round" stroke-width="0.5"><title>2021-05-27 1.4km</title></polyline><polyline fill="none" points="60.14285714295693,75.13369136030087 57.244968944229186,74.99500017295941 51.368695652112365,72.77593559364323 42.47378882020712,72.45232113142265 37.0,70.97293788724346 40.38086956553161,72.26739848125726 49.51726708072238,73.0995498324337 58.93540372676216,75.9658376229927 59.700124223483726,75.73468603150104" stroke="#4dd2ff" stroke-linecap="round" stroke-linejoin="round" stroke-width="0.5"><title>2021-05-25 1.1km</title></polyline><polyline fill="none" points="63.351510817185044,71.58966209867503 64.45217235840391,72.48794188565807 68.13069908809848,72.82063749598456 71.78026104066521,74.91661229595775 76.15394242794719,74.75026556529338 78.61594850709662,75.14949758091825 83.77167888428085,74.41757185818278 85.85714285715949,73.38621928053908 85.85714285715949,74.15141665603733 77.63114607543685,75.34911341153202 74.5029501162935,74.81680426746607 71.72233148582745,75.04968962134444 66.2190237797331,73.71891400494496 62.714285714318976,72.1552459471277" stroke="#4dd2ff" stroke-linecap="round" stroke-linejoin="round" stroke-width="0.5"><title>2021-05-24 1.6km</title></polyline><polyline fill="none" points="97.44352159462869,72.8705172369082 102.82558139518369,73.02506561815972 102.82558139518369,73.68189555866411 106.25664451823104,75.22737342742039 111.57142857136205,74.7250937888457 106.15573089697864,75.26601029597805 102.32101328892168,74.60918301157653 98.31810631218832,74.80236762130517 88.42857142852154,71.6727652142581" stroke="#4dd2ff" stroke-linecap="round" stroke-linejoin="round" stroke-width="0.5"><title>2021-05-21 1.1km</title></polyline><polyline fill="none" points="128.01646069146227,85.04081632653833 128.84151761978865,84.24597802848439 128.57537022361066,83.45113769199816 129.00120605749544,79.7520462317625 130.5980904349126,79.2017643909785 130.9440820501186,78.37633979774546 132.86034330306575,78.83490928763058 136.79932476731483,78.28462581839995 136.6662510690512,76.51148354884936 135.33551408792846,73.63774867108441 132.67404012556653,69.9079679227143 130.7577788727358,68.10420539131155 127.69708381604869,66.30043236067286 123.35888125747442,65.68898149306187 121.76199688017368,65.0469567834225 119.41989979334176,65.38325560672092 116.49227843468543,63.64061229530489 115.93336890265346,61.89795918369782 114.62924666120671,62.356553057878045 114.70909088011831,63.33488438805216" stroke="#4dd2ff" stroke-linecap="round" stroke-linejoin="round" stroke-width="0.5"><title>2021-05-20 1.7km</title></polyline><polyline fill="none" points="139.96840659342706,71.4884617428761 139.85714285704307,69.12409747415222 144.8083791208919,68.22947090613889 162.61057692300528,68.61288244376192 163.0,77.30348309956025 161.94299450539984,78.07029520737706 152.93063186807558,77.30348309956025 151.81799450539984,78.07029520737706 144.97527472535148,78.70930460409727 141.02541208802722,78.13419617549516 140.1353021976538,77.36738414311549 140.1353021976538,70.72164184448775" stroke="#4dd2ff" stroke-linecap="round" stroke-linejoin="round" stroke-width="0.5"><title>2021-05-18 1.1km</title></polyline><polyline fill="none" points="165.57142857147846,74.25678805023199 166.47176960960496,75.1029133641714 170.87116331944708,76.95967782879598 173.6335733232554,76.88916805008193 175.4956422887044,77.31222640939814 178.7082228116924,76.93617457155779 182.2482000758173,75.90202895767288 183.2508525956655,75.2909408036794 184.86737400537822,74.16277394100325 188.71428571431898,70.37867525347974 188.10041682457086,69.62654910079436 186.58620689657982,70.80174517103296 177.72603258816525,71.76540162386664 176.43690791958943,71.41284483709023 169.45926487306133,71.20131051464705 169.0909435391659,71.7889053910767 169.17279272456653,71.55386761440604 168.76354679802898,71.71839408244705 168.33383857517038,72.61153578394442 167.6995073891012,72.8700761780492 165.85790071997326,72.4940173302166 165.5918908676831,72.00043919189193" stroke="#4dd2ff" stroke-linecap="round" stroke-linejoin="round" stroke-width="0.5"><title>2021-05-10 2.5km</title></polyline><polyline fill="none" points="34.428571428521536,111.47207980918756 34.31333728507161,110.81026961118914 33.52590397151653,109.99403433669067 32.27753408416174,110.61172616992553 31.64374629512895,110.41318255240913 31.605334914056584,109.79549017081445 32.027860106667504,109.08955393152428 31.874214582145214,107.12615704938071 31.4132780082291,106.4643339914328 28.974155305302702,107.21439997584093 27.341671606292948,107.03791408819961 27.28405453474261,106.53051638533361 23.058802608167753,106.59669875973486 20.85014819202479,106.24372587018297 17.3163011262659,106.88348882224818 14.80035566096194,106.94967109213758 12.802963841124438,106.50845558955916 11.285714285681024,103.88320535162347 13.494368701823987,102.29480368940858 14.473858921090141,101.21380166207382 16.490456431522034,100.17691725659824 16.74013040889986,99.42682766850339 18.871962062781677,98.47818135097623 20.926970954285935,97.06623519353161 20.10112625954207,97.99282586495974 17.815649081254378,98.98559732372814 15.66461173677817,97.08829692078871 14.301007705973461,96.69118549693667" stroke="#4dd2ff" stroke-linecap="round" stroke-linejoin="round" stroke-width="0.5"><title>2021-05-08 2.6km</title></polyline><polyline fill="none" points="60.1428571427241,100.07900590478675 59.99134907638654,101.68876963650109 55.44610708439723,101.9498118502961 54.764320785645396,103.2115137054061 47.75707271439023,101.60175553103909 44.120879120891914,101.90630482547567 42.795183539856225,102.645923664968 37.64390928228386,101.5147414082021 37.0,102.55890974818612 42.3785363570787,104.47321195184486 50.18120177695528,105.25633318611654 59.99134907638654,108.08425940133748" stroke="#4dd2ff" stroke-linecap="round" stroke-linejoin="round" stroke-width="0.5"><title>2021-05-08 1.3km</title></polyline><polyline fill="none" points="85.8571428572759,103.69382947200211 85.27396741206758,104.01112848325283 81.83630162954796,102.74193074830691 81.28381962887943,103.23550818077638 77.78476695728023,101.8957964212168 75.51345206529368,102.95346401704592 70.57180750288535,103.27076368543203 67.41038272087462,102.24835263428395 64.21826449420769,102.81244185176911 63.11330049263779,102.63616406693473 62.714285714318976,102.07207457127515 67.8400909435004,102.28360823649564 70.84804850339424,103.62331854231888 75.75899962126277,103.48229664130486 85.67298219038639,106.26746888490743" stroke="#4dd2ff" stroke-linecap="round" stroke-linejoin="round" stroke-width="0.5"><title>2021-05-07 1.5km</title></polyline><polyline fill="none" points="88.5353846156504,108.5260594766587 88.42857142863795,107.9116287502402 90.13758241781034,107.33815924645751 90.84967032982968,105.61774595276802 99.7863736266736,100.2926117167226 102.6347252749838,101.11186761155841 103.31120879133232,102.01304721678025 104.13010989036411,100.00587176912813 103.80967032979243,99.63720582946553 103.80967032979243,101.02994209525059 103.631648351904,100.57935146501404 102.95516483532265,102.13593519237475 103.84527472546324,101.11186761155841 102.99076923099346,102.01304721678025 103.45362637354992,100.49742584300111 103.13318681321107,102.09497253788868 103.91648351657204,101.39860679046251 105.37626373651437,101.64438307075761 107.54813186824322,100.86609101397335 109.54197802208364,100.94801656267373 111.57142857159488,102.13593519237475 110.25406593410298,101.23475585540291 108.65186813194305,101.02994209525059 104.91340659349225,101.93112187949009 103.06197802210227,100.74320266017457" stroke="#4dd2ff" stroke-linecap="round" stroke-linejoin="round" stroke-width="0.5"><title>2021-05-06 1.2km</title></polyline><polyline fill="none" points="119.91763435071334,106.19259069956024 120.92384553095326,104.03148683792097 128.09856872819364,98.7040753570327 131.11720226844773,95.4874980446184 135.09829867701046,93.37660814111587 136.62948960321955,94.83412829518784 137.28571428568102,109.66038935855613 136.45449635433033,105.2376854729373 124.42371050524525,111.82146933305194 121.27383202826604,108.806006373954 115.36780988401733,112.02249956218293 114.14285714295693,114.08305483486038 115.41155819618143,114.78665716500836 119.17391304369085,111.2686357939092 120.57385903340764,108.05213784435182 119.78638941422105,106.89620393124642" stroke="#4dd2ff" stroke-linecap="round" stroke-linejoin="round" stroke-width="0.5"><title>2021-05-06 1.8km</title></polyline><polyline fill="none" points="153.8757926147664,100.50207116513047 155.96046251396183,99.87345270771766 156.17195076472126,99.20990976048051 153.75494218582753,98.23205467071966 154.0570682581747,98.30190155486343 153.6945169713581,98.68605916414526 155.47706079832278,99.38452644922654 157.04811637464445,99.14006306027295 156.53450205153786,101.4100735822285 158.10555762785953,100.5369943791884 158.04513241327368,101.20053477500915 158.67959716531914,101.16561162803555 161.03618052974343,103.05145650485065 162.75829914200585,103.4356088276254 162.78851174935699,104.41344917411334 162.24468481901567,105.1817503600032 163.0,108.6740069227526 162.36553524807096,109.93121063540457 145.56732562487014,107.940635975654 140.88437150313985,108.56923974002711 139.8571428571595,109.33753167508985 140.5822454309091,108.60416213789722" stroke="#4dd2ff" stroke-linecap="round" stroke-linejoin="round" stroke-width="0.5"><title>2021-05-02 1.6km</title></polyline><polyline fill="none" points="172.6607594937086,98.55993319291156 174.3012658227235,99.23745040339418 176.293309222674,97.54365608934313 184.20289330929518,96.2563695400022 187.71826401446015,97.67915979237296 188.71428571431898,100.05047015001765 187.48390596779063,106.8255962508265 177.52368896920234,110.34863468731055 166.2745027123019,111.90689576609293 165.57142857136205,110.75513792759739 170.43435804685578,96.79838523134822" stroke="#4dd2ff" stroke-linecap="round" stroke-linejoin="round" stroke-width="0.5"><title>2021-05-01 1.0km</title></polyline><polyline fill="none" points="22.325354701140895,133.74368752364535 20.92336774454452,135.9797116878908 18.844559498596936,131.67535710328957 18.941248254152015,130.11012892791769 20.633301477646455,127.48277165042236 23.29224225739017,126.36474348185584 30.15714390692301,126.47654640051769 34.16972726560198,123.1224489795859 29.093567595118657,126.70015217014588 17.152506275102496,125.07900828681886 16.137274340959266,125.58212241553701 14.15515485056676,129.8306234293268 13.478333560982719,140.2281326332013 12.656479138415307,142.91132900631055 11.6895915819332,143.30262738710735 11.544558448716998,146.2653061224264 12.318068493623286,145.87400984286796 12.656479138415307,144.02932364383014 13.961777339223772,129.49521664413624 15.702174940612167,127.7622783384868 16.4273406076245,128.20948874490568" stroke="#4dd2ff" stroke-linecap="round" stroke-linejoin="round" stroke-width="0.5"><title>2021-05-01 1.8km</title></polyline><polyline fill="none" points="56.587014663848095,132.5915578846325 55.78022687451448,132.72885465057334 54.46546158817364,133.67276698329078 52.8668265240849,133.6041189863463 52.582956746278796,133.9473587002576 52.62777829018887,133.62128098813992 51.552061237744056,133.98168263441767 49.012173752707895,133.65560498657578 47.518122290901374,133.82722487743013 47.06990685244091,133.58695698289375 45.441390759078786,133.89587278632098 41.76602416305104,133.98168263441767 38.1055980817182,133.6041189863463 37.0,134.54802657003165 37.07470257306704,134.87410254513088 41.37757078296272,135.71503250248497 41.84072673617629,135.57773809321225 42.69233606941998,136.02394452718727 44.96329429128673,136.0582680516236 46.38264317990979,136.6074435216724 46.99520427925745,136.41866464939085 48.60877985798288,136.79622218919394 49.012173752707895,137.10513229413482 50.01318823208567,137.2252638534701 50.28211749519687,137.0193239866785 51.01420271146344,137.3625569626165 51.92557410307927,137.20810220725252 53.44950659410097,137.6543044597056 53.58397122571478,137.24242549805786 53.91266254731454,137.20810220725252 54.52522364654578,137.5341731966182 54.73439085128484,137.03648565155163 55.63082172832219,136.55595839505258 56.706538780767005,135.4747672151425 57.90177995018894,135.0113975096756 58.52928156417329,134.2562738637498 59.57511758740293,133.93019673066738 60.14285714289872,133.14074429833272 59.84404685051413,132.2311533584143 59.38089089735877,131.7334506423358 58.439638476469554,132.334126156391 57.00534907315159,132.24831549565715 56.91570598544786,132.79750299293664 54.89873651205562,133.7929009128129 55.31707092135912,134.18762609704572 55.600940699048806,133.99884459891473 56.5720741492114,134.73680747224716 57.37886193866143,134.61667419456353 57.43862399709178,134.41073123981187" stroke="#4dd2ff" stroke-linecap="round" stroke-linejoin="round" stroke-width="0.5"><title>2021-04-30 3.7km</title></polyline><polyline fill="none" points="85.67433987814002,133.18207793604233 84.21191604598425,135.28180995536968 83.40758293843828,135.40779354731785 75.43737305351533,133.22407267795643 68.34461746783927,133.18207793604233 69.29519295878708,133.9799773231789 62.714285714318976,132.0062234820798 67.97901150980033,133.85399330873042 76.38794854446314,134.65189143677708 85.0528097494971,137.3815316199616 85.8571428572759,137.21355426774244 84.76032498315908,136.83560498329462" stroke="#4dd2ff" stroke-linecap="round" stroke-linejoin="round" stroke-width="0.5"><title>2021-04-29 1.4km</title></polyline><polyline fill="none" points="97.32204081630334,134.1243484695442 99.20653061231133,132.64313914757804 98.54530612251256,131.46576356879086 99.70244897936936,131.085964226746 107.60408163245302,123.52787937526591 108.52979591826443,123.41393726191018 111.57142857136205,126.90814672643319 107.70326530584134,129.41484266886255 108.13306122436188,129.4528227846895 105.71959183644503,132.07344173663296 106.74448979576118,131.69364299421431 106.97591836727224,130.8201044642483 105.81877551006619,131.76960277263424 100.29755102028139,138.45400457267533 96.56163265311625,140.6567933706101 94.01591836719308,142.89754835132044 93.8506122448016,144.34073956811335 91.76775510201696,145.97381784016034 90.0485714286333,145.10031171928858 88.42857142852154,142.7836119722342 88.56081632652786,140.54285632824758 90.84204081632197,139.47944230568828 91.66857142851222,138.18814989970997 93.94979591830634,137.20068807801 94.37959183671046,136.21322372282157 95.50367346929852,135.56757258228026 95.8342857141979,134.42818557462306 96.69387755100615,133.78253143964685 97.65265306108631,134.01040949337767 97.85102040809579,133.2887951938901" stroke="#4dd2ff" stroke-linecap="round" stroke-linejoin="round" stroke-width="0.5"><title>2021-04-26 2.2km</title></polyline><polyline fill="none" points="127.79684201593045,142.17628727047122 128.42791968327947,141.30627591727534 129.15996977698524,132.17100115766516 131.63379423250444,123.122448979615 129.36191463063005,132.0259945061407 127.56965405563824,132.8670320887759 124.96961406688206,132.69302451057592 122.26860165130347,133.0990420326707 120.85498767683748,133.96907769041718 119.87050651584286,135.36112938344013 119.79477719590068,143.8873020829633 120.93071699689608,145.97530666025705 121.68801019736566,146.2653061224555 122.19287233112846,146.0043066193466 124.91912785358727,143.71330103176297 125.85312280093785,144.35130438255146 126.76187464175746,143.68430084650754 126.93857638852205,142.93029502604622" stroke="#4dd2ff" stroke-linecap="round" stroke-linejoin="round" stroke-width="0.5"><title>2021-04-25 2.2km</title></polyline><polyline fill="none" points="152.32281897112262,146.2653061224555 151.64036689931527,141.182696661097 152.01689218031242,138.28989277797518 151.64036689931527,132.9097370125819 151.9933593502501,123.5280065353436 151.71096538950223,123.1224489795859 151.12264463782776,123.5280065353436 150.5343238861533,133.09899051635875 150.76965218689293,142.50742842705222 151.71096538950223,142.7777810615662 151.7815638795728,142.5344637025555 151.89922803011723,137.91139281334472 151.5933012390742,141.50712135943468" stroke="#4dd2ff" stroke-linecap="round" stroke-linejoin="round" stroke-width="0.5"><title>2021-04-18 2.2km</title></polyline><polyline fill="none" points="188.71428571431898,137.9881322129513 184.5697912402684,137.56921300149406 172.03683995106257,133.79891964659328 166.49979533359874,133.26574387782603 165.57142857147846,132.65639924042625 172.16946377407294,132.58023109324859 173.62832582904957,131.3996228891192 176.4797380269738,132.6944833084999" stroke="#4dd2ff" stroke-linecap="round" stroke-linejoin="round" stroke-width="0.5"><title>2021-04-16 1.0km</title></polyline><polyline fill="none" points="34.428571428579744,167.16221854952164 33.750747160753235,167.34295843580912 33.47235505079152,166.7729318534257 32.98819485952845,166.5782881022169 32.370890615624376,166.73122250076267 32.1530185295851,166.5504818300542 31.850418410031125,166.13338709009986 32.382994620420504,165.1879677768302 32.2014345486532,164.49280247144634 31.838314405293204,164.33986564420047 29.01808129111305,164.534512486498 26.60938433953561,164.32596228801413 25.435295875708107,164.60402915073792 24.939031679648906,164.40938240441028 24.140167364035733,164.49280247144634 23.946503287530504,164.32596228801413 22.372982665838208,164.50670581114537 21.81619844591478,164.3120589304599 21.174686192476656,164.49280247144634 20.533173939038534,164.22863875643816 19.17752540350193,164.47889913039398 18.063956963538658,164.03399149175675 17.14405260013882,164.14521853308543 16.62358039454557,163.50566184692434 15.679468021495268,163.56127558698063 14.820083682017867,163.29711012613552 14.469067543395795,163.46395152743207 13.984907352074515,162.99123371081077 13.270771069976036,163.24149628181476 12.229826658673119,162.89390925764746 11.624626419623382,163.21368935145438 12.048266587022226,162.90781275506015 12.145098625216633,163.38053085145657 11.285714285739232,163.33882049497333 12.01195457263384,163.0746546172013 11.660938434011769,163.15807547420263 12.036162582226098,163.13026852736948 11.733562462672126,163.25539974495769 11.927226539177354,163.46395152743207 11.721458457875997,163.29711012613552 12.01195457263384,163.19978588416416 11.927226539177354,163.04684765388083 11.685146443545818,163.13026852736948 11.769874477002304,163.33882049497333 12.145098625216633,163.18588241553516 11.963538553507533,163.11636505185743 11.939330543973483,163.31101358377782 12.036162582226098,163.0607511362614 11.903018529643305,163.31101358377782 11.987746563041583,163.11636505185743 12.048266587022226,163.26930320671818 11.866706515313126,162.76877771910222 11.97564255836187,163.13026852736948 11.915122534381226,162.89390925764746 11.939330543973483,163.13026852736948 11.69725044828374,162.94952323912003 11.781978481798433,162.82439174993488 11.866706515313126,162.94952323912003 11.685146443545818,163.0190406851034 11.927226539177354,163.14417200145544 11.733562462672126,163.0329441701906 11.963538553507533,162.82439174993488 11.794082486594561,163.11636505185743 11.600418410089333,163.11636505185743 11.794082486594561,162.75487420795253 11.612522414827254,162.8800057588669 11.903018529643305,163.13026852736948 11.69725044828374,163.00513719863375 11.733562462672126,163.13026852736948 11.794082486594561,163.0190406851034 11.85460251045879,163.60298587767466 11.733562462672126,164.90990206612332 12.907650926499628,165.1601612304512 13.004482964752242,165.38261344793136 14.05753138079308,165.28529064598843 14.662731619901024,165.50774266598455 19.492229527852032,165.71629111592483 24.261207411880605,166.3280314556614 26.548864315613173,166.41145038721152 27.565600717323832,166.63390062995313 28.739689181151334,167.23173391786986 30.5794979078928,167.02318771003047 30.773161984456237,167.3568614944088 31.027346084883902,167.24563698739803 32.75821876869304,167.6071163143497 33.06081888824701,167.85737069000606 33.60549910343252,167.732243557708 33.77495517034549,167.2178308469156 34.25911536166677,167.02318771003047" stroke="#4dd2ff" stroke-linecap="round" stroke-linejoin="round" stroke-width="0.5"><title>2021-04-09 4.9km</title></polyline><polyline fill="none" points="59.67568766651675,166.54444645610056 52.416592724155635,164.43930550984805 51.590062112081796,163.65503460689797 46.487133984221146,164.0678089496505 42.785714285913855,163.69631205956102 43.46850044373423,164.1090863615682 43.14507542154752,164.27419596828986 37.0,162.87076223426266 42.10292812786065,164.39802813058486 49.4338952973485,165.01718839272507 59.60381543939002,167.74148266366683 58.23824312351644,167.2048806491366 60.14285714295693,166.9572179489478 59.63975155283697,166.33806055696914" stroke="#4dd2ff" stroke-linecap="round" stroke-linejoin="round" stroke-width="0.5"><title>2021-04-09 1.4km</title></polyline><polyline fill="none" points="63.634740259847604,164.02232597852708 64.75243506510742,164.96630451653618 72.83928571443539,168.06253778442624 76.42248376633506,167.91150259616552 79.54545454564504,168.55340173462173 85.33116883144248,167.91150259616552 85.85714285715949,167.26960238156607 83.5231331171235,166.66546001998358 80.72889610403217,167.2318435118941 77.83603896119166,166.13683467151714 75.43628246767912,166.3256295226456 71.35998376633506,164.24888103984995 70.83400974038523,163.26714147208259 68.50000000011642,162.3609180979838 66.72483766253572,162.05884316333686 62.714285714318976,163.04058582964353" stroke="#4dd2ff" stroke-linecap="round" stroke-linejoin="round" stroke-width="0.5"><title>2021-04-08 1.4km</title></polyline><polyline fill="none" points="111.42115027830005,166.27276598566095 111.57142857136205,167.06678882639972 109.6178107606247,167.10131151782116 104.448237476754,165.34064991763444 96.63376623368822,164.960898215184 92.51614100171719,163.51093338013743 88.42857142852154,164.13234761639615 92.30575139133725,163.68354855643702 96.42337662330829,164.92637531278888 104.08756957331207,165.2716041842068" stroke="#4dd2ff" stroke-linecap="round" stroke-linejoin="round" stroke-width="0.5"><title>2021-04-06 1.3km</title></polyline><polyline fill="none" points="121.21043627033941,161.8310689163045 124.12061591097154,160.92219295614632 125.32164242956787,161.88453215907793 125.32164242956787,162.90033273992594 124.53635585983284,163.32803766039433 125.9221556885168,164.82500214187894 127.35414884495549,164.9853909407393 129.20188195025548,164.12998344836524 131.28058169363067,161.51028934505302 133.12831479893066,162.20531150198076 134.65269461087883,161.29643618880073 137.2395209579263,161.61721589043736 137.2395209579263,158.35594646906247 136.9623609923292,160.33409590931842 135.43798118061386,160.0667788524297 137.28571428568102,160.3875593044795 137.19332763040438,161.77760566794313 133.2207014542073,162.151848291629 131.28058169363067,161.45682606421178 128.13943541492335,165.41309416492004 128.87852865690365,164.77153919811826 125.41402908461168,164.71807624894427 124.72112917015329,163.54188999021426 125.73738237819634,163.54188999021426 125.6449957229197,163.00725900259567 124.44396920432337,160.86872961535119 123.93584260041825,161.61721589043736 122.91958939260803,161.51028934505302 121.62617621873505,164.2903724592761 117.33019674918614,166.53581347275758 115.94439692026936,169.10202003002632 115.75962360971607,167.12390358187258 115.39007698860951,169.63664481957676 115.06672369525768,168.46046956512146 115.39007698860951,169.26240752404556 115.11291702277958,168.56739469699096 117.00684345583431,169.52971990517108 118.53122326754965,171.82860077207442 120.51753635564819,171.66821406118106 121.07185628730804,170.54550571378786 119.87082976894453,170.0108818486915 120.93327630450949,170.0108818486915 120.42514970060438,170.65243042173097 119.96321642398834,170.22473146003904 120.51753635564819,170.86627977201715 120.65611633867957,170.3316562330583 120.88708297675475,171.56128955993336 120.10179640701972,172.25629842892522 117.56116338726133,172.04244964406826 115.20530367805623,169.26240752404556 115.6210436266847,166.85658997751307 115.89820359251462,168.78124489536276 114.14285714295693,169.7970321503235 114.65098374686204,168.94163248722907 114.32763045327738,170.0108818486915 115.6210436266847,169.10202003002632 115.80581693747081,166.74966449767817" stroke="#4dd2ff" stroke-linecap="round" stroke-linejoin="round" stroke-width="0.5"><title>2021-04-05 1.9km</title></polyline><polyline fill="none" points="158.05753830133472,171.39476034100517 157.15000116999727,171.8516646852804 157.50512439524755,171.30337936039723 158.13645457371604,171.30337936039723 158.2745580500923,170.91500977730902 157.56431159959175,175.1413484779623 156.04517335782293,176.23789901623968 155.9662570854416,176.8775510204141 155.90706988133024,176.23789901623968 157.62349880381953,175.20988304371713 158.19564177794382,172.9710763936455 158.59022313938476,169.40721560835664 157.603769735666,168.6990057561925 155.47303038369864,168.31063166164677 154.2103700269945,169.29298836419184 151.56667490513064,170.04688710032497 146.75278229499236,172.94823131257726 145.88470329972915,171.55467696741107 144.87852082808968,171.98873580696818 144.405023194151,171.80597429274349 141.64295366383158,159.94900268601486 141.48512111930177,157.77858352512703 142.8858849524986,164.12985615842626 143.3199244501302,164.3126239303674 148.39029494510032,162.0051698754687 152.29665042378474,160.7486255007534 154.74305486492813,159.37784178629227 158.17591270979028,156.6134024644416 160.2080067214556,153.73469387755904 161.3720217377413,154.3287161370681 161.23391826124862,154.5114919001935 160.76042062754277,154.35156311560422 161.03662758052815,154.12309322541114 161.03662758052815,154.4886449379701 161.1550019889837,153.87177607719786 160.48421367444098,154.07739921934262" stroke="#4dd2ff" stroke-linecap="round" stroke-linejoin="round" stroke-width="0.5"><title>2021-04-05 3.7km</title></polyline><polyline fill="none" points="171.41121495328844,156.9150337346946 175.0881174900569,159.83732816250995 178.116154873278,168.27017648128094 178.1882510012947,172.52831442392198 179.84646194940433,172.19434362085303 181.5046728970483,173.6972111632349 185.25367156229913,170.94195189577295 188.71428571408615,171.8603726812289 181.64886515354738,170.19051594124176 181.64886515354738,172.94577773666242 182.00934579456225,169.10510723444168 181.86515353806317,173.1127630022238 182.08144192257896,171.7768799252226 179.1975967953913,172.36132903950056 181.14419225649908,171.10893756971927 182.15353805059567,172.94577773666242 180.35113484645262,171.7768799252226 181.64886515354738,171.44290881545749 181.36048064101487,173.02927037357586 182.15353805059567,173.02927037357586 181.2162883845158,171.35941601661034 182.87449933215976,173.4467334310757 181.2162883845158,171.9438654287951 181.36048064101487,170.60798044555122 182.58611482009292,172.52831442392198 181.43257676903158,170.69147332076682 179.48598130838946,170.60798044555122 178.6208277703263,172.77879243716598 178.83711615484208,171.69338716065977 175.1602136180736,168.9381211520522 176.60213618166745,163.59454853407806 175.1602136180736,164.1790034872829 175.23230974655598,162.0081687020138 170.97863818425685,159.67034019046696 165.57142857136205,160.17130400479073 168.59946595458314,161.25672455102904 169.6088117491454,164.0955099479179" stroke="#4dd2ff" stroke-linecap="round" stroke-linejoin="round" stroke-width="0.5"><title>2021-04-04 1.4km</title></polyline><polyline fill="none" points="25.57222665590234,185.55870569846593 18.39664804446511,188.82631115458207 11.479648842709139,196.84673711884534 18.00877893064171,204.05019498144975 21.822825219482183,199.74298104288755 26.283320032060146,197.88641570747131 26.412609736900777,195.43574245122727 30.549880287144333,192.39095547009492 24.473264165921137,184.66753811138915 19.366320830071345,188.08367479691515 11.285714285681024,197.29231383273145 17.87948922580108,203.2333114737994 21.75818036706187,198.70330501935678 28.093375897733495,197.66362755931914 29.96807661629282,196.25263442337746 30.937749401433393,192.53948195005069 30.679169991984963,191.8711125588743 29.903431763872504,193.35637706605485 27.64086193125695,194.47032352292445 27.576217079069465,193.80195584666217 34.42857142863795,189.27189261751482 31.907422186806798,187.93514743744163 29.256983240135014,184.66753811138915 27.77015163586475,187.11824643611908 23.245011971332133,185.1873859987245 14.324022346176207,193.2078507472761 11.544293694896623,197.14378829079214 18.00877893064171,203.2333114737994 21.822825219482183,199.2231432106346 22.404628890566528,199.6687185174669 20.788507581688464,201.89659109385684 29.644852354191244,203.75314653589157 32.48922585812397,207.16919658251572 26.47725458885543,196.17837155336747 27.12370311259292,194.17327129555633 30.291300878161564,191.49979597429046 26.800478850724176,189.3461561689037 24.861133279977366,185.63296961638844 23.503591380780563,185.1131220368552 22.339984038146213,185.93002521485323 22.92178770969622,186.44987223000498" stroke="#4dd2ff" stroke-linecap="round" stroke-linejoin="round" stroke-width="0.5"><title>2021-04-02 3.1km</title></polyline><polyline fill="none" points="51.19756838912144,204.86207925653434 48.48936170223169,203.91942942142487 43.3806990882149,203.82516423334891 37.84118541039061,203.09460776486958 37.36930091190152,202.64684624462097 37.0,200.40802605591307 37.53343465051148,199.9838261824334 38.64133738609962,199.93669281658367 37.63601823721547,196.80230312292406 37.8822188450722,192.56020646888646 39.42097264446784,190.36842701672867 40.03647416422609,188.88366176889394 42.97036474163178,186.85682446944702 44.16033434658311,188.15305960833211 45.268237082171254,188.38873796873668 45.842705167247914,189.0722038991662 48.26367781159934,189.0722038991662 51.99772036483046,189.66139709725394 53.803191489423625,190.60410319159564 56.79863221885171,193.26722780901764 59.62993920966983,198.16918488770898 59.71200607903302,198.80548924850882 59.05547112459317,199.37109170207987 58.788753799395636,200.26662618173577 59.363221884472296,200.24305952791474 60.14285714295693,202.2462168046186 59.62993920966983,203.30670503427973 57.84498480241746,203.63663374568569 57.41413373860996,204.17865849683585 56.40881458960939,203.68376638149493 55.97796352591831,203.87229683203623 54.91109422489535,203.54236844605475 54.39817629172467,204.9799102244142 54.23404255323112,204.81494685310463" stroke="#4dd2ff" stroke-linecap="round" stroke-linejoin="round" stroke-width="0.5"><title>2021-04-02 3.2km</title></polyline><polyline fill="none" points="65.13906782888807,193.9617127176607 72.96589617291465,197.45196500775637 77.20159151195548,197.41671010441496 79.7798408488743,198.01604298700113 83.24820007593371,197.16992568437126 85.85714285715949,197.20518061183975 79.96400151576381,197.98078813948086 77.38575217896141,197.3814551977557 73.21144372876734,197.5929845860519 67.80939749919344,196.04176616520272 62.714285714318976,193.82069170687464" stroke="#4dd2ff" stroke-linecap="round" stroke-linejoin="round" stroke-width="0.5"><title>2021-04-01 1.4km</title></polyline><polyline fill="none" points="88.42857142863795,193.00344771050732 91.04208557400852,195.65733932115836 94.1101239186246,196.30993317306275 97.70844049588777,198.18069686440867 102.6324526539538,198.0936847756093 105.35959784896113,198.83328698333935 111.57142857159488,198.0936847756093 107.2155716624111,198.7462750232662 101.95066635496914,197.9631666102796 97.25391629664227,198.18069686440867 90.20879120891914,196.26642694624024 89.4891278934665,195.874870712345 90.32242225878872,195.52682043486857" stroke="#4dd2ff" stroke-linecap="round" stroke-linejoin="round" stroke-width="0.5"><title>2021-03-29 1.2km</title></polyline><polyline fill="none" points="125.29225828661583,207.4897959183436 124.21374374884181,201.40816311881645 123.46347276563756,201.19288284343202 119.80590172461234,195.9184896509978 117.3675210303627,195.70320721669123 124.96401473134756,184.34693877550308 127.49617929849774,185.9077668871032 132.46672455966473,190.9669722415274 131.95091325906105,194.57297304767417 134.06105039827526,206.95160105044488 127.35550348926336,202.4845632253564 124.91712279478088,202.00018343928969 124.6826631128788,203.02276248502312" stroke="#4dd2ff" stroke-linecap="round" stroke-linejoin="round" stroke-width="0.5"><title>2021-03-28 1.4km</title></polyline><polyline fill="none" points="151.14373626373708,191.7264467086061 152.46109890099615,192.50349512617686 152.78153846156783,191.84913866082206 154.06329670338891,191.76734402999864 154.34813186828978,191.11298640278983 154.73978021973744,191.56285738249426 155.34505494497716,191.11298640278983 157.23208791203797,192.1763170226768 158.3358241757378,191.3583706340578 161.57582417572848,192.33990610661567 161.36219780240208,191.52196004078723 162.89318681322038,191.6855493831972 161.75384615384974,191.27657590643503 162.0386813187506,190.62221750462777 162.1098901098594,191.52196004078723 161.931868131971,191.11298640278983 161.5402197802905,191.64465205359738 161.6114285713993,190.99029423264437 162.1098901098594,191.6855493831972 161.57582417572848,191.52196004078723 162.64395604399033,191.39926799177192 162.64395604399033,191.80824134734576 162.1810989009682,191.2356785365264 161.43340659351088,191.64465205359738 162.92879120865837,191.39926799177192 162.46593406586908,191.0311916267674 162.32351648341864,192.2581115727662 161.68263736274093,191.7264467086061 161.6114285713993,192.1763170226768 162.50153846130706,191.60375472009764 162.1098901098594,191.64465205359738 163.0,192.7488785344758 162.89318681322038,191.56285738249426 162.35912087908946,191.64465205359738 162.64395604399033,192.21721429965692 161.86065934062935,192.46259787742747 161.75384615384974,192.01272787404014 161.32659340649843,192.62618684847257 159.83120879111812,192.42170062460355 159.83120879111812,191.60375472009764 160.1872527471278,198.63803676576936 156.16395604400896,199.53776190747158 152.88835164834745,198.47445016671554 153.1375824175775,199.00610637801583 152.1406593406573,198.47445016671554 146.37274725269526,198.1881734628696 143.48879120894708,199.04700298135867 143.2395604394842,200.51927801722195 142.56307692313567,201.05093160647084 140.24879120872356,201.214517189248 139.85714285704307,200.56017447132035" stroke="#4dd2ff" stroke-linecap="round" stroke-linejoin="round" stroke-width="0.5"><title>2021-03-26 1.5km</title></polyline><polyline fill="none" points="168.01742160297,194.45186585688498 175.3554006969789,197.4466199647577 177.9357889498351,197.26137827392085 180.1936286711134,197.7553558726504 183.4459930313751,197.10701011450146 184.73618715780322,197.26137827392085 188.71428571431898,195.8411883355293 185.19313091097865,197.26137827392085 180.65057242417242,197.63186154601863 178.25833748141304,197.13788375246804 175.59731209580787,197.3539991330763 169.87207565957215,195.96468336856924 165.57142857147846,194.08137882125448" stroke="#4dd2ff" stroke-linecap="round" stroke-linejoin="round" stroke-width="0.5"><title>2021-03-26 1.6km</title></polyline><polyline fill="none" points="34.42857142863795,228.58410849483334 32.66044142609462,228.358450523403 30.027892311336473,226.68857807529275 27.788260974921286,226.7337098433054 24.566335192648694,225.47001865922357 16.70797962625511,225.6956780552282 17.886732961283997,226.28239196387585 17.41523162741214,226.41778737434652 11.285714285681024,224.4771159949596 16.236478292383254,226.37265557522187 23.26970652421005,226.82397336579743 29.28134853253141,228.26818730359082" stroke="#4dd2ff" stroke-linecap="round" stroke-linejoin="round" stroke-width="0.5"><title>2021-03-24 1.1km</title></polyline><polyline fill="none" points="60.14285714284051,228.22814304573694 58.47631987568457,228.1197905021254 56.84122670814395,226.89179276750656 54.2313664596295,226.4583808190655 52.09316770185251,225.48320205981145 45.55279503110796,225.62767315091332 46.118788819992915,226.24167465249775 40.99340062122792,224.833081444056 37.0,225.33873091160785 38.57220496889204,225.55543761243462 41.119177018641494,224.86919928638963 45.83579192555044,226.31391005570185 54.42003105592448,226.67508685740177" stroke="#4dd2ff" stroke-linecap="round" stroke-linejoin="round" stroke-width="0.5"><title>2021-03-23 1.3km</title></polyline><polyline fill="none" points="85.39551671722438,227.67946507094894 77.60942249232903,224.95757776647224 74.43958966562059,225.48781717414386 71.30053191480692,225.13432432280388 72.16223404253833,225.6999127176532 71.823708206648,225.8059604424052 66.86892097245436,224.32128944149008 62.714285714318976,224.92222844460048 66.56117021269165,224.39198820007732 71.20820668688975,225.73526196266175 77.3632218844723,226.1594526313129 85.85714285715949,228.73993504830287 84.472264437587,228.068304426939 85.85714285715949,227.67946507094894" stroke="#4dd2ff" stroke-linecap="round" stroke-linejoin="round" stroke-width="0.5"><title>2021-03-22 1.6km</title></polyline><polyline fill="none" points="108.13629904889967,215.1022947006859 108.45502240664791,215.3257940242038 108.27795387466904,216.03692662902176 109.88927751663141,216.28074295930855 110.31424199347384,216.6261489353783 110.1725871678209,217.25600540703454 110.81003388331737,217.68268128215277 111.57142857136205,219.00333912757924 111.11105038784444,220.22240042516205 110.43818996602204,220.506847027631 110.19029402115848,221.238279352503 106.91452617757022,224.08271381152736 103.30232812312897,225.48459926561918 102.16908951778896,226.21601399264182 101.3014537106501,226.9474261339492 98.76937370188534,230.44191512280668 88.42857142852154,237.9589297891216" stroke="#4dd2ff" stroke-linecap="round" stroke-linejoin="round" stroke-width="0.5"><title>2021-03-21 1.3km</title></polyline><polyline fill="none" points="124.63369347830303,224.52002550964244 124.33994024910498,222.64160241525678 122.32563239196315,220.13701588129334 121.50731982500292,219.89618890348356 118.73764652118552,222.42486036202172 115.98895559110679,225.9167923188652 115.29653726518154,226.1094491847325 114.5411718187388,228.15641902727657 115.82109660306014,229.98663640253653 118.86354076233692,231.43153519793123 122.15777340380009,234.1045755029627 121.9689320421312,234.24906333727995 122.40956188598648,234.20090073530446 122.01089678937569,233.98416890935914 122.51447375351563,234.82701382211235 123.62653954967391,236.1514785408217 127.84399662574288,238.10204081633128 130.02616347104777,237.88531244145997 135.16684498160612,234.2972259297385 135.85926330764778,232.85234403639333 136.88739960978273,228.22866470924055 135.85926330764778,226.44659833547485 132.01948895480018,222.906509108725 127.86497899936512,217.68056959669048 124.78057009284385,214.95918367347622 121.31847846333403,219.77577532573196 121.94794966874178,219.84802347948425 122.80822698271368,220.64275176421506 124.48681686376221,222.78609701084497 124.46583449025638,223.4604039966216" stroke="#4dd2ff" stroke-linecap="round" stroke-linejoin="round" stroke-width="0.5"><title>2021-03-20 3.7km</title></polyline><polyline fill="none" points="160.7199155522976,232.3579159612127 152.8156228007283,229.82622958067805 144.45531315985136,229.56433016291703 139.9711470794864,228.6040309719101 139.85714285704307,227.03262780085788 140.50316678383388,226.3342246003158 139.8951442646794,225.15566670021508 140.0471498942934,223.1040954607015 142.4412385642063,220.70330852858024 146.39338494022377,221.18346695700893 150.42153413081542,222.5366379067127 158.02181562269107,222.3620354361483 162.08796622091904,221.70727555747726 162.58198451786302,221.13981621229323 161.85995777626522,222.79854148367303 161.4039408864919,228.42943089519395 161.78395496145822,231.31032335342024 163.0,231.52857201790903" stroke="#4dd2ff" stroke-linecap="round" stroke-linejoin="round" stroke-width="0.5"><title>2021-03-19 1.6km</title></polyline><polyline fill="none" points="174.95028173702303,226.29419809002138 179.97978123975918,228.45285518924356 181.93072588683572,228.32950395716762 183.6310904873535,228.69955743437458 185.42094796162564,228.3089454114379 186.36957242304925,228.39117958233692 188.71428571431898,227.69218809549056 184.3649320518598,228.67899892505375 182.12761020904873,228.32950395716762 179.6218097449746,228.43229665565013 169.6165064634988,225.24569943296956 165.57142857147846,224.8139631588274 166.44845873396844,224.93731647120148 165.85780576744583,224.69060977337358 166.03679151483811,224.58781522976642 167.39708319527563,224.67005086874997 169.2048392443685,224.36166705541837 169.8133907855954,224.8139631588274 170.1713622804964,224.58781522976642 170.60092807433102,224.99899310008914 170.97679814393632,224.8756398241967 171.4600596621167,225.28681712673279 172.0686112033436,225.06066971064138 173.32151143532246,225.96525790261512 173.57209148164839,225.65687600552337 172.92774279101286,224.69060977337358 172.67716274457052,224.71116867604724 172.76665561820846,225.4101701592881 173.93006297654938,225.98581667956023 174.41332449461333,224.8345220493211 174.6818031158764,225.38961132561963 175.03977461066097,225.32793481231784 174.66390454105567,225.43072899099207 174.87868743797299,225.36905248985568 174.359628770384,224.64949196207453 175.12926748441532,224.58781522976642" stroke="#4dd2ff" stroke-linecap="round" stroke-linejoin="round" stroke-width="0.5"><title>2021-03-19 3.1km</title></polyline><polyline fill="none" points="21.024451104167383,268.7142857142899 20.89447296562139,268.3111823581712 20.64751450251788,268.2663930301205 20.28357571462402,268.6097775398521 20.725501385575626,266.0866297137254 20.556529805471655,266.6987581984722 20.63451668858761,267.81849902059184 20.3875582254841,268.01258658744337 18.983794329571538,267.98272697796347 18.814822749467567,267.0869359548524 18.9318030741415,266.29564947469044 22.33723030309193,265.5342189560906 24.624845540849492,265.38491840529605 24.546858657733537,250.9468593448837 25.313729674962815,249.9613779993815 26.8994629647932,248.55780257820152 26.6135110600153,247.84107819234487 24.67683679627953,245.5714285714348" stroke="#4dd2ff" stroke-linecap="round" stroke-linejoin="round" stroke-width="0.5"><title>2021-03-18 2.7km</title></polyline><polyline fill="none" points="44.84892409807071,266.80458071372414 45.49684770102613,266.9169170111127 45.59464749012841,267.4645551914873 45.83914696291322,267.60497489839327 47.15944411599776,267.8717719600245 48.87094042560784,267.717310564185 50.056762868654914,268.0543170298479 51.157010496244766,268.7142857142899 51.43818488990655,267.8296461413847 51.27926023263717,264.08039836384705 52.2939330447698,263.98210215002473 50.83916118158959,263.57487425531144 49.43328921298962,263.50466243161645 48.809815557382535,262.8306271619949 47.57509321975522,250.0654816529859 48.91984032012988,248.4925792178692 49.8733882640372,247.94486803916516 49.18878974020481,246.72304319788236 48.0151922708028,245.5714285714348" stroke="#4dd2ff" stroke-linecap="round" stroke-linejoin="round" stroke-width="0.5"><title>2021-03-17 2.8km</title></polyline><polyline fill="none" points="63.49392097280361,255.89391371404054 63.78115501534194,255.89391371404054 65.21732522826642,256.5066148660262 65.6276595746167,257.02505368881975 69.89513677824289,258.20332164887805 74.40881458972581,258.81601984013105 75.92705167178065,258.72175863123266 76.99392097280361,258.9574116189906 77.52735562319867,259.1459339254652 79.66109422501177,259.4758477830619 81.42553191492334,260.18280528255855 82.0,260.32419665690395 82.9848024318926,260.84263133845525 83.805471124826,261.3610654574586 84.13373860204592,261.4553261459805 84.50303951394744,261.64384746726137 85.40577507624403,261.87949901423417 85.8571428572759,261.83236871418194 85.81610942282714,261.83236871418194 85.81610942282714,261.83236871418194 85.69300911878236,261.87949901423417 85.77507598814555,261.83236871418194 85.81610942282714,261.83236871418194 85.8571428572759,261.87949901423417 85.61094224941917,261.83236871418194 85.0775075990241,261.83236871418194 83.2720364741981,261.87949901423417 82.04103343491443,261.50245648334385 80.85106382984668,261.2668047504267 79.66109422501177,261.1725440247974 78.47112462017685,261.2196743898385 77.85562310065143,261.2668047504267 76.66565349558368,261.3610654574586 76.13221884495579,261.3610654574586 74.28571428591385,261.2196743898385 73.7112462008372,261.0782832803379 72.60334346513264,260.79550093601574 72.02887538005598,260.51271842437563 70.92097264458425,260.13567481495556 70.3465045595076,259.9471528988797 68.00759878428653,259.4758477830619 66.48936170223169,258.86315043776995 66.36626139841974,258.58036678266944 66.85866261413321,258.4861055270885 67.06382978730835,258.4861055270885 67.22796352603473,258.29758296033833 67.06382978730835,258.2504523069074 66.65349544072524,258.1561909862794 66.4483282675501,258.10906031905324 66.32522796373814,258.06192964711227 66.07902735588141,258.06192964711227 65.91489361715503,257.9676682892605 65.70972644397989,257.9676682892605 65.50455927057192,257.9676682892605 65.21732522826642,257.87340691289864 65.01215805485845,257.7791455179686 64.88905775081366,257.7320148134604 64.47872340446338,257.49636122150696 64.3556231004186,257.4020997521002 64.15045592724346,257.2607075131382 64.02735562319867,257.1664459973981 63.90425531938672,257.02505368881975 63.74012158066034,256.83653054561 63.45288753812201,256.60087651206413 63.20668693026528,256.45948403605144 63.083586626220495,256.36522236216115 62.87841945304535,256.1295680962212 62.796352583682165,255.70539012463996 62.796352583682165,255.32834272275795 62.7553191492334,255.0926879454055 62.714285714318976,254.9041640399373 62.83738601836376,254.5271160059492 62.796352583682165,254.00867447335622 62.796352583682165,253.77301904538763 62.7553191492334,253.63162573272712 62.83738601836376,253.49023237838992 62.796352583682165,253.4431012510031 62.83738601836376,253.1131832288229 62.87841945304535,252.87752735917456 63.083586626220495,252.8303961713682 63.49392097280361,252.68900257983478 63.69908814597875,252.59474016228341 63.82218845002353,252.54760894659557 64.06838905788027,252.45334650125005 64.10942249256186,252.45334650125005 64.10942249256186,252.40621527150506 64.15045592724346,252.40621527150506" stroke="#4dd2ff" stroke-linecap="round" stroke-linejoin="round" stroke-width="0.5"><title>2021-03-02 1.4km</title></polyline><polyline fill="none" points="92.68039867118932,257.4828915896942 92.94950166135095,257.60652762424434 95.90963455149904,258.1628894788446 97.79335548193194,258.8428866302129 98.49302325583994,259.15197600075044 100.37674418604001,259.6465186763671 101.07641195994802,259.6465186763671 103.06777408649214,259.52288304426474 103.71362126246095,259.3374295498361 105.7049833885394,259.21379385649925 106.94285714277066,259.6465186763671 107.5887043189723,259.89378986804513 108.71893687732518,260.3265142185264 109.7953488372732,260.51196742011234 111.14086378738284,260.3883319586166 111.35614617913961,260.26469647255726 111.57142857136205,260.3883319586166 111.51760797342286,261.25377967813984 110.54883720935322,261.5010502357036 109.741528239334,262.1810437658569 109.36478405306116,262.3046788741485 108.98803986702114,262.4283139578183 108.77275747503154,262.4283139578183 108.44983388693072,262.4901314903982 108.23455149517395,262.6137665374554 107.48106312286109,262.9228540487238 107.5887043189723,263.2319414073718 107.96544850501232,263.47921118466184 107.96544850501232,263.5410286138649 107.96544850501232,263.60284603672335 108.01926910295151,263.5410286138649 107.75016611302271,263.47921118466184 107.4272425249219,263.60284603672335 107.31960132904351,263.6646634535282 107.21196013269946,263.72648086445406 107.15813953476027,263.7882982690353 107.15813953476027,263.7882982690353 106.94285714277066,263.47921118466184 106.83521594689228,263.3555763082113 106.67375415260904,263.1701239479007 106.61993355466984,263.0464890105068 106.08172757481225,262.9228540487238 105.86644518258981,262.9228540487238 105.59734219266102,262.9228540487238 105.32823920273222,262.86103655869374 105.0053156146314,262.86103655869374 104.7362126247026,262.86103655869374 104.19800664461218,262.7374015604146 103.92890365445055,262.6755840519909 103.65980066475458,262.6137665374554 103.39069767436013,262.5519490170409 102.85249169450253,262.4283139578183 102.6372093022801,262.3046788741485 102.3681063123513,262.2428613230586 102.0990033224225,262.119226202718 101.82990033202805,261.99559105804656 101.61461794027127,261.8101382954046 101.13023255812004,261.5628678597277 100.64584717596881,261.31559732655296 100.26910299016163,260.9446913438733 99.99999999976717,260.82105596771 99.73089700983837,260.69742056692485 99.4617940201424,260.5737851418671 99.19269102974795,260.4501496924204 99.0312292361632,260.3883319586166 98.60066445195116,260.20287872024346 98.38538205996156,260.1410609620507 98.17009966773912,260.0792431976297 97.95481727574952,259.9556076506851 97.68571428582072,259.89378986804513 97.4166112956591,259.83197207935154 96.82458471762948,259.77015428437153 96.60930232563987,259.70833648351254 96.34019933547825,259.6465186763671 96.01727574737743,259.6465186763671 95.80199335538782,259.58470086334273 95.2637873752974,259.52288304426474 94.9946843853686,259.3992473874241 94.51029900321737,259.028340270801 93.97209302335978,258.8428866302129 93.75681063137017,258.78106873785146 93.48770764144138,258.7192508394364 93.16478405334055,258.6574329348514 92.94950166135095,258.59561502427096 92.68039867118932,258.47197918442544 92.19601328903809,258.22470743209124 91.9269102991093,258.1010715193115 91.71162790688686,257.9774355820846 91.17342192702927,257.6683456324972 91.01196013297886,257.54470960999606 90.79667774075642,257.4210735632223 90.31229235883802,257.1119833391858 90.09700996684842,256.9265291317133 89.82790697668679,256.55562055198243 89.45116279064678,256.1228935983381 88.80531561467797,255.62834814260714 88.80531561467797,255.4428934963653 88.69767441879958,255.13380229682662 88.59003322292119,254.8865292276023 88.42857142863795,254.08289107889868 88.59003322292119,253.77379920892417 88.64385382062756,253.464707186562 88.69767441879958,253.21743345883442 88.7514950169716,253.03197809914127 88.7514950169716,252.72288571088575 88.7514950169716,251.91924478829606 88.7514950169716,251.36287739221007 89.34352159476839,251.11560283537256 89.7740863787476,250.8683281810372 90.15083056502044,250.74469081725692 90.41993355494924,250.68287212622818 90.52757475082763,250.55923472589348 91.28106312290765,250.49741601670394" stroke="#4dd2ff" stroke-linecap="round" stroke-linejoin="round" stroke-width="0.5"><title>2020-12-25 1.0km</title></polyline><polyline fill="none" points="114.4908700324595,254.46970547479577 114.75187969952822,254.71953398990445 114.9693877552636,254.96936238187482 115.4479054780677,255.26915628972347 117.31847475841641,255.76881240849616 118.31901181535795,256.06860584329115 118.97153598302975,256.2185024942446 122.01664876495488,257.4176741045958 122.88668098836206,258.0172588455607 123.8872180453036,258.4669469354558 125.36627282504924,259.0165651703137 125.93179377028719,259.11649569429574 126.97583243856207,259.11649569429574 127.5848549946677,259.11649569429574 128.62889366270974,258.91663462657016 129.5859291087836,258.8167040629196 130.67346938792616,258.8666693471896 131.28249194426462,258.8167040629196 132.97905477997847,259.11649569429574 133.54457572521642,259.31635668332456 134.63211600435898,259.5162175935693 135.2411385611631,259.46625237332773 136.32867884030566,259.416287148284 136.80719656310976,259.3663219183218 137.28571428591385,259.56618280886323 137.24221267458051,259.6161480190931 137.11170784151182,259.6661132244044 137.06820623017848,259.7160784249427 137.06820623017848,259.7660436203878 137.02470461884513,259.7160784249427 136.93770139664412,259.81600881091435 136.93770139664412,259.7160784249427 136.98120300797746,259.7660436203878 137.02470461884513,259.81600881091435 136.98120300797746,259.7660436203878 137.06820623017848,259.6661132244044 137.02470461884513,259.6661132244044 136.98120300797746,259.6661132244044 136.98120300797746,259.7160784249427 136.98120300797746,259.6661132244044 136.98120300797746,259.6661132244044 136.98120300797746,259.6661132244044 136.98120300797746,259.7160784249427 136.93770139664412,259.7160784249427 136.93770139664412,259.7160784249427 136.89419978531078,259.7160784249427 136.8506981744431,259.7160784249427 136.93770139664412,259.7160784249427 136.93770139664412,259.7160784249427 136.93770139664412,259.7160784249427 136.89419978531078,259.7160784249427 136.89419978531078,259.7660436203878 136.80719656310976,259.7160784249427 135.80665950616822,259.7160784249427 134.67561761569232,259.7160784249427 133.54457572521642,259.46625237332773 133.0225563913118,259.31635668332456 131.93501611193642,259.0165651703137 131.36949516669847,258.91663462657016 130.19495166488923,258.91663462657016 129.6294307198841,258.8666693471896 128.4548872183077,258.96659990079934 127.23684210539795,259.11649569429574 126.67132116039284,259.11649569429574 125.49677765881643,259.066530434764 124.88775510224514,258.91663462657016 122.14715359848924,258.0172588455607 121.58163265325129,257.81739734398434 119.97207303997129,257.4176741045958 119.53705692803487,257.3677086775424 117.79699248145334,257.0679160114378 116.79645542427897,256.61822667971137 116.23093447927386,256.318433570239 115.1433942001313,255.71884681881056 114.14285714295693,255.3690875529137" stroke="#4dd2ff" stroke-linecap="round" stroke-linejoin="round" stroke-width="0.5"><title>2020-12-08 1.1km</title></polyline><polyline fill="none" points="139.85714285704307,254.75732605491066 140.07967032957822,254.79992505762493 141.56318681291305,255.9500965391926 142.04532967018895,256.12049205377116 143.9368131866213,256.6742770120618 144.8269230767619,256.9298698302882 145.27197802183218,257.1002649583097 146.31043956032954,257.48365375094 147.2376373624429,257.9522395907843 147.7197802197188,258.2504303151509 150.09340659319423,259.0598041006888 150.61263736267574,259.1024026789237 152.09615384601057,258.93200834063464 152.54120879108086,258.8894097454613 154.8777472525835,258.93200834063464 155.35989010962658,258.9746069314715 156.80631868122146,259.40059260939597 158.28983516455628,259.52838823079946 158.73489010962658,259.485789694445 159.69917582417838,259.52838823079946 161.1826923075132,259.3153955073212 161.6277472525835,259.2727969500702 162.5549450549297,259.18759982287884 162.99999999976717,259.14500125305494 162.81456043943763,258.8042125427164 161.77609890094027,258.7616139349702 161.33104395586997,258.8042125427164 160.4038461537566,259.0598041006888 160.07005494483747,259.14500125305494 159.1057692305185,259.3579940604395 158.6607142854482,259.40059260939597 157.73351648333482,259.40059260939597 157.25137362629175,259.3153955073212 156.32417582394555,259.14500125305494 155.8791208791081,259.0172055181174 154.4326923075132,258.7616139349702 153.95054945047013,258.7616139349702 152.98626373615116,258.8042125427164 152.46703296666965,258.8042125427164 151.5027472525835,258.8894097454613 150.53846153826453,258.93200834063464 149.61126373615116,258.8894097454613 148.72115384601057,258.6764167070214 148.27609890094027,258.54862083363696 147.31181318685412,258.2504303151509 146.866758241551,258.0800356406835 145.9766483514104,257.78184479873744 144.78983516455628,257.44105501295417 144.45604395586997,257.3984562708938 143.56593406572938,257.18546249720384 142.34203296690248,256.80207344004884 142.00824175821617,256.54648054629797 141.22939560422674,256.12049205377116 140.82142857136205,255.90749764998327" stroke="#4dd2ff" stroke-linecap="round" stroke-linejoin="round" stroke-width="0.5"><title>2020-12-03 1.3km</title></polyline><polyline fill="none" points="188.46981891337782,257.75124980477267 188.6735412471462,258.50003445113543 188.71428571408615,258.7340294107853 188.02162977843545,259.15522004745435 186.84004024113528,259.108421106328 185.21026156912558,258.8276273623633 183.66197183076292,258.17244131377083 183.13229376240633,258.07884323288454 180.11720321909525,256.90886566552217 179.01710261544213,256.72166898686555 177.34657947649248,256.7684681635292 176.20573440613225,256.72166898686555 175.3908450701274,256.72166898686555 174.90191146847792,256.72166898686555 173.80181086505763,256.6280706200632 173.43511066376232,256.581271429779 172.1720321928151,256.4876730349497 171.68309859116562,256.44087383081205 169.9718309857417,256.30047619043035 169.44215291715227,256.20687774042017 168.38279678067192,256.11327927189996 166.99748490937054,255.50488877680618 166.46780684078112,255.3176915445365 165.57142857136205,255.13049423822667 166.59004024113528,255.36449085953063 167.4864185107872,255.7856844868511 168.38279678067192,256.20687774042017 168.91247484879568,256.25367696766625 170.25704225338995,256.3940746219014 170.66448692139238,256.44087383081205 171.72384305810556,256.53447223463445 172.25352112646215,256.581271429779 173.35362173011526,256.581271429779 173.84255533176474,256.6280706200632 174.94265593541786,256.72166898686555 175.43158953706734,256.72166898686555 176.93913480849005,256.7684681635292 177.42806841037236,256.7684681635292 178.16146881273016,256.67486980577814 178.4059356134385,256.67486980577814 178.5689134807326,256.67486980577814 178.73189134779386,256.67486980577814 178.89486921508797,256.67486980577814 179.09859154908918,256.6280706200632 179.3023138830904,256.6280706200632 179.70975855109282,256.67486980577814 179.87273641838692,256.67486980577814 180.23943661968224,256.8152673353907 180.60613682074472,257.002463976969 180.5653923540376,257.09606227008044 180.5653923540376,257.1428614096367 180.52464788709767,257.1428614096367" stroke="#4dd2ff" stroke-linecap="round" stroke-linejoin="round" stroke-width="0.5"><title>2020-11-30 1.0km</title></polyline></svg>