<?xml version="1.0" encoding="utf-8" ?>
<svg baseProfile="full" height="300mm" version="1.1" viewBox="0,0,200,300" width="200mm" xmlns="http://www.w3.org/2000/svg" xmlns:ev="http://www.w3.org/2001/xml-events" xmlns:xlink="http://www.w3.org/1999/xlink"><defs /><rect fill="#222222" height="300" width="200" x="0" y="0" /><text fill="#FFFFFF" style="font-size:12px; font-family:Arial; font-weight:bold;" x="10" y="20">Over 3km Runs</text><text fill="#FFFFFF" style="font-size:4px; font-family:Arial" x="10" y="280">ATHLETE</text><text fill="#FFFFFF" style="font-size:9px; font-family:Arial" x="10" y="290">jdzj</text><text fill="#FFFFFF" style="font-size:4px; font-family:Arial" x="120" y="280">STATISTICS</text><text fill="#FFFFFF" style="font-size:3px; font-family:Arial" x="120" y="285">Number: 8</text><text fill="#FFFFFF" style="font-size:3px; font-family:Arial" x="120" y="290">Weekly: 1.6</text><text fill="#FFFFFF" style="font-size:3px; font-family:Arial" x="141" y="285">Total: 14.4 km</text><text fill="#FFFFFF" style="font-size:3px; font-family:Arial" x="141" y="290">Avg: 1.8 km</text><text fill="#FFFFFF" style="font-size:3px; font-family:Arial" x="167" y="285">Min: 1.0 km</text><text fill="#FFFFFF" style="font-size:3px; font-family:Arial" x="167" y="290">Max: 3.1 km</text><polyline fill="none" points="34.883990719448775,59.44836697194842 46.61948955943808,64.48523353680503 51.17169373598881,64.19741399530903 55.139211137080565,65.06087210876285 59.31554524390958,64.14944405524875 61.52900232025422,64.34132378737559 67.0,62.71034365138621 56.85150812100619,65.01290225368575 51.631090487586334,64.19741399530903 45.78422273811884,64.43726362509187 22.438515081303194,57.001870105508715 13.0,55.99448546583881 15.046403712360188,56.28230986138806 13.668213457101956,55.70666089979932 14.08584686787799,55.46680696471594 17.259860788937658,55.658690122305416 21.477958236820996,54.93912789123715 22.89791183313355,55.99448546583881 23.733178654452786,55.46680696471594 24.735498839989305,56.426221995439846 25.612529002362862,56.1383976850484 26.740139211295173,57.097811390965944 28.160092807607725,56.57013408676721 31.08352668234147,58.68083986802958 31.668213457101956,57.96128210815368 30.164733178913593,55.70666089979932 29.580046403920278,55.75463167266571 29.78886310919188,57.38563513359986 32.50348027842119,58.728810347558465 33.631090487586334,56.042456210328965 34.25754060363397,57.337664521706756 35.09280742472038,57.19375265730196 34.21577726234682,57.43360574089456 34.716937355231494,57.289693904924206 33.50580046419054,55.61071934006759 35.30162413022481,55.46680696471594" stroke="#4dd2ff" stroke-linecap="round" stroke-linejoin="round" stroke-width="0.5"><title>2021-03-19 3.1km</title></polyline><polyline fill="none" points="155.72371924307663,87.0 155.42043691989966,86.05942550237523 154.84420050599147,85.95491707028123 153.9950100008864,86.75614759296877 155.02616989973467,80.86880266535445 154.63190287956968,82.29710246308241 154.8138722735457,84.90983104804764 154.2376358595211,85.3627020373533 150.96218676911667,85.29302961521898 150.56791974883527,83.20285056129796 150.84087383979931,81.35651544091525 158.7868707072921,79.57984423084417 164.1246395953931,79.23147627900471 163.94267020153347,45.54267180469469 165.7320359083824,43.24321533186594 169.43208025128115,39.968206015764736 168.7648591401521,38.29584911544225 164.24595252471045,33.0" stroke="#4dd2ff" stroke-linecap="round" stroke-linejoin="round" stroke-width="0.5"><title>2021-03-18 2.7km</title></polyline><polyline fill="none" points="31.314156228792854,142.54402166532236 32.82597796909977,142.80613969254773 33.05417747690808,144.08396211342188 33.62467624677811,144.41160809624125 36.705369604052976,145.03413457336137 40.698860993026756,144.67372464973596 43.46578002686147,145.4600730696111 46.03302449127659,147.0 46.68909807642922,144.93584099656437 46.318273876211606,136.1875961823098 48.68584377109073,135.95823835002375 45.29137609037571,135.00803992906003 42.011008163681254,134.84421234039473 40.556236300617456,133.2714633779542 37.675217512762174,103.48612385694287 40.81296074704733,99.81601817498449 43.03790594940074,98.5380254246702 41.44050939392764,95.68710079503944 38.70211529848166,93.0" stroke="#4dd2ff" stroke-linecap="round" stroke-linejoin="round" stroke-width="0.5"><title>2021-03-17 2.8km</title></polyline><polyline fill="none" points="134.81914893630892,117.08579866599757 135.48936170199886,117.08579866599757 138.84042553184554,118.51543468737509 139.79787234030664,119.72512527380604 149.75531914876774,122.47441718063783 160.2872340423055,123.9040462935809 163.8297872338444,123.68410347274039 166.31914893630892,124.23396044422407 167.56382978707552,124.6738458260661 172.54255319107324,125.44364482699893 176.65957446815446,127.09321232582442 178.0,127.42312553268857 180.2978723407723,128.63280645629857 182.2127659576945,129.8424860673258 182.97872340446338,130.0624276738381 183.84042553184554,130.50231075682677 185.94680851045996,131.0521643664688 187.0,130.94219366635662 186.90425531938672,130.94219366635662 186.90425531938672,130.94219366635662 186.61702127708122,131.0521643664688 186.80851063830778,130.94219366635662 186.90425531938672,130.94219366635662 187.0,131.0521643664688 186.42553191445768,130.94219366635662 185.18085106369108,130.94219366635662 180.96808510599658,131.0521643664688 178.09574468107894,130.17239846102893 175.31914893630892,129.62254441762343 172.54255319107324,129.40260272438172 169.76595744676888,129.51257357618306 168.32978723431006,129.62254441762343 165.55319148954004,129.8424860673258 164.30851063784212,129.8424860673258 160.0,129.51257357618306 158.65957446815446,129.18266098736785 156.074468084611,128.52283551730216 154.73404255323112,127.86300965677947 152.14893617015332,126.9832412347896 150.80851063830778,126.54335676389746 145.35106382984668,125.44364482699893 141.80851063830778,124.01401768799406 141.52127659553662,123.35418915946502 142.67021276568994,123.13424622977618 143.14893617015332,123.13424622977618 143.53191489353776,122.69436024071183 143.14893617015332,122.58438871602993 142.19148936122656,122.36444563453551 141.71276595722884,122.25447407772299 141.42553191492334,122.14450250985101 140.85106382984668,122.14450250985101 140.46808510646224,121.92455934151076 139.98936170199886,121.92455934151076 139.51063829753548,121.92455934151076 138.84042553184554,121.70461612998042 138.36170212738216,121.48467287514359 138.07446808507666,121.37470123136882 137.11702127661556,120.82484285009559 136.8297872338444,120.60489942145068 136.35106382984668,120.27498419722542 136.06382978707552,120.05504066054709 135.77659574477002,119.72512527380604 135.39361702091992,119.28523793967906 134.72340425522998,118.73537852801383 134.14893617015332,118.40546275069937 133.86170212738216,118.18551884498447 133.38297872338444,117.63565889105666 133.19148936122656,116.64591029076837 133.19148936122656,115.76613301970065 133.09574468107894,115.21627187251579 133.0,114.77638275967911 133.2872340423055,113.89660401374567 133.19148936122656,112.68690710433293 133.19148936122656,112.13704443909228 133.09574468107894,111.80712670960929 133.2872340423055,111.4772088828031 133.19148936122656,111.36723625229206 133.2872340423055,110.59742753382307 133.38297872338444,110.04756383795757 133.86170212738216,109.93759106635116 134.81914893630892,109.60767268622294 135.29787234030664,109.38772704522125 135.58510638261214,109.2777542086551 136.15957446815446,109.05780850281008 136.25531914876774,109.05780850281008 136.25531914876774,108.9478356334148 136.35106382984668,108.9478356334148" stroke="#4dd2ff" stroke-linecap="round" stroke-linejoin="round" stroke-width="0.5"><title>2021-03-02 1.4km</title></polyline><polyline fill="none" points="22.920930232852697,180.79341370926704 23.548837210051715,181.08189778984524 30.455813953652978,182.38007545063738 34.851162791252136,183.96673547045793 36.4837209302932,184.68794400175102 40.87906976789236,185.8418769115815 42.51162790693343,185.8418769115815 47.15813953522593,185.55339376989286 48.665116279385984,185.12066894967575 53.311627907212824,184.83218566514552 56.200000000186265,185.8418769115815 57.70697674434632,186.41884302545805 60.34418604709208,187.42853317654226 62.855813953559846,187.86125731363427 65.99534883769229,187.57277457008604 66.49767441861331,187.28429176926147 67.0,187.57277457008604 66.87441860511899,189.59215258224867 64.6139534888789,190.1691172166029 62.730232558213174,191.7557687869994 61.851162790320814,192.04425070632715 60.972093023359776,192.33273256826214 60.46976744197309,192.33273256826214 59.71627906989306,192.4769734776346 59.21395348897204,192.76545525412075 57.45581395365298,193.48665944696404 57.70697674434632,194.2078632839257 58.58604651177302,194.78482609754428 58.58604651177302,194.9290667657042 58.58604651177302,195.07330741907936 58.71162790711969,194.9290667657042 58.083720930386335,194.78482609754428 57.33023255830631,195.07330741907936 57.079069768078625,195.21754805825185 56.82790697645396,195.36178868368734 56.70232558157295,195.5060292944545 56.70232558157295,195.5060292944545 56.200000000186265,194.78482609754428 55.94883720949292,194.49634471919853 55.57209302298725,194.0636225452181 55.44651162810624,193.77514102461282 54.190697675105184,193.48665944696404 53.68837209325284,193.48665944696404 53.06046511651948,193.48665944696404 52.432558140251786,193.34241863701027 51.67906976817176,193.34241863701027 51.05116279097274,193.34241863701027 49.795348837506026,193.0539369743783 49.16744186030701,192.90969612135086 48.539534884504974,192.76545525412075 47.911627906840295,192.62121437303722 46.65581395383924,192.33273256826214 46.153488371986896,192.04425070632715 45.5255813957192,191.9000097537646 44.897674418985844,191.61152780626435 44.269767441786826,191.32304580206983 43.7674418608658,190.89032268931624 42.63720930274576,190.31335833936464 41.506976744160056,189.7363937619375 40.62790697766468,188.87094646901824 40.0,188.58246392465662 39.37209302326664,188.29398132290225 38.74418604699895,188.00549866445363 38.11627906933427,187.7170159489615 37.73953488422558,187.57277457008604 36.734883721452206,187.14005034719594 36.23255814006552,186.9958089113934 35.730232558213174,186.85156746115535 35.22790697682649,186.5630845183041 34.60000000055879,186.41884302545805 33.972093023359776,186.27460151852574 32.59069767454639,186.1303599969251 32.08837209362537,185.98611846158747 31.46046511642635,185.8418769115815 30.70697674434632,185.8418769115815 30.204651162959635,185.6976353478385 28.948837209492922,185.55339376989286 28.320930232759565,185.26491057069506 27.190697674639523,184.39946063188836 25.93488372117281,183.96673547045793 25.432558139786124,183.8224937216146 24.80465116351843,183.678251958685 24.05116279097274,183.5340101813199 23.548837210051715,183.38976838986855 22.920930232852697,183.10128476365935 21.790697674732655,182.52431734162383 21.1627906979993,182.2358335449826 20.660465116146952,181.9473496916471 19.4046511631459,181.22613980912138 19.027906977105886,180.93765575671569 18.52558139525354,180.64917164761573 17.39534883759916,179.92796112480573 16.893023256212473,179.49523464066442 16.265116279479116,178.6297812879784 15.386046512052417,177.62008506280836 13.8790697674267,176.46614566608332 13.8790697674267,176.03341815818567 13.627906977199018,175.3122053593397 13.376744186971337,174.73523486440536 13.0,172.86007918405812 13.376744186971337,172.13886482082307 13.502325581386685,171.41765010193922 13.627906977199018,170.84067807067186 13.75348837301135,170.4079488979187 13.75348837301135,169.68673332536127 13.75348837301135,167.8115711726714 13.75348837301135,166.5133805818623 15.134883721359074,165.9364066158887 16.139534884132445,165.35943242243957 17.018604652024806,165.07094524020795 17.646511628758162,164.92670162790455 17.897674418985844,164.6382143604569 19.655813953839242,164.4939707055455" stroke="#4dd2ff" stroke-linecap="round" stroke-linejoin="round" stroke-width="0.5"><title>2020-12-25 1.0km</title></polyline><polyline fill="none" points="133.81203007511795,173.76264610793442 134.4210526314564,174.34557930985466 134.92857142863795,174.92851222434547 136.0451127816923,175.628031342756 140.40977443614975,176.7938956199214 142.74436090234667,177.49341363436542 144.26691729342565,177.84317248663865 151.37218045117334,180.64123957743868 153.4022556389682,182.04027063969988 155.73684210516512,183.08954284945503 159.18796992488205,184.37198539741803 160.50751879671589,184.60515662003309 162.94360902300104,184.60515662003309 164.3646616539918,184.60515662003309 166.80075187934563,184.1388141287025 169.0338345868513,183.90564281353727 171.5714285718277,184.02222847682424 172.99248120328411,183.90564281353727 176.95112781971693,184.60515662003309 178.27067669155076,185.0714989277767 180.80827067652717,185.53784105170052 182.2293233089149,185.4212555377744 184.76691729342565,185.30467001267243 185.88345864694566,185.18808447616175 187.0,185.65442655410152 186.89849624037743,185.77101204462815 186.5939849629067,185.88759752362967 186.49248120328411,186.00418299157172 186.49248120328411,186.12076844763942 186.39097744366154,186.00418299157172 186.18796992488205,186.237353892182 186.18796992488205,186.00418299157172 186.2894736849703,186.12076844763942 186.39097744366154,186.237353892182 186.2894736849703,186.12076844763942 186.49248120328411,185.88759752362967 186.39097744366154,185.88759752362967 186.2894736849703,185.88759752362967 186.2894736849703,186.00418299157172 186.2894736849703,185.88759752362967 186.2894736849703,185.88759752362967 186.2894736849703,185.88759752362967 186.2894736849703,186.00418299157172 186.18796992488205,186.00418299157172 186.18796992488205,186.00418299157172 186.08646616525948,186.00418299157172 185.98496240656823,186.00418299157172 186.18796992488205,186.00418299157172 186.18796992488205,186.00418299157172 186.18796992488205,186.00418299157172 186.08646616525948,186.00418299157172 186.08646616525948,186.12076844763942 185.88345864694566,186.00418299157172 183.54887218074873,186.00418299157172 180.90977443614975,186.00418299157172 178.27067669155076,185.4212555377744 177.0526315793395,185.0714989277767 174.51503759389743,184.37198539741803 173.1954887220636,184.1388141287025 170.45488721784204,184.1388141287025 169.1353383460082,184.02222847682424 166.3947368422523,184.25539976859 163.55263157887384,184.60515662003309 162.23308270704,184.60515662003309 159.49248120328411,184.48857101448812 158.07142857136205,184.1388141287025 151.67669172910973,182.04027063969988 150.3571428572759,181.57392713602167 146.60150375962257,180.64123957743868 145.58646616525948,180.52465358097106 141.52631578966975,179.82513736002147 139.19172932300717,178.77586225268897 137.87218045117334,178.07634499727283 135.33458646619692,176.67730924393982 133.0,175.86120429018047" stroke="#4dd2ff" stroke-linecap="round" stroke-linejoin="round" stroke-width="0.5"><title>2020-12-08 1.1km</title></polyline><polyline fill="none" points="13.0,234.43376079475274 13.51923076948151,234.5331584677915 16.98076923098415,237.21689192473423 18.10576923098415,237.61448145878967 22.51923076948151,238.90664636151632 24.596153846476227,239.50302960397676 25.634615384973586,239.90061823604628 28.05769230797887,240.79519208549755 30.221153846476227,241.88855904515367 31.346153846476227,242.5843374019605 36.884615384507924,244.47287623491138 38.09615384694189,244.57227291743038 41.55769230797887,244.17468612809898 42.59615384647623,244.07528940605698 48.048076923470944,244.17468612809898 49.17307692300528,244.27408284012927 52.548076923470944,245.26804942189483 56.009615384973586,245.56623920518905 57.048076923470944,245.4668426203425 59.298076923936605,245.56623920518905 62.759615384507924,245.06925618369132 63.798076923470944,244.96985955012497 65.9615384619683,244.77106625336455 67.0,244.67166959046153 66.56730769248679,243.87649593298556 64.14423076948151,243.7770991815487 63.10576923098415,243.87649593298556 60.942307692952454,244.47287623491138 60.16346153896302,244.67166959046153 57.91346153896302,245.16865280771162 56.875,245.26804942189483 54.7115384619683,245.26804942189483 53.5865384619683,245.06925618369132 51.42307692300528,244.67166959046153 50.38461538543925,244.37347954226425 47.009615384973586,243.7770991815487 45.884615384973586,243.7770991815487 43.634615384973586,243.87649593298556 42.42307692300528,243.87649593298556 40.173076923470944,244.07528940605698 37.923076923470944,244.17468612809898 35.759615384973586,244.07528940605698 33.68269230797887,243.57830564968754 32.64423076948151,243.28011527843773 30.39423076994717,242.5843374019605 29.35576923098415,242.18674982828088 27.278846153989434,241.49097119702492 24.509615384507924,240.6957950302167 23.73076923098415,240.59639796538977 21.653846153989434,240.09941249346593 18.798076923470944,239.20483802672243 18.01923076948151,238.6084546080092 16.201923076994717,237.61448145878967 15.250000000465661,237.11749451659853" stroke="#4dd2ff" stroke-linecap="round" stroke-linejoin="round" stroke-width="0.5"><title>2020-12-03 1.3km</title></polyline><polyline fill="none" points="186.42957746470347,241.4195828778902 186.90492957737297,243.16674705268815 187.0,243.71273529191967 185.3838028172031,244.69551344413776 182.6267605633475,244.5863159147557 178.8239436619915,243.93113051226828 175.21126760542393,242.40236306551378 173.9753521126695,242.18396754353307 166.94014084525406,239.4540198863251 164.3732394366525,239.01722763606813 160.4753521126695,239.12642571493052 157.8133802814409,239.01722763606813 155.91197183122858,239.01722763606813 154.77112676063552,239.01722763606813 152.20422535203397,238.7988314469112 151.348591549322,238.68963333615102 148.401408450678,238.4712370815687 147.26056338008493,238.36203893867787 143.26760563394055,238.0344444444636 142.03169014072046,237.8160480610095 139.5598591552116,237.59765163448174 136.32746478915215,236.17807381262537 135.09154929593205,235.74128027062397 133.0,235.30448655597866 135.3767605633475,235.85047867230605 137.46830985927954,236.83326380269136 139.5598591552116,237.8160480610095 140.79577464796603,237.92524625791702 143.9330985918641,238.25284078449477 144.88380281673744,238.36203893867787 147.35563380317762,238.58043521421496 148.5915492954664,238.68963333615102 151.1584507045336,238.68963333615102 152.29929577512667,238.7988314469112 154.86619718326256,239.01722763606813 156.00704225338995,239.01722763606813 159.5246478873305,239.12642571493052 160.66549295792356,239.12642571493052 162.3767605633475,238.90802954684477 162.94718309864402,238.90802954684477 163.32746478868648,238.90802954684477 163.70774647872895,238.90802954684477 164.08802816877142,238.90802954684477 164.56338028190657,238.7988314469112 165.0387323941104,238.7988314469112 165.9894366194494,238.90802954684477 166.36971830995753,238.90802954684477 167.22535211313516,239.23562378261704 168.08098591538146,239.67241594637744 167.9859154932201,239.89081196358893 167.9859154932201,240.00000995595474 167.8908450701274,240.00000995595474" stroke="#4dd2ff" stroke-linecap="round" stroke-linejoin="round" stroke-width="0.5"><title>2020-11-30 1.0km</title></polyline></svg>