<?xml version="1.0" encoding="utf-8" ?>
<svg baseProfile="full" height="300mm" version="1.1" viewBox="0,0,200,300" width="200mm" xmlns="http://www.w3.org/2000/svg" xmlns:ev="http://www.w3.org/2001/xml-events" xmlns:xlink="http://www.w3.org/1999/xlink"><defs /><rect fill="#222222" height="300" width="200" x="0" y="0" /><text fill="#FFFFFF" style="font-size:12px; font-family:Arial; font-weight:bold;" x="10" y="20">Over 3km Runs</text><text fill="#FFFFFF" style="font-size:4px; font-family:Arial" x="10" y="280">ATHLETE</text><text fill="#FFFFFF" style="font-size:9px; font-family:Arial" x="10" y="290">jdzj</text><text fill="#FFFFFF" style="font-size:4px; font-family:Arial" x="120" y="280">STATISTICS</text><text fill="#FFFFFF" style="font-size:3px; font-family:Arial" x="120" y="285">Number: 13</text><text fill="#FFFFFF" style="font-size:3px; font-family:Arial" x="120" y="290">Weekly: 2.2</text><text fill="#FFFFFF" style="font-size:3px; font-family:Arial" x="141" y="285">Total: 24.0 km</text><text fill="#FFFFFF" style="font-size:3px; font-family:Arial" x="141" y="290">Avg: 1.8 km</text><text fill="#FFFFFF" style="font-size:3px; font-family:Arial" x="167" y="285">Min: 1.0 km</text><text fill="#FFFFFF" style="font-size:3px; font-family:Arial" x="167" y="290">Max: 3.7 km</text><polyline fill="none" points="55.5999999998603,57.168724161572754 52.48913043481298,56.96646608010633 49.43695652182214,54.67420364217833 44.56521739135496,53.86516800511163 40.57391304359771,52.04483432113193 28.36521739140153,52.314513691177126 29.421739130746573,53.46064982749522 19.854347826214507,50.831275838427246 12.399999999906868,51.775154844508506 15.334782608784735,52.17967401939677 20.08913043467328,50.89869581075618 28.89347826107405,53.59548924682895 44.91739130439237,54.26968594331993" stroke="#4dd2ff" stroke-linecap="round" stroke-linejoin="round" stroke-width="0.5"><title>2021-03-23 1.3km</title></polyline><polyline fill="none" points="120.73829787224531,56.144525275274646 106.20425531920046,51.06366897356929 100.2872340423055,52.053449201222975 94.42765957443044,51.39359587873332 96.03617021255195,52.449360882514156 95.40425531915389,52.64731663535349 86.15531914867461,49.87593076698249 78.39999999990687,50.99768357281573 85.58085106383078,50.007901782984845 94.25531914876774,52.51534613984404 105.74468085099943,53.307168721279595 121.60000000009313,58.12406923301751 119.0148936167825,56.87035873980494 121.60000000009313,56.144525275274646" stroke="#4dd2ff" stroke-linecap="round" stroke-linejoin="round" stroke-width="0.5"><title>2021-03-22 1.6km</title></polyline><polyline fill="none" points="181.18775822478347,32.6671405841189 181.78270849271212,33.084339321329026 181.45218056614976,34.4117868503381 184.45998469786718,34.86691066689673 185.253251721384,35.51166848887806 184.98882938025054,36.68740056929528 186.17872991564218,37.48386220287648 187.59999999997672,39.94909018097678 186.74062739079818,42.224671269825194 185.48462127009407,42.75563826109283 185.02188217290677,44.12097860084032 178.90711553173605,49.43058959103655 172.16434583009686,52.04744243866298 170.04896709998138,53.412749929120764 168.4293802601751,54.77805259288289 163.70283091044985,61.301098705414915 144.40000000002328,75.3328594158811" stroke="#4dd2ff" stroke-linecap="round" stroke-linejoin="round" stroke-width="0.5"><title>2021-03-21 1.3km</title></polyline><polyline fill="none" points="31.98289449303411,98.24690476083197 31.434555131942034,94.74051498467452 27.674513798439875,90.06528678792529 26.146997006842867,89.61574309601565 20.976940173190087,94.33592981862603 15.846050436841324,100.85420280473772 14.553536228602752,101.2138289543509 13.143520728452131,105.03483932709787 15.532713659107685,108.45124509424204 21.211942756548524,111.14838951232377 27.361177020706236,116.13806474840385 27.00867314566858,116.40777537244139 27.83118218742311,116.31787184876157 27.087007340276614,115.9133057736617 28.02701767347753,117.48661627745605 30.102873826399446,119.95895041903714 37.97546036820859,123.60000000000582 42.048838479444385,123.19544036692241 51.644777299137786,116.49767887836788 52.93729150760919,113.80056601078832 54.8564792717807,105.16969793345197 52.93729150760919,101.84317403571913 45.76971271587536,95.23500747914659 38.0146274655126,85.47992039000383 32.25706417346373,80.39999999999418 25.79449313180521,89.39097108421265 26.969506048597395,89.52583430457162 28.575357034569606,91.00932710271445 31.708724812371656,95.01023822976276 31.66955771530047,96.26894460321637" stroke="#4dd2ff" stroke-linecap="round" stroke-linejoin="round" stroke-width="0.5"><title>2021-03-20 3.7km</title></polyline><polyline fill="none" points="117.343842364382,112.87763360381359 102.58916256111115,108.15181902679615 86.98325123172253,107.66294011363061 78.61280788155273,105.87038162373938 78.39999999990687,102.93709570448846 79.60591132985428,101.63340973015875 78.47093596076593,99.43343498330796 78.75467980280519,95.6038353361655 83.22364532016218,91.12236639624462 90.60098522156477,92.01866212929599 98.12019704421982,94.54458123544464 112.30738916248083,94.21865662373602 119.89753694552928,92.99643818347249 120.81970443297178,91.93718073912896 119.47192118223757,95.03346791234799 118.62068965472281,105.54446148057468 119.3300492609851,110.92212740262039 121.60000000009313,111.32952490961179" stroke="#4dd2ff" stroke-linecap="round" stroke-linejoin="round" stroke-width="0.5"><title>2021-03-19 1.6km</title></polyline><polyline fill="none" points="161.90719257551245,101.55869357756455 171.2955916475039,105.5881868294382 174.93735498865135,105.35793119622394 178.1113689095946,106.0486976870161 181.45243619498797,105.31955524420482 183.22320185613353,105.47305902990047 187.59999999997672,104.16827492110315 179.48120649671182,106.01032180295442 175.30487238999922,105.35793119622394 170.62737819040194,105.54981090006186 151.95081206504256,99.60149608438951 144.40000000002328,98.79558837265358 146.03712296986487,99.02584788910463 144.93457076570485,98.56532871982199 145.26867749425583,98.37344557174947 147.80788863101043,98.52695209783269 151.1823665894335,97.9513023129839 152.31832946639042,98.79558837265358 152.98654292349238,98.37344557174947 153.78839907201473,99.14097759634024 154.49002320191357,98.91071814802126 155.39211136905942,99.67824911276693 156.52807424601633,99.25610726937884 158.86682134575676,100.94467189439456 159.33457076561172,100.36902568649384 158.13178654306103,98.56532871982199 157.66403712308966,98.6037053381151 157.83109048730694,99.90850810686243 160.00278422271367,100.98304827802349 160.90487238997594,98.83396496824571 161.4060324827442,99.87013161735376 162.07424593972974,99.75500212583574 161.3726218098309,99.94688459270401 161.77354988420848,99.83175512391608 160.80464037135243,98.48857547205989 162.24129930406343,98.37344557174947" stroke="#4dd2ff" stroke-linecap="round" stroke-linejoin="round" stroke-width="0.5"><title>2021-03-19 3.1km</title></polyline><polyline fill="none" points="30.578975394484587,171.60000000000582 30.336349535966292,170.84754040191183 29.875360404723324,170.76393365624244 29.196008000755683,171.40491807440412 30.0209359198343,166.69504213228356 29.70552230370231,167.83768197047175 29.851097818813287,169.92786483844975 29.39010868757032,170.29016162990592 26.769749415339902,170.23442369219265 26.454335799091496,168.56228044902673 26.67269907181617,167.08521235274384 33.029496565810405,165.6638753846928 37.29971167631447,165.3851810232154 37.154136161203496,138.43413744377904 38.58562872663606,136.59457226551604 41.54566420102492,133.9745648126409 41.011887312168255,132.63667929236544 37.39676201972179,128.39999999999418" stroke="#4dd2ff" stroke-linecap="round" stroke-linejoin="round" stroke-width="0.5"><title>2021-03-18 2.7km</title></polyline><polyline fill="none" points="93.05132498312742,168.03521733227535 94.26078237534966,168.24491175403818 94.44334198173601,169.26716969074914 94.89974099758547,169.52928647698718 97.36429568333551,170.0273076586891 100.55908879463095,169.73897971978295 102.77262402162887,170.36805845570052 104.82641959318426,171.60000000000582 105.35127846128307,169.94867279723985 105.05461910110898,162.95007694582455 106.948675016989,162.76659068002482 104.23310087248683,162.0064319432422 101.60880653106142,161.8753698723158 100.44498904061038,160.6171707023459 98.14017401030287,136.78889908554265 100.65036859770771,133.85281454000506 102.43032475968357,132.83042033974198 101.15240751521196,130.54968063603155 98.96169223892502,128.39999999999418" stroke="#4dd2ff" stroke-linecap="round" stroke-linejoin="round" stroke-width="0.5"><title>2021-03-17 2.8km</title></polyline><polyline fill="none" points="145.85531914886087,147.66863893292611 146.39148936187848,147.66863893292611 149.07234042556956,148.81234774994664 149.83829787233844,149.78010021912633 157.80425531882793,151.97953374456847 166.22978723421693,153.12323703494621 169.06382978707552,152.9472827782738 171.05531914904714,153.38716835546074 172.05106383003294,153.7390766608878 176.03404255304486,154.35491586168064 179.3276595743373,155.67456986074103 180.39999999990687,155.938500426244 182.23829787271097,156.90624516509706 183.77021276624873,157.87398885394214 184.38297872338444,158.0499421391869 185.07234042556956,158.4018486055429 186.75744680827484,158.84173149324488 187.60000000009313,158.75375493313186 187.52340425550938,158.75375493313186 187.52340425550938,158.75375493313186 187.2936170217581,158.84173149324488 187.44680851092562,158.75375493313186 187.52340425550938,158.75375493313186 187.60000000009313,158.84173149324488 187.14042553165928,158.75375493313186 186.14468085113913,158.75375493313186 182.77446808479726,158.84173149324488 180.47659574495628,158.13791876891628 178.25531914876774,157.69803553412203 176.03404255304486,157.52208217961015 173.81276595732197,157.61005886102794 172.6638297876343,157.69803553412203 170.44255319144577,157.87398885394214 169.44680851045996,157.87398885394214 166.0,157.61005886102794 164.92765957443044,157.34612878994085 162.85957446787506,156.8182684138883 161.78723404277116,156.29040772549342 159.7191489362158,155.58659298793646 158.64680851064622,155.2346854112111 154.2808510637842,154.35491586168064 151.44680851092562,153.21121415047674 151.2170212767087,152.68335132760694 152.13617021264508,152.50739698391408 152.51914893602952,152.50739698391408 152.8255319148302,152.15548819262767 152.51914893602952,152.06751097290544 151.75319148926064,151.89155650773318 151.3702127658762,151.80357926228317 151.14042553212494,151.71560200792737 150.68085106369108,151.71560200792737 150.37446808535606,151.53964747331338 149.99148936150596,151.53964747331338 149.60851063812152,151.53964747331338 149.07234042556956,151.36369290412404 148.68936170218512,151.18773830024293 148.4595744679682,151.09976098511834 147.69361702119932,150.65987428009976 147.4638297869824,150.48391953727696 147.0808510640636,150.2199873578502 146.85106382984668,150.0440325284726 146.62127659562975,149.78010021912633 146.31489361682907,149.4281903518131 145.77872340427712,148.98830282251583 145.31914893630892,148.72437020065263 145.089361702092,148.54841507604579 144.70638297870755,148.10852711292682 144.55319148907438,147.31672823266126 144.55319148907438,146.61290641583037 144.47659574495628,146.17301749810576 144.39999999990687,145.82110620784806 144.6297872341238,145.11728321108967 144.55319148907438,144.14952568360604 144.55319148907438,143.7096355513786 144.47659574495628,143.44570136774564 144.6297872341238,143.18176710634725 144.55319148907438,143.09378900186857 144.6297872341238,142.47794202715158 144.70638297870755,142.03805107047083 145.089361702092,141.9500728531857 145.85531914886087,141.68613814905984 146.2382978722453,141.5101816362585 146.46808510646224,141.42220336699393 146.92765957443044,141.24624680232955 147.0042553190142,141.24624680232955 147.0042553190142,141.15826850681333 147.0808510640636,141.15826850681333" stroke="#4dd2ff" stroke-linecap="round" stroke-linejoin="round" stroke-width="0.5"><title>2021-03-02 1.4km</title></polyline><polyline fill="none" points="20.33674418600276,198.63473096734378 20.839069767389446,198.8655182318762 26.364651162642986,199.9040603605099 29.880930232815444,201.17338837636635 31.186976743862033,201.7503552014241 34.70325581403449,202.6735015292652 36.00930232508108,202.6735015292652 39.726511627901345,202.44271501596086 40.93209302285686,202.0965351597406 44.649302325211465,201.8657485321164 46.95999999996275,202.6735015292652 48.165581395383924,203.13507442036644 50.2753488374874,203.9428265412571 52.28465116256848,204.28900585090742 54.79627906996757,204.05821965599898 55.19813953433186,203.82743341545574 55.59999999962747,204.05821965599898 55.4995348835364,205.6737220658688 53.69116279063746,206.13529377325904 52.18418604647741,207.40461502957623 51.480930231977254,207.63540056510828 50.777674418408424,207.86618605465628 50.37581395311281,207.86618605465628 49.77302325563505,207.9815787820844 49.3711627908051,208.2123642032966 47.96465116273612,208.78932755754795 48.165581395383924,209.36629062704742 48.868837208952755,209.827860878082 48.868837208952755,209.9432534124935 48.868837208952755,210.05864593526348 48.96930232550949,209.9432534124935 48.4669767441228,209.827860878082 47.864186046179384,210.05864593526348 47.66325581399724,210.17403844662476 47.46232558088377,210.2894309469266 47.3618604647927,210.40482343558688 47.3618604647927,210.40482343558688 46.95999999996275,209.827860878082 46.75906976731494,209.5970757753821 46.4576744181104,209.25089803617448 46.35720930201933,209.0201128196204 45.35255813971162,208.78932755754795 44.950697673950344,208.78932755754795 44.44837209302932,208.78932755754795 43.946046511642635,208.6739349096315 43.34325581416488,208.6739349096315 42.84093023231253,208.6739349096315 41.83627906953916,208.44314957945608 41.333953488152474,208.3277568970807 40.83162790723145,208.2123642032966 40.3293023253791,208.09697149845306 39.324651163071394,207.86618605465628 38.92279069731012,207.63540056510828 38.420465116389096,207.52000780310482 37.91813953500241,207.2892222451046 37.415813953150064,207.05843664170243 37.01395348832011,206.71225815138314 36.109767441637814,206.25068667158484 35.205581394955516,205.78911500959657 34.50232558185235,205.09675717516802 33.99999999953434,204.86597113974858 33.497674418613315,204.6351850583451 32.99534883722663,204.40439893153962 32.49302325537428,204.17361275921576 32.191627907101065,204.05821965599898 31.38790697650984,203.71204027778003 30.986046511679888,203.59664712916128 30.584186046384275,203.481253968901 30.182325581088662,203.25046761462 29.680000000167638,203.13507442036644 29.17767441831529,203.0196812148206 28.072558139450848,202.9042879975168 27.670697674620897,202.78889476926997 27.16837209276855,202.6735015292652 26.565581395290792,202.6735015292652 26.16372092999518,202.55810827831738 25.15906976722181,202.44271501596086 24.656744185835123,202.21192845655605 23.752558139618486,201.51956850558054 22.747906976845115,201.17338837636635 22.346046511549503,201.05799497733824 21.843720930162817,200.94260156701785 21.24093023268506,200.82720814505592 20.839069767389446,200.71181471191812 20.33674418600276,200.48102781083435 19.432558139320463,200.01945387327578 18.93023255839944,199.78866683598608 18.528372092638165,199.5578797532944 17.523720930330455,198.98091184732039 17.222325581591576,198.75012460537255 16.820465115830302,198.51933731802274 15.916279069613665,197.9423688998213 15.514418604783714,197.59618771250825 15.012093023397028,196.9038250304293 14.308837209362537,196.09606805024669 13.10325581394136,195.1729165329598 13.10325581394136,194.82673452654853 12.902325581293553,194.24976428749505 12.701395349111408,193.78818789147772 12.399999999906868,192.28806334722321 12.701395349111408,191.71109185670502 12.80186046473682,191.13412008155137 12.902325581293553,190.67254245653749 13.002790697850287,190.32635911833495 13.002790697850287,189.74938666028902 13.002790697850287,188.24925693811383 13.002790697850287,187.21070446551312 14.10790697671473,186.7491252926411 14.911627906840295,186.28754593792837 15.614883721340448,186.0567561921198 16.117209302727133,185.94136130227707 16.318139534909278,185.71057148836553 17.7246511625126,185.59517656441312" stroke="#4dd2ff" stroke-linecap="round" stroke-linejoin="round" stroke-width="0.5"><title>2020-12-25 1.0km</title></polyline><polyline fill="none" points="79.04962405981496,193.01011688623112 79.53684210544452,193.4764634478488 79.94285714253783,193.9428097794298 80.8360902252607,194.50242507416988 84.32781954854727,195.4351164958207 86.19548872159794,195.99473090743413 87.41353383474052,196.27453798922943 93.09774436056614,198.51299166184617 94.72180451126769,199.6322165117017 96.5894736838527,200.4716342794709 99.35037593962625,201.4975883178413 100.40601503755897,201.68412529595662 102.35488721821457,201.68412529595662 103.49172932328656,201.68412529595662 105.4406015034765,201.31105130293872 107.2270676693879,201.12451425072504 109.25714285718277,201.21778278140118 110.39398496225476,201.12451425072504 113.56090225558728,201.68412529595662 114.61654135305434,202.0571991421748 116.64661654084921,202.4302728413022 117.78345864685252,202.3370044301846 119.81353383464739,202.24373601010302 120.70676691737026,202.15046758082462 121.60000000009313,202.5235412431648 121.5187969924882,202.61680963559775 121.27518797013909,202.7100780188921 121.19398496253416,202.80334639316425 121.19398496253416,202.89661475800676 121.11278195492923,202.80334639316425 120.95037594018504,202.98988311371068 120.95037594018504,202.80334639316425 121.03157894778997,202.89661475800676 121.11278195492923,202.98988311371068 121.03157894778997,202.89661475800676 121.19398496253416,202.7100780188921 121.11278195492923,202.7100780188921 121.03157894778997,202.7100780188921 121.03157894778997,202.80334639316425 121.03157894778997,202.7100780188921 121.03157894778997,202.7100780188921 121.03157894778997,202.7100780188921 121.03157894778997,202.80334639316425 120.95037594018504,202.80334639316425 120.95037594018504,202.80334639316425 120.86917293211445,202.80334639316425 120.78796992497519,202.80334639316425 120.95037594018504,202.80334639316425 120.95037594018504,202.80334639316425 120.95037594018504,202.80334639316425 120.86917293211445,202.80334639316425 120.86917293211445,202.89661475800676 120.70676691737026,202.80334639316425 118.83909774431959,202.80334639316425 116.7278195489198,202.80334639316425 114.61654135305434,202.3370044301846 113.6421052631922,202.0571991421748 111.61203007493168,201.4975883178413 110.55639097746462,201.31105130293872 108.3639097744599,201.31105130293872 107.30827067699283,201.21778278140118 105.11578947398812,201.40431981475558 102.84210526291281,201.68412529595662 101.78646616544574,201.68412529595662 99.59398496244103,201.59085681155557 98.45714285690337,201.31105130293872 93.34135338338092,199.6322165117017 92.28571428591385,199.2591417087242 89.28120300779119,198.51299166184617 88.46917293220758,198.41972286475357 85.2210526317358,197.86010988795897 83.35338345821947,197.02068980206968 82.2977443607524,196.46107599773677 80.26766917295754,195.34184739505872 78.39999999990687,194.6889634320978" stroke="#4dd2ff" stroke-linecap="round" stroke-linejoin="round" stroke-width="0.5"><title>2020-12-08 1.1km</title></polyline><polyline fill="none" points="144.39999999990687,193.54700863582548 144.81538461521268,193.6265267742565 147.58461538446136,195.77351353981066 148.48461538460106,196.09158516704338 152.0153846151661,197.12531708920142 153.67692307685502,197.60242368321633 154.50769230769947,197.92049458884867 156.4461538461037,198.63615366839804 158.17692307685502,199.51084723614622 159.07692307699472,200.06746992160333 163.50769230746664,201.5783009879524 164.47692307713442,201.6578183340025 167.24615384615026,201.3397489024792 168.0769230767619,201.2602315248805 172.43846153840423,201.3397489024792 173.33846153807826,201.4192662721034 176.03846153849736,202.2144395375508 178.8076923075132,202.45299136417452 179.63846153835766,202.3734740962973 181.43846153863706,202.45299136417452 184.20769230742007,202.0554049469647 185.03846153826453,201.97588764008833 186.76923076924868,201.81685300270328 187.5999999998603,201.73733567236923 187.25384615384974,201.1011967464001 185.31538461521268,201.02167934528552 184.48461538460106,201.1011967464001 182.75384615384974,201.5783009879524 182.1307692306582,201.73733567236923 180.33076923061162,202.13492224615766 179.49999999976717,202.2144395375508 177.76923076901585,202.2144395375508 176.86923076910898,202.0554049469647 175.13846153812483,201.73733567236923 174.30769230774604,201.4987836338114 171.60769230755977,201.02167934528552 170.7076923076529,201.02167934528552 168.90769230760634,201.1011967464001 167.9384615381714,201.1011967464001 166.13846153835766,201.2602315248805 164.3384615383111,201.3397489024792 162.60769230755977,201.2602315248805 160.9461538461037,200.8626445197733 160.11538461525925,200.62409222277347 158.3153846154455,200.06746992160333 157.48461538460106,199.74939986265963 155.82307692291215,199.19277695764322 153.60769230732694,198.55663602420827 152.98461538436823,198.4771183723351 151.32307692291215,198.07952999480767 149.03846153849736,197.3638704214245 148.4153846153058,196.88676368643064 146.9615384612698,196.09158516704338 146.19999999995343,195.69399561325554" stroke="#4dd2ff" stroke-linecap="round" stroke-linejoin="round" stroke-width="0.5"><title>2020-12-03 1.3km</title></polyline><polyline fill="none" points="55.143661971669644,247.1356663023471 55.52394366171211,248.5333976421971 55.60000000009313,248.97018823353574 54.30704225366935,249.75641075527528 52.101408450398594,249.66905273188604 49.059154929593205,249.14490440982627 46.16901408415288,247.92189045244595 45.18028169032186,247.74717403482646 39.55211267620325,245.5632159090601 37.49859154922888,245.2137821089127 34.380281690042466,245.30114057194442 32.25070422515273,245.2137821089127 30.729577464517206,245.2137821089127 29.81690140813589,245.2137821089127 27.763380281627178,245.03906515752897 27.078873238991946,244.9517066690023 24.721126760356128,244.77698966528988 23.808450703974813,244.689631150919 20.61408450687304,244.42755555553595 19.625352112110704,244.25283844885416 17.647887323983014,244.07812130759703 15.061971831135452,242.9424590501003 14.073239436373115,242.5930242165341 12.399999999906868,242.24358924478292 14.301408450584859,242.6803829378914 15.974647887516767,243.4666110422113 17.647887323983014,244.25283844885416 18.63661971827969,244.3401970063569 21.14647887321189,244.60227262758417 21.907042253296822,244.689631150919 23.884507042355835,244.86434817139525 24.87323943618685,244.9517066690023 26.926760563161224,244.9517066690023 27.8394366200082,245.03906515752897 29.892957746516913,245.2137821089127 30.805633802898228,245.2137821089127 33.61971830949187,245.30114057194442 34.53239436633885,245.30114057194442 35.90140845067799,245.1264236375573 36.35774647863582,245.1264236375573 36.66197183076292,245.1264236375573 36.96619718289003,245.1264236375573 37.27042253501713,245.1264236375573 37.6507042250596,245.03906515752897 38.030985915102065,245.03906515752897 38.79154929565266,245.1264236375573 39.09577464777976,245.1264236375573 39.780281690414995,245.38849902612856 40.464788732118905,245.73793275706703 40.388732394203544,245.91264957090607 40.388732394203544,246.00000796472887 40.31267605628818,246.00000796472887" stroke="#4dd2ff" stroke-linecap="round" stroke-linejoin="round" stroke-width="0.5"><title>2020-11-30 1.0km</title></polyline></svg>