<?xml version="1.0" encoding="utf-8" ?>
<svg baseProfile="full" height="300mm" version="1.1" viewBox="0,0,200,300" width="200mm" xmlns="http://www.w3.org/2000/svg" xmlns:ev="http://www.w3.org/2001/xml-events" xmlns:xlink="http://www.w3.org/1999/xlink"><defs /><rect fill="#222222" height="300" width="200" x="0" y="0" /><text fill="#FFFFFF" style="font-size:12px; font-family:Arial; font-weight:bold;" x="10" y="20">Over 3km Runs</text><text fill="#FFFFFF" style="font-size:4px; font-family:Arial" x="10" y="280">ATHLETE</text><text fill="#FFFFFF" style="font-size:9px; font-family:Arial" x="10" y="290">jdzj</text><text fill="#FFFFFF" style="font-size:4px; font-family:Arial" x="120" y="280">STATISTICS</text><text fill="#FFFFFF" style="font-size:3px; font-family:Arial" x="120" y="285">Number: 18</text><text fill="#FFFFFF" style="font-size:3px; font-family:Arial" x="120" y="290">Weekly: 2.6</text><text fill="#FFFFFF" style="font-size:3px; font-family:Arial" x="141" y="285">Total: 30.9 km</text><text fill="#FFFFFF" style="font-size:3px; font-family:Arial" x="141" y="290">Avg: 1.7 km</text><text fill="#FFFFFF" style="font-size:3px; font-family:Arial" x="167" y="285">Min: 1.0 km</text><text fill="#FFFFFF" style="font-size:3px; font-family:Arial" x="167" y="290">Max: 3.7 km</text><polyline fill="none" points="12.25,47.39889063627925 16.82364975474775,52.0432009549113 22.19271685765125,53.185240195773076 28.489770867628977,56.45907665556297 37.10679214424454,56.306805500236806 41.879296235740185,57.60110936372075 52.75,56.306805500236806 45.127250409452245,57.44883843360003 35.913666121196,56.078398710873444 27.694353519007564,56.45907665556297 15.365384615492076,53.10910429881187 14.105973813682795,52.42388088948792 15.564238952938467,51.81479290389689" stroke="#4dd2ff" stroke-linecap="round" stroke-linejoin="round" stroke-width="0.5"><title>2021-03-29 1.2km</title></polyline><polyline fill="none" points="76.7614520015195,72.75 74.87405156018212,62.10714260087116 73.56107734004036,61.73040211893385 67.16032801801339,52.500214032130316 62.8931618030183,52.12346977205016 76.18702577985823,32.25 80.61831377213821,34.98144919535844 89.31676797941327,43.83505856554257 88.41409820318222,50.145559976343066 92.1068381969817,71.80815898114815 80.3721311064437,63.99084278731607 76.10496489098296,63.143178161699325 75.6946604475379,64.93269149173284" stroke="#4dd2ff" stroke-linecap="round" stroke-linejoin="round" stroke-width="0.5"><title>2021-03-28 1.4km</title></polyline><polyline fill="none" points="122.0015384615399,45.16413888288662 124.30692307674326,46.523973613628186 124.86769230756909,45.37884979927912 127.11076923087239,45.2357091953163 127.6092307693325,44.09058334771544 128.2946153844241,44.87785756215453 129.35384615394287,44.09058334771544 132.65615384606645,45.951411932474 134.58769230777398,44.520005752448924 140.25769230746664,46.23769282939611 139.8838461539708,44.80628721421817 142.56307692313567,45.092568563413806 140.56923076906241,44.37686497910181 141.06769230775535,43.23173777596094 141.19230769225396,44.80628721421817 140.88076923089102,44.09058334771544 140.19538461556658,45.02099823660683 140.31999999983236,43.87587204994634 141.19230769225396,45.092568563413806 140.25769230746664,44.80628721421817 142.12692307704128,44.591576128441375 142.12692307704128,45.30727950070286 141.31692307675257,44.30529458174715 140.00846153846942,45.02099823660683 142.62538461526856,44.591576128441375 141.81538461521268,43.94744248967618 141.56615384598263,46.09455239516683 140.4446153845638,45.16413888288662 140.31999999983236,45.951411932474 141.8776923075784,44.949427902989555 141.19230769225396,45.02099823660683 142.75,46.95339457812952 142.56307692313567,44.87785756215453 141.62846153858118,45.02099823660683 142.12692307704128,46.02298216725467 140.7561538463924,46.45240342832403 140.56923076906241,45.6651309223962 139.8215384616051,46.73868412763113 137.20461538457312,46.38083323586034 137.20461538457312,44.949427902989555 137.82769230753183,57.25942148291506 130.78692307695746,58.83394048089394 125.05461538466625,56.97314493457088 125.49076923076063,57.90354330436094 123.74615384615026,56.97314493457088 113.65230769221671,56.47216070286231 108.60538461548276,57.97511236020364 108.16923076915555,60.55159367294982 106.985384615371,61.48198745417176 102.93538461532444,61.76826222403906 102.25,60.62316246761475" stroke="#4dd2ff" stroke-linecap="round" stroke-linejoin="round" stroke-width="0.5"><title>2021-03-26 1.5km</title></polyline><polyline fill="none" points="151.5304878053721,49.93362239241833 164.3719512198586,55.17444208118832 168.88763066218235,54.850269122223835 172.83885017433204,55.71472991997143 178.53048780513927,54.58012484322535 180.78832752630115,54.850269122223835 187.75,52.36493673006771 181.58797909435816,54.850269122223835 173.63850174238905,55.498614848416764 169.45209059258923,54.63415370968869 164.79529616772197,55.01235562574584 154.77613240433857,52.58105303783668 147.25,49.28527008002857" stroke="#4dd2ff" stroke-linecap="round" stroke-linejoin="round" stroke-width="0.5"><title>2021-03-26 1.6km</title></polyline><polyline fill="none" points="52.75,104.84361843741499 49.655772495782,104.44871698744828 45.048811544664204,101.52644020324806 41.12945670587942,101.60542079724837 35.49108658730984,99.39396122511243 21.73896434600465,99.78886516811326 23.80178268207237,100.8156145082321 22.976655347971246,101.05255647655576 12.25,97.65638156264322 20.913837011437863,100.97357582813129 33.221986417425796,101.76338196161669 43.742359932046384,104.29075635276968" stroke="#4dd2ff" stroke-linecap="round" stroke-linejoin="round" stroke-width="0.5"><title>2021-03-24 1.1km</title></polyline><polyline fill="none" points="97.75,104.22067890147446 94.8335597824771,104.0310619500815 91.97214673901908,101.88206591451308 87.4048913042061,101.12359500478487 83.66304347827099,99.41703217604663 72.21739130443893,99.66985658550402 73.20788043504581,100.74435921327677 64.23845108714886,98.27932109846734 57.25,99.1642076667049 60.001358695561066,99.54344439320266 64.4585597824771,98.34252732252935 72.71263586962596,100.87077116890578 87.73505434789695,101.50283057184424" stroke="#4dd2ff" stroke-linecap="round" stroke-linejoin="round" stroke-width="0.5"><title>2021-03-23 1.3km</title></polyline><polyline fill="none" points="141.94215425499715,103.26049244561 128.3164893614594,98.4971896627685 122.76928191469051,99.42510862619383 117.27593085099943,98.80649613635615 118.78390957415104,99.7962758273934 118.19148936145939,99.98185934562935 109.52061170176603,97.38368509407155 102.25,98.4353283495293 108.98204787215218,97.50740792159922 117.11436170199886,99.8581370061147 127.88563829776831,100.60047067626147 142.75,105.11631490598666 140.32646276568994,103.94096131855622 142.75,103.26049244561" stroke="#4dd2ff" stroke-linecap="round" stroke-linejoin="round" stroke-width="0.5"><title>2021-03-22 1.6km</title></polyline><polyline fill="none" points="181.73852333577815,81.25044429762056 182.29628921183757,81.6415681137587 181.98641928075813,82.88605017220834 184.80623565416317,83.31272875022842 185.54992348875385,83.917189208325 185.3020275438903,85.01943803371978 186.41755929589272,85.76612081518397 187.75,88.07727204466937 186.9443381788442,90.21062931543565 185.7668324407423,90.70841086975997 185.33301453711465,91.98841743828962 179.60042081098072,96.96617774158949 173.27907421567943,99.41947728622472 171.2959066563053,100.69945305853616 169.7775439938996,101.97942430581315 165.34640397853218,108.09478003630647 147.25,121.24955570237944" stroke="#4dd2ff" stroke-linecap="round" stroke-linejoin="round" stroke-width="0.5"><title>2021-03-21 1.3km</title></polyline><polyline fill="none" points="30.60896358732134,146.48147321326542 30.094895436195657,143.19423279812327 26.569856686284766,138.8112063636654 25.137809693813324,138.3897591525165 20.290881412336603,142.8149342049437 15.480672284727916,148.9258151294198 14.268940214300528,149.26296464467305 12.947050682967529,152.84516186913243 15.186919055413455,156.04804227585555 20.511196334380656,158.5766151677817 26.276103456970304,163.25443570161588 25.94563107402064,163.50728941164562 26.71673330082558,163.42300485819578 26.019069381523877,163.04372416279512 26.9003290690016,164.51870276010595 28.846444212365896,166.83651601785095 36.22699409537017,170.25 40.045786074595526,169.8707253439643 49.041978718014434,163.59157394847716 50.25371078867465,161.06303063509404 52.0529493172653,152.97159181258758 50.25371078867465,149.85297565849032 43.534105671336874,143.657819511689 36.26371324900538,134.51242536562495 30.865997662767768,129.75 24.80733731109649,138.1790353914257 25.908911920618266,138.30546966052498 27.414397219894454,139.69624415878206 30.351929511642084,143.4470983404026 30.31521035823971,144.62713556550443" stroke="#4dd2ff" stroke-linecap="round" stroke-linejoin="round" stroke-width="0.5"><title>2021-03-20 3.7km</title></polyline><polyline fill="none" points="93.75985221681185,160.19778150354978 79.92733990121633,155.76733033760684 65.29679802968167,155.30900635645958 57.449507389217615,153.628482772212 57.25,150.87852722289972 58.38054187200032,149.65632162196562 57.31650246330537,147.59384529676754 57.58251231512986,144.0035956276115 61.772167487535626,139.80221849639202 68.6884236454498,140.64249574620044 75.7376847290434,143.01054490817478 89.03817733982578,142.70499058469431 96.15394088672474,141.55916079698363 97.01847290620208,140.56610694288975 95.75492610828951,143.46887616778258 94.95689655165188,153.3229326379951 95.62192118237726,158.36449443991296 97.75,158.74642960273195" stroke="#4dd2ff" stroke-linecap="round" stroke-linejoin="round" stroke-width="0.5"><title>2021-03-19 1.6km</title></polyline><polyline fill="none" points="118.66299303958658,149.58627522893948 127.46461716957856,153.36392515257467 130.8787703019334,153.14806049643084 133.85440835275222,153.79565408156486 136.98665893287398,153.1120830414293 138.64675174013246,153.25599284050986 142.75,152.03275773851783 135.13863109075464,153.7596766902425 131.22331786563154,153.14806049643084 126.83816705353092,153.3279477187898 109.3288863110356,147.75140257910243 102.25,146.99586409932817 103.78480278432835,147.21173239601194 102.75116009288467,146.77999567482038 103.06438515090849,146.60010522350785 105.44489559170324,146.74401759169996 108.60846867761575,146.20434591840603 109.67343387485016,146.99586409932817 110.29988399078138,146.60010522350785 111.05162412999198,147.31966649653623 111.70939675183035,147.10379826373537 112.55510440852959,147.82335854318808 113.620069605764,147.4276005650463 115.8126450116979,149.01062990099308 116.25116009288467,148.4709615810716 115.12354988406878,146.77999567482038 114.685034802882,146.81597375447745 114.8416473318357,148.0392263501708 116.8776102088159,149.0466077606252 117.72331786563154,147.03184215771034 118.19315545260906,148.0032483912364 118.81960556854028,147.89531449295464 118.16183294681832,148.07520430564182 118.53770301642362,147.96727042866405 117.6293503481429,146.70803950502886 118.9762180976104,146.60010522350785" stroke="#4dd2ff" stroke-linecap="round" stroke-linejoin="round" stroke-width="0.5"><title>2021-03-19 3.1km</title></polyline><polyline fill="none" points="164.29278943233658,170.25 164.06532768986654,169.54456912676687 163.6331503794063,169.46618780269637 162.996257500723,170.06711069471203 163.7696274247719,165.65160199900856 163.47392715967726,166.7228268473118 163.61040420515928,168.68237328602117 163.17822689458262,169.02202652799315 160.7216400768375,168.9697722114215 160.42593981162645,167.40213792095892 160.6306553798495,166.01738658067188 166.59015303046908,164.68488317311858 170.5934796964284,164.4236072092608 170.4570026511792,139.1570038535283 171.7990269312868,137.4324114988849 174.57406018837355,134.97615451182355 174.07364435505588,133.7218868365744 170.68446439353283,129.75" stroke="#4dd2ff" stroke-linecap="round" stroke-linejoin="round" stroke-width="0.5"><title>2021-03-18 2.7km</title></polyline><polyline fill="none" points="25.985617171623744,215.6580162490136 27.11948347685393,215.85460476942535 27.29063310776837,216.81297158508096 27.718507185112685,217.05870607218822 30.02902720309794,217.52560093002103 33.02414574485738,217.25529348730925 35.099335020175204,217.84505480223743 37.024768368457444,219.0 37.51682355743833,217.45188074742327 37.2387054071296,210.89069713673962 39.014382828376256,210.71867876253964 36.46853206783999,210.0060299468023 34.00825612281915,209.88315925530333 32.91717722546309,208.70359753347293 30.756413134629838,186.36459289271443 33.10972056025639,183.61201363126747 34.77842946210876,182.65351906852447 33.580382045474835,180.51532559629413 31.52658647391945,178.5" stroke="#4dd2ff" stroke-linecap="round" stroke-linejoin="round" stroke-width="0.5"><title>2021-03-17 2.8km</title></polyline><polyline fill="none" points="58.61436170199886,196.5643489995855 59.11702127661556,196.5643489995855 61.6303191492334,197.63657601556042 62.34840425522998,198.54384395538364 69.81648936169222,200.60581288556568 77.71542553184554,201.6780347202439 80.3723404253833,201.5130776046426 82.23936170199886,201.92547033325536 83.17287234030664,202.25538436957868 86.90691489353776,202.8327336203074 89.99468085123226,204.06990924442653 91.0,204.31734414957464 92.72340425569564,205.22460484225303 94.15957446815446,206.13186455052346 94.73404255323112,206.2968207554659 95.3803191492334,206.6267330676783 96.9601063830778,207.0391232749098 97.75,206.95664524979657 97.67819148954004,206.95664524979657 97.67819148954004,206.95664524979657 97.4627659576945,207.0391232749098 97.60638297908008,206.95664524979657 97.67819148954004,206.95664524979657 97.75,207.0391232749098 97.31914893630892,206.95664524979657 96.38563829800114,206.95664524979657 93.22606382984668,207.0391232749098 91.07180851092562,206.3792988458299 88.98936170199886,205.96690831327578 86.90691489353776,205.8019520433736 84.82446808507666,205.8844301821664 83.74734042584896,205.96690831327578 81.66489361738786,206.13186455052346 80.73138297861442,206.13186455052346 77.5,205.8844301821664 76.49468085123226,205.6369957405841 74.55585106369108,205.14212663803482 73.55053191492334,204.6472572426428 71.61170212784782,203.9874309261795 70.60638297908008,203.6575175729813 66.51329787261784,202.8327336203074 63.85638297908008,201.76051326608285 63.64095744676888,201.26564186962787 64.5026595746167,201.10068467236124 64.86170212784782,201.10068467236124 65.14893617015332,200.77077018056298 64.86170212784782,200.68829153710976 64.14361702091992,200.52333422598895 63.78457446815446,200.44085555832135 63.56914893630892,200.35837688238826 63.13829787261784,200.35837688238826 62.85106382984668,200.19341950619128 62.49202127661556,200.19341950619128 62.13297872338444,200.19341950619128 61.6303191492334,200.02846209757263 61.27127659600228,199.8635046564741 61.05585106369108,199.78102592355572 60.3377659576945,199.3686321376008 60.1223404253833,199.20367456617532 59.76329787261784,198.95623814797727 59.54787234030664,198.79128049546853 59.3324468084611,198.54384395538364 59.04521276568994,198.2139284547884 58.5425531915389,197.80153389606858 58.11170212784782,197.55409706308274 57.89627659600228,197.38913913373835 57.53723404277116,196.9767441683798 57.39361702091992,196.23443271807628 57.39361702091992,195.5745997648337 57.32180851092562,195.16220390447415 57.25,194.83228706987575 57.46542553184554,194.17245301039657 57.39361702091992,193.265180328337 57.39361702091992,192.85278332937742 57.32180851092562,192.60534503223607 57.46542553184554,192.35790666216053 57.39361702091992,192.27542718924815 57.46542553184554,191.6980706504546 57.53723404277116,191.2856728785555 57.89627659600228,191.20319329987979 58.61436170199886,190.9557545147254 58.97340425522998,190.79079528397415 59.18882978707552,190.70831565652043 59.61968085123226,190.54335637716576 59.69148936169222,190.54335637716576 59.69148936169222,190.4608767250902 59.76329787261784,190.4608767250902" stroke="#4dd2ff" stroke-linecap="round" stroke-linejoin="round" stroke-width="0.5"><title>2021-03-02 1.4km</title></polyline><polyline fill="none" points="109.69069767463952,199.3450602820376 110.16162790730596,199.56142334244214 115.34186046523973,200.53505658800714 118.6383720934391,201.72505160293076 119.8627906977199,202.26595800137147 123.15930232591927,203.13140768371522 124.38372093020007,203.13140768371522 127.86860465165228,202.91504532750696 128.99883720930666,202.5905017122859 132.4837209302932,202.37413924885914 134.64999999990687,203.13140768371522 135.78023255849257,203.56413226912264 137.75813953531906,204.3213998825522 139.64186046505347,204.645942985313 141.99651162838563,204.42958092759363 142.37325581396,204.21321882703342 142.75,204.42958092759363 142.65581395383924,205.9441144367447 140.96046511642635,206.37683791248128 139.5476744188927,207.56682659033686 138.88837209297344,207.78318802977446 138.22906976751983,207.99954942625482 137.85232558147982,207.99954942625482 137.28720930218697,208.10773010831326 136.9104651166126,208.32409144064877 135.59186046523973,208.86499458528124 135.78023255849257,209.40589746297337 136.43953488394618,209.83861957327463 136.43953488394618,209.94680007430725 136.43953488394618,210.05498056439683 136.53372093010694,209.94680007430725 136.06279069790617,209.83861957327463 135.49767441861331,210.05498056439683 135.30930232582614,210.1631610437762 135.1209302325733,210.2713415127946 135.02674418594688,210.37952197086997 135.02674418594688,210.37952197086997 134.64999999990687,209.83861957327463 134.4616279071197,209.622258539428 134.17906976724043,209.29771690897178 134.08488372107968,209.08135576848872 133.14302325621247,208.86499458528124 132.7662790697068,208.86499458528124 132.29534883750603,208.86499458528124 131.8244186048396,208.756813977845 131.2593023260124,208.756813977845 130.78837209334597,208.756813977845 129.8465116280131,208.54045273084193 129.37558139534667,208.43227209104225 128.9046511631459,208.32409144064877 128.4337209300138,208.21591077989433 127.49186046561226,207.99954942625482 127.11511627910659,207.78318802977446 126.64418604690582,207.67500731546897 126.17325581423938,207.45864585484378 125.70232558110729,207.24228435161058 125.32558139553294,206.91774201695807 124.47790697682649,206.4850187546108 123.63023255812004,206.05229532148223 122.9709302331321,205.40320985182188 122.5,205.18684794357978 122.02906976733357,204.970485992264 121.5581395351328,204.75412399834022 121.0872093020007,204.53776196180843 120.80465116305277,204.42958092759363 120.05116279097274,204.10503776045516 119.67441860493273,203.99685668363236 119.29767441842705,203.88867559586652 118.9209302328527,203.67231338878628 118.45000000018626,203.56413226912264 117.97906976751983,203.45595113898162 116.94302325602621,203.34776999778114 116.5662790699862,203.2395888462197 116.09534883731976,203.13140768371522 115.53023255802691,203.13140768371522 115.1534883719869,203.0232265109662 114.21162790711969,202.91504532750696 113.74069767445326,202.6986829281086 112.89302325574681,202.04959547403269 111.95116279087961,201.72505160293076 111.5744186048396,201.61687029129826 111.10348837263882,201.50868896907195 110.53837209334597,201.40050763601903 110.16162790730596,201.29232629248872 109.69069767463952,201.0759635727154 108.84302325593308,200.64323800627608 108.3720930237323,200.42687515879516 107.99534883722663,200.21051226882264 107.05348837235942,199.66960485698655 106.77093023294583,199.45324181765318 106.39418604644015,199.2368787357118 105.54651162819937,198.6959708436625 105.16976744215935,198.37142598058563 104.69883720949292,197.7223359660711 104.03953488403931,196.96506379719358 102.90930232545361,196.0996092496207 102.90930232545361,195.77506361866836 102.72093023266643,195.23415401950479 102.53255813987926,194.80142614839133 102.25,193.3950593881309 102.53255813987926,192.85414861573372 102.62674418604001,192.31323757651262 102.72093023266643,191.8805085531203 102.81511627975851,191.55596167349722 102.81511627975851,191.01504999410827 102.81511627975851,189.60867837956175 102.81511627975851,188.63503543648403 103.85116279125214,188.20230496197473 104.6046511628665,187.769574316917 105.26395348878577,187.55320893018506 105.7348837214522,187.44502622098662 105.92325581423938,187.2286607704591 107.2418604651466,187.12047802924644" stroke="#4dd2ff" stroke-linecap="round" stroke-linejoin="round" stroke-width="0.5"><title>2020-12-25 1.0km</title></polyline><polyline fill="none" points="147.85902255633846,194.0719845808926 148.31578947370872,194.50918448233278 148.69642857136205,194.94638416823 149.53383458638564,195.4710235070088 152.80733082722872,196.34542171488283 154.55827067652717,196.87006022571586 155.70018796995282,197.13237936492078 161.02913533849642,199.2309296830208 162.55169172910973,200.2802029797458 164.30263157887384,201.06715713703306 166.89097744366154,202.02898904803442 167.88063909765333,202.2038674650248 169.70770676713437,202.2038674650248 170.77349624037743,202.2038674650248 172.60056390985847,201.85411059652688 174.2753759403713,201.67923211009474 176.17857142863795,201.76667135755997 177.24436090234667,201.67923211009474 180.2133458647877,202.2038674650248 181.2030075187795,202.55362419580342 183.1062030075118,202.90338078868808 184.17199248168617,202.8159416533308 186.07518797041848,202.72850250947522 186.91259398544207,202.6410633570631 187.75,202.99081991548883 187.67387218028307,203.0782590333838 187.44548872252926,203.16569814272225 187.36936090234667,203.25313724362059 187.36936090234667,203.34057633567136 187.29323308262974,203.25313724362059 187.1409774441272,203.4280154191074 187.1409774441272,203.25313724362059 187.21710526384413,203.34057633567136 187.29323308262974,203.4280154191074 187.21710526384413,203.34057633567136 187.36936090234667,203.16569814272225 187.29323308262974,203.16569814272225 187.21710526384413,203.16569814272225 187.21710526384413,203.25313724362059 187.21710526384413,203.16569814272225 187.21710526384413,203.16569814272225 187.21710526384413,203.16569814272225 187.21710526384413,203.25313724362059 187.1409774441272,203.25313724362059 187.1409774441272,203.25313724362059 187.0648496239446,203.25313724362059 186.988721805159,203.25313724362059 187.1409774441272,203.25313724362059 187.1409774441272,203.25313724362059 187.1409774441272,203.25313724362059 187.0648496239446,203.25313724362059 187.0648496239446,203.34057633567136 186.91259398544207,203.25313724362059 185.16165413567796,203.25313724362059 183.18233082722872,203.25313724362059 181.2030075187795,202.8159416533308 180.28947368450463,202.55362419580342 178.38627819530666,202.02898904803442 177.39661654178053,201.85411059652688 175.34116541361436,201.85411059652688 174.35150375962257,201.76667135755997 172.29605263192207,201.94154982635519 170.16447368403897,202.2038674650248 169.17481203051284,202.2038674650248 167.11936090234667,202.1164282608661 166.05357142863795,201.85411059652688 161.25751879718155,200.2802029797458 160.26785714318976,199.93044535192894 157.45112781971693,199.2309296830208 156.6898496239446,199.1434901856701 153.6447368422523,198.6188530200161 151.8937969924882,197.83189668948762 150.90413533849642,197.3072587478673 149.0009398497641,196.25798193289666 147.25,195.64590321760625" stroke="#4dd2ff" stroke-linecap="round" stroke-linejoin="round" stroke-width="0.5"><title>2020-12-08 1.1km</title></polyline><polyline fill="none" points="12.25,243.3253205961082 12.639423076994717,243.3998688508873 15.235576923238114,245.41266894357977 16.079326923238114,245.71086109412136 19.389423076994717,246.6799847711227 20.947115384740755,247.12727220298257 21.72596153873019,247.42546367709292 23.54326923075132,248.0963940641377 25.165865384740755,248.91641928389436 26.009615384973586,249.43825305148493 30.16346153849736,250.85465717618354 31.072115384973586,250.92920468811644 33.66826923098415,250.6310145960888 34.447115384740755,250.55646705452818 38.53605769248679,250.6310145960888 39.37980769225396,250.7055621300824 41.91105769248679,251.45103706646478 44.50721153849736,251.6746794038918 45.28605769248679,251.60013196524233 46.97355769271962,251.6746794038918 49.56971153849736,251.3019421377685 50.34855769225396,251.22739466262283 51.971153846243396,251.07829969003797 52.75,251.0037521928898 52.42548076948151,250.40737194975372 50.60817307699472,250.33282438619062 49.82932692323811,250.40737194975372 48.20673076948151,250.85465717618354 47.622596153989434,251.0037521928898 45.935096153989434,251.3764896057546 45.15625,251.45103706646478 43.533653846243396,251.45103706646478 42.689903846243396,251.3019421377685 41.06730769225396,251.0037521928898 40.28846153873019,250.78010965674184 37.75721153849736,250.33282438619062 36.91346153873019,250.33282438619062 35.22596153873019,250.40737194975372 34.31730769225396,250.40737194975372 32.62980769248679,250.55646705452818 30.942307692486793,250.6310145960888 29.31971153873019,250.55646705452818 27.76201923098415,250.18372923729476 26.983173076994717,249.9600864588283 25.295673077227548,249.43825305148493 24.516826923238114,249.14006237121066 22.959134615259245,248.6182283977978 20.882211538264528,248.02184627269162 20.298076923238114,247.94729847408598 18.740384615492076,247.574559370114 16.598557692719623,246.90362852008548 16.014423077227548,246.456340956036 14.651442307746038,245.71086109412136 13.9375,245.33812088746345" stroke="#4dd2ff" stroke-linecap="round" stroke-linejoin="round" stroke-width="0.5"><title>2020-12-03 1.3km</title></polyline><polyline fill="none" points="97.32218309864402,248.56468715838855 97.6786971827969,249.8750602895161 97.75,250.28455146891065 96.5378521126695,251.02163508307422 94.47007042216137,250.93973693606677 91.61795774614438,250.4483478841721 88.90845070406795,249.30177229916444 87.98151408461854,249.1379756575916 82.70510563394055,247.09051491471473 80.77992957737297,246.7629207270802 77.85651408415288,246.8448192861979 75.86003521084785,246.7629207270802 74.43397887330502,246.7629207270802 73.5783450701274,246.7629207270802 71.65316901402548,246.5991235851543 71.01144366152585,246.51722500211326 68.8010563380085,246.35342781117652 67.94542253483087,246.2715292039793 64.950704225339,246.0258333333186 64.02376760495827,245.86203604575712 62.16989436605945,245.6982387258322 59.74559859139845,244.63355535943992 58.81866197148338,244.30596020299708 57.25,243.97836491692578 59.03257042216137,244.38785900420044 60.60123239411041,245.12494785204763 62.16989436605945,245.86203604575712 63.09683098550886,245.94393469346687 65.44982394389808,246.18963058834197 66.1628521126695,246.2715292039793 68.01672535203397,246.43532641069032 68.94366197148338,246.51722500211326 70.86883802805096,246.51722500211326 71.72447183076292,246.5991235851543 73.6496478873305,246.7629207270802 74.50528169004247,246.7629207270802 77.14348591538146,246.8448192861979 77.99911971809343,246.8448192861979 79.28257042216137,246.68102216016268 79.71038732398301,246.68102216016268 79.99559859139845,246.68102216016268 80.28080985881388,246.68102216016268 80.56602112622932,246.68102216016268 80.92253521084785,246.5991235851543 81.2790492954664,246.5991235851543 81.99207746423781,246.68102216016268 82.2772887321189,246.68102216016268 82.91901408461854,246.92671783699188 83.56073943618685,247.25431195972487 83.4894366194494,247.4181089727208 83.4894366194494,247.50000746693695 83.4181338022463,247.50000746693695" stroke="#4dd2ff" stroke-linecap="round" stroke-linejoin="round" stroke-width="0.5"><title>2020-11-30 1.0km</title></polyline></svg>