<?xml version="1.0" encoding="utf-8" ?>
<svg baseProfile="full" height="300mm" version="1.1" viewBox="0,0,200,300" width="200mm" xmlns="http://www.w3.org/2000/svg" xmlns:ev="http://www.w3.org/2001/xml-events" xmlns:xlink="http://www.w3.org/1999/xlink"><defs /><rect fill="#222222" height="300" width="200" x="0" y="0" /><text fill="#FFFFFF" style="font-size:12px; font-family:Arial; font-weight:bold;" x="10" y="20">Over 3km Runs</text><text fill="#FFFFFF" style="font-size:4px; font-family:Arial" x="10" y="280">ATHLETE</text><text fill="#FFFFFF" style="font-size:9px; font-family:Arial" x="10" y="290">jdzj</text><text fill="#FFFFFF" style="font-size:4px; font-family:Arial" x="120" y="280">STATISTICS</text><text fill="#FFFFFF" style="font-size:3px; font-family:Arial" x="120" y="285">Number: 65</text><text fill="#FFFFFF" style="font-size:3px; font-family:Arial" x="120" y="290">Weekly: 3.2</text><text fill="#FFFFFF" style="font-size:3px; font-family:Arial" x="141" y="285">Total: 143.6 km</text><text fill="#FFFFFF" style="font-size:3px; font-family:Arial" x="141" y="290">Avg: 2.2 km</text><text fill="#FFFFFF" style="font-size:3px; font-family:Arial" x="167" y="285">Min: 1.0 km</text><text fill="#FFFFFF" style="font-size:3px; font-family:Arial" x="167" y="290">Max: 13.2 km</text><polyline fill="none" points="31.974245473043993,45.31976656994084 31.496177062392235,46.717542436672375 29.714285714318976,47.81579219541163 19.50100603606552,44.37127360459999 12.76458752527833,44.27143213656382 11.460764587391168,43.37285803665873 11.199999999953434,36.6834229255619 12.069215291645378,36.18420780461747 22.152112676063552,37.082794667599956 29.192756539210677,36.43381542660063 30.757344064302742,37.132716113177594 30.235814889194444,44.17159064853331 32.669617706211284,46.717542436672375 31.930784708354622,46.61770143144531 32.800000000046566,46.76746293186443" stroke="#4dd2ff" stroke-linecap="round" stroke-linejoin="round" stroke-width="0.5"><title>2021-06-29 1.4km</title></polyline><polyline fill="none" points="52.6018552876194,46.366136140874005 53.48348794068443,45.061699517435045 53.89758812618675,44.892889272246975 54.08460111316526,45.107738643389894 54.89944341377122,44.708732432089164 54.83265306125395,44.57061465881998 54.9662337662885,44.6473467702308 54.979591836745385,43.143390483470284 55.36697588133393,41.76219332238543 58.065306122472975,39.368089173789485 58.105380334018264,37.97151139329071 58.39925788505934,37.43436275223212 58.71985157713061,37.89477598677331 58.50612244900549,41.34783178122598 58.800000000046566,41.96170033721137 58.132096475048456,42.48348670398991 57.571057513938285,42.130513765179785 57.59777365496848,42.345366953799385 56.72949907241855,42.345366953799385 55.834508348838426,43.25081641499128 55.82115027838154,43.51170765397546 54.95287569571519,43.956756404193584 54.91280148422811,44.67803960418678 54.31168831168907,45.09239226959471 53.737291280180216,45.04635313911422 53.12282003706787,45.337934068753384 52.65528756962158,46.28940487773798 52.29461966606323,46.44286736611684 51.85380333958892,45.399319457952515 49.0486085342709,45.38397311292647 47.75287569576176,45.614168129264726 46.09647495363606,46.56563724778243 38.82968460110715,40.94881591995363 37.680890538031235,40.933469135619816 37.37365491647506,40.733960801240755 37.493877550936304,40.64187994519307 37.9881261595292,40.81069480633596 37.20000000001164,40.36563704974833 37.21335807046853,40.61118631438876 37.94805194804212,40.82604160277697 37.57402597402688,40.94881591995363 37.7476808904903,41.17901750339661" stroke="#4dd2ff" stroke-linecap="round" stroke-linejoin="round" stroke-width="0.5"><title>2021-06-26 3.3km</title></polyline><polyline fill="none" points="63.19999999999709,47.08529209299013 64.25034990131098,47.54384893720635 64.48289969496545,47.73973587765795 64.70382199893356,48.05582437518024 64.54103714336816,48.15821876590053 64.29685986004188,48.53217891516397 64.02167593754712,48.99517290268341 63.97129014892562,49.204409012072574 64.08368921585497,49.31125260875706 64.97125426163257,49.41809595254381 65.01776422034891,49.645137218416494 64.94799928225984,50.42419170389621 65.04489502961223,49.565005137312255 64.77746276689868,48.679090983270726 64.88598600395198,48.460948649411876 65.14566660685523,48.367458755026746 65.50611878700147,48.40752587631869 67.15722232189728,48.79483954864554 67.25411806926422,48.83490629059088 67.21148394042393,49.173246248737996 67.61069441953441,49.204409012072574 67.78123093485192,48.7636765025527 68.16493809438543,47.005155467217264 68.28508882111055,46.86714205596218 69.1842813565454,47.10755224156674 69.48272025838378,47.14316845645226 69.6144984747807,47.071935998581466 69.84317243853002,47.1298123791712 70.25401040729776,46.907210509143624 72.26169029249286,45.531506592618825 72.4089718284522,45.64726323058494 72.24618697290134,46.141451691495604 72.18417369460803,46.89385436205339 72.37021352951706,47.27672901193364 72.50586757579003,47.361317159324244 75.6452897900599,47.34350914146853 76.13364435671247,47.42364516647285 76.77703211913467,47.40583717321351 78.64130629821739,47.26337297417558 79.14516418446146,47.09864818345886 79.7614211376058,46.5376889809304 80.17225910641719,45.972270665435644 80.49395298761374,45.202043767025316 80.65673784317914,44.13349913242928 80.52495962676767,43.608122074845596 79.54437466357194,42.423775083032524 79.05989592679543,41.48428975605566 79.0288892876415,41.57779391170334 79.16066750403843,41.982976346789656 79.11415754529298,41.982976346789656 79.19554997308296,41.996333947517996 79.57538130271132,42.579611989698606 79.61026377175585,42.61523177849813 79.62964292122342,42.56180208474689 79.3350798492902,42.12100469703364 78.57929301989498,40.52252147830586 78.61805131884466,39.97483871314762 81.5636820383952,37.67271729881759 82.15668401219591,37.12054691636877 83.48609366588062,36.31454414167456 83.99382738200075,35.94048271155043 84.02870985107438,35.824701163925056 83.47834200609941,35.192350543260545 83.89693163467746,34.871718671704 84.5286919074133,34.17255515721263 84.57132603623904,33.95879599534601 84.79612417009776,33.811835983749916 84.80000000000291,33.72276907694322 84.49768526824482,33.57580829610015 84.54419522697572,33.65596878139331 84.59458101561177,33.615888556556456 84.60233267540752,33.71831572700103 84.5325677373039,33.669328848416626" stroke="#4dd2ff" stroke-linecap="round" stroke-linejoin="round" stroke-width="0.5"><title>2021-06-21 11.9km</title></polyline><polyline fill="none" points="92.57755359390285,32.8312897378928 92.49583858763799,32.29929992504185 92.74098360654898,32.4557676097611 92.523076922982,32.79999624416814 93.99394703644793,34.36466714396374 97.45321563689504,36.55519342934713 104.53518284996971,42.46953879517969 106.16948297596537,43.064096511516254 108.29407314001583,45.69265410624212 109.19293820927851,49.6980332970561 110.79999999993015,51.76328717035358 109.41084489261266,49.94836781639606 108.34854981082026,45.72394632725627 106.3601513239555,43.157973943831166 101.64791929360945,39.340269278443884 100.28600252198521,38.87087618676014 98.10693568713032,36.86812452014419 97.0446406052215,36.61777967214584 94.02118537202477,33.83267990456079 92.98612862534355,33.45715896273032 92.30517023953144,32.393180545128416 90.04438839841168,32.64352872944437 89.19999999995343,32.23671282964642" stroke="#4dd2ff" stroke-linecap="round" stroke-linejoin="round" stroke-width="0.5"><title>2021-06-16 2.1km</title></polyline><polyline fill="none" points="116.93047210294753,40.63349313905928 116.68326180253644,40.881950811162824 117.95021459215786,41.52084118037601 124.31587982818019,44.11188493933878 127.99313304724637,43.93441678385716 131.67038626607973,44.431327398720896 136.80000000004657,43.756948540743906 134.76051502139308,43.331024400453316 135.13133047195151,42.83411226628232 132.38111587974709,43.2955306993681 129.2600858367514,42.266211844282225 126.97339055780321,42.65664348073187 125.02660944196396,41.84028593968833 121.28755364811514,42.05324895502417 116.99227467807941,40.98843261809088 115.19999999995343,39.56867260125" stroke="#4dd2ff" stroke-linecap="round" stroke-linejoin="round" stroke-width="0.5"><title>2021-06-16 1.4km</title></polyline><polyline fill="none" points="161.72520064201672,42.45798410879797 161.03178170137107,42.85622427868657 153.8895666131284,40.10835911211325 149.1396468699677,40.66589848417789 146.4006420543883,40.34730465160101 145.91524879599456,40.904843693744624 141.19999999995343,39.55081897013588 146.8166934188921,41.14378876177943 153.3348314606119,41.74115081355558 162.79999999993015,44.44918102986412" stroke="#4dd2ff" stroke-linecap="round" stroke-linejoin="round" stroke-width="0.5"><title>2021-06-15 1.2km</title></polyline><polyline fill="none" points="181.04511278192513,46.757607595209265 179.3398496240843,47.78374124711263 176.6601503759157,47.45724441774655 168.78345864685252,35.143485044070985 167.19999999995343,36.0297132889973 169.02706766920164,39.80782558390638 170.8947368422523,41.53361991653219 173.16842105286196,42.18662153405603 175.4015037594363,45.591543922695564 178.6902255639434,47.830383633001475 181.04511278192513,48.856514955929015 186.9323308269959,46.9908199844358 188.80000000004657,47.2240322586149" stroke="#4dd2ff" stroke-linecap="round" stroke-linejoin="round" stroke-width="0.5"><title>2021-06-11 1.2km</title></polyline><polyline fill="none" points="30.24589489592472,76.79690871739695 30.33216876766528,76.78454358392446 30.53167709601985,76.63925290294719 30.90373316782643,76.24047291715397 30.90912528480112,76.03335264256566 30.728489365879796,76.18482879776457 30.623343084720545,76.05190078225314 30.658391845106962,76.16318939151643 30.723097248905106,76.18792014030805 30.90912528480112,76.0240785686401 30.911821343295742,76.21265086971835 30.822851413089666,76.33939555393044 30.321384533686796,76.79690871739695 30.08952350342588,76.79999999999927 29.48291034286376,75.02864546105411 29.4289891730441,74.00226541477423 29.11085427105718,73.58799413533961 28.558162280300166,73.2479166332505 28.55546622183465,72.98512696283797 28.453015999140916,72.83054378168163 27.986597880139016,72.37606484385105 27.644198451729608,72.17201094696793 27.223613327078056,71.72679786500521 27.086114344012458,71.70206362072895 26.64126469293842,71.78244984373669 26.58464746462414,71.80409225340736 26.716754330685944,71.82573464824054 26.68979374578339,71.86283586197169 26.463324832497165,71.94322167545761 25.700340279436205,72.08544222848832 25.433430488788872,72.07307524931821 25.51431224354019,72.10090094563384 25.46847924917529,72.13800183589228 25.5224004190095,72.11017617228026 25.530488594493363,72.18746962171099 25.538576769962674,72.097809202809 25.42534231331956,72.07925873950808 24.988580837714835,71.83810172432459 23.923637733620126,71.8504687955774 23.637855533525,71.73607320161136 23.104035952230333,71.96486397487206 22.47855038222042,71.83191818688647 22.295218404804473,71.7515320898965 21.97438744433748,71.39906755507036 21.631988015928073,71.10843594217295 21.15478566294769,71.00022135988729 20.6047897307144,70.98785395543382 20.224645483423956,70.80543417657645 19.87954999653448,70.53644037522827 17.87098642042838,69.65832970599695 17.70383079398016,69.6397778085302 17.194275739093428,69.7294452118822 16.932758065435337,69.69852544640344 16.673936450257315,69.5593861268062 16.304576436945354,69.15742464555115 15.749188387708273,68.67506410792521 15.611689404642675,68.18341981676713 15.417573193262797,67.93604872252217 15.040125004481524,67.21247713646517 14.743558570422465,66.9187147041921 13.821506566368043,64.56851674294558 13.80533021541487,64.36750483968171 13.85655532675446,64.11391876464768 14.250179866488907,63.41809283988914 14.347237972178846,63.10573932022271 14.279836509900633,62.849050448201524 13.95091737396433,62.31401752762031 13.694791817266378,61.79134654318477 13.524940132308984,61.253202866369975 13.549204658731469,60.9748490840484 13.770281455043005,60.20163123655402 13.797242039945559,59.72222664579749 13.743320870111347,59.3201397537523 13.476411079464015,58.25303813092796 13.522244073828915,57.64369143241129 13.497979547391878,56.762128400836446 13.422489909644355,56.41258956383717 13.430578085113666,56.05686021766451 13.303863336026552,55.53717882308047 13.088178656704258,55.19999999999891" stroke="#4dd2ff" stroke-linecap="round" stroke-linejoin="round" stroke-width="0.5"><title>2021-06-10 13.2km</title></polyline><polyline fill="none" points="45.61048296582885,70.65226723949309 45.89722500985954,71.61285943468101 47.163669038098305,71.4756321812165 47.235354549018666,72.18921316042542 48.14337102207355,72.07943159039132 48.69295993982814,72.82045634766109 49.00359715439845,72.16176777196233 48.358427555067465,71.72264118873863 48.955806813784875,71.77753204954206 49.29033919831272,72.16176777196233 48.836330961901695,72.84790167113533 50.270041182404384,73.01257355528651 49.553186072269455,73.47914336452959 49.48150056123268,72.95768293808214 49.935508797643706,72.68322968957364 50.150565330754034,72.985128247994 49.983299138373695,72.54600296393619 50.36562186374795,72.76556569256354 49.95940396806691,72.73812036099844 50.00719430868048,72.38133080376429 50.60457356716506,73.53403387882281 50.150565330754034,74.19271920694155 48.90801647293847,74.60439674541703 46.900822164374404,74.54950644215569 44.750256833503954,76.05898583793896 44.033401723369025,75.61986540345242 43.57939348684158,76.11387584343902 44.1050872344058,76.69022024865262 44.91752302600071,76.41577068076003 44.24845825647935,76.6353303566284 44.774152003927156,76.69022024865262 44.86973268527072,76.22365582219209 44.89362785569392,76.4981055794633 44.22456308605615,76.38832570906379 44.89362785569392,76.4981055794633 44.46351478958968,76.25110081007006 44.989208537037484,76.22365582219209 43.26875627238769,76.4981055794633 43.985611382639036,76.27854579532868 44.272353426669724,76.79999999998836 44.272353426669724,76.4981055794633 43.674974168185145,76.58044045395218 44.200667915749364,76.3608807346609 44.86973268527072,76.55299549846677 44.36793410801329,76.55299549846677 44.511305130203255,76.00409582149587 44.43961961916648,76.6353303566284 44.033401723369025,76.4432156496332 44.36793410801329,76.19621083157836 44.29624859709293,76.71766519051744 43.96171621233225,75.97665080922889 44.43961961916648,75.94920579425525 44.22456308605615,76.47066061594523 43.72276450879872,76.33343575758045 43.93782104190905,75.26307954033837 42.886433546897024,73.86337673777598 42.74306252493989,72.29899468706571 41.50051366712432,70.48759395891102 41.381037815473974,69.96612792738597 41.835046051885,69.33487826626515 41.333247474743985,67.85280821745982 41.88283639261499,66.42562219250249 41.811150881578214,64.83375222256291 43.26875627238769,55.19999999998254 43.77055484964512,55.2274470613047 43.77055484964512,55.7214937012468 44.511305130203255,56.13319856443559 46.853031823528,56.380221190076554 47.06808835663833,56.8468188844854 48.93191164336167,56.13319856443559 50.771839759661816,57.09384087665239 51.70375140290707,56.819371983001474 51.9188079360174,57.258522082847776 53.73484088201076,56.76447817173903 53.99768775573466,57.99958630485344 54.666752525256015,58.438734542171005" stroke="#4dd2ff" stroke-linecap="round" stroke-linejoin="round" stroke-width="0.5"><title>2021-06-08 2.7km</title></polyline><polyline fill="none" points="84.80000000004657,63.409794419130776 77.01272430666722,60.698050593200605 68.94355628057383,60.171889267570805 65.77226753672585,58.39103054400766 65.94845024473034,56.933958566893125 65.59608482848853,57.05538142926525 63.199999999953434,71.38302693981677 63.69331158231944,72.79957488723448 64.85611745505594,73.81139185623033 64.32756933104247,75.06604143307777" stroke="#4dd2ff" stroke-linecap="round" stroke-linejoin="round" stroke-width="0.5"><title>2021-06-08 1.1km</title></polyline><polyline fill="none" points="110.19195710448548,66.9977428719576 103.15603217144962,64.30384848060203 99.47882037528325,65.00226761162048 97.04664879338816,64.80271943609114 96.61233243951574,65.20181566910469 92.87721179611981,64.00452555314405 89.19999999995343,64.53665501839714 92.41394101863261,63.871493055601604 96.49651474528946,65.20181566910469 102.49008042889182,65.46787956194021 107.03592493291944,67.09751632501138 110.77104557643179,68.12850694436929 110.79999999993015,67.79592966960627" stroke="#4dd2ff" stroke-linecap="round" stroke-linejoin="round" stroke-width="0.5"><title>2021-06-07 1.5km</title></polyline><polyline fill="none" points="129.4122946721036,75.42332553342567 129.2468500819523,70.72361416352214 127.92329336050898,69.9165884173417 124.32487352471799,65.16935084125726 121.76048237713985,65.69154925938346 126.02068057376891,60.94427014220855 129.4122946721036,55.20000000001164 122.75314991804771,64.97946036746725 124.15942893433385,64.93198773739277 125.19345762301236,65.78649436563137 129.20548893418163,70.62867002814892 129.2468500819523,75.32838232224458 130.23951762309298,76.79999999998836 129.32957237702794,76.2778135954577" stroke="#4dd2ff" stroke-linecap="round" stroke-linejoin="round" stroke-width="0.5"><title>2021-06-04 1.3km</title></polyline><polyline fill="none" points="154.1903273400385,69.1097840013681 154.42451328207972,69.47373257562867 155.11329546454363,69.47373257562867 154.93421209708322,69.0781362602429 155.30615447560558,68.90407357236836 154.89288516616216,68.96736911709013 154.97553902800428,68.39770831553324 154.5484940749011,68.20782093210437 154.53471843129955,68.44518012627668 154.97553902800428,68.91989746091713 154.98931467172224,69.55285172165895 154.41073763841996,69.5053802387265 153.98369268531678,68.96736911709013 154.0663465472171,69.23637490349938 153.5566477322136,69.33131801447598 152.92296812444692,68.20782093210437 152.20663465477992,67.46409318254155 149.76834572904045,65.73926449069404 149.49283285601996,64.26760699760052 149.7821213725838,62.7801115084585 151.1321344501339,60.54884240710817 152.39949366584187,59.52023272214865 153.69440416875295,58.00104327403824 153.74950674327556,56.76669125058106 153.25358357199002,55.801358047596295 152.82653861888684,55.516504516635905 152.37194237852236,55.959609790559625 152.24796158570098,55.56398014030128 152.44082059670473,55.548154933945625 152.1790833674604,55.500679305710946 152.3581667348626,55.53232972609112 152.22041029832326,55.84883358687512 152.28928851662204,55.595630548283225 152.0275512872613,55.78553286468377 152.23418594204122,55.64310614843271 152.05510257458081,55.595630548283225 152.11020514916163,55.78553286468377 151.60050633421633,56.165336822959944 152.1790833674604,55.84883358687512 151.95867306907894,55.991260120412335 152.04132693097927,55.67475654075679 151.86224356351886,56.07038591771561 151.86224356351886,55.78553286468377 152.37194237852236,55.46902887898614 152.61990396416513,55.817183228893555 152.5096988150035,55.92795945444959 152.8954168371274,55.959609790559625 152.4545962404227,56.165336822959944 151.88979485083837,55.405728006895515 152.5096988150035,55.500679305710946 152.52347445860505,55.19999999999709 151.6142819778761,56.18116196838673 152.39949366584187,56.165336822959944 152.39949366584187,55.959609790559625 151.83469227619935,56.02291044402227 152.61990396416513,55.46902887898614 151.91734613809967,55.92795945444959 152.19285901106196,55.91213428406627 152.30306416022358,55.78553286468377 152.01377564365976,55.64310614843271 152.09642950556008,55.92795945444959 152.52347445860505,55.7064069268381 152.39949366584187,55.94378462326131 152.4132693093852,55.75388249421667 152.22041029832326,55.84883358687512 152.30306416022358,55.62728094990598 152.57857703318587,55.61145574983675 152.4821475277422,55.991260120412335 152.70255782606546,55.6905817345978 152.3581667348626,56.11786137736635 152.5372501022648,55.84883358687512 152.31683980394155,55.24747571731859 152.7163334697252,55.43737844604766 152.09642950556008,55.959609790559625 152.3581667348626,56.07038591771561 152.52347445860505,55.864658763530315 152.4132693093852,56.11786137736635 152.6612308950862,55.516504516635905 152.5096988150035,56.007085283024935 152.67500653880415,56.21281225452549 152.44082059670473,55.975434956286335 150.4433522677864,58.01686823827913 152.90919248072896,55.72223211750679 154.68625051138224,57.1464928851201 155.5127891303273,58.38084198521392 154.700026155042,72.43276207338204 149.6581405798206,72.55935035314178 148.6387429498136,72.82835011588759 148.4872108696727,75.09109497033933 149.01068532833597,75.4708532167715 150.12651246384485,75.21768115236773 150.6224356351886,75.75567131169373 150.20916632574517,76.08795844991982 150.9530510827899,76.18289750587428 151.09080751921283,76.45189119256975 151.06325623195153,76.80000000000291 150.81529464625055,76.46771433655522 150.6775382097694,76.54683003315586" stroke="#4dd2ff" stroke-linecap="round" stroke-linejoin="round" stroke-width="0.5"><title>2021-06-02 5.9km</title></polyline><polyline fill="none" points="173.41287446941715,76.15227600421349 175.3431542434264,74.38348278471676 178.3361723201815,70.34759835581644 180.91710819792934,64.966318788036 182.0232235742733,60.85554186248919 182.00153503741603,55.19999999999709 182.43530577316415,55.59863265082822 182.6521911409218,59.93372209358495 181.1339935658034,65.63898500494543 179.46397623314988,69.52546584278753 176.77459767146502,73.51153790681565 173.3478088590782,76.80000000000291" stroke="#4dd2ff" stroke-linecap="round" stroke-linejoin="round" stroke-width="0.5"><title>2021-06-01 2.2km</title></polyline><polyline fill="none" points="32.79999999993015,91.47635831439402 32.36599690874573,91.97486595442751 23.085007727961056,89.02215753664495 16.708500772714615,89.21389253027155 16.174343122169375,89.71240307122935 12.034621329163201,88.25521661652601 11.199999999953434,88.29356369850575 11.233384853228927,88.71538135013543 12.001236476120539,88.02513404554338 16.641731066512875,89.94248464371776 25.054714064928703,90.21091297297971" stroke="#4dd2ff" stroke-linecap="round" stroke-linejoin="round" stroke-width="0.5"><title>2021-05-31 1.1km</title></polyline><polyline fill="none" points="49.026989113073796,99.99629552630358 49.46400575712323,96.4298415791709 50.20693405182101,96.98239242186537 52.916437244042754,96.4298415791709 53.83417219622061,95.42520214305841 54.53339882660657,92.46150422698702 56.15036040893756,93.06429164510337 55.188923792447895,92.6624334459193 55.66964210080914,91.95918083234574 55.58223877171986,93.16475614518276 55.66964210080914,91.90894846542506 55.6259404362645,93.76754272839753 54.2274871757254,92.36103958779131 58.68505694367923,94.82241752752452 54.14008384686895,93.11452389755868 55.232625456759706,92.61220114884782 54.664503819774836,90.9545325517538 54.2274871757254,93.41591730850632 55.58223877171986,92.16011024982436 55.10152046359144,91.35639210251975 56.325167066650465,93.16475614518276 56.893288703635335,92.91359485773137 55.27632712130435,93.66707834758563 53.790470531908795,92.96382712526247 55.93185208714567,92.76289802548126 54.44599549798295,92.4112719099794 53.35345388785936,95.97775407889276 49.15809410624206,96.68100112763932 49.289199099410325,98.58980963676004 47.54113252367824,99.94606395452865 47.6285358525347,100.79999999998836 48.28406081837602,99.8456007958157 46.36118758493103,94.62148916331353 37.31494305608794,79.19999999998254" stroke="#4dd2ff" stroke-linecap="round" stroke-linejoin="round" stroke-width="0.5"><title>2021-05-30 1.4km</title></polyline><polyline fill="none" points="63.98435754165985,87.86895987065509 67.09162011160515,89.6361701549904 72.7631284914678,91.74988058526651 75.38770949712489,91.50732429651543 78.70614525128622,92.1310401293158 84.28715083794668,91.29941877289093 84.79999999993015,90.88360735660535 84.22681564232334,91.33406970204669 78.91731843561865,91.92313497472787 71.52625698316842,91.43802246905398 66.60893854743335,90.12128514857613 63.199999999953434,88.3540773045097" stroke="#4dd2ff" stroke-linecap="round" stroke-linejoin="round" stroke-width="0.5"><title>2021-05-27 1.4km</title></polyline><polyline fill="none" points="110.80000000004657,91.5533500314632 108.09530434780754,91.4239049233147 102.61078260862269,89.35277798259631 94.30886956537142,89.05073781785904 89.19999999995343,87.66998012328986 92.35547826089896,88.87814334436553 100.88278260850348,89.65481793880463 109.67304347804748,92.33001987668104 110.38678260869347,92.11427839126554" stroke="#4dd2ff" stroke-linecap="round" stroke-linejoin="round" stroke-width="0.5"><title>2021-05-25 1.1km</title></polyline><polyline fill="none" points="115.79474342928734,88.24558938734117 116.82202753436286,89.08398385517648 120.25531914876774,89.39449975814205 123.66157697117887,91.35074290478951 127.74367959937081,91.19548595618107 130.04155193991028,91.56810250409762 134.853566958569,90.8849718295387 136.79999999993015,89.92237609039876 136.79999999993015,90.63656030752463 129.12240300374106,91.75441061265883 126.20275344175752,91.25758874489111 123.60750938672572,91.47494840848958 118.47108886099886,90.2328911665245 115.19999999995343,88.7734676458931" stroke="#4dd2ff" stroke-linecap="round" stroke-linejoin="round" stroke-width="0.5"><title>2021-05-24 1.6km</title></polyline><polyline fill="none" points="149.61395348829683,89.44105418300023 154.63720930216368,89.58529933882528 154.63720930216368,90.1983406166255 157.83953488362022,91.64078662748216 162.79999999993015,91.17199229812832 157.7453488371102,91.67684770480264 154.16627906973008,91.06380890600849 150.43023255793378,91.2441145417688 141.19999999995343,88.32315229519736" stroke="#4dd2ff" stroke-linecap="round" stroke-linejoin="round" stroke-width="0.5"><title>2021-05-21 1.1km</title></polyline><polyline fill="none" points="180.14869664539583,100.79999999998836 180.91874977841508,100.05815092180273 180.6703455420211,99.31629994107061 181.06779232039116,95.86381457818788 182.5582177392207,95.35021819346002 182.88114324677736,94.57982190645998 184.66965374955907,95.00782009700197 188.346036449424,94.49422219238477 188.22183433105238,92.83928940744954 186.97981314873323,90.15713685489027 184.4957707838621,86.67600815641345 182.7072602811968,84.99249646041426 179.8506115616765,83.30897496518446 175.80162250692956,82.7382874887262 174.31119708810002,82.13906442638836 172.12523980706464,82.45294332815683 169.39279320568312,80.82647623747471 168.87114430905785,79.19999999998254 167.6539635504596,79.62802094922517 167.72848482138943,80.5411301907152" stroke="#4dd2ff" stroke-linecap="round" stroke-linejoin="round" stroke-width="0.5"><title>2021-05-20 1.7km</title></polyline><polyline fill="none" points="11.303846153896302,112.1511357218842 11.199999999953434,109.94439573778072 15.821153846103698,109.10941094096052 32.436538461595774,109.46726170938928 32.800000000046566,117.57848898816155 31.813461538404226,118.29418028873624 23.40192307694815,117.57848898816155 22.363461538450792,118.29418028873624 15.976923076901585,118.89058905903948 12.290384615538642,118.35382119234418 11.459615384461358,117.63812996214256 11.459615384461358,111.43543715006672" stroke="#4dd2ff" stroke-linecap="round" stroke-linejoin="round" stroke-width="0.5"><title>2021-05-18 1.1km</title></polyline><polyline fill="none" points="37.199999999953434,114.73490694213251 38.040318302228115,115.52462390180153 42.14641909801867,117.25760406878544 44.724668434937485,117.19179494198761 46.46259946934879,117.58664941068855 49.46100795746315,117.2356676953641 52.76498673739843,116.27046512240486 53.700795755838044,115.70011617867567 55.20954907161649,114.6471604401886 58.79999999993015,111.11533499849611 58.227055702824146,110.413350589326 56.81379310344346,111.51020025488106 48.54429708211683,112.40961294418958 47.34111405815929,112.08055994319147 40.82864721480291,111.88312790892087 40.48488063644618,112.43154979358951 40.56127320951782,112.21218120203412 40.17931034474168,112.3657392388559 39.778249336755835,113.19933816026605 39.186206896440126,113.4406425280904 37.467374005238526,113.08965427010844 37.21909814304672,112.62898134101124" stroke="#4dd2ff" stroke-linecap="round" stroke-linejoin="round" stroke-width="0.5"><title>2021-05-10 2.5km</title></polyline><polyline fill="none" points="84.80000000004657,120.8977506790543 84.69244813278783,120.28006116092729 83.95751037355512,119.51824157139345 82.79236514528748,120.09475394907349 82.20082987553906,119.9094465727394 82.16497925319709,119.33293368323939 82.55933609965723,118.67405985989899 82.41593361005653,116.84155610324524 81.98572614102159,116.22385458248027 79.70921161829028,116.92391616792884 78.18556016602088,116.75919600612542 78.13178423244972,116.28562481679546 74.18821576761547,116.3473950329062 72.12680497928523,116.01795366931765 68.82854771788698,116.61506575791282 66.4803319502389,116.67683587648207 64.61609958508052,116.26503474074707 63.199999999953434,113.81480118533364 65.2614107884001,112.33229296727222 66.17560165980831,111.3233577417559 68.05775933607947,110.35559896331688 68.29078838170972,109.65551534775295 70.28049792535603,108.77011211805802 72.19850622408558,107.45229570445372 71.42771784239449,108.31711366445234 69.29460580914747,109.24370035929314 67.28697095438838,107.47288664989173 66.01427385897841,107.10224932096025" stroke="#4dd2ff" stroke-linecap="round" stroke-linejoin="round" stroke-width="0.5"><title>2021-05-08 2.6km</title></polyline><polyline fill="none" points="110.79999999981374,110.26421503492747 110.6585924711544,111.76666118454887 106.41636661207303,112.01030058410834 105.78003273322247,113.1878889821819 99.2399345333688,111.68544801944518 95.84615384601057,111.96969402758987 94.60883797029965,112.66000494445325 89.80098199658096,111.60423483813065 89.19999999995343,112.57879195542773 94.2199672665447,114.36547401218559 101.50245499168523,115.09638716420159 110.6585924711544,117.73578496507253" stroke="#4dd2ff" stroke-linecap="round" stroke-linejoin="round" stroke-width="0.5"><title>2021-05-08 1.3km</title></polyline><polyline fill="none" points="136.79999999993015,113.63805036433041 136.25570291781332,113.93419610816636 133.0472148541594,112.74961155556957 132.5315649867989,113.21028382584336 129.26578249328304,111.95988618361298 127.1458885940956,112.94704260639264 122.53368700260762,113.24318896353361 119.58302387269214,112.28893864914426 116.60371352778748,112.81542191881454 115.5724137929501,112.65089598626946 115.19999999995343,112.12441245699301 119.98408488044515,112.32184387787129 122.79151193634607,113.5722401633102 127.37506631296128,113.44061972235795 136.6281167109264,116.04011381638702" stroke="#4dd2ff" stroke-linecap="round" stroke-linejoin="round" stroke-width="0.5"><title>2021-05-07 1.5km</title></polyline><polyline fill="none" points="141.2996923075989,118.14813170203706 141.19999999995343,117.57466302404646 142.79507692309562,117.03942482051207 143.4596923077479,115.43370574639994 151.8006153847091,110.46358045941452 154.45907692296896,111.22821929460042 155.0904615384061,112.06932025947026 155.85476923070382,110.19595650833799 155.55569230765104,109.85186829796294 155.55569230765104,111.15175547939725 155.38953846157528,110.73120422448847 154.75815384613816,112.18401570335845 155.5889230769826,111.22821929460042 154.7913846153533,112.06932025947026 155.22338461515028,110.6547403105942 154.92430769221392,112.14578389251255 155.6553846152965,111.49584252823843 157.01784615393262,111.72523372317664 159.04492307687178,110.99882780353073 160.90584615373518,111.07529164897278 162.79999999993015,112.18401570335845 161.57046153827105,111.34291498883977 160.07507692289073,111.15175547939725 156.5858461537864,111.99285661135218 154.8578461536672,110.88413200664218" stroke="#4dd2ff" stroke-linecap="round" stroke-linejoin="round" stroke-width="0.5"><title>2021-05-06 1.2km</title></polyline><polyline fill="none" points="172.58979206043296,115.97022751005716 173.5289224954322,113.95319723919965 180.22533081285655,108.98094652371947 183.0427221171558,105.97880769876065 186.75841209851205,104.00864378883853 188.18752362951636,105.36899593262933 188.80000000004657,119.2068395917886 188.02419659728184,115.07898263185052 176.79546313802712,121.22384756797692 173.8555765596684,118.40941547282273 168.34328922489658,121.4114757818461 167.19999999995343,123.33466070299619 168.38412098307163,123.99135621113237 171.89565217401832,120.70786959808902 173.20226843096316,117.70580484520178 172.46729678637348,116.62693319297978" stroke="#4dd2ff" stroke-linecap="round" stroke-linejoin="round" stroke-width="0.5"><title>2021-05-06 1.8km</title></polyline><polyline fill="none" points="24.284073107060976,134.65907594456803 26.229765012976713,134.07236538428697 26.427154047065414,133.45305863354588 24.171279373345897,132.54039388312958 24.45326370757539,132.60558430830133 24.114882506546564,132.964131410321 25.778590078349225,133.61603420972824 27.244908616296016,133.38786838002852 26.765535247977823,135.50654486721032 28.231853785924613,134.69167094433215 28.175456919008866,135.31097531376872 28.767624020925723,135.27838037660695 30.967101827729493,137.03850226165378 32.57441253249999,137.39704442955554 32.60261096607428,138.30969541962259 32.09503916441463,139.02677652644343 32.79999999993015,142.28621598501923 32.20783289812971,143.45960611684131 16.529503916506656,141.6017364343861 12.158746736240573,142.188433281146 11.199999999953434,142.90550575387897 11.876762402127497,142.22102751914645" stroke="#4dd2ff" stroke-linecap="round" stroke-linejoin="round" stroke-width="0.5"><title>2021-05-02 1.6km</title></polyline><polyline fill="none" points="43.81670886068605,132.84641383722192 45.34784810105339,133.47876323369564 47.20708860759623,131.89788854058133 54.5893670883961,130.6964210945298 57.87037974665873,132.02435866341693 58.799999999813735,134.23758166382322 57.65164556982927,140.56103269133018 48.35544303781353,143.84920189867262 37.85620253137313,145.3035789055284 37.199999999953434,144.2286049229442 41.738734177080914,131.2023024064256" stroke="#4dd2ff" stroke-linecap="round" stroke-linejoin="round" stroke-width="0.5"><title>2021-05-01 1.0km</title></polyline><polyline fill="none" points="73.50366438762285,137.11315597448265 72.19514322816394,139.20011186110787 70.25492219859734,135.18271424883278 70.34516503708437,133.7218346184818 71.92441471247002,131.26963449281175 74.40609277342446,130.22614153544419 80.81333431322128,130.3304909261642 84.55841211462393,127.20000000001164 79.8206630886998,130.53918964450713 68.67567252321169,129.02612202009186 67.72812271816656,129.49569520686055 65.87814452708699,133.46096281975042 65.24644465697929,143.16530474333558 64.47938052914105,145.66962135827634 63.57695214310661,146.03483318036888 63.441587885376066,148.79999999998836 64.16353059397079,148.43479013908654 64.47938052914105,146.71308301994577 65.6976588498801,133.14791648695245 67.32202994450927,131.53050740167964 67.99885123386048,131.94790378096513" stroke="#4dd2ff" stroke-linecap="round" stroke-linejoin="round" stroke-width="0.5"><title>2021-05-01 1.8km</title></polyline><polyline fill="none" points="107.48121368623106,136.0378349780367 106.72821174951969,136.16597862626077 105.50109748227987,137.04696347011486 104.00903808913426,136.98289200631552 103.74409296317026,137.30324907263275 103.78592640411807,136.99890987465915 102.78192382183624,137.33528474450577 100.41136216913583,137.0309456065297 99.01691413816297,137.1911241713242 98.59857972891768,136.9668741364294 97.0786313751014,137.25519555294886 93.648289218836,137.33528474450577 90.23189154290594,136.98289200631552 89.20000000001164,137.86387241774355 89.26972240151372,138.16820999450283 93.28573273075745,138.9530779547058 93.71801162039628,138.82493650604738 94.51284699811367,139.2413958444231 96.63240800518543,139.27343113390089 97.957133634598,139.78599490594934 98.52885732729919,139.6098012918228 100.03486120078014,139.96218832896557 100.41136216913583,140.25050442690554 101.34564234991558,140.36262721562525 101.59664299548604,140.17041667328158 102.27992253069533,140.49076745082857 103.13053582952125,140.3466096791526 104.55287282116478,140.76306511477742 104.67837314395001,140.37864475056995 104.98515171080362,140.3466096791526 105.55687540344661,140.65094260255864 105.75209812785033,140.18643422715832 106.58876694639912,139.73794212110806 107.59276952868095,138.72883035318227 108.70832795352908,138.29635196141317 109.29399612656562,137.5915698918834 110.27010974823497,137.28723123433883 110.79999999998836,136.55040896416176 110.52111039380543,135.70145742023306 110.0888315042248,135.23693488522258 109.21032924466999,135.797565365021 107.87165913492208,135.71747541498917 107.78799225308467,136.23005041247234 105.90548741118982,137.15908847100218 106.29593285993906,137.52749864295765 106.56087798578665,137.3513025780412 107.46726920589572,138.0400679264858 108.2202711427235,137.92794353398494 108.27604906389024,137.7357301095326" stroke="#4dd2ff" stroke-linecap="round" stroke-linejoin="round" stroke-width="0.5"><title>2021-04-30 3.7km</title></polyline><polyline fill="none" points="136.62938388611656,136.58898702598526 135.26445497618988,138.54873691071407 134.51374407566618,138.66632159650908 127.07488151651341,136.62818211846752 120.45497630327009,136.58898702598526 121.3421800947981,137.3336931206577 115.19999999995343,135.4915228689788 120.1137440756429,137.2161080405058 127.96208530792501,137.96081296002376 136.04928909929004,140.5084771309921 136.79999999993015,140.35169826893252 135.77630331739783,139.9989456034382" stroke="#4dd2ff" stroke-linecap="round" stroke-linejoin="round" stroke-width="0.5"><title>2021-04-29 1.4km</title></polyline><polyline fill="none" points="149.5005714285653,137.46843952391646 151.2594285713276,136.08597749008914 150.6422857142752,134.98709361656802 151.72228571400046,134.63261423064978 159.09714285691734,127.5784017026017 159.96114285697695,127.47205573011888 162.79999999993015,130.73331789701479 159.18971428542864,133.07290077660582 159.59085714269895,133.10834888470708 157.33828571392223,135.55425990652293 158.29485714260954,135.19978108030045 158.51085714274086,134.3844784523244 157.43085714266635,135.2706768734788 152.27771428553388,141.50945188684273 148.7908571427688,143.5653880982718 146.4148571427213,145.6567594135995 146.2605714284582,147.00373788256547 144.3165714284405,148.52794426985201 142.71199999994133,147.71267189036007 141.19999999995343,145.55041879310738 141.32342857134063,143.4590468587121 143.45257142849732,142.46652710431954 144.2239999998128,141.26132085875724 146.3531428570859,140.33968982516672 146.7542857142398,139.41805642697727 147.803428571322,138.81544869582285 148.1119999998482,137.75202082199394 148.914285714156,137.14941029602778 149.8091428569751,137.36209647948272 149.99428571411408,136.68858979997458" stroke="#4dd2ff" stroke-linecap="round" stroke-linejoin="round" stroke-width="0.5"><title>2021-04-26 2.2km</title></polyline><polyline fill="none" points="179.94371921487618,144.98358240476227 180.53272503777407,144.1715718084597 181.21597179200035,135.64531536618597 183.5248746171128,127.19999999998254 181.4044536552392,135.50997582476703 179.73167711868882,136.294944235211 177.30497312918305,136.13253716222243 174.78402820788324,136.51148684948566 173.46465516509488,137.3235201300704 172.5458060814999,138.6227683768666 172.4751253828872,146.58052956312895 173.535335863824,148.52933383526397 174.2421428509988,148.79999999998836 174.71334750915412,148.55640046374174 177.25785266340245,146.41812858200865 178.12958128086757,147.01359837604105 178.977749665617,146.3910617424408 179.14267129602376,145.68732297664974" stroke="#4dd2ff" stroke-linecap="round" stroke-linejoin="round" stroke-width="0.5"><title>2021-04-25 2.2km</title></polyline><polyline fill="none" points="22.83463103964459,172.8000000000029 22.197675772593357,168.05623116942297 22.549099368276075,165.35628087850637 22.197675772593357,160.33480216412863 22.52713539346587,151.5785203853884 22.263567696791142,151.20000000001164 21.714468328515068,151.5785203853884 21.16536896035541,160.51143876765855 21.385008707642555,169.2926474843116 22.263567696791142,169.54497660984634 22.329459620872512,169.31788040809624 22.439279494574293,165.0030142448377 22.15374782308936,168.359027554543" stroke="#4dd2ff" stroke-linecap="round" stroke-linejoin="round" stroke-width="0.5"><title>2021-04-18 2.2km</title></polyline><polyline fill="none" points="58.800000000046566,165.07463768444723 54.931805157568306,164.68364642042434 43.234383954200894,161.16470595585997 38.066475644591264,160.6670752383361 37.199999999953434,160.0983535767591 43.35816618904937,160.0272633060522 44.719770773663186,158.92536231552367 47.38108882517554,160.1338987069612" stroke="#4dd2ff" stroke-linecap="round" stroke-linejoin="round" stroke-width="0.5"><title>2021-04-16 1.0km</title></polyline><polyline fill="none" points="84.80000000004657,163.7323563605023 84.16736401669914,163.90104692101886 83.9075313807698,163.36902211081178 83.45564853557153,163.18735460967582 82.87949790793937,163.33009338164993 82.67615062760888,163.16140208898287 82.39372384938179,162.77211366503616 82.89079497911735,161.88972230597574 82.72133891214617,161.24090135429287 82.38242677826202,161.09816031553783 79.75020920508541,161.2798307016783 77.50209205021383,161.08518384976196 76.40627615066478,161.34471292163653 75.94309623434674,161.1630426250631 75.19748953980161,161.24090135429287 75.01673640171066,161.08518384976196 73.54811715480173,161.25387780468736 73.02845188288484,161.07220738270553 72.42970711301314,161.24090135429287 71.83096234314144,160.9943485536205 70.5656903766212,161.22792490263237 69.526359832671,160.8126777732541 68.66778242681175,160.91648967849324 68.18200836825417,160.31957010473707 67.30083682009717,160.3714762621239 66.49874476989498,160.12492183200084 66.17112970718881,160.2806404732255 65.71924686199054,159.83943717771035 65.0527196652838,160.07301557730534 64.08117154811043,159.7486010214052 63.51631799171446,160.0470624423033 63.91171548125567,159.7615776189923 64.00209205021383,160.20278117564158 63.20000000001164,160.16385150958376 63.87782426783815,159.91729669032793 63.55020920507377,159.99515615687415 63.90041841007769,159.96920300649072 63.6179916318506,160.08599214290734 63.79874476994155,160.2806404732255 63.60669456073083,160.12492183200084 63.87782426783815,160.03408587283047 63.79874476994155,159.89134352456313 63.57280334731331,159.96920300649072 63.65188284520991,160.16385150958376 64.00209205021383,160.02110930212075 63.83263598330086,159.95622642934904 63.81004184106132,160.137898392466 63.90041841007769,159.90432010810764 63.77615062770201,160.137898392466 63.8552301255404,159.95622642934904 63.91171548125567,160.09896870721423 63.74225941428449,159.6318115854374 63.84393305447884,159.96920300649072 63.78744769876357,159.7486010214052 63.81004184106132,159.96920300649072 63.58410041843308,159.80050740412844 63.66317991638789,159.6837180142029 63.74225941428449,159.80050740412844 63.57280334731331,159.86539035370515 63.79874476994155,159.9821795822936 63.6179916318506,159.8783669397817 63.83263598330086,159.6837180142029 63.67447698750766,159.95622642934904 63.49372384941671,159.95622642934904 63.67447698750766,159.61883497503004 63.50502092053648,159.73562442255206 63.77615062770201,159.96920300649072 63.58410041843308,159.85241376633348 63.6179916318506,159.96920300649072 63.67447698750766,159.86539035370515 63.73096234310651,160.41040586677263 63.6179916318506,161.63019430932763 64.71380753139965,161.86376952935825 64.80418410047423,162.07139159900544 65.78702928876737,161.98055698386452 66.35188284527976,162.18817886919715 70.85941422602627,162.3828240891453 75.31046025111573,162.95378173956124 77.44560669455677,163.03163940900413 78.3945606694906,163.2392596355785 79.49037656909786,163.797237370949 81.20753138075816,163.60259424363903 81.3882845188491,163.91402310905687 81.62552301259711,163.8102135691879 83.24100418412127,164.14759427434183 83.52343096234836,164.3811650249554 84.03179916320369,164.26437970147526 84.1899581590551,163.78426117140043 84.64184100425337,163.60259424363903" stroke="#4dd2ff" stroke-linecap="round" stroke-linejoin="round" stroke-width="0.5"><title>2021-04-09 4.9km</title></polyline><polyline fill="none" points="110.36397515540011,163.15576907334616 103.58881987584755,161.1909708568419 102.81739130441565,160.45898468076484 98.0546583852265,160.8442407339753 94.60000000009313,160.49751030324842 95.23726708081085,160.88276631844928 94.93540372664575,161.03686861807364 89.19999999995343,159.72699713296606 93.96273291914258,161.15244530286873 100.80496894416865,161.7303282142093 110.29689440992661,164.27300286706304 109.02236024849117,163.7721743201837 110.79999999993015,163.54102246667026 110.33043478254694,162.96314223416266" stroke="#4dd2ff" stroke-linecap="round" stroke-linejoin="round" stroke-width="0.5"><title>2021-04-09 1.4km</title></polyline><polyline fill="none" points="116.05909090908244,160.80178996088216 117.1022727272939,161.68283659638837 124.65000000002328,164.5726543130586 127.99431818176527,164.43168813735247 130.90909090917557,165.03079399993294 136.30909090919886,164.43168813735247 136.79999999993015,163.8325812703988 134.62159090919886,163.2687150662532 132.01363636355381,163.79733965868945 129.31363636360038,162.775331407669 127.07386363646947,162.9515399353986 123.26931818178855,161.0132413514657 122.77840909094084,160.0969510881987 120.59999999997672,159.25114260573173 118.94318181823473,158.96920600003796 115.19999999995343,159.88549915526528" stroke="#4dd2ff" stroke-linecap="round" stroke-linejoin="round" stroke-width="0.5"><title>2021-04-08 1.4km</title></polyline><polyline fill="none" points="162.65974025975447,162.90220063424204 162.79999999993015,163.64328861891408 160.97662337659858,163.6755097975838 156.15168831171468,162.03222563740565 148.85818181815557,161.67779071512632 145.01506493496709,160.3244902024162 141.19999999995343,160.90447682293598 144.81870129867457,160.48559770031716 148.66181818174664,161.6455693395401 155.81506493513007,161.96778295288095" stroke="#4dd2ff" stroke-linecap="round" stroke-linejoin="round" stroke-width="0.5"><title>2021-04-06 1.3km</title></polyline><polyline fill="none" points="173.7964071854949,158.75661670282716 176.51257485011593,157.9083324733365 177.63353293412365,158.80651572940405 177.63353293412365,159.75459627155215 176.90059880237095,160.1537875306385 178.19401197577827,161.55095438001445 179.53053892194293,161.70065059227636 181.2550898201298,160.90227026611683 183.19520958070643,158.4572224362928 184.9197604788933,159.10590978278196 186.342514970107,158.25762615716667 188.75688622728921,158.55702054535504 188.75688622728921,155.5131690853741 188.49820359284058,157.35944189631846 187.07544910162687,157.1099459765246 188.80000000004657,157.40934106512577 188.71377245499752,158.70671767104068 185.0059880237095,159.05601078644395 183.19520958070643,158.40732337423833 180.26347305392846,162.09984026823076 180.95329341315664,161.50105563254328 177.71976047893986,161.45115687994985 177.07305389200337,160.35338303845492 178.02155688614585,160.35338303845492 177.93532934132963,159.85439411672996 176.8143712573219,157.85843335525715 176.34011976025067,158.55702054535504 175.39161676634103,158.4572224362928 174.1844311375171,161.0519666762557 170.1748502990231,163.1477116222086 168.88143712561578,165.54283774230862 168.70898203575052,163.6965957240318 168.36407185602002,166.04182087921072 168.06227544881403,164.94405730837025 168.36407185602002,165.69253273674985 168.10538922133856,165.04385409812676 169.87305389204994,165.94202429242432 171.29580838303082,168.0876464348985 173.1497005985584,167.93795217137085 173.66706586815417,166.8900910471275 172.54610778414644,166.39110877303756 173.53772455081344,166.39110877303756 173.0634730537422,166.98988744121743 172.63233532896265,166.59070174364024 173.1497005985584,167.18948016813374 173.27904191589914,166.69049819846987 173.49461077828892,167.8381559701811 172.76167664653622,168.4868309146259 170.39041916141286,168.28723871539114 168.19161676615477,165.69253273674985 168.57964071817696,163.44710302661406 168.83832335309125,165.24344761660905 167.19999999995343,166.1915157212352 167.67425149702467,165.393142702349 167.37245508958586,166.39110877303756 168.57964071817696,165.54283774230862 168.75209580827504,163.3473059121461" stroke="#4dd2ff" stroke-linecap="round" stroke-linejoin="round" stroke-width="0.5"><title>2021-04-05 1.9km</title></polyline><polyline fill="none" points="28.18703574803658,191.6827286992193 27.340001092059538,192.10917275387328 27.67144943564199,191.5974397839891 28.26069093553815,191.5974397839891 28.389587513520382,191.23496150644496 27.72669082635548,195.17954429371457 26.308828467386775,196.2029914627783 26.235173279885203,196.8000000000029 26.179931889288127,196.2029914627783 27.781932216952555,195.24350988841616 28.315932326135226,193.15395701501984 28.68420826352667,189.8276869487454 27.763518420048058,189.16669108673523 25.774828358204104,188.80420859849255 24.596345358528197,189.72107485418383 22.128896578215063,190.42471367458347 17.63593014201615,193.13263493936392 16.825723079848103,191.83198421719135 15.886619439581409,192.23710580078478 15.444688314688392,192.0665283874987 12.866756752948277,181.00002155455877 12.719446378061548,178.97429700440262 14.026825955719687,184.90215146214177 14.43192948680371,185.07273471595545 19.164275282179005,182.91911093138333 22.810207062284462,181.74633618164808 25.09351787401829,180.46693804815004 28.29751852923073,177.8867946810933 30.19413960678503,175.1999999999971 31.280553621938452,175.7544207755418 31.15165704395622,175.9250114877941 30.709725919063203,175.7757446221658 30.967519075260498,175.5625060579914 30.967519075260498,175.90368765637686 31.078001856454648,175.3279433863354 30.45193276286591,175.51985831900674" stroke="#4dd2ff" stroke-linecap="round" stroke-linejoin="round" stroke-width="0.5"><title>2021-04-05 3.7km</title></polyline><polyline fill="none" points="42.6504672896117,178.16831719997572 46.08224299037829,180.89579199929722 48.90841121505946,188.76645043020835 48.975700934417546,192.7407125099562 50.523364485707134,192.42900642711902 52.07102803722955,193.83168279996607 55.570093458052725,191.2601074836566 58.799999999813735,192.11730021680705 52.20560747641139,190.5587672594702 52.20560747641139,193.13034493516898 52.542056074831635,189.54571913310792 52.40747663518414,193.28619784972398 52.60934579418972,192.03937364451122 49.91775700915605,192.58485948451562 51.73457943927497,191.41596077935537 52.67663551401347,193.13034493516898 50.994392523076385,192.03937364451122 52.20560747641139,191.72766727540875 51.93644859828055,193.20827139628818 52.67663551401347,193.20827139628818 51.801869158865884,191.64974066318246 53.34953270992264,193.5979035833152 51.801869158865884,192.19522678118665 51.93644859828055,190.94840079679852 53.0803738317918,192.7407125099562 52.003738317638636,191.0263274803292 50.18691588775255,190.94840079679852 49.37943925219588,192.97449198900722 49.58130841120146,191.96144706424093 46.14953271020204,189.3898654562072 47.495327102718875,184.4025310127763 46.14953271020204,184.94802230247296 46.216822430025786,182.9219098361791 42.24672897183336,180.73993655876257 37.199999999953434,181.20750278542982 40.02616822440177,182.22056196193444 40.968224299140275,184.8700949990307" stroke="#4dd2ff" stroke-linecap="round" stroke-linejoin="round" stroke-width="0.5"><title>2021-04-04 1.4km</title></polyline><polyline fill="none" points="76.53407821198925,176.33098246145528 69.83687150804326,179.38074755377602 63.38100558635779,186.86647845379775 69.47486033500172,193.5897057921975 73.03463687119074,189.56963944953168 77.19776536314748,187.8368451365386 77.31843575416133,185.5495500973193 81.17988826800138,182.7077489149524 75.50837988802232,175.49922604684252 70.74189944122918,178.68762028665515 63.199999999953434,187.28235005342867 69.35418994398788,192.82728118507657 72.97430167580023,188.59927516093012 78.88715083780698,187.6289095315733 80.63687150832266,186.311982604675 81.54189944127575,182.84637362958165 81.30055865901522,182.22256219777046 80.57653631293215,183.60880907118553 78.46480446914211,184.64849243091885 78.4044692737516,184.02468259970192 84.79999999981374,179.79662358592032 82.44692737422884,178.54899475112325 79.97318435739726,175.49922604684252 78.58547486015595,177.78655381657882 74.36201117304154,175.9844174083555 66.03575418959372,183.47018450696487 63.441340781748295,187.14372621424263 69.47486033500172,192.82728118507657 73.03463687119074,189.08445747278165 73.5776536311023,189.50032775918953 72.06927374284714,191.57967549713794 80.3351955304388,193.31246057635872 82.98994413414039,196.50077395321568 77.378770949319,186.2426705926773 77.98212290508673,184.37124368536752 80.93854748620652,181.87600005220156 77.68044692720287,179.86593623377848 75.87039106129669,176.40029545151629 74.60335195506923,175.9151043772581 73.51731843547896,176.67754734342452 74.06033519562334,177.16273789084516" stroke="#4dd2ff" stroke-linecap="round" stroke-linejoin="round" stroke-width="0.5"><title>2021-04-02 3.1km</title></polyline><polyline fill="none" points="102.4510638298234,194.34746444896155 99.92340425529983,193.46765793619852 95.15531914890744,193.37967709400982 89.98510638298467,192.69782439009578 89.54468085116241,192.2799136378453 89.19999999995343,190.19034812839527 89.69787234044634,189.79442824648868 90.73191489360761,189.75043710503087 89.79361702129245,186.8250067242625 90.02340425539296,182.86571651382837 91.45957446808461,180.82005569181638 92.03404255327769,179.43427479383536 94.772340425523,177.542559981026 95.88297872350086,178.75237944399123 96.91702127666213,178.97234591370216 97.4531914893305,179.61024744875613 99.71276595746167,179.61024744875613 103.19787234044634,180.16016110031342 104.88297872338444,181.04002012169803 107.6787234043004,183.5256030979508 110.32127659558319,188.10076303806272 110.39787234039977,188.694647108161 109.78510638291482,189.22254273148428 109.53617021278478,190.05837491249258 110.07234042545315,190.03637936891755 110.80000000004657,191.9059928271745 110.32127659558319,192.89578184153652 108.65531914890744,193.20371530551347 108.25319148926064,193.7096050732507 107.31489361694548,193.24770576560695 106.9127659574151,193.42366751944064 105.91702127654571,193.11573435919126 105.43829787231516,194.45744001898856 105.28510638291482,194.3034742057789" stroke="#4dd2ff" stroke-linecap="round" stroke-linejoin="round" stroke-width="0.5"><title>2021-04-02 3.2km</title></polyline><polyline fill="none" points="117.46312997350469,184.1737890126533 124.76816976128612,187.43135781673482 128.7214854111662,187.39845324031194 131.12785145884845,187.9578305973846 134.36498673749156,187.16812111492618 136.80000000004657,187.20102571387542 131.29973474808503,187.92492607302847 128.89336870028637,187.36554866074584 124.9973474801518,187.56297608980094 119.95543766580522,186.11517223037663 115.19999999995343,184.0421694025863" stroke="#4dd2ff" stroke-linecap="round" stroke-linejoin="round" stroke-width="0.5"><title>2021-04-01 1.4km</title></polyline><polyline fill="none" points="141.19999999995343,183.2794083393528 143.63927986915223,185.75637384262518 146.5027823240962,186.36546143773012 149.8612111294642,188.1115075496491 154.45695581031032,188.03029626677744 157.00229132571258,188.7205916606472 162.80000000004657,188.03029626677744 158.73453355161473,188.63938049794524 153.82062193122692,187.9084793124639 149.43698854348622,188.1115075496491 142.8615384614095,186.32485562603688 142.18985270056874,185.95940314105246 142.96759410807863,185.63455621540197" stroke="#4dd2ff" stroke-linecap="round" stroke-linejoin="round" stroke-width="0.5"><title>2021-03-29 1.2km</title></polyline><polyline fill="none" points="177.60610773414373,196.79999999998836 176.59949416550808,191.12380938709248 175.8992412481457,190.9228811300709 172.48550827638246,186.00011415043264 170.20968629512936,185.79918387840735 177.29974708263762,175.19999999998254 179.66310067870654,176.65677290415624 184.30227625579573,181.37869790161494 183.82085237512365,184.74429865402635 185.79031370510347,196.29768478992628 179.53180325683206,192.12844948653947 177.25598127534613,191.67636168620083 177.03715223865584,192.63076879555592" stroke="#4dd2ff" stroke-linecap="round" stroke-linejoin="round" stroke-width="0.5"><title>2021-03-28 1.4km</title></polyline><polyline fill="none" points="21.73415384616237,206.0875407375279 22.963692307588644,206.8127859272936 23.262769230641425,206.20205322626862 24.459076923085377,206.12571157084312 24.724923076923005,205.51497778543853 25.090461538289674,205.93485736649018 25.655384615412913,205.51497778543853 27.416615384514444,206.50741969732917 28.446769230766222,205.74400306795724 31.470769230625592,206.66010284234653 31.271384615451097,205.89668651425745 32.700307692284696,206.04936990048736 31.636923076817766,205.66766132219345 31.90276923077181,205.0569268138206 31.969230769085698,205.89668651425745 31.80307692300994,205.51497778543853 31.437538461526856,206.01119905951782 31.50399999995716,205.40046509329113 31.969230769085698,206.04936990048736 31.470769230625592,205.89668651425745 32.46769230766222,205.78217393517843 32.46769230766222,206.16388240037486 32.035692307516,205.62949044359266 31.3378461538814,206.01119905951782 32.73353846149985,205.78217393517843 32.301538461470045,205.4386359944765 32.16861538449302,206.58376127740485 31.570461538387462,206.0875407375279 31.50399999995716,206.50741969732917 32.33476923056878,205.9730282149394 31.969230769085698,206.01119905951782 32.79999999993015,207.0418104416749 32.700307692284696,205.93485736649018 32.20184615382459,206.01119905951782 32.46769230766222,206.54559048920055 31.73661538469605,206.77461516176118 31.636923076817766,206.35473649192136 31.23815384611953,206.92729820142267 29.84246153838467,206.73644439244526 29.84246153838467,205.9730282149394 30.1747692306526,212.53835812423495 26.419692307710648,213.37810158979846 23.362461538403295,212.38567729844362 23.595076923025772,212.88188976232777 22.664615384535864,212.38567729844362 17.281230769120157,212.1184857081971 14.589538461528718,212.92005992544 14.356923076789826,214.29418329225155 13.72553846158553,214.7903933088819 11.565538461436518,214.9430731861503 11.199999999953434,214.33235331607284" stroke="#4dd2ff" stroke-linecap="round" stroke-linejoin="round" stroke-width="0.5"><title>2021-03-26 1.5km</title></polyline><polyline fill="none" points="39.48292682936881,208.63126527593704 46.33170731714927,211.4263691099477 48.74006968643516,211.25347686518217 50.847386759589426,211.71452262398088 53.882926829275675,211.10939991637133 55.08710801380221,211.25347686518217 58.79999999993015,209.92796625601477 55.51358885015361,211.25347686518217 51.27386759582441,211.59926125247148 49.041114982566796,211.13821531180292 46.55749128921889,211.33992300037062 41.21393728221301,210.04322828681325 37.199999999953434,208.28547737599" stroke="#4dd2ff" stroke-linecap="round" stroke-linejoin="round" stroke-width="0.5"><title>2021-03-26 1.6km</title></polyline><polyline fill="none" points="84.79999999981374,211.91659649994108 83.14974533091299,211.705982393265 80.69269949034788,210.14743477504817 78.6023769096937,210.18955775853829 75.59524617972784,209.01011265337002 68.26078098453581,209.22072808965459 69.36095076380298,209.76832773769274 68.92088285204954,209.89469678746536 63.199999999953434,208.08340350005892 67.82071307254955,209.85257377498783 74.38505942258053,210.27380371282925 79.99592529702932,211.62173672145582" stroke="#4dd2ff" stroke-linecap="round" stroke-linejoin="round" stroke-width="0.5"><title>2021-03-24 1.1km</title></polyline><polyline fill="none" points="110.79999999993015,211.58436208078638 109.24456521740649,211.48323304005316 107.71847826091107,210.33710182108916 105.28260869567748,209.9325840025558 103.28695652179886,209.02241716056596 97.18260869570076,209.15725684558856 97.71086956537329,209.7303249137476 92.92717391310725,208.41563791921362 89.19999999995343,208.88757742225425 90.66739130439237,209.08983700969839 93.04456521733664,208.4493479053781 97.44673913053703,209.79774462341447 105.45869565219618,210.13484297165996" stroke="#4dd2ff" stroke-linecap="round" stroke-linejoin="round" stroke-width="0.5"><title>2021-03-23 1.3km</title></polyline><polyline fill="none" points="136.36914893612266,211.07226263763732 129.10212765960023,208.53183448678465 126.14361702115275,209.0267246006115 123.21382978721522,208.69679793936666 124.01808510627598,209.22468044125708 123.70212765957695,209.32365831767675 119.0776595743373,207.93796538349125 115.19999999995343,208.49884178640787 118.79042553191539,208.00395089149242 123.12765957438387,209.25767306992202 128.87234042549971,209.6535843606398 136.80000000004657,212.06203461650875 135.50744680839125,211.43517936990247 136.80000000004657,211.07226263763732" stroke="#4dd2ff" stroke-linecap="round" stroke-linejoin="round" stroke-width="0.5"><title>2021-03-22 1.6km</title></polyline><polyline fill="none" points="159.59387911239173,199.33357029205945 159.89135424635606,199.5421696606645 159.72609028307488,200.20589342516905 161.2299923489336,200.43345533344836 161.626625860692,200.75583424443903 161.49441469012527,201.34370028464764 162.0893649578211,201.74193110143824 162.79999999998836,202.9745450904884 162.3703136953991,204.1123356349126 161.74231063504703,204.3778191305464 161.51094108645339,205.06048930042016 158.45355776586803,207.71529479551828 155.08217291504843,209.0237212193315 154.0244835499907,209.70637496456038 153.21469013008755,210.38902629644144 150.85141545522492,213.65054935270746 141.20000000001164,220.66642970794055" stroke="#4dd2ff" stroke-linecap="round" stroke-linejoin="round" stroke-width="0.5"><title>2021-03-21 1.3km</title></polyline><polyline fill="none" points="176.99144724651705,208.12345238041598 176.71727756597102,206.37025749233726 174.83725689921994,204.03264339396264 174.07349850342143,203.80787154800782 171.48847008659504,206.167964909313 168.92302521842066,209.42710140236886 168.27676811430138,209.60691447717545 167.57176036422607,211.51741966354894 168.76635682955384,213.22562254712102 171.60597137827426,214.5741947561619 174.68058851035312,217.06903237420192 174.5043365728343,217.2038876862207 174.91559109371156,217.15893592438078 174.5435036701383,216.95665288683085 175.01350883673877,217.74330813872803 176.05143691319972,218.97947520951857 179.9877301841043,220.8000000000029 182.0244192397222,220.5977201834612 186.8223886495689,217.24883943918394 187.4686457538046,215.90028300539416 188.42823963589035,211.58484896672599 187.4686457538046,209.92158701785957 183.88485635793768,206.6175037395733 180.0073137327563,201.7399601950019 177.12853208673187,199.1999999999971 173.8972465659026,203.69548554210633 174.4847530242987,203.7629171522858 175.2876785172848,204.50466355135723 176.85436240618583,206.50511911488138 176.83477885765024,207.13447230160818" stroke="#4dd2ff" stroke-linecap="round" stroke-linejoin="round" stroke-width="0.5"><title>2021-03-20 3.7km</title></polyline><polyline fill="none" points="30.671921182191,239.4388168019068 23.294581280555576,237.07590951339807 15.491625615861267,236.8314700568153 11.306403940776363,235.9351908118697 11.199999999953434,234.46854785224423 11.80295566492714,233.81670486507937 11.235467980382964,232.71671749165398 11.377339901402593,230.80191766808275 13.611822660081089,228.5611831981223 17.300492610782385,229.009331064648 21.06009852210991,230.27229061772232 28.153694581240416,230.109328311868 31.94876847276464,229.49821909173625 32.40985221648589,228.96859036956448 31.735960591118783,230.516733956174 31.310344827361405,235.77223074028734 31.665024630492553,238.4610637013102 32.800000000046566,238.6647624548059" stroke="#4dd2ff" stroke-linecap="round" stroke-linejoin="round" stroke-width="0.5"><title>2021-03-19 1.6km</title></polyline><polyline fill="none" points="45.95359628775623,233.77934678878228 50.64779582375195,235.7940934147191 52.468677494325675,235.67896559811197 54.0556844547973,236.02434884350805 55.726218097493984,235.6597776221024 56.611600928066764,235.73652951495023 58.79999999998836,235.08413746055157 54.74060324835591,236.0051609014772 52.65243619499961,235.67896559811197 50.31368909520097,235.77490545003093 40.97540603252128,232.80074804219475 37.20000000001164,232.3977941863268 38.018561484932434,232.5129239445523 37.467285382852424,232.282664359911 37.63433874712791,232.18672278587474 38.903944315505214,232.26347604891635 40.59118329471676,231.97565115649195 41.15916473319521,232.3977941863268 41.49327146174619,232.18672278587474 41.89419953600736,232.57048879817012 42.245011600956786,232.45535907401063 42.69605568452971,232.83912455638347 43.264037123008166,232.62805363468942 44.43341067287838,233.47233594719728 44.66728538280586,233.18451284324692 44.06589327153051,232.282664359911 43.83201856154483,232.30185266905755 43.91554524365347,232.9542540534312 45.001392111356836,233.49152413901174 45.45243619498797,232.41698248412285 45.7030162413721,232.93506580867688 46.03712296986487,232.87750106291787 45.686310904915445,232.973442296352 45.88677494210424,232.91587756195804 45.40232018567622,232.24428773602995 46.120649652031716,232.18672278587474" stroke="#4dd2ff" stroke-linecap="round" stroke-linejoin="round" stroke-width="0.5"><title>2021-03-19 3.1km</title></polyline><polyline fill="none" points="72.2894876972423,244.8000000000029 72.16817476798315,244.42377020095591 71.93768020236166,244.38196682812122 71.59800400037784,244.70245903720206 72.01046795991715,242.34752106614178 71.85276115185115,242.91884098523587 71.92554890940664,243.96393241922488 71.69505434378516,244.14508081495296 70.38487470766995,244.11721184609632 70.22716789954575,243.28114022451336 70.33634953590808,242.54260617637192 73.5147482829052,241.8319376923464 75.64985583815724,241.6925905116077 75.57706808060175,228.21706872188952 76.29281436331803,227.29728613275802 77.77283210051246,225.98728240632045 77.50594365608413,225.31833964618272 75.6983810098609,223.1999999999971" stroke="#4dd2ff" stroke-linecap="round" stroke-linejoin="round" stroke-width="0.5"><title>2021-03-18 2.7km</title></polyline><polyline fill="none" points="96.52566249156371,243.01760866613768 97.13039118767483,243.1224558770191 97.221670990868,243.63358484537457 97.44987049879273,243.7646432384936 98.68214784166776,244.01365382934455 100.27954439731548,243.86948985989147 101.38631201081444,244.18402922785026 102.41320979659213,244.8000000000029 102.67563923064154,243.97433639861993 102.52730955055449,240.47503847291227 103.4743375084945,240.3832953400124 102.11655043624341,240.0032159716211 100.80440326553071,239.9376849361579 100.22249452030519,239.30858535117295 99.07008700515144,227.39444954277133 100.32518429885386,225.92640727000253 101.21516237984179,225.415210169871 100.57620375760598,224.27484031801578 99.48084611946251,223.1999999999971" stroke="#4dd2ff" stroke-linecap="round" stroke-linejoin="round" stroke-width="0.5"><title>2021-03-17 2.8km</title></polyline><polyline fill="none" points="115.92765957443044,232.83431946646306 116.19574468093924,232.83431946646306 117.53617021278478,233.40617387497332 117.91914893616922,233.89005010956316 121.90212765941396,234.98976687228424 126.11489361710846,235.5616185174731 127.53191489353776,235.4736413891369 128.52765957452357,235.69358417773037 129.02553191501647,235.8695383304439 131.01702127652243,236.17745793084032 132.66382978716865,236.83728493037052 133.19999999995343,236.969250213122 134.1191489363555,237.45312258254853 134.88510638312437,237.93699442697107 135.19148936169222,238.02497106959345 135.53617021278478,238.20092430277145 136.37872340413742,238.42086574662244 136.80000000004657,238.37687746656593 136.7617021277547,238.37687746656593 136.7617021277547,238.37687746656593 136.64680851087905,238.42086574662244 136.7234042554628,238.37687746656593 136.7617021277547,238.37687746656593 136.80000000004657,238.42086574662244 136.57021276582964,238.37687746656593 136.07234042556956,238.37687746656593 134.38723404239863,238.42086574662244 133.23829787247814,238.06895938445814 132.12765957438387,237.849017767061 131.01702127652243,237.76104108980508 129.906382978661,237.80502943051397 129.33191489381716,237.849017767061 128.22127659572288,237.93699442697107 127.72340425522998,237.93699442697107 126.0,237.80502943051397 125.46382978721522,237.67306439497042 124.42978723393753,237.40913420694415 123.89361702138558,237.1452038627467 122.8595744681079,236.79329649396823 122.32340425532311,236.61734270560555 120.1404255318921,236.17745793084032 118.72340425546281,235.60560707523837 118.60851063835435,235.34167566380347 119.06808510632254,235.25369849195704 119.25957446801476,235.25369849195704 119.4127659574151,235.07774409631384 119.25957446801476,235.03375548645272 118.87659574463032,234.9457782538666 118.6851063829381,234.90178963114158 118.57021276606247,234.8578010039637 118.34042553184554,234.8578010039637 118.18723404267803,234.7698237366567 117.99574468075298,234.7698237366567 117.80425531906076,234.7698237366567 117.53617021278478,234.68184645206202 117.34468085109256,234.59386915012146 117.2297872339841,234.54988049255917 116.84680851059966,234.32993714004988 116.7319148934912,234.24195976863848 116.5404255320318,234.1099936789251 116.42553191492334,234.0220162642363 116.31063829781488,233.89005010956316 116.15744680841453,233.71409517590655 115.88936170213856,233.49415141125792 115.65957446815446,233.36218510032631 115.544680851046,233.2742075380229 115.35319148935378,233.0542635564634 115.27659574453719,232.65836411633063 115.27659574453719,232.30645320791518 115.23829787247814,232.08650874905288 115.19999999995343,231.91055310392403 115.3148936170619,231.55864160554484 115.27659574453719,231.07476284180302 115.27659574453719,230.8548177756893 115.23829787247814,230.72285068387282 115.3148936170619,230.59088355317363 115.27659574453719,230.5468945009343 115.3148936170619,230.2389710135758 115.35319148935378,230.01902553523541 115.544680851046,229.97503642659285 115.92765957443044,229.84306907452992 116.11914893612266,229.75509081812925 116.23404255323112,229.71110168349696 116.46382978721522,229.62312340116478 116.5021276595071,229.62312340116478 116.5021276595071,229.57913425340666 116.5404255320318,229.57913425340666" stroke="#4dd2ff" stroke-linecap="round" stroke-linejoin="round" stroke-width="0.5"><title>2021-03-02 1.4km</title></polyline><polyline fill="none" points="145.16837209300138,234.3173654836719 145.41953488369472,234.4327591159381 148.1823255813215,234.95203018025495 149.94046511640772,235.58669418818317 150.59348837193102,235.87517760071205 152.35162790701725,236.3367507646326 153.00465116254054,236.3367507646326 154.86325581395067,236.22135750798043 155.46604651142843,236.0482675798703 157.32465116260573,235.9328742660582 158.47999999998137,236.3367507646326 159.08279069769196,236.56753721018322 160.1376744187437,236.97141327062855 161.14232558128424,237.1445029254537 162.39813953498378,237.0291098279995 162.59906976716593,236.91371670772787 162.79999999981374,237.0291098279995 162.7497674417682,237.8368610329344 161.84558139531873,238.06764688662952 161.0920930232387,238.70230751478812 160.74046511598863,238.81770028255414 160.3888372092042,238.93309302732814 160.1879069765564,238.93309302732814 159.88651162781753,238.9907893910422 159.68558139540255,239.1061821016483 158.98232558136806,239.39466377877397 159.08279069769196,239.6831453135237 159.43441860447638,239.913930439041 159.43441860447638,239.97162670624675 159.43441860447638,240.02932296763174 159.48465116275474,239.97162670624675 159.2334883720614,239.913930439041 158.9320930230897,240.02932296763174 158.83162790699862,240.08701922331238 158.73116279044189,240.1447154734633 158.68093023239635,240.20241171779344 158.68093023239635,240.20241171779344 158.47999999998137,239.913930439041 158.37953488365747,239.79853788769105 158.2288372090552,239.62544901808724 158.17860465100966,239.5100564098102 157.6762790698558,239.39466377877397 157.47534883697517,239.39466377877397 157.22418604651466,239.39466377877397 156.97302325582132,239.33696745481575 156.67162790708244,239.33696745481575 156.42046511615627,239.33696745481575 155.91813953476958,239.22157478972804 155.66697674407624,239.16387844854034 155.41581395361573,239.1061821016483 155.16465116268955,239.04848574922653 154.6623255815357,238.93309302732814 154.46139534865506,238.81770028255414 154.21023255819455,238.7600039015524 153.9590697675012,238.6446111225523 153.70790697657503,238.52921832085121 153.50697674416006,238.35612907569157 153.0548837208189,238.12534333579242 152.60279069747776,237.89455750479829 152.25116279092617,237.548378587584 151.99999999976717,237.4329855698743 151.74883720930666,237.31759252917254 151.49767441861331,237.2021994657698 151.24651162768714,237.08680637960788 151.09581395355053,237.0291098279995 150.69395348825492,236.85602013889002 150.49302325583994,236.79832356458064 150.29209302319214,236.7406269844505 150.09116279054433,236.62523380731 149.84000000008382,236.56753721018322 149.58883720915765,236.5098406074103 149.03627906972542,236.4521439987584 148.83534883731045,236.394447384635 148.58418604638427,236.3367507646326 148.2827906976454,236.3367507646326 148.0818604649976,236.2790541391587 147.5795348836109,236.22135750798043 147.32837209291756,236.10596422827803 146.87627906980924,235.75978425279027 146.37395348842256,235.58669418818317 146.17302325577475,235.52899748866912 145.9218604650814,235.47130078350892 145.62046511634253,235.41360407252796 145.41953488369472,235.35590735595906 145.16837209300138,235.24051390541717 144.71627906966023,235.0097269366379 144.46511627919972,234.89433341799304 144.26418604631908,234.7789398766472 143.76186046516523,234.4904559236602 143.6111627907958,234.37506230268627 143.41023255791515,234.25966865901137 142.95813953480683,233.97118444991065 142.75720930239186,233.79809385625413 142.50604651169851,233.45191251521464 142.15441860468127,233.04803402512334 141.55162790697068,232.5864582664799 141.55162790697068,232.41336726327427 141.45116279064678,232.12488214374753 141.3506976745557,231.89409394573886 141.19999999995343,231.1440316736116 141.3506976745557,230.8555459283525 141.4009302323684,230.5670600407757 141.45116279064678,230.33627122826874 141.50139534892514,230.16317955916747 141.50139534892514,229.8746933301445 141.50139534892514,229.12462846905692 141.50139534892514,228.60535223275656 142.05395348835737,228.37456264632056 142.45581395342015,228.14377296896419 142.80744186067022,228.0283780960599 143.05860465136357,227.97068065113854 143.15906976745464,227.85528574418277 143.8623255812563,227.79758828220656" stroke="#4dd2ff" stroke-linecap="round" stroke-linejoin="round" stroke-width="0.5"><title>2020-12-25 1.0km</title></polyline><polyline fill="none" points="167.52481202990748,231.50505844311556 167.76842105272226,231.7382317239244 167.97142857126892,231.9714048897149 168.41804511263035,232.25121253708494 170.16390977427363,232.71755824791035 171.09774436079897,232.99736545371707 171.70676691737026,233.13726899461471 174.54887218028307,234.2564958309231 175.36090225563385,234.81610825585085 176.29473684192635,235.23581713973545 177.67518796981312,235.74879415892065 178.2030075187795,235.8420626479783 179.17744360910729,235.8420626479783 179.74586466164328,235.8420626479783 180.72030075173825,235.65552565146936 181.61353383469395,235.56225712536252 182.62857142859139,235.6088913907006 183.19699248112738,235.56225712536252 184.78045112779364,235.8420626479783 185.30827067652717,236.0285995710874 186.3233082704246,236.2151364206511 186.89172932342626,236.1685022150923 187.9067669173237,236.1218680050515 188.35338345868513,236.0752337904123 188.80000000004657,236.2617706215824 188.7593984962441,236.30840481779887 188.63759398506954,236.35503900944605 188.59699248126708,236.40167319658212 188.59699248126708,236.44830737900338 188.55639097746462,236.40167319658212 188.47518797009252,236.49494155685534 188.47518797009252,236.40167319658212 188.51578947389498,236.44830737900338 188.55639097746462,236.49494155685534 188.51578947389498,236.44830737900338 188.59699248126708,236.35503900944605 188.55639097746462,236.35503900944605 188.51578947389498,236.35503900944605 188.51578947389498,236.40167319658212 188.51578947389498,236.35503900944605 188.51578947389498,236.35503900944605 188.51578947389498,236.35503900944605 188.51578947389498,236.40167319658212 188.47518797009252,236.40167319658212 188.47518797009252,236.40167319658212 188.43458646605723,236.40167319658212 188.3939849624876,236.40167319658212 188.47518797009252,236.40167319658212 188.47518797009252,236.40167319658212 188.47518797009252,236.40167319658212 188.43458646605723,236.40167319658212 188.43458646605723,236.44830737900338 188.35338345868513,236.40167319658212 187.4195488721598,236.40167319658212 186.3639097744599,236.40167319658212 185.30827067652717,236.1685022150923 184.8210526315961,236.0285995710874 183.80601503746584,235.74879415892065 183.2781954887323,235.65552565146936 182.18195488722995,235.65552565146936 181.65413533849642,235.6088913907006 180.55789473699406,235.7021599073778 179.4210526314564,235.8420626479783 178.89323308272287,235.8420626479783 177.7969924812205,235.79542840577778 177.2285714284517,235.65552565146936 174.67067669169046,234.81610825585085 174.14285714295693,234.6295708543621 172.6406015038956,234.2564958309231 172.2345864661038,234.20986143237678 170.6105263158679,233.93005494397948 169.67669172910973,233.51034490103484 169.1488721803762,233.23053799886839 168.13383458647877,232.67092369752936 167.19999999995343,232.3444817160489" stroke="#4dd2ff" stroke-linecap="round" stroke-linejoin="round" stroke-width="0.5"><title>2020-12-08 1.1km</title></polyline><polyline fill="none" points="11.199999999953434,255.77350431791274 11.40769230760634,255.81326338712825 12.792307692230679,256.88675676990533 13.242307692300528,257.0457925835217 15.007692307583056,257.5626585446007 15.83846153842751,257.80121184160816 16.253846153849736,257.96024729442433 17.22307692305185,258.318076834199 18.08846153842751,258.7554236180731 18.53846153849736,259.03373496080167 20.75384615373332,259.7891504939762 21.238461538567208,259.82890916700126 22.623076923075132,259.6698744512396 23.038461538380943,259.63011576244025 25.219230769202113,259.6698744512396 25.66923076903913,259.7096331360517 27.01923076924868,260.1072197687754 28.403846153756604,260.22649568208726 28.81923076917883,260.18673704814864 29.71923076931853,260.22649568208726 31.103846153710037,260.02770247348235 31.519230769132264,259.98794382004417 32.38461538462434,259.90842650135164 32.79999999993015,259.8686678361846 32.62692307692487,259.55059837320005 31.65769230760634,259.51083967264276 31.24230769230053,259.55059837320005 30.376923076924868,259.7891504939762 30.065384615329094,259.8686678361846 29.16538461530581,260.06746112307883 28.749999999883585,260.1072197687754 27.884615384507924,260.1072197687754 27.43461538455449,260.02770247348235 26.569230769062415,259.8686678361846 26.15384615387302,259.7493918169057 24.803846153779887,259.51083967264276 24.353846153826453,259.51083967264276 23.45384615380317,259.55059837320005 22.969230769085698,259.55059837320005 22.06923076917883,259.63011576244025 21.169230769155547,259.6698744512396 20.303846153779887,259.63011576244025 19.47307692305185,259.43132225988666 19.057692307629623,259.31204611138673 18.157692307722755,259.03373496080167 17.74230769230053,258.8746999313298 16.911538461456075,258.5963884788216 15.803846153663471,258.27831801210414 15.492307692184113,258.23855918616755 14.661538461456075,258.03976499740384 13.51923076924868,257.68193521071225 13.207692307652906,257.4433818432153 12.480769230634905,257.0457925835217 12.099999999976717,256.84699780662777" stroke="#4dd2ff" stroke-linecap="round" stroke-linejoin="round" stroke-width="0.5"><title>2020-12-03 1.3km</title></polyline><polyline fill="none" points="58.57183098583482,258.56783315117355 58.761971830856055,259.26669882109854 58.800000000046566,259.48509411676787 58.153521126834676,259.87820537763764 57.0507042251993,259.834526365943 55.5295774647966,259.57245220491313 54.08450704207644,258.960945226223 53.59014084516093,258.87358701741323 50.776056338101625,257.78160795453005 49.74929577461444,257.60689105445636 48.19014084502123,257.6505702859722 47.125352112576365,257.60689105445636 46.3647887322586,257.60689105445636 45.908450704067945,257.60689105445636 44.88169014081359,257.5195325787645 44.53943661949597,257.47585333450115 43.360563380178064,257.38849483264494 42.90422535198741,257.3448155754595 41.30704225343652,257.213777777768 40.81267605605535,257.1264192244271 39.82394366199151,257.0390606537985 38.530985915567726,256.47122952505015 38.03661971818656,256.29651210826705 37.199999999953434,256.12179462239146 38.15070422529243,256.3401914689457 38.98732394375838,256.73330552110565 39.82394366199151,257.1264192244271 40.318309859139845,257.17009850317845 41.573239436605945,257.3011363137921 41.95352112664841,257.3448155754595 42.94225352117792,257.4321740856976 43.436619718093425,257.47585333450115 44.46338028158061,257.47585333450115 44.9197183100041,257.5195325787645 45.94647887325846,257.60689105445636 46.402816901449114,257.60689105445636 47.809859154745936,257.6505702859722 48.266197183169425,257.6505702859722 48.950704225338995,257.56321181877865 49.17887323931791,257.56321181877865 49.33098591538146,257.56321181877865 49.483098591445014,257.56321181877865 49.635211267508566,257.56321181877865 49.8253521125298,257.5195325787645 50.01549295755103,257.5195325787645 50.39577464782633,257.56321181877865 50.54788732388988,257.56321181877865 50.8901408452075,257.6942495130643 51.23239436605945,257.8689663785335 51.19436619710177,257.95632478545303 51.19436619710177,258.00000398236443 51.15633802814409,258.00000398236443" stroke="#4dd2ff" stroke-linecap="round" stroke-linejoin="round" stroke-width="0.5"><title>2020-11-30 1.0km</title></polyline></svg>