<?xml version="1.0" encoding="utf-8" ?>
<svg baseProfile="full" height="300mm" version="1.1" viewBox="0,0,200,300" width="200mm" xmlns="http://www.w3.org/2000/svg" xmlns:ev="http://www.w3.org/2001/xml-events" xmlns:xlink="http://www.w3.org/1999/xlink"><defs /><rect fill="#222222" height="300" width="200" x="0" y="0" /><text fill="#FFFFFF" style="font-size:12px; font-family:Arial; font-weight:bold;" x="10" y="20">Over 3km Runs</text><text fill="#FFFFFF" style="font-size:4px; font-family:Arial" x="10" y="280">ATHLETE</text><text fill="#FFFFFF" style="font-size:9px; font-family:Arial" x="10" y="290">jdzj</text><text fill="#FFFFFF" style="font-size:4px; font-family:Arial" x="120" y="280">STATISTICS</text><text fill="#FFFFFF" style="font-size:3px; font-family:Arial" x="120" y="285">Number: 45</text><text fill="#FFFFFF" style="font-size:3px; font-family:Arial" x="120" y="290">Weekly: 3.2</text><text fill="#FFFFFF" style="font-size:3px; font-family:Arial" x="141" y="285">Total: 85.5 km</text><text fill="#FFFFFF" style="font-size:3px; font-family:Arial" x="141" y="290">Avg: 1.9 km</text><text fill="#FFFFFF" style="font-size:3px; font-family:Arial" x="167" y="285">Min: 1.0 km</text><text fill="#FFFFFF" style="font-size:3px; font-family:Arial" x="167" y="290">Max: 4.9 km</text><polyline fill="none" points="27.685870806802996,58.5 28.648437223164365,57.5726886522898 28.337931927642785,56.645374926389195 28.83474040054716,52.329768222756684 30.6977721741423,51.68777274186141 31.10142905858811,50.72477738308953 33.33706718694884,51.259775121259736 37.93254556192551,50.617777740524616 37.77729291387368,48.54911175934831 36.22476643603295,45.19642106865649 33.11971348000225,40.845010195538634 30.884075351525098,38.7406205755542 27.313264452153817,36.63621870649513 22.252028133836575,35.92285936095868 20.388996360241435,35.17383053302183 17.656549758976325,35.56617916023242 14.240991507191211,33.533095296879765 13.588930386467837,31.5 12.067454438074492,32.035026186553296 12.16060602676589,33.1764127384522" stroke="#4dd2ff" stroke-linecap="round" stroke-linejoin="round" stroke-width="0.5"><title>2021-05-20 1.7km</title></polyline><polyline fill="none" points="41.62980769225396,42.68891965242801 41.5,39.93049467226956 47.27644230774604,38.8867636762443 68.04567307676189,39.33407713682391 68.5,49.4731112352456 67.26682692300528,50.36772536096396 56.752403846243396,49.4731112352456 55.45432692300528,50.36772536096396 47.471153846243396,51.11323632381391 42.86298076924868,50.44227649050299 41.82451923051849,49.547662452736404 41.82451923051849,41.794296437641606" stroke="#4dd2ff" stroke-linecap="round" stroke-linejoin="round" stroke-width="0.5"><title>2021-05-18 1.1km</title></polyline><polyline fill="none" points="71.5,45.91863367764745 72.55039787793066,46.905779877241 77.68302387266885,49.07200508596725 80.90583554375917,48.989743677462684 83.0782493368024,49.48331176335341 86.82625994691625,49.04458461920149 90.95623342180625,47.83808140299516 92.12599469488487,47.12514522334095 94.01193633954972,45.80895055021392 98.5,41.39416874811286 97.7838196286466,40.51668823664659 96.01724137936253,41.88775031856494 85.68037135282066,43.01201618020423 84.17639257281553,42.600699928967515 76.03580901853275,42.35390988612198 75.60610079567414,43.0394372419687 75.70159151195548,42.765226502524456 75.22413793101441,42.957174048555316 74.7228116709739,43.9991727003071 73.98275862063747,44.300803160091164 71.83421750657726,43.86206783761736 71.52387267898303,43.286226676253136" stroke="#4dd2ff" stroke-linecap="round" stroke-linejoin="round" stroke-width="0.5"><title>2021-05-10 2.5km</title></polyline><polyline fill="none" points="128.5,53.62218834881787 128.36556016595569,52.850076451170025 127.44688796682749,51.89780196425272 125.99045643152203,52.618442436360056 125.25103734445293,52.386808215931524 125.20622406643815,51.66616710406379 125.69917012448423,50.8425748248701 125.51991701254155,48.551945129060186 124.9821576763643,47.7798182280967 122.13651452283375,48.65489520991105 120.231950207497,48.44899500766769 120.16473029053304,47.85703102100524 115.23526970960665,47.93424379112548 112.65850622404832,47.522442086657975 108.53568464738782,48.26883219741285 105.60041493782774,48.34604484558804 103.27012448140886,47.8312934259302 101.5,44.76850148165249 104.07676348555833,42.915366209083004 105.21950207476038,41.654197177209426 107.57219917012844,40.444498704135185 107.86348547716625,39.569394184683915 110.35062240669504,38.46264014756889 112.74813278007787,36.815369630552595 111.7846473029349,37.896392080554506 109.11825726146344,39.05462544912007 106.60871369298548,36.84110831236467 105.0178423236357,36.37781165118213" stroke="#4dd2ff" stroke-linecap="round" stroke-linejoin="round" stroke-width="0.5"><title>2021-05-08 2.6km</title></polyline><polyline fill="none" points="158.5,40.33026879368117 158.32324058911763,42.208326480700634 153.0204582652077,42.51287573011359 152.2250409165863,43.98486122771283 144.0499181668274,42.10681002429919 139.80769230774604,42.46211753448006 138.2610474631656,43.32500618058839 132.25122749595903,42.005293547641486 131.5,43.22348994429922 137.7749590834137,45.45684251523926 146.87806873978116,46.37048395522288 158.32324058911763,49.66973120631883" stroke="#4dd2ff" stroke-linecap="round" stroke-linejoin="round" stroke-width="0.5"><title>2021-05-08 1.3km</title></polyline><polyline fill="none" points="188.5,44.547562955413014 187.81962864729576,44.917745135200676 183.80901856790297,43.43701444446924 183.16445623361506,44.01285478231148 179.0822281166911,42.449857729516225 176.4323607427068,43.68380325799808 170.66710875323042,44.05398620440974 166.9787798409816,42.861173311423045 163.25464190985076,43.51927739850362 161.96551724127494,43.313619982858654 161.5,42.65551557124127 167.48010610067286,42.902304847346386 170.9893899206072,44.465300204145024 176.71883289143443,44.30077465294744 188.28514588880353,47.550142270483775" stroke="#4dd2ff" stroke-linecap="round" stroke-linejoin="round" stroke-width="0.5"><title>2021-05-07 1.5km</title></polyline><polyline fill="none" points="11.624615384498611,80.18516462753178 11.5,79.46832878002897 13.493846153840423,78.79928102562553 14.324615384684876,76.7921321829781 24.750769230769947,70.57947557425359 28.073846153682098,71.53527411821415 28.863076922949404,72.586650324316 29.8184615385253,70.24494563540793 29.444615384563804,69.81483537243912 29.444615384563804,71.43969434921746 29.236923076910898,70.91400528058875 28.447692307643592,72.73001962917624 29.48615384614095,71.53527411821415 28.48923076922074,72.586650324316 29.029230769025162,70.81842538825003 28.655384615296498,72.68222986560431 29.569230769062415,71.86980316028348 31.272307692328468,72.1565421539708 33.80615384597331,71.24853475438431 36.13230769219808,71.34411456121597 38.5,72.73001962917624 36.963076922809705,71.67864373602788 35.093846153700724,71.43969434921746 30.732307692291215,72.4910707641684 28.572307692142203,71.10516500828089" stroke="#4dd2ff" stroke-linecap="round" stroke-linejoin="round" stroke-width="0.5"><title>2021-05-06 1.2km</title></polyline><polyline fill="none" points="48.23724007583223,77.46278438757872 49.41115311929025,74.94149654899957 57.781663516070694,68.72618315467844 61.30340264644474,64.97350962349446 65.94801512314007,62.510804736055434 67.73440453689545,64.21124491578666 68.5,81.5085494897794 67.53024574671872,76.3487282898277 53.4943289225921,84.0298094599857 49.819470699410886,80.51176934101386 42.92911153123714,84.26434472732944 41.5,86.66832587873796 42.98015122883953,87.48919526394457 47.369565217522904,83.3848369976622 49.00283553870395,79.63225605653133 48.08412098302506,78.28366649121745" stroke="#4dd2ff" stroke-linecap="round" stroke-linejoin="round" stroke-width="0.5"><title>2021-05-06 1.8km</title></polyline><polyline fill="none" points="87.8550913836807,70.82384493073914 90.28720626607537,70.09045673039509 90.53394255880266,69.3163232919469 87.71409921674058,68.17549235391198 88.06657963432372,68.25698038539849 87.64360313303769,68.70516426290851 89.72323759784922,69.5200427621894 91.55613577016629,69.23483547507203 90.95691905985586,71.88318108403473 92.78981723240577,70.86458868044429 92.71932114870287,71.63871914224 93.45953002618626,71.59797547079506 96.20887728454545,73.79812782708905 98.2180156656541,74.24630553697352 98.25326370750554,75.38711927455734 97.61879895534366,76.28347065809066 98.5,80.35776998128858 97.75979112274945,81.82450764605892 78.1618798954878,79.50217054301174 72.6984334201552,80.23554160146159 71.5,81.13188219236326 72.34595300257206,80.27628439894761" stroke="#4dd2ff" stroke-linecap="round" stroke-linejoin="round" stroke-width="0.5"><title>2021-05-02 1.6km</title></polyline><polyline fill="none" points="109.7708860761486,68.55801729654195 111.68481012666598,69.348454042105 114.00886075990275,67.37236067571212 123.23670886084437,65.8705263681477 127.33797468361445,67.53044832928572 128.5,70.29697707982268 127.0645569623448,78.20129086408997 115.44430379755795,82.31150237331167 102.32025316450745,84.12947363191051 101.5,82.78575615363661 107.17341772140935,66.50287800800288" stroke="#4dd2ff" stroke-linecap="round" stroke-linejoin="round" stroke-width="0.5"><title>2021-05-01 1.0km</title></polyline><polyline fill="none" points="144.37958048470318,73.89144496811787 142.74392903526314,76.50013982632663 140.31865274859592,71.47839281102642 140.4314562967047,69.65229327307316 142.40551839070395,66.58704311598558 145.50761596718803,65.28267691930523 153.51666789175943,65.41311365773436 158.19801514339633,61.5 152.2758288611658,65.67398705566302 138.34459065436386,63.78265252505662 137.16015339782462,64.36961900861934 134.8476806592662,69.32620352465892 134.05805582134053,81.45663092919858 133.09922566148452,84.58702669781633 131.97119017899968,85.0435414754902 131.8019848568365,88.5 132.7044132426381,88.04348767379997 133.09922566148452,85.89135377493221 134.62207356258295,68.93489560863236 136.65253743086942,66.91313425207045 137.4985640423838,67.43487972620642" stroke="#4dd2ff" stroke-linecap="round" stroke-linejoin="round" stroke-width="0.5"><title>2021-05-01 1.8km</title></polyline><polyline fill="none" points="184.35151710780337,72.54729372254224 183.41026468691416,72.70747328280413 181.87637185282074,73.80870433762902 180.01129761134507,73.72861500787258 179.68011620396283,74.12906134077639 179.73240800516214,73.74863734330575 178.47740477730986,74.16910593061766 175.51420271140523,73.78868200814759 173.77114267268917,73.98890521413705 173.24822466110345,73.70859267051856 171.34828921884764,74.06899444117153 167.06036152353045,74.16910593061766 162.78986442863243,73.72861500787258 161.5,74.82984052217216 161.58715300186304,75.21026249312854 166.6071659134468,76.1913474433677 167.1475145255099,76.03117063254467 168.14105874759844,76.55174480551796 170.79051000642357,76.59178891735792 172.4464170432184,77.2324936324294 173.16107165906578,77.01225161476759 175.04357650096063,77.45273541120696 175.51420271140523,77.81313053362828 176.68205293739447,77.95328401951701 176.99580374429934,77.71302084159106 177.8499031633255,78.11345931352116 178.9131697868579,77.93326209892984 180.69109102641232,78.45383139346086 180.84796642995207,77.97330593819788 181.23143963847542,77.93326209892984 181.9460942542646,78.31367825318011 182.1901226597838,77.73304278393334 183.23595868301345,77.17242765137053 184.49096191086574,75.91103794146329 185.8854099418386,75.37043995175918 186.61749515816336,74.4894623648579 187.83763718529372,74.10903904291627 188.5,73.18801120518765 188.1513879922568,72.1268217752804 187.6110393802519,71.54616860652459 186.51291155582294,72.24695670625078 184.83957391860895,72.14684426873282 184.73499031632673,72.78756301557587 182.38185926398728,73.94886058874545 182.86991607490927,74.4093733037007 183.2010974822333,74.1891282225406 184.3340865073842,75.05008490809996 185.27533892838983,74.90992941746663 185.3450613298919,74.66966263690847" stroke="#4dd2ff" stroke-linecap="round" stroke-linejoin="round" stroke-width="0.5"><title>2021-04-30 3.7km</title></polyline><polyline fill="none" points="38.286729857791215,103.23623378251796 36.58056872035377,105.68592113841441 35.642180094495416,105.83290199568728 26.34360189572908,103.28522764809895 18.068720379145816,103.23623378251796 19.17772511858493,104.16711640084395 11.5,101.86440358625259 17.642180094495416,104.02013505066861 27.452606634935364,104.95101620003697 37.56161137414165,108.13559641374741 38.5,107.93962283618748 37.22037914698012,107.49868200431229" stroke="#4dd2ff" stroke-linecap="round" stroke-linejoin="round" stroke-width="0.5"><title>2021-04-29 1.4km</title></polyline><polyline fill="none" points="51.87571428576484,104.33554940490285 54.07428571442142,102.60747186263325 53.30285714287311,101.23386702072457 54.65285714273341,100.79076778833405 63.871428571408615,91.97300212824484 64.95142857148312,91.84006966266315 68.5,95.91664737128303 63.987142856931314,98.84112597076455 64.488571428461,98.88543610589113 61.672857142519206,101.94282488318277 62.86857142834924,101.49972635036102 63.1385714286007,100.48059806539095 61.78857142850757,101.58834609185578 55.34714285703376,109.38681485856068 50.98857142869383,111.95673512283247 48.01857142848894,114.57094926701393 47.82571428571828,116.25467235324322 45.39571428578347,118.15993033730774 43.390000000130385,117.14083986292826 41.5,114.43802349138423 41.6542857142631,111.82380857339012 44.315714285708964,110.58315888041398 45.28000000002794,109.07665107343928 47.94142857147381,107.92461228143657 48.44285714300349,106.77257053373614 49.75428571435623,106.01931086977129 50.140000000130385,104.6900260274997 51.14285714295693,103.93676287005655 52.26142857130617,104.20262059936067 52.49285714281723,103.36073724998278" stroke="#4dd2ff" stroke-linecap="round" stroke-linejoin="round" stroke-width="0.5"><title>2021-04-26 2.2km</title></polyline><polyline fill="none" points="87.42964901856612,113.72947800598922 88.16590629715938,112.71446476058918 89.01996473991312,102.05664420773974 91.9060932713328,91.5 89.255567069049,101.8874697809515 87.16459639824461,102.86868029402103 84.1312164113624,102.6656714527926 80.98003525985405,103.13935856189346 79.33081895625219,104.15440016260254 78.18225760187488,105.77846047110506 78.09390672855079,115.72566195391119 79.41916982969269,118.16166729407269 80.30267856363207,118.5 80.89168438641354,118.19550057966262 84.07231582922395,115.52266072752536 85.16197660111357,116.26699797008769 86.22218708205037,115.488827178051 86.4283391200006,114.60915372084128" stroke="#4dd2ff" stroke-linecap="round" stroke-linejoin="round" stroke-width="0.5"><title>2021-04-25 2.2km</title></polyline><polyline fill="none" points="116.04328879958484,118.5 115.24709471571259,112.57028896175325 115.68637421028689,109.19535109811113 115.24709471571259,102.9185027051426 115.65891924186144,91.97315048170276 115.32945962098893,91.5 114.64308541070204,91.97315048170276 113.95671120041516,103.13929845957318 114.2312608845532,114.11580935536767 115.32945962098893,114.4312207622861 115.41182452614885,114.14735051008756 115.54909936827607,108.753767806018 115.1921847788617,112.94878444314236" stroke="#4dd2ff" stroke-linecap="round" stroke-linejoin="round" stroke-width="0.5"><title>2021-04-18 2.2km</title></polyline><polyline fill="none" points="158.5,108.84329710557358 153.66475644684397,108.35455802554497 139.0429799426347,103.95588244483224 132.58309455565177,103.33384404791286 131.5,102.62294197097071 139.1977077361662,102.53407913257251 140.89971346687526,101.15670289442642 144.22636103141122,102.66737338370876" stroke="#4dd2ff" stroke-linecap="round" stroke-linejoin="round" stroke-width="0.5"><title>2021-04-16 1.0km</title></polyline><polyline fill="none" points="188.5,107.16544545063516 187.70920502085937,107.37630865129177 187.38441422593314,106.71127763851837 186.81956066942075,106.48419326210569 186.0993723848951,106.66261672708788 185.84518828446744,106.45175261124677 185.49215481168358,105.96514208130247 186.11349372385303,104.86215288248786 185.9016736401245,104.05112669288064 185.47803347278386,103.87270039442228 182.18776150629856,104.09978837710514 179.37761506275274,103.85647981220973 178.00784518831642,104.1808911520493 177.42887029290432,103.95380328134343 176.49686192470836,104.05112669288064 176.27092050213832,103.85647981220973 174.4351464434876,104.06734725587012 173.78556485357694,103.84025922839646 173.03713389125187,104.05112669288064 172.2887029288686,103.74293569203292 170.70711297076195,104.03490612830501 169.4079497908242,103.51584721657855 168.3347280335147,103.6456120981311 167.72751046030317,102.89946263092861 166.6260460250778,102.9643453276658 165.62343096232507,102.6561522900156 165.21391213394236,102.85080059153552 164.64905857742997,102.29929647214885 163.8158995815902,102.59126947163895 162.60146443516714,102.18575127677468 161.89539748959942,102.55882805289002 162.38964435155503,102.20197202375857 162.50261506275274,102.75347646955925 161.5,102.70481438699062 162.34728033473948,102.39662086291355 161.93776150635676,102.49394519609632 162.3755230125971,102.46150375812431 162.02248953975504,102.60749017864873 162.24843096238328,102.85080059153552 162.00836820085533,102.6561522900156 162.34728033473948,102.54260734103445 162.24843096238328,102.36417940571846 161.96600418409798,102.46150375812431 162.0648535565124,102.70481438699062 162.50261506275274,102.52638662765094 162.29079497908242,102.44528303669358 162.2625523013412,102.67237299059343 162.3755230125971,102.38040013515274 162.22018828458386,102.67237299059343 162.31903765688185,102.44528303669358 162.38964435155503,102.6237108840287 162.1778242678265,102.03976448181493 162.30491631804034,102.46150375812431 162.23430962342536,102.18575127677468 162.2625523013412,102.46150375812431 161.9801255229977,102.25063425516419 162.0789748954703,102.10464751777181 162.1778242678265,102.25063425516419 161.96600418409798,102.33173794214963 162.24843096238328,102.47772447788157 162.02248953975504,102.34795867474168 162.29079497908242,102.10464751777181 162.09309623437002,102.44528303669358 161.86715481174178,102.44528303669358 162.09309623437002,102.02354371879483 161.8812761506415,102.16953052819008 162.22018828458386,102.46150375812431 161.9801255229977,102.31551720792777 162.02248953975504,102.46150375812431 162.09309623437002,102.33173794214963 162.1637029288686,103.01300733347307 162.02248953975504,104.53774288666318 163.39225941424957,104.82971191170509 163.50523012556368,105.08923949877499 164.73378661094466,104.97569622984156 165.4398535565124,105.23522358651098 171.07426778244553,105.47853011143161 176.6380753138801,106.19222717446974 179.30700836819597,106.28954926127335 180.4932008368778,106.54907454446948 181.86297071131412,107.24654671369353 184.00941422587493,107.00324280455243 184.23535564856138,107.39252888633928 184.53190376568818,107.26276696148852 186.55125523015158,107.68449284293456 186.90428870293545,107.97645628120517 187.5397489540046,107.830474626855 187.7374476987752,107.23032646426873 188.3023012552294,107.00324280455243" stroke="#4dd2ff" stroke-linecap="round" stroke-linejoin="round" stroke-width="0.5"><title>2021-04-09 4.9km</title></polyline><polyline fill="none" points="37.95496894442476,136.44471134166815 29.48602484492585,133.98871357101598 28.521739130606875,133.0737308509415 22.56832298170775,133.5553009174473 18.25000000023283,133.1218878790387 19.046583851100877,133.60345789804705 18.66925465851091,133.79608577254112 11.5,132.15874641618575 17.453416149131954,133.94055662854225 26.006211180239916,134.66291026771069 37.87111801258288,137.84125358381425 36.27795031084679,137.2152179002005 38.5,136.92627808329416 37.91304347827099,136.20392779266695" stroke="#4dd2ff" stroke-linecap="round" stroke-linejoin="round" stroke-width="0.5"><title>2021-04-09 1.4km</title></polyline><polyline fill="none" points="42.57386363646947,133.50223745114636 43.877840909175575,134.60354574551457 53.31250000023283,138.21581789135234 57.492897727293894,138.0396101717488 61.1363636367023,138.788492499938 67.8863636367023,138.0396101717488 68.5,137.29072658804944 65.7769886367023,136.5858938328456 62.51704545458779,137.2466745733982 59.14204545458779,135.96916425964446 56.34232954564504,136.18942491928465 51.586647727293894,133.76655168936122 50.97301136376336,132.6211888602993 48.25000000023283,131.56392825720832 46.17897727293894,131.2115075000911 41.5,132.3568739441107" stroke="#4dd2ff" stroke-linecap="round" stroke-linejoin="round" stroke-width="0.5"><title>2021-04-08 1.4km</title></polyline><polyline fill="none" points="98.32467532483861,136.12775079283165 98.5,137.05411077366443 96.22077922080643,137.0943872469943 90.18961038975976,135.0402820468007 81.07272727275267,134.597238393937 76.26883116876706,132.9056127530348 71.5,133.63059602869907 76.02337662340142,133.10699712540372 80.82727272738703,134.55696167447604 89.7688311689999,134.95972869111574" stroke="#4dd2ff" stroke-linecap="round" stroke-linejoin="round" stroke-width="0.5"><title>2021-04-06 1.3km</title></polyline><polyline fill="none" points="109.74550898186862,130.9457708785194 113.14071856276132,129.88541559164878 114.54191616759636,131.00814466172596 114.54191616759636,132.19324533944018 113.6257485030219,132.69223441329086 115.24251497001387,134.4386929749744 116.91317365248688,134.62581324036 119.06886227522045,133.62783783260966 121.49401197605766,130.57152804534417 123.64970059879124,131.38238722848473 125.42814371269196,130.32203269645106 128.44610778428614,130.6962756817229 128.44610778428614,126.89146135671763 128.12275449116714,129.19930237036897 126.34431137726642,128.88743247062666 128.5,129.26167633139994 128.3922155688051,130.88339708879357 123.7574850297533,131.32001348305494 121.49401197605766,130.50915421778336 117.82934131729417,135.12480033526663 118.69161676662043,134.37631954066455 114.64970059879124,134.31394609995186 113.84131736494601,132.94172879809048 115.02694610785693,132.94172879809048 114.91916167666204,132.3179926458979 113.51796407182701,129.82304169406416 112.92514970037155,130.6962756817229 111.73952095792629,130.57152804534417 110.23053892189637,133.8149583453196 105.2185628740117,136.43463952775346 103.60179640701972,139.42854717787122 103.38622754462995,137.1207446550252 102.95508982008323,140.0522760989843 102.57784431125037,138.6800716354628 102.95508982008323,139.61566592089366 102.6317365267314,138.8048176226439 104.84131736517884,139.9275303655304 106.61976047884673,142.609558043594 108.93712574825622,142.422440214199 109.58383233519271,141.11261380888755 108.18263473035768,140.48888596630422 109.4221556885168,140.48888596630422 108.82934131729417,141.23735930153634 108.29041916131973,140.73837717954302 108.93712574825622,141.48685021017445 109.09880239493214,140.8631227480946 109.36826347303577,142.29769496276276 108.45209580799565,143.10853864328237 105.4880239518825,142.85904839425348 102.73952095769346,139.61566592089366 103.22455089795403,136.80887878325302 103.54790419130586,139.05430952075403 101.5,140.23939465155127 102.09281437122263,139.2414283779217 101.71556886192411,140.48888596630422 103.22455089795403,139.42854717787122 103.4401197603438,136.68413239018992" stroke="#4dd2ff" stroke-linecap="round" stroke-linejoin="round" stroke-width="0.5"><title>2021-04-05 1.9km</title></polyline><polyline fill="none" points="152.73379468498752,142.10341087402776 151.67500136501621,142.6364659423416 152.0893117946107,141.9967997299682 152.82586366939358,141.9967997299682 152.98698439181317,141.5437018830562 152.15836353285704,146.47443036714685 150.38603558414616,147.75373932847288 150.2939665997401,148.5 150.22491486161016,147.75373932847288 152.22741527110338,146.5543873605202 152.89491540763993,143.9424462687748 153.35526032932103,139.78460868593538 152.20439802494366,138.95836385842995 149.7185354476096,138.50526074811933 148.24543169816025,139.65134356773342 145.1611207226524,140.53089209322934 139.54491267749108,143.91579367421218 138.53215384972282,142.2899802714819 137.35827429941855,142.79638225099188 136.8058603933314,142.58316048438428 133.58344594121445,128.7500269431912 133.39930797251873,126.21787125550327 135.0335324446205,133.6276893276954 135.53991185850464,133.84091839494067 141.45534410269465,131.1488886642328 146.01275882776827,129.6829202270601 148.86689734249376,128.08367256019847 152.8718981614802,124.85849335137755 155.24267450836487,121.5 156.60069202748127,122.19302596943453 156.43957130482886,122.40626435974264 155.8871573987417,122.2196807777218 156.2093988439301,121.95313257249654 156.2093988439301,122.37960957048927 156.3475023205392,121.65992923290469 155.56491595355328,121.89982289876207" stroke="#4dd2ff" stroke-linecap="round" stroke-linejoin="round" stroke-width="0.5"><title>2021-04-05 3.7km</title></polyline><polyline fill="none" points="168.31308411201462,125.2103965000133 172.60280373785645,128.61973999917973 176.13551401905715,138.45806303771678 176.2196261677891,143.42589063744526 178.15420560725033,143.03625803388422 180.08878504671156,144.7896034999867 184.46261682221666,141.57513435458532 188.5,142.64662527100882 180.25700934557244,140.69845907430863 180.25700934557244,143.91293116903398 180.67757009342313,139.432148916414 180.5093457940966,144.10774731216952 180.76168224262074,142.54921705560992 177.39719626121223,143.23107435565908 179.66822429932654,141.76995097420877 180.845794392284,143.91293116903398 178.7429906539619,142.54921705560992 180.25700934557244,142.15958409424638 179.9205607478507,144.01033924537478 180.845794392284,144.01033924537478 179.75233644852415,142.06217582896352 181.68691588751972,144.4973794791731 179.75233644852415,142.7440334765124 179.9205607478507,141.1855009960709 181.35046728979796,143.42589063744526 180.0046728970483,141.2829093504115 177.7336448598653,141.1855009960709 176.72429906530306,143.71811498625902 176.9766355138272,142.4518088303157 172.68691588798538,139.23733182030264 174.3691588784568,133.0031637659995 172.68691588798538,133.6850278780912 172.77102803764865,131.15238729520934 167.80841121450067,128.4249206984532 161.5,129.00937848177273 165.03271028026938,130.2757024524617 166.2102803736925,133.58761874877382" stroke="#4dd2ff" stroke-linecap="round" stroke-linejoin="round" stroke-width="0.5"><title>2021-04-04 1.4km</title></polyline><polyline fill="none" points="28.167597765568644,152.9137280768482 19.79608938563615,156.72593444224913 11.726256983354688,166.08309806726174 19.343575419392437,174.48713224026142 23.79329608939588,169.46204931195825 28.99720670422539,167.29605642065872 29.148044693283737,164.43693762167823 33.97486033523455,160.88468614366138 26.88547486020252,151.87403255852405 20.927374301943928,155.8595253583626 11.5,166.60293756675674 19.19273743033409,173.5341014813166 23.71787709509954,168.24909395119175 31.1089385477826,167.03613691445207 33.29608938563615,165.38997825584374 34.42737430194393,161.05796703702072 34.1256983242929,160.27820274728583 33.22067039133981,162.01101133896736 30.581005586776882,163.31061553861946 30.50558659248054,162.5308532496565 38.5,157.24577948241495 35.558659218251705,155.6862434389186 32.4664804469794,151.87403255852405 30.731843575369567,154.73319227073807 25.452513966709375,152.4805217604153 15.044692737516016,161.8377306337352 11.80167597765103,166.42965776781784 19.343575419392437,173.5341014813166 23.79329608939588,168.85557184100617 24.472067039459944,169.3754096989869 22.58659217879176,171.97459437139332 32.91899441368878,174.14057572046295 36.23743016785011,178.12596744153416 29.223463687114418,165.3033382408903 29.977653631474823,162.9640546067385 33.673184358049184,159.84500006528106 29.60055865952745,157.3324202922522 27.337988826911896,153.00036931439536 25.754189944360405,152.39388047158718 24.39664804469794,153.34693417925155 25.075418994762003,153.95342236361466" stroke="#4dd2ff" stroke-linecap="round" stroke-linejoin="round" stroke-width="0.5"><title>2021-04-02 3.1km</title></polyline><polyline fill="none" points="58.063829787191935,175.4343305611983 54.90425531915389,174.3345724202518 48.944148936192505,174.22459636750864 42.481382978730835,173.37228048761608 41.93085106392391,172.8498920472921 41.5,170.23793516049045 42.122340425499715,169.74303530808538 43.414893617038615,169.68804638125584 42.24202127661556,166.03125840533176 42.52925531915389,161.08214564228547 44.324468085193075,158.52506961475592 45.0425531915389,156.7928434922942 48.46542553184554,154.4281999762752 49.853723404346965,155.94047430498176 51.14627659576945,156.21543239211314 51.81648936169222,157.01280931095243 54.64095744676888,157.01280931095243 58.997340425499715,157.70020137538086 61.10372340423055,158.80002515210072 64.5984042553464,161.90700387241668 67.90159574453719,167.62595379757113 67.99734042549971,168.36830888519762 67.23138297861442,169.028178414359 66.92021276592277,170.07296864059754 67.59042553184554,170.0454742111324 68.5,172.38249103396083 67.90159574453719,173.6197273019061 65.81914893607609,174.00464413187 65.3164893615758,174.63700634156703 64.14361702115275,174.05963220700505 63.64095744676888,174.27958439930808 62.396276595653035,173.89466794897453 61.79787234030664,175.5718000237248 61.60638297861442,175.37934275722364" stroke="#4dd2ff" stroke-linecap="round" stroke-linejoin="round" stroke-width="0.5"><title>2021-04-02 3.2km</title></polyline><polyline fill="none" points="74.32891246699728,162.71723626583116 83.46021220157854,166.78919727093307 88.40185676398687,166.74806655038265 91.40981432353146,167.44728824673803 95.45623342180625,166.4601513936359 98.5,166.50128214235883 91.62466843496077,167.40615759126376 88.61671087541617,166.7069358259323 83.74668435007334,166.953720112273 77.44429708225653,165.14396528797806 71.5,162.55271175326197" stroke="#4dd2ff" stroke-linecap="round" stroke-linejoin="round" stroke-width="0.5"><title>2021-04-01 1.4km</title></polyline><polyline fill="none" points="101.5,161.59926042420557 104.54909983626567,164.6954673033033 108.12847790494561,165.45682679719175 112.32651391159743,167.63938443706138 118.07119476282969,167.5378703335009 121.25286415708251,168.40073957582354 128.5,167.5378703335009 123.418166939402,168.29922562243883 117.27577741397545,167.3855991406017 111.79623567918316,167.63938443706138 103.57692307676189,165.40606953256065 102.73731587571092,164.94925392634468 103.7094926352147,164.5431952692743" stroke="#4dd2ff" stroke-linecap="round" stroke-linejoin="round" stroke-width="0.5"><title>2021-03-29 1.2km</title></polyline><polyline fill="none" points="144.50763466744684,178.5 143.24936770671047,171.4047617338947 142.37405155971646,171.15360141260317 138.10688534518704,165.00014268804807 135.26210786867887,164.74897984799463 144.12468385323882,151.5 147.07887584809214,153.32096613023896 152.87784531945363,159.22337237704778 152.27606546878815,163.43037331756204 154.7378921310883,177.8721059873933 146.91475407057442,172.6605618582107 144.06997659383342,172.09545210778015 143.79644029820338,173.28846099448856" stroke="#4dd2ff" stroke-linecap="round" stroke-linejoin="round" stroke-width="0.5"><title>2021-03-28 1.4km</title></polyline><polyline fill="none" points="174.66769230784848,160.10942592195352 176.20461538457312,161.01598240912426 176.57846153830178,160.25256653287215 178.07384615391493,160.157139463583 178.40615384629928,159.3937222318491 178.8630769229494,159.91857170814183 179.56923076929525,159.3937222318491 181.77076923055574,160.63427462166874 183.05846153851599,159.68000383497565 186.8384615383111,160.82512855296955 186.58923076931387,159.87085814285092 188.37538461526856,160.0617123756092 187.046153845964,159.58457665276364 187.37846153834835,158.8211585173267 187.46153846150264,159.87085814285092 187.25384615384974,159.3937222318491 186.79692307696678,160.01399882443366 186.87999999988824,159.2505813666503 187.46153846150264,160.0617123756092 186.8384615383111,159.87085814285092 188.0846153846942,159.72771741898032 188.0846153846942,160.20485300049768 187.5446153844241,159.5368630544981 186.67230769223534,160.01399882443366 188.4169230768457,159.72771741898032 187.87692307680845,159.29829499311745 187.7107692307327,160.7297015967779 186.96307692304254,160.10942592195352 186.87999999988824,160.63427462166874 187.9184615383856,159.9662852686888 187.46153846150264,160.01399882443366 188.5,161.30226305214455 188.37538461526856,159.91857170814183 187.75230769230984,160.01399882443366 188.0846153846942,160.68198811152251 187.17076923092827,160.96826895224513 187.046153845964,160.4434206149308 186.54769230773672,161.1591227517929 184.80307692289352,160.92055549059296 184.80307692289352,159.9662852686888 185.21846153843217,168.1729476553155 180.5246153846383,169.22262698729173 176.70307692303322,167.98209662307636 176.99384615384042,168.602362202917 175.83076923084445,167.98209662307636 169.1015384614002,167.64810713526094 165.7369230769109,168.65007490682183 165.4461538461037,170.36772911532898 164.65692307706922,170.9879916361242 161.95692307688296,171.1788414827024 161.5,170.4154416451056" stroke="#4dd2ff" stroke-linecap="round" stroke-linejoin="round" stroke-width="0.5"><title>2021-03-26 1.5km</title></polyline><polyline fill="none" points="14.353658536914736,193.28908159493585 22.914634146611206,196.78296138744918 25.92508710816037,196.56684608149226 28.559233449632302,197.14315327999066 32.353658536681905,196.38674989546416 33.85888501745649,196.56684608149226 38.5,194.90995782002574 34.391986062866636,196.56684608149226 29.092334494926035,196.99907656561118 26.30139372847043,196.42276913978276 23.196864111814648,196.67490375047782 16.517421602853574,195.0540353585675 11.5,192.85684672000934" stroke="#4dd2ff" stroke-linecap="round" stroke-linejoin="round" stroke-width="0.5"><title>2021-03-26 1.6km</title></polyline><polyline fill="none" points="68.5,197.39574562490452 66.43718166393228,197.13247799157398 63.36587436310947,195.18429346877383 60.75297113740817,195.23694719810737 56.994057724950835,193.76264081668342 47.82597623066977,194.0259101120173 49.201188454870135,194.71040967211593 48.65110356523655,194.8683709843317 41.5,192.60425437503727 47.275891341036186,194.81571721867658 55.481324278283864,195.34225464100018 62.494906621286646,197.02717090176884" stroke="#4dd2ff" stroke-linecap="round" stroke-linejoin="round" stroke-width="0.5"><title>2021-03-24 1.1km</title></polyline><polyline fill="none" points="98.5,196.98045260098297 96.55570652172901,196.85404130007373 94.64809782616794,195.42137727636145 91.60326086962596,194.91573000318022 89.10869565233588,193.77802145073656 81.47826086962596,193.94657105699298 82.13858695677482,194.6629061421845 76.1589673915878,193.01954739898792 71.5,193.60947177780326 73.33423913037404,193.8622962621157 76.30570652172901,193.06168488171534 81.8084239133168,194.74718077926082 91.82336956541985,195.16855371458223" stroke="#4dd2ff" stroke-linecap="round" stroke-linejoin="round" stroke-width="0.5"><title>2021-03-23 1.3km</title></polyline><polyline fill="none" points="127.96143617015332,196.34032829705393 118.87765957438387,193.16479310847353 115.17952127661556,193.78340575075708 111.51728723407723,193.37099742420833 112.52260638284497,194.0308505515568 112.12765957438387,194.15457289706683 106.34707446792163,192.42245672934223 101.5,193.12355223300983 105.98803191492334,192.50493861435098 111.40957446815446,194.0720913373807 118.59042553184554,194.56698045079247 128.5,197.57754327062867 126.88430851045996,196.7939742123708 128.5,196.34032829705393" stroke="#4dd2ff" stroke-linecap="round" stroke-linejoin="round" stroke-width="0.5"><title>2021-03-22 1.6km</title></polyline><polyline fill="none" points="154.49234889051877,181.66696286508522 154.86419280793052,181.92771207584883 154.65761285379995,182.75736678148678 156.53749043610878,183.0418191668141 157.0332823258359,183.4447928055597 156.86801836267114,184.17962535582774 157.6117061972618,184.6774138768087 158.5,186.21818136313232 157.96289211930707,187.64041954364802 157.17788829375058,187.97227391318302 156.88867635803763,188.8256116255361 153.06694720732048,192.1441184944124 148.8527161438251,193.77965152416436 147.53060443745926,194.63296870570048 146.51836266263854,195.4862828705518 143.56426931906026,199.56318669089524 131.5,208.33303713492933" stroke="#4dd2ff" stroke-linecap="round" stroke-linejoin="round" stroke-width="0.5"><title>2021-03-21 1.3km</title></polyline><polyline fill="none" points="173.7393090579426,192.65431547551998 173.39659695723094,190.4628218654252 171.0465711238794,187.5408042424533 170.09187312901486,187.2598394350207 166.86058760806918,190.20995613664854 163.6537815228803,194.28387675297563 162.845960142673,194.5086430964584 161.96470045519527,196.89677457942162 163.4579460368259,199.032028183894 167.00746422261,200.7177434452169 170.85073563770857,203.83629046773422 170.63042071578093,204.00485960778315 171.1444888669066,203.94866990548326 170.67937958752736,203.69581610852038 171.26688604569063,204.67913517341367 172.56429614126682,206.22434401192004 177.48466273001395,208.5 180.03052404953633,208.24715022931923 186.0279858118156,204.06104929899448 186.83580719213933,202.37535375673906 188.0352995446883,196.98106120841112 186.83580719213933,194.90198377234628 182.35607044724748,190.77187967445934 177.50914216588717,184.67495024375967 173.9106651082402,181.5 169.87155820708722,187.11935692763655 170.60594128014054,187.20364644034998 171.60959814640228,188.13082943920745 173.56795300764497,190.63139889360173 173.54347357188817,191.41809037700295" stroke="#4dd2ff" stroke-linecap="round" stroke-linejoin="round" stroke-width="0.5"><title>2021-03-20 3.7km</title></polyline><polyline fill="none" points="35.83990147779696,231.79852100237622 26.618226600810885,228.8448868917476 16.86453201971017,228.53933757098275 11.633004926145077,227.4189885148371 11.5,225.58568481527618 12.253694581333548,224.7708810813201 11.544334975536913,223.395896864502 11.72167487675324,221.00239708510344 14.51477832510136,218.20147899762378 19.12561576371081,218.76166383081 23.825123152695596,220.34036327208742 32.69211822655052,220.1366603898059 37.43596059107222,219.37277386462665 38.012315270723775,218.7107379619556 37.16995073878206,220.6459174452175 36.63793103443459,227.21528842530097 37.0812807881739,230.57632962657954 38.5,230.83095306847827" stroke="#4dd2ff" stroke-linecap="round" stroke-linejoin="round" stroke-width="0.5"><title>2021-03-19 1.6km</title></polyline><polyline fill="none" points="52.44199535972439,224.7241834859742 58.30974477971904,227.2426167684025 60.585846867994405,227.09870699765452 62.56960556854028,227.53043605438143 64.65777262195479,227.07472202762438 65.76450116012711,227.1706618936878 68.5,226.3551718256931 63.425754060503095,227.50645112684288 60.81554524379317,227.09870699765452 57.89211136905942,227.21863181254594 46.2192575406516,223.50093505275436 41.5,222.9972427329194 42.523201856180094,223.14115493069403 41.83410672855098,222.85333044989966 42.042923433938995,222.73340348235797 43.62993039446883,222.8293450611527 45.7389791184105,222.46956394561857 46.448955916566774,222.9972427329194 46.86658932722639,222.73340348235797 47.36774941999465,223.21311099771992 47.80626450118143,223.0691988425242 48.370069605647586,223.54890569548297 49.08004640380386,223.2850670433836 50.541763341170736,224.3404199340148 50.83410672855098,223.98064105407684 50.0823665894568,222.85333044989966 49.79002320196014,222.87731583633285 49.89443155459594,223.69281756679993 51.2517401392106,224.36440517377923 51.81554524379317,223.02122810516448 52.128770301816985,223.66883226085338 52.54640371236019,223.59687632865098 52.10788863117341,223.71680287044728 52.35846867761575,223.6448469524621 51.75290023209527,222.8053596700338 52.650812065112405,222.73340348235797" stroke="#4dd2ff" stroke-linecap="round" stroke-linejoin="round" stroke-width="0.5"><title>2021-03-19 3.1km</title></polyline><polyline fill="none" points="82.86185962153831,238.5 82.71021845994983,238.02971275118762 82.42210025299573,237.9774585351406 81.9975050004432,238.3780737964844 82.51308494986733,235.43440133267723 82.31595143978484,236.1485512315412 82.40693613677286,237.45491552402382 82.11881792976055,237.68135101867665 80.48109338455833,237.6465148076095 80.28395987441763,236.60142528064898 80.42043691989966,235.67825772045762 84.39343535364605,234.7899221154221 87.06231979769655,234.61573813950235 86.97133510076674,217.77133590234735 87.8660179541912,216.62160766593297 89.71604012564057,214.98410300788237 89.38242957007606,214.14792455772113 87.12297626235522,211.5" stroke="#4dd2ff" stroke-linecap="round" stroke-linejoin="round" stroke-width="0.5"><title>2021-03-18 2.7km</title></polyline><polyline fill="none" points="110.65707811439643,236.27201083266118 111.41298898454988,236.40306984627387 111.52708873845404,237.04198105671094 111.81233812338905,237.20580404812063 113.35268480202649,237.51706728668069 115.34943049651338,237.33686232486798 116.73289001343073,237.73003653480555 118.0165122456383,238.5 118.34454903821461,237.46792049828218 118.1591369381058,233.0937980911549 119.34292188554537,232.97911917501187 117.64568804518785,232.50401996453002 116.00550408184063,232.42210617019737 115.27811815030873,231.6357316889771 113.83760875638109,216.74306192847143 115.40648037352366,214.90800908749225 116.51895297470037,214.2690127123351 115.72025469696382,212.84355039751972 114.35105764924083,211.5" stroke="#4dd2ff" stroke-linecap="round" stroke-linejoin="round" stroke-width="0.5"><title>2021-03-17 2.8km</title></polyline><polyline fill="none" points="132.40957446815446,223.5428993329988 132.74468085099943,223.5428993329988 134.42021276592277,224.25771734368755 134.89893617015332,224.86256263690302 139.87765957438387,226.23720859031891 145.14361702115275,226.95202314679045 146.9148936169222,226.8420517363702 148.15957446815446,227.11698022211203 148.78191489353776,227.33692291303305 151.27127659553662,227.72182241349947 153.32978723407723,228.5466061629122 154.0,228.7115627663443 155.14893617038615,229.31640322814928 156.10638297884725,229.9212430336629 156.4893617022317,230.03121383691905 156.92021276592277,230.2511553784134 157.97340425522998,230.5260821832344 158.5,230.4710968331783 158.45212765969336,230.4710968331783 158.45212765969336,230.4710968331783 158.3085106385406,230.5260821832344 158.4042553191539,230.4710968331783 158.45212765969336,230.4710968331783 158.5,230.5260821832344 158.21276595722884,230.4710968331783 157.59042553184554,230.4710968331783 155.4840425529983,230.5260821832344 154.04787234053947,230.08619923051447 152.65957446815446,229.81127220881172 151.27127659553662,229.70130136219086 149.88297872338444,229.75628678809153 149.16489361715503,229.81127220881172 147.77659574477002,229.9212430336629 147.15425531892106,229.9212430336629 145.0,229.75628678809153 144.32978723407723,229.59133049368393 143.0372340423055,229.26141775865108 142.36702127661556,228.93150482838973 141.07446808507666,228.4916206173948 140.4042553191539,228.27167838194873 137.67553191492334,227.72182241349947 135.9042553191539,227.00700884399703 135.7606382977683,226.6770945797325 136.33510638284497,226.5671231148881 136.57446808507666,226.5671231148881 136.76595744676888,226.34718012035592 136.57446808507666,226.29219435801497 136.09574468061328,226.18222281726776 135.85638297861442,226.1272370388615 135.71276595746167,226.0722512549255 135.42553191492334,226.0722512549255 135.23404255323112,225.96227967075538 134.99468085099943,225.96227967075538 134.75531914876774,225.96227967075538 134.42021276592277,225.8523080649902 134.18085106369108,225.7423364375718 134.03723404253833,225.6873506156844 133.55851063830778,225.4124214250478 133.4148936169222,225.30244971072534 133.17553191492334,225.1374920986127 133.03191489353776,225.02752033027355 132.888297872385,224.86256263690302 132.69680851045996,224.64261896983953 132.361702127615,224.3676892640069 132.07446808507666,224.20273137534969 131.93085106369108,224.09275942249224 131.69148936169222,223.81782944552833 131.59574468061328,223.32295514538419 131.59574468061328,222.88306650985032 131.54787234053947,222.6081359362579 131.5,222.38819137983955 131.64361702115275,221.94830200687284 131.59574468061328,221.34345355216647 131.59574468061328,221.06852221954614 131.54787234053947,220.90356335480465 131.64361702115275,220.73860444140155 131.59574468061328,220.68361812614603 131.64361702115275,220.29871376691153 131.69148936169222,220.02378191897878 131.93085106369108,219.96879553317558 132.40957446815446,219.80383634311147 132.64893617015332,219.69386352261063 132.79255319130607,219.63887710432755 133.07978723407723,219.52890425140504 133.12765957438387,219.52890425140504 133.12765957438387,219.4739178167074 133.17553191492334,219.4739178167074" stroke="#4dd2ff" stroke-linecap="round" stroke-linejoin="round" stroke-width="0.5"><title>2021-03-02 1.4km</title></polyline><polyline fill="none" points="166.46046511642635,225.39670685463352 166.77441860502586,225.54094889492262 170.2279069768265,226.1900377253187 172.42558139562607,226.98336773522897 173.2418604651466,227.3439720008755 175.43953488394618,227.92093845579075 176.2558139534667,227.92093845579075 178.57906976761296,227.77669688494643 179.332558139693,227.56033447483787 181.6558139536064,227.41609283257276 183.10000000009313,227.92093845579075 183.85348837217316,228.20942151272902 185.17209302354604,228.71426658827113 186.42790697677992,228.93062865681713 187.99767441884615,228.78638728504302 188.24883720930666,228.64214588463074 188.5,228.78638728504302 188.4372093025595,229.79607629112434 187.30697674443945,230.08455860830145 186.3651162791066,230.8778843934997 185.9255813951604,231.02212535316357 185.4860465116799,231.16636628413107 185.23488372098655,231.16636628413107 184.85813953494653,231.2384867388173 184.60697674448602,231.38272762706038 183.7279069768265,231.74332972348202 183.85348837217316,232.10393164196284 184.2930232558865,232.39241304877214 184.2930232558865,232.4645333828521 184.2930232558865,232.53665370953968 184.35581395355985,232.4645333828521 184.04186046519317,232.39241304877214 183.66511627915315,232.53665370953968 183.5395348840393,232.60877402912593 183.41395348822698,232.68089434184367 183.35116279078647,232.75301464722725 183.35116279078647,232.75301464722725 183.10000000009313,232.39241304877214 182.97441860474646,232.24817235959927 182.78604651149362,232.03181127260905 182.72325581405312,231.8875705123064 182.0953488375526,231.74332972348202 181.84418604662642,231.74332972348202 181.53023255825974,231.74332972348202 181.2162790701259,231.67120931850513 180.83953488408588,231.67120931850513 180.52558139548637,231.67120931850513 179.897674418753,231.52696848718915 179.5837209301535,231.45484806067543 179.2697674422525,231.38272762706038 178.95581395342015,231.3106071865186 178.32790697691962,231.16636628413107 178.07674418599345,231.02212535316357 177.7627906978596,230.9500048768823 177.44883720949292,230.80576390313217 177.1348837208934,230.6615229010349 176.8837209304329,230.44516134465812 176.31860465137288,230.15667916968232 175.75348837208003,229.86819688096875 175.31395348883234,229.43547323450912 175.0,229.2912319623283 174.68604651163332,229.14699066145113 174.37209302349947,229.0027493322268 174.05813953466713,228.85850797448074 173.8697674421128,228.78638728504302 173.3674418607261,228.57002517359797 173.11627907003276,228.4979044556967 172.8651162791066,228.42578373057768 172.61395348841324,228.28154225915205 172.3000000002794,228.20942151272902 171.9860465116799,228.13730075926287 171.2953488372732,228.06517999846255 171.04418604681268,227.99305923079373 170.73023255821317,227.92093845579075 170.35348837217316,227.92093845579075 170.10232558147982,227.84881767391926 169.47441860474646,227.77669688494643 169.16046511637978,227.63245528534753 168.59534883731976,227.19973031594418 167.9674418605864,226.98336773522897 167.71627906989306,226.9112468608073 167.40232558175921,226.8391259793425 167.02558139548637,226.76700509065995 166.77441860502586,226.69488419493428 166.46046511642635,226.55064238182968 165.89534883736633,226.2621586708119 165.58139534899965,226.1179167724913 165.33023255807348,225.97367484582355 164.70232558157295,225.6130699045607 164.51395348855294,225.46882787835784 164.26279069762677,225.32458582380787 163.69767441879958,224.96398056240287 163.44651162810624,224.7476173203322 163.13255813973956,224.3148906439892 162.6930232560262,223.81004253140418 161.93953488371335,223.23307283304166 161.93953488371335,223.01670907909283 161.8139534885995,222.65610267966986 161.68837209348567,222.36761743220268 161.5,221.43003959202906 161.68837209348567,221.06943241041154 161.75116279069334,220.7088250509696 161.8139534885995,220.42033903533593 161.87674418650568,220.20397444895934 161.87674418650568,219.84336666268064 161.87674418650568,218.9057855863357 161.87674418650568,218.25669029093115 162.56744186067954,217.96820330794435 163.06976744206622,217.67971621121978 163.5093023260124,217.53547262010397 163.82325581437908,217.46335081395227 163.94883720949292,217.31910718022846 164.82790697691962,217.24698535277275" stroke="#4dd2ff" stroke-linecap="round" stroke-linejoin="round" stroke-width="0.5"><title>2020-12-25 1.0km</title></polyline><polyline fill="none" points="11.906015037558973,251.8813230539672 12.210526315728202,252.17278965492733 12.464285714318976,252.46425611217273 13.022556390846148,252.814015671378 15.204887218074873,253.3969478099607 16.372180451173335,253.7467068171827 17.133458646712825,253.92158624331933 20.686090225586668,255.32061978871934 21.7011278194841,256.02013531984994 22.868421052582562,256.5447714247275 24.593984962441027,257.185992698709 25.253759398357943,257.30257831001654 26.471804511500522,257.30257831001654 27.182330826995894,257.30257831001654 28.400375939672813,257.06940706435125 29.51691729342565,256.95282140676863 30.785714285913855,257.0111142384121 31.496240601642057,256.95282140676863 33.475563909858465,257.30257831001654 34.13533834577538,257.53574946388835 35.404135338263586,257.76892052585026 36.11466165445745,257.7106277688872 37.383458646712825,257.6523350063362 37.94172932347283,257.5940422380809 38.5,257.82721327705076 38.44924812018871,257.8855060223141 38.296992481453344,257.94379876181483 38.24624060164206,258.00209149578586 38.24624060164206,258.0603842238197 38.19548872183077,258.00209149578586 38.09398496244103,258.118676946091 38.09398496244103,258.00209149578586 38.144736842485145,258.0603842238197 38.19548872183077,258.118676946091 38.144736842485145,258.0603842238197 38.24624060164206,257.94379876181483 38.19548872183077,257.94379876181483 38.144736842485145,257.94379876181483 38.144736842485145,258.00209149578586 38.144736842485145,257.94379876181483 38.144736842485145,257.94379876181483 38.144736842485145,257.94379876181483 38.144736842485145,258.00209149578586 38.09398496244103,258.00209149578586 38.09398496244103,258.00209149578586 38.04323308262974,258.00209149578586 37.992481203284115,258.00209149578586 38.09398496244103,258.00209149578586 38.09398496244103,258.00209149578586 38.09398496244103,258.00209149578586 38.04323308262974,258.00209149578586 38.04323308262974,258.0603842238197 37.94172932347283,258.00209149578586 36.774436090374365,258.00209149578586 35.45488721807487,258.00209149578586 34.13533834577538,257.7106277688872 33.52631578966975,257.53574946388835 32.257518796948716,257.185992698709 31.5977443610318,257.06940706435125 30.22744360892102,257.06940706435125 29.567669173004106,257.0111142384121 28.197368421126157,257.127699884295 26.77631578943692,257.30257831001654 26.116541353520006,257.30257831001654 24.746240601642057,257.24428550724406 24.035714285681024,257.06940706435125 20.838345864554867,256.02013531984994 20.17857142863795,255.78696356801083 18.300751879811287,255.32061978871934 17.79323308262974,255.26232679048553 15.763157894834876,254.91256868001074 14.595864661503583,254.38793112634448 13.936090225586668,254.0381724986364 12.667293233098462,253.3386546219699 11.5,252.93060214509023" stroke="#4dd2ff" stroke-linecap="round" stroke-linejoin="round" stroke-width="0.5"><title>2020-12-08 1.1km</title></polyline><polyline fill="none" points="41.5,252.21688039737637 41.759615384740755,252.26657923389575 43.490384615492076,253.6084459623671 44.052884615492076,253.80724072939483 46.259615384740755,254.45332318075816 47.29807692323811,254.75151480198838 47.81730769248679,254.95030911802314 49.028846153989434,255.39759604274877 50.11057692323811,255.94427952257684 50.67307692323811,256.29216870098026 53.44230769225396,257.2364381174557 54.048076923470944,257.2861364587152 55.778846153989434,257.0873430640495 56.29807692323811,257.0376447030285 59.02403846173547,257.0873430640495 59.58653846150264,257.13704142006463 61.27403846173547,257.6340247109474 63.00480769248679,257.7831196025945 63.52403846173547,257.73342131017125 64.6490384619683,257.7831196025945 66.37980769225396,257.53462809184566 66.89903846173547,257.4849297750625 67.98076923098415,257.3855331266823 68.5,257.33583479523077 68.2836538462434,256.9382479664928 67.07211538474075,256.88854959077435 66.55288461549208,256.9382479664928 65.47115384647623,257.2364381174557 65.08173076948151,257.33583479523077 63.95673076948151,257.5843264038558 63.4375,257.6340247109474 62.35576923098415,257.6340247109474 61.79326923098415,257.53462809184566 60.71153846150264,257.33583479523077 60.19230769271962,257.1867397711321 58.50480769248679,256.88854959077435 57.94230769248679,256.88854959077435 56.81730769248679,256.9382479664928 56.21153846150264,256.9382479664928 55.08653846173547,257.0376447030285 53.96153846173547,257.0873430640495 52.87980769248679,257.0376447030285 51.841346153989434,256.78915282484377 51.322115384740755,256.64005763921887 50.197115384973586,256.29216870098026 49.677884615492076,256.09337491414044 48.63942307699472,255.74548559851246 47.25480769225396,255.34789751510834 46.865384615492076,255.29819898269488 45.82692307699472,255.04970624673297 44.39903846173547,254.6024190133612 44.009615384740755,254.3042273040046 43.10096153849736,253.80724072939483 42.62500000023283,253.55874725829926" stroke="#4dd2ff" stroke-linecap="round" stroke-linejoin="round" stroke-width="0.5"><title>2020-12-03 1.3km</title></polyline><polyline fill="none" points="98.21478873235174,255.7097914389451 98.45246478868648,256.5833735263441 98.5,256.85636764595984 97.69190140860155,257.3477567220689 96.31338028167374,257.29315795737784 94.41197183099575,256.96556525613414 92.60563380271196,256.2011815327569 91.98767605633475,256.09198377176654 88.47007042262703,254.72700994316256 87.18661971832626,254.50861381803406 85.23767605633475,254.56321285746526 83.90669014072046,254.50861381803406 82.95598591561429,254.50861381803406 82.38556338031776,254.50861381803406 81.10211267601699,254.3994157234556 80.674295774661,254.3448166680755 79.200704225339,254.23561854078434 78.63028169004247,254.18101946933893 76.63380281697027,254.0172222222318 76.01584507036023,253.90802403050475 74.7799295776058,253.79882581724087 73.16373239457607,253.08903690631269 72.54577464796603,252.870640135312 71.5,252.65224327798933 72.68838028167374,252.92523933615303 73.73415492963977,253.41663190134568 74.7799295776058,253.90802403050475 75.39788732398301,253.9626231289585 76.96654929593205,254.12642039224738 77.44190140836872,254.18101946933893 78.67781690158881,254.29021760710748 79.2957746477332,254.3448166680755 80.5792253522668,254.3448166680755 81.14964788756333,254.3994157234556 82.43309859163128,254.50861381803406 83.00352112669498,254.50861381803406 84.76232394366525,254.56321285746526 85.33274647896178,254.56321285746526 86.18838028167374,254.4540147734224 86.47359154932201,254.4540147734224 86.66373239434324,254.4540147734224 86.85387323936448,254.4540147734224 87.04401408438571,254.4540147734224 87.28169014095329,254.3994157234556 87.5193661970552,254.3994157234556 87.9947183097247,254.4540147734224 88.18485915497877,254.4540147734224 88.61267605656758,254.61781189130852 89.04049295769073,254.83620797318872 88.99295774661005,254.94540598179447 88.99295774661005,255.00000497797737 88.9454225350637,255.00000497797737" stroke="#4dd2ff" stroke-linecap="round" stroke-linejoin="round" stroke-width="0.5"><title>2020-11-30 1.0km</title></polyline></svg>