<?xml version="1.0" encoding="utf-8" ?>
<svg baseProfile="full" height="300mm" version="1.1" viewBox="0,0,200,300" width="200mm" xmlns="http://www.w3.org/2000/svg" xmlns:ev="http://www.w3.org/2001/xml-events" xmlns:xlink="http://www.w3.org/1999/xlink"><defs /><rect fill="#222222" height="300" width="200" x="0" y="0" /><text fill="#FFFFFF" style="font-size:12px; font-family:Arial; font-weight:bold;" x="10" y="20">Over 3km Runs</text><text fill="#FFFFFF" style="font-size:4px; font-family:Arial" x="10" y="280">ATHLETE</text><text fill="#FFFFFF" style="font-size:9px; font-family:Arial" x="10" y="290">jdzj</text><text fill="#FFFFFF" style="font-size:4px; font-family:Arial" x="120" y="280">STATISTICS</text><text fill="#FFFFFF" style="font-size:3px; font-family:Arial" x="120" y="285">Number: 11</text><text fill="#FFFFFF" style="font-size:3px; font-family:Arial" x="120" y="290">Weekly: 2.2</text><text fill="#FFFFFF" style="font-size:3px; font-family:Arial" x="141" y="285">Total: 21.0 km</text><text fill="#FFFFFF" style="font-size:3px; font-family:Arial" x="141" y="290">Avg: 1.9 km</text><text fill="#FFFFFF" style="font-size:3px; font-family:Arial" x="167" y="285">Min: 1.0 km</text><text fill="#FFFFFF" style="font-size:3px; font-family:Arial" x="167" y="290">Max: 3.7 km</text><polyline fill="none" points="58.98469778103754,33.33392573017045 59.72838561586104,33.85542415169766 59.31522570759989,35.51473356297356 63.074980872217566,36.08363833362819 64.0665646516718,36.8895856111194 63.736036725342274,38.35925071165548 65.22341239452362,39.35482775361743 67.0,42.43636272626463 65.92578423861414,45.280839087296044 64.35577658750117,45.94454782636603 63.77735271607526,47.651223251072224 56.13389441464096,54.28823698882479 47.70543228765018,57.55930304832873 45.06120887491852,59.265937411400955 43.036725325277075,60.97256574110361 37.12853863812052,69.12637338179047 13.0,86.66607426985865" stroke="#4dd2ff" stroke-linecap="round" stroke-linejoin="round" stroke-width="0.5"><title>2021-03-21 1.3km</title></polyline><polyline fill="none" points="97.47861811588518,55.30863095103996 96.79319391446188,50.925643730850425 92.0931422477588,45.08160848490661 90.18374625802971,44.51967887004139 83.72117521613836,50.419912273297086 77.30756304576062,58.56775350595126 75.69192028534599,59.0172861929168 73.92940091039054,63.793549158843234 76.91589207365178,68.064056367788 84.01492844522,71.43548689043382 91.70147127541713,77.67258093546843 91.26084143156186,78.00971921556629 92.28897773381323,77.89733981096651 91.35875917505473,77.39163221704075 92.53377209138125,79.35827034682734 95.12859228253365,82.44868802384008 104.9693254600279,87.0 110.06104809907265,86.49430045863846 122.0559716236312,78.12209859798895 123.67161438427866,74.75070751347812 126.07059908937663,63.96212241682224 123.67161438427866,59.80396754469257 114.71214089449495,51.543759348918684 105.01828433177434,39.349900487519335 97.82133021648042,33.0 89.74311641417444,44.23871385527309 91.21188256028108,44.40729288069997 93.21919629280455,46.26165887841489 97.13590601528995,51.26279778720345 97.08694714377634,52.83618075400591" stroke="#4dd2ff" stroke-linecap="round" stroke-linejoin="round" stroke-width="0.5"><title>2021-03-20 3.7km</title></polyline><polyline fill="none" points="181.6798029555939,73.59704200475244 163.23645320162177,67.68977378349518 143.72906403942034,67.0786751419655 133.26600985229015,64.83797702967422 133.0,61.17136963055236 134.5073891626671,59.541762162640225 133.08866995107383,56.791793729003984 133.44334975350648,52.00479417020688 139.02955665020272,46.40295799524756 148.25123152742162,47.52332766161999 157.6502463053912,50.68072654417483 175.38423645310104,50.27332077961182 184.87192118214443,48.7455477292533 186.02463054144755,47.4214759239112 184.33990147756413,51.291834890434984 183.27586206886917,64.43057685060194 184.1625615763478,71.15265925315907 187.0,71.66190613695653" stroke="#4dd2ff" stroke-linecap="round" stroke-linejoin="round" stroke-width="0.5"><title>2021-03-19 1.6km</title></polyline><polyline fill="none" points="34.883990719448775,119.44836697194842 46.61948955943808,124.48523353680503 51.17169373598881,124.19741399530903 55.139211137080565,125.06087210876285 59.31554524390958,124.14944405524875 61.52900232025422,124.34132378737559 67.0,122.71034365138621 56.85150812100619,125.01290225368575 51.631090487586334,124.19741399530903 45.78422273811884,124.43726362509187 22.438515081303194,117.00187010550871 13.0,115.9944854658388 15.046403712360188,116.28230986138806 13.668213457101956,115.70666089979932 14.08584686787799,115.46680696471594 17.259860788937658,115.65869012230542 21.477958236820996,114.93912789123715 22.89791183313355,115.9944854658388 23.733178654452786,115.46680696471594 24.735498839989305,116.42622199543985 25.612529002362862,116.1383976850484 26.740139211295173,117.09781139096594 28.160092807607725,116.57013408676721 31.08352668234147,118.68083986802958 31.668213457101956,117.96128210815368 30.164733178913593,115.70666089979932 29.580046403920278,115.75463167266571 29.78886310919188,117.38563513359986 32.50348027842119,118.72881034755846 33.631090487586334,116.04245621032896 34.25754060363397,117.33766452170676 35.09280742472038,117.19375265730196 34.21577726234682,117.43360574089456 34.716937355231494,117.2896939049242 33.50580046419054,115.61071934006759 35.30162413022481,115.46680696471594" stroke="#4dd2ff" stroke-linecap="round" stroke-linejoin="round" stroke-width="0.5"><title>2021-03-19 3.1km</title></polyline><polyline fill="none" points="95.72371924307663,147.0 95.42043691989966,146.05942550237523 94.84420050599147,145.95491707028123 93.9950100008864,146.75614759296877 95.02616989973467,140.86880266535445 94.63190287956968,142.2971024630824 94.81387227354571,144.90983104804764 94.2376358595211,145.3627020373533 90.96218676911667,145.29302961521898 90.56791974883527,143.20285056129796 90.84087383979931,141.35651544091525 98.78687070729211,139.57984423084417 104.12463959539309,139.2314762790047 103.94267020153347,105.54267180469469 105.73203590838239,103.24321533186594 109.43208025128115,99.96820601576474 108.76485914015211,98.29584911544225 104.24595252471045,93.0" stroke="#4dd2ff" stroke-linecap="round" stroke-linejoin="round" stroke-width="0.5"><title>2021-03-18 2.7km</title></polyline><polyline fill="none" points="151.31415622879285,142.54402166532236 152.82597796909977,142.80613969254773 153.05417747690808,144.08396211342188 153.6246762467781,144.41160809624125 156.70536960405298,145.03413457336137 160.69886099302676,144.67372464973596 163.46578002686147,145.4600730696111 166.0330244912766,147.0 166.68909807642922,144.93584099656437 166.3182738762116,136.1875961823098 168.68584377109073,135.95823835002375 165.2913760903757,135.00803992906003 162.01100816368125,134.84421234039473 160.55623630061746,133.2714633779542 157.67521751276217,103.48612385694287 160.81296074704733,99.81601817498449 163.03790594940074,98.5380254246702 161.44050939392764,95.68710079503944 158.70211529848166,93.0" stroke="#4dd2ff" stroke-linecap="round" stroke-linejoin="round" stroke-width="0.5"><title>2021-03-17 2.8km</title></polyline><polyline fill="none" points="14.81914893630892,177.08579866599757 15.48936170199886,177.08579866599757 18.84042553184554,178.5154346873751 19.79787234030664,179.72512527380604 29.75531914876774,182.47441718063783 40.2872340423055,183.9040462935809 43.8297872338444,183.6841034727404 46.31914893630892,184.23396044422407 47.56382978707552,184.6738458260661 52.54255319107324,185.44364482699893 56.65957446815446,187.09321232582442 58.0,187.42312553268857 60.2978723407723,188.63280645629857 62.2127659576945,189.8424860673258 62.97872340446338,190.0624276738381 63.84042553184554,190.50231075682677 65.94680851045996,191.0521643664688 67.0,190.94219366635662 66.90425531938672,190.94219366635662 66.90425531938672,190.94219366635662 66.61702127708122,191.0521643664688 66.80851063830778,190.94219366635662 66.90425531938672,190.94219366635662 67.0,191.0521643664688 66.42553191445768,190.94219366635662 65.18085106369108,190.94219366635662 60.96808510599658,191.0521643664688 58.09574468107894,190.17239846102893 55.31914893630892,189.62254441762343 52.54255319107324,189.40260272438172 49.76595744676888,189.51257357618306 48.32978723431006,189.62254441762343 45.55319148954004,189.8424860673258 44.30851063784212,189.8424860673258 40.0,189.51257357618306 38.65957446815446,189.18266098736785 36.074468084611,188.52283551730216 34.73404255323112,187.86300965677947 32.14893617015332,186.9832412347896 30.80851063830778,186.54335676389746 25.35106382984668,185.44364482699893 21.80851063830778,184.01401768799406 21.52127659553662,183.35418915946502 22.67021276568994,183.13424622977618 23.14893617015332,183.13424622977618 23.53191489353776,182.69436024071183 23.14893617015332,182.58438871602993 22.19148936122656,182.3644456345355 21.71276595722884,182.254474077723 21.42553191492334,182.144502509851 20.85106382984668,182.144502509851 20.46808510646224,181.92455934151076 19.98936170199886,181.92455934151076 19.51063829753548,181.92455934151076 18.84042553184554,181.70461612998042 18.36170212738216,181.4846728751436 18.07446808507666,181.37470123136882 17.11702127661556,180.8248428500956 16.8297872338444,180.60489942145068 16.35106382984668,180.27498419722542 16.06382978707552,180.0550406605471 15.77659574477002,179.72512527380604 15.393617020919919,179.28523793967906 14.72340425522998,178.73537852801383 14.14893617015332,178.40546275069937 13.86170212738216,178.18551884498447 13.38297872338444,177.63565889105666 13.191489361226559,176.64591029076837 13.191489361226559,175.76613301970065 13.09574468107894,175.2162718725158 13.0,174.7763827596791 13.2872340423055,173.89660401374567 13.191489361226559,172.68690710433293 13.191489361226559,172.13704443909228 13.09574468107894,171.8071267096093 13.2872340423055,171.4772088828031 13.191489361226559,171.36723625229206 13.2872340423055,170.59742753382307 13.38297872338444,170.04756383795757 13.86170212738216,169.93759106635116 14.81914893630892,169.60767268622294 15.29787234030664,169.38772704522125 15.585106382612139,169.2777542086551 16.15957446815446,169.05780850281008 16.25531914876774,169.05780850281008 16.25531914876774,168.9478356334148 16.35106382984668,168.9478356334148" stroke="#4dd2ff" stroke-linecap="round" stroke-linejoin="round" stroke-width="0.5"><title>2021-03-02 1.4km</title></polyline><polyline fill="none" points="82.9209302328527,180.79341370926704 83.54883721005172,181.08189778984524 90.45581395365298,182.38007545063738 94.85116279125214,183.96673547045793 96.4837209302932,184.68794400175102 100.87906976789236,185.8418769115815 102.51162790693343,185.8418769115815 107.15813953522593,185.55339376989286 108.66511627938598,185.12066894967575 113.31162790721282,184.83218566514552 116.20000000018626,185.8418769115815 117.70697674434632,186.41884302545805 120.34418604709208,187.42853317654226 122.85581395355985,187.86125731363427 125.99534883769229,187.57277457008604 126.49767441861331,187.28429176926147 127.0,187.57277457008604 126.87441860511899,189.59215258224867 124.6139534888789,190.1691172166029 122.73023255821317,191.7557687869994 121.85116279032081,192.04425070632715 120.97209302335978,192.33273256826214 120.46976744197309,192.33273256826214 119.71627906989306,192.4769734776346 119.21395348897204,192.76545525412075 117.45581395365298,193.48665944696404 117.70697674434632,194.2078632839257 118.58604651177302,194.78482609754428 118.58604651177302,194.9290667657042 118.58604651177302,195.07330741907936 118.71162790711969,194.9290667657042 118.08372093038633,194.78482609754428 117.3302325583063,195.07330741907936 117.07906976807863,195.21754805825185 116.82790697645396,195.36178868368734 116.70232558157295,195.5060292944545 116.70232558157295,195.5060292944545 116.20000000018626,194.78482609754428 115.94883720949292,194.49634471919853 115.57209302298725,194.0636225452181 115.44651162810624,193.77514102461282 114.19069767510518,193.48665944696404 113.68837209325284,193.48665944696404 113.06046511651948,193.48665944696404 112.43255814025179,193.34241863701027 111.67906976817176,193.34241863701027 111.05116279097274,193.34241863701027 109.79534883750603,193.0539369743783 109.16744186030701,192.90969612135086 108.53953488450497,192.76545525412075 107.9116279068403,192.62121437303722 106.65581395383924,192.33273256826214 106.1534883719869,192.04425070632715 105.5255813957192,191.9000097537646 104.89767441898584,191.61152780626435 104.26976744178683,191.32304580206983 103.7674418608658,190.89032268931624 102.63720930274576,190.31335833936464 101.50697674416006,189.7363937619375 100.62790697766468,188.87094646901824 100.0,188.58246392465662 99.37209302326664,188.29398132290225 98.74418604699895,188.00549866445363 98.11627906933427,187.7170159489615 97.73953488422558,187.57277457008604 96.7348837214522,187.14005034719594 96.23255814006552,186.9958089113934 95.73023255821317,186.85156746115535 95.22790697682649,186.5630845183041 94.6000000005588,186.41884302545805 93.97209302335978,186.27460151852574 92.59069767454639,186.1303599969251 92.08837209362537,185.98611846158747 91.46046511642635,185.8418769115815 90.70697674434632,185.8418769115815 90.20465116295964,185.6976353478385 88.94883720949292,185.55339376989286 88.32093023275957,185.26491057069506 87.19069767463952,184.39946063188836 85.93488372117281,183.96673547045793 85.43255813978612,183.8224937216146 84.80465116351843,183.678251958685 84.05116279097274,183.5340101813199 83.54883721005172,183.38976838986855 82.9209302328527,183.10128476365935 81.79069767473266,182.52431734162383 81.1627906979993,182.2358335449826 80.66046511614695,181.9473496916471 79.4046511631459,181.22613980912138 79.02790697710589,180.93765575671569 78.52558139525354,180.64917164761573 77.39534883759916,179.92796112480573 76.89302325621247,179.49523464066442 76.26511627947912,178.6297812879784 75.38604651205242,177.62008506280836 73.8790697674267,176.46614566608332 73.8790697674267,176.03341815818567 73.62790697719902,175.3122053593397 73.37674418697134,174.73523486440536 73.0,172.86007918405812 73.37674418697134,172.13886482082307 73.50232558138669,171.41765010193922 73.62790697719902,170.84067807067186 73.75348837301135,170.4079488979187 73.75348837301135,169.68673332536127 73.75348837301135,167.8115711726714 73.75348837301135,166.5133805818623 75.13488372135907,165.9364066158887 76.13953488413244,165.35943242243957 77.0186046520248,165.07094524020795 77.64651162875816,164.92670162790455 77.89767441898584,164.6382143604569 79.65581395383924,164.4939707055455" stroke="#4dd2ff" stroke-linecap="round" stroke-linejoin="round" stroke-width="0.5"><title>2020-12-25 1.0km</title></polyline><polyline fill="none" points="133.81203007511795,173.76264610793442 134.4210526314564,174.34557930985466 134.92857142863795,174.92851222434547 136.0451127816923,175.628031342756 140.40977443614975,176.7938956199214 142.74436090234667,177.49341363436542 144.26691729342565,177.84317248663865 151.37218045117334,180.64123957743868 153.4022556389682,182.04027063969988 155.73684210516512,183.08954284945503 159.18796992488205,184.37198539741803 160.50751879671589,184.60515662003309 162.94360902300104,184.60515662003309 164.3646616539918,184.60515662003309 166.80075187934563,184.1388141287025 169.0338345868513,183.90564281353727 171.5714285718277,184.02222847682424 172.99248120328411,183.90564281353727 176.95112781971693,184.60515662003309 178.27067669155076,185.0714989277767 180.80827067652717,185.53784105170052 182.2293233089149,185.4212555377744 184.76691729342565,185.30467001267243 185.88345864694566,185.18808447616175 187.0,185.65442655410152 186.89849624037743,185.77101204462815 186.5939849629067,185.88759752362967 186.49248120328411,186.00418299157172 186.49248120328411,186.12076844763942 186.39097744366154,186.00418299157172 186.18796992488205,186.237353892182 186.18796992488205,186.00418299157172 186.2894736849703,186.12076844763942 186.39097744366154,186.237353892182 186.2894736849703,186.12076844763942 186.49248120328411,185.88759752362967 186.39097744366154,185.88759752362967 186.2894736849703,185.88759752362967 186.2894736849703,186.00418299157172 186.2894736849703,185.88759752362967 186.2894736849703,185.88759752362967 186.2894736849703,185.88759752362967 186.2894736849703,186.00418299157172 186.18796992488205,186.00418299157172 186.18796992488205,186.00418299157172 186.08646616525948,186.00418299157172 185.98496240656823,186.00418299157172 186.18796992488205,186.00418299157172 186.18796992488205,186.00418299157172 186.18796992488205,186.00418299157172 186.08646616525948,186.00418299157172 186.08646616525948,186.12076844763942 185.88345864694566,186.00418299157172 183.54887218074873,186.00418299157172 180.90977443614975,186.00418299157172 178.27067669155076,185.4212555377744 177.0526315793395,185.0714989277767 174.51503759389743,184.37198539741803 173.1954887220636,184.1388141287025 170.45488721784204,184.1388141287025 169.1353383460082,184.02222847682424 166.3947368422523,184.25539976859 163.55263157887384,184.60515662003309 162.23308270704,184.60515662003309 159.49248120328411,184.48857101448812 158.07142857136205,184.1388141287025 151.67669172910973,182.04027063969988 150.3571428572759,181.57392713602167 146.60150375962257,180.64123957743868 145.58646616525948,180.52465358097106 141.52631578966975,179.82513736002147 139.19172932300717,178.77586225268897 137.87218045117334,178.07634499727283 135.33458646619692,176.67730924393982 133.0,175.86120429018047" stroke="#4dd2ff" stroke-linecap="round" stroke-linejoin="round" stroke-width="0.5"><title>2020-12-08 1.1km</title></polyline><polyline fill="none" points="13.0,234.43376079475274 13.51923076948151,234.5331584677915 16.98076923098415,237.21689192473423 18.10576923098415,237.61448145878967 22.51923076948151,238.90664636151632 24.596153846476227,239.50302960397676 25.634615384973586,239.90061823604628 28.05769230797887,240.79519208549755 30.221153846476227,241.88855904515367 31.346153846476227,242.5843374019605 36.884615384507924,244.47287623491138 38.09615384694189,244.57227291743038 41.55769230797887,244.17468612809898 42.59615384647623,244.07528940605698 48.048076923470944,244.17468612809898 49.17307692300528,244.27408284012927 52.548076923470944,245.26804942189483 56.009615384973586,245.56623920518905 57.048076923470944,245.4668426203425 59.298076923936605,245.56623920518905 62.759615384507924,245.06925618369132 63.798076923470944,244.96985955012497 65.9615384619683,244.77106625336455 67.0,244.67166959046153 66.56730769248679,243.87649593298556 64.14423076948151,243.7770991815487 63.10576923098415,243.87649593298556 60.942307692952454,244.47287623491138 60.16346153896302,244.67166959046153 57.91346153896302,245.16865280771162 56.875,245.26804942189483 54.7115384619683,245.26804942189483 53.5865384619683,245.06925618369132 51.42307692300528,244.67166959046153 50.38461538543925,244.37347954226425 47.009615384973586,243.7770991815487 45.884615384973586,243.7770991815487 43.634615384973586,243.87649593298556 42.42307692300528,243.87649593298556 40.173076923470944,244.07528940605698 37.923076923470944,244.17468612809898 35.759615384973586,244.07528940605698 33.68269230797887,243.57830564968754 32.64423076948151,243.28011527843773 30.39423076994717,242.5843374019605 29.35576923098415,242.18674982828088 27.278846153989434,241.49097119702492 24.509615384507924,240.6957950302167 23.73076923098415,240.59639796538977 21.653846153989434,240.09941249346593 18.798076923470944,239.20483802672243 18.01923076948151,238.6084546080092 16.201923076994717,237.61448145878967 15.250000000465661,237.11749451659853" stroke="#4dd2ff" stroke-linecap="round" stroke-linejoin="round" stroke-width="0.5"><title>2020-12-03 1.3km</title></polyline><polyline fill="none" points="126.42957746470347,241.4195828778902 126.90492957737297,243.16674705268815 127.0,243.71273529191967 125.3838028172031,244.69551344413776 122.62676056334749,244.5863159147557 118.8239436619915,243.93113051226828 115.21126760542393,242.40236306551378 113.9753521126695,242.18396754353307 106.94014084525406,239.4540198863251 104.37323943665251,239.01722763606813 100.4753521126695,239.12642571493052 97.81338028144091,239.01722763606813 95.91197183122858,239.01722763606813 94.77112676063552,239.01722763606813 92.20422535203397,238.7988314469112 91.34859154932201,238.68963333615102 88.40140845067799,238.4712370815687 87.26056338008493,238.36203893867787 83.26760563394055,238.0344444444636 82.03169014072046,237.8160480610095 79.5598591552116,237.59765163448174 76.32746478915215,236.17807381262537 75.09154929593205,235.74128027062397 73.0,235.30448655597866 75.37676056334749,235.85047867230605 77.46830985927954,236.83326380269136 79.5598591552116,237.8160480610095 80.79577464796603,237.92524625791702 83.93309859186411,238.25284078449477 84.88380281673744,238.36203893867787 87.35563380317762,238.58043521421496 88.5915492954664,238.68963333615102 91.1584507045336,238.68963333615102 92.29929577512667,238.7988314469112 94.86619718326256,239.01722763606813 96.00704225338995,239.01722763606813 99.5246478873305,239.12642571493052 100.66549295792356,239.12642571493052 102.37676056334749,238.90802954684477 102.94718309864402,238.90802954684477 103.32746478868648,238.90802954684477 103.70774647872895,238.90802954684477 104.08802816877142,238.90802954684477 104.56338028190657,238.7988314469112 105.03873239411041,238.7988314469112 105.9894366194494,238.90802954684477 106.36971830995753,238.90802954684477 107.22535211313516,239.23562378261704 108.08098591538146,239.67241594637744 107.98591549322009,239.89081196358893 107.98591549322009,240.00000995595474 107.8908450701274,240.00000995595474" stroke="#4dd2ff" stroke-linecap="round" stroke-linejoin="round" stroke-width="0.5"><title>2020-11-30 1.0km</title></polyline></svg>