<?xml version="1.0" encoding="utf-8" ?>
<svg baseProfile="full" height="300mm" version="1.1" viewBox="0,0,200,300" width="200mm" xmlns="http://www.w3.org/2000/svg" xmlns:ev="http://www.w3.org/2001/xml-events" xmlns:xlink="http://www.w3.org/1999/xlink"><defs /><rect fill="#222222" height="300" width="200" x="0" y="0" /><text fill="#FFFFFF" style="font-size:12px; font-family:Arial; font-weight:bold;" x="10" y="20">Over 3km Runs</text><text fill="#FFFFFF" style="font-size:4px; font-family:Arial" x="10" y="280">ATHLETE</text><text fill="#FFFFFF" style="font-size:9px; font-family:Arial" x="10" y="290">jdzj</text><text fill="#FFFFFF" style="font-size:4px; font-family:Arial" x="120" y="280">STATISTICS</text><text fill="#FFFFFF" style="font-size:3px; font-family:Arial" x="120" y="285">Number: 21</text><text fill="#FFFFFF" style="font-size:3px; font-family:Arial" x="120" y="290">Weekly: 3.0</text><text fill="#FFFFFF" style="font-size:3px; font-family:Arial" x="141" y="285">Total: 38.7 km</text><text fill="#FFFFFF" style="font-size:3px; font-family:Arial" x="141" y="290">Avg: 1.8 km</text><text fill="#FFFFFF" style="font-size:3px; font-family:Arial" x="167" y="285">Min: 1.0 km</text><text fill="#FFFFFF" style="font-size:3px; font-family:Arial" x="167" y="290">Max: 3.7 km</text><polyline fill="none" points="34.22346368711442,33.88497076916974 23.061452513560653,38.9679125896655 12.30167597765103,51.44413075631019 22.458100558724254,62.649509653798304 28.3910614522174,55.949399082688615 35.32960893865675,53.0614085609559 35.53072625724599,49.24925016227644 41.9664804469794,44.51291485829279 32.51396648027003,32.49871007807087 24.569832402281463,37.81270047777798 12.0,52.13725008908659 22.256983240135014,61.378801975166425 28.29050279315561,54.332125268294476 38.145251396577805,52.714849219308235 41.061452514026314,50.51997100783046 42.56983240228146,44.74395604932215 42.167597765568644,43.70427032967564 40.960893854964525,46.01468178536743 37.441340782213956,47.747487384825945 37.34078212315217,46.707804332952946 48.0,39.6610393099254 44.07821229053661,37.581657918635756 39.955307262483984,32.49871007807087 37.642458100337535,36.31092302768957 30.60335195530206,33.307362347259186 16.726256982889026,45.783640844980255 12.402234636247158,51.90621035709046 22.458100558724254,61.378801975166425 28.3910614522174,55.140762454713695 29.29608938563615,55.83387959864922 26.78212290490046,59.299459161935374 40.558659217786044,62.18743429402821 44.98324022395536,67.50128992204554 35.631284915842116,50.404450987814926 36.63687150878832,47.285406142356806 41.564245810266584,43.12666675366927 36.134078212082386,39.77656038978603 33.11731843557209,34.000492419232614 31.00558659201488,33.1918406287441 29.1955307261087,34.46257890574634 30.10055865952745,35.27122981811408" stroke="#4dd2ff" stroke-linecap="round" stroke-linejoin="round" stroke-width="0.5"><title>2021-04-02 3.1km</title></polyline><polyline fill="none" points="80.75177304947283,63.91244074827409 76.53900709212758,62.446096560306614 68.59219858143479,62.29946182333515 59.97517730493564,61.16304065013537 59.24113475182094,60.46652272972278 58.66666666662786,56.9839135473012 59.49645390070509,56.324047077447176 61.21985815593507,56.25072850837023 59.65602836885955,51.375011207099305 60.03900709212758,44.776194189704256 62.43262411351316,41.36675948635093 63.39007092197426,39.05712465639226 67.95390070916619,35.90426663501421 69.80496453901287,37.92063240663265 71.52836879424285,38.28724318949389 72.42198581551202,39.35041241458384 76.1879432622809,39.35041241458384 81.99645390058868,40.266935167164775 84.80496453889646,41.73336686947732 89.46453900705092,45.87600516324164 93.86879432597198,53.501271730085136 93.99645390058868,54.49107851358713 92.97517730470281,55.37090455245925 92.56028368789703,56.763958187482785 93.45390070904978,56.72729894818622 94.66666666662786,59.84332137860474 93.86879432597198,61.492969735874794 91.09219858143479,62.00619217584608 90.4219858153956,62.84934178873664 88.85815602808725,62.07950960932067 88.1879432622809,62.372779199067736 86.52836879412644,61.85955726529937 85.73049645370338,64.09573336495669 85.47517730481923,63.83912367626908" stroke="#4dd2ff" stroke-linecap="round" stroke-linejoin="round" stroke-width="0.5"><title>2021-04-02 3.2km</title></polyline><polyline fill="none" points="109.10521662258543,46.95631502108881 121.28028293536045,52.38559636118589 127.86914235190488,52.33075540047139 131.8797524315305,53.2630509956507 137.27497789566405,51.94686852482846 141.33333333325572,52.0017095230869 132.1662245800253,53.208210121665616 128.15561450039968,52.2759144345182 121.66224580002017,52.604960149677936 113.25906277634203,50.19195371726528 105.33333333325572,46.73694900429109" stroke="#4dd2ff" stroke-linecap="round" stroke-linejoin="round" stroke-width="0.5"><title>2021-04-01 1.4km</title></polyline><polyline fill="none" points="152.0,45.46568056556862 156.06546644843183,49.5939564043656 160.8379705401603,50.60910239623627 166.43535188236274,53.519179249415174 174.09492635028437,53.38382711133454 178.33715220959857,54.53431943443138 188.0,53.38382711133454 181.22422258602455,54.3989674965851 173.03436988545582,53.18079885409679 165.7283142390661,53.519179249415174 154.76923076924868,50.541426043375395 153.6497545009479,49.93233856844017 154.94599018036388,49.39092702569906" stroke="#4dd2ff" stroke-linecap="round" stroke-linejoin="round" stroke-width="0.5"><title>2021-03-29 1.2km</title></polyline><polyline fill="none" points="29.343512889929116,108.0 27.665823609102517,98.539682311879 26.498735413420945,98.20480188349029 20.809180460404605,90.00019025075017 17.016143824905157,89.66530646407045 28.832911804318428,72.0 32.77183446427807,74.42795484029921 40.5037937592715,82.29782983608311 39.70142062520608,87.90716442343546 42.98385617462918,107.16280798328808 32.55300542758778,100.21408247761428 28.75996879208833,99.46060281037353 28.39525373093784,101.05128132598475" stroke="#4dd2ff" stroke-linecap="round" stroke-linejoin="round" stroke-width="0.5"><title>2021-03-28 1.4km</title></polyline><polyline fill="none" points="76.2235897439532,83.47923456260469 78.27282051276416,84.68797654553782 78.77128205145709,83.6700887104962 80.76512820529751,83.54285261814948 81.20820512855425,82.5249629758182 81.81743589742109,83.22476227750303 82.75897435913794,82.5249629758182 85.69435897446238,84.17903282894986 87.41128205135465,82.90667177998694 92.45128205115907,84.43350473733153 92.11897435924038,83.1611441904679 94.50051282066852,83.41561650083167 92.72820512834005,82.77943553699879 93.17128205136396,81.76154468976893 93.28205128200352,83.1611441904679 93.0051282052882,82.5249629758182 92.39589743618853,83.35199843259761 92.5066666668281,82.33410848886706 93.28205128200352,83.41561650083167 92.45128205115907,83.1611441904679 94.1128205130808,82.97028989199316 94.1128205130808,83.60647066734964 93.39282051264308,82.71581740601687 92.22974358987994,83.35199843259761 94.55589743587188,82.97028989199316 93.83589743589982,82.39772665750934 93.61435897438787,84.30626879574265 92.61743589770049,83.47923456260469 92.5066666668281,84.17903282894986 93.89128205133602,83.28838035825174 93.28205128200352,83.35199843259761 94.66666666674428,85.06968406954547 94.50051282066852,83.22476227750303 93.6697435900569,83.35199843259761 94.1128205130808,84.24265081534395 92.89435897464864,84.6243586030323 92.72820512834005,83.92456081992714 92.06358974380419,84.87883033574326 89.73743589757942,84.56074065412395 89.73743589757942,83.28838035825174 90.29128205124289,94.23059687373461 84.0328205130063,95.63016931642778 78.93743589753285,93.97612883080728 79.32512820512056,94.80314960394753 77.77435897453688,93.97612883080728 68.80205128202215,93.53080951370066 64.31589743611403,94.8667665424291 63.928205128293484,97.15697215381078 62.87589743616991,97.98398884816561 59.275897436076775,98.23845531028928 58.66666666674428,97.2205888601602" stroke="#4dd2ff" stroke-linecap="round" stroke-linejoin="round" stroke-width="0.5"><title>2021-03-26 1.5km</title></polyline><polyline fill="none" points="109.13821138232015,87.71877545994357 120.55284552858211,92.37728184994194 124.56678281072527,92.08912810866605 128.07897793268785,92.85753770664451 133.13821138208732,91.84899986063829 135.14518002304249,92.08912810866605 141.33333333325572,89.87994376005372 135.8559814170003,92.08912810866605 128.78977932641283,92.6654354208149 125.06852497090586,91.89702551972005 120.92915214877576,92.2332050006371 112.02322880364954,90.07204714475665 105.33333333325572,87.14246229335549" stroke="#4dd2ff" stroke-linecap="round" stroke-linejoin="round" stroke-width="0.5"><title>2021-03-26 1.6km</title></polyline><polyline fill="none" points="188.0,93.1943274998921 185.2495755518321,92.84330398880411 181.15449915081263,90.24572462507058 177.67062818305567,90.3159295975347 172.65874363319017,88.35018775559729 160.43463497422636,88.70121348276734 162.26825127308257,89.61387956282124 161.53480475372635,89.82449464581441 152.0,86.8056725001079 159.7011884546373,89.75428962497972 170.64176570437849,90.45633952139178 179.9932088283822,92.7028945357306" stroke="#4dd2ff" stroke-linecap="round" stroke-linejoin="round" stroke-width="0.5"><title>2021-03-24 1.1km</title></polyline><polyline fill="none" points="48.0,132.6406034679967 45.407608695561066,132.47205506678438 42.86413043481298,130.56183636852074 38.80434782616794,129.8876400042791 35.478260869625956,128.37069526768755 25.30434782616794,128.59542807604885 26.184782608877867,129.5505415229709 18.211956521961838,127.35939653206151 12.0,128.14596237044316 14.445652173832059,128.48306168289855 18.407608695561066,127.41557984234532 25.744565217522904,129.6629077057005 39.09782608714886,130.22473828616785" stroke="#4dd2ff" stroke-linecap="round" stroke-linejoin="round" stroke-width="0.5"><title>2021-03-23 1.3km</title></polyline><polyline fill="none" points="93.94858156028204,131.7871043960913 81.83687943266705,127.55305747798411 76.90602836874314,128.37787433440099 72.02304964559153,127.8279965656111 73.36347517743707,128.70780073542846 72.83687943266705,128.87276386277517 65.12943262397312,126.56327563914238 58.66666666674428,127.49806964403251 64.6507092199754,126.67325148585951 71.87943262420595,128.76278844987974 81.45390070951544,129.42264060105663 94.66666666674428,133.43672436085762 92.51241134759039,132.39196561649442 94.66666666674428,131.7871043960913" stroke="#4dd2ff" stroke-linecap="round" stroke-linejoin="round" stroke-width="0.5"><title>2021-03-22 1.6km</title></polyline><polyline fill="none" points="135.9897985206917,112.22261715342756 136.48559041053522,112.57028276778874 136.21015047177207,113.67648904197267 138.71665391488932,114.05575888909516 139.3777097678976,114.5930570740602 139.15735781681724,115.57283380776062 140.14894159638789,116.23655183572555 141.33333333337214,118.29090848416672 140.61718949233182,120.18722605818766 139.5705177250784,120.62969855091069 139.18490181083325,121.76748216737178 134.08926294313278,126.19215799254016 128.47028819168918,128.37286869887612 126.70747258339543,129.51062494094367 125.35781688347925,130.64837716071634 121.41902575874701,136.08424892116454 105.33333333337214,147.77738284657244" stroke="#4dd2ff" stroke-linecap="round" stroke-linejoin="round" stroke-width="0.5"><title>2021-03-21 1.3km</title></polyline><polyline fill="none" points="168.3190787441563,126.87242063402664 167.86212927650195,123.95042915389058 164.7287614986999,120.05440565661411 163.4558308388805,119.67978591335122 159.14745014416985,123.61327484884532 154.87170869729016,129.0451690039481 153.79461352375802,129.34485746195423 152.61960060696583,132.52903277258156 154.61059471592307,135.37603757853503 159.3432856303407,137.62365792694618 164.46764751709998,141.78172062366502 164.17389428790193,142.0064794770151 164.85931848944165,141.93155987397768 164.23917278344743,141.59442147804657 165.02251472778153,142.90551356453216 166.75239485525526,144.96579201586428 173.31288364017382,148.0 176.7073653995758,147.66286697244504 184.7039810825372,142.08139906529686 185.78107625630219,139.8338050089951 187.38039939303417,132.64141494454816 185.78107625630219,129.8693116964423 179.80809392977972,124.36250623263186 173.34552288788836,116.23326699167956 168.54755347792525,112.0 163.16207760968246,119.49247590350569 164.14125504042022,119.60486192046665 165.47946419543587,120.84110591892386 168.0906040102709,124.175198524812 168.05796476267278,125.22412050268031" stroke="#4dd2ff" stroke-linecap="round" stroke-linejoin="round" stroke-width="0.5"><title>2021-03-20 3.7km</title></polyline><polyline fill="none" points="44.45320197055116,179.06469466985436 32.15763546782546,175.12651585572166 19.15270936000161,174.71911676140735 12.17733990168199,173.22531801980222 12.0,170.7809130870737 13.00492610852234,169.69450810848502 12.059113300871104,167.8611958194524 12.295566502492875,164.66986278019613 16.0197044336237,160.93530533020385 22.16748768487014,161.6822184410994 28.43349753692746,163.7871510295663 40.25615763571113,163.51554718642728 46.58128078840673,162.49703181959921 47.34975369460881,161.61431728268508 46.22660098527558,164.19455659366213 45.517241379246116,172.9537179004983 46.108374384464696,177.43510616885033 48.0,177.77460409136256" stroke="#4dd2ff" stroke-linecap="round" stroke-linejoin="round" stroke-width="0.5"><title>2021-03-19 1.6km</title></polyline><polyline fill="none" points="73.25599381292704,169.6322446479753 81.07965970621444,172.99015569119365 84.11446249054279,172.7982759968727 86.75947409134824,173.37391473917523 89.54369682911783,172.7662960368325 91.01933488005307,172.8942158582504 94.66666666662786,171.8068957676005 87.9010054138489,173.3419348358002 84.42072699160781,172.7982759968727 80.52281515870709,172.95817575007095 64.95901005424093,168.0012467369961 58.66666666662786,167.32965697723557 60.03093580820132,167.52153990761144 59.11214230465703,167.13777393320925 59.39056457846891,166.97787130982033 61.50657385913655,167.10579341487028 64.31863882450853,166.62608526082477 65.26527455530595,167.32965697723557 65.82211910292972,166.97787130982033 66.49033255991526,167.61748133029323 67.07501933490857,167.42559845669894 67.82675947411917,168.065207593987 68.77339520503301,167.71342272451147 70.72235112136696,169.12055991202942 71.11214230465703,168.64085473876912 70.10982211912051,167.13777393320925 69.72003093583044,167.1697544484632 69.85924207267817,168.25709008905687 71.6689868522808,169.15254023170564 72.42072699160781,167.36163747357205 72.83836040226743,168.22510968113784 73.39520494977478,168.1291684382013 72.81051817478146,168.28907049392 73.14462490344886,168.19312926995917 72.33720030938275,167.0738128933881 73.53441608673893,166.97787130982033" stroke="#4dd2ff" stroke-linecap="round" stroke-linejoin="round" stroke-width="0.5"><title>2021-03-19 3.1km</title></polyline><polyline fill="none" points="120.48247949534561,188.0 120.2802912798943,187.37295033491682 119.89613367058337,187.3032780468493 119.3300066672964,187.8374317286507 120.01744659978431,183.9125351102266 119.75460191967431,184.86473497538827 119.87591484899167,186.6065540320269 119.49175723968074,186.9084680248925 117.30812451278325,186.86201974347932 117.04527983255684,185.46856704085076 117.22724922653288,184.2376769606053 122.52458047156688,183.05322948723915 126.08309306355659,182.820984186008 125.96178013435565,160.3617812031298 127.15469060558826,158.8288102212391 129.62138683418743,156.6454706771765 129.1765727601014,155.53056607696635 126.16396834980696,152.0" stroke="#4dd2ff" stroke-linecap="round" stroke-linejoin="round" stroke-width="0.5"><title>2021-03-18 2.7km</title></polyline><polyline fill="none" points="164.2094374859007,185.02934777688642 165.2173186460277,185.20409312837 165.36945165134966,186.0559747422958 165.74978416459635,186.27440539748932 167.80357973603532,186.68942304889788 170.4659073287621,186.4491497664858 172.31052001798525,186.9733820464171 174.02201632747892,188.0 174.4593987177359,186.62389399770473 174.21218258410227,180.79173078820168 175.7905625140993,180.6388255666825 173.52758406032808,180.00535995270184 171.34067210915964,179.896141560268 170.37082420045044,178.84764225195977 168.45014500850812,158.99074923795706 170.54197383136488,156.54401211666118 172.02527063293383,155.69201694978983 170.96033959591296,153.7914005300263 169.13474353239872,152.0" stroke="#4dd2ff" stroke-linecap="round" stroke-linejoin="round" stroke-width="0.5"><title>2021-03-17 2.8km</title></polyline><polyline fill="none" points="13.21276595746167,208.05719911074266 13.65957446815446,208.05719911074266 15.89361702138558,209.0102897916222 16.53191489353776,209.81675018259557 23.17021276592277,211.64961145381676 30.19148936169222,212.60269752907334 32.55319148930721,212.45606898190454 34.21276595746167,212.82264029618818 35.0425531915389,213.115897217358 38.36170212761499,213.62909655139083 41.10638297884725,214.7288082172745 42.0,214.94875035516452 43.53191489377059,215.75520430423785 44.80851063854061,216.5616573782754 45.31914893630892,216.70828511595028 45.89361702138558,217.0015405046288 47.29787234053947,217.36810957768466 48.0,217.29479577759048 47.93617021315731,217.29479577759048 47.93617021315731,217.29479577759048 47.74468085146509,217.36810957768466 47.87234042561613,217.29479577759048 47.93617021315731,217.29479577759048 48.0,217.36810957768466 47.61702127661556,217.29479577759048 46.78723404277116,217.29479577759048 43.97872340423055,217.36810957768466 42.06382978730835,216.7815989740775 40.21276595746167,216.41502961178776 38.36170212761499,216.2684018163127 36.51063829800114,216.34171571751358 35.55319148954004,216.41502961178776 33.70212765969336,216.5616573782754 32.8723404253833,216.5616573782754 30.0,216.34171571751358 29.10638297884725,216.12177399161737 27.38297872315161,215.6818903448875 26.48936170223169,215.2420064379112 24.76595744700171,214.6554941565846 23.87234042561613,214.36223784269532 20.23404255323112,213.62909655139083 17.87234042561613,212.67601179209305 17.68085106392391,212.23612610634882 18.44680851069279,212.08949748653686 18.76595744700171,212.08949748653686 19.02127659576945,211.79624016053276 18.76595744700171,211.72292581072543 18.12765957438387,211.57629708974855 17.80851063830778,211.5029827185208 17.61702127684839,211.42966833990067 17.23404255323112,211.42966833990067 16.97872340446338,211.28303956106538 16.65957446815446,211.28303956106538 16.34042553184554,211.28303956106538 15.89361702138558,211.1364107534173 15.57446808507666,210.98978191684 15.38297872338444,210.9164674875792 14.74468085123226,210.54989523341646 14.55319148930721,210.40326628106413 14.23404255323112,210.18332279816968 14.0425531915389,210.03669377375627 13.85106382984668,209.81675018259557 13.59574468084611,209.52349195978604 13.14893617038615,209.1569190187729 12.76595744700171,208.93697516719112 12.57446808507666,208.79034589667572 12.2553191492334,208.4237725941348 12.12765957438387,207.76394019386498 12.12765957438387,207.17742201313376 12.06382978730835,206.81084791506873 12.0,206.51758850651095 12.19148936169222,205.93106934253592 12.12765957438387,205.12460473628016 12.12765957438387,204.75802962610032 12.06382978730835,204.53808447311167 12.19148936169222,204.31813925527968 12.12765957438387,204.2448241682141 12.19148936169222,203.73161835590145 12.2553191492334,203.3650425586966 12.57446808507666,203.29172737762565 13.21276595746167,203.0717817908735 13.53191489353776,202.92515136353904 13.72340425522998,202.8518361391616 14.10638297884725,202.70520566857886 14.17021276592277,202.70520566857886 14.17021276592277,202.63189042231534 14.23404255323112,202.63189042231534" stroke="#4dd2ff" stroke-linecap="round" stroke-linejoin="round" stroke-width="0.5"><title>2021-03-02 1.4km</title></polyline><polyline fill="none" points="65.28062015492469,210.52894247276708 65.69922480592504,210.72126519324956 70.30387596879154,211.58671696705278 73.23410852719098,212.64449031359982 74.32248061988503,213.12529600114794 77.2527131778188,213.8945846076822 78.34108527097851,213.8945846076822 81.43875968968496,213.7022625132231 82.44341085245833,213.41377929970622 85.54108527069911,213.2214571100776 87.46666666632518,213.8945846076822 88.47131782909855,214.2792286836193 90.22945736441761,214.95235545100877 91.90387596841902,215.2408382090507 93.99689922435209,215.04851638001855 94.33178294496611,214.85619451286038 94.66666666651145,215.04851638001855 94.58294573612511,216.39476838818518 93.07596899196506,216.77941147767706 91.82015503849834,217.83717919129413 91.23410852672532,218.02950047084596 90.6480620149523,218.22182171215536 90.31317829387262,218.22182171215536 89.81085271248594,218.31798231840366 89.47596899187192,218.51030350272777 88.30387596832588,218.99110629793722 88.47131782909855,219.47190885589225 89.05736434087157,219.8565507316962 89.05736434087157,219.95271117705852 89.05736434087157,220.04887161270017 89.14108527079225,219.95271117705852 88.7224806197919,219.8565507316962 88.22015503840521,220.04887161270017 88.0527131780982,220.14503203879576 87.88527131732553,220.24119245575275 87.8015503869392,220.33735286293086 87.8015503869392,220.33735286293086 87.46666666632518,219.8565507316962 87.29922480601817,219.6642298127408 87.04806201485917,219.37574836343993 86.9643410849385,219.18342734966427 86.1271317829378,218.99110629793722 85.79224806139246,218.99110629793722 85.3736434103921,218.99110629793722 84.95503875939175,218.89494575798744 84.45271317800507,218.89494575798744 84.03410852700472,218.89494575798744 83.19689922453836,218.70262464950792 82.77829457307234,218.60646408086177 82.35968992253765,218.51030350272777 81.94108527060598,218.41414291533874 81.10387596860528,218.22182171215536 80.7689922475256,218.02950047084596 80.35038759652525,217.93333983584307 79.9317829455249,217.74101853754837 79.51317829405889,217.54869720136048 79.17829457344487,217.26021512615262 78.42480620136485,216.8755722262431 77.67131782881916,216.4909291745862 77.08527131797746,215.91396431264002 76.66666666604578,215.72164261637954 76.24806201504543,215.52932088187663 75.82945736404508,215.33699910959695 75.41085271257907,215.14467729930766 75.15968992235139,215.04851638001855 74.48992248019204,214.7600335647585 74.15503875957802,214.6638726075762 73.82015503849834,214.56771164073143 73.48527131741866,214.3753896788694 73.06666666641831,214.2792286836193 72.6480620149523,214.18306767899776 71.72713178256527,214.08690666459734 71.39224806195125,213.9907456410001 70.97364341048524,213.8945846076822 70.47131782909855,213.8945846076822 70.13643410801888,213.79842356516747 69.29922480555251,213.7022625132231 68.88062015501782,213.50994038046338 68.12713178247213,212.93297375459224 67.28992248047143,212.64449031359982 66.95503875939175,212.54832914774306 66.5364341083914,212.45216797245666 66.03410852700472,212.3560067875078 65.69922480592504,212.2598455932457 65.28062015492469,212.0675231757341 64.527131782379,211.68287822772982 64.10852713137865,211.49055569665506 63.77364341029897,211.29823312768713 62.93643410829827,210.81742653943365 62.68527131760493,210.62510383781046 62.35038759652525,210.43278109835228 61.596899224445224,209.95197408314561 61.26201550383121,209.66348976042354 60.843410852365196,209.08652085863287 60.257364340592176,208.41339004185284 59.252713177818805,207.6440971107222 59.252713177818805,207.3556121054571 59.0852713175118,206.87480357283494 58.91782945720479,206.49015657627024 58.666666666511446,205.24005278939148 58.91782945720479,204.75924321386265 59.00155038712546,204.2784334013122 59.0852713175118,203.8937853804091 59.16899224789813,203.60529926529853 59.16899224789813,203.12448888353538 59.16899224789813,201.87438078178093 59.16899224789813,201.00892038783059 60.08992248075083,200.62427107722033 60.75968992244452,200.2396216149209 61.34573643421754,200.0472968267859 61.76434108521789,199.95113441854483 61.9317829455249,199.75880957359914 63.10387596860528,199.66264713701094" stroke="#4dd2ff" stroke-linecap="round" stroke-linejoin="round" stroke-width="0.5"><title>2020-12-25 1.0km</title></polyline><polyline fill="none" points="105.87468671659008,205.84176407189807 106.28070175438188,206.23038620653097 106.61904761870392,206.61900814960245 107.36340852105059,207.085354228504 110.27318295720033,207.86259707988938 111.82957393466495,208.32894242287148 112.84461152879521,208.56211499107303 117.5814536337275,210.42749305156758 118.93483709241264,211.3601804264472 120.49122806987725,212.05969523295062 122.79197994968854,212.91465693159262 123.67167919781059,213.0701044133748 125.29573934851214,213.0701044133748 126.24310776917264,213.0701044133748 127.86716791940853,212.759209419135 129.3558897243347,212.6037618756527 131.0476190475747,212.68148565123556 131.99498746870086,212.6037618756527 134.634085213067,213.0701044133748 135.51378446095623,213.38099928520387 137.20551378419623,213.6918940344476 138.15288220578805,213.61417035851628 139.8446115287952,213.53644667513436 140.58897243114188,213.45872298406903 141.33333333325572,213.76961770269554 141.26566416025162,213.84734136302723 141.0626566419378,213.9250650157337 140.99498746870086,214.00278866104782 140.99498746870086,214.08051229838748 140.92731829569675,214.00278866104782 140.79197994992137,214.15823592810193 140.79197994992137,214.00278866104782 140.85964912292548,214.08051229838748 140.92731829569675,214.15823592810193 140.85964912292548,214.08051229838748 140.99498746870086,213.9250650157337 140.92731829569675,213.9250650157337 140.85964912292548,213.9250650157337 140.85964912292548,214.00278866104782 140.85964912292548,213.9250650157337 140.85964912292548,213.9250650157337 140.85964912292548,213.9250650157337 140.85964912292548,214.00278866104782 140.79197994992137,214.00278866104782 140.79197994992137,214.00278866104782 140.72431077668443,214.00278866104782 140.656641604146,214.00278866104782 140.79197994992137,214.00278866104782 140.79197994992137,214.00278866104782 140.79197994992137,214.00278866104782 140.72431077668443,214.00278866104782 140.72431077668443,214.08051229838748 140.58897243114188,214.00278866104782 139.03258145367727,214.00278866104782 137.27318295720033,214.00278866104782 135.51378446095623,213.61417035851628 134.70175438583829,213.38099928520387 133.01002506236546,212.91465693159262 132.13032581447624,212.759209419135 130.30325814522803,212.759209419135 129.4235588973388,212.68148565123556 127.5964912280906,212.8369331790018 125.70175438583829,213.0701044133748 124.82205513794906,213.0701044133748 122.99498746870086,212.9923806763254 122.04761904734187,212.759209419135 117.78446115273982,211.3601804264472 116.9047619048506,211.04928475728957 114.40100250625983,210.42749305156758 113.72431077668443,210.3497690539807 111.017543859547,209.88342490670038 109.46115288184956,209.1839081684593 108.58145363396034,208.7175633314764 106.88972431072034,207.7848728292738 105.33333333325572,207.2408028601203" stroke="#4dd2ff" stroke-linecap="round" stroke-linejoin="round" stroke-width="0.5"><title>2020-12-08 1.1km</title></polyline><polyline fill="none" points="152.0,206.2891738631879 152.3461538462434,206.35543897852767 154.65384615398943,208.1445946165477 155.40384615398943,208.40965430589858 158.3461538462434,209.2710975743248 159.73076923075132,209.66868640267057 160.4230769232381,209.93374549073633 162.03846153849736,210.53012805699836 163.48076923098415,211.25903936347459 164.23076923098415,211.7228916013264 167.92307692300528,212.98191748996032 168.73076923121698,213.0481819449924 171.03846153849736,212.78312408539932 171.73076923075132,212.7168596040574 175.36538461549208,212.78312408539932 176.11538461525925,212.84938856010558 178.36538461549208,213.5120329479687 180.67307692300528,213.7108261368121 181.36538461549208,213.6445617469144 182.8653846157249,213.7108261368121 185.17307692300528,213.37950412248028 185.86538461525925,213.3132397001027 187.30769230774604,213.18071083561517 188.0,213.11444639367983 187.71153846173547,212.58433062199038 186.09615384601057,212.51806612103246 185.40384615398943,212.58433062199038 183.96153846173547,212.98191748996032 183.4423076924868,213.11444639367983 181.94230769225396,213.445768538455 181.25,213.5120329479687 179.80769230774604,213.5120329479687 179.05769230774604,213.37950412248028 177.61538461525925,213.11444639367983 176.9230769232381,212.91565302817617 174.67307692300528,212.51806612103246 173.9230769232381,212.51806612103246 172.4230769232381,212.58433062199038 171.61538461525925,212.58433062199038 170.11538461549208,212.7168596040574 168.61538461549208,212.78312408539932 167.1730769232381,212.7168596040574 165.7884615387302,212.3855370997917 165.0961538462434,212.1867435189779 163.59615384647623,211.7228916013264 162.90384615398943,211.45783321885392 161.51923076924868,210.99398079805542 159.67307692300528,210.4638633534778 159.1538461537566,210.39759864361258 157.76923076924868,210.06627499568276 155.86538461549208,209.46989201783435 155.3461538462434,209.07230307202553 154.13461538450792,208.40965430589858 153.5,208.07832967775175" stroke="#4dd2ff" stroke-linecap="round" stroke-linejoin="round" stroke-width="0.5"><title>2020-12-03 1.3km</title></polyline><polyline fill="none" points="47.6197183097247,250.94638858520193 47.936619718093425,252.1111647017533 48.0,252.47515686118277 46.922535211313516,253.13034229603363 45.08450704207644,253.05754394317046 42.549295774428174,252.6207536747679 40.1408450701274,251.60157537698979 39.31690140836872,251.45597836223897 34.62676056334749,249.63601325749187 32.9154929574579,249.34481842402602 30.31690140836872,249.4176171432482 28.54225352080539,249.34481842402602 27.274647887330502,249.34481842402602 26.51408450677991,249.34481842402602 24.802816901355982,249.19922096451046 24.232394366059452,249.12642222410068 22.267605633707717,248.9808247210458 21.507042253157124,248.90802595904097 18.8450704223942,248.68962962954538 18.021126760169864,248.5440320406342 16.37323943665251,248.39843442296842 14.218309859279543,247.4520492083393 13.394366197055206,247.16085351374932 12.0,246.86965770390816 13.584507042076439,247.23365244816523 14.978873239364475,247.88884253508877 16.37323943665251,248.5440320406342 17.197183098411188,248.61683083855314 19.288732394576073,248.83522718958557 19.922535211080685,248.90802595904097 21.5704225350637,249.0536234761239 22.394366196822375,249.12642222410068 24.105633802711964,249.12642222410068 24.866197183029726,249.19922096451046 26.577464788686484,249.34481842402602 27.338028168771416,249.34481842402602 29.683098591398448,249.4176171432482 30.44366197171621,249.4176171432482 31.58450704207644,249.2720196978771 31.964788732351735,249.2720196978771 32.21830985904671,249.2720196978771 32.47183098574169,249.2720196978771 32.72535211243667,249.2720196978771 33.04225352103822,249.19922096451046 33.35915492940694,249.19922096451046 33.992957746144384,249.2720196978771 34.24647887307219,249.2720196978771 34.81690140836872,249.49041585507803 35.38732394343242,249.7816106308601 35.32394366199151,249.92720797570655 35.32394366199151,250.00000663724495 35.26056338008493,250.00000663724495" stroke="#4dd2ff" stroke-linecap="round" stroke-linejoin="round" stroke-width="0.5"><title>2020-11-30 1.0km</title></polyline></svg>