<?xml version="1.0" encoding="utf-8" ?>
<svg baseProfile="full" height="300mm" version="1.1" viewBox="0,0,200,300" width="200mm" xmlns="http://www.w3.org/2000/svg" xmlns:ev="http://www.w3.org/2001/xml-events" xmlns:xlink="http://www.w3.org/1999/xlink"><defs /><rect fill="#222222" height="300" width="200" x="0" y="0" /><text fill="#FFFFFF" style="font-size:12px; font-family:Arial; font-weight:bold;" x="10" y="20">Over 3km Runs</text><text fill="#FFFFFF" style="font-size:4px; font-family:Arial" x="10" y="280">ATHLETE</text><text fill="#FFFFFF" style="font-size:9px; font-family:Arial" x="10" y="290">jdzj</text><text fill="#FFFFFF" style="font-size:4px; font-family:Arial" x="120" y="280">STATISTICS</text><text fill="#FFFFFF" style="font-size:3px; font-family:Arial" x="120" y="285">Number: 63</text><text fill="#FFFFFF" style="font-size:3px; font-family:Arial" x="120" y="290">Weekly: 3.3</text><text fill="#FFFFFF" style="font-size:3px; font-family:Arial" x="141" y="285">Total: 138.9 km</text><text fill="#FFFFFF" style="font-size:3px; font-family:Arial" x="141" y="290">Avg: 2.2 km</text><text fill="#FFFFFF" style="font-size:3px; font-family:Arial" x="167" y="285">Min: 1.0 km</text><text fill="#FFFFFF" style="font-size:3px; font-family:Arial" x="167" y="290">Max: 13.2 km</text><polyline fill="none" points="11.285714285710128,48.30567009963488 12.41108917996462,48.79698100415408 12.660249673164799,49.00685986892131 12.896952141702059,49.34552611626714 12.722539796450292,49.4552343920368 12.460921278616297,49.85590598053386 12.16608136164723,50.35197096716365 12.112096588127315,50.57615251293828 12.232524159844615,50.69062779509841 13.183486708876444,50.80510280629824 13.23331880751357,51.04836130544936 13.158570659550605,51.8830625398914 13.262387531707645,50.96250550426703 12.97585296453326,50.01331176779058 13.092127861367771,49.77958783865688 13.370357078762027,49.679420094671514 13.756555843210663,49.72234915320223 15.525595344879548,50.13732808783607 15.62941221705114,50.18025673992088 15.583732793311356,50.542763837936945 16.01145830663154,50.57615251293828 16.19417600161978,50.10393910988205 16.605290815394255,48.21980942916343 16.734023736891686,48.07193791710233 17.697444310571882,48.32952025882332 18.017200276823132,48.36768048905651 18.15839122296893,48.29135999848586 18.40339904128632,48.353370406257454 18.84358257924032,48.1148684026557 20.994668170518707,46.640899920665106 21.152469816195662,46.764924889914255 20.978057470958447,47.29441252660399 20.911614672775613,48.1005582450598 21.110943067324115,48.51078108422007 21.25628668833815,48.60141124213624 24.61995334648236,48.582331223005895 25.143190382179455,48.6681912497952 25.832534413362737,48.64911125701474 27.829971033788752,48.49647104375981 28.369818769060657,48.31998019656385 29.030094076006208,47.71895247956854 29.470277614003862,47.11314714153923 29.81494962958095,46.28790403610037 29.989361974818166,45.143034784745396 29.84817102867237,44.5801307944821 28.79754428238084,43.31118758896628 28.278459921551985,42.30459616720327 28.245238522460568,42.40477919111072 28.386429468606366,42.83890322870502 28.336597369940137,42.83890322870502 28.423803542580572,42.85321494377422 28.830765681472258,43.478155703251105 28.868139755431912,43.516319762678904 28.88890312987496,43.45907366223037 28.5732998385065,42.9867907468215 27.763528235605918,41.27413015532875 27.805054984462913,40.68732719265972 30.961087898278493,38.220768534451054 31.596447155912756,37.62915741039615 33.02081464200455,36.76558300893885 33.564815052144695,36.36480290523468 33.602189126148005,36.2407512470636 33.012509292238974,35.56323272492227 33.46099818000221,35.219698576827795 34.13788418650802,34.47059481130054 34.1835636102478,34.24156713787306 34.42441875366785,34.084109982592054 34.42857142856519,33.98868115387086 34.10466278740205,33.831223174394836 34.154494886039174,33.91710940863777 34.20847965957364,33.87416631060114 34.21678500935377,33.98390970750552 34.142036861376255,33.93142376616379" stroke="#4dd2ff" stroke-linecap="round" stroke-linejoin="round" stroke-width="0.5"><title>2021-06-21 11.9km</title></polyline><polyline fill="none" points="40.618807422113605,33.03352471918333 40.53125562961213,32.46353563395678 40.79391100700013,32.63117958186194 40.56043956032954,32.999995975900674 42.13637182477396,34.67642908281414 45.84273103950545,37.023421531455824 53.43055305350572,43.36022013769252 55.181588902836666,43.99724626232637 57.457935507176444,46.813557970977854 58.421005224226974,51.10503567539854 60.14285714284051,53.31780768252793 58.65447667078115,51.37325123185292 57.51630336872768,46.84708535062964 55.38587641855702,44.097829225531314 50.3370563860517,40.00743136976962 48.87785984505899,39.50451020008768 46.54314537916798,37.3587048430054 45.40497207711451,37.090478220168734 42.1655557557242,34.10644275488448 41.056566384388134,33.704098888643784 40.32696811389178,32.56412201264175 37.9047018554993,32.83235221012728 37.0,32.396478031761944" stroke="#4dd2ff" stroke-linecap="round" stroke-linejoin="round" stroke-width="0.5"><title>2021-06-16 2.1km</title></polyline><polyline fill="none" points="64.56836296746042,41.39302836326533 64.30349478847347,41.65923301197472 65.66094420594163,42.34375840757275 72.48129981593229,45.11987672073883 76.42121397925075,44.92973226841423 80.36112814221997,45.462136498623295 85.85714285715949,44.73958772222977 83.67198038008064,44.28324042906752 84.06928264861926,43.750834571023006 81.12262415699661,44.24521146362531 77.7786633966025,43.142369833163684 75.3286327405367,43.56068944366416 73.24279583059251,42.68602064967854 69.23666462290566,42.914195308985654 64.63458001217805,41.77332066226518 62.714285714318976,40.25214921563747" stroke="#4dd2ff" stroke-linecap="round" stroke-linejoin="round" stroke-width="0.5"><title>2021-06-16 1.4km</title></polyline><polyline fill="none" points="110.41985783074051,43.34784011656302 109.67690896592103,43.77452601285768 102.02453565690666,40.83038476295769 96.93533593206666,41.427748375892406 94.00068791559897,41.086397840990685 93.48062371020205,41.683761100430274 88.42857142863795,40.23302032513311 94.4464572344441,41.93977367330808 101.43017656495795,42.57980444308487 111.57142857136205,45.48126538912766" stroke="#4dd2ff" stroke-linecap="round" stroke-linejoin="round" stroke-width="0.5"><title>2021-06-15 1.2km</title></polyline><polyline fill="none" points="128.97690655197948,47.95457956628525 127.1498388829641,49.05400847905548 124.27873254567385,48.704190447577275 115.8394199789036,35.510876832937356 114.14285714295693,36.46040709532099 116.10042964550667,40.50838455418125 118.10150375962257,42.357449910545256 120.53759398520924,43.057094500778476 122.93018259922974,46.70522563144914 126.4538131041918,49.1039824639156 128.97690655197948,50.203408881352516 135.28464017179795,48.20444998331368 137.28571428568102,48.45432027708739" stroke="#4dd2ff" stroke-linecap="round" stroke-linejoin="round" stroke-width="0.5"><title>2021-06-11 1.2km</title></polyline><polyline fill="none" points="160.26345881707675,54.425259340070625 160.35589510820864,54.412010982778156 160.56965403145296,54.25634239601641 160.96828553696105,53.829078125523665 160.97406280515133,53.60716354561009 160.78052432059485,53.76945942617749 160.66786759078968,53.62703655241421 160.70541983404837,53.74627434805734 160.77474705240456,53.77277157890421 160.97406280515133,53.597227037829725 160.97695143925375,53.7992687889855 160.881626514034,53.935066664926126 160.34434057181352,54.425259340070625 160.09591803939838,54.42857142857247 159.4459753673582,52.53069156541824 159.38820268541167,51.43099865868862 159.0473438618501,50.987136573581665 158.45517387175641,50.62276782133995 158.4522852376831,50.341207460187434 158.34251714195125,50.17558262323291 157.84278344301856,49.68864090412899 157.47592691256432,49.47001172889577 157.0252999933,48.99299771250662 156.87797965430946,48.96649673649881 156.40135502815247,49.05262483257684 156.34069371210353,49.07581312865295 156.48223678288923,49.0990014088311 156.4533504419087,49.13875270925564 156.21070517768385,49.22488036656432 155.39322172797984,49.37725953052359 155.1072469522769,49.3640091956986 155.19390597523306,49.39382244175067 155.14479919555015,49.433573395599524 155.20257187751122,49.403760184588464 155.21123777981848,49.486574594691774 155.21990368209663,49.39050986015354 155.0985810499842,49.37063436376047 154.63062232611992,49.11225184749492 153.4896118574543,49.12550228097825 153.18341664306354,49.00293557315672 152.61146709167224,49.24806854450799 151.94130398095876,49.10562662880693 151.7448768622853,49.01949866774885 151.40112940465042,48.6418580947211 151.03427287422528,48.330467080901144 150.52298463886837,48.214522885595215 149.9337032829062,48.20127209510974 149.5264058751054,48.00582233204841 149.15666071057785,47.71761468774639 147.00462830760807,46.7767818278553 146.82553299354913,46.75690479485638 146.27958114903595,46.85297701273521 145.99938364153786,46.81984869257576 145.7220747681422,46.67077085015262 145.32633189672197,46.24009783452129 144.73127327254042,45.72328297278 144.58395293354988,45.19652123225387 144.37597127849585,44.93148077413207 143.97156250479748,44.156225503356836 143.65381275402615,43.84148004020972 142.66589989254135,41.323410796016105 142.64856808795594,41.10804089966041 142.7034521358146,40.836341533551604 143.12519271409838,40.0908137570259 143.2291835416254,39.7561492716668 143.15696768918133,39.48112548021527 142.80455432925373,38.90787592245397 142.53013408993138,38.34787129627148 142.34815014177002,37.77128878539952 142.37414784864814,37.47305259005225 142.6110158446827,36.64460489631165 142.63990218566323,36.13095712049835 142.58212950370216,35.70014973616344 142.2961547280138,34.55682656885256 142.3452615076676,33.90395510615781 142.31926380078949,32.95942328661113 142.23838204605272,32.58491738982775 142.24704794834543,32.20377880464366 142.11128214573546,31.646977310447255 141.88019141790573,31.285714285717404" stroke="#4dd2ff" stroke-linecap="round" stroke-linejoin="round" stroke-width="0.5"><title>2021-06-10 13.2km</title></polyline><polyline fill="none" points="174.58266032056417,47.84171489946311 174.8898839391768,48.87092082289746 176.24678825505544,48.72389162276522 176.3235941596795,49.4884426719218 177.29646895220503,49.37081956115435 177.88531422126107,50.16477465824573 178.21813980827574,49.459036898537306 177.5268866660772,48.98854413081426 178.1669358718209,49.047355767397676 178.52536342677195,49.459036898537306 178.0389260306256,50.19418036195566 179.57504412392154,50.370614523562836 178.80698507733177,50.87051074774354 178.73017917270772,50.31180314795347 179.21661656885408,50.01774609601125 179.44703428295907,50.34120883716969 179.26782050530892,49.87071746139554 179.67745199683122,50.10596324206563 179.2422185371397,50.07655752968276 179.29342247359455,49.694283004064346 179.93347167910542,50.929322013049386 179.44703428295907,51.63505629316205 178.11573193524964,52.076139370095916 175.96516660461202,52.017328330897726 173.66098946449347,53.63462768352474 172.8929304179037,53.164141503715655 172.40649302164093,53.693438403715845 172.96973632252775,54.310950266430154 173.84020324214362,54.016897157998756 173.12334813189227,54.252139667834854 173.6865914327791,54.310950266430154 173.78899930568878,53.8110598095227 173.8146012739744,54.10511312086601 173.09774616360664,53.98749183118343 173.8146012739744,54.10511312086601 173.35376584599726,53.84046515368391 173.91700914676767,53.8110598095227 172.07366743474267,54.10511312086601 172.84172648144886,53.86987049502204 173.14895010006148,54.428571428579744 173.14895010006148,54.10511312086601 172.5089008945506,54.19332905783085 173.07214419543743,53.95808650145773 173.78899930568878,54.163923748390516 173.25135797285475,54.163923748390516 173.40496978233568,53.5758169516339 173.32816387771163,54.252139667834854 172.8929304179037,54.04630248178728 173.25135797285475,53.781654462451115 173.1745520683471,54.34035556128947 172.81612451316323,53.54641158133745 173.32816387771163,53.51700620815973 173.09774616360664,54.07570780284004 172.56010483088903,53.92868116887985 172.7905225448776,52.78187093610177 171.66403594310395,51.2821893619257 171.51042413385585,49.606065736181336 170.17912178626284,47.665279241715325 170.05111194518395,47.106565636524465 170.5375493413303,46.43022671388462 169.9999080087291,44.84229451874853 170.58875327778514,43.31316663484904 170.51194737304468,41.60759166706703 172.07366743474267,31.285714285739232 172.6113087674603,31.31512185142492 172.6113087674603,31.844457537081325 173.40496978233568,32.28556989048957 175.91396266804077,32.55023698936566 176.14438038214575,33.05016309054918 178.14133390353527,32.28556989048957 180.11268545675557,33.31482951072394 181.1111622173339,33.02075569608132 181.3415799314389,33.491273660212755 183.28732951637357,32.96194089832716 183.568951166817,34.285271040920634 184.28580627695192,34.75578700948972" stroke="#4dd2ff" stroke-linecap="round" stroke-linejoin="round" stroke-width="0.5"><title>2021-06-08 2.7km</title></polyline><polyline fill="none" points="34.42857142863795,66.86763687766506 26.085061757359654,63.96219706416014 17.439524586312473,63.398452786699636 14.041715217987075,61.490389868587954 14.230482405051589,59.929241321689915 13.852948030689731,60.05933724564966 11.285714285681024,75.41038600695902 11.814262409694493,76.9281159506354 13.060125844785944,78.0122055602842 12.493824283359572,79.35647296402021" stroke="#4dd2ff" stroke-linecap="round" stroke-linejoin="round" stroke-width="0.5"><title>2021-06-08 1.1km</title></polyline><polyline fill="none" points="59.491382612031884,70.7118673628429 51.95289161230903,67.82555194353336 48.0130218307022,68.57385815534508 45.407123707351275,68.36005653868779 44.941784756607376,68.78765964548802 40.93986978160683,67.50484880697331 37.0,68.07498751973617 40.44350823422428,67.362313988182 44.81769436993636,68.78765964548802 51.23937188810669,69.07272810209543 56.109919570968486,70.81876749108778 60.11183454620186,71.92340029755724 60.14285714284051,71.56706750314333" stroke="#4dd2ff" stroke-linecap="round" stroke-linejoin="round" stroke-width="0.5"><title>2021-06-07 1.5km</title></polyline><polyline fill="none" points="77.94174429145642,79.73927735723555 77.76448223064654,74.70387231803034 76.346385743469,73.83920187567128 72.4909359193407,68.75287590129301 69.74337397539057,69.31237420643447 74.30787204345688,64.2260037237429 77.94174429145642,58.071428571420256 70.80694634071551,68.54942182224477 72.31367385829799,68.49855829006992 73.42156173894182,69.41410110599827 77.72016671532765,74.60214645869564 77.76448223064654,79.63755248807138 78.82805459620431,81.21428571426077 77.8531132612843,80.6548002808122" stroke="#4dd2ff" stroke-linecap="round" stroke-linejoin="round" stroke-width="0.5"><title>2021-06-04 1.3km</title></polyline><polyline fill="none" points="102.34677929297322,72.97476857290894 102.59769280225737,73.36471347388579 103.33567371207755,73.36471347388579 103.14379867550451,72.94086027883168 103.54230836679926,72.75436454183364 103.09951982094208,72.82218119688332 103.18807753006695,72.21183033807029 102.73052936606109,72.00837957010663 102.71576974785421,72.26269299242995 103.18807753006695,72.771318708139 103.20283714833204,73.44948398749693 102.5829331841087,73.39862168434775 102.12538502004463,72.82218119688332 102.21394272922771,73.11040168232284 101.66783685603878,73.21212644409388 100.98889441910433,72.00837957010663 100.22139427304501,71.21152840986906 97.60894185258076,69.36349766860076 97.31374948867597,67.78672178313718 97.62370147067122,66.19297661620658 99.0701440537814,63.80233115046576 100.42802892770851,62.70024934515823 101.81543303804938,61.072546365030576 101.87447151070228,59.75002633991244 101.34312525577843,58.71574076528486 100.88557709177257,58.41054055355198 100.39850969129475,58.88529620417103 100.26567312760744,58.46140729317267 100.47230778227095,58.444451714953175 100.19187503663125,58.39358497039939 100.38375007314608,58.427496135089314 100.23615389113547,58.76660741450905 100.30995198216988,58.49531844459125 100.02951923641376,58.69878521216742 100.25091350940056,58.54618515903712 100.05903847282752,58.49531844459125 100.11807694559684,58.69878521216742 99.5719710724079,59.10571802461345 100.19187503663125,58.76660741450905 99.95572114549577,58.91920727187244 100.04427885467885,58.58009629367734 99.85240381810581,59.00398491184751 99.85240381810581,58.69878521216742 100.39850969129475,58.35967379891372 100.66418281878578,58.732696316670626 100.54610587324714,58.851385129761184 100.95937518269056,58.88529620417103 100.48706740047783,59.10571802461345 99.88192305451958,58.29185143597715 100.54610587324714,58.39358497039939 100.56086549145402,58.07142857143481 99.586730690673,59.12267353756761 100.42802892770851,59.10571802461345 100.42802892770851,58.88529620417103 99.82288458169205,58.95311833289452 100.66418281878578,58.35967379891372 99.91144229087513,58.851385129761184 100.20663465477992,58.83442959007516 100.32471160031855,58.69878521216742 100.01475961826509,58.54618515903712 100.10331732744817,58.851385129761184 100.56086549145402,58.61400742160913 100.42802892770851,58.86834066777374 100.44278854585718,58.664874100955785 100.23615389113547,58.76660741450905 100.32471160031855,58.52922958918498 100.61990396422334,58.51227401768847 100.51658663689159,58.91920727187244 100.75274052796885,58.597051858494524 100.38375007314608,59.05485147575382 100.5756251096027,58.76660741450905 100.33947121858364,58.122295411420055 100.76750014623394,58.32576262076327 100.10331732744817,58.88529620417103 100.38375007314608,59.00398491184751 100.56086549145402,58.78356296093261 100.44278854585718,59.05485147575382 100.70846167340642,58.41054055355198 100.54610587324714,58.936162803234765 100.7232212916133,59.15658455841185 100.47230778227095,58.902251738880295 98.33216314413585,61.08950168386218 100.97413480089745,58.630962983035715 102.87812554801349,60.156956662627636 103.76370263966965,61.47947355559154 102.89288516616216,76.53510222148907 97.49086490698392,76.67073252121918 96.39865316060605,76.95894655273878 96.23629736038856,79.38331603964616 96.79716285184259,79.79019987511856 97.99269192561042,79.51894409183296 98.52403818059247,80.0953621196677 98.0812496347935,80.4513840534928 98.87826901732478,80.55310447057127 99.02586519921897,80.84131199204421 98.99634596286342,81.21428571428987 98.73067283531418,80.85826536059903 98.58307665336179,80.94303217838751" stroke="#4dd2ff" stroke-linecap="round" stroke-linejoin="round" stroke-width="0.5"><title>2021-06-02 5.9km</title></polyline><polyline fill="none" points="120.79950836009812,80.52029571883031 122.86766526091378,78.6251601264812 126.07447034306824,74.300998238381 128.83975878357887,68.53534155862872 130.02488240099046,64.13093770982232 130.00164468295407,58.07142857144936 130.4663990426343,58.498534983053105 130.6987762224162,63.14327367171063 129.0721359634772,69.2560553624644 127.28283167839982,73.42014197443496 124.40135464805644,77.69093347160378 120.72979520610534,81.21428571428987" stroke="#4dd2ff" stroke-linecap="round" stroke-linejoin="round" stroke-width="0.5"><title>2021-06-01 2.2km</title></polyline><polyline fill="none" points="163.0,71.22466962254839 162.53499668790027,71.7587849511765 152.5910797084216,68.59516878926661 145.75910797086544,68.80059913959121 145.18679620232433,69.33471757633379 140.751379995374,67.77344637486385 139.85714285704307,67.81453253410291 139.89291234267876,68.2664800179773 140.715610510204,67.52692933450453 145.6875689998269,69.5812335468363 154.70147935533896,69.86883532820502" stroke="#4dd2ff" stroke-linecap="round" stroke-linejoin="round" stroke-width="0.5"><title>2021-05-31 1.1km</title></polyline><polyline fill="none" points="178.24320262111723,80.35317377815954 178.71143473964185,76.53197312052362 179.50742934131995,77.12399188056588 182.4104684756603,76.53197312052362 183.3937559244223,75.4555737246992 184.1429273141548,72.28018310031621 185.87538615241647,72.92602676257957 184.8452754917089,72.49546440632548 185.3603308221791,71.74197946320055 185.2666843982879,73.03366729838308 185.3603308221791,71.68815907009412 185.3135076102335,73.6795100661111 183.8151648310013,72.17254241544288 188.59113243967295,74.80973306519445 183.72151840734296,72.97984703310067 184.89209870365448,72.44164408801589 184.28339694975875,70.66557059111074 183.8151648310013,73.30276854481781 185.2666843982879,71.95726098190062 184.75162906805053,71.09613439551322 186.062678999966,73.03366729838308 186.67138075386174,72.76456591900205 184.93892191560008,73.57186965807341 183.34693271270953,72.81838620558847 185.641270093387,72.6031050272868 184.04928089049645,72.2263627606444 182.87870059418492,76.04759365593782 178.38367225672118,76.80107263673563 178.52414189232513,78.84622461081017 176.6512134182267,80.29935423698043 176.74485984188505,81.21428571426077 177.44720801967196,80.19171513838228 175.3869866982568,74.5944526749663 165.69458184577525,58.071428571420256" stroke="#4dd2ff" stroke-linecap="round" stroke-linejoin="round" stroke-width="0.5"><title>2021-05-30 1.4km</title></polyline><polyline fill="none" points="12.126097366213799,94.14531414714293 15.455307262483984,96.03875373749179 21.531923383823596,98.30344348421204 24.34397446119692,98.04356174627901 27.89944134070538,98.71182870998746 33.879090183530934,97.82080582808703 34.428571428521536,97.37529359635664 33.81444533111062,97.85793182364432 28.125698323943652,98.48907318722922 20.20670391060412,97.96930978828459 14.93814844370354,96.55851980205625 11.285714285681024,94.66508282625" stroke="#4dd2ff" stroke-linecap="round" stroke-linejoin="round" stroke-width="0.5"><title>2021-05-27 1.4km</title></polyline><polyline fill="none" points="60.14285714295693,98.09287503376254 57.244968944229186,97.95418384642107 51.368695652112365,95.73511926710489 42.47378882020712,95.41150480488432 37.0,93.93212156070513 40.38086956553161,95.22658215471893 49.51726708072238,96.05873350589536 58.93540372676216,98.92502129645436 59.700124223483726,98.69386970496271" stroke="#4dd2ff" stroke-linecap="round" stroke-linejoin="round" stroke-width="0.5"><title>2021-05-25 1.1km</title></polyline><polyline fill="none" points="63.351510817185044,94.5488457721367 64.45217235840391,95.44712555911974 68.13069908809848,95.77982116944622 71.78026104066521,97.87579596941941 76.15394242794719,97.70944923875504 78.61594850709662,98.10868125437992 83.77167888428085,97.37675553164445 85.85714285715949,96.34540295400075 85.85714285715949,97.110600329499 77.63114607543685,98.30829708499368 74.5029501162935,97.77598794092773 71.72233148582745,98.00887329480611 66.2190237797331,96.67809767840663 62.714285714318976,95.11442962058936" stroke="#4dd2ff" stroke-linecap="round" stroke-linejoin="round" stroke-width="0.5"><title>2021-05-24 1.6km</title></polyline><polyline fill="none" points="97.44352159462869,95.82970091036987 102.82558139518369,95.98424929162138 102.82558139518369,96.64107923212578 106.25664451823104,98.18655710088206 111.57142857136205,97.68427746230736 106.15573089697864,98.22519396943972 102.32101328892168,97.5683666850382 98.31810631218832,97.76155129476683 88.42857142852154,94.63194888771977" stroke="#4dd2ff" stroke-linecap="round" stroke-linejoin="round" stroke-width="0.5"><title>2021-05-21 1.1km</title></polyline><polyline fill="none" points="128.01646069146227,108.0 128.84151761978865,107.20516170194605 128.57537022361066,106.41032136545982 129.00120605749544,102.71122990522417 130.5980904349126,102.16094806444016 130.9440820501186,101.33552347120713 132.86034330306575,101.79409296109225 136.79932476731483,101.24380949186161 136.6662510690512,99.47066722231102 135.33551408792846,96.59693234454608 132.67404012556653,92.86715159617597 130.7577788727358,91.06338906477322 127.69708381604869,89.25961603413452 123.35888125747442,88.64816516652354 121.76199688017368,88.00614045688417 119.41989979334176,88.34243928018259 116.49227843468543,86.59979596876656 115.93336890265346,84.85714285715949 114.62924666120671,85.31573673133971 114.70909088011831,86.29406806151383" stroke="#4dd2ff" stroke-linecap="round" stroke-linejoin="round" stroke-width="0.5"><title>2021-05-20 1.7km</title></polyline><polyline fill="none" points="139.96840659342706,94.44764541630866 139.85714285704307,92.08328114758478 144.8083791208919,91.18865457957145 162.61057692300528,91.57206611719448 163.0,100.26266677299282 161.94299450539984,101.02947888080962 152.93063186807558,100.26266677299282 151.81799450539984,101.02947888080962 144.97527472535148,101.66848827752983 141.02541208802722,101.09337984892773 140.1353021976538,100.32656781654805 140.1353021976538,93.68082551792031" stroke="#4dd2ff" stroke-linecap="round" stroke-linejoin="round" stroke-width="0.5"><title>2021-05-18 1.1km</title></polyline><polyline fill="none" points="165.57142857147846,97.21597172370821 166.47176960960496,98.06209703764762 170.87116331944708,99.9188615022722 173.6335733232554,99.84835172355815 175.4956422887044,100.27141008287435 178.7082228116924,99.895358245034 182.2482000758173,98.8612126311491 183.2508525956655,98.25012447715562 184.86737400537822,97.12195761447947 188.71428571431898,93.33785892695596 188.10041682457086,92.58573277427058 186.58620689657982,93.76092884450918 177.72603258816525,94.72458529734286 176.43690791958943,94.37202851056645 169.45926487306133,94.16049418812327 169.0909435391659,94.74808906455291 169.17279272456653,94.51305128788226 168.76354679802898,94.67757775592327 168.33383857517038,95.57071945742064 167.6995073891012,95.82925985152542 165.85790071997326,95.45320100369281 165.5918908676831,94.95962286536815" stroke="#4dd2ff" stroke-linecap="round" stroke-linejoin="round" stroke-width="0.5"><title>2021-05-10 2.5km</title></polyline><polyline fill="none" points="34.428571428521536,130.60473287041532 34.31333728507161,129.9429226724169 33.52590397151653,129.12668739791843 32.27753408416174,129.7443792311533 31.64374629512895,129.54583561363688 31.605334914056584,128.9281432320422 32.027860106667504,128.22220699275204 31.874214582145214,126.25881011060847 31.4132780082291,125.59698705266055 28.974155305302702,126.34705303706869 27.341671606292948,126.17056714942737 27.28405453474261,125.66316944656137 23.058802608167753,125.72935182096262 20.85014819202479,125.37637893141073 17.3163011262659,126.01614188347594 14.80035566096194,126.08232415336533 12.802963841124438,125.64110865078692 11.285714285681024,123.01585841285123 13.494368701823987,121.42745675063634 14.473858921090141,120.34645472330158 16.490456431522034,119.309570317826 16.74013040889986,118.55948072973115 18.871962062781677,117.61083441220399 20.926970954285935,116.19888825475937 20.10112625954207,117.1254789261875 17.815649081254378,118.1182503849559 15.66461173677817,116.22094998201646 14.301007705973461,115.82383855816443" stroke="#4dd2ff" stroke-linecap="round" stroke-linejoin="round" stroke-width="0.5"><title>2021-05-08 2.6km</title></polyline><polyline fill="none" points="60.1428571427241,119.21165896602906 59.99134907638654,120.8214226977434 55.44610708439723,121.08246491153841 54.764320785645396,122.34416676664841 47.75707271439023,120.7344085922814 44.120879120891914,121.03895788671798 42.795183539856225,121.7785767262103 37.64390928228386,120.64739446944441 37.0,121.69156280942843 42.3785363570787,123.60586501308717 50.18120177695528,124.38898624735884 59.99134907638654,127.21691246257978" stroke="#4dd2ff" stroke-linecap="round" stroke-linejoin="round" stroke-width="0.5"><title>2021-05-08 1.3km</title></polyline><polyline fill="none" points="85.8571428572759,122.82648253321531 85.27396741206758,123.14378154446604 81.83630162954796,121.87458380952012 81.28381962887943,122.36816124198958 77.78476695728023,121.02844948243 75.51345206529368,122.08611707825912 70.57180750288535,122.40341674664523 67.41038272087462,121.38100569549715 64.21826449420769,121.94509491298231 63.11330049263779,121.76881712814793 62.714285714318976,121.20472763248836 67.8400909435004,121.41626129770884 70.84804850339424,122.75597160353209 75.75899962126277,122.61494970251806 85.67298219038639,125.40012194612063" stroke="#4dd2ff" stroke-linecap="round" stroke-linejoin="round" stroke-width="0.5"><title>2021-05-07 1.5km</title></polyline><polyline fill="none" points="88.5353846156504,127.65871253790101 88.42857142863795,127.0442818114825 90.13758241781034,126.47081230769982 90.84967032982968,124.75039901401033 99.7863736266736,119.42526477796491 102.6347252749838,120.24452067280072 103.31120879133232,121.14570027802256 104.13010989036411,119.13852483037044 103.80967032979243,118.76985889070784 103.80967032979243,120.1625951564929 103.631648351904,119.71200452625635 102.95516483532265,121.26858825361705 103.84527472546324,120.24452067280072 102.99076923099346,121.14570027802256 103.45362637354992,119.63007890424342 103.13318681321107,121.22762559913099 103.91648351657204,120.53125985170482 105.37626373651437,120.77703613199992 107.54813186824322,119.99874407521565 109.54197802208364,120.08066962391604 111.57142857159488,121.26858825361705 110.25406593410298,120.36740891664522 108.65186813194305,120.1625951564929 104.91340659349225,121.0637749407324 103.06197802210227,119.87585572141688" stroke="#4dd2ff" stroke-linecap="round" stroke-linejoin="round" stroke-width="0.5"><title>2021-05-06 1.2km</title></polyline><polyline fill="none" points="119.91763435071334,125.32524376077345 120.92384553095326,123.16413989913417 128.09856872819364,117.83672841824591 131.11720226844773,114.62015110583161 135.09829867701046,112.50926120232907 136.62948960321955,113.96678135640104 137.28571428568102,128.79304241976934 136.45449635433033,124.3703385341505 124.42371050524525,130.95412239426514 121.27383202826604,127.93865943516721 115.36780988401733,131.15515262339613 114.14285714295693,133.21570789607358 115.41155819618143,133.91931022622157 119.17391304369085,130.4012888551224 120.57385903340764,127.18479090556502 119.78638941422105,126.02885699245962" stroke="#4dd2ff" stroke-linecap="round" stroke-linejoin="round" stroke-width="0.5"><title>2021-05-06 1.8km</title></polyline><polyline fill="none" points="153.8757926147664,119.63472422634368 155.96046251396183,119.00610576893087 156.17195076472126,118.34256282169372 153.75494218582753,117.36470773193287 154.0570682581747,117.43455461607664 153.6945169713581,117.81871222535847 155.47706079832278,118.51717951043975 157.04811637464445,118.27271612148616 156.53450205153786,120.54272664344171 158.10555762785953,119.6696474404016 158.04513241327368,120.33318783622235 158.67959716531914,120.29826468924875 161.03618052974343,122.18410956606385 162.75829914200585,122.5682618888386 162.78851174935699,123.54610223532654 162.24468481901567,124.31440342121641 163.0,127.8066599839658 162.36553524807096,129.06386369661777 145.56732562487014,127.07328903686721 140.88437150313985,127.70189280124032 139.8571428571595,128.47018473630305 140.5822454309091,127.73681519911042" stroke="#4dd2ff" stroke-linecap="round" stroke-linejoin="round" stroke-width="0.5"><title>2021-05-02 1.6km</title></polyline><polyline fill="none" points="172.6607594937086,117.69258625415387 174.3012658227235,118.37010346463649 176.293309222674,116.67630915058544 184.20289330929518,115.3890226012445 187.71826401446015,116.81181285361527 188.71428571431898,119.18312321125995 187.48390596779063,125.9582493120688 177.52368896920234,129.48128774855286 166.2745027123019,131.03954882733524 165.57142857136205,129.8877909888397 170.43435804685578,115.93103829259053" stroke="#4dd2ff" stroke-linecap="round" stroke-linejoin="round" stroke-width="0.5"><title>2021-05-01 1.0km</title></polyline><polyline fill="none" points="22.325354701140895,149.0498099726392 20.92336774454452,151.28583413688466 18.844559498596936,146.98147955228342 18.941248254152015,145.41625137691153 20.633301477646455,142.7888940994162 23.29224225739017,141.6708659308497 30.15714390692301,141.78266884951154 34.16972726560198,138.42857142857974 29.093567595118657,142.00627461913973 17.152506275102496,140.3851307358127 16.137274340959266,140.88824486453086 14.15515485056676,145.13674587832065 13.478333560982719,155.53425508219516 12.656479138415307,158.2174514553044 11.6895915819332,158.6087498361012 11.544558448716998,161.57142857142026 12.318068493623286,161.1801322918618 12.656479138415307,159.335446092824 13.961777339223772,144.80133909313008 15.702174940612167,143.06840078748064 16.4273406076245,143.51561119389953" stroke="#4dd2ff" stroke-linecap="round" stroke-linejoin="round" stroke-width="0.5"><title>2021-05-01 1.8km</title></polyline><polyline fill="none" points="56.587014663848095,147.8976803336118 55.78022687451448,148.03497709955263 54.46546158817364,148.97888943227008 52.8668265240849,148.9102414353256 52.582956746278796,149.2534811492369 52.62777829018887,148.9274034371192 51.552061237744056,149.28780508339696 49.012173752707895,148.96172743555508 47.518122290901374,149.13334732640942 47.06990685244091,148.89307943187305 45.441390759078786,149.20199523530027 41.76602416305104,149.28780508339696 38.1055980817182,148.9102414353256 37.0,149.85414901901095 37.07470257306704,150.18022499411018 41.37757078296272,151.02115495146427 41.84072673617629,150.88386054219154 42.69233606941998,151.33006697616656 44.96329429128673,151.3643905006029 46.38264317990979,151.9135659706517 46.99520427925745,151.72478709837014 48.60877985798288,152.10234463817324 49.012173752707895,152.4112547431141 50.01318823208567,152.5313863024494 50.28211749519687,152.3254464356578 51.01420271146344,152.6686794115958 51.92557410307927,152.51422465623182 53.44950659410097,152.9604269086849 53.58397122571478,152.54854794703715 53.91266254731454,152.51422465623182 54.52522364654578,152.8402956455975 54.73439085128484,152.34260810053092 55.63082172832219,151.86208084403188 56.706538780767005,150.7808896641218 57.90177995018894,150.31751995865488 58.52928156417329,149.5623963127291 59.57511758740293,149.23631917964667 60.14285714289872,148.44686674731201 59.84404685051413,147.5372758073936 59.38089089735877,147.0395730913151 58.439638476469554,147.6402486053703 57.00534907315159,147.55443794463645 56.91570598544786,148.10362544191594 54.89873651205562,149.0990233617922 55.31707092135912,149.49374854602502 55.600940699048806,149.30496704789402 56.5720741492114,150.04292992122646 57.37886193866143,149.92279664354282 57.43862399709178,149.71685368879116" stroke="#4dd2ff" stroke-linecap="round" stroke-linejoin="round" stroke-width="0.5"><title>2021-04-30 3.7km</title></polyline><polyline fill="none" points="85.67433987814002,148.48820038500708 84.21191604598425,150.58793240433442 83.40758293843828,150.7139159962826 75.43737305351533,148.53019512692117 68.34461746783927,148.48820038500708 69.29519295878708,149.28609977214364 62.714285714318976,147.31234593104455 67.97901150980033,149.16011575769517 76.38794854446314,149.95801388574182 85.0528097494971,152.68765406892635 85.8571428572759,152.51967671670718 84.76032498315908,152.14172743225936" stroke="#4dd2ff" stroke-linecap="round" stroke-linejoin="round" stroke-width="0.5"><title>2021-04-29 1.4km</title></polyline><polyline fill="none" points="97.32204081630334,149.43047091850895 99.20653061231133,147.94926159654278 98.54530612251256,146.7718860177556 99.70244897936936,146.39208667571074 107.60408163245302,138.83400182423065 108.52979591826443,138.72005971087492 111.57142857136205,142.21426917539793 107.70326530584134,144.7209651178273 108.13306122436188,144.75894523365423 105.71959183644503,147.3795641855977 106.74448979576118,146.99976544317906 106.97591836727224,146.12622691321303 105.81877551006619,147.075725221599 100.29755102028139,153.76012702164007 96.56163265311625,155.96291581957485 94.01591836719308,158.20367080028518 93.8506122448016,159.6468620170781 91.76775510201696,161.27994028912508 90.0485714286333,160.40643416825333 88.42857142852154,158.08973442119895 88.56081632652786,155.84897877721232 90.84204081632197,154.78556475465302 91.66857142851222,153.4942723486747 93.94979591830634,152.50681052697473 94.37959183671046,151.5193461717863 95.50367346929852,150.873695031245 95.8342857141979,149.7343080235878 96.69387755100615,149.0886538886116 97.65265306108631,149.3165319423424 97.85102040809579,148.59491764285485" stroke="#4dd2ff" stroke-linecap="round" stroke-linejoin="round" stroke-width="0.5"><title>2021-04-26 2.2km</title></polyline><polyline fill="none" points="127.79684201593045,157.48240971943596 128.42791968327947,156.6123983662401 129.15996977698524,147.4771236066299 131.63379423250444,138.42857142857974 129.36191463063005,147.33211695510545 127.56965405563824,148.17315453774063 124.96961406688206,147.99914695954067 122.26860165130347,148.40516448163544 120.85498767683748,149.27520013938192 119.87050651584286,150.66725183240487 119.79477719590068,159.19342453192803 120.93071699689608,161.2814291092218 121.68801019736566,161.57142857142026 122.19287233112846,161.31042906831135 124.91912785358727,159.0194234807277 125.85312280093785,159.6574268315162 126.76187464175746,158.99042329547228 126.93857638852205,158.23641747501097" stroke="#4dd2ff" stroke-linecap="round" stroke-linejoin="round" stroke-width="0.5"><title>2021-04-25 2.2km</title></polyline><polyline fill="none" points="152.32281897112262,161.57142857142026 151.64036689931527,156.48881911006174 152.01689218031242,153.59601522693993 151.64036689931527,148.21585946154664 151.9933593502501,138.83412898430834 151.71096538950223,138.42857142855064 151.12264463782776,138.83412898430834 150.5343238861533,148.4051129653235 150.76965218689293,157.81355087601696 151.71096538950223,158.08390351053094 151.7815638795728,157.84058615152026 151.89922803011723,153.21751526230946 151.5933012390742,156.81324380839942" stroke="#4dd2ff" stroke-linecap="round" stroke-linejoin="round" stroke-width="0.5"><title>2021-04-18 2.2km</title></polyline><polyline fill="none" points="188.71428571431898,153.29425466191606 184.5697912402684,152.8753354504588 172.03683995106257,149.10504209555802 166.49979533359874,148.57186632679077 165.57142857147846,147.962521689391 172.16946377407294,147.88635354221333 173.62832582904957,146.70574533808394 176.4797380269738,148.00060575746465" stroke="#4dd2ff" stroke-linecap="round" stroke-linejoin="round" stroke-width="0.5"><title>2021-04-16 1.0km</title></polyline><polyline fill="none" points="34.428571428579744,178.64181038626703 33.750747160753235,178.8225502725545 33.47235505079152,178.25252369017107 32.98819485952845,178.0578799389623 32.370890615624376,178.21081433750805 32.1530185295851,178.03007366679958 31.850418410031125,177.61297892684524 32.382994620420504,176.66755961357558 32.2014345486532,175.97239430819172 31.838314405293204,175.81945748094586 29.01808129111305,176.01410432324337 26.60938433953561,175.8055541247595 25.435295875708107,176.0836209874833 24.939031679648906,175.88897424115567 24.140167364035733,175.97239430819172 23.946503287530504,175.8055541247595 22.372982665838208,175.98629764789075 21.81619844591478,175.79165076720528 21.174686192476656,175.97239430819172 20.533173939038534,175.70823059318354 19.17752540350193,175.95849096713937 18.063956963538658,175.51358332850214 17.14405260013882,175.6248103698308 16.62358039454557,174.98525368366973 15.679468021495268,175.040867423726 14.820083682017867,174.7767019628809 14.469067543395795,174.94354336417746 13.984907352074515,174.47082554755616 13.270771069976036,174.72108811856015 12.229826658673119,174.37350109439285 11.624626419623382,174.69328118819976 12.048266587022226,174.38740459180553 12.145098625216633,174.86012268820195 11.285714285739232,174.81841233171872 12.01195457263384,174.5542464539467 11.660938434011769,174.63766731094802 12.036162582226098,174.60986036411487 11.733562462672126,174.73499158170307 11.927226539177354,174.94354336417746 11.721458457875997,174.7767019628809 12.01195457263384,174.67937772090954 11.927226539177354,174.52643949062622 11.685146443545818,174.60986036411487 11.769874477002304,174.81841233171872 12.145098625216633,174.66547425228055 11.963538553507533,174.5959568886028 11.939330543973483,174.7906054205232 12.036162582226098,174.54034297300677 11.903018529643305,174.7906054205232 11.987746563041583,174.5959568886028 12.048266587022226,174.74889504346356 11.866706515313126,174.2483695558476 11.97564255836187,174.60986036411487 11.915122534381226,174.37350109439285 11.939330543973483,174.60986036411487 11.69725044828374,174.4291150758654 11.781978481798433,174.30398358668026 11.866706515313126,174.4291150758654 11.685146443545818,174.49863252184878 11.927226539177354,174.62376383820083 11.733562462672126,174.512536006936 11.963538553507533,174.30398358668026 11.794082486594561,174.5959568886028 11.600418410089333,174.5959568886028 11.794082486594561,174.2344660446979 11.612522414827254,174.35959759561229 11.903018529643305,174.60986036411487 11.69725044828374,174.48472903537913 11.733562462672126,174.60986036411487 11.794082486594561,174.49863252184878 11.85460251045879,175.08257771442004 11.733562462672126,176.3894939028687 12.907650926499628,176.63975306719658 13.004482964752242,176.86220528467675 14.05753138079308,176.7648824827338 14.662731619901024,176.98733450272994 19.492229527852032,177.19588295267022 24.261207411880605,177.8076232924068 26.548864315613173,177.8910422239569 27.565600717323832,178.11349246669852 28.739689181151334,178.71132575461525 30.5794979078928,178.50277954677586 30.773161984456237,178.8364533311542 31.027346084883902,178.72522882414341 32.75821876869304,179.08670815109508 33.06081888824701,179.33696252675145 33.60549910343252,179.21183539445337 33.77495517034549,178.697422683661 34.25911536166677,178.50277954677586" stroke="#4dd2ff" stroke-linecap="round" stroke-linejoin="round" stroke-width="0.5"><title>2021-04-09 4.9km</title></polyline><polyline fill="none" points="59.67568766651675,178.02403829284594 52.416592724155635,175.91889734659344 51.590062112081796,175.13462644364336 46.487133984221146,175.54740078639588 42.785714285913855,175.1759038963064 43.46850044373423,175.58867819831357 43.14507542154752,175.75378780503524 37.0,174.35035407100804 42.10292812786065,175.87761996733025 49.4338952973485,176.49678022947046 59.60381543939002,179.22107450041221 58.23824312351644,178.684472485882 60.14285714295693,178.43680978569319 59.63975155283697,177.81765239371452" stroke="#4dd2ff" stroke-linecap="round" stroke-linejoin="round" stroke-width="0.5"><title>2021-04-09 1.4km</title></polyline><polyline fill="none" points="63.634740259847604,175.50191781527246 64.75243506510742,176.44589635328157 72.83928571443539,179.54212962117163 76.42248376633506,179.3910944329109 79.54545454564504,180.03299357136711 85.33116883144248,179.3910944329109 85.85714285715949,178.74919421831146 83.5231331171235,178.14505185672897 80.72889610403217,178.7114353486395 77.83603896119166,177.61642650826252 75.43628246767912,177.805221359391 71.35998376633506,175.72847287659533 70.83400974038523,174.74673330882797 68.50000000011642,173.8405099347292 66.72483766253572,173.53843500008225 62.714285714318976,174.52017766638892" stroke="#4dd2ff" stroke-linecap="round" stroke-linejoin="round" stroke-width="0.5"><title>2021-04-08 1.4km</title></polyline><polyline fill="none" points="111.42115027830005,177.75235782240634 111.57142857136205,178.5463806631451 109.6178107606247,178.58090335456654 104.448237476754,176.82024175437982 96.63376623368822,176.44049005192937 92.51614100171719,174.99052521688282 88.42857142852154,175.61193945314153 92.30575139133725,175.1631403931824 96.42337662330829,176.40596714953426 104.08756957331207,176.7511960209522" stroke="#4dd2ff" stroke-linecap="round" stroke-linejoin="round" stroke-width="0.5"><title>2021-04-06 1.3km</title></polyline><polyline fill="none" points="121.21043627033941,173.3106607530499 124.12061591097154,172.4017847928917 125.32164242956787,173.36412399582332 125.32164242956787,174.37992457667133 124.53635585983284,174.80762949713971 125.9221556885168,176.30459397862433 127.35414884495549,176.4649827774847 129.20188195025548,175.60957528511062 131.28058169363067,172.9898811817984 133.12831479893066,173.68490333872614 134.65269461087883,172.7760280255461 137.2395209579263,173.09680772718275 137.2395209579263,169.83553830580786 136.9623609923292,171.8136877460638 135.43798118061386,171.5463706891751 137.28571428568102,171.8671511412249 137.19332763040438,173.25719750468852 133.2207014542073,173.63144012837438 131.28058169363067,172.93641790095717 128.13943541492335,176.89268600166542 128.87852865690365,176.25113103486365 125.41402908461168,176.19766808568966 124.72112917015329,175.02148182695964 125.73738237819634,175.02148182695964 125.6449957229197,174.48685083934106 124.44396920432337,172.34832145209657 123.93584260041825,173.09680772718275 122.91958939260803,172.9898811817984 121.62617621873505,175.7699642960215 117.33019674918614,178.01540530950297 115.94439692026936,180.5816118667717 115.75962360971607,178.60349541861797 115.39007698860951,181.11623665632214 115.06672369525768,179.94006140186684 115.39007698860951,180.74199936079094 115.11291702277958,180.04698653373634 117.00684345583431,181.00931174191646 118.53122326754965,183.3081926088198 120.51753635564819,183.14780589792645 121.07185628730804,182.02509755053325 119.87082976894453,181.49047368543688 120.93327630450949,181.49047368543688 120.42514970060438,182.13202225847635 119.96321642398834,181.70432329678442 120.51753635564819,182.34587160876254 120.65611633867957,181.8112480698037 120.88708297675475,183.04088139667874 120.10179640701972,183.7358902656706 117.56116338726133,183.52204148081364 115.20530367805623,180.74199936079094 115.6210436266847,178.33618181425845 115.89820359251462,180.26083673210815 114.14285714295693,181.2766239870689 114.65098374686204,180.42122432397446 114.32763045327738,181.49047368543688 115.6210436266847,180.5816118667717 115.80581693747081,178.22925633442355" stroke="#4dd2ff" stroke-linecap="round" stroke-linejoin="round" stroke-width="0.5"><title>2021-04-05 1.9km</title></polyline><polyline fill="none" points="158.05753830133472,182.874352177736 157.15000116999727,183.33125652201124 157.50512439524755,182.78297119712806 158.13645457371604,182.78297119712806 158.2745580500923,182.39460161403986 157.56431159959175,186.62094031469314 156.04517335782293,187.7174908529705 155.9662570854416,188.35714285714494 155.90706988133024,187.7174908529705 157.62349880381953,186.68947488044796 158.19564177794382,184.45066823037632 158.59022313938476,180.88680744508747 157.603769735666,180.17859759292332 155.47303038369864,179.7902234983776 154.2103700269945,180.77258020092268 151.56667490513064,181.5264789370558 146.75278229499236,184.4278231493081 145.88470329972915,183.0342688041419 144.87852082808968,183.468327643699 144.405023194151,183.28556612947432 141.64295366383158,171.4285945227457 141.48512111930177,169.25817536185787 142.8858849524986,175.6094479951571 143.3199244501302,175.79221576709824 148.39029494510032,173.48476171219954 152.29665042378474,172.22821733748424 154.74305486492813,170.8574336230231 158.17591270979028,168.09299430117244 160.2080067214556,165.21428571428987 161.3720217377413,165.80830797379895 161.23391826124862,165.99108373692434 160.76042062754277,165.83115495233505 161.03662758052815,165.60268506214197 161.03662758052815,165.96823677470093 161.1550019889837,165.3513679139287 160.48421367444098,165.55699105607346" stroke="#4dd2ff" stroke-linecap="round" stroke-linejoin="round" stroke-width="0.5"><title>2021-04-05 3.7km</title></polyline><polyline fill="none" points="171.41121495328844,168.39462557143997 175.0881174900569,171.31691999925533 178.116154873278,179.74976831802633 178.1882510012947,184.00790626066737 179.84646194940433,183.67393545759842 181.5046728970483,185.17680299998028 185.25367156229913,182.42154373251833 188.71428571408615,183.3399645179743 181.64886515354738,181.67010777798714 181.64886515354738,184.4253695734078 182.00934579456225,180.58469907118706 181.86515353806317,184.5923548389692 182.08144192257896,183.256471761968 179.1975967953913,183.84092087624595 181.14419225649908,182.58852940646466 182.15353805059567,184.4253695734078 180.35113484645262,183.256471761968 181.64886515354738,182.92250065220287 181.36048064101487,184.50886221032124 182.15353805059567,184.50886221032124 181.2162883845158,182.83900785335572 182.87449933215976,184.92632526782108 181.2162883845158,183.4234572655405 181.36048064101487,182.0875722822966 182.58611482009292,184.00790626066737 181.43257676903158,182.1710651575122 179.48598130838946,182.0875722822966 178.6208277703263,184.25838427391136 178.83711615484208,183.17297899740515 175.1602136180736,180.41771298879758 176.60213618166745,175.07414037082344 175.1602136180736,175.65859532402828 175.23230974655598,173.48776053875918 170.97863818425685,171.14993202721234 165.57142857136205,171.6508958415361 168.59946595458314,172.73631638777442 169.6088117491454,175.57510178466327" stroke="#4dd2ff" stroke-linecap="round" stroke-linejoin="round" stroke-width="0.5"><title>2021-04-04 1.4km</title></polyline><polyline fill="none" points="25.57222665590234,193.21176692296285 18.39664804446511,196.479372379079 11.479648842709139,204.49979834334226 18.00877893064171,211.70325620594667 21.822825219482183,207.39604226738447 26.283320032060146,205.53947693196824 26.412609736900777,203.0888036757242 30.549880287144333,200.04401669459185 24.473264165921137,192.32059933588607 19.366320830071345,195.73673602141207 11.285714285681024,204.94537505722838 17.87948922580108,210.88637269829633 21.75818036706187,206.3563662438537 28.093375897733495,205.31668878381606 29.96807661629282,203.90569564787438 30.937749401433393,200.1925431745476 30.679169991984963,199.52417378337122 29.903431763872504,201.00943829055177 27.64086193125695,202.12338474742137 27.576217079069465,201.4550170711591 34.42857142863795,196.92495384201175 31.907422186806798,195.58820866193855 29.256983240135014,192.32059933588607 27.77015163586475,194.771307660616 23.245011971332133,192.84044722322142 14.324022346176207,200.86091197177302 11.544293694896623,204.79684951528907 18.00877893064171,210.88637269829633 21.822825219482183,206.8762044351315 22.404628890566528,207.32177974196384 20.788507581688464,209.54965231835376 29.644852354191244,211.4062077603885 32.48922585812397,214.82225780701265 26.47725458885543,203.8314327778644 27.12370311259292,201.82633252005326 30.291300878161564,199.1528571987874 26.800478850724176,196.9992173934006 24.861133279977366,193.28603084088536 23.503591380780563,192.76618326135213 22.339984038146213,193.58308643935015 22.92178770969622,194.1029334545019" stroke="#4dd2ff" stroke-linecap="round" stroke-linejoin="round" stroke-width="0.5"><title>2021-04-02 3.1km</title></polyline><polyline fill="none" points="51.19756838912144,212.51514048103127 48.48936170223169,211.5724906459218 43.3806990882149,211.47822545784584 37.84118541039061,210.7476689893665 37.36930091190152,210.2999074691179 37.0,208.06108728041 37.53343465051148,207.63688740693033 38.64133738609962,207.5897540410806 37.63601823721547,204.45536434742098 37.8822188450722,200.2132676933834 39.42097264446784,198.0214882412256 40.03647416422609,196.53672299339087 42.97036474163178,194.50988569394394 44.16033434658311,195.80612083282904 45.268237082171254,196.0417991932336 45.842705167247914,196.72526512366312 48.26367781159934,196.72526512366312 51.99772036483046,197.31445832175086 53.803191489423625,198.25716441609256 56.79863221885171,200.92028903351456 59.62993920966983,205.8222461122059 59.71200607903302,206.45855047300574 59.05547112459317,207.0241529265768 58.788753799395636,207.9196874062327 59.363221884472296,207.89612075241166 60.14285714295693,209.89927802911552 59.62993920966983,210.95976625877665 57.84498480241746,211.2896949701826 57.41413373860996,211.83171972133277 56.40881458960939,211.33682760599186 55.97796352591831,211.52535805653315 54.91109422489535,211.19542967055168 54.39817629172467,212.63297144891112 54.23404255323112,212.46800807760155" stroke="#4dd2ff" stroke-linecap="round" stroke-linejoin="round" stroke-width="0.5"><title>2021-04-02 3.2km</title></polyline><polyline fill="none" points="65.13906782888807,201.61477394215763 72.96589617291465,205.1050262322533 77.20159151195548,205.06977132891188 79.7798408488743,205.66910421149805 83.24820007593371,204.8229869088682 85.85714285715949,204.85824183633667 79.96400151576381,205.6338493639778 77.38575217896141,205.03451642225264 73.21144372876734,205.24604581054882 67.80939749919344,203.69482738969964 62.714285714318976,201.47375293137156" stroke="#4dd2ff" stroke-linecap="round" stroke-linejoin="round" stroke-width="0.5"><title>2021-04-01 1.4km</title></polyline><polyline fill="none" points="88.42857142863795,200.65650893500424 91.04208557400852,203.31040054565528 94.1101239186246,203.96299439755967 97.70844049588777,205.8337580889056 102.6324526539538,205.7467460001062 105.35959784896113,206.48634820783627 111.57142857159488,205.7467460001062 107.2155716624111,206.39933624776313 101.95066635496914,205.6162278347765 97.25391629664227,205.8337580889056 90.20879120891914,203.91948817073717 89.4891278934665,203.52793193684192 90.32242225878872,203.1798816593655" stroke="#4dd2ff" stroke-linecap="round" stroke-linejoin="round" stroke-width="0.5"><title>2021-03-29 1.2km</title></polyline><polyline fill="none" points="125.29225828661583,215.1428571428405 124.21374374884181,209.06122434331337 123.46347276563756,208.84594406792894 119.80590172461234,203.57155087549472 117.3675210303627,203.35626844118815 124.96401473134756,192.0 127.49617929849774,193.56082811160013 132.46672455966473,198.62003346602432 131.95091325906105,202.2260342721711 134.06105039827526,214.6046622749418 127.35550348926336,210.13762444985332 124.91712279478088,209.6532446637866 124.6826631128788,210.67582370952005" stroke="#4dd2ff" stroke-linecap="round" stroke-linejoin="round" stroke-width="0.5"><title>2021-03-28 1.4km</title></polyline><polyline fill="none" points="151.14373626373708,199.379507933103 152.46109890099615,200.15655635067378 152.78153846156783,199.502199885319 154.06329670338891,199.42040525449556 154.34813186828978,198.76604762728675 154.73978021973744,199.21591860699118 155.34505494497716,198.76604762728675 157.23208791203797,199.82937824717374 158.3358241757378,199.01143185855472 161.57582417572848,199.9929673311126 161.36219780240208,199.17502126528416 162.89318681322038,199.33861060769414 161.75384615384974,198.92963713093195 162.0386813187506,198.2752787291247 162.1098901098594,199.17502126528416 161.931868131971,198.76604762728675 161.5402197802905,199.2977132780943 161.6114285713993,198.6433554571413 162.1098901098594,199.33861060769414 161.57582417572848,199.17502126528416 162.64395604399033,199.05232921626884 162.64395604399033,199.46130257184268 162.1810989009682,198.88873976102332 161.43340659351088,199.2977132780943 162.92879120865837,199.05232921626884 162.46593406586908,198.68425285126432 162.32351648341864,199.91117279726313 161.68263736274093,199.379507933103 161.6114285713993,199.82937824717374 162.50153846130706,199.25681594459456 162.1098901098594,199.2977132780943 163.0,200.40193975897273 162.89318681322038,199.21591860699118 162.35912087908946,199.2977132780943 162.64395604399033,199.87027552415384 161.86065934062935,200.1156591019244 161.75384615384974,199.66578909853706 161.32659340649843,200.2792480729695 159.83120879111812,200.07476184910047 159.83120879111812,199.25681594459456 160.1872527471278,206.29109799026628 156.16395604400896,207.1908231319685 152.88835164834745,206.12751139121247 153.1375824175775,206.65916760251275 152.1406593406573,206.12751139121247 146.37274725269526,205.84123468736652 143.48879120894708,206.7000642058556 143.2395604394842,208.17233924171887 142.56307692313567,208.70399283096776 140.24879120872356,208.86757841374492 139.85714285704307,208.21323569581727" stroke="#4dd2ff" stroke-linecap="round" stroke-linejoin="round" stroke-width="0.5"><title>2021-03-26 1.5km</title></polyline><polyline fill="none" points="168.01742160297,202.1049270813528 175.3554006969789,205.09968118922552 177.9357889498351,204.91443949838867 180.1936286711134,205.40841709711822 183.4459930313751,204.76007133896928 184.73618715780322,204.91443949838867 188.71428571431898,203.49424955999712 185.19313091097865,204.91443949838867 180.65057242417242,205.28492277048645 178.25833748141304,204.79094497693586 175.59731209580787,205.0070603575441 169.87207565957215,203.61774459303706 165.57142857147846,201.7344400457223" stroke="#4dd2ff" stroke-linecap="round" stroke-linejoin="round" stroke-width="0.5"><title>2021-03-26 1.6km</title></polyline><polyline fill="none" points="34.42857142863795,232.4106391070818 32.66044142609462,232.18498113565147 30.027892311336473,230.51510868754121 27.788260974921286,230.56024045555387 24.566335192648694,229.29654927147203 16.70797962625511,229.52220866747666 17.886732961283997,230.10892257612431 17.41523162741214,230.24431798659498 11.285714285681024,228.30364660720807 16.236478292383254,230.19918618747033 23.26970652421005,230.6505039780459 29.28134853253141,232.09471791583928" stroke="#4dd2ff" stroke-linecap="round" stroke-linejoin="round" stroke-width="0.5"><title>2021-03-24 1.1km</title></polyline><polyline fill="none" points="60.14285714284051,232.0546736579854 58.47631987568457,231.94632111437386 56.84122670814395,230.71832337975502 54.2313664596295,230.28491143131396 52.09316770185251,229.3097326720599 45.55279503110796,229.4542037631618 46.118788819992915,230.0682052647462 40.99340062122792,228.65961205630447 37.0,229.16526152385632 38.57220496889204,229.38196822468308 41.119177018641494,228.6957298986381 45.83579192555044,230.14044066795032 54.42003105592448,230.50161746965023" stroke="#4dd2ff" stroke-linecap="round" stroke-linejoin="round" stroke-width="0.5"><title>2021-03-23 1.3km</title></polyline><polyline fill="none" points="85.39551671722438,231.5059956831974 77.60942249232903,228.7841083787207 74.43958966562059,229.31434778639232 71.30053191480692,228.96085493505234 72.16223404253833,229.52644332990167 71.823708206648,229.63249105465366 66.86892097245436,228.14782005373854 62.714285714318976,228.74875905684894 66.56117021269165,228.21851881232578 71.20820668688975,229.5617925749102 77.3632218844723,229.98598324356135 85.85714285715949,232.56646566055133 84.472264437587,231.89483503918746 85.85714285715949,231.5059956831974" stroke="#4dd2ff" stroke-linecap="round" stroke-linejoin="round" stroke-width="0.5"><title>2021-03-22 1.6km</title></polyline><polyline fill="none" points="108.13629904889967,218.9288253129198 108.45502240664791,219.1523246364377 108.27795387466904,219.86345724125567 109.88927751663141,220.10727357154246 110.31424199347384,220.4526795476122 110.1725871678209,221.08253601926845 110.81003388331737,221.50921189438668 111.57142857136205,222.82986973981315 111.11105038784444,224.04893103739596 110.43818996602204,224.33337763986492 110.19029402115848,225.06480996473692 106.91452617757022,227.90924442376127 103.30232812312897,229.3111298778531 102.16908951778896,230.04254460487573 101.3014537106501,230.7739567461831 98.76937370188534,234.2684457350406 88.42857142852154,241.78546040135552" stroke="#4dd2ff" stroke-linecap="round" stroke-linejoin="round" stroke-width="0.5"><title>2021-03-21 1.3km</title></polyline><polyline fill="none" points="124.63369347830303,228.34655612187635 124.33994024910498,226.4681330274907 122.32563239196315,223.96354649352725 121.50731982500292,223.72271951571747 118.73764652118552,226.25139097425563 115.98895559110679,229.7433229310991 115.29653726518154,229.93597979696642 114.5411718187388,231.98294963951048 115.82109660306014,233.81316701477044 118.86354076233692,235.25806581016514 122.15777340380009,237.9311061151966 121.9689320421312,238.07559394951386 122.40956188598648,238.02743134753837 122.01089678937569,237.81069952159305 122.51447375351563,238.65354443434626 123.62653954967391,239.9780091530556 127.84399662574288,241.9285714285652 130.02616347104777,241.71184305369388 135.16684498160612,238.1237565419724 135.85926330764778,236.67887464862724 136.88739960978273,232.05519532147446 135.85926330764778,230.27312894770876 132.01948895480018,226.7330397209589 127.86497899936512,221.50710020892438 124.78057009284385,218.78571428571013 121.31847846333403,223.60230593796587 121.94794966874178,223.67455409171816 122.80822698271368,224.46928237644897 124.48681686376221,226.61262762307888 124.46583449025638,227.28693460885552" stroke="#4dd2ff" stroke-linecap="round" stroke-linejoin="round" stroke-width="0.5"><title>2021-03-20 3.7km</title></polyline><polyline fill="none" points="160.7199155522976,236.18444657346117 152.8156228007283,233.6527601929265 144.45531315985136,233.3908607751655 139.9711470794864,232.43056158415857 139.85714285704307,230.85915841310634 140.50316678383388,230.16075521256425 139.8951442646794,228.98219731246354 140.0471498942934,226.93062607294996 142.4412385642063,224.5298391408287 146.39338494022377,225.0099975692574 150.42153413081542,226.36316851896117 158.02181562269107,226.18856604839675 162.08796622091904,225.53380616972572 162.58198451786302,224.9663468245417 161.85995777626522,226.6250720959215 161.4039408864919,232.2559615074424 161.78395496145822,235.1368539656687 163.0,235.3551026301575" stroke="#4dd2ff" stroke-linecap="round" stroke-linejoin="round" stroke-width="0.5"><title>2021-03-19 1.6km</title></polyline><polyline fill="none" points="174.95028173702303,230.12072870226984 179.97978123975918,232.27938580149203 181.93072588683572,232.15603456941608 183.6310904873535,232.52608804662304 185.42094796162564,232.13547602368635 186.36957242304925,232.21771019458538 188.71428571431898,231.51871870773903 184.3649320518598,232.5055295373022 182.12761020904873,232.15603456941608 179.6218097449746,232.2588272678986 169.6165064634988,229.07223004521802 165.57142857147846,228.64049377107585 166.44845873396844,228.76384708344995 165.85780576744583,228.51714038562204 166.03679151483811,228.41434584201488 167.39708319527563,228.49658148099843 169.2048392443685,228.18819766766683 169.8133907855954,228.64049377107585 170.1713622804964,228.41434584201488 170.60092807433102,228.8255237123376 170.97679814393632,228.70217043644516 171.4600596621167,229.11334773898125 172.0686112033436,228.88720032288984 173.32151143532246,229.79178851486358 173.57209148164839,229.48340661777183 172.92774279101286,228.51714038562204 172.67716274457052,228.5376992882957 172.76665561820846,229.23670077153656 173.93006297654938,229.8123472918087 174.41332449461333,228.66105266156956 174.6818031158764,229.2161419378681 175.03977461066097,229.1544654245663 174.66390454105567,229.25725960324053 174.87868743797299,229.19558310210414 174.359628770384,228.476022574323 175.12926748441532,228.41434584201488" stroke="#4dd2ff" stroke-linecap="round" stroke-linejoin="round" stroke-width="0.5"><title>2021-03-19 3.1km</title></polyline><polyline fill="none" points="21.024451104167383,268.7142857142899 20.89447296562139,268.3111823581712 20.64751450251788,268.2663930301205 20.28357571462402,268.6097775398521 20.725501385575626,266.0866297137254 20.556529805471655,266.6987581984722 20.63451668858761,267.81849902059184 20.3875582254841,268.01258658744337 18.983794329571538,267.98272697796347 18.814822749467567,267.0869359548524 18.9318030741415,266.29564947469044 22.33723030309193,265.5342189560906 24.624845540849492,265.38491840529605 24.546858657733537,250.9468593448837 25.313729674962815,249.9613779993815 26.8994629647932,248.55780257820152 26.6135110600153,247.84107819234487 24.67683679627953,245.5714285714348" stroke="#4dd2ff" stroke-linecap="round" stroke-linejoin="round" stroke-width="0.5"><title>2021-03-18 2.7km</title></polyline><polyline fill="none" points="44.84892409807071,266.80458071372414 45.49684770102613,266.9169170111127 45.59464749012841,267.4645551914873 45.83914696291322,267.60497489839327 47.15944411599776,267.8717719600245 48.87094042560784,267.717310564185 50.056762868654914,268.0543170298479 51.157010496244766,268.7142857142899 51.43818488990655,267.8296461413847 51.27926023263717,264.08039836384705 52.2939330447698,263.98210215002473 50.83916118158959,263.57487425531144 49.43328921298962,263.50466243161645 48.809815557382535,262.8306271619949 47.57509321975522,250.0654816529859 48.91984032012988,248.4925792178692 49.8733882640372,247.94486803916516 49.18878974020481,246.72304319788236 48.0151922708028,245.5714285714348" stroke="#4dd2ff" stroke-linecap="round" stroke-linejoin="round" stroke-width="0.5"><title>2021-03-17 2.8km</title></polyline><polyline fill="none" points="63.49392097280361,255.89391371404054 63.78115501534194,255.89391371404054 65.21732522826642,256.5066148660262 65.6276595746167,257.02505368881975 69.89513677824289,258.20332164887805 74.40881458972581,258.81601984013105 75.92705167178065,258.72175863123266 76.99392097280361,258.9574116189906 77.52735562319867,259.1459339254652 79.66109422501177,259.4758477830619 81.42553191492334,260.18280528255855 82.0,260.32419665690395 82.9848024318926,260.84263133845525 83.805471124826,261.3610654574586 84.13373860204592,261.4553261459805 84.50303951394744,261.64384746726137 85.40577507624403,261.87949901423417 85.8571428572759,261.83236871418194 85.81610942282714,261.83236871418194 85.81610942282714,261.83236871418194 85.69300911878236,261.87949901423417 85.77507598814555,261.83236871418194 85.81610942282714,261.83236871418194 85.8571428572759,261.87949901423417 85.61094224941917,261.83236871418194 85.0775075990241,261.83236871418194 83.2720364741981,261.87949901423417 82.04103343491443,261.50245648334385 80.85106382984668,261.2668047504267 79.66109422501177,261.1725440247974 78.47112462017685,261.2196743898385 77.85562310065143,261.2668047504267 76.66565349558368,261.3610654574586 76.13221884495579,261.3610654574586 74.28571428591385,261.2196743898385 73.7112462008372,261.0782832803379 72.60334346513264,260.79550093601574 72.02887538005598,260.51271842437563 70.92097264458425,260.13567481495556 70.3465045595076,259.9471528988797 68.00759878428653,259.4758477830619 66.48936170223169,258.86315043776995 66.36626139841974,258.58036678266944 66.85866261413321,258.4861055270885 67.06382978730835,258.4861055270885 67.22796352603473,258.29758296033833 67.06382978730835,258.2504523069074 66.65349544072524,258.1561909862794 66.4483282675501,258.10906031905324 66.32522796373814,258.06192964711227 66.07902735588141,258.06192964711227 65.91489361715503,257.9676682892605 65.70972644397989,257.9676682892605 65.50455927057192,257.9676682892605 65.21732522826642,257.87340691289864 65.01215805485845,257.7791455179686 64.88905775081366,257.7320148134604 64.47872340446338,257.49636122150696 64.3556231004186,257.4020997521002 64.15045592724346,257.2607075131382 64.02735562319867,257.1664459973981 63.90425531938672,257.02505368881975 63.74012158066034,256.83653054561 63.45288753812201,256.60087651206413 63.20668693026528,256.45948403605144 63.083586626220495,256.36522236216115 62.87841945304535,256.1295680962212 62.796352583682165,255.70539012463996 62.796352583682165,255.32834272275795 62.7553191492334,255.0926879454055 62.714285714318976,254.9041640399373 62.83738601836376,254.5271160059492 62.796352583682165,254.00867447335622 62.796352583682165,253.77301904538763 62.7553191492334,253.63162573272712 62.83738601836376,253.49023237838992 62.796352583682165,253.4431012510031 62.83738601836376,253.1131832288229 62.87841945304535,252.87752735917456 63.083586626220495,252.8303961713682 63.49392097280361,252.68900257983478 63.69908814597875,252.59474016228341 63.82218845002353,252.54760894659557 64.06838905788027,252.45334650125005 64.10942249256186,252.45334650125005 64.10942249256186,252.40621527150506 64.15045592724346,252.40621527150506" stroke="#4dd2ff" stroke-linecap="round" stroke-linejoin="round" stroke-width="0.5"><title>2021-03-02 1.4km</title></polyline><polyline fill="none" points="92.68039867118932,257.4828915896942 92.94950166135095,257.60652762424434 95.90963455149904,258.1628894788446 97.79335548193194,258.8428866302129 98.49302325583994,259.15197600075044 100.37674418604001,259.6465186763671 101.07641195994802,259.6465186763671 103.06777408649214,259.52288304426474 103.71362126246095,259.3374295498361 105.7049833885394,259.21379385649925 106.94285714277066,259.6465186763671 107.5887043189723,259.89378986804513 108.71893687732518,260.3265142185264 109.7953488372732,260.51196742011234 111.14086378738284,260.3883319586166 111.35614617913961,260.26469647255726 111.57142857136205,260.3883319586166 111.51760797342286,261.25377967813984 110.54883720935322,261.5010502357036 109.741528239334,262.1810437658569 109.36478405306116,262.3046788741485 108.98803986702114,262.4283139578183 108.77275747503154,262.4283139578183 108.44983388693072,262.4901314903982 108.23455149517395,262.6137665374554 107.48106312286109,262.9228540487238 107.5887043189723,263.2319414073718 107.96544850501232,263.47921118466184 107.96544850501232,263.5410286138649 107.96544850501232,263.60284603672335 108.01926910295151,263.5410286138649 107.75016611302271,263.47921118466184 107.4272425249219,263.60284603672335 107.31960132904351,263.6646634535282 107.21196013269946,263.72648086445406 107.15813953476027,263.7882982690353 107.15813953476027,263.7882982690353 106.94285714277066,263.47921118466184 106.83521594689228,263.3555763082113 106.67375415260904,263.1701239479007 106.61993355466984,263.0464890105068 106.08172757481225,262.9228540487238 105.86644518258981,262.9228540487238 105.59734219266102,262.9228540487238 105.32823920273222,262.86103655869374 105.0053156146314,262.86103655869374 104.7362126247026,262.86103655869374 104.19800664461218,262.7374015604146 103.92890365445055,262.6755840519909 103.65980066475458,262.6137665374554 103.39069767436013,262.5519490170409 102.85249169450253,262.4283139578183 102.6372093022801,262.3046788741485 102.3681063123513,262.2428613230586 102.0990033224225,262.119226202718 101.82990033202805,261.99559105804656 101.61461794027127,261.8101382954046 101.13023255812004,261.5628678597277 100.64584717596881,261.31559732655296 100.26910299016163,260.9446913438733 99.99999999976717,260.82105596771 99.73089700983837,260.69742056692485 99.4617940201424,260.5737851418671 99.19269102974795,260.4501496924204 99.0312292361632,260.3883319586166 98.60066445195116,260.20287872024346 98.38538205996156,260.1410609620507 98.17009966773912,260.0792431976297 97.95481727574952,259.9556076506851 97.68571428582072,259.89378986804513 97.4166112956591,259.83197207935154 96.82458471762948,259.77015428437153 96.60930232563987,259.70833648351254 96.34019933547825,259.6465186763671 96.01727574737743,259.6465186763671 95.80199335538782,259.58470086334273 95.2637873752974,259.52288304426474 94.9946843853686,259.3992473874241 94.51029900321737,259.028340270801 93.97209302335978,258.8428866302129 93.75681063137017,258.78106873785146 93.48770764144138,258.7192508394364 93.16478405334055,258.6574329348514 92.94950166135095,258.59561502427096 92.68039867118932,258.47197918442544 92.19601328903809,258.22470743209124 91.9269102991093,258.1010715193115 91.71162790688686,257.9774355820846 91.17342192702927,257.6683456324972 91.01196013297886,257.54470960999606 90.79667774075642,257.4210735632223 90.31229235883802,257.1119833391858 90.09700996684842,256.9265291317133 89.82790697668679,256.55562055198243 89.45116279064678,256.1228935983381 88.80531561467797,255.62834814260714 88.80531561467797,255.4428934963653 88.69767441879958,255.13380229682662 88.59003322292119,254.8865292276023 88.42857142863795,254.08289107889868 88.59003322292119,253.77379920892417 88.64385382062756,253.464707186562 88.69767441879958,253.21743345883442 88.7514950169716,253.03197809914127 88.7514950169716,252.72288571088575 88.7514950169716,251.91924478829606 88.7514950169716,251.36287739221007 89.34352159476839,251.11560283537256 89.7740863787476,250.8683281810372 90.15083056502044,250.74469081725692 90.41993355494924,250.68287212622818 90.52757475082763,250.55923472589348 91.28106312290765,250.49741601670394" stroke="#4dd2ff" stroke-linecap="round" stroke-linejoin="round" stroke-width="0.5"><title>2020-12-25 1.0km</title></polyline><polyline fill="none" points="114.4908700324595,254.46970547479577 114.75187969952822,254.71953398990445 114.9693877552636,254.96936238187482 115.4479054780677,255.26915628972347 117.31847475841641,255.76881240849616 118.31901181535795,256.06860584329115 118.97153598302975,256.2185024942446 122.01664876495488,257.4176741045958 122.88668098836206,258.0172588455607 123.8872180453036,258.4669469354558 125.36627282504924,259.0165651703137 125.93179377028719,259.11649569429574 126.97583243856207,259.11649569429574 127.5848549946677,259.11649569429574 128.62889366270974,258.91663462657016 129.5859291087836,258.8167040629196 130.67346938792616,258.8666693471896 131.28249194426462,258.8167040629196 132.97905477997847,259.11649569429574 133.54457572521642,259.31635668332456 134.63211600435898,259.5162175935693 135.2411385611631,259.46625237332773 136.32867884030566,259.416287148284 136.80719656310976,259.3663219183218 137.28571428591385,259.56618280886323 137.24221267458051,259.6161480190931 137.11170784151182,259.6661132244044 137.06820623017848,259.7160784249427 137.06820623017848,259.7660436203878 137.02470461884513,259.7160784249427 136.93770139664412,259.81600881091435 136.93770139664412,259.7160784249427 136.98120300797746,259.7660436203878 137.02470461884513,259.81600881091435 136.98120300797746,259.7660436203878 137.06820623017848,259.6661132244044 137.02470461884513,259.6661132244044 136.98120300797746,259.6661132244044 136.98120300797746,259.7160784249427 136.98120300797746,259.6661132244044 136.98120300797746,259.6661132244044 136.98120300797746,259.6661132244044 136.98120300797746,259.7160784249427 136.93770139664412,259.7160784249427 136.93770139664412,259.7160784249427 136.89419978531078,259.7160784249427 136.8506981744431,259.7160784249427 136.93770139664412,259.7160784249427 136.93770139664412,259.7160784249427 136.93770139664412,259.7160784249427 136.89419978531078,259.7160784249427 136.89419978531078,259.7660436203878 136.80719656310976,259.7160784249427 135.80665950616822,259.7160784249427 134.67561761569232,259.7160784249427 133.54457572521642,259.46625237332773 133.0225563913118,259.31635668332456 131.93501611193642,259.0165651703137 131.36949516669847,258.91663462657016 130.19495166488923,258.91663462657016 129.6294307198841,258.8666693471896 128.4548872183077,258.96659990079934 127.23684210539795,259.11649569429574 126.67132116039284,259.11649569429574 125.49677765881643,259.066530434764 124.88775510224514,258.91663462657016 122.14715359848924,258.0172588455607 121.58163265325129,257.81739734398434 119.97207303997129,257.4176741045958 119.53705692803487,257.3677086775424 117.79699248145334,257.0679160114378 116.79645542427897,256.61822667971137 116.23093447927386,256.318433570239 115.1433942001313,255.71884681881056 114.14285714295693,255.3690875529137" stroke="#4dd2ff" stroke-linecap="round" stroke-linejoin="round" stroke-width="0.5"><title>2020-12-08 1.1km</title></polyline><polyline fill="none" points="139.85714285704307,254.75732605491066 140.07967032957822,254.79992505762493 141.56318681291305,255.9500965391926 142.04532967018895,256.12049205377116 143.9368131866213,256.6742770120618 144.8269230767619,256.9298698302882 145.27197802183218,257.1002649583097 146.31043956032954,257.48365375094 147.2376373624429,257.9522395907843 147.7197802197188,258.2504303151509 150.09340659319423,259.0598041006888 150.61263736267574,259.1024026789237 152.09615384601057,258.93200834063464 152.54120879108086,258.8894097454613 154.8777472525835,258.93200834063464 155.35989010962658,258.9746069314715 156.80631868122146,259.40059260939597 158.28983516455628,259.52838823079946 158.73489010962658,259.485789694445 159.69917582417838,259.52838823079946 161.1826923075132,259.3153955073212 161.6277472525835,259.2727969500702 162.5549450549297,259.18759982287884 162.99999999976717,259.14500125305494 162.81456043943763,258.8042125427164 161.77609890094027,258.7616139349702 161.33104395586997,258.8042125427164 160.4038461537566,259.0598041006888 160.07005494483747,259.14500125305494 159.1057692305185,259.3579940604395 158.6607142854482,259.40059260939597 157.73351648333482,259.40059260939597 157.25137362629175,259.3153955073212 156.32417582394555,259.14500125305494 155.8791208791081,259.0172055181174 154.4326923075132,258.7616139349702 153.95054945047013,258.7616139349702 152.98626373615116,258.8042125427164 152.46703296666965,258.8042125427164 151.5027472525835,258.8894097454613 150.53846153826453,258.93200834063464 149.61126373615116,258.8894097454613 148.72115384601057,258.6764167070214 148.27609890094027,258.54862083363696 147.31181318685412,258.2504303151509 146.866758241551,258.0800356406835 145.9766483514104,257.78184479873744 144.78983516455628,257.44105501295417 144.45604395586997,257.3984562708938 143.56593406572938,257.18546249720384 142.34203296690248,256.80207344004884 142.00824175821617,256.54648054629797 141.22939560422674,256.12049205377116 140.82142857136205,255.90749764998327" stroke="#4dd2ff" stroke-linecap="round" stroke-linejoin="round" stroke-width="0.5"><title>2020-12-03 1.3km</title></polyline><polyline fill="none" points="188.46981891337782,257.75124980477267 188.6735412471462,258.50003445113543 188.71428571408615,258.7340294107853 188.02162977843545,259.15522004745435 186.84004024113528,259.108421106328 185.21026156912558,258.8276273623633 183.66197183076292,258.17244131377083 183.13229376240633,258.07884323288454 180.11720321909525,256.90886566552217 179.01710261544213,256.72166898686555 177.34657947649248,256.7684681635292 176.20573440613225,256.72166898686555 175.3908450701274,256.72166898686555 174.90191146847792,256.72166898686555 173.80181086505763,256.6280706200632 173.43511066376232,256.581271429779 172.1720321928151,256.4876730349497 171.68309859116562,256.44087383081205 169.9718309857417,256.30047619043035 169.44215291715227,256.20687774042017 168.38279678067192,256.11327927189996 166.99748490937054,255.50488877680618 166.46780684078112,255.3176915445365 165.57142857136205,255.13049423822667 166.59004024113528,255.36449085953063 167.4864185107872,255.7856844868511 168.38279678067192,256.20687774042017 168.91247484879568,256.25367696766625 170.25704225338995,256.3940746219014 170.66448692139238,256.44087383081205 171.72384305810556,256.53447223463445 172.25352112646215,256.581271429779 173.35362173011526,256.581271429779 173.84255533176474,256.6280706200632 174.94265593541786,256.72166898686555 175.43158953706734,256.72166898686555 176.93913480849005,256.7684681635292 177.42806841037236,256.7684681635292 178.16146881273016,256.67486980577814 178.4059356134385,256.67486980577814 178.5689134807326,256.67486980577814 178.73189134779386,256.67486980577814 178.89486921508797,256.67486980577814 179.09859154908918,256.6280706200632 179.3023138830904,256.6280706200632 179.70975855109282,256.67486980577814 179.87273641838692,256.67486980577814 180.23943661968224,256.8152673353907 180.60613682074472,257.002463976969 180.5653923540376,257.09606227008044 180.5653923540376,257.1428614096367 180.52464788709767,257.1428614096367" stroke="#4dd2ff" stroke-linecap="round" stroke-linejoin="round" stroke-width="0.5"><title>2020-11-30 1.0km</title></polyline></svg>