<?xml version="1.0" encoding="utf-8" ?>
<svg baseProfile="full" height="300mm" version="1.1" viewBox="0,0,200,300" width="200mm" xmlns="http://www.w3.org/2000/svg" xmlns:ev="http://www.w3.org/2001/xml-events" xmlns:xlink="http://www.w3.org/1999/xlink"><defs /><rect fill="#222222" height="300" width="200" x="0" y="0" /><text fill="#FFFFFF" style="font-size:12px; font-family:Arial; font-weight:bold;" x="10" y="20">Over 3km Runs</text><text fill="#FFFFFF" style="font-size:4px; font-family:Arial" x="10" y="280">ATHLETE</text><text fill="#FFFFFF" style="font-size:9px; font-family:Arial" x="10" y="290">jdzj</text><text fill="#FFFFFF" style="font-size:4px; font-family:Arial" x="120" y="280">STATISTICS</text><text fill="#FFFFFF" style="font-size:3px; font-family:Arial" x="120" y="285">Number: 25</text><text fill="#FFFFFF" style="font-size:3px; font-family:Arial" x="120" y="290">Weekly: 3.1</text><text fill="#FFFFFF" style="font-size:3px; font-family:Arial" x="141" y="285">Total: 47.1 km</text><text fill="#FFFFFF" style="font-size:3px; font-family:Arial" x="141" y="290">Avg: 1.9 km</text><text fill="#FFFFFF" style="font-size:3px; font-family:Arial" x="167" y="285">Min: 1.0 km</text><text fill="#FFFFFF" style="font-size:3px; font-family:Arial" x="167" y="290">Max: 3.7 km</text><polyline fill="none" points="43.9896103895735,49.35330095136305 44.199999999953434,50.46493292838568 41.46493506501429,50.5132646963757 34.22753246757202,48.04833845613757 23.287272727116942,47.516686072718585 17.522597402567044,45.4867353036243 11.800000000046566,46.356715234403964 17.228051947895437,45.728396550461184 22.992727272678167,47.468354009324685 33.72259740275331,47.95167442932143" stroke="#4dd2ff" stroke-linecap="round" stroke-linejoin="round" stroke-width="0.5"><title>2021-04-06 1.3km</title></polyline><polyline fill="none" points="57.69461077847518,43.134925054211635 61.76886227540672,41.86249870999018 63.45029940130189,43.20977359410608 63.45029940130189,44.63189440732822 62.35089820367284,45.23068129591411 64.29101796401665,47.326431569992565 66.29580838303082,47.55097588838544 68.88263473031111,46.35340539913159 71.79281437117606,42.68583365442464 74.37964071868919,43.658864674158394 76.51377245527692,42.386439235764556 80.13532934128307,42.83553081803257 80.13532934128307,38.26975362806115 79.74730538926087,41.03916284447769 77.61317365267314,40.66491896478692 80.20000000018626,41.11401159770321 80.0706586826127,43.06007650657557 74.50898203579709,43.58401617966592 71.79281437117606,42.61098506132839 67.3952095808927,48.149760402331594 68.42994011985138,47.25158344878582 63.57964071840979,47.17673531989567 62.609580838121474,45.530074557696935 64.03233532956801,45.530074557696935 63.90299401199445,44.78159117506584 62.22155688633211,41.787650032900274 61.510179640492424,42.83553081803257 60.08742514974438,42.68583365442464 58.27664670627564,46.57795001438353 52.26227544876747,49.72156743326923 50.322155688656494,53.314256613492034 50.06347305350937,50.544893586076796 49.54610778414644,54.06273131881608 49.09341317345388,52.41608596255537 49.54610778414644,53.53879910509568 49.15808383212425,52.56578114721924 51.80958083830774,53.91303643863648 53.94371257466264,57.13146965234773 56.72455089795403,56.906928257027175 57.50059880223125,55.335136570676696 55.81916167656891,54.586663159541786 57.306586826220155,54.586663159541786 56.59520958084613,55.48483116179705 55.94850299367681,54.88605261547491 56.72455089795403,55.78422025218606 56.91856287419796,55.03574729769025 57.24191616754979,56.75723395525711 56.14251496968791,57.73024637193885 52.58562874235213,57.430858073115814 49.28742514923215,53.53879910509568 49.86946107749827,50.17065453995019 50.2574850297533,52.86517142492812 47.800000000046566,54.287273581838235 48.51137724542059,53.0897140535526 48.0586826344952,54.586663159541786 49.86946107749827,53.314256613492034 50.128143712412566,50.020958868204616" stroke="#4dd2ff" stroke-linecap="round" stroke-linejoin="round" stroke-width="0.5"><title>2021-04-05 1.9km</title></polyline><polyline fill="none" points="109.28055362205487,56.52409304885077 108.0100016380893,57.163759130839026 108.5071741535794,56.39615967599093 109.39103640336543,56.39615967599093 109.58438127033878,55.85244225966744 108.59003623947501,61.769316440593684 106.46324270113837,63.30448719416745 106.3527599198278,64.20000000001164 106.2698978340486,63.30448719416745 108.67289832537062,61.865264832624234 109.47389848926105,58.73093552252976 110.02631239534821,53.74153042313992 108.64527763007209,52.75003663011012 105.66224253724795,52.206312897760654 103.89451803790871,53.581612281297566 100.1933448673226,54.63707051187521 93.45389521308243,58.69895240906044 92.23858461971395,56.747976325801574 90.82992915937211,57.35565870118444 90.16703247197438,57.099792581255315 86.30013512948062,40.50003233185271 86.07916956709232,37.46144550660392 88.04023893363774,46.35322719323449 88.64789423032198,46.60910207394045 95.74641292332672,43.37866639709682 101.21531059336849,41.61950427247211 104.64027681108564,39.70040707223234 109.4462777938461,35.83019202167634 112.29120941017754,31.800000000017462 113.9208304330241,32.631631163327256 113.72748556593433,32.88751723172027 113.06458887865301,32.66361693327781 113.45127861283254,32.34375908700167 113.45127861283254,32.85553148458712 113.61700278474018,31.991915079503087 112.67789914435707,32.27978747850284" stroke="#4dd2ff" stroke-linecap="round" stroke-linejoin="round" stroke-width="0.5"><title>2021-04-05 3.7km</title></polyline><polyline fill="none" points="127.97570093441755,36.25247579999268 133.12336448580027,40.343687998945825 137.3626168225892,52.14967564528342 137.46355140162632,58.111068764934316 139.78504672879353,57.643509640707634 142.10654205596074,59.74752420000732 147.35514018684626,55.89016122557223 152.1999999997206,57.17595032521058 142.30841121450067,54.83815088914707 142.30841121450067,58.69551740284078 142.81308411248028,53.31857869972009 142.61121495300904,58.92929677455686 142.91401869105175,57.05906046682503 138.87663551373407,57.877289226744324 141.60186915891245,56.12394116912037 143.0149532710202,58.69551740284078 140.4915887848474,57.05906046682503 142.30841121450067,56.59150091314223 141.90467289742082,58.812407094519585 143.0149532710202,58.812407094519585 141.70280373841524,56.47461099480279 144.0242990651168,59.39685537503101 141.70280373841524,57.29284017183818 141.90467289742082,55.4226011952851 143.6205607475713,58.111068764934316 142.00560747645795,55.5394912204938 139.28037383174524,55.4226011952851 138.0691588781774,58.46173798351083 138.37196261668578,56.942170596448705 133.22429906530306,53.08479818433989 135.2429906539619,45.60379651922267 133.22429906530306,46.422033453709446 133.3252336452715,43.38286475429777 127.37009345786646,40.10990483814385 119.79999999981374,40.81125417817384 124.03925233660266,42.33084294293076 125.45233644871041,46.30514249857515" stroke="#4dd2ff" stroke-linecap="round" stroke-linejoin="round" stroke-width="0.5"><title>2021-04-04 1.4km</title></polyline><polyline fill="none" points="175.8011173182167,33.49647369212471 165.75530726229772,38.07112133060582 156.07150838011876,49.29971768066753 165.21229050308466,59.384558688267134 170.5519553073682,53.35445917432662 176.79664804507047,50.75526770472061 176.97765363147482,47.32432514592074 182.76983240200207,43.06162337237038 174.2625698321499,32.24883907020558 167.11284916196018,37.03143042989541 155.79999999981374,49.9235250800848 165.03128491621464,58.24092177755665 170.46145251393318,51.89891274133697 179.33072625705972,50.44336429727264 181.95530726294965,48.46797390701249 183.31284916214645,43.26956044428516 182.95083798887208,42.33384329662658 181.86480446951464,44.41321360669099 178.697206703946,45.97273864632007 178.60670391097665,45.03702389949467 188.20000000018626,38.69493537885137 184.6703910618089,36.823492126655765 180.9597765360959,32.24883907020558 178.87821229035035,35.67983072483912 172.54301675967872,32.97662611247506 160.05363128473982,44.2052767603891 156.16201117262244,49.715589321334846 165.21229050308466,58.24092177755665 170.5519553073682,52.62668620911427 171.36648044688627,53.25049163866788 169.10391061427072,56.369513245648704 181.50279329624027,58.96869086450897 185.484916201327,63.75116092979442 177.06815642444417,48.36400588892866 177.97318435786292,45.55686552799307 182.40782122965902,41.814000078244135 177.52067039115354,38.798904350725934 174.80558659229428,33.60044317715801 172.9050279329531,32.87265656585805 171.27597765345126,34.016321015078574 172.090502793435,34.74410683626775" stroke="#4dd2ff" stroke-linecap="round" stroke-linejoin="round" stroke-width="0.5"><title>2021-04-02 3.1km</title></polyline><polyline fill="none" points="31.676595744793303,111.5211966734496 27.885106383124366,110.2014869042905 20.732978723477572,110.0695156409929 12.977659574593417,109.04673658512183 12.317021276801825,108.41987045676797 11.800000000046566,105.28552219257108 12.546808510785922,104.69164236972574 14.097872340469621,104.62565565752448 12.690425532055087,100.23751008638646 13.03510638314765,94.29857477074256 15.18936170230154,91.23008353772457 16.05106382991653,89.15141219075304 20.158510638400912,86.31383997152443 21.82446808530949,88.1285691659723 23.37553191499319,88.45851887055323 24.179787234170362,89.41537117314874 27.569148936192505,89.41537117314874 32.79680851078592,90.24024165046285 35.324468085193075,91.5600301825325 39.518085106508806,95.28840464691166 43.481914893491194,102.15114455710864 43.59680851059966,103.04197066221968 42.677659574430436,103.83381409721915 42.30425531917717,105.08756236874615 43.108510638354346,105.05456905337633 44.20000000006985,107.85898924077628 43.481914893491194,109.34367276227567 40.98297872347757,109.80557295825565 40.37978723400738,110.5644076098688 38.97234042547643,109.8715586483886 38.36914893623907,110.13550127917551 36.875531914876774,109.6736015387869 36.15744680853095,111.68616002847557 35.927659574430436,111.45521130866837" stroke="#4dd2ff" stroke-linecap="round" stroke-linejoin="round" stroke-width="0.5"><title>2021-04-02 3.2km</title></polyline><polyline fill="none" points="51.19469496048987,96.26068351897993 62.15225464198738,101.14703672513133 68.08222811692394,101.09767986045335 71.69177718833089,101.93674589609145 76.54748010635376,100.75218167237472 80.20000000018626,100.80153857084224 71.94960212218575,101.88738910952816 68.34005305054598,101.04832299111877 62.4960212202277,101.34446413471596 54.93315649894066,99.17275834555039 47.800000000046566,96.06325410390855" stroke="#4dd2ff" stroke-linecap="round" stroke-linejoin="round" stroke-width="0.5"><title>2021-04-01 1.4km</title></polyline><polyline fill="none" points="83.80000000004657,94.91911250900012 87.45891980384476,98.63456076395232 91.7541734862607,99.54819215659518 96.79181669419631,102.16726132447366 103.6854337155819,102.04544440016616 107.50343698868528,103.08088749099988 116.20000000018626,102.04544440016616 110.10180032765493,102.95907074690331 102.7309328969568,101.8627189687104 96.15548281534575,102.16726132447366 86.2923076923471,99.48728343908442 85.28477905108593,98.9391047115787 86.45139116235077,98.45183432311751" stroke="#4dd2ff" stroke-linecap="round" stroke-linejoin="round" stroke-width="0.5"><title>2021-03-29 1.2km</title></polyline><polyline fill="none" points="135.4091616012156,115.20000000001164 133.8992412481457,106.68571408069693 132.84886187198572,106.38432169513544 127.72826241445728,99.00017122569261 124.31452944246121,98.69877581764013 134.94962062384002,82.79999999998836 138.49465101771057,84.98515935626347 145.45341438357718,92.06804685242241 144.73127856268547,97.11644798109774 147.68547055730596,114.44652718491852 138.29770488501526,108.19267422985286 134.88397191278636,107.51454252935946 134.55572835798375,108.94615319336299" stroke="#4dd2ff" stroke-linecap="round" stroke-linejoin="round" stroke-width="0.5"><title>2021-03-28 1.4km</title></polyline><polyline fill="none" points="171.60123076941818,93.13131110637914 173.44553846144117,94.21917889098404 173.89415384619497,93.30307983944658 175.68861538451165,93.18856735632289 176.08738461555913,92.27246667823056 176.63569230749272,92.90228604979347 177.48307692306116,92.27246667823056 180.12492307671346,93.76112954603741 181.67015384626575,92.61600460199406 186.20615384588018,93.99015426356345 185.90707692317665,92.84502977144439 188.05046153836884,93.07405485078925 186.45538461534306,92.50149198336294 186.85415384615771,91.58539022080367 186.95384615380317,92.84502977144439 186.70461538457312,92.27246667823056 186.1563076924067,93.0167985893786 186.25600000005215,92.10069764003856 186.95384615380317,93.07405485078925 186.20615384588018,92.84502977144439 187.70153846149333,92.67326090281131 187.70153846149333,93.2458236006205 187.0535384612158,92.44423566543264 186.0067692308221,93.0167985893786 188.10030769230798,92.67326090281131 187.45230769226328,92.15795399178751 187.25292307697237,93.87564191618003 186.3556923076976,93.13131110637914 186.25600000005215,93.76112954603741 187.5021538459696,92.95954232243821 186.95384615380317,93.0167985893786 188.19999999995343,94.5627156625851 188.05046153836884,92.90228604979347 187.3027692309115,93.0167985893786 187.70153846149333,93.81838573381538 186.60492307692766,94.16192274272908 186.45538461534306,93.53210473794024 185.8572307692375,94.39094730216311 183.7636923075188,94.10466658871155 183.7636923075188,92.95954232243821 184.2621538459789,102.80753718636697 178.62953846156597,104.067152384785 174.04369230754673,102.5785159477382 174.39261538465507,103.32283464353532 172.9969230769202,102.5785159477382 164.92184615368024,102.17772856232477 160.8843076925259,103.38008988823276 160.53538461541757,105.44127493840642 159.5883076924365,106.18558996339561 156.34830769221298,106.41460977925453 155.80000000004657,105.49852997413836" stroke="#4dd2ff" stroke-linecap="round" stroke-linejoin="round" stroke-width="0.5"><title>2021-03-26 1.5km</title></polyline><polyline fill="none" points="15.224390244111419,147.94689791393466 25.497560975840315,152.13955366492155 29.110104529652745,151.88021529777325 32.27108013955876,152.57178393597133 36.82439024397172,151.664099874557 38.63066202099435,151.88021529777325 44.199999999953434,149.8919493840367 39.27038327534683,151.88021529777325 32.91080139367841,152.39889187872177 29.561672474024817,151.7073229677335 25.836236933944747,152.00988450055593 17.820905923377723,150.06484243026352 11.800000000046566,147.42821606399957" stroke="#4dd2ff" stroke-linecap="round" stroke-linejoin="round" stroke-width="0.5"><title>2021-03-26 1.6km</title></polyline><polyline fill="none" points="80.19999999995343,152.87489474989707 77.72461799671873,152.55897358991206 74.03904923587106,150.2211521625286 70.9035653648898,150.28433663776377 66.39286926970817,148.51516897999682 55.39117147680372,148.83109213446733 57.04142614570446,149.65249160653912 56.38132427842356,149.84204518119805 47.800000000046566,147.12510525004473 54.73106960905716,149.77886066242354 64.5775891339872,150.41070556920022 72.99388794554397,152.43260508211097" stroke="#4dd2ff" stroke-linecap="round" stroke-linejoin="round" stroke-width="0.5"><title>2021-03-24 1.1km</title></polyline><polyline fill="none" points="116.19999999995343,152.37654312117957 113.86684782593511,152.2248495600943 111.5777173913084,150.50565273166285 107.92391304345801,149.89887600383372 104.93043478252366,148.53362574087805 95.77391304355115,148.7358852683974 96.56630434794351,149.59548737065052 89.39076086971909,147.62345687882043 83.80000000004657,148.33136613338138 86.00108695635572,148.63475551456213 89.56684782588854,147.6740218580817 96.17010869574733,149.69661693513626 108.18804347817786,150.2022644575336" stroke="#4dd2ff" stroke-linecap="round" stroke-linejoin="round" stroke-width="0.5"><title>2021-03-23 1.3km</title></polyline><polyline fill="none" points="151.55372340418398,151.60839395647054 140.65319148940034,147.79775173019152 136.21542553184554,148.54008690093178 131.82074468093924,148.0451969090791 133.02712765941396,148.83702066188562 132.5531914893072,148.98548747651512 125.61648936150596,146.90694807525142 119.80000000004657,147.7482626796118 125.18563829781488,147.00592633723863 131.69148936169222,148.88650960486848 140.30851063830778,149.48037654097425 152.19999999995343,153.09305192477768 150.26117021264508,152.15276905483915 152.19999999995343,151.60839395647054" stroke="#4dd2ff" stroke-linecap="round" stroke-linejoin="round" stroke-width="0.5"><title>2021-03-22 1.6km</title></polyline><polyline fill="none" points="183.3908186686458,134.00035543809645 183.8370313695632,134.3132544910186 183.58913542469963,135.30884013776085 185.8449885234004,135.65018300019437 186.4399387910962,136.13375136666582 186.2416220352752,137.0155504269933 187.13404743687715,137.61289665216464 188.20000000006985,139.46181763574714 187.55547054321505,141.16850345238345 186.61346595268697,141.56672869581962 186.2664116298547,142.5907339506375 181.68033664883114,146.5729421932774 176.62325937265996,148.53558182899724 175.03672532516066,149.55956244684057 173.82203519518953,150.58353944466216 170.2771231828956,155.47582402906846 155.80000000004657,165.99964456190355" stroke="#4dd2ff" stroke-linecap="round" stroke-linejoin="round" stroke-width="0.5"><title>2021-03-21 1.3km</title></polyline><polyline fill="none" points="26.48717086960096,198.18517857065308 26.07591634884011,195.55538623852772 23.2558853487717,192.04896509094397 22.110247754957527,191.711807322019 18.232705129659735,195.25194736398407 14.38453782745637,200.1406521035533 13.415152171277441,200.4103717157559 12.35764054628089,203.2761294953234 14.149535244214348,205.83843382069608 18.408957067294978,207.86129213424283 23.020882765296847,211.60354856131016 22.756504859076813,211.8058315293456 23.373386640450917,211.73840388658573 22.815255505032837,211.43497933025355 23.520263254991733,212.61496220808476 25.077155369566754,214.4692128142924 30.981595276040025,217.20000000001164 34.03662885946687,216.89658027520636 41.23358297417872,211.8732591587759 42.202968630590476,209.8504245080985 43.642359453602694,203.3772734500817 42.202968630590476,200.8823805268039 36.8272845367901,195.9262556093745 31.010970599018037,188.60994029251742 26.692798129981384,184.80000000001746 21.845869848621078,191.5432283131522 22.72712953633163,191.64437572841416 23.93151777575258,192.75699532704311 26.281543609220535,195.75767867235118 26.252168286358938,196.70170845242683" stroke="#4dd2ff" stroke-linecap="round" stroke-linejoin="round" stroke-width="0.5"><title>2021-03-20 3.7km</title></polyline><polyline fill="none" points="77.00788177340291,209.15822520281654 65.9418719210662,205.6138642700971 54.2374384237919,205.2472050851793 47.95960591128096,203.90278621780453 47.800000000046566,201.70282177830813 48.704433497507125,200.72505729756085 47.85320197045803,199.07507623743732 48.06600985210389,196.20287650206592 51.41773399012163,192.84177479712525 56.95073891640641,193.513996596972 62.59014778328128,195.40843592653982 73.23054187186062,195.1639924677438 78.92315270937979,194.24732863757527 79.61477832496166,193.45288555434672 78.60394088667817,195.775100934261 77.96551724127494,203.6583461103728 78.49753694585524,207.69159555190708 80.19999999995343,207.99714368215064" stroke="#4dd2ff" stroke-linecap="round" stroke-linejoin="round" stroke-width="0.5"><title>2021-03-19 1.6km</title></polyline><polyline fill="none" points="96.93039443169255,200.6690201831807 103.97169373568613,203.69114012207137 106.70301624154672,203.51844839716796 109.08352668222506,204.03652326526935 111.58932714629918,203.4896664331609 112.91740139224567,203.60479427242535 116.20000000006985,202.62620619082008 110.11090487265028,204.0077413522231 106.97865429252852,203.51844839716796 103.47053364291787,203.66235817506094 89.46310904889833,199.2011220632994 83.80000000004657,198.59669127949746 85.02784222748596,198.7693859168212 84.20092807430774,198.42399653987377 84.45150812075008,198.2800841788121 86.35591647331603,198.39521407338907 88.88677494216245,197.96347673473065 89.73874709988013,198.59669127949746 90.23990719264839,198.2800841788121 90.84129930404015,198.85573319726973 91.36751740146428,198.68303861102322 92.04408352682367,199.25868683456792 92.89605568465777,198.94208045204869 94.65011600940488,200.20850392081775 95.0009280743543,199.7767692648922 94.09883990732487,198.42399653987377 93.74802784237545,198.4527790035936 93.87331786553841,199.4313810801541 95.50208816712257,200.23728620851762 96.17865429248195,198.62547372619156 96.55452436220367,199.40259871300077 97.05568445485551,199.31625159436953 96.52946635743137,199.46016344451346 96.83016241318546,199.37381634293706 96.10348027863074,198.3664316040522 97.18097447813489,198.2800841788121" stroke="#4dd2ff" stroke-linecap="round" stroke-linejoin="round" stroke-width="0.5"><title>2021-03-19 3.1km</title></polyline><polyline fill="none" points="133.43423154577613,217.1999999999971 133.2522621518001,216.63565530143387 132.90652030345518,216.57295024216 132.39700600039214,217.05368855578126 133.0157019397011,213.52128159921267 132.7791417276021,214.37826147784654 132.88832336396445,215.94589862882276 132.54258151561953,216.2176212224149 130.5773120613303,216.1758177691372 130.3407518492313,214.92171033677005 130.5045243037166,213.81390926454333 135.27212242421228,212.74790653851232 138.47478375711944,212.53888576741156 138.3656021207571,192.32560308281973 139.43922154488973,190.94592919912247 141.65924815065227,188.98092360945884 141.25891548395157,187.97750946925953 138.54757151473314,184.79999999998836" stroke="#4dd2ff" stroke-linecap="round" stroke-linejoin="round" stroke-width="0.5"><title>2021-03-18 2.7km</title></polyline><polyline fill="none" points="166.78849373728735,214.5264129992138 167.69558678148314,214.6836838155432 167.8325064862147,215.4503772680764 168.1748057481018,215.64696485774766 170.02322176244343,216.02048074401682 172.4193165958859,215.8042347898445 174.07946801616345,216.27604384178994 175.61981469480088,217.1999999999971 176.0134588459041,215.96150459794444 175.79096432571532,210.71255770938296 177.21150626271265,210.5749430100259 175.1748256542487,210.00482395743893 173.20660489820875,209.9065274042514 172.33374178042868,208.96287802678125 170.60513050766895,191.09167431417154 172.48777644825168,188.88961090501107 173.82274356967537,188.12281525481376 172.86430563637987,186.41226047703822 171.22126917913556,184.8000000000029" stroke="#4dd2ff" stroke-linecap="round" stroke-linejoin="round" stroke-width="0.5"><title>2021-03-17 2.8km</title></polyline><polyline fill="none" points="12.891489361878484,250.25147919962183 13.293617021525279,250.25147919962183 15.304255319526419,251.10926081240177 15.878723404370248,251.8350751643302 21.853191489353776,253.4846503083827 28.172340425662696,254.3424277761369 30.29787234053947,254.2104620836908 31.791489361785352,254.540376266581 32.53829787252471,254.8043074956513 35.52553191501647,255.26618689624593 37.99574468098581,256.2559273955412 38.800000000046566,256.4538753196248 40.178723404649645,257.17968387377914 41.327659574802965,257.90549164038384 41.78723404277116,258.03745660436107 42.30425531952642,258.30138645414263 43.56808510655537,258.63129861990456 44.200000000186265,258.5653161998489 44.14255319186486,258.5653161998489 44.14255319186486,258.5653161998489 43.970212766435,258.63129861990456 44.08510638331063,258.5653161998489 44.14255319186486,258.5653161998489 44.200000000186265,258.63129861990456 43.85531914886087,258.5653161998489 43.10851063858718,258.5653161998489 40.58085106383078,258.63129861990456 38.85744680883363,258.103439076629 37.19148936192505,257.7735266505624 35.52553191501647,257.64156163466396 33.859574468340725,257.7075441456982 32.997872340725735,257.7735266505624 31.331914893817157,257.90549164038384 30.5851063830778,257.90549164038384 28.0,257.7075441456982 27.195744680939242,257.50959659245564 25.644680850906298,257.1137013104162 24.84042553207837,256.71780579409096 23.289361702278256,256.1899447409087 22.4851063832175,255.92601405835012 19.210638298187405,255.26618689624593 17.08510638331063,254.408410612843 16.912765957647935,254.01251349569065 17.602127659600228,253.88054773787735 17.88936170237139,253.88054773787735 18.119148936355487,253.6166161444271 17.88936170237139,253.55063322966453 17.314893617061898,253.41866738075623 17.027659574523568,253.35268444666872 16.855319149093702,253.28670150588732 16.51063829800114,253.28670150588732 16.280851064017043,253.15473560494138 15.993617021478713,253.15473560494138 15.706382978707552,253.15473560494138 15.304255319526419,253.02276967803482 15.017021276755258,252.89080372510944 14.844680851092562,252.82482073880965 14.270212766015902,252.4949057100457 14.097872340586036,252.36293965292862 13.810638298047706,252.16499051835854 13.63829787261784,252.0330243963399 13.465957446955144,251.8350751643302 13.236170212738216,251.57114276383072 12.834042553324252,251.24122711684322 12.48936170223169,251.04327765043126 12.317021276801825,250.91131130699068 12.029787234263495,250.58139533468056 11.9148936169222,249.98754617443774 11.9148936169222,249.45967981184367 11.857446808833629,249.12976312352112 11.800000000046566,248.8658296558424 11.972340425709262,248.33796240825905 11.9148936169222,247.61214426264632 11.9148936169222,247.2822266634903 11.857446808833629,247.08427602576558 11.972340425709262,246.88632532971678 11.9148936169222,246.82034175138688 11.972340425709262,246.35845652030548 12.029787234263495,246.02853830280947 12.317021276801825,245.96255463984562 12.891489361878484,245.76460361178033 13.178723404416814,245.63263622717932 13.35106382984668,245.56665252521634 13.695744680939242,245.4346851016744 13.753191489493474,245.4346851016744 13.753191489493474,245.36870138003724 13.810638298047706,245.36870138003724" stroke="#4dd2ff" stroke-linecap="round" stroke-linejoin="round" stroke-width="0.5"><title>2021-03-02 1.4km</title></polyline><polyline fill="none" points="53.752558139618486,252.47604822559515 54.1293023256585,252.64913867396535 58.273488372098655,253.42804527038243 60.910697674844414,254.38004128233297 61.890232557896525,254.81276640109718 64.52744186064228,255.5051261470071 65.50697674416006,255.5051261470071 68.29488372104242,255.33203626197064 69.19906976725906,255.07240136980545 71.98697674414143,254.89931139914552 73.71999999973923,255.5051261470071 74.62418604642153,255.85130581533303 76.20651162834838,256.4571199059719 77.71348837204278,256.71675438818056 79.59720930224285,256.54366474208655 79.89860465098172,256.3705750615918 80.20000000018626,256.54366474208655 80.12465116288513,257.7552915494307 78.76837209332734,258.1014703299734 77.63813953474164,259.0534612722113 77.11069767409936,259.2265504238312 76.58325581392273,259.3996395409922 76.28186046518385,259.3996395409922 75.8297674418427,259.4861840865924 75.52837209310383,259.65927315247245 74.47348837181926,260.0919956682483 74.62418604642153,260.5247179703438 75.15162790706381,260.8708956586197 75.15162790706381,260.95744005945744 75.15162790706381,261.0439844514476 75.22697674436495,260.95744005945744 74.85023255832493,260.8708956586197 74.39813953498378,261.0439844514476 74.24744186084718,261.1305288349977 74.09674418577924,261.21707321022404 74.02139534894377,261.30361757666105 74.02139534894377,261.30361757666105 73.71999999973923,260.8708956586197 73.56930232560262,260.6978068315075 73.34325581369922,260.43817352713086 73.26790697686374,260.2650846147444 72.51441860478371,260.0919956682483 72.21302325557917,260.0919956682483 71.83627907000482,260.0919956682483 71.4595348839648,260.0054511822527 71.00744186062366,260.0054511822527 70.63069767458364,260.0054511822527 69.87720930250362,259.83236218465026 69.50046511599794,259.7458176728105 69.12372093042359,259.65927315247245 68.74697674391791,259.5727286238689 67.99348837230355,259.3996395409922 67.692093023099,259.2265504238312 67.31534883752465,259.1400058523286 66.93860465148464,258.96691668382846 66.56186046497896,258.7938274812768 66.26046511624008,258.53419361362467 65.58232558146119,258.18801500368863 64.9041860466823,257.84183625719743 64.37674418650568,257.3225678814342 64.0,257.14947835484054 63.623255813959986,256.9763887937879 63.24651162791997,256.8032991986838 62.8697674414143,256.6302095694118 62.643720930442214,256.54366474208655 62.040930232498795,256.28403020836413 61.739534883759916,256.19748534687096 61.43813953502104,256.11094047670485 61.1367441858165,255.9378507109941 60.760000000242144,255.85130581533303 60.38325581373647,255.76476091117365 59.55441860482097,255.6782159982249 59.25302325608209,255.59167107695248 58.87627906957641,255.5051261470071 58.42418604623526,255.5051261470071 58.122790697496384,255.41858120873803 57.369302325416356,255.33203626197064 56.992558139842004,255.15894634247525 56.31441860459745,254.6396763792145 55.56093023251742,254.38004128233297 55.25953488377854,254.29349623300368 54.88279069773853,254.2069511752925 54.43069767439738,254.12040610879194 54.1293023256585,254.0338610339677 53.752558139618486,253.86077085818397 53.07441860483959,253.51459040498594 52.69767441879958,253.34150012704777 52.39627906959504,253.1684098149999 51.64279069798067,252.7356838855194 51.41674418607727,252.56259345408762 51.11534883733839,252.38950298860436 50.437209302559495,251.95677667489508 50.135813953820616,251.6971407844103 49.75906976731494,251.17786877282197 49.23162790713832,250.57205103774322 48.32744186045602,249.87968739971984 48.32744186045602,249.6200508949696 48.17674418631941,249.1873232156504 48.0260465121828,248.8411409186665 47.799999999813735,247.71604751050472 48.0260465121828,247.28331889252877 48.101395349018276,246.85059006122174 48.17674418631941,246.50440684246132 48.252093023620546,246.24476933880942 48.252093023620546,245.81203999521676 48.252093023620546,244.68694270367268 48.252093023620546,243.90802834916394 49.08093023300171,243.56184396956814 49.68372093047947,243.21565945347538 50.21116279112175,243.04256714414805 50.587906977161765,242.956020976766 50.738604651298374,242.78292861633236 51.79348837211728,242.69638242339715" stroke="#4dd2ff" stroke-linecap="round" stroke-linejoin="round" stroke-width="0.5"><title>2020-12-25 1.0km</title></polyline><polyline fill="none" points="84.28721804521047,248.25758766470244 84.65263157896698,248.60734758590115 84.9571428571362,248.95710733463056 85.62706766906194,249.37681880564196 88.24586466164328,250.07633737189462 89.64661654131487,250.49604818061925 90.56015037605539,250.70590349193662 94.82330827065744,252.38474374642828 96.04135338333435,253.22416238381993 97.44210526323877,253.85372570966138 99.5127819548361,254.62319123843918 100.30451127816923,254.76309397199657 101.76616541366093,254.76309397199657 102.6187969923485,254.76309397199657 104.0804511278402,254.48328847723315 105.42030075215735,254.34338568808744 106.9428571430035,254.41333708609454 107.7954887219239,254.34338568808744 110.17067669192329,254.76309397199657 110.96240601502359,255.0428993566893 112.48496240586974,255.3227046309621 113.33759398525581,255.252753322653 114.86015037610196,255.18280200759182 115.53007518826053,255.11285068566212 116.20000000018626,255.3926559324027 116.13909774436615,255.46260722674197 115.95639097783715,255.53255851415452 115.89548872201703,255.6025097949314 115.89548872201703,255.67246106854873 115.83458646619692,255.6025097949314 115.71278195502236,255.74241233529756 115.71278195502236,255.6025097949314 115.77368421084248,255.67246106854873 115.83458646619692,255.74241233529756 115.77368421084248,255.67246106854873 115.89548872201703,255.53255851415452 115.83458646619692,255.53255851415452 115.77368421084248,255.53255851415452 115.77368421084248,255.6025097949314 115.77368421084248,255.53255851415452 115.77368421084248,255.53255851415452 115.77368421084248,255.53255851415452 115.77368421084248,255.6025097949314 115.71278195502236,255.6025097949314 115.71278195502236,255.6025097949314 115.65187969920225,255.6025097949314 115.59097744408064,255.6025097949314 115.71278195502236,255.6025097949314 115.71278195502236,255.6025097949314 115.71278195502236,255.6025097949314 115.65187969920225,255.6025097949314 115.65187969920225,255.67246106854873 115.53007518826053,255.6025097949314 114.1293233083561,255.6025097949314 112.54586466168985,255.6025097949314 110.96240601502359,255.252753322653 110.23157894751057,255.0428993566893 108.70902255643159,254.62319123843918 107.91729323333129,254.48328847723315 106.27293233084492,254.48328847723315 105.48120300774463,254.41333708609454 103.83684210549109,254.5532398610958 102.13157894741744,254.76309397199657 101.33984962431714,254.76309397199657 99.6954887220636,254.69314260868123 98.84285714291036,254.48328847723315 95.0060150376521,253.22416238381993 94.2142857145518,252.94435628160136 91.96090225572698,252.38474374642828 91.35187969915569,252.31479214859428 88.91578947380185,251.89508241601288 87.51503759389743,251.2655173515668 86.72330827079713,250.84580699831713 85.20075187995099,250.00638554635225 83.80000000004657,249.51672257407336" stroke="#4dd2ff" stroke-linecap="round" stroke-linejoin="round" stroke-width="0.5"><title>2020-12-08 1.1km</title></polyline><polyline fill="none" points="119.80000000004657,248.66025647684 120.11153846164234,248.71989508066326 122.18846153863706,250.3301351548289 122.86346153868362,250.56868887529708 125.51153846178204,251.3439878168865 126.75769230769947,251.7018177623395 127.38076923089102,251.94037094159285 128.8346153846942,252.47711525129853 130.1326923079323,253.13313542708056 130.80769230797887,253.55060244118795 134.13076923089102,254.6837257409352 134.85769230802543,254.74336375045823 136.93461538478732,254.5048116768594 137.55769230774604,254.44517364358762 140.828846154036,254.5048116768594 141.50384615384974,254.56444970407756 143.52884615422226,255.16082965314854 145.60576923075132,255.3397435231018 146.22884615394287,255.28010557219386 147.57884615426883,255.3397435231018 149.6557692307979,255.04155371017987 150.27884615398943,254.9819157300517 151.57692307722755,254.8626397519838 152.20000000018626,254.80300175427692 151.94038461567834,254.3258975597564 150.48653846164234,254.26625950890593 149.86346153868362,254.3258975597564 148.56538461567834,254.6837257409352 148.09807692328468,254.80300175427692 146.74807692319155,255.1011916846037 146.125,255.16082965314854 144.82692307699472,255.16082965314854 144.15192307718098,255.04155371017987 142.85384615394287,254.80300175427692 142.23076923121698,254.62408772535855 140.20576923084445,254.26625950890593 139.53076923103072,254.26625950890593 138.18076923093759,254.3258975597564 137.45384615380317,254.3258975597564 136.10384615394287,254.44517364358762 134.75384615408257,254.5048116768594 133.45576923107728,254.44517364358762 132.20961538492702,254.14698338980088 131.58653846173547,253.968069167051 130.23653846187517,253.55060244118795 129.61346153868362,253.31204989692196 128.36730769230053,252.8945827182033 126.70576923084445,252.41747701808345 126.23846153868362,252.35783877922222 124.99230769253336,252.0596474960912 123.27884615422226,251.52290281601017 122.8115384618286,251.16507276479388 121.7211538462434,250.56868887529708 121.1500000001397,250.27049670991255" stroke="#4dd2ff" stroke-linecap="round" stroke-linejoin="round" stroke-width="0.5"><title>2020-12-03 1.3km</title></polyline><polyline fill="none" points="187.85774647886865,252.85174972674577 188.14295774628408,253.90004823164782 188.19999999995343,254.2276411751518 187.2302816901356,254.817308066471 185.57605633791536,254.75178954889998 183.29436619696207,254.35867830732604 181.12676056311466,253.4414178393199 180.38521126750857,253.31038052606164 176.1640845069196,251.67241193179507 174.62394366180524,251.41033658164088 172.28521126741543,251.4758554289583 170.68802816863172,251.41033658164088 169.54718309850432,251.41033658164088 168.86267605610192,251.41033658164088 167.32253521098755,251.27929886814672 166.80915492936037,251.21378000173718 165.0408450702671,251.08274224895285 164.3563380278647,251.01722336321836 161.96056338003837,250.8206666666665 161.21901408419944,250.68962883658241 159.73591549298726,250.55859098071232 157.7964788733516,249.70684428757522 157.05492957727984,249.44476816238603 155.80000000004657,249.1826919335872 157.22605633782223,249.51028720336035 158.48098591552116,250.09995828161482 159.73591549298726,250.68962883658241 160.47746478859335,250.75514775473857 162.35985915502533,250.95170447067358 162.93028169008903,251.01722336321836 164.41338028153405,251.14826112851733 165.15492957714014,251.21378000173718 166.69507042248733,251.21378000173718 167.37957746488973,251.27929886814672 168.91971830977127,251.41033658164088 169.60422535194084,251.41033658164088 171.7147887321189,251.4758554289583 172.3992957745213,251.4758554289583 173.42605633777566,251.34481772815343 173.76830985909328,251.34481772815343 173.9964788730722,251.34481772815343 174.2246478870511,251.34481772815343 174.45281690103002,251.34481772815343 174.73802816891111,251.27929886814672 175.02323943632655,251.27929886814672 175.59366197162308,251.34481772815343 175.82183098583482,251.34481772815343 176.33521126769483,251.54137426958187 176.84859154908918,251.80344956781482 176.79154929565266,251.934487178165 176.79154929565266,252.0000059735612 176.7345070419833,252.0000059735612" stroke="#4dd2ff" stroke-linecap="round" stroke-linejoin="round" stroke-width="0.5"><title>2020-11-30 1.0km</title></polyline></svg>