<?xml version="1.0" encoding="utf-8" ?>
<svg baseProfile="full" height="300mm" version="1.1" viewBox="0,0,200,300" width="200mm" xmlns="http://www.w3.org/2000/svg" xmlns:ev="http://www.w3.org/2001/xml-events" xmlns:xlink="http://www.w3.org/1999/xlink"><defs /><rect fill="#222222" height="300" width="200" x="0" y="0" /><text fill="#FFFFFF" style="font-size:12px; font-family:Arial; font-weight:bold;" x="10" y="20">Over 3km Runs</text><text fill="#FFFFFF" style="font-size:4px; font-family:Arial" x="10" y="280">ATHLETE</text><text fill="#FFFFFF" style="font-size:9px; font-family:Arial" x="10" y="290">jdzj</text><text fill="#FFFFFF" style="font-size:4px; font-family:Arial" x="120" y="280">STATISTICS</text><text fill="#FFFFFF" style="font-size:3px; font-family:Arial" x="120" y="285">Number: 14</text><text fill="#FFFFFF" style="font-size:3px; font-family:Arial" x="120" y="290">Weekly: 2.3</text><text fill="#FFFFFF" style="font-size:3px; font-family:Arial" x="141" y="285">Total: 25.1 km</text><text fill="#FFFFFF" style="font-size:3px; font-family:Arial" x="141" y="290">Avg: 1.8 km</text><text fill="#FFFFFF" style="font-size:3px; font-family:Arial" x="167" y="285">Min: 1.0 km</text><text fill="#FFFFFF" style="font-size:3px; font-family:Arial" x="167" y="290">Max: 3.7 km</text><polyline fill="none" points="55.59999999962747,57.83319299988216 52.299490661825985,57.41196478653001 47.385398980695754,54.29486955009634 43.204753819387406,54.37911551707657 37.190492359455675,52.02022530674003 22.521561969071627,52.44145617930917 24.72190152760595,53.53665547538549 23.84176570409909,53.78939357493073 12.399999999906868,50.16680700011784 21.641426145099103,53.70514754997566 34.77011884516105,54.5476074256585 45.99185059405863,57.243473442911636" stroke="#4dd2ff" stroke-linecap="round" stroke-linejoin="round" stroke-width="0.5"><title>2021-03-24 1.1km</title></polyline><polyline fill="none" points="121.5999999998603,57.168724161572754 118.48913043481298,56.96646608010633 115.43695652182214,54.67420364217833 110.56521739135496,53.86516800511163 106.57391304359771,52.04483432113193 94.36521739140153,52.314513691177126 95.42173913074657,53.46064982749522 85.85434782621451,50.831275838427246 78.39999999990687,51.775154844508506 81.33478260878474,52.17967401939677 86.08913043467328,50.89869581075618 94.89347826107405,53.59548924682895 110.91739130439237,54.26968594331993" stroke="#4dd2ff" stroke-linecap="round" stroke-linejoin="round" stroke-width="0.5"><title>2021-03-23 1.3km</title></polyline><polyline fill="none" points="186.7382978722453,56.144525275274646 172.20425531920046,51.06366897356929 166.2872340423055,52.053449201222975 160.42765957443044,51.39359587873332 162.03617021255195,52.449360882514156 161.4042553191539,52.64731663535349 152.1553191486746,49.87593076698249 144.39999999990687,50.99768357281573 151.58085106383078,50.007901782984845 160.25531914876774,52.51534613984404 171.74468085099943,53.307168721279595 187.60000000009313,58.12406923301751 185.0148936167825,56.87035873980494 187.60000000009313,56.144525275274646" stroke="#4dd2ff" stroke-linecap="round" stroke-linejoin="round" stroke-width="0.5"><title>2021-03-22 1.6km</title></polyline><polyline fill="none" points="49.187758224783465,80.6671405841189 49.78270849271212,81.08433932132903 49.452180566149764,82.4117868503381 52.459984697867185,82.86691066689673 53.253251721384004,83.51166848887806 52.988829380250536,84.68740056929528 54.17872991564218,85.48386220287648 55.59999999997672,87.94909018097678 54.74062739079818,90.2246712698252 53.48462127009407,90.75563826109283 53.02188217290677,92.12097860084032 46.90711553173605,97.43058959103655 40.16434583009686,100.04744243866298 38.04896709998138,101.41274992912076 36.429380260175094,102.77805259288289 31.702830910449848,109.30109870541492 12.400000000023283,123.3328594158811" stroke="#4dd2ff" stroke-linecap="round" stroke-linejoin="round" stroke-width="0.5"><title>2021-03-21 1.3km</title></polyline><polyline fill="none" points="97.98289449303411,98.24690476083197 97.43455513194203,94.74051498467452 93.67451379843988,90.06528678792529 92.14699700684287,89.61574309601565 86.97694017319009,94.33592981862603 81.84605043684132,100.85420280473772 80.55353622860275,101.2138289543509 79.14352072845213,105.03483932709787 81.53271365910769,108.45124509424204 87.21194275654852,111.14838951232377 93.36117702070624,116.13806474840385 93.00867314566858,116.40777537244139 93.83118218742311,116.31787184876157 93.08700734027661,115.9133057736617 94.02701767347753,117.48661627745605 96.10287382639945,119.95895041903714 103.97546036820859,123.60000000000582 108.04883847944438,123.19544036692241 117.64477729913779,116.49767887836788 118.93729150760919,113.80056601078832 120.8564792717807,105.16969793345197 118.93729150760919,101.84317403571913 111.76971271587536,95.23500747914659 104.0146274655126,85.47992039000383 98.25706417346373,80.39999999999418 91.79449313180521,89.39097108421265 92.9695060485974,89.52583430457162 94.5753570345696,91.00932710271445 97.70872481237166,95.01023822976276 97.66955771530047,96.26894460321637" stroke="#4dd2ff" stroke-linecap="round" stroke-linejoin="round" stroke-width="0.5"><title>2021-03-20 3.7km</title></polyline><polyline fill="none" points="183.343842364382,112.87763360381359 168.58916256111115,108.15181902679615 152.98325123172253,107.66294011363061 144.61280788155273,105.87038162373938 144.39999999990687,102.93709570448846 145.60591132985428,101.63340973015875 144.47093596076593,99.43343498330796 144.75467980280519,95.6038353361655 149.22364532016218,91.12236639624462 156.60098522156477,92.01866212929599 164.12019704421982,94.54458123544464 178.30738916248083,94.21865662373602 185.89753694552928,92.99643818347249 186.81970443297178,91.93718073912896 185.47192118223757,95.03346791234799 184.6206896547228,105.54446148057468 185.3300492609851,110.92212740262039 187.60000000009313,111.32952490961179" stroke="#4dd2ff" stroke-linecap="round" stroke-linejoin="round" stroke-width="0.5"><title>2021-03-19 1.6km</title></polyline><polyline fill="none" points="29.907192575512454,149.55869357756455 39.2955916475039,153.5881868294382 42.93735498865135,153.35793119622394 46.1113689095946,154.0486976870161 49.45243619498797,153.31955524420482 51.22320185613353,153.47305902990047 55.59999999997672,152.16827492110315 47.48120649671182,154.01032180295442 43.30487238999922,153.35793119622394 38.62737819040194,153.54981090006186 19.950812065042555,147.6014960843895 12.400000000023283,146.79558837265358 14.037122969864868,147.02584788910463 12.934570765704848,146.565328719822 13.268677494255826,146.37344557174947 15.807888631010428,146.5269520978327 19.182366589433514,145.9513023129839 20.318329466390423,146.79558837265358 20.98654292349238,146.37344557174947 21.788399072014727,147.14097759634024 22.490023201913573,146.91071814802126 23.39211136905942,147.67824911276693 24.52807424601633,147.25610726937884 26.86682134575676,148.94467189439456 27.334570765611716,148.36902568649384 26.131786543061025,146.565328719822 25.664037123089656,146.6037053381151 25.831090487306938,147.90850810686243 28.00278422271367,148.9830482780235 28.904872389975935,146.8339649682457 29.406032482744195,147.87013161735376 30.074245939729735,147.75500212583574 29.37262180983089,147.946884592704 29.773549884208478,147.83175512391608 28.804640371352434,146.4885754720599 30.241299304063432,146.37344557174947" stroke="#4dd2ff" stroke-linecap="round" stroke-linejoin="round" stroke-width="0.5"><title>2021-03-19 3.1km</title></polyline><polyline fill="none" points="96.57897539448459,171.60000000000582 96.33634953596629,170.84754040191183 95.87536040472332,170.76393365624244 95.19600800075568,171.40491807440412 96.0209359198343,166.69504213228356 95.70552230370231,167.83768197047175 95.85109781881329,169.92786483844975 95.39010868757032,170.29016162990592 92.7697494153399,170.23442369219265 92.4543357990915,168.56228044902673 92.67269907181617,167.08521235274384 99.0294965658104,165.6638753846928 103.29971167631447,165.3851810232154 103.1541361612035,138.43413744377904 104.58562872663606,136.59457226551604 107.54566420102492,133.9745648126409 107.01188731216826,132.63667929236544 103.39676201972179,128.39999999999418" stroke="#4dd2ff" stroke-linecap="round" stroke-linejoin="round" stroke-width="0.5"><title>2021-03-18 2.7km</title></polyline><polyline fill="none" points="159.05132498312742,168.03521733227535 160.26078237534966,168.24491175403818 160.443341981736,169.26716969074914 160.89974099758547,169.52928647698718 163.3642956833355,170.0273076586891 166.55908879463095,169.73897971978295 168.77262402162887,170.36805845570052 170.82641959318426,171.60000000000582 171.35127846128307,169.94867279723985 171.05461910110898,162.95007694582455 172.948675016989,162.76659068002482 170.23310087248683,162.0064319432422 167.60880653106142,161.8753698723158 166.44498904061038,160.6171707023459 164.14017401030287,136.78889908554265 166.6503685977077,133.85281454000506 168.43032475968357,132.83042033974198 167.15240751521196,130.54968063603155 164.96169223892502,128.39999999999418" stroke="#4dd2ff" stroke-linecap="round" stroke-linejoin="round" stroke-width="0.5"><title>2021-03-17 2.8km</title></polyline><polyline fill="none" points="13.855319148860872,195.66863893292611 14.391489361878484,195.66863893292611 17.072340425569564,196.81234774994664 17.838297872338444,197.78010021912633 25.804255318827927,199.97953374456847 34.22978723421693,201.12323703494621 37.06382978707552,200.9472827782738 39.055319149047136,201.38716835546074 40.051063830032945,201.7390766608878 44.034042553044856,202.35491586168064 47.327659574337304,203.67456986074103 48.39999999990687,203.938500426244 50.23829787271097,204.90624516509706 51.77021276624873,205.87398885394214 52.38297872338444,206.0499421391869 53.072340425569564,206.4018486055429 54.757446808274835,206.84173149324488 55.60000000009313,206.75375493313186 55.52340425550938,206.75375493313186 55.52340425550938,206.75375493313186 55.29361702175811,206.84173149324488 55.44680851092562,206.75375493313186 55.52340425550938,206.75375493313186 55.60000000009313,206.84173149324488 55.140425531659275,206.75375493313186 54.14468085113913,206.75375493313186 50.77446808479726,206.84173149324488 48.476595744956285,206.13791876891628 46.25531914876774,205.69803553412203 44.034042553044856,205.52208217961015 41.81276595732197,205.61005886102794 40.66382978763431,205.69803553412203 38.44255319144577,205.87398885394214 37.44680851045996,205.87398885394214 34.0,205.61005886102794 32.927659574430436,205.34612878994085 30.859574467875063,204.8182684138883 29.78723404277116,204.29040772549342 27.719148936215788,203.58659298793646 26.646808510646224,203.2346854112111 22.280851063784212,202.35491586168064 19.44680851092562,201.21121415047674 19.217021276708692,200.68335132760694 20.136170212645084,200.50739698391408 20.519148936029524,200.50739698391408 20.825531914830208,200.15548819262767 20.519148936029524,200.06751097290544 19.753191489260644,199.89155650773318 19.370212765876204,199.80357926228317 19.140425532124937,199.71560200792737 18.68085106369108,199.71560200792737 18.374468085356057,199.53964747331338 17.991489361505955,199.53964747331338 17.608510638121516,199.53964747331338 17.072340425569564,199.36369290412404 16.689361702185124,199.18773830024293 16.459574467968196,199.09976098511834 15.693617021199316,198.65987428009976 15.463829786982387,198.48391953727696 15.080851064063609,198.2199873578502 14.85106382984668,198.0440325284726 14.621276595629752,197.78010021912633 14.314893616829067,197.4281903518131 13.778723404277116,196.98830282251583 13.31914893630892,196.72437020065263 13.089361702091992,196.54841507604579 12.706382978707552,196.10852711292682 12.55319148907438,195.31672823266126 12.55319148907438,194.61290641583037 12.476595744956285,194.17301749810576 12.399999999906868,193.82110620784806 12.629787234123796,193.11728321108967 12.55319148907438,192.14952568360604 12.55319148907438,191.7096355513786 12.476595744956285,191.44570136774564 12.629787234123796,191.18176710634725 12.55319148907438,191.09378900186857 12.629787234123796,190.47794202715158 12.706382978707552,190.03805107047083 13.089361702091992,189.9500728531857 13.855319148860872,189.68613814905984 14.238297872245312,189.5101816362585 14.46808510646224,189.42220336699393 14.927659574430436,189.24624680232955 15.004255319014192,189.24624680232955 15.004255319014192,189.15826850681333 15.080851064063609,189.15826850681333" stroke="#4dd2ff" stroke-linecap="round" stroke-linejoin="round" stroke-width="0.5"><title>2021-03-02 1.4km</title></polyline><polyline fill="none" points="86.33674418600276,198.63473096734378 86.83906976738945,198.8655182318762 92.36465116264299,199.9040603605099 95.88093023281544,201.17338837636635 97.18697674386203,201.7503552014241 100.70325581403449,202.6735015292652 102.00930232508108,202.6735015292652 105.72651162790135,202.44271501596086 106.93209302285686,202.0965351597406 110.64930232521147,201.8657485321164 112.95999999996275,202.6735015292652 114.16558139538392,203.13507442036644 116.2753488374874,203.9428265412571 118.28465116256848,204.28900585090742 120.79627906996757,204.05821965599898 121.19813953433186,203.82743341545574 121.59999999962747,204.05821965599898 121.4995348835364,205.6737220658688 119.69116279063746,206.13529377325904 118.18418604647741,207.40461502957623 117.48093023197725,207.63540056510828 116.77767441840842,207.86618605465628 116.37581395311281,207.86618605465628 115.77302325563505,207.9815787820844 115.3711627908051,208.2123642032966 113.96465116273612,208.78932755754795 114.16558139538392,209.36629062704742 114.86883720895275,209.827860878082 114.86883720895275,209.9432534124935 114.86883720895275,210.05864593526348 114.96930232550949,209.9432534124935 114.4669767441228,209.827860878082 113.86418604617938,210.05864593526348 113.66325581399724,210.17403844662476 113.46232558088377,210.2894309469266 113.3618604647927,210.40482343558688 113.3618604647927,210.40482343558688 112.95999999996275,209.827860878082 112.75906976731494,209.5970757753821 112.4576744181104,209.25089803617448 112.35720930201933,209.0201128196204 111.35255813971162,208.78932755754795 110.95069767395034,208.78932755754795 110.44837209302932,208.78932755754795 109.94604651164263,208.6739349096315 109.34325581416488,208.6739349096315 108.84093023231253,208.6739349096315 107.83627906953916,208.44314957945608 107.33395348815247,208.3277568970807 106.83162790723145,208.2123642032966 106.3293023253791,208.09697149845306 105.3246511630714,207.86618605465628 104.92279069731012,207.63540056510828 104.4204651163891,207.52000780310482 103.91813953500241,207.2892222451046 103.41581395315006,207.05843664170243 103.01395348832011,206.71225815138314 102.10976744163781,206.25068667158484 101.20558139495552,205.78911500959657 100.50232558185235,205.09675717516802 99.99999999953434,204.86597113974858 99.49767441861331,204.6351850583451 98.99534883722663,204.40439893153962 98.49302325537428,204.17361275921576 98.19162790710106,204.05821965599898 97.38790697650984,203.71204027778003 96.98604651167989,203.59664712916128 96.58418604638427,203.481253968901 96.18232558108866,203.25046761462 95.68000000016764,203.13507442036644 95.17767441831529,203.0196812148206 94.07255813945085,202.9042879975168 93.6706976746209,202.78889476926997 93.16837209276855,202.6735015292652 92.56558139529079,202.6735015292652 92.16372092999518,202.55810827831738 91.15906976722181,202.44271501596086 90.65674418583512,202.21192845655605 89.75255813961849,201.51956850558054 88.74790697684512,201.17338837636635 88.3460465115495,201.05799497733824 87.84372093016282,200.94260156701785 87.24093023268506,200.82720814505592 86.83906976738945,200.71181471191812 86.33674418600276,200.48102781083435 85.43255813932046,200.01945387327578 84.93023255839944,199.78866683598608 84.52837209263816,199.5578797532944 83.52372093033046,198.98091184732039 83.22232558159158,198.75012460537255 82.8204651158303,198.51933731802274 81.91627906961367,197.9423688998213 81.51441860478371,197.59618771250825 81.01209302339703,196.9038250304293 80.30883720936254,196.09606805024669 79.10325581394136,195.1729165329598 79.10325581394136,194.82673452654853 78.90232558129355,194.24976428749505 78.70139534911141,193.78818789147772 78.39999999990687,192.28806334722321 78.70139534911141,191.71109185670502 78.80186046473682,191.13412008155137 78.90232558129355,190.67254245653749 79.00279069785029,190.32635911833495 79.00279069785029,189.74938666028902 79.00279069785029,188.24925693811383 79.00279069785029,187.21070446551312 80.10790697671473,186.7491252926411 80.9116279068403,186.28754593792837 81.61488372134045,186.0567561921198 82.11720930272713,185.94136130227707 82.31813953490928,185.71057148836553 83.7246511625126,185.59517656441312" stroke="#4dd2ff" stroke-linecap="round" stroke-linejoin="round" stroke-width="0.5"><title>2020-12-25 1.0km</title></polyline><polyline fill="none" points="145.04962405981496,193.01011688623112 145.53684210544452,193.4764634478488 145.94285714253783,193.9428097794298 146.8360902252607,194.50242507416988 150.32781954854727,195.4351164958207 152.19548872159794,195.99473090743413 153.41353383474052,196.27453798922943 159.09774436056614,198.51299166184617 160.7218045112677,199.6322165117017 162.5894736838527,200.4716342794709 165.35037593962625,201.4975883178413 166.40601503755897,201.68412529595662 168.35488721821457,201.68412529595662 169.49172932328656,201.68412529595662 171.4406015034765,201.31105130293872 173.2270676693879,201.12451425072504 175.25714285718277,201.21778278140118 176.39398496225476,201.12451425072504 179.56090225558728,201.68412529595662 180.61654135305434,202.0571991421748 182.6466165408492,202.4302728413022 183.78345864685252,202.3370044301846 185.8135338346474,202.24373601010302 186.70676691737026,202.15046758082462 187.60000000009313,202.5235412431648 187.5187969924882,202.61680963559775 187.2751879701391,202.7100780188921 187.19398496253416,202.80334639316425 187.19398496253416,202.89661475800676 187.11278195492923,202.80334639316425 186.95037594018504,202.98988311371068 186.95037594018504,202.80334639316425 187.03157894778997,202.89661475800676 187.11278195492923,202.98988311371068 187.03157894778997,202.89661475800676 187.19398496253416,202.7100780188921 187.11278195492923,202.7100780188921 187.03157894778997,202.7100780188921 187.03157894778997,202.80334639316425 187.03157894778997,202.7100780188921 187.03157894778997,202.7100780188921 187.03157894778997,202.7100780188921 187.03157894778997,202.80334639316425 186.95037594018504,202.80334639316425 186.95037594018504,202.80334639316425 186.86917293211445,202.80334639316425 186.7879699249752,202.80334639316425 186.95037594018504,202.80334639316425 186.95037594018504,202.80334639316425 186.95037594018504,202.80334639316425 186.86917293211445,202.80334639316425 186.86917293211445,202.89661475800676 186.70676691737026,202.80334639316425 184.8390977443196,202.80334639316425 182.7278195489198,202.80334639316425 180.61654135305434,202.3370044301846 179.6421052631922,202.0571991421748 177.61203007493168,201.4975883178413 176.55639097746462,201.31105130293872 174.3639097744599,201.31105130293872 173.30827067699283,201.21778278140118 171.11578947398812,201.40431981475558 168.8421052629128,201.68412529595662 167.78646616544574,201.68412529595662 165.59398496244103,201.59085681155557 164.45714285690337,201.31105130293872 159.34135338338092,199.6322165117017 158.28571428591385,199.2591417087242 155.2812030077912,198.51299166184617 154.46917293220758,198.41972286475357 151.2210526317358,197.86010988795897 149.35338345821947,197.02068980206968 148.2977443607524,196.46107599773677 146.26766917295754,195.34184739505872 144.39999999990687,194.6889634320978" stroke="#4dd2ff" stroke-linecap="round" stroke-linejoin="round" stroke-width="0.5"><title>2020-12-08 1.1km</title></polyline><polyline fill="none" points="12.399999999906868,241.54700863582548 12.815384615212679,241.6265267742565 15.584615384461358,243.77351353981066 16.484615384601057,244.09158516704338 20.015384615166113,245.12531708920142 21.67692307685502,245.60242368321633 22.50769230769947,245.92049458884867 24.446153846103698,246.63615366839804 26.17692307685502,247.51084723614622 27.076923076994717,248.06746992160333 31.50769230746664,249.5783009879524 32.476923077134416,249.6578183340025 35.246153846150264,249.3397489024792 36.07692307676189,249.2602315248805 40.438461538404226,249.3397489024792 41.33846153807826,249.4192662721034 44.03846153849736,250.2144395375508 46.80769230751321,250.45299136417452 47.63846153835766,250.3734740962973 49.43846153863706,250.45299136417452 52.207692307420075,250.0554049469647 53.03846153826453,249.97588764008833 54.76923076924868,249.81685300270328 55.5999999998603,249.73733567236923 55.253846153849736,249.1011967464001 53.31538461521268,249.02167934528552 52.48461538460106,249.1011967464001 50.753846153849736,249.5783009879524 50.13076923065819,249.73733567236923 48.33076923061162,250.13492224615766 47.49999999976717,250.2144395375508 45.76923076901585,250.2144395375508 44.86923076910898,250.0554049469647 43.13846153812483,249.73733567236923 42.30769230774604,249.4987836338114 39.60769230755977,249.02167934528552 38.707692307652906,249.02167934528552 36.90769230760634,249.1011967464001 35.938461538171396,249.1011967464001 34.13846153835766,249.2602315248805 32.338461538311094,249.3397489024792 30.607692307559773,249.2602315248805 28.946153846103698,248.8626445197733 28.115384615259245,248.62409222277347 26.31538461544551,248.06746992160333 25.484615384601057,247.74939986265963 23.82307692291215,247.19277695764322 21.607692307326943,246.55663602420827 20.984615384368226,246.4771183723351 19.32307692291215,246.07952999480767 17.03846153849736,245.3638704214245 16.41538461530581,244.88676368643064 14.96153846126981,244.09158516704338 14.199999999953434,243.69399561325554" stroke="#4dd2ff" stroke-linecap="round" stroke-linejoin="round" stroke-width="0.5"><title>2020-12-03 1.3km</title></polyline><polyline fill="none" points="121.14366197166964,247.1356663023471 121.52394366171211,248.5333976421971 121.60000000009313,248.97018823353574 120.30704225366935,249.75641075527528 118.1014084503986,249.66905273188604 115.0591549295932,249.14490440982627 112.16901408415288,247.92189045244595 111.18028169032186,247.74717403482646 105.55211267620325,245.5632159090601 103.49859154922888,245.2137821089127 100.38028169004247,245.30114057194442 98.25070422515273,245.2137821089127 96.7295774645172,245.2137821089127 95.81690140813589,245.2137821089127 93.76338028162718,245.03906515752897 93.07887323899195,244.9517066690023 90.72112676035613,244.77698966528988 89.80845070397481,244.689631150919 86.61408450687304,244.42755555553595 85.6253521121107,244.25283844885416 83.64788732398301,244.07812130759703 81.06197183113545,242.9424590501003 80.07323943637311,242.5930242165341 78.39999999990687,242.24358924478292 80.30140845058486,242.6803829378914 81.97464788751677,243.4666110422113 83.64788732398301,244.25283844885416 84.63661971827969,244.3401970063569 87.14647887321189,244.60227262758417 87.90704225329682,244.689631150919 89.88450704235584,244.86434817139525 90.87323943618685,244.9517066690023 92.92676056316122,244.9517066690023 93.8394366200082,245.03906515752897 95.89295774651691,245.2137821089127 96.80563380289823,245.2137821089127 99.61971830949187,245.30114057194442 100.53239436633885,245.30114057194442 101.90140845067799,245.1264236375573 102.35774647863582,245.1264236375573 102.66197183076292,245.1264236375573 102.96619718289003,245.1264236375573 103.27042253501713,245.1264236375573 103.6507042250596,245.03906515752897 104.03098591510206,245.03906515752897 104.79154929565266,245.1264236375573 105.09577464777976,245.1264236375573 105.780281690415,245.38849902612856 106.4647887321189,245.73793275706703 106.38873239420354,245.91264957090607 106.38873239420354,246.00000796472887 106.31267605628818,246.00000796472887" stroke="#4dd2ff" stroke-linecap="round" stroke-linejoin="round" stroke-width="0.5"><title>2020-11-30 1.0km</title></polyline></svg>