<?xml version="1.0" encoding="utf-8" ?>
<svg baseProfile="full" height="300mm" version="1.1" viewBox="0,0,200,300" width="200mm" xmlns="http://www.w3.org/2000/svg" xmlns:ev="http://www.w3.org/2001/xml-events" xmlns:xlink="http://www.w3.org/1999/xlink"><defs /><rect fill="#222222" height="300" width="200" x="0" y="0" /><text fill="#FFFFFF" style="font-size:12px; font-family:Arial; font-weight:bold;" x="10" y="20">Over 3km Runs</text><text fill="#FFFFFF" style="font-size:4px; font-family:Arial" x="10" y="280">ATHLETE</text><text fill="#FFFFFF" style="font-size:9px; font-family:Arial" x="10" y="290">jdzj</text><text fill="#FFFFFF" style="font-size:4px; font-family:Arial" x="120" y="280">STATISTICS</text><text fill="#FFFFFF" style="font-size:3px; font-family:Arial" x="120" y="285">Number: 68</text><text fill="#FFFFFF" style="font-size:3px; font-family:Arial" x="120" y="290">Weekly: 3.1</text><text fill="#FFFFFF" style="font-size:3px; font-family:Arial" x="141" y="285">Total: 154.4 km</text><text fill="#FFFFFF" style="font-size:3px; font-family:Arial" x="141" y="290">Avg: 2.3 km</text><text fill="#FFFFFF" style="font-size:3px; font-family:Arial" x="167" y="285">Min: 1.0 km</text><text fill="#FFFFFF" style="font-size:3px; font-family:Arial" x="167" y="290">Max: 13.2 km</text><polyline fill="none" points="27.185918687522644,52.241692492112634 27.22427202167455,52.45105839422831 27.08729582815431,52.59697966726162 27.14208630559733,52.67945675727606 27.27358345137327,52.64773481249358 27.43247583587072,52.7746224946095 27.52561964749475,52.71752306967028 27.783134891360532,52.79999999999927 28.06804537391872,52.76827811664771 28.079003469378222,52.489124846237246 28.336518713244004,52.55891328116559 28.457057763560442,52.43202515947996 28.681698720989516,52.463747214154864 28.73101015065913,52.311481204371375 28.681698720989516,51.53111205986352 28.468015859049046,51.55014556999231 28.194063471950358,51.20754149731874 28.28720728357439,51.1314070029257 28.270770140341483,50.7063210315755 28.024212991964305,50.45888159243259 27.783134891360532,49.76097018354267 27.43247583587072,47.45780702252523 27.070858684921404,46.5695119593729 26.840738679777132,46.52509687346901 26.599660579115152,46.24591560781482 26.57774438819615,46.03018377221815 26.38049866948859,45.9603880182658 26.07915104366839,45.560647192556644 25.723012940463377,45.32587757449073 24.99977863856475,44.54542085790308 24.65459863084834,44.46927821524878 24.17792147732689,43.790335533441976 23.909448137972504,43.28905534276055 23.788909087656066,42.9337150407373 23.821783374092774,42.76238952737549 23.597142416692805,42.591063542375196 23.471124318632064,42.19764653261518 23.016363356087822,41.728081039575045 22.895824305771384,41.38542290322948 22.84651287610177,41.36004074399534 22.83007573283976,41.51867906932239 22.649267157394206,41.12525528038532 22.462979534146143,40.979307113291725 22.397230961243622,40.68106414227441 22.052050953556318,40.420893574762886 22.073967144504422,40.26225245095702 21.701391898066504,39.849783636407665 21.78357761420193,39.621338193472184 22.013697619346203,39.41827487346745 21.991781428368995,39.30405146476187 21.389086176786805,39.46269503133226 20.222049007803435,38.72023965693734 19.624832803965546,38.17449757889335 17.2743213227659,34.46840149359923 15.504588902229443,32.526420533286 15.537463188666152,32.28525526732119 15.26898984934087,31.809268446031638 15.356654613191495,31.19999999999709" stroke="#4dd2ff" stroke-linecap="round" stroke-linejoin="round" stroke-width="0.5"><title>2021-07-21 5.3km</title></polyline><polyline fill="none" points="49.02797569287941,43.189049809239805 50.74126851558685,43.88262670050608 53.48253703024238,41.50464673782699 51.426585643552244,43.189049809239805 49.88462210446596,41.4055641136365 49.37063425779343,43.684461924480274 47.571676794439554,42.00005970732309 47.82867071824148,44.378038463706616 40.46151158306748,45.96335441869451 43.631103304214776,50.12479655799689 41.8321458408609,48.935814898693934 42.9457861748524,48.539487357542384 41.746481199748814,50.223878297780175 40.632840865757316,49.1339786091703 40.37584694242105,52.79999999998836 41.40382263530046,47.94499574392103 39.34787124907598,50.818368524487596 43.7167679448612,48.04407770448597 41.48948727641255,50.719286845007446 44.573414355516434,50.32296002714429 45.08740220265463,42.59455493930727 46.88635966554284,42.396389902278315 43.80243258597329,41.60372935171472 42.86012153420597,43.486297108756844 44.83040827931836,49.62938770925393 46.715030383784324,48.836733028583694 45.687054690439254,49.23306044947822 46.543701101560146,46.656929339747876 52.368896696250886,45.07161451084539 49.88462210446596,47.44958578929072 52.62589061958715,47.053257645107806 52.2832320551388,43.88262670050608 50.91259779781103,43.78354431746993 55.7098176991567,46.2606008737348 56.65212875092402,41.60372935171472 55.367159134708345,38.13583188067423 54.1678541591391,39.0275781203527 50.05595138622448,37.838582952914294 48.599652487784624,39.225743841263466 52.197567413561046,36.35233695793431 49.54196353955194,38.5321636433946 47.400347512215376,38.5321636433946 51.94057349022478,37.145001770113595 45.17306684376672,37.838582952914294 49.11364033445716,39.126660985755734 51.16959172068164,37.343167872633785 48.94231105223298,39.0275781203527 50.91259779781103,38.63124655879801 47.05768894823268,39.9193235465209 51.08392707956955,38.63124655879801 49.19930497510359,38.92849524517078 51.94057349022478,37.145001770113595 49.02797569287941,38.92849524517078 52.71155526023358,36.15417065459769 47.400347512215376,38.5321636433946 48.85664641112089,38.92849524517078 52.454561337362975,36.45142009475967 48.428323205560446,39.32482668629382 45.85838397219777,38.829412359860726 52.2832320551388,36.64958633802598 48.34265856444836,39.32482668629382 53.31120774848387,36.64958633802598 47.400347512215376,38.730329464306124 50.74126851558685,37.343167872633785 51.25525636179373,38.33399778191233 49.02797569287941,39.0275781203527 50.91259779781103,38.829412359860726 52.88288454245776,38.03674891463015 47.14335358887911,38.63124655879801 49.11364033445716,37.44225090864347 50.05595138622448,38.730329464306124 49.02797569287941,39.0275781203527 50.56993923289701,38.03674891463015 48.34265856444836,39.32482668629382 53.13987846625969,37.93766593898181 48.77098176954314,39.0275781203527 50.91259779781103,37.343167872633785 49.19930497510359,38.829412359860726 50.22728066891432,38.829412359860726 46.543701101560146,38.829412359860726 50.484274591784924,38.730329464306124 51.512250285129994,37.64041695080232 50.312945309560746,37.343167872633785 47.74300607666373,38.730329464306124 49.54196353955194,37.54133393493248 49.11364033445716,38.5321636433946 51.68357956735417,38.92849524517078 45.94404861377552,38.730329464306124 51.59791492624208,37.93766593898181 48.17132928222418,38.33399778191233 51.08392707956955,38.63124655879801 49.54196353955194,38.433080717688426 50.484274591784924,38.63124655879801 47.571676794439554,39.82024076144444 47.74300607666373,40.91015084245009 42.86012153420597,40.216571840806864 46.372371818870306,31.199999999953434 45.08740220265463,33.97433866246138 43.7167679448612,33.677088468219154 40.97549942974001,36.25325381133007 43.37410938041285,37.54133393493248 44.14509115042165,39.82024076144444 48.68531712889671,38.03674891463015 48.34265856444836,41.20739883556962 48.94231105223298,39.32482668629382" stroke="#4dd2ff" stroke-linecap="round" stroke-linejoin="round" stroke-width="0.5"><title>2021-07-17 3.7km</title></polyline><polyline fill="none" points="63.199999999953434,37.32205007082666 66.41296023561154,36.920027209765976 66.8265095729148,33.30180181472679 66.76288659789134,37.28550255598384 67.68541973491665,38.52811603457667 70.96200294559821,41.30570755308145 75.92459499265533,44.19291875389172 83.97290132544003,50.69819818527321 84.79999999993015,50.332736078853486 84.76818851253483,49.27289393040701 83.71840942557901,48.35923447078676 82.22326951415744,49.23634759525885 81.30073637701571,48.72469852521317 78.27864506631158,45.874069334357046 75.79734904284123,44.52184012022917 66.95375552284531,37.87026235964731 63.9634756995365,37.94335727006546 63.422680412302725,37.06621739148977" stroke="#4dd2ff" stroke-linecap="round" stroke-linejoin="round" stroke-width="0.5"><title>2021-07-14 1.9km</title></polyline><polyline fill="none" points="109.974245473044,45.31976656994084 109.49617706239223,46.717542436672375 107.71428571431898,47.81579219541163 97.50100603606552,44.37127360459999 90.76458752527833,44.27143213656382 89.46076458739117,43.37285803665873 89.19999999995343,36.6834229255619 90.06921529164538,36.18420780461747 100.15211267606355,37.082794667599956 107.19275653921068,36.43381542660063 108.75734406430274,37.132716113177594 108.23581488919444,44.17159064853331 110.66961770621128,46.717542436672375 109.93078470835462,46.61770143144531 110.80000000004657,46.76746293186443" stroke="#4dd2ff" stroke-linecap="round" stroke-linejoin="round" stroke-width="0.5"><title>2021-06-29 1.4km</title></polyline><polyline fill="none" points="130.6018552876194,46.366136140874005 131.48348794068443,45.061699517435045 131.89758812618675,44.892889272246975 132.08460111316526,45.107738643389894 132.89944341377122,44.708732432089164 132.83265306125395,44.57061465881998 132.9662337662885,44.6473467702308 132.97959183674539,43.143390483470284 133.36697588133393,41.76219332238543 136.06530612247298,39.368089173789485 136.10538033401826,37.97151139329071 136.39925788505934,37.43436275223212 136.7198515771306,37.89477598677331 136.5061224490055,41.34783178122598 136.80000000004657,41.96170033721137 136.13209647504846,42.48348670398991 135.57105751393829,42.130513765179785 135.59777365496848,42.345366953799385 134.72949907241855,42.345366953799385 133.83450834883843,43.25081641499128 133.82115027838154,43.51170765397546 132.9528756957152,43.956756404193584 132.9128014842281,44.67803960418678 132.31168831168907,45.09239226959471 131.73729128018022,45.04635313911422 131.12282003706787,45.337934068753384 130.65528756962158,46.28940487773798 130.29461966606323,46.44286736611684 129.85380333958892,45.399319457952515 127.0486085342709,45.38397311292647 125.75287569576176,45.614168129264726 124.09647495363606,46.56563724778243 116.82968460110715,40.94881591995363 115.68089053803124,40.933469135619816 115.37365491647506,40.733960801240755 115.4938775509363,40.64187994519307 115.9881261595292,40.81069480633596 115.20000000001164,40.36563704974833 115.21335807046853,40.61118631438876 115.94805194804212,40.82604160277697 115.57402597402688,40.94881591995363 115.7476808904903,41.17901750339661" stroke="#4dd2ff" stroke-linecap="round" stroke-linejoin="round" stroke-width="0.5"><title>2021-06-26 3.3km</title></polyline><polyline fill="none" points="141.1999999999971,47.08529209299013 142.25034990131098,47.54384893720635 142.48289969496545,47.73973587765795 142.70382199893356,48.05582437518024 142.54103714336816,48.15821876590053 142.29685986004188,48.53217891516397 142.02167593754712,48.99517290268341 141.97129014892562,49.204409012072574 142.08368921585497,49.31125260875706 142.97125426163257,49.41809595254381 143.0177642203489,49.645137218416494 142.94799928225984,50.42419170389621 143.04489502961223,49.565005137312255 142.77746276689868,48.679090983270726 142.88598600395198,48.460948649411876 143.14566660685523,48.367458755026746 143.50611878700147,48.40752587631869 145.15722232189728,48.79483954864554 145.25411806926422,48.83490629059088 145.21148394042393,49.173246248737996 145.6106944195344,49.204409012072574 145.78123093485192,48.7636765025527 146.16493809438543,47.005155467217264 146.28508882111055,46.86714205596218 147.1842813565454,47.10755224156674 147.48272025838378,47.14316845645226 147.6144984747807,47.071935998581466 147.84317243853002,47.1298123791712 148.25401040729776,46.907210509143624 150.26169029249286,45.531506592618825 150.4089718284522,45.64726323058494 150.24618697290134,46.141451691495604 150.18417369460803,46.89385436205339 150.37021352951706,47.27672901193364 150.50586757579003,47.361317159324244 153.6452897900599,47.34350914146853 154.13364435671247,47.42364516647285 154.77703211913467,47.40583717321351 156.6413062982174,47.26337297417558 157.14516418446146,47.09864818345886 157.7614211376058,46.5376889809304 158.1722591064172,45.972270665435644 158.49395298761374,45.202043767025316 158.65673784317914,44.13349913242928 158.52495962676767,43.608122074845596 157.54437466357194,42.423775083032524 157.05989592679543,41.48428975605566 157.0288892876415,41.57779391170334 157.16066750403843,41.982976346789656 157.11415754529298,41.982976346789656 157.19554997308296,41.996333947517996 157.57538130271132,42.579611989698606 157.61026377175585,42.61523177849813 157.62964292122342,42.56180208474689 157.3350798492902,42.12100469703364 156.57929301989498,40.52252147830586 156.61805131884466,39.97483871314762 159.5636820383952,37.67271729881759 160.1566840121959,37.12054691636877 161.48609366588062,36.31454414167456 161.99382738200075,35.94048271155043 162.02870985107438,35.824701163925056 161.4783420060994,35.192350543260545 161.89693163467746,34.871718671704 162.5286919074133,34.17255515721263 162.57132603623904,33.95879599534601 162.79612417009776,33.811835983749916 162.8000000000029,33.72276907694322 162.49768526824482,33.57580829610015 162.54419522697572,33.65596878139331 162.59458101561177,33.615888556556456 162.60233267540752,33.71831572700103 162.5325677373039,33.669328848416626" stroke="#4dd2ff" stroke-linecap="round" stroke-linejoin="round" stroke-width="0.5"><title>2021-06-21 11.9km</title></polyline><polyline fill="none" points="170.57755359390285,32.8312897378928 170.495838587638,32.29929992504185 170.74098360654898,32.4557676097611 170.523076922982,32.79999624416814 171.99394703644793,34.36466714396374 175.45321563689504,36.55519342934713 182.53518284996971,42.46953879517969 184.16948297596537,43.064096511516254 186.29407314001583,45.69265410624212 187.1929382092785,49.6980332970561 188.79999999993015,51.76328717035358 187.41084489261266,49.94836781639606 186.34854981082026,45.72394632725627 184.3601513239555,43.157973943831166 179.64791929360945,39.340269278443884 178.2860025219852,38.87087618676014 176.10693568713032,36.86812452014419 175.0446406052215,36.61777967214584 172.02118537202477,33.83267990456079 170.98612862534355,33.45715896273032 170.30517023953144,32.393180545128416 168.04438839841168,32.64352872944437 167.19999999995343,32.23671282964642" stroke="#4dd2ff" stroke-linecap="round" stroke-linejoin="round" stroke-width="0.5"><title>2021-06-16 2.1km</title></polyline><polyline fill="none" points="12.930472102947533,64.63349313905928 12.683261802536435,64.88195081116282 13.950214592157863,65.52084118037601 20.315879828180186,68.11188493933878 23.993133047246374,67.93441678385716 27.67038626607973,68.4313273987209 32.800000000046566,67.7569485407439 30.760515021393076,67.33102440045332 31.131330471951514,66.83411226628232 28.381115879747085,67.2955306993681 25.260085836751387,66.26621184428222 22.973390557803214,66.65664348073187 21.026609441963956,65.84028593968833 17.287553648115136,66.05324895502417 12.992274678079411,64.98843261809088 11.199999999953434,63.56867260125" stroke="#4dd2ff" stroke-linecap="round" stroke-linejoin="round" stroke-width="0.5"><title>2021-06-16 1.4km</title></polyline><polyline fill="none" points="57.725200642016716,66.45798410879797 57.031781701371074,66.85622427868657 49.88956661312841,64.10835911211325 45.13964686996769,64.66589848417789 42.4006420543883,64.34730465160101 41.91524879599456,64.90484369374462 37.199999999953434,63.55081897013588 42.8166934188921,65.14378876177943 49.334831460611895,65.74115081355558 58.79999999993015,68.44918102986412" stroke="#4dd2ff" stroke-linecap="round" stroke-linejoin="round" stroke-width="0.5"><title>2021-06-15 1.2km</title></polyline><polyline fill="none" points="77.04511278192513,70.75760759520927 75.33984962408431,71.78374124711263 72.66015037591569,71.45724441774655 64.78345864685252,59.143485044070985 63.199999999953434,60.0297132889973 65.02706766920164,63.80782558390638 66.89473684225231,65.53361991653219 69.16842105286196,66.18662153405603 71.40150375943631,69.59154392269556 74.69022556394339,71.83038363300147 77.04511278192513,72.85651495592901 82.9323308269959,70.9908199844358 84.80000000004657,71.2240322586149" stroke="#4dd2ff" stroke-linecap="round" stroke-linejoin="round" stroke-width="0.5"><title>2021-06-11 1.2km</title></polyline><polyline fill="none" points="108.24589489592472,76.79690871739695 108.33216876766528,76.78454358392446 108.53167709601985,76.63925290294719 108.90373316782643,76.24047291715397 108.90912528480112,76.03335264256566 108.7284893658798,76.18482879776457 108.62334308472055,76.05190078225314 108.65839184510696,76.16318939151643 108.7230972489051,76.18792014030805 108.90912528480112,76.0240785686401 108.91182134329574,76.21265086971835 108.82285141308967,76.33939555393044 108.3213845336868,76.79690871739695 108.08952350342588,76.79999999999927 107.48291034286376,75.02864546105411 107.4289891730441,74.00226541477423 107.11085427105718,73.58799413533961 106.55816228030017,73.2479166332505 106.55546622183465,72.98512696283797 106.45301599914092,72.83054378168163 105.98659788013902,72.37606484385105 105.64419845172961,72.17201094696793 105.22361332707806,71.72679786500521 105.08611434401246,71.70206362072895 104.64126469293842,71.78244984373669 104.58464746462414,71.80409225340736 104.71675433068594,71.82573464824054 104.68979374578339,71.86283586197169 104.46332483249716,71.94322167545761 103.7003402794362,72.08544222848832 103.43343048878887,72.07307524931821 103.51431224354019,72.10090094563384 103.46847924917529,72.13800183589228 103.5224004190095,72.11017617228026 103.53048859449336,72.18746962171099 103.53857676996267,72.097809202809 103.42534231331956,72.07925873950808 102.98858083771484,71.83810172432459 101.92363773362013,71.8504687955774 101.637855533525,71.73607320161136 101.10403595223033,71.96486397487206 100.47855038222042,71.83191818688647 100.29521840480447,71.7515320898965 99.97438744433748,71.39906755507036 99.63198801592807,71.10843594217295 99.15478566294769,71.00022135988729 98.6047897307144,70.98785395543382 98.22464548342396,70.80543417657645 97.87954999653448,70.53644037522827 95.87098642042838,69.65832970599695 95.70383079398016,69.6397778085302 95.19427573909343,69.7294452118822 94.93275806543534,69.69852544640344 94.67393645025732,69.5593861268062 94.30457643694535,69.15742464555115 93.74918838770827,68.67506410792521 93.61168940464268,68.18341981676713 93.4175731932628,67.93604872252217 93.04012500448152,67.21247713646517 92.74355857042246,66.9187147041921 91.82150656636804,64.56851674294558 91.80533021541487,64.36750483968171 91.85655532675446,64.11391876464768 92.2501798664889,63.41809283988914 92.34723797217885,63.10573932022271 92.27983650990063,62.849050448201524 91.95091737396433,62.31401752762031 91.69479181726638,61.79134654318477 91.52494013230898,61.253202866369975 91.54920465873147,60.9748490840484 91.770281455043,60.20163123655402 91.79724203994556,59.72222664579749 91.74332087011135,59.3201397537523 91.47641107946401,58.25303813092796 91.52224407382892,57.64369143241129 91.49797954739188,56.762128400836446 91.42248990964436,56.41258956383717 91.43057808511367,56.05686021766451 91.30386333602655,55.53717882308047 91.08817865670426,55.19999999999891" stroke="#4dd2ff" stroke-linecap="round" stroke-linejoin="round" stroke-width="0.5"><title>2021-06-10 13.2km</title></polyline><polyline fill="none" points="123.61048296582885,70.65226723949309 123.89722500985954,71.61285943468101 125.1636690380983,71.4756321812165 125.23535454901867,72.18921316042542 126.14337102207355,72.07943159039132 126.69295993982814,72.82045634766109 127.00359715439845,72.16176777196233 126.35842755506746,71.72264118873863 126.95580681378487,71.77753204954206 127.29033919831272,72.16176777196233 126.8363309619017,72.84790167113533 128.27004118240438,73.01257355528651 127.55318607226945,73.47914336452959 127.48150056123268,72.95768293808214 127.9355087976437,72.68322968957364 128.15056533075403,72.985128247994 127.9832991383737,72.54600296393619 128.36562186374795,72.76556569256354 127.95940396806691,72.73812036099844 128.00719430868048,72.38133080376429 128.60457356716506,73.53403387882281 128.15056533075403,74.19271920694155 126.90801647293847,74.60439674541703 124.9008221643744,74.54950644215569 122.75025683350395,76.05898583793896 122.03340172336902,75.61986540345242 121.57939348684158,76.11387584343902 122.1050872344058,76.69022024865262 122.91752302600071,76.41577068076003 122.24845825647935,76.6353303566284 122.77415200392716,76.69022024865262 122.86973268527072,76.22365582219209 122.89362785569392,76.4981055794633 122.22456308605615,76.38832570906379 122.89362785569392,76.4981055794633 122.46351478958968,76.25110081007006 122.98920853703748,76.22365582219209 121.26875627238769,76.4981055794633 121.98561138263904,76.27854579532868 122.27235342666972,76.79999999998836 122.27235342666972,76.4981055794633 121.67497416818514,76.58044045395218 122.20066791574936,76.3608807346609 122.86973268527072,76.55299549846677 122.36793410801329,76.55299549846677 122.51130513020325,76.00409582149587 122.43961961916648,76.6353303566284 122.03340172336902,76.4432156496332 122.36793410801329,76.19621083157836 122.29624859709293,76.71766519051744 121.96171621233225,75.97665080922889 122.43961961916648,75.94920579425525 122.22456308605615,76.47066061594523 121.72276450879872,76.33343575758045 121.93782104190905,75.26307954033837 120.88643354689702,73.86337673777598 120.74306252493989,72.29899468706571 119.50051366712432,70.48759395891102 119.38103781547397,69.96612792738597 119.835046051885,69.33487826626515 119.33324747474398,67.85280821745982 119.88283639261499,66.42562219250249 119.81115088157821,64.83375222256291 121.26875627238769,55.19999999998254 121.77055484964512,55.2274470613047 121.77055484964512,55.7214937012468 122.51130513020325,56.13319856443559 124.853031823528,56.380221190076554 125.06808835663833,56.8468188844854 126.93191164336167,56.13319856443559 128.77183975966182,57.09384087665239 129.70375140290707,56.819371983001474 129.9188079360174,57.258522082847776 131.73484088201076,56.76447817173903 131.99768775573466,57.99958630485344 132.66675252525602,58.438734542171005" stroke="#4dd2ff" stroke-linecap="round" stroke-linejoin="round" stroke-width="0.5"><title>2021-06-08 2.7km</title></polyline><polyline fill="none" points="162.80000000004657,63.409794419130776 155.01272430666722,60.698050593200605 146.94355628057383,60.171889267570805 143.77226753672585,58.39103054400766 143.94845024473034,56.933958566893125 143.59608482848853,57.05538142926525 141.19999999995343,71.38302693981677 141.69331158231944,72.79957488723448 142.85611745505594,73.81139185623033 142.32756933104247,75.06604143307777" stroke="#4dd2ff" stroke-linecap="round" stroke-linejoin="round" stroke-width="0.5"><title>2021-06-08 1.1km</title></polyline><polyline fill="none" points="188.19195710448548,66.9977428719576 181.15603217144962,64.30384848060203 177.47882037528325,65.00226761162048 175.04664879338816,64.80271943609114 174.61233243951574,65.20181566910469 170.8772117961198,64.00452555314405 167.19999999995343,64.53665501839714 170.4139410186326,63.871493055601604 174.49651474528946,65.20181566910469 180.49008042889182,65.46787956194021 185.03592493291944,67.09751632501138 188.7710455764318,68.12850694436929 188.79999999993015,67.79592966960627" stroke="#4dd2ff" stroke-linecap="round" stroke-linejoin="round" stroke-width="0.5"><title>2021-06-07 1.5km</title></polyline><polyline fill="none" points="25.4122946721036,99.42332553342567 25.24685008195229,94.72361416352214 23.92329336050898,93.9165884173417 20.324873524717987,89.16935084125726 17.76048237713985,89.69154925938346 22.020680573768914,84.94427014220855 25.4122946721036,79.20000000001164 18.75314991804771,88.97946036746725 20.159428934333846,88.93198773739277 21.193457623012364,89.78649436563137 25.20548893418163,94.62867002814892 25.24685008195229,99.32838232224458 26.23951762309298,100.79999999998836 25.329572377027944,100.2778135954577" stroke="#4dd2ff" stroke-linecap="round" stroke-linejoin="round" stroke-width="0.5"><title>2021-06-04 1.3km</title></polyline><polyline fill="none" points="50.19032734003849,93.1097840013681 50.424513282079715,93.47373257562867 51.113295464543626,93.47373257562867 50.93421209708322,93.0781362602429 51.30615447560558,92.90407357236836 50.89288516616216,92.96736911709013 50.97553902800428,92.39770831553324 50.5484940749011,92.20782093210437 50.53471843129955,92.44518012627668 50.97553902800428,92.91989746091713 50.98931467172224,93.55285172165895 50.41073763841996,93.5053802387265 49.98369268531678,92.96736911709013 50.06634654721711,93.23637490349938 49.556647732213605,93.33131801447598 48.922968124446925,92.20782093210437 48.20663465477992,91.46409318254155 45.76834572904045,89.73926449069404 45.49283285601996,88.26760699760052 45.78212137258379,86.7801115084585 47.13213445013389,84.54884240710817 48.399493665841874,83.52023272214865 49.69440416875295,82.00104327403824 49.74950674327556,80.76669125058106 49.25358357199002,79.8013580475963 48.82653861888684,79.5165045166359 48.37194237852236,79.95960979055963 48.24796158570098,79.56398014030128 48.440820596704725,79.54815493394563 48.17908336746041,79.50067930571095 48.35816673486261,79.53232972609112 48.22041029832326,79.84883358687512 48.28928851662204,79.59563054828322 48.0275512872613,79.78553286468377 48.23418594204122,79.64310614843271 48.055102574580815,79.59563054828322 48.11020514916163,79.78553286468377 47.600506334216334,80.16533682295994 48.17908336746041,79.84883358687512 47.95867306907894,79.99126012041233 48.04132693097927,79.67475654075679 47.86224356351886,80.07038591771561 47.86224356351886,79.78553286468377 48.37194237852236,79.46902887898614 48.61990396416513,79.81718322889355 48.5096988150035,79.92795945444959 48.895416837127414,79.95960979055963 48.45459624042269,80.16533682295994 47.88979485083837,79.40572800689552 48.5096988150035,79.50067930571095 48.52347445860505,79.19999999999709 47.61428197787609,80.18116196838673 48.399493665841874,80.16533682295994 48.399493665841874,79.95960979055963 47.83469227619935,80.02291044402227 48.61990396416513,79.46902887898614 47.917346138099674,79.92795945444959 48.192859011061955,79.91213428406627 48.303064160223585,79.78553286468377 48.013775643659756,79.64310614843271 48.09642950556008,79.92795945444959 48.52347445860505,79.7064069268381 48.399493665841874,79.94378462326131 48.413269309385214,79.75388249421667 48.22041029832326,79.84883358687512 48.303064160223585,79.62728094990598 48.578577033185866,79.61145574983675 48.4821475277422,79.99126012041233 48.70255782606546,79.6905817345978 48.35816673486261,80.11786137736635 48.53725010226481,79.84883358687512 48.31683980394155,79.2474757173186 48.716333469725214,79.43737844604766 48.09642950556008,79.95960979055963 48.35816673486261,80.07038591771561 48.52347445860505,79.86465876353031 48.413269309385214,80.11786137736635 48.66123089508619,79.5165045166359 48.5096988150035,80.00708528302494 48.675006538804155,80.21281225452549 48.440820596704725,79.97543495628634 46.443352267786395,82.01686823827913 48.90919248072896,79.72223211750679 50.68625051138224,81.1464928851201 51.51278913032729,82.38084198521392 50.700026155041996,96.43276207338204 45.65814057982061,96.55935035314178 44.638742949813604,96.82835011588759 44.48721086967271,99.09109497033933 45.01068532833597,99.4708532167715 46.12651246384485,99.21768115236773 46.622435635188594,99.75567131169373 46.20916632574517,100.08795844991982 46.9530510827899,100.18289750587428 47.09080751921283,100.45189119256975 47.06325623195153,100.80000000000291 46.81529464625055,100.46771433655522 46.67753820976941,100.54683003315586" stroke="#4dd2ff" stroke-linecap="round" stroke-linejoin="round" stroke-width="0.5"><title>2021-06-02 5.9km</title></polyline><polyline fill="none" points="69.41287446941715,100.15227600421349 71.3431542434264,98.38348278471676 74.3361723201815,94.34759835581644 76.91710819792934,88.966318788036 78.02322357427329,84.85554186248919 78.00153503741603,79.19999999999709 78.43530577316415,79.59863265082822 78.65219114092179,83.93372209358495 77.1339935658034,89.63898500494543 75.46397623314988,93.52546584278753 72.77459767146502,97.51153790681565 69.34780885907821,100.80000000000291" stroke="#4dd2ff" stroke-linecap="round" stroke-linejoin="round" stroke-width="0.5"><title>2021-06-01 2.2km</title></polyline><polyline fill="none" points="110.79999999993015,91.47635831439402 110.36599690874573,91.97486595442751 101.08500772796106,89.02215753664495 94.70850077271461,89.21389253027155 94.17434312216938,89.71240307122935 90.0346213291632,88.25521661652601 89.19999999995343,88.29356369850575 89.23338485322893,88.71538135013543 90.00123647612054,88.02513404554338 94.64173106651288,89.94248464371776 103.0547140649287,90.21091297297971" stroke="#4dd2ff" stroke-linecap="round" stroke-linejoin="round" stroke-width="0.5"><title>2021-05-31 1.1km</title></polyline><polyline fill="none" points="127.0269891130738,99.99629552630358 127.46400575712323,96.4298415791709 128.206934051821,96.98239242186537 130.91643724404275,96.4298415791709 131.8341721962206,95.42520214305841 132.53339882660657,92.46150422698702 134.15036040893756,93.06429164510337 133.1889237924479,92.6624334459193 133.66964210080914,91.95918083234574 133.58223877171986,93.16475614518276 133.66964210080914,91.90894846542506 133.6259404362645,93.76754272839753 132.2274871757254,92.36103958779131 136.68505694367923,94.82241752752452 132.14008384686895,93.11452389755868 133.2326254567597,92.61220114884782 132.66450381977484,90.9545325517538 132.2274871757254,93.41591730850632 133.58223877171986,92.16011024982436 133.10152046359144,91.35639210251975 134.32516706665047,93.16475614518276 134.89328870363533,92.91359485773137 133.27632712130435,93.66707834758563 131.7904705319088,92.96382712526247 133.93185208714567,92.76289802548126 132.44599549798295,92.4112719099794 131.35345388785936,95.97775407889276 127.15809410624206,96.68100112763932 127.28919909941033,98.58980963676004 125.54113252367824,99.94606395452865 125.6285358525347,100.79999999998836 126.28406081837602,99.8456007958157 124.36118758493103,94.62148916331353 115.31494305608794,79.19999999998254" stroke="#4dd2ff" stroke-linecap="round" stroke-linejoin="round" stroke-width="0.5"><title>2021-05-30 1.4km</title></polyline><polyline fill="none" points="141.98435754165985,87.86895987065509 145.09162011160515,89.6361701549904 150.7631284914678,91.74988058526651 153.3877094971249,91.50732429651543 156.70614525128622,92.1310401293158 162.28715083794668,91.29941877289093 162.79999999993015,90.88360735660535 162.22681564232334,91.33406970204669 156.91731843561865,91.92313497472787 149.52625698316842,91.43802246905398 144.60893854743335,90.12128514857613 141.19999999995343,88.3540773045097" stroke="#4dd2ff" stroke-linecap="round" stroke-linejoin="round" stroke-width="0.5"><title>2021-05-27 1.4km</title></polyline><polyline fill="none" points="188.80000000004657,91.5533500314632 186.09530434780754,91.4239049233147 180.61078260862269,89.35277798259631 172.30886956537142,89.05073781785904 167.19999999995343,87.66998012328986 170.35547826089896,88.87814334436553 178.88278260850348,89.65481793880463 187.67304347804748,92.33001987668104 188.38678260869347,92.11427839126554" stroke="#4dd2ff" stroke-linecap="round" stroke-linejoin="round" stroke-width="0.5"><title>2021-05-25 1.1km</title></polyline><polyline fill="none" points="11.794743429287337,112.24558938734117 12.82202753436286,113.08398385517648 16.25531914876774,113.39449975814205 19.661576971178874,115.35074290478951 23.743679599370807,115.19548595618107 26.041551939910278,115.56810250409762 30.85356695856899,114.8849718295387 32.79999999993015,113.92237609039876 32.79999999993015,114.63656030752463 25.122403003741056,115.75441061265883 22.202753441757523,115.25758874489111 19.607509386725724,115.47494840848958 14.471088860998861,114.2328911665245 11.199999999953434,112.7734676458931" stroke="#4dd2ff" stroke-linecap="round" stroke-linejoin="round" stroke-width="0.5"><title>2021-05-24 1.6km</title></polyline><polyline fill="none" points="45.61395348829683,113.44105418300023 50.63720930216368,113.58529933882528 50.63720930216368,114.1983406166255 53.83953488362022,115.64078662748216 58.79999999993015,115.17199229812832 53.745348837110214,115.67684770480264 50.16627906973008,115.06380890600849 46.43023255793378,115.2441145417688 37.199999999953434,112.32315229519736" stroke="#4dd2ff" stroke-linecap="round" stroke-linejoin="round" stroke-width="0.5"><title>2021-05-21 1.1km</title></polyline><polyline fill="none" points="76.14869664539583,124.79999999998836 76.91874977841508,124.05815092180273 76.6703455420211,123.31629994107061 77.06779232039116,119.86381457818788 78.55821773922071,119.35021819346002 78.88114324677736,118.57982190645998 80.66965374955907,119.00782009700197 84.34603644942399,118.49422219238477 84.22183433105238,116.83928940744954 82.97981314873323,114.15713685489027 80.4957707838621,110.67600815641345 78.7072602811968,108.99249646041426 75.85061156167649,107.30897496518446 71.80162250692956,106.7382874887262 70.31119708810002,106.13906442638836 68.12523980706464,106.45294332815683 65.39279320568312,104.82647623747471 64.87114430905785,103.19999999998254 63.65396355045959,103.62802094922517 63.72848482138943,104.5411301907152" stroke="#4dd2ff" stroke-linecap="round" stroke-linejoin="round" stroke-width="0.5"><title>2021-05-20 1.7km</title></polyline><polyline fill="none" points="89.3038461538963,112.1511357218842 89.19999999995343,109.94439573778072 93.8211538461037,109.10941094096052 110.43653846159577,109.46726170938928 110.80000000004657,117.57848898816155 109.81346153840423,118.29418028873624 101.40192307694815,117.57848898816155 100.36346153845079,118.29418028873624 93.97692307690158,118.89058905903948 90.29038461553864,118.35382119234418 89.45961538446136,117.63812996214256 89.45961538446136,111.43543715006672" stroke="#4dd2ff" stroke-linecap="round" stroke-linejoin="round" stroke-width="0.5"><title>2021-05-18 1.1km</title></polyline><polyline fill="none" points="115.19999999995343,114.73490694213251 116.04031830222812,115.52462390180153 120.14641909801867,117.25760406878544 122.72466843493748,117.19179494198761 124.46259946934879,117.58664941068855 127.46100795746315,117.2356676953641 130.76498673739843,116.27046512240486 131.70079575583804,115.70011617867567 133.2095490716165,114.6471604401886 136.79999999993015,111.11533499849611 136.22705570282415,110.413350589326 134.81379310344346,111.51020025488106 126.54429708211683,112.40961294418958 125.34111405815929,112.08055994319147 118.82864721480291,111.88312790892087 118.48488063644618,112.43154979358951 118.56127320951782,112.21218120203412 118.17931034474168,112.3657392388559 117.77824933675583,113.19933816026605 117.18620689644013,113.4406425280904 115.46737400523853,113.08965427010844 115.21909814304672,112.62898134101124" stroke="#4dd2ff" stroke-linecap="round" stroke-linejoin="round" stroke-width="0.5"><title>2021-05-10 2.5km</title></polyline><polyline fill="none" points="162.80000000004657,120.8977506790543 162.69244813278783,120.28006116092729 161.95751037355512,119.51824157139345 160.79236514528748,120.09475394907349 160.20082987553906,119.9094465727394 160.1649792531971,119.33293368323939 160.55933609965723,118.67405985989899 160.41593361005653,116.84155610324524 159.9857261410216,116.22385458248027 157.70921161829028,116.92391616792884 156.18556016602088,116.75919600612542 156.13178423244972,116.28562481679546 152.18821576761547,116.3473950329062 150.12680497928523,116.01795366931765 146.82854771788698,116.61506575791282 144.4803319502389,116.67683587648207 142.61609958508052,116.26503474074707 141.19999999995343,113.81480118533364 143.2614107884001,112.33229296727222 144.1756016598083,111.3233577417559 146.05775933607947,110.35559896331688 146.29078838170972,109.65551534775295 148.28049792535603,108.77011211805802 150.19850622408558,107.45229570445372 149.4277178423945,108.31711366445234 147.29460580914747,109.24370035929314 145.28697095438838,107.47288664989173 144.0142738589784,107.10224932096025" stroke="#4dd2ff" stroke-linecap="round" stroke-linejoin="round" stroke-width="0.5"><title>2021-05-08 2.6km</title></polyline><polyline fill="none" points="188.79999999981374,110.26421503492747 188.6585924711544,111.76666118454887 184.41636661207303,112.01030058410834 183.78003273322247,113.1878889821819 177.2399345333688,111.68544801944518 173.84615384601057,111.96969402758987 172.60883797029965,112.66000494445325 167.80098199658096,111.60423483813065 167.19999999995343,112.57879195542773 172.2199672665447,114.36547401218559 179.50245499168523,115.09638716420159 188.6585924711544,117.73578496507253" stroke="#4dd2ff" stroke-linecap="round" stroke-linejoin="round" stroke-width="0.5"><title>2021-05-08 1.3km</title></polyline><polyline fill="none" points="32.79999999993015,137.6380503643304 32.25570291781332,137.93419610816636 29.047214854159392,136.74961155556957 28.531564986798912,137.21028382584336 25.26578249328304,135.95988618361298 23.145888594095595,136.94704260639264 18.53368700260762,137.2431889635336 15.583023872692138,136.28893864914426 12.603713527787477,136.81542191881454 11.572413792950101,136.65089598626946 11.199999999953434,136.124412456993 15.984084880445153,136.3218438778713 18.79151193634607,137.5722401633102 23.37506631296128,137.44061972235795 32.628116710926406,140.04011381638702" stroke="#4dd2ff" stroke-linecap="round" stroke-linejoin="round" stroke-width="0.5"><title>2021-05-07 1.5km</title></polyline><polyline fill="none" points="37.29969230759889,142.14813170203706 37.199999999953434,141.57466302404646 38.79507692309562,141.03942482051207 39.4596923077479,139.43370574639994 47.80061538470909,134.46358045941452 50.45907692296896,135.22821929460042 51.09046153840609,136.06932025947026 51.85476923070382,134.19595650833799 51.55569230765104,133.85186829796294 51.55569230765104,135.15175547939725 51.389538461575285,134.73120422448847 50.75815384613816,136.18401570335845 51.58892307698261,135.22821929460042 50.79138461535331,136.06932025947026 51.22338461515028,134.6547403105942 50.924307692213915,136.14578389251255 51.6553846152965,135.49584252823843 53.017846153932624,135.72523372317664 55.04492307687178,134.99882780353073 56.90584615373518,135.07529164897278 58.79999999993015,136.18401570335845 57.57046153827105,135.34291498883977 56.07507692289073,135.15175547939725 52.585846153786406,135.99285661135218 50.8578461536672,134.88413200664218" stroke="#4dd2ff" stroke-linecap="round" stroke-linejoin="round" stroke-width="0.5"><title>2021-05-06 1.2km</title></polyline><polyline fill="none" points="68.58979206043296,139.97022751005716 69.5289224954322,137.95319723919965 76.22533081285655,132.98094652371947 79.04272211715579,129.97880769876065 82.75841209851205,128.00864378883853 84.18752362951636,129.36899593262933 84.80000000004657,143.2068395917886 84.02419659728184,139.07898263185052 72.79546313802712,145.22384756797692 69.8555765596684,142.40941547282273 64.34328922489658,145.4114757818461 63.199999999953434,147.3346607029962 64.38412098307163,147.99135621113237 67.89565217401832,144.70786959808902 69.20226843096316,141.70580484520178 68.46729678637348,140.62693319297978" stroke="#4dd2ff" stroke-linecap="round" stroke-linejoin="round" stroke-width="0.5"><title>2021-05-06 1.8km</title></polyline><polyline fill="none" points="102.28407310706098,134.65907594456803 104.22976501297671,134.07236538428697 104.42715404706541,133.45305863354588 102.1712793733459,132.54039388312958 102.45326370757539,132.60558430830133 102.11488250654656,132.964131410321 103.77859007834923,133.61603420972824 105.24490861629602,133.38786838002852 104.76553524797782,135.50654486721032 106.23185378592461,134.69167094433215 106.17545691900887,135.31097531376872 106.76762402092572,135.27838037660695 108.9671018277295,137.03850226165378 110.57441253249999,137.39704442955554 110.60261096607428,138.30969541962259 110.09503916441463,139.02677652644343 110.79999999993015,142.28621598501923 110.20783289812971,143.45960611684131 94.52950391650666,141.6017364343861 90.15874673624057,142.188433281146 89.19999999995343,142.90550575387897 89.8767624021275,142.22102751914645" stroke="#4dd2ff" stroke-linecap="round" stroke-linejoin="round" stroke-width="0.5"><title>2021-05-02 1.6km</title></polyline><polyline fill="none" points="121.81670886068605,132.84641383722192 123.34784810105339,133.47876323369564 125.20708860759623,131.89788854058133 132.5893670883961,130.6964210945298 135.87037974665873,132.02435866341693 136.79999999981374,134.23758166382322 135.65164556982927,140.56103269133018 126.35544303781353,143.84920189867262 115.85620253137313,145.3035789055284 115.19999999995343,144.2286049229442 119.73873417708091,131.2023024064256" stroke="#4dd2ff" stroke-linecap="round" stroke-linejoin="round" stroke-width="0.5"><title>2021-05-01 1.0km</title></polyline><polyline fill="none" points="151.50366438762285,137.11315597448265 150.19514322816394,139.20011186110787 148.25492219859734,135.18271424883278 148.34516503708437,133.7218346184818 149.92441471247002,131.26963449281175 152.40609277342446,130.22614153544419 158.81333431322128,130.3304909261642 162.55841211462393,127.20000000001164 157.8206630886998,130.53918964450713 146.6756725232117,129.02612202009186 145.72812271816656,129.49569520686055 143.878144527087,133.46096281975042 143.2464446569793,143.16530474333558 142.47938052914105,145.66962135827634 141.5769521431066,146.03483318036888 141.44158788537607,148.79999999998836 142.1635305939708,148.43479013908654 142.47938052914105,146.71308301994577 143.6976588498801,133.14791648695245 145.32202994450927,131.53050740167964 145.99885123386048,131.94790378096513" stroke="#4dd2ff" stroke-linecap="round" stroke-linejoin="round" stroke-width="0.5"><title>2021-05-01 1.8km</title></polyline><polyline fill="none" points="185.48121368623106,136.0378349780367 184.7282117495197,136.16597862626077 183.50109748227987,137.04696347011486 182.00903808913426,136.98289200631552 181.74409296317026,137.30324907263275 181.78592640411807,136.99890987465915 180.78192382183624,137.33528474450577 178.41136216913583,137.0309456065297 177.01691413816297,137.1911241713242 176.59857972891768,136.9668741364294 175.0786313751014,137.25519555294886 171.648289218836,137.33528474450577 168.23189154290594,136.98289200631552 167.20000000001164,137.86387241774355 167.26972240151372,138.16820999450283 171.28573273075745,138.9530779547058 171.71801162039628,138.82493650604738 172.51284699811367,139.2413958444231 174.63240800518543,139.27343113390089 175.957133634598,139.78599490594934 176.5288573272992,139.6098012918228 178.03486120078014,139.96218832896557 178.41136216913583,140.25050442690554 179.34564234991558,140.36262721562525 179.59664299548604,140.17041667328158 180.27992253069533,140.49076745082857 181.13053582952125,140.3466096791526 182.55287282116478,140.76306511477742 182.67837314395,140.37864475056995 182.98515171080362,140.3466096791526 183.5568754034466,140.65094260255864 183.75209812785033,140.18643422715832 184.58876694639912,139.73794212110806 185.59276952868095,138.72883035318227 186.70832795352908,138.29635196141317 187.29399612656562,137.5915698918834 188.27010974823497,137.28723123433883 188.79999999998836,136.55040896416176 188.52111039380543,135.70145742023306 188.0888315042248,135.23693488522258 187.21032924467,135.797565365021 185.87165913492208,135.71747541498917 185.78799225308467,136.23005041247234 183.90548741118982,137.15908847100218 184.29593285993906,137.52749864295765 184.56087798578665,137.3513025780412 185.46726920589572,138.0400679264858 186.2202711427235,137.92794353398494 186.27604906389024,137.7357301095326" stroke="#4dd2ff" stroke-linecap="round" stroke-linejoin="round" stroke-width="0.5"><title>2021-04-30 3.7km</title></polyline><polyline fill="none" points="32.62938388611656,160.58898702598526 31.26445497618988,162.54873691071407 30.51374407566618,162.66632159650908 23.074881516513415,160.62818211846752 16.454976303270087,160.58898702598526 17.342180094798096,161.3336931206577 11.199999999953434,159.4915228689788 16.1137440756429,161.2161080405058 23.96208530792501,161.96081296002376 32.049289099290036,164.5084771309921 32.79999999993015,164.35169826893252 31.776303317397833,163.9989456034382" stroke="#4dd2ff" stroke-linecap="round" stroke-linejoin="round" stroke-width="0.5"><title>2021-04-29 1.4km</title></polyline><polyline fill="none" points="45.50057142856531,161.46843952391646 47.25942857132759,160.08597749008914 46.642285714275204,158.98709361656802 47.72228571400046,158.63261423064978 55.097142856917344,151.5784017026017 55.96114285697695,151.47205573011888 58.79999999993015,154.73331789701479 55.189714285428636,157.07290077660582 55.59085714269895,157.10834888470708 53.33828571392223,159.55425990652293 54.294857142609544,159.19978108030045 54.51085714274086,158.3844784523244 53.430857142666355,159.2706768734788 48.277714285533875,165.50945188684273 44.7908571427688,167.5653880982718 42.4148571427213,169.6567594135995 42.260571428458206,171.00373788256547 40.31657142844051,172.52794426985201 38.71199999994133,171.71267189036007 37.199999999953434,169.55041879310738 37.32342857134063,167.4590468587121 39.45257142849732,166.46652710431954 40.223999999812804,165.26132085875724 42.35314285708591,164.33968982516672 42.75428571423981,163.41805642697727 43.803428571322,162.81544869582285 44.111999999848194,161.75202082199394 44.914285714155994,161.14941029602778 45.809142856975086,161.36209647948272 45.994285714114085,160.68858979997458" stroke="#4dd2ff" stroke-linecap="round" stroke-linejoin="round" stroke-width="0.5"><title>2021-04-26 2.2km</title></polyline><polyline fill="none" points="75.94371921487618,168.98358240476227 76.53272503777407,168.1715718084597 77.21597179200035,159.64531536618597 79.5248746171128,151.19999999998254 77.4044536552392,159.50997582476703 75.73167711868882,160.294944235211 73.30497312918305,160.13253716222243 70.78402820788324,160.51148684948566 69.46465516509488,161.3235201300704 68.5458060814999,162.6227683768666 68.4751253828872,170.58052956312895 69.535335863824,172.52933383526397 70.24214285099879,172.79999999998836 70.71334750915412,172.55640046374174 73.25785266340245,170.41812858200865 74.12958128086757,171.01359837604105 74.97774966561701,170.3910617424408 75.14267129602376,169.68732297664974" stroke="#4dd2ff" stroke-linecap="round" stroke-linejoin="round" stroke-width="0.5"><title>2021-04-25 2.2km</title></polyline><polyline fill="none" points="100.83463103964459,172.8000000000029 100.19767577259336,168.05623116942297 100.54909936827607,165.35628087850637 100.19767577259336,160.33480216412863 100.52713539346587,151.5785203853884 100.26356769679114,151.20000000001164 99.71446832851507,151.5785203853884 99.16536896035541,160.51143876765855 99.38500870764256,169.2926474843116 100.26356769679114,169.54497660984634 100.32945962087251,169.31788040809624 100.4392794945743,165.0030142448377 100.15374782308936,168.359027554543" stroke="#4dd2ff" stroke-linecap="round" stroke-linejoin="round" stroke-width="0.5"><title>2021-04-18 2.2km</title></polyline><polyline fill="none" points="136.80000000004657,165.07463768444723 132.9318051575683,164.68364642042434 121.2343839542009,161.16470595585997 116.06647564459126,160.6670752383361 115.19999999995343,160.0983535767591 121.35816618904937,160.0272633060522 122.71977077366319,158.92536231552367 125.38108882517554,160.1338987069612" stroke="#4dd2ff" stroke-linecap="round" stroke-linejoin="round" stroke-width="0.5"><title>2021-04-16 1.0km</title></polyline><polyline fill="none" points="162.80000000004657,163.7323563605023 162.16736401669914,163.90104692101886 161.9075313807698,163.36902211081178 161.45564853557153,163.18735460967582 160.87949790793937,163.33009338164993 160.67615062760888,163.16140208898287 160.3937238493818,162.77211366503616 160.89079497911735,161.88972230597574 160.72133891214617,161.24090135429287 160.38242677826202,161.09816031553783 157.7502092050854,161.2798307016783 155.50209205021383,161.08518384976196 154.40627615066478,161.34471292163653 153.94309623434674,161.1630426250631 153.1974895398016,161.24090135429287 153.01673640171066,161.08518384976196 151.54811715480173,161.25387780468736 151.02845188288484,161.07220738270553 150.42970711301314,161.24090135429287 149.83096234314144,160.9943485536205 148.5656903766212,161.22792490263237 147.526359832671,160.8126777732541 146.66778242681175,160.91648967849324 146.18200836825417,160.31957010473707 145.30083682009717,160.3714762621239 144.49874476989498,160.12492183200084 144.1711297071888,160.2806404732255 143.71924686199054,159.83943717771035 143.0527196652838,160.07301557730534 142.08117154811043,159.7486010214052 141.51631799171446,160.0470624423033 141.91171548125567,159.7615776189923 142.00209205021383,160.20278117564158 141.20000000001164,160.16385150958376 141.87782426783815,159.91729669032793 141.55020920507377,159.99515615687415 141.9004184100777,159.96920300649072 141.6179916318506,160.08599214290734 141.79874476994155,160.2806404732255 141.60669456073083,160.12492183200084 141.87782426783815,160.03408587283047 141.79874476994155,159.89134352456313 141.5728033473133,159.96920300649072 141.6518828452099,160.16385150958376 142.00209205021383,160.02110930212075 141.83263598330086,159.95622642934904 141.81004184106132,160.137898392466 141.9004184100777,159.90432010810764 141.776150627702,160.137898392466 141.8552301255404,159.95622642934904 141.91171548125567,160.09896870721423 141.7422594142845,159.6318115854374 141.84393305447884,159.96920300649072 141.78744769876357,159.7486010214052 141.81004184106132,159.96920300649072 141.58410041843308,159.80050740412844 141.6631799163879,159.6837180142029 141.7422594142845,159.80050740412844 141.5728033473133,159.86539035370515 141.79874476994155,159.9821795822936 141.6179916318506,159.8783669397817 141.83263598330086,159.6837180142029 141.67447698750766,159.95622642934904 141.4937238494167,159.95622642934904 141.67447698750766,159.61883497503004 141.50502092053648,159.73562442255206 141.776150627702,159.96920300649072 141.58410041843308,159.85241376633348 141.6179916318506,159.96920300649072 141.67447698750766,159.86539035370515 141.7309623431065,160.41040586677263 141.6179916318506,161.63019430932763 142.71380753139965,161.86376952935825 142.80418410047423,162.07139159900544 143.78702928876737,161.98055698386452 144.35188284527976,162.18817886919715 148.85941422602627,162.3828240891453 153.31046025111573,162.95378173956124 155.44560669455677,163.03163940900413 156.3945606694906,163.2392596355785 157.49037656909786,163.797237370949 159.20753138075816,163.60259424363903 159.3882845188491,163.91402310905687 159.6255230125971,163.8102135691879 161.24100418412127,164.14759427434183 161.52343096234836,164.3811650249554 162.0317991632037,164.26437970147526 162.1899581590551,163.78426117140043 162.64184100425337,163.60259424363903" stroke="#4dd2ff" stroke-linecap="round" stroke-linejoin="round" stroke-width="0.5"><title>2021-04-09 4.9km</title></polyline><polyline fill="none" points="188.3639751554001,163.15576907334616 181.58881987584755,161.1909708568419 180.81739130441565,160.45898468076484 176.0546583852265,160.8442407339753 172.60000000009313,160.49751030324842 173.23726708081085,160.88276631844928 172.93540372664575,161.03686861807364 167.19999999995343,159.72699713296606 171.96273291914258,161.15244530286873 178.80496894416865,161.7303282142093 188.2968944099266,164.27300286706304 187.02236024849117,163.7721743201837 188.79999999993015,163.54102246667026 188.33043478254694,162.96314223416266" stroke="#4dd2ff" stroke-linecap="round" stroke-linejoin="round" stroke-width="0.5"><title>2021-04-09 1.4km</title></polyline><polyline fill="none" points="12.059090909082443,184.80178996088216 13.102272727293894,185.68283659638837 20.650000000023283,188.5726543130586 23.994318181765266,188.43168813735247 26.909090909175575,189.03079399993294 32.30909090919886,188.43168813735247 32.79999999993015,187.8325812703988 30.621590909198858,187.2687150662532 28.013636363553815,187.79733965868945 25.31363636360038,186.775331407669 23.07386363646947,186.9515399353986 19.26931818178855,185.0132413514657 18.77840909094084,184.0969510881987 16.599999999976717,183.25114260573173 14.943181818234734,182.96920600003796 11.199999999953434,183.88549915526528" stroke="#4dd2ff" stroke-linecap="round" stroke-linejoin="round" stroke-width="0.5"><title>2021-04-08 1.4km</title></polyline><polyline fill="none" points="58.65974025975447,186.90220063424204 58.79999999993015,187.64328861891408 56.97662337659858,187.6755097975838 52.15168831171468,186.03222563740565 44.85818181815557,185.67779071512632 41.015064934967086,184.3244902024162 37.199999999953434,184.90447682293598 40.81870129867457,184.48559770031716 44.66181818174664,185.6455693395401 51.81506493513007,185.96778295288095" stroke="#4dd2ff" stroke-linecap="round" stroke-linejoin="round" stroke-width="0.5"><title>2021-04-06 1.3km</title></polyline><polyline fill="none" points="69.7964071854949,182.75661670282716 72.51257485011593,181.9083324733365 73.63353293412365,182.80651572940405 73.63353293412365,183.75459627155215 72.90059880237095,184.1537875306385 74.19401197577827,185.55095438001445 75.53053892194293,185.70065059227636 77.2550898201298,184.90227026611683 79.19520958070643,182.4572224362928 80.9197604788933,183.10590978278196 82.342514970107,182.25762615716667 84.75688622728921,182.55702054535504 84.75688622728921,179.5131690853741 84.49820359284058,181.35944189631846 83.07544910162687,181.1099459765246 84.80000000004657,181.40934106512577 84.71377245499752,182.70671767104068 81.0059880237095,183.05601078644395 79.19520958070643,182.40732337423833 76.26347305392846,186.09984026823076 76.95329341315664,185.50105563254328 73.71976047893986,185.45115687994985 73.07305389200337,184.35338303845492 74.02155688614585,184.35338303845492 73.93532934132963,183.85439411672996 72.81437125732191,181.85843335525715 72.34011976025067,182.55702054535504 71.39161676634103,182.4572224362928 70.1844311375171,185.0519666762557 66.17485029902309,187.1477116222086 64.88143712561578,189.54283774230862 64.70898203575052,187.6965957240318 64.36407185602002,190.04182087921072 64.06227544881403,188.94405730837025 64.36407185602002,189.69253273674985 64.10538922133856,189.04385409812676 65.87305389204994,189.94202429242432 67.29580838303082,192.0876464348985 69.14970059855841,191.93795217137085 69.66706586815417,190.8900910471275 68.54610778414644,190.39110877303756 69.53772455081344,190.39110877303756 69.0634730537422,190.98988744121743 68.63233532896265,190.59070174364024 69.14970059855841,191.18948016813374 69.27904191589914,190.69049819846987 69.49461077828892,191.8381559701811 68.76167664653622,192.4868309146259 66.39041916141286,192.28723871539114 64.19161676615477,189.69253273674985 64.57964071817696,187.44710302661406 64.83832335309125,189.24344761660905 63.199999999953434,190.1915157212352 63.67425149702467,189.393142702349 63.372455089585856,190.39110877303756 64.57964071817696,189.54283774230862 64.75209580827504,187.3473059121461" stroke="#4dd2ff" stroke-linecap="round" stroke-linejoin="round" stroke-width="0.5"><title>2021-04-05 1.9km</title></polyline><polyline fill="none" points="106.18703574803658,191.6827286992193 105.34000109205954,192.10917275387328 105.67144943564199,191.5974397839891 106.26069093553815,191.5974397839891 106.38958751352038,191.23496150644496 105.72669082635548,195.17954429371457 104.30882846738677,196.2029914627783 104.2351732798852,196.8000000000029 104.17993188928813,196.2029914627783 105.78193221695255,195.24350988841616 106.31593232613523,193.15395701501984 106.68420826352667,189.8276869487454 105.76351842004806,189.16669108673523 103.7748283582041,188.80420859849255 102.5963453585282,189.72107485418383 100.12889657821506,190.42471367458347 95.63593014201615,193.13263493936392 94.8257230798481,191.83198421719135 93.88661943958141,192.23710580078478 93.44468831468839,192.0665283874987 90.86675675294828,181.00002155455877 90.71944637806155,178.97429700440262 92.02682595571969,184.90215146214177 92.43192948680371,185.07273471595545 97.164275282179,182.91911093138333 100.81020706228446,181.74633618164808 103.09351787401829,180.46693804815004 106.29751852923073,177.8867946810933 108.19413960678503,175.1999999999971 109.28055362193845,175.7544207755418 109.15165704395622,175.9250114877941 108.7097259190632,175.7757446221658 108.9675190752605,175.5625060579914 108.9675190752605,175.90368765637686 109.07800185645465,175.3279433863354 108.45193276286591,175.51985831900674" stroke="#4dd2ff" stroke-linecap="round" stroke-linejoin="round" stroke-width="0.5"><title>2021-04-05 3.7km</title></polyline><polyline fill="none" points="120.6504672896117,178.16831719997572 124.08224299037829,180.89579199929722 126.90841121505946,188.76645043020835 126.97570093441755,192.7407125099562 128.52336448570713,192.42900642711902 130.07102803722955,193.83168279996607 133.57009345805272,191.2601074836566 136.79999999981374,192.11730021680705 130.2056074764114,190.5587672594702 130.2056074764114,193.13034493516898 130.54205607483163,189.54571913310792 130.40747663518414,193.28619784972398 130.60934579418972,192.03937364451122 127.91775700915605,192.58485948451562 129.73457943927497,191.41596077935537 130.67663551401347,193.13034493516898 128.99439252307639,192.03937364451122 130.2056074764114,191.72766727540875 129.93644859828055,193.20827139628818 130.67663551401347,193.20827139628818 129.80186915886588,191.64974066318246 131.34953270992264,193.5979035833152 129.80186915886588,192.19522678118665 129.93644859828055,190.94840079679852 131.0803738317918,192.7407125099562 130.00373831763864,191.0263274803292 128.18691588775255,190.94840079679852 127.37943925219588,192.97449198900722 127.58130841120146,191.96144706424093 124.14953271020204,189.3898654562072 125.49532710271887,184.4025310127763 124.14953271020204,184.94802230247296 124.21682243002579,182.9219098361791 120.24672897183336,180.73993655876257 115.19999999995343,181.20750278542982 118.02616822440177,182.22056196193444 118.96822429914027,184.8700949990307" stroke="#4dd2ff" stroke-linecap="round" stroke-linejoin="round" stroke-width="0.5"><title>2021-04-04 1.4km</title></polyline><polyline fill="none" points="154.53407821198925,176.33098246145528 147.83687150804326,179.38074755377602 141.3810055863578,186.86647845379775 147.47486033500172,193.5897057921975 151.03463687119074,189.56963944953168 155.19776536314748,187.8368451365386 155.31843575416133,185.5495500973193 159.17988826800138,182.7077489149524 153.50837988802232,175.49922604684252 148.74189944122918,178.68762028665515 141.19999999995343,187.28235005342867 147.35418994398788,192.82728118507657 150.97430167580023,188.59927516093012 156.88715083780698,187.6289095315733 158.63687150832266,186.311982604675 159.54189944127575,182.84637362958165 159.30055865901522,182.22256219777046 158.57653631293215,183.60880907118553 156.4648044691421,184.64849243091885 156.4044692737516,184.02468259970192 162.79999999981374,179.79662358592032 160.44692737422884,178.54899475112325 157.97318435739726,175.49922604684252 156.58547486015595,177.78655381657882 152.36201117304154,175.9844174083555 144.03575418959372,183.47018450696487 141.4413407817483,187.14372621424263 147.47486033500172,192.82728118507657 151.03463687119074,189.08445747278165 151.5776536311023,189.50032775918953 150.06927374284714,191.57967549713794 158.3351955304388,193.31246057635872 160.9899441341404,196.50077395321568 155.378770949319,186.2426705926773 155.98212290508673,184.37124368536752 158.93854748620652,181.87600005220156 155.68044692720287,179.86593623377848 153.8703910612967,176.40029545151629 152.60335195506923,175.9151043772581 151.51731843547896,176.67754734342452 152.06033519562334,177.16273789084516" stroke="#4dd2ff" stroke-linecap="round" stroke-linejoin="round" stroke-width="0.5"><title>2021-04-02 3.1km</title></polyline><polyline fill="none" points="180.4510638298234,194.34746444896155 177.92340425529983,193.46765793619852 173.15531914890744,193.37967709400982 167.98510638298467,192.69782439009578 167.5446808511624,192.2799136378453 167.19999999995343,190.19034812839527 167.69787234044634,189.79442824648868 168.7319148936076,189.75043710503087 167.79361702129245,186.8250067242625 168.02340425539296,182.86571651382837 169.4595744680846,180.82005569181638 170.0340425532777,179.43427479383536 172.772340425523,177.542559981026 173.88297872350086,178.75237944399123 174.91702127666213,178.97234591370216 175.4531914893305,179.61024744875613 177.71276595746167,179.61024744875613 181.19787234044634,180.16016110031342 182.88297872338444,181.04002012169803 185.6787234043004,183.5256030979508 188.32127659558319,188.10076303806272 188.39787234039977,188.694647108161 187.78510638291482,189.22254273148428 187.53617021278478,190.05837491249258 188.07234042545315,190.03637936891755 188.80000000004657,191.9059928271745 188.32127659558319,192.89578184153652 186.65531914890744,193.20371530551347 186.25319148926064,193.7096050732507 185.31489361694548,193.24770576560695 184.9127659574151,193.42366751944064 183.9170212765457,193.11573435919126 183.43829787231516,194.45744001898856 183.28510638291482,194.3034742057789" stroke="#4dd2ff" stroke-linecap="round" stroke-linejoin="round" stroke-width="0.5"><title>2021-04-02 3.2km</title></polyline><polyline fill="none" points="13.463129973504692,208.1737890126533 20.768169761286117,211.43135781673482 24.721485411166213,211.39845324031194 27.127851458848454,211.9578305973846 30.364986737491563,211.16812111492618 32.800000000046566,211.20102571387542 27.29973474808503,211.92492607302847 24.893368700286373,211.36554866074584 20.997347480151802,211.56297608980094 15.95543766580522,210.11517223037663 11.199999999953434,208.0421694025863" stroke="#4dd2ff" stroke-linecap="round" stroke-linejoin="round" stroke-width="0.5"><title>2021-04-01 1.4km</title></polyline><polyline fill="none" points="37.199999999953434,207.2794083393528 39.63927986915223,209.75637384262518 42.50278232409619,210.36546143773012 45.86121112946421,212.1115075496491 50.45695581031032,212.03029626677744 53.00229132571258,212.7205916606472 58.800000000046566,212.03029626677744 54.73453355161473,212.63938049794524 49.820621931226924,211.9084793124639 45.43698854348622,212.1115075496491 38.86153846140951,210.32485562603688 38.189852700568736,209.95940314105246 38.96759410807863,209.63455621540197" stroke="#4dd2ff" stroke-linecap="round" stroke-linejoin="round" stroke-width="0.5"><title>2021-03-29 1.2km</title></polyline><polyline fill="none" points="73.60610773414373,220.79999999998836 72.59949416550808,215.12380938709248 71.8992412481457,214.9228811300709 68.48550827638246,210.00011415043264 66.20968629512936,209.79918387840735 73.29974708263762,199.19999999998254 75.66310067870654,200.65677290415624 80.30227625579573,205.37869790161494 79.82085237512365,208.74429865402635 81.79031370510347,220.29768478992628 75.53180325683206,216.12844948653947 73.25598127534613,215.67636168620083 73.03715223865584,216.63076879555592" stroke="#4dd2ff" stroke-linecap="round" stroke-linejoin="round" stroke-width="0.5"><title>2021-03-28 1.4km</title></polyline><polyline fill="none" points="99.73415384616237,206.0875407375279 100.96369230758864,206.8127859272936 101.26276923064142,206.20205322626862 102.45907692308538,206.12571157084312 102.724923076923,205.51497778543853 103.09046153828967,205.93485736649018 103.65538461541291,205.51497778543853 105.41661538451444,206.50741969732917 106.44676923076622,205.74400306795724 109.47076923062559,206.66010284234653 109.2713846154511,205.89668651425745 110.7003076922847,206.04936990048736 109.63692307681777,205.66766132219345 109.90276923077181,205.0569268138206 109.9692307690857,205.89668651425745 109.80307692300994,205.51497778543853 109.43753846152686,206.01119905951782 109.50399999995716,205.40046509329113 109.9692307690857,206.04936990048736 109.47076923062559,205.89668651425745 110.46769230766222,205.78217393517843 110.46769230766222,206.16388240037486 110.035692307516,205.62949044359266 109.3378461538814,206.01119905951782 110.73353846149985,205.78217393517843 110.30153846147005,205.4386359944765 110.16861538449302,206.58376127740485 109.57046153838746,206.0875407375279 109.50399999995716,206.50741969732917 110.33476923056878,205.9730282149394 109.9692307690857,206.01119905951782 110.79999999993015,207.0418104416749 110.7003076922847,205.93485736649018 110.20184615382459,206.01119905951782 110.46769230766222,206.54559048920055 109.73661538469605,206.77461516176118 109.63692307681777,206.35473649192136 109.23815384611953,206.92729820142267 107.84246153838467,206.73644439244526 107.84246153838467,205.9730282149394 108.1747692306526,212.53835812423495 104.41969230771065,213.37810158979846 101.3624615384033,212.38567729844362 101.59507692302577,212.88188976232777 100.66461538453586,212.38567729844362 95.28123076912016,212.1184857081971 92.58953846152872,212.92005992544 92.35692307678983,214.29418329225155 91.72553846158553,214.7903933088819 89.56553846143652,214.9430731861503 89.19999999995343,214.33235331607284" stroke="#4dd2ff" stroke-linecap="round" stroke-linejoin="round" stroke-width="0.5"><title>2021-03-26 1.5km</title></polyline><polyline fill="none" points="117.48292682936881,208.63126527593704 124.33170731714927,211.4263691099477 126.74006968643516,211.25347686518217 128.84738675958943,211.71452262398088 131.88292682927568,211.10939991637133 133.0871080138022,211.25347686518217 136.79999999993015,209.92796625601477 133.5135888501536,211.25347686518217 129.2738675958244,211.59926125247148 127.0411149825668,211.13821531180292 124.55749128921889,211.33992300037062 119.21393728221301,210.04322828681325 115.19999999995343,208.28547737599" stroke="#4dd2ff" stroke-linecap="round" stroke-linejoin="round" stroke-width="0.5"><title>2021-03-26 1.6km</title></polyline><polyline fill="none" points="162.79999999981374,211.91659649994108 161.149745330913,211.705982393265 158.69269949034788,210.14743477504817 156.6023769096937,210.18955775853829 153.59524617972784,209.01011265337002 146.2607809845358,209.22072808965459 147.36095076380298,209.76832773769274 146.92088285204954,209.89469678746536 141.19999999995343,208.08340350005892 145.82071307254955,209.85257377498783 152.38505942258053,210.27380371282925 157.99592529702932,211.62173672145582" stroke="#4dd2ff" stroke-linecap="round" stroke-linejoin="round" stroke-width="0.5"><title>2021-03-24 1.1km</title></polyline><polyline fill="none" points="188.79999999993015,211.58436208078638 187.2445652174065,211.48323304005316 185.71847826091107,210.33710182108916 183.28260869567748,209.9325840025558 181.28695652179886,209.02241716056596 175.18260869570076,209.15725684558856 175.7108695653733,209.7303249137476 170.92717391310725,208.41563791921362 167.19999999995343,208.88757742225425 168.66739130439237,209.08983700969839 171.04456521733664,208.4493479053781 175.44673913053703,209.79774462341447 183.45869565219618,210.13484297165996" stroke="#4dd2ff" stroke-linecap="round" stroke-linejoin="round" stroke-width="0.5"><title>2021-03-23 1.3km</title></polyline><polyline fill="none" points="32.369148936122656,235.07226263763732 25.102127659600228,232.53183448678465 22.14361702115275,233.0267246006115 19.213829787215218,232.69679793936666 20.018085106275976,233.22468044125708 19.702127659576945,233.32365831767675 15.077659574337304,231.93796538349125 11.199999999953434,232.49884178640787 14.790425531915389,232.00395089149242 19.12765957438387,233.25767306992202 24.872340425499715,233.6535843606398 32.800000000046566,236.06203461650875 31.50744680839125,235.43517936990247 32.800000000046566,235.07226263763732" stroke="#4dd2ff" stroke-linecap="round" stroke-linejoin="round" stroke-width="0.5"><title>2021-03-22 1.6km</title></polyline><polyline fill="none" points="55.59387911239173,223.33357029205945 55.89135424635606,223.5421696606645 55.72609028307488,224.20589342516905 57.22999234893359,224.43345533344836 57.626625860692,224.75583424443903 57.49441469012527,225.34370028464764 58.08936495782109,225.74193110143824 58.79999999998836,226.9745450904884 58.37031369539909,228.1123356349126 57.74231063504703,228.3778191305464 57.510941086453386,229.06048930042016 54.45355776586803,231.71529479551828 51.08217291504843,233.0237212193315 50.02448354999069,233.70637496456038 49.21469013008755,234.38902629644144 46.851415455224924,237.65054935270746 37.20000000001164,244.66642970794055" stroke="#4dd2ff" stroke-linecap="round" stroke-linejoin="round" stroke-width="0.5"><title>2021-03-21 1.3km</title></polyline><polyline fill="none" points="72.99144724651705,232.12345238041598 72.71727756597102,230.37025749233726 70.83725689921994,228.03264339396264 70.07349850342143,227.80787154800782 67.48847008659504,230.167964909313 64.92302521842066,233.42710140236886 64.27676811430138,233.60691447717545 63.571760364226066,235.51741966354894 64.76635682955384,237.22562254712102 67.60597137827426,238.5741947561619 70.68058851035312,241.06903237420192 70.50433657283429,241.2038876862207 70.91559109371156,241.15893592438078 70.5435036701383,240.95665288683085 71.01350883673877,241.74330813872803 72.05143691319972,242.97947520951857 75.9877301841043,244.8000000000029 78.02441923972219,244.5977201834612 82.8223886495689,241.24883943918394 83.4686457538046,239.90028300539416 84.42823963589035,235.58484896672599 83.4686457538046,233.92158701785957 79.88485635793768,230.6175037395733 76.0073137327563,225.7399601950019 73.12853208673187,223.1999999999971 69.8972465659026,227.69548554210633 70.4847530242987,227.7629171522858 71.2876785172848,228.50466355135723 72.85436240618583,230.50511911488138 72.83477885765024,231.13447230160818" stroke="#4dd2ff" stroke-linecap="round" stroke-linejoin="round" stroke-width="0.5"><title>2021-03-20 3.7km</title></polyline><polyline fill="none" points="108.671921182191,239.4388168019068 101.29458128055558,237.07590951339807 93.49162561586127,236.8314700568153 89.30640394077636,235.9351908118697 89.19999999995343,234.46854785224423 89.80295566492714,233.81670486507937 89.23546798038296,232.71671749165398 89.37733990140259,230.80191766808275 91.61182266008109,228.5611831981223 95.30049261078238,229.009331064648 99.06009852210991,230.27229061772232 106.15369458124042,230.109328311868 109.94876847276464,229.49821909173625 110.40985221648589,228.96859036956448 109.73596059111878,230.516733956174 109.3103448273614,235.77223074028734 109.66502463049255,238.4610637013102 110.80000000004657,238.6647624548059" stroke="#4dd2ff" stroke-linecap="round" stroke-linejoin="round" stroke-width="0.5"><title>2021-03-19 1.6km</title></polyline><polyline fill="none" points="123.95359628775623,233.77934678878228 128.64779582375195,235.7940934147191 130.46867749432568,235.67896559811197 132.0556844547973,236.02434884350805 133.72621809749398,235.6597776221024 134.61160092806676,235.73652951495023 136.79999999998836,235.08413746055157 132.7406032483559,236.0051609014772 130.6524361949996,235.67896559811197 128.31368909520097,235.77490545003093 118.97540603252128,232.80074804219475 115.20000000001164,232.3977941863268 116.01856148493243,232.5129239445523 115.46728538285242,232.282664359911 115.63433874712791,232.18672278587474 116.90394431550521,232.26347604891635 118.59118329471676,231.97565115649195 119.15916473319521,232.3977941863268 119.49327146174619,232.18672278587474 119.89419953600736,232.57048879817012 120.24501160095679,232.45535907401063 120.69605568452971,232.83912455638347 121.26403712300817,232.62805363468942 122.43341067287838,233.47233594719728 122.66728538280586,233.18451284324692 122.06589327153051,232.282664359911 121.83201856154483,232.30185266905755 121.91554524365347,232.9542540534312 123.00139211135684,233.49152413901174 123.45243619498797,232.41698248412285 123.7030162413721,232.93506580867688 124.03712296986487,232.87750106291787 123.68631090491544,232.973442296352 123.88677494210424,232.91587756195804 123.40232018567622,232.24428773602995 124.12064965203172,232.18672278587474" stroke="#4dd2ff" stroke-linecap="round" stroke-linejoin="round" stroke-width="0.5"><title>2021-03-19 3.1km</title></polyline><polyline fill="none" points="150.2894876972423,244.8000000000029 150.16817476798315,244.42377020095591 149.93768020236166,244.38196682812122 149.59800400037784,244.70245903720206 150.01046795991715,242.34752106614178 149.85276115185115,242.91884098523587 149.92554890940664,243.96393241922488 149.69505434378516,244.14508081495296 148.38487470766995,244.11721184609632 148.22716789954575,243.28114022451336 148.33634953590808,242.54260617637192 151.5147482829052,241.8319376923464 153.64985583815724,241.6925905116077 153.57706808060175,228.21706872188952 154.29281436331803,227.29728613275802 155.77283210051246,225.98728240632045 155.50594365608413,225.31833964618272 153.6983810098609,223.1999999999971" stroke="#4dd2ff" stroke-linecap="round" stroke-linejoin="round" stroke-width="0.5"><title>2021-03-18 2.7km</title></polyline><polyline fill="none" points="174.5256624915637,243.01760866613768 175.13039118767483,243.1224558770191 175.221670990868,243.63358484537457 175.44987049879273,243.7646432384936 176.68214784166776,244.01365382934455 178.27954439731548,243.86948985989147 179.38631201081444,244.18402922785026 180.41320979659213,244.8000000000029 180.67563923064154,243.97433639861993 180.5273095505545,240.47503847291227 181.4743375084945,240.3832953400124 180.11655043624341,240.0032159716211 178.8044032655307,239.9376849361579 178.2224945203052,239.30858535117295 177.07008700515144,227.39444954277133 178.32518429885386,225.92640727000253 179.2151623798418,225.415210169871 178.57620375760598,224.27484031801578 177.4808461194625,223.1999999999971" stroke="#4dd2ff" stroke-linecap="round" stroke-linejoin="round" stroke-width="0.5"><title>2021-03-17 2.8km</title></polyline><polyline fill="none" points="11.927659574430436,256.83431946646306 12.195744680939242,256.83431946646306 13.536170212784782,257.4061738749733 13.919148936169222,257.89005010956316 17.902127659413964,258.98976687228424 22.114893617108464,259.5616185174731 23.53191489353776,259.4736413891369 24.527659574523568,259.6935841777304 25.025531915016472,259.8695383304439 27.017021276522428,260.1774579308403 28.663829787168652,260.8372849303705 29.199999999953434,260.969250213122 30.119148936355487,261.45312258254853 30.885106383124366,261.93699442697107 31.19148936169222,262.02497106959345 31.536170212784782,262.20092430277145 32.37872340413742,262.42086574662244 32.800000000046566,262.37687746656593 32.76170212775469,262.37687746656593 32.76170212775469,262.37687746656593 32.646808510879055,262.42086574662244 32.72340425546281,262.37687746656593 32.76170212775469,262.37687746656593 32.800000000046566,262.42086574662244 32.57021276582964,262.37687746656593 32.072340425569564,262.37687746656593 30.38723404239863,262.42086574662244 29.238297872478142,262.06895938445814 28.12765957438387,261.849017767061 27.017021276522428,261.7610410898051 25.906382978660986,261.80502943051397 25.331914893817157,261.849017767061 24.221276595722884,261.93699442697107 23.72340425522998,261.93699442697107 22.0,261.80502943051397 21.463829787215218,261.6730643949704 20.42978723393753,261.40913420694415 19.89361702138558,261.1452038627467 18.859574468107894,260.7932964939682 18.323404255323112,260.61734270560555 16.140425531892106,260.1774579308403 14.72340425546281,259.60560707523837 14.608510638354346,259.34167566380347 15.068085106322542,259.25369849195704 15.259574468014762,259.25369849195704 15.412765957415104,259.07774409631384 15.259574468014762,259.0337554864527 14.876595744630322,258.9457782538666 14.685106382938102,258.9017896311416 14.570212766062468,258.8578010039637 14.34042553184554,258.8578010039637 14.187234042678028,258.7698237366567 13.995744680752978,258.7698237366567 13.804255319060758,258.7698237366567 13.536170212784782,258.681846452062 13.344680851092562,258.59386915012146 13.229787233984098,258.54988049255917 12.846808510599658,258.3299371400499 12.731914893491194,258.2419597686385 12.540425532031804,258.1099936789251 12.42553191492334,258.0220162642363 12.310638297814876,257.89005010956316 12.157446808414534,257.71409517590655 11.889361702138558,257.4941514112579 11.65957446815446,257.3621851003263 11.544680851045996,257.2742075380229 11.353191489353776,257.0542635564634 11.27659574453719,256.65836411633063 11.27659574453719,256.3064532079152 11.238297872478142,256.0865087490529 11.199999999953434,255.91055310392403 11.314893617061898,255.55864160554484 11.27659574453719,255.07476284180302 11.27659574453719,254.8548177756893 11.238297872478142,254.72285068387282 11.314893617061898,254.59088355317363 11.27659574453719,254.5468945009343 11.314893617061898,254.2389710135758 11.353191489353776,254.01902553523541 11.544680851045996,253.97503642659285 11.927659574430436,253.84306907452992 12.119148936122656,253.75509081812925 12.23404255323112,253.71110168349696 12.463829787215218,253.62312340116478 12.502127659507096,253.62312340116478 12.502127659507096,253.57913425340666 12.540425532031804,253.57913425340666" stroke="#4dd2ff" stroke-linecap="round" stroke-linejoin="round" stroke-width="0.5"><title>2021-03-02 1.4km</title></polyline><polyline fill="none" points="41.16837209300138,258.3173654836719 41.41953488369472,258.4327591159381 44.18232558132149,258.95203018025495 45.94046511640772,259.5866941881832 46.593488371931016,259.87517760071205 48.351627907017246,260.3367507646326 49.00465116254054,260.3367507646326 50.86325581395067,260.22135750798043 51.46604651142843,260.0482675798703 53.32465116260573,259.9328742660582 54.47999999998137,260.3367507646326 55.08279069769196,260.5675372101832 56.1376744187437,260.97141327062855 57.14232558128424,261.1445029254537 58.398139534983784,261.0291098279995 58.59906976716593,260.9137167077279 58.799999999813735,261.0291098279995 58.7497674417682,261.8368610329344 57.84558139531873,262.0676468866295 57.092093023238704,262.7023075147881 56.74046511598863,262.81770028255414 56.38883720920421,262.93309302732814 56.187906976556405,262.93309302732814 55.88651162781753,262.9907893910422 55.68558139540255,263.1061821016483 54.98232558136806,263.394663778774 55.08279069769196,263.6831453135237 55.43441860447638,263.913930439041 55.43441860447638,263.97162670624675 55.43441860447638,264.02932296763174 55.484651162754744,263.97162670624675 55.2334883720614,263.913930439041 54.93209302308969,264.02932296763174 54.83162790699862,264.0870192233124 54.731162790441886,264.1447154734633 54.68093023239635,264.20241171779344 54.68093023239635,264.20241171779344 54.47999999998137,263.913930439041 54.37953488365747,263.79853788769105 54.2288372090552,263.62544901808724 54.178604651009664,263.5100564098102 53.67627906985581,263.394663778774 53.47534883697517,263.394663778774 53.22418604651466,263.394663778774 52.97302325582132,263.33696745481575 52.67162790708244,263.33696745481575 52.420465116156265,263.33696745481575 51.91813953476958,263.22157478972804 51.66697674407624,263.16387844854034 51.415813953615725,263.1061821016483 51.16465116268955,263.04848574922653 50.6623255815357,262.93309302732814 50.46139534865506,262.81770028255414 50.21023255819455,262.7600039015524 49.959069767501205,262.6446111225523 49.70790697657503,262.5292183208512 49.506976744160056,262.35612907569157 49.05488372081891,262.1253433357924 48.60279069747776,261.8945575047983 48.25116279092617,261.548378587584 47.99999999976717,261.4329855698743 47.74883720930666,261.31759252917254 47.497674418613315,261.2021994657698 47.24651162768714,261.0868063796079 47.09581395355053,261.0291098279995 46.69395348825492,260.85602013889 46.493023255839944,260.79832356458064 46.29209302319214,260.7406269844505 46.09116279054433,260.62523380731 45.84000000008382,260.5675372101832 45.588837209157646,260.5098406074103 45.036279069725424,260.4521439987584 44.83534883731045,260.394447384635 44.584186046384275,260.3367507646326 44.282790697645396,260.3367507646326 44.08186046499759,260.2790541391587 43.579534883610904,260.22135750798043 43.32837209291756,260.105964228278 42.87627906980924,259.75978425279027 42.37395348842256,259.5866941881832 42.17302325577475,259.5289974886691 41.92186046508141,259.4713007835089 41.62046511634253,259.41360407252796 41.41953488369472,259.35590735595906 41.16837209300138,259.2405139054172 40.71627906966023,259.0097269366379 40.46511627919972,258.89433341799304 40.26418604631908,258.7789398766472 39.76186046516523,258.4904559236602 39.61116279079579,258.3750623026863 39.41023255791515,258.25966865901137 38.95813953480683,257.97118444991065 38.75720930239186,257.7980938562541 38.506046511698514,257.45191251521464 38.15441860468127,257.04803402512334 37.55162790697068,256.5864582664799 37.55162790697068,256.41336726327427 37.45116279064678,256.1248821437475 37.350697674555704,255.89409394573886 37.199999999953434,255.1440316736116 37.350697674555704,254.8555459283525 37.40093023236841,254.5670600407757 37.45116279064678,254.33627122826874 37.50139534892514,254.16317955916747 37.50139534892514,253.8746933301445 37.50139534892514,253.12462846905692 37.50139534892514,252.60535223275656 38.053953488357365,252.37456264632056 38.45581395342015,252.14377296896419 38.807441860670224,252.0283780960599 39.05860465136357,251.97068065113854 39.15906976745464,251.85528574418277 39.8623255812563,251.79758828220656" stroke="#4dd2ff" stroke-linecap="round" stroke-linejoin="round" stroke-width="0.5"><title>2020-12-25 1.0km</title></polyline><polyline fill="none" points="63.52481202990748,255.50505844311556 63.76842105272226,255.7382317239244 63.971428571268916,255.9714048897149 64.41804511263035,256.25121253708494 66.16390977427363,256.71755824791035 67.09774436079897,256.99736545371707 67.70676691737026,257.1372689946147 70.54887218028307,258.2564958309231 71.36090225563385,258.81610825585085 72.29473684192635,259.23581713973545 73.67518796981312,259.74879415892065 74.20300751877949,259.8420626479783 75.17744360910729,259.8420626479783 75.74586466164328,259.8420626479783 76.72030075173825,259.65552565146936 77.61353383469395,259.5622571253625 78.62857142859139,259.6088913907006 79.19699248112738,259.5622571253625 80.78045112779364,259.8420626479783 81.30827067652717,260.0285995710874 82.3233082704246,260.2151364206511 82.89172932342626,260.1685022150923 83.9067669173237,260.1218680050515 84.35338345868513,260.0752337904123 84.80000000004657,260.2617706215824 84.7593984962441,260.3084048177989 84.63759398506954,260.35503900944605 84.59699248126708,260.4016731965821 84.59699248126708,260.4483073790034 84.55639097746462,260.4016731965821 84.47518797009252,260.49494155685534 84.47518797009252,260.4016731965821 84.51578947389498,260.4483073790034 84.55639097746462,260.49494155685534 84.51578947389498,260.4483073790034 84.59699248126708,260.35503900944605 84.55639097746462,260.35503900944605 84.51578947389498,260.35503900944605 84.51578947389498,260.4016731965821 84.51578947389498,260.35503900944605 84.51578947389498,260.35503900944605 84.51578947389498,260.35503900944605 84.51578947389498,260.4016731965821 84.47518797009252,260.4016731965821 84.47518797009252,260.4016731965821 84.43458646605723,260.4016731965821 84.3939849624876,260.4016731965821 84.47518797009252,260.4016731965821 84.47518797009252,260.4016731965821 84.47518797009252,260.4016731965821 84.43458646605723,260.4016731965821 84.43458646605723,260.4483073790034 84.35338345868513,260.4016731965821 83.4195488721598,260.4016731965821 82.3639097744599,260.4016731965821 81.30827067652717,260.1685022150923 80.8210526315961,260.0285995710874 79.80601503746584,259.74879415892065 79.27819548873231,259.65552565146936 78.18195488722995,259.65552565146936 77.65413533849642,259.6088913907006 76.55789473699406,259.7021599073778 75.4210526314564,259.8420626479783 74.89323308272287,259.8420626479783 73.79699248122051,259.7954284057778 73.22857142845169,259.65552565146936 70.67067669169046,258.81610825585085 70.14285714295693,258.6295708543621 68.6406015038956,258.2564958309231 68.23458646610379,258.2098614323768 66.6105263158679,257.9300549439795 65.67669172910973,257.51034490103484 65.1488721803762,257.2305379988684 64.13383458647877,256.67092369752936 63.199999999953434,256.3444817160489" stroke="#4dd2ff" stroke-linecap="round" stroke-linejoin="round" stroke-width="0.5"><title>2020-12-08 1.1km</title></polyline><polyline fill="none" points="89.19999999995343,255.77350431791274 89.40769230760634,255.81326338712825 90.79230769223068,256.88675676990533 91.24230769230053,257.0457925835217 93.00769230758306,257.5626585446007 93.83846153842751,257.80121184160816 94.25384615384974,257.96024729442433 95.22307692305185,258.318076834199 96.08846153842751,258.7554236180731 96.53846153849736,259.03373496080167 98.75384615373332,259.7891504939762 99.23846153856721,259.82890916700126 100.62307692307513,259.6698744512396 101.03846153838094,259.63011576244025 103.21923076920211,259.6698744512396 103.66923076903913,259.7096331360517 105.01923076924868,260.1072197687754 106.4038461537566,260.22649568208726 106.81923076917883,260.18673704814864 107.71923076931853,260.22649568208726 109.10384615371004,260.02770247348235 109.51923076913226,259.98794382004417 110.38461538462434,259.90842650135164 110.79999999993015,259.8686678361846 110.62692307692487,259.55059837320005 109.65769230760634,259.51083967264276 109.24230769230053,259.55059837320005 108.37692307692487,259.7891504939762 108.0653846153291,259.8686678361846 107.16538461530581,260.06746112307883 106.74999999988358,260.1072197687754 105.88461538450792,260.1072197687754 105.43461538455449,260.02770247348235 104.56923076906241,259.8686678361846 104.15384615387302,259.7493918169057 102.80384615377989,259.51083967264276 102.35384615382645,259.51083967264276 101.45384615380317,259.55059837320005 100.9692307690857,259.55059837320005 100.06923076917883,259.63011576244025 99.16923076915555,259.6698744512396 98.30384615377989,259.63011576244025 97.47307692305185,259.43132225988666 97.05769230762962,259.31204611138673 96.15769230772275,259.03373496080167 95.74230769230053,258.8746999313298 94.91153846145608,258.5963884788216 93.80384615366347,258.27831801210414 93.49230769218411,258.23855918616755 92.66153846145608,258.03976499740384 91.51923076924868,257.68193521071225 91.2076923076529,257.4433818432153 90.4807692306349,257.0457925835217 90.09999999997672,256.84699780662777" stroke="#4dd2ff" stroke-linecap="round" stroke-linejoin="round" stroke-width="0.5"><title>2020-12-03 1.3km</title></polyline><polyline fill="none" points="136.57183098583482,258.56783315117355 136.76197183085606,259.26669882109854 136.80000000004657,259.48509411676787 136.15352112683468,259.87820537763764 135.0507042251993,259.834526365943 133.5295774647966,259.57245220491313 132.08450704207644,258.960945226223 131.59014084516093,258.87358701741323 128.77605633810163,257.78160795453005 127.74929577461444,257.60689105445636 126.19014084502123,257.6505702859722 125.12535211257637,257.60689105445636 124.3647887322586,257.60689105445636 123.90845070406795,257.60689105445636 122.88169014081359,257.5195325787645 122.53943661949597,257.47585333450115 121.36056338017806,257.38849483264494 120.9042253519874,257.3448155754595 119.30704225343652,257.213777777768 118.81267605605535,257.1264192244271 117.8239436619915,257.0390606537985 116.53098591556773,256.47122952505015 116.03661971818656,256.29651210826705 115.19999999995343,256.12179462239146 116.15070422529243,256.3401914689457 116.98732394375838,256.73330552110565 117.8239436619915,257.1264192244271 118.31830985913984,257.17009850317845 119.57323943660595,257.3011363137921 119.95352112664841,257.3448155754595 120.94225352117792,257.4321740856976 121.43661971809343,257.47585333450115 122.46338028158061,257.47585333450115 122.9197183100041,257.5195325787645 123.94647887325846,257.60689105445636 124.40281690144911,257.60689105445636 125.80985915474594,257.6505702859722 126.26619718316942,257.6505702859722 126.950704225339,257.56321181877865 127.17887323931791,257.56321181877865 127.33098591538146,257.56321181877865 127.48309859144501,257.56321181877865 127.63521126750857,257.56321181877865 127.8253521125298,257.5195325787645 128.01549295755103,257.5195325787645 128.39577464782633,257.56321181877865 128.54788732388988,257.56321181877865 128.8901408452075,257.6942495130643 129.23239436605945,257.8689663785335 129.19436619710177,257.95632478545303 129.19436619710177,258.00000398236443 129.1563380281441,258.00000398236443" stroke="#4dd2ff" stroke-linecap="round" stroke-linejoin="round" stroke-width="0.5"><title>2020-11-30 1.0km</title></polyline></svg>