<?xml version="1.0" encoding="utf-8" ?>
<svg baseProfile="full" height="300mm" version="1.1" viewBox="0,0,200,300" width="200mm" xmlns="http://www.w3.org/2000/svg" xmlns:ev="http://www.w3.org/2001/xml-events" xmlns:xlink="http://www.w3.org/1999/xlink"><defs /><rect fill="#222222" height="300" width="200" x="0" y="0" /><text fill="#FFFFFF" style="font-size:12px; font-family:Arial; font-weight:bold;" x="10" y="20">Over 3km Runs</text><text fill="#FFFFFF" style="font-size:4px; font-family:Arial" x="10" y="280">ATHLETE</text><text fill="#FFFFFF" style="font-size:9px; font-family:Arial" x="10" y="290">jdzj</text><text fill="#FFFFFF" style="font-size:4px; font-family:Arial" x="120" y="280">STATISTICS</text><text fill="#FFFFFF" style="font-size:3px; font-family:Arial" x="120" y="285">Number: 49</text><text fill="#FFFFFF" style="font-size:3px; font-family:Arial" x="120" y="290">Weekly: 3.3</text><text fill="#FFFFFF" style="font-size:3px; font-family:Arial" x="141" y="285">Total: 90.7 km</text><text fill="#FFFFFF" style="font-size:3px; font-family:Arial" x="141" y="290">Avg: 1.9 km</text><text fill="#FFFFFF" style="font-size:3px; font-family:Arial" x="167" y="285">Min: 1.0 km</text><text fill="#FFFFFF" style="font-size:3px; font-family:Arial" x="167" y="290">Max: 4.9 km</text><polyline fill="none" points="12.204841713188216,40.96551096744952 15.65735567966476,42.9290779500152 21.959031657432206,45.277645094756735 24.8752327747643,45.00813810728141 28.562383612734266,45.701155699265655 34.76350093120709,44.77713196989498 35.33333333337214,44.31511928513646 34.69646182493307,44.81563300231937 28.797020484227687,45.470149971952196 20.584729981375858,44.93113607677515 15.121042830636725,43.468094609561376 11.333333333372138,41.50453033836675" stroke="#4dd2ff" stroke-linecap="round" stroke-linejoin="round" stroke-width="0.5"><title>2021-05-27 1.4km</title></polyline><polyline fill="none" points="66.0,45.05927781277569 62.994782608700916,44.91544991481351 56.90086956531741,42.61419775846298 47.6765217394568,42.27859757540864 42.0,40.744422359217424 45.50608695670962,42.08682593819685 54.98086956515908,42.94979770982172 64.7478260868229,45.92224430743954 65.54086956521496,45.682531545870006" stroke="#4dd2ff" stroke-linecap="round" stroke-linejoin="round" stroke-width="0.5"><title>2021-05-25 1.1km</title></polyline><polyline fill="none" points="73.32749269925989,41.383988208166556 74.4689194826642,42.31553761687246 78.283687943127,42.66055528682773 82.06841885694303,44.83415878310916 86.60408844379708,44.66165106242988 89.1572799332207,45.07566944899736 94.50396328733768,44.31663536615088 96.66666666662786,43.247084544884274 96.66666666662786,44.04062256391626 88.13600333745126,45.28267845851951 84.8919482686324,44.73065416098689 82.00834376295097,44.97216489829589 76.30120984558016,43.592101296118926 72.66666666662786,41.970519606547896" stroke="#4dd2ff" stroke-linecap="round" stroke-linejoin="round" stroke-width="0.5"><title>2021-05-24 1.6km</title></polyline><polyline fill="none" points="112.68217054265551,42.71228242554935 118.26356589142233,42.872554820933146 118.26356589142233,43.55371179623762 121.82170542643871,45.15642958608805 127.33333333337214,44.63554699791712 121.71705426357221,45.19649744979688 117.74031007755548,44.51534322890802 113.58914728672244,44.715682824200485 103.33333333337214,41.47016921688919" stroke="#4dd2ff" stroke-linecap="round" stroke-linejoin="round" stroke-width="0.5"><title>2021-05-21 1.1km</title></polyline><polyline fill="none" points="148.3874407170806,55.333333333343035 149.24305530940183,54.50905657981639 148.96705060231034,53.684777712333016 149.40865813370328,49.84868286468554 151.0646863769507,49.27802021498792 151.42349249636754,48.42202434054343 153.4107263883343,48.89757788556744 157.49559605494142,48.32691354712006 157.35759370110463,46.48809934165911 155.97757016518153,43.50792983881547 153.21752309321892,39.64000906271394 151.23028920125216,37.769440511619905 148.0562350684777,35.89886107246275 143.55735834105872,35.264763876388315 141.9013300979277,34.59896047381335 139.472488674568,34.94771480909549 136.43643689516466,33.140529152791714 135.85682701016776,31.333333333343035 134.50440394494217,31.80891216584132 134.5872053570347,32.823477989732055" stroke="#4dd2ff" stroke-linecap="round" stroke-linejoin="round" stroke-width="0.5"><title>2021-05-20 1.7km</title></polyline><polyline fill="none" points="164.78205128223635,41.27903969096951 164.66666666674428,38.82710637530545 169.80128205148503,37.89934548991732 188.26282051298767,38.296957454876974 188.66666666674428,47.309432209061924 187.57051282050088,48.10464476526249 178.22435897449031,47.309432209061924 177.0705128207337,48.10464476526249 169.97435897449031,48.76732117671054 165.87820512847975,48.17091243597679 164.95512820524164,47.37569995794911 164.95512820524164,40.483819055662025" stroke="#4dd2ff" stroke-linecap="round" stroke-linejoin="round" stroke-width="0.5"><title>2021-05-18 1.1km</title></polyline><polyline fill="none" points="11.333333333372138,70.81656326903612 12.267020335886627,71.69402655756858 16.829354553483427,73.61956007643312 19.694076038897038,73.54643882444361 21.625110521679744,73.98516601187293 24.956675508408807,73.59518632819527 28.627763041644357,72.52273902489105 29.6675508399494,71.88901797631115 31.34394341299776,70.71906715576188 35.33333333337214,66.79481666500214 34.69672855886165,66.01483398814162 33.12643678160384,67.23355583875673 23.938107869238593,68.2329032713169 22.601237842580304,67.86728882577154 15.365163572016172,67.64791989880905 14.98320070724003,68.25727754842956 15.068081343895756,68.01353466892033 14.643678160966374,68.18415470984473 14.198054818669334,69.1103757336241 13.540229885024019,69.3784916978766 11.630415561492555,68.9885047445714 11.35455349239055,68.47664593446825" stroke="#4dd2ff" stroke-linecap="round" stroke-linejoin="round" stroke-width="0.5"><title>2021-05-10 2.5km</title></polyline><polyline fill="none" points="66.0,77.66416742117144 65.88049792533275,76.97784573436365 65.06390041508712,76.1313795237511 63.769294605823234,76.7719488323055 63.11203319509514,76.56605174747529 63.07219917024486,75.92548187026114 63.51037344406359,75.19339984432736 63.35103734442964,73.15728455914359 62.873029045644216,72.47094953607302 60.34356846474111,73.24879574213992 58.65062240662519,73.06577334013127 58.59087136934977,72.53958312976465 54.209128630696796,72.60821670321457 51.918672199128196,72.24217074367334 48.25394190871157,72.90562861990475 45.644813278107904,72.97426208495745 43.57344398344867,72.51670526748057 42.0,69.79422353924019 44.2904564315686,68.14699218583701 45.30622406641487,67.02595304638089 47.397510373499244,65.95066551478521 47.65643153525889,65.1727948308253 49.867219917010516,64.1890134645073 51.998340249061584,62.724773004927556 51.141908713732846,63.6856818493834 48.77178423246369,64.71522262143844 46.541078838170506,62.74765183319687 45.126970954355784,62.33583257882856" stroke="#4dd2ff" stroke-linecap="round" stroke-linejoin="round" stroke-width="0.5"><title>2021-05-08 2.6km</title></polyline><polyline fill="none" points="96.66666666674428,65.84912781661842 96.50954719050787,67.51851242731209 91.79596290225163,67.78922287124442 91.08892525918782,69.09765442466596 83.82214948162436,67.42827557717101 80.0512820512522,67.74410447510309 78.67648663395084,68.51111660496099 73.33442444074899,67.33803870904376 72.66666666674428,68.42087995051406 78.2444080740679,70.40608223580057 86.3360611021053,71.21820796022075 96.50954719050787,74.15087218341068" stroke="#4dd2ff" stroke-linecap="round" stroke-linejoin="round" stroke-width="0.5"><title>2021-05-08 1.3km</title></polyline><polyline fill="none" points="127.33333333337214,69.59783373813843 126.7285587976221,69.92688456462929 123.16357206029352,68.61067950617871 122.59062776318751,69.12253758427687 118.96198054822162,67.73320687070373 116.60654288250953,68.83004734042333 111.48187444743235,69.15909884838038 108.20335985859856,68.09882072126493 104.89301503100432,68.68380213199998 103.7471264366759,68.50099554032204 103.33333333337214,67.91601384110982 108.64898320066277,68.13538208653335 111.76834659604356,69.52471129255719 116.86118479236029,69.3784663581755 127.14235190115869,72.26679312932538" stroke="#4dd2ff" stroke-linecap="round" stroke-linejoin="round" stroke-width="0.5"><title>2021-05-07 1.5km</title></polyline><polyline fill="none" points="134.11076923063956,74.60903522447916 134.0,73.97184780446696 135.77230769232847,73.37713868945139 136.51076923077926,71.59300638487912 145.77846153848805,66.07064495488885 148.73230769229122,66.92024366065743 149.43384615378454,67.85480028827442 150.28307692310773,65.77328500922886 149.95076923072338,65.39096477549174 149.95076923072338,66.83528386597754 149.7661538461689,66.36800469385344 149.06461538467556,67.98223967038211 149.98769230768085,66.92024366065743 149.1015384614002,67.85480028827442 149.58153846138157,66.28304478953942 149.24923076923005,67.93975988053717 150.06153846159577,67.2176028091344 151.57538461545482,67.47248191465042 153.82769230753183,66.66536422612262 155.89538461528718,66.75032405441743 158.0,67.98223967038211 156.63384615373798,67.04768332091044 154.9723076922819,66.83528386597754 151.09538461524062,67.76984067924786 149.17538461531512,66.5379244518117" stroke="#4dd2ff" stroke-linecap="round" stroke-linejoin="round" stroke-width="0.5"><title>2021-05-06 1.2km</title></polyline><polyline fill="none" points="170.65532451169565,72.18914167786716 171.69880277267657,69.94799693243112 179.1392564587295,64.42327391519211 182.26969124143943,61.08756410970818 186.39823566493578,58.898493098735344 187.98613736615516,60.40999548067339 188.66666666674428,75.78537732420955 187.80466288584284,71.19886959093856 175.3282923756633,78.02649729774566 172.06175173283555,74.89935052534565 165.93698802776635,78.23497309093364 164.66666666674428,80.37184522557072 165.98235664796084,81.10150690126466 169.8840579711832,77.45318844233407 171.33585381228477,74.11756093910662 170.51921865157783,72.91881465882761" stroke="#4dd2ff" stroke-linecap="round" stroke-linejoin="round" stroke-width="0.5"><title>2021-05-06 1.8km</title></polyline><polyline fill="none" points="25.871192341204733,92.95452882733662 28.033072236692533,92.30262820480857 28.25239338562824,91.61450959285139 25.745865970500745,90.6004376479541 26.059181897318922,90.67287145371665 25.683202785090543,91.07125712258858 27.531766753760166,91.79559356640675 29.1610095736105,91.54207597786444 28.628372497856617,93.8961609636026 30.25761531770695,92.99074549373472 30.19495213229675,93.67886145980447 30.852915578871034,93.64264486293541 33.296779808588326,95.59833584629814 35.08268059173133,95.99671603288152 35.11401218455285,97.01077268848894 34.550043516093865,97.807529473881 35.33333333337214,101.42912887225975 34.67536988691427,102.73289568538894 17.255004351725802,100.6685960382456 12.398607484763488,101.32048142352141 11.333333333372138,102.11722861544695 12.085291557945311,101.35669724352192" stroke="#4dd2ff" stroke-linecap="round" stroke-linejoin="round" stroke-width="0.5"><title>2021-05-02 1.6km</title></polyline><polyline fill="none" points="49.35189873422496,90.94045981910313 51.053164556855336,91.64307025959715 53.11898734187707,89.88654282281641 61.32151898718439,88.55157899385085 64.96708860760555,90.02706518152263 66.0,92.48620184866013 64.72405063314363,99.51225854584482 54.39493670873344,103.16577988734934 42.7291139238514,104.78175433946308 42.0,103.58733880321961 47.04303797450848,89.11366934044054" stroke="#4dd2ff" stroke-linecap="round" stroke-linejoin="round" stroke-width="0.5"><title>2021-05-01 1.0km</title></polyline><polyline fill="none" points="84.1151826530695,95.6812844161177 82.66127025336027,98.00012429011986 80.50546910963021,93.53634916536976 80.60573893017136,91.91314957605209 82.36046079173684,89.18848276976496 85.11788085941225,88.02904615050647 92.23703812574968,88.1449899179861 96.39823568286374,84.66666666668607 91.13407009863295,88.3768773828051 78.75074724806473,86.69569113344187 77.69791413121857,87.21743911877275 75.64238280802965,91.62329202197725 74.94049406331033,102.40589415928116 74.08820058801211,105.18846817588201 73.0855023812037,105.59425908932462 72.93509765039198,108.66666666668607 73.73725621541962,108.26087793230545 74.08820058801211,106.3478700221749 75.4418431664817,91.27546276326757 77.24669993831776,89.47834155743476 77.99872359307483,89.94211531220935" stroke="#4dd2ff" stroke-linecap="round" stroke-linejoin="round" stroke-width="0.5"><title>2021-05-01 1.8km</title></polyline><polyline fill="none" points="123.64579298469471,94.48648330893775 122.80912416614592,94.6288651402865 121.44566386914812,95.60773718902783 119.78782009897986,95.53654667368392 119.4934366257512,95.89249896959518 119.5399182268302,95.55434430517198 118.42435980204027,95.92809416056843 115.79040241014445,95.58993956280756 114.2410157090635,95.76791574592062 113.77619969879743,95.51874904047872 112.0873681945377,95.83910616995126 108.27587690984365,95.92809416056843 104.47987949213712,95.53654667368392 103.33333333331393,96.51541379750415 103.41080266836798,96.85356666057487 107.87303636752767,97.7256421718921 108.3533462448977,97.58326278449385 109.23649666452548,98.04599538269395 111.59156445018016,98.08159014878038 113.06348181620706,98.6511054510629 113.69873036362696,98.45533476870332 115.37206800084095,98.84687592108094 115.79040241014445,99.16722714100615 116.82849149988033,99.29180801736948 117.10738110606326,99.07824074810196 117.8665805896162,99.43418605648912 118.8117064772523,99.27401075461239 120.39208091236651,99.7367390164145 120.53152571548708,99.30960527842399 120.87239078979474,99.27401075461239 121.50763933715643,99.61215844728576 121.72455347533105,99.09603803018399 122.65418549603783,98.59771346789785 123.76974392076954,97.47647817019606 125.00925328169251,96.99594662380696 125.65999569615815,96.21285543544218 126.74456638691481,95.87470137150376 127.33333333331393,95.0560099601862 127.02345599309774,94.11273046693532 126.54314611578593,93.59659431692853 125.56703249405837,94.2195170722407 124.07962126098573,94.13052823889302 123.98665805900237,94.70005601385492 121.89498601242667,95.7323205233406 122.3288142887759,96.14166515885154 122.62319776194636,95.94589175339206 123.63029911764897,96.71118658498744 124.46696793637238,96.58660392665479 124.52894340432249,96.37303345504915" stroke="#4dd2ff" stroke-linecap="round" stroke-linejoin="round" stroke-width="0.5"><title>2021-04-30 3.7km</title></polyline><polyline fill="none" points="157.81042654020712,95.09887447336223 156.29383886232972,97.27637434526696 155.45971563947387,97.40702399617294 147.1943127962295,95.1424245761009 139.83886255905963,95.09887447336223 140.8246445497498,95.926325689652 134.0,93.87946985446615 139.45971563947387,95.79567560061696 148.180094786454,96.62312551116338 157.16587677691132,99.45386347890599 158.0,99.27966474328423 156.86255924170837,98.88771733720205" stroke="#4dd2ff" stroke-linecap="round" stroke-linejoin="round" stroke-width="0.5"><title>2021-04-29 1.4km</title></polyline><polyline fill="none" points="173.88952380954288,96.0760439154692 175.84380952373613,94.53997498899116 175.15809523803182,93.3189929072978 176.35809523786884,92.92512692295713 184.5523809521692,85.08711300289724 185.51238095224835,84.96895081127877 188.66666666662786,88.59257544114371 184.65523809497245,91.1921119740291 185.10095238080248,91.23149876081152 182.5980952377431,93.94917767393054 183.66095238074195,93.55531231145142 183.90095238084905,92.6494205025665 182.7009523807792,93.63408541498939 176.97523809503764,100.56605765206041 173.1009523809189,102.85043122031493 170.4609523807885,105.17417712623137 170.28952380944975,106.6708198695269 168.12952380941715,108.36438252206426 166.34666666667908,107.458524322632 164.66666666662786,105.05602088122396 164.80380952369887,102.73227428746759 167.1695238094544,101.62947456035181 168.0266666666139,100.29035650973674 170.39238095236942,99.26632202795008 170.83809523808304,98.24228491887334 172.00380952376872,97.57272077313974 172.34666666656267,96.39113424668903 173.2380952379899,95.72156699560583 174.2323809522204,95.95788497722242 174.43809523794334,95.20954422219074" stroke="#4dd2ff" stroke-linecap="round" stroke-linejoin="round" stroke-width="0.5"><title>2021-04-26 2.2km</title></polyline><polyline fill="none" points="25.493021349888295,131.0928693386668 26.147472264128737,130.1906353427621 26.906635324354284,120.7170170735335 29.472082907916047,111.33333333334303 27.116059617022984,120.56663980529993 25.257419020752423,121.43882692803163 22.561081254621968,121.258374624711 19.760031342157163,121.67942983278772 18.294061294524,122.58168903342448 17.273117868346162,124.02529819656047 17.194583758711815,132.86725507015944 18.37259540427476,135.032593150303 19.157936501083896,135.33333333334303 19.6814972324064,135.0626671819482 22.508725181571208,132.68680953557487 23.47731253434904,133.34844264006824 24.419721850776114,132.6567352693819 24.602968106628396,131.874803307408" stroke="#4dd2ff" stroke-linecap="round" stroke-linejoin="round" stroke-width="0.5"><title>2021-04-25 2.2km</title></polyline><polyline fill="none" points="54.927367821801454,135.33333333334303 54.21963974728715,130.06247907713987 54.61011040920857,127.06253430945799 54.21963974728715,121.48311351571465 54.585705992765725,111.75391153933015 54.29285299638286,111.33333333334303 53.682742587290704,111.75391153933015 53.072632178198546,121.67937640851596 53.316676341812126,131.43627498258138 54.29285299638286,131.71664067762322 54.36606624536216,131.46431156454491 54.488088327343576,126.67001582760713 54.170830914517865,130.39891950503807" stroke="#4dd2ff" stroke-linecap="round" stroke-linejoin="round" stroke-width="0.5"><title>2021-04-18 2.2km</title></polyline><polyline fill="none" points="96.66666666662786,126.74959742717328 92.36867239722051,126.31516268939595 79.37153772683814,122.40522883983795 73.62941738287918,121.85230582038639 72.66666666662786,121.22039286309155 79.50907354336232,121.14140367342043 81.02196752629243,119.91706923948368 83.9789875834249,121.2598874521791" stroke="#4dd2ff" stroke-linecap="round" stroke-linejoin="round" stroke-width="0.5"><title>2021-04-16 1.0km</title></polyline><polyline fill="none" points="127.33333333331393,125.258173733906 126.63040446297964,125.44560769003874 126.34170153416926,124.8544690120325 125.83960948395543,124.65261623299739 125.19944211986149,124.81121486851771 124.97350069729146,124.62378009888926 124.65969316591509,124.1912374056119 125.21199442114448,123.21080256221467 125.02370990230702,122.48989039367007 124.6471408646903,122.3312892394897 121.72245467227185,122.53314522409346 119.22454672242748,122.31687094418157 118.00697350071277,122.60523657960584 117.49232914921595,122.40338069452264 116.66387726640096,122.48989039367007 116.46304044633871,122.31687094418157 114.8312412831001,122.5043086718797 114.25383542536292,122.3024526474619 113.58856345887762,122.48989039367007 112.9232914923341,122.21594283737068 111.51743375172373,122.47547211406345 110.36262203624938,122.01408641473972 109.40864714089548,122.12943297611491 108.86889818689087,121.4661890052812 107.88981868897099,121.52386251348071 106.99860529985745,121.24991314669023 106.63458856346551,121.42293385913945 106.13249651325168,120.93270797524019 105.39191073918482,121.19223953034088 104.31241283123381,120.8317789126886 103.68479776848108,121.16340271368972 104.12412831245456,120.84619735444721 104.22454672242748,121.33642352849711 103.33333333331393,121.29316834399651 104.08647140866378,121.01921854482498 103.72245467227185,121.10572906320158 104.11157601117156,121.07689222943736 103.7977684797952,121.20665793657827 103.99860529985745,121.42293385913945 103.7852161785122,121.24991314669023 104.08647140866378,121.14898430314497 103.99860529985745,120.99038169397681 103.74755927477963,121.07689222943736 103.83542538352776,121.29316834399651 104.22454672242748,121.1345658912469 104.03626220364822,121.0624738103943 104.01115760114044,121.26433154719416 104.11157601117156,121.00480012013577 103.97350069740787,121.26433154719416 104.0613668060978,121.0624738103943 104.12412831245456,121.22107634136046 103.9358437936171,120.7020128727163 104.04881450493122,121.07689222943736 103.98605299857445,120.8317789126886 104.01115760114044,121.07689222943736 103.76011157600442,120.88945267126837 103.84797768481076,120.7596866824606 103.9358437936171,120.88945267126837 103.74755927477963,120.96154483746795 103.99860529985745,121.09131064701069 103.7977684797952,120.97596326643543 104.03626220364822,120.7596866824606 103.86052998609375,121.0624738103943 103.6596931659733,121.0624738103943 103.86052998609375,120.68759441671136 103.67224546719808,120.81736046950391 103.97350069740787,121.07689222943736 103.76011157600442,120.94712640704529 103.7977684797952,121.07689222943736 103.86052998609375,120.96154483746795 103.9232914923341,121.56711762974737 103.7977684797952,122.92243812148809 105.0153417015099,123.18196614374756 105.11576011159923,123.41265733224282 106.20781032083323,123.3117299820733 106.83542538358597,123.54242096579401 111.84379358438309,123.75869343239174 116.78940027899807,124.39309082175896 119.16178521612892,124.47959934335086 120.21617852163035,124.71028848398419 121.43375174340326,125.33026374550536 123.34170153411105,125.1139936040563 123.54253835423151,125.46002567674441 123.80613668059232,125.34468174354697 125.6011157601024,125.71954919371638 125.91492329147877,125.97907224996015 126.47977684799116,125.84931077943475 126.65550906554563,125.31584574600856 127.15760111575946,125.1139936040563" stroke="#4dd2ff" stroke-linecap="round" stroke-linejoin="round" stroke-width="0.5"><title>2021-04-09 4.9km</title></polyline><polyline fill="none" points="157.5155279505998,124.61752119261655 149.98757763998583,122.43441206312855 149.13043478294276,121.62109408972901 143.83850931702182,122.04915637109661 140.00000000023283,121.66390033692005 140.7080745343119,122.091962576058 140.37267080764286,122.26318735338282 134.0,120.80777459216188 139.29192546592094,122.39160589207313 146.8944099380169,123.033698015759 157.44099378888495,125.85889207449509 156.02484472072683,125.30241591131198 158.0,125.04558051849017 157.47826086962596,124.40349137128214" stroke="#4dd2ff" stroke-linecap="round" stroke-linejoin="round" stroke-width="0.5"><title>2021-04-09 1.4km</title></polyline><polyline fill="none" points="165.62121212133206,122.00198884544079 166.78030303039122,122.9809295515588 175.16666666674428,126.19183812564006 178.8825757575687,126.03520904152538 182.12121212133206,126.70088222215418 188.12121212144848,126.03520904152538 188.66666666662786,125.3695347449102 186.24621212133206,124.74301674027811 183.34848484850954,125.33037739855354 180.34848484850954,124.19481267521041 177.859848484979,124.39059992824332 173.6325757575687,122.23693483497482 173.0871212122729,121.21883454246563 170.66666666674428,120.27904733971809 168.82575757591985,119.96578444450279 164.66666666662786,120.98388795030769" stroke="#4dd2ff" stroke-linecap="round" stroke-linejoin="round" stroke-width="0.5"><title>2021-04-08 1.4km</title></polyline><polyline fill="none" points="35.177489177673124,151.00244514914812 35.33333333337214,151.82587624323787 33.30735930753872,151.86167755286442 27.94632034644019,150.03580626379699 19.84242424252443,149.64198968347046 15.572294372366741,148.13832244710648 11.333333333372138,148.78275202546502 15.354112554108724,148.31733077811077 19.624242424266413,149.6061881550413 27.572294372483157,149.96420328097884" stroke="#4dd2ff" stroke-linecap="round" stroke-linejoin="round" stroke-width="0.5"><title>2021-04-06 1.3km</title></polyline><polyline fill="none" points="49.329341317294165,146.39624078094494 52.347305389121175,145.45370274817105 53.59281437122263,146.45168414380169 53.59281437122263,147.50510696839774 52.77844311390072,147.9486528118141 54.21556886215694,149.50106042221887 55.700598802184686,149.66738954698667 57.616766466991976,148.7803002956789 59.772455089725554,146.06358048476977 61.688622754532844,146.78434420307167 63.2694610778708,145.8418068413157 65.95209580822848,146.17446727264905 65.95209580822848,142.79241009487305 65.6646706587635,144.84382432926213 64.08383233542554,144.5666066405829 66.0,144.89926785015268 65.90419161668979,146.34079741226742 61.78443113761023,146.72890087385895 59.772455089725554,146.00813708244823 56.514970059972256,150.11093363136752 57.281437125755474,149.44561736949254 53.688622754532844,149.39017431106186 52.97005988005549,148.17042559827678 54.023952096002176,148.17042559827678 53.92814371269196,147.61599346302683 52.68263473059051,145.39825928362552 52.15568862250075,146.17446727264905 51.10179640725255,146.06358048476977 49.76047904184088,148.94662964023883 45.30538922129199,151.27523513574852 43.86826347303577,153.93648638034938 43.67664670641534,151.88510636007413 43.293413173407316,154.49091208801838 42.958083832170814,153.27117478707805 43.293413173407316,154.10281415190548 43.005988023709506,153.3820601090556 44.97005988028832,154.3800269915955 46.550898203393444,156.76405159430578 48.61077844304964,156.59772463486297 49.18562874244526,155.43343449680833 47.940119760343805,154.8790097478195 49.041916167596355,154.8790097478195 48.514970059739426,155.54431937914342 48.03592814342119,155.10077971516876 48.61077844304964,155.76608907571062 48.754491017898545,155.21166466496652 48.994011976057664,156.4868399669067 48.17964071827009,157.20758990512695 45.54491017945111,156.9858207948855 43.10179640678689,154.10281415190548 43.532934131566435,151.60789225180633 43.820359281264246,153.60383068514057 42.0,154.6572396902484 42.52694610785693,153.77015855815262 42.1916167663876,154.8790097478195 43.532934131566435,153.93648638034938 43.72455089818686,151.4970065690577" stroke="#4dd2ff" stroke-linecap="round" stroke-linejoin="round" stroke-width="0.5"><title>2021-04-05 1.9km</title></polyline><polyline fill="none" points="91.54115083103534,156.3141429991374 90.60000121337362,156.78796972653072 90.96827715064865,156.2193775377673 91.62298992823344,156.2193775377673 91.76620834833011,155.8166238960548 91.02965647354722,160.19949365968932 89.45425385260023,161.3366571808583 89.37241475528572,162.0 89.31103543250356,161.3366571808583 91.0910357964458,160.27056654269109 91.68436925113201,157.94884112779982 92.0935647371225,154.252985498606 91.07057602214627,153.5185456519248 88.86092039791401,153.11578733165516 87.55149484274443,154.13452761576627 84.80988508672453,154.9163485273166 79.81770015775692,157.92514993262012 78.91747008857783,156.47998246355564 77.87402159941848,156.93011755643238 77.38298701622989,156.74058709722885 74.51861861429643,144.44446839395096 74.35494042001665,142.19366333822836 75.80758439516649,148.7801682912832 76.25769942975603,148.96970523995697 81.51586142450105,146.57678992376896 85.56689673569053,145.27370686849463 88.1039087488316,143.85215338683338 91.66390947683249,140.98532742344833 93.77126622968353,138.0 94.97839291323908,138.61602308394504 94.8351744931424,138.80556831977447 94.34413990995381,138.63971624686383 94.63057675014716,138.40278450888582 94.63057675014716,138.781875173765 94.7533353959443,138.14215931814397 94.05770306976046,138.35539813223295" stroke="#4dd2ff" stroke-linecap="round" stroke-linejoin="round" stroke-width="0.5"><title>2021-04-05 3.7km</title></polyline><polyline fill="none" points="109.38940809993073,141.29813022224698 113.20249221194535,144.32865777704865 116.34267912851647,153.07383381132968 116.41744548315182,157.48968056665035 118.13707165140659,157.1433404745767 119.85669781966135,158.70186977775302 123.74454828724265,155.84456387074897 127.33333333348855,156.7970002408838 120.00623052986339,155.065296954941 120.00623052986339,157.9226054835599 120.38006230583414,153.93968792574015 120.23052959516644,158.09577538858866 120.4548286604695,156.71041516057448 117.46417445503175,157.31651053833775 119.48286604415625,156.01773419929668 120.52959501603618,157.9226054835599 118.66043613711372,156.71041516057448 120.00623052986339,156.36407475045417 119.70716510945931,158.00919044035254 120.52959501603618,158.00919044035254 119.55763239925727,156.27748962573241 121.27725856704637,158.44211509259185 119.55763239925727,156.88358531240374 119.70716510945931,155.4982231075992 120.9781931466423,157.48968056665035 119.78193146456033,155.58480831148336 117.76323987590149,155.4982231075992 116.86604361375794,157.7494355433737 117.09034267952666,156.62383007141761 113.27725856751204,153.76651717355708 114.77258566999808,148.22503445867915 113.27725856751204,148.83113589161076 113.35202492261305,146.57989981793799 108.94080996885896,144.15548506524647 103.33333333348855,144.6750030948897 106.473520249594,145.8006244021817 107.52024922147393,148.74454999895534" stroke="#4dd2ff" stroke-linecap="round" stroke-linejoin="round" stroke-width="0.5"><title>2021-04-04 1.4km</title></polyline><polyline fill="none" points="148.81564245792106,139.25664717936888 141.37430167593993,142.6452750597382 134.2011173183564,150.96275383752072 140.9720670392271,158.43300643580733 144.9273743017111,153.96626605506754 149.55307262577116,152.04093904054025 149.68715083808638,149.49950010812609 153.977653631242,146.34194323880365 147.67597765359096,138.33247338532237 142.37988826818764,141.87513365183258 134.0,151.4248333926662 140.83798882667907,157.58586798340548 144.86033519543707,152.8880835121381 151.43016759771854,151.80989947950002 153.37430167617276,150.34664733853424 154.37988826818764,146.4959706995287 154.1117318435572,145.80284688645042 153.30726257013157,147.34312119014794 150.9608938547317,148.4983249232173 150.8938547486905,147.8052028885577 158.0,143.10735953989206 155.38547486043535,141.7211052790517 152.63687150832266,138.33247338532237 151.09497206681408,140.87394868506817 146.40223463694565,138.87157489813399 137.15083798859268,147.1890938966535 134.26815642416477,151.27080690470757 140.9720670392271,157.58586798340548 144.9273743017111,153.42717496975092 145.53072625701316,153.88925306574674 143.85474860318936,156.19963944121264 153.0391061452683,158.1249561959412 155.98882681597024,161.66752661467763 149.75418994389474,150.26963399187662 150.42458100570366,148.1902707614936 153.7094972068444,145.41777783579892 150.0893854747992,143.18437359313248 148.0782122905366,139.33366161276354 146.67039106157608,138.79456041916274 145.46368715073913,139.64171927043935 146.06703910627402,140.18081987876212" stroke="#4dd2ff" stroke-linecap="round" stroke-linejoin="round" stroke-width="0.5"><title>2021-04-02 3.1km</title></polyline><polyline fill="none" points="179.39007092185784,159.2749604988494 176.58156028366648,158.29739770687593 171.283687943127,158.19964121555677 165.539007092244,157.4420271000854 165.0496453900123,156.97768181982974 164.66666666662786,154.65594236487232 165.21985815593507,154.21603138497449 166.3687943262048,154.16715233890864 165.32624113478232,150.91667413806135 165.58156028366648,146.51746279314102 167.1773049645126,144.24450632423395 167.8156028368976,142.70474977092817 170.85815602832008,140.6028444233525 172.0921985815512,141.94708827108843 173.24113475170452,142.19149545965774 173.83687943255063,142.90027494305104 176.34751773043536,142.90027494305104 180.21985815593507,143.51129011144803 182.0921985814348,144.48891124632792 185.19858156016562,147.25067010882776 188.13475177285727,152.33418115340464 188.21985815593507,152.99405234238657 187.53900709201116,153.58060303497768 187.26241134747397,154.50930545831216 187.85815602820367,154.48486596546718 188.66666666662786,156.562214252408 188.13475177285727,157.66197982391168 186.283687943127,158.00412811723072 185.83687943243422,158.5662278591626 184.79432624089532,158.05300640621863 184.34751773043536,158.2485194660403 183.24113475170452,157.90637151020928 182.70921985805035,159.3971555766475 182.53900709212758,159.22608245085576" stroke="#4dd2ff" stroke-linecap="round" stroke-linejoin="round" stroke-width="0.5"><title>2021-04-02 3.2km</title></polyline><polyline fill="none" points="13.847922192770056,174.63754334743135 21.964633068069816,178.2570642408682 26.357206012355164,178.22050360037247 29.03094606543891,178.84203399711987 32.62776304164436,177.96457901661051 35.33333333337214,178.00113968213554 29.221927497768775,178.80547341448255 26.548187444801442,178.18394295641338 22.219274977920577,178.40330676650046 16.617152962018736,176.7946358115587 11.333333333372138,174.49129933625227" stroke="#4dd2ff" stroke-linecap="round" stroke-linejoin="round" stroke-width="0.5"><title>2021-04-01 1.4km</title></polyline><polyline fill="none" points="42.0,173.6437870437221 44.71031096577644,176.39597093625343 47.891980360262096,177.07273493081448 51.62356792157516,179.01278616627678 56.72995090042241,178.92255140753696 59.558101473143324,179.68954628962092 66.0,178.92255140753696 61.48281505750492,179.59931166438037 56.022913257125765,178.78719923607423 51.15220949286595,179.01278616627678 43.846153846243396,177.02761736226967 43.09983633412048,176.62155904562678 43.96399345365353,176.2606180171133" stroke="#4dd2ff" stroke-linecap="round" stroke-linejoin="round" stroke-width="0.5"><title>2021-03-29 1.2km</title></polyline><polyline fill="none" points="84.22900859336369,188.66666666668607 83.11054907273501,182.35978820791934 82.33249027561396,182.13653458899353 78.53945364034735,176.6667935004807 76.01076254993677,176.44353764271364 83.88860786962323,164.66666666668607 86.5145563094411,166.28530322684674 91.66919583966956,171.53188655734994 91.13428041688167,175.27144294895697 93.32257078331895,188.10853865550598 86.36867028521374,183.4760549850762 83.83997919457033,182.9737352069351 83.59683582070284,184.0341875506565" stroke="#4dd2ff" stroke-linecap="round" stroke-linejoin="round" stroke-width="0.5"><title>2021-03-28 1.4km</title></polyline><polyline fill="none" points="115.03794871782884,172.31948970837402 116.40410256385803,173.1253176970058 116.73641025624238,172.44672580697807 118.06564102554694,172.36190174540388 118.36102564097382,171.68330865050666 118.76717948704027,172.14984151831595 119.3948717948515,171.68330865050666 121.35179487150162,172.78602188592777 122.49641025625169,171.93778118662885 125.85641025612131,172.95566982484888 125.63487179484218,172.10742946030223 127.22256410238333,172.27707766721142 126.04102564090863,171.85295702467556 126.33641025633551,171.1743631264835 126.41025641001761,172.10742946030223 126.22564102546312,171.68330865050666 125.81948717939667,172.23466562171234 125.89333333307877,171.55607232591137 126.41025641001761,172.27707766721142 125.85641025612131,172.10742946030223 126.96410256391391,171.98019326131907 126.96410256391391,172.4043137781846 126.48410256393254,171.81054493732518 125.70871794852428,172.23466562171234 127.2594871793408,171.98019326131907 126.77948717935942,171.59848443832016 126.6317948717624,172.87084586379933 125.9671794869937,172.31948970837402 125.89333333307877,172.78602188592777 126.81641025608405,172.19225357216783 126.41025641001761,172.23466562171234 127.33333333325572,173.37978937965818 127.22256410238333,172.14984151831595 126.66871794871986,172.23466562171234 126.96410256391391,172.82843387688627 126.15179487178102,173.08290573532577 126.04102564090863,172.61637387992232 125.59794871788472,173.25255355713307 124.0471794870682,173.04049376939656 124.0471794870682,172.19225357216783 124.41641025617719,179.48706458249944 120.24410256394185,180.42011287758942 116.84717948711477,179.3174192205188 117.10564102558419,179.86876640259288 116.07179487170652,179.3174192205188 110.09025640995242,179.02053967578104 107.09948717942461,179.91117769494304 106.8410256409552,181.43798143585445 106.13948717946187,181.98932589875767 103.73948717932217,182.15897020683042 103.33333333325572,181.48039257343044" stroke="#4dd2ff" stroke-linecap="round" stroke-linejoin="round" stroke-width="0.5"><title>2021-03-26 1.5km</title></polyline><polyline fill="none" points="136.53658536612056,175.14585030660965 144.14634146355093,178.25152123329462 146.82229965168517,178.0594187390816 149.16376306628808,178.57169180441997 152.53658536588773,177.89933324043523 153.87456446001306,178.0594187390816 158.0,176.58662917336915 154.34843205590732,178.0594187390816 149.63763066206593,178.4436236138572 147.1567944252165,177.93135034645093 144.39721254375763,178.15547000040533 138.4599303136347,176.71469809650443 134.0,174.76164152889396" stroke="#4dd2ff" stroke-linecap="round" stroke-linejoin="round" stroke-width="0.5"><title>2021-03-26 1.6km</title></polyline><polyline fill="none" points="188.66666666674428,178.7962183332711 186.8330503681209,178.56220265920274 184.10299943410791,176.8304830833804 181.78041878901422,176.87728639834677 178.4391624222044,175.56679183704546 170.28975664963946,175.80080898848246 171.51216751569882,176.40925304190023 171.0232031692285,176.5496630971902 164.66666666674428,174.53711500004283 169.80079230340198,176.50285974997678 177.0945104698185,176.9708930142515 183.32880588574335,178.46859635715373" stroke="#4dd2ff" stroke-linecap="round" stroke-linejoin="round" stroke-width="0.5"><title>2021-03-24 1.1km</title></polyline><polyline fill="none" points="35.33333333337214,205.09373564532143 33.60507246374618,204.98137004452292 31.909420289914124,203.70789091230836 29.202898550778627,203.2584266694903 26.98550724645611,202.24713017840986 20.202898550895043,202.39695205065073 20.78985507262405,203.03369434861816 15.474637681385502,201.57293102133553 11.333333333372138,202.0973082469427 12.96376811596565,202.32204112189356 15.605072463746183,201.61038656151504 20.496376811759546,203.10860513712396 29.3985507247271,203.48315885741613" stroke="#4dd2ff" stroke-linecap="round" stroke-linejoin="round" stroke-width="0.5"><title>2021-03-23 1.3km</title></polyline><polyline fill="none" points="65.52127659565303,204.52473626405117 57.446808510576375,201.70203831864637 54.159574468038045,202.2519162229146 50.90425531915389,201.88533104374073 51.797872340423055,202.4718671569426 51.446808510576375,202.58184257516405 46.308510638191365,201.04218375941855 42.0,201.66537976264954 45.989361702115275,201.1155009905342 50.80851063830778,202.50852563322405 57.19148936169222,202.94842706737109 66.0,205.62448290723842 64.56382978719193,204.92797707766294 66.0,204.52473626405117" stroke="#4dd2ff" stroke-linecap="round" stroke-linejoin="round" stroke-width="0.5"><title>2021-03-22 1.6km</title></polyline><polyline fill="none" points="93.10431012476329,191.48174476895656 93.43483805144206,191.71352184518764 93.25121142552234,192.45099269464845 94.92221372097265,192.70383925938222 95.36291762290057,193.06203804937832 95.21601632225793,193.71522253850708 95.87707217526622,194.15770122382673 96.66666666662786,195.5272723227681 96.18923743919004,196.79148403878207 95.49145626102109,197.08646570060228 95.23437898489647,197.8449881115812 91.83728640642948,200.79477199501707 88.09130323887803,202.24857913258893 86.91609283327125,203.00708329395275 86.01632236666046,203.7655847738206 83.39046161680017,207.38949928077636 72.66666666662786,215.18492189771496" stroke="#4dd2ff" stroke-linecap="round" stroke-linejoin="round" stroke-width="0.5"><title>2021-03-21 1.3km</title></polyline><polyline fill="none" points="114.21271916269325,201.24828042268928 113.90808618429583,199.30028610258887 111.81917433242779,196.70293710440455 110.9705538925482,196.45319060889597 108.09830009611323,199.07551656589203 105.24780579819344,202.6967793359654 104.52974234917201,202.89657164129312 103.74640040460508,205.0193551817065 105.07372981053777,206.91735838569002 108.22885708685499,208.41577195128775 111.64509834465571,211.18781374910031 111.44926285860129,211.33765298468643 111.90621232625563,211.28770658264693 111.49278185563162,211.0629476520262 112.01500981848221,211.93700904303114 113.16826323675923,213.31052801058104 117.54192242678255,215.33333333332848 119.80491026630625,215.10857798162033 125.13598738831934,211.38759937687428 125.8540508375736,209.88920333932037 126.92026626202278,205.09427662969392 125.8540508375736,203.24620779762336 121.87206261989195,199.5750041550782 117.56368192529771,194.15551132777182 114.36503565183375,191.33333333332848 110.77471840637736,196.32831726899894 111.42750336020254,196.40324128030625 112.31964279687963,197.2274039459444 114.06040267343633,199.45013234986982 114.03864317503758,200.1494136684487" stroke="#4dd2ff" stroke-linecap="round" stroke-linejoin="round" stroke-width="0.5"><title>2021-03-20 3.7km</title></polyline><polyline fill="none" points="155.63546798028983,209.37646311320714 147.43842364498414,206.7510105704132 138.7684729064349,206.47941117419396 134.11822660081089,205.4835453465057 134.0,203.85394205802004 134.66995073878206,203.12967207227484 134.03940886701457,201.90746387955733 134.19704433484003,199.77990852005314 136.6798029555939,197.29020355342072 140.77832512324676,197.7881456273608 144.9556650244631,199.19143401965266 152.8374384236522,199.01036479091272 157.05418719211593,198.33135454636067 157.5665024628397,197.7428781883791 156.8177339900285,199.46303772905958 156.34482758608647,205.3024786002643 156.7389162562322,208.29007077918504 158.0,208.51640272751683" stroke="#4dd2ff" stroke-linecap="round" stroke-linejoin="round" stroke-width="0.5"><title>2021-03-19 1.6km</title></polyline><polyline fill="none" points="174.39288476412185,203.08816309865506 179.60866202635225,205.32677046080062 181.63186388253234,205.1988506645721 183.39520494965836,205.58260982611682 185.25135344162118,205.17753069123137 186.23511214228347,205.26281057216693 188.66666666662786,204.53793051172397 184.1562258314807,205.56128989053832 181.8360402166145,205.1988506645721 179.2374323279364,205.3054505000473 168.8615622583311,202.00083115800226 164.66666666662786,201.55310465148068 165.57617942767683,201.68102660505974 164.96365042531397,201.4251826221298 165.1492652745219,201.3185808732087 166.55993812833913,201.40386227658018 168.43464810517617,201.0840568405547 169.06573859241325,201.55310465148068 169.43696829071268,201.3185808732087 169.88244392885827,201.74498755352397 170.27223511203192,201.61706563779444 170.7733952049166,202.04347172932466 171.40448569215368,201.80894848299795 172.70378963649273,202.74703994134325 172.96365042531397,202.42723649251275 172.29543696821202,201.4251826221298 172.03557617939077,201.4465029656276 172.12838360399473,202.17139339270943 173.33488012372982,202.76836015447043 173.83604021649808,201.5744249823765 174.11446249042638,202.15007312074886 174.4856921887258,202.0861122921342 174.09590100543573,202.1927136626182 174.31863882450853,202.1287528466346 173.78035576175898,201.38254192892055 174.57849961332977,201.3185808732087" stroke="#4dd2ff" stroke-linecap="round" stroke-linejoin="round" stroke-width="0.5"><title>2021-03-19 3.1km</title></polyline><polyline fill="none" points="21.43276410800172,242.0 21.297971964348108,241.5819668899494 21.041866891493555,241.53551869789953 20.66444888926344,241.8916211524338 21.122742177627515,239.27502340682258 20.947512390906923,239.90982331692067 21.02838767709909,241.07103602134157 20.77228260418633,241.27231201659015 19.316527452901937,241.24134649564803 19.141297666123137,240.312378027229 19.262610595382284,239.4917846403987 22.794164758757688,238.70215299149277 25.16650648677023,238.54732279067684 25.08563120063627,223.57452080208168 25.880904848105274,222.5525401474879 27.525369000504725,221.09698045144614 27.228826284466777,220.35371071797272 25.220423344289884,218.0" stroke="#4dd2ff" stroke-linecap="round" stroke-linejoin="round" stroke-width="0.5"><title>2021-03-18 2.7km</title></polyline><polyline fill="none" points="50.13962499058107,240.01956518460065 50.811545763979666,240.13606208558485 50.912967767508235,240.70398316152568 51.16652277635876,240.8496035983262 52.53571982396534,241.1262820326083 54.310604885802604,240.9660998443287 55.540346678579226,241.31558803094958 56.68134421831928,242.0 56.972932478412986,241.08259599846497 56.80812172271544,237.1944871921296 57.86037500936072,237.09255037779803 56.35172270680778,236.67023996847274 54.89378140604822,236.59742770684534 54.24721613357542,235.89842816797318 52.96676333900541,222.66049949197622 54.361315887537785,221.02934141110745 55.35018042195588,220.46134463319322 54.6402263972559,219.19426702002238 53.423162354913075,218.0" stroke="#4dd2ff" stroke-linecap="round" stroke-linejoin="round" stroke-width="0.5"><title>2021-03-17 2.8km</title></polyline><polyline fill="none" points="73.47517730528489,228.70479940716177 73.77304964559153,228.70479940716177 75.26241134782322,229.3401931943954 75.68794326251373,229.87783345507341 80.11347517743707,231.09974096922087 84.79432624136098,231.7351316860586 86.36879432643764,231.6373793212697 87.47517730528489,231.8817601974879 88.0283687945921,232.0772648116108 90.24113475205377,232.41939770092722 92.070921986131,233.15253881152603 92.66666666674428,233.29916690345271 93.68794326274656,233.8368028694822 94.53900709259324,234.3744382521836 94.87943262443878,234.4721900773293 95.26241134782322,234.66769366973313 96.19858156051487,234.91207305178978 96.66666666674428,234.86319718507002 96.62411347567104,234.86319718507002 96.62411347567104,234.86319718507002 96.49645390105434,234.91207305178978 96.58156028389931,234.86319718507002 96.62411347567104,234.86319718507002 96.66666666674428,234.91207305178978 96.41134751797654,234.86319718507002 95.85815602866933,234.86319718507002 93.9858156030532,234.91207305178978 92.70921985851601,234.52106598272803 91.47517730528489,234.2766864078585 90.24113475205377,234.17893454423756 89.00709219882265,234.22781047833269 88.36879432667047,234.2766864078585 87.13475177343935,234.3744382521836 86.58156028389931,234.3744382521836 84.66666666674428,234.22781047833269 84.070921986131,234.08118266108795 82.92198581574485,233.78792689662077 82.32624113489874,233.49467095860746 81.17730496474542,233.1036627710855 80.58156028389931,232.90815856179688 78.15602836897597,232.41939770092722 76.58156028389931,231.78400786139537 76.45390070951544,231.49075073757558 76.96453900728375,231.392998324387 77.17730496474542,231.392998324387 77.34751773066819,231.19749344035517 77.17730496474542,231.14861720716 76.75177304982208,231.05086472650873 76.53900709236041,231.00198847902357 76.41134751797654,230.95311222661985 76.15602836897597,230.95311222661985 75.9858156030532,230.85535970737692 75.77304964559153,230.85535970737692 75.56028368812986,230.85535970737692 75.26241134782322,230.75760716895456 75.04964539036155,230.65985461123637 74.92198581574485,230.6109783250722 74.4964539008215,230.36659682227764 74.36879432643764,230.2688441873761 74.15602836897597,230.1222151987895 74.0283687945921,230.0244625158375 73.9007092199754,229.87783345507341 73.73049645405263,229.6823279732198 73.43262411374599,229.43794601250556 73.17730496474542,229.29131677813712 73.04964539036155,229.19356393112685 72.83687943289988,228.9491817294038 72.75177304982208,228.50929346258636 72.75177304982208,228.11828134211828 72.70921985851601,227.87389861006523 72.66666666674428,227.67839233769337 72.79432624136098,227.28737956171972 72.75177304982208,226.74973649086314 72.75177304982208,226.505353084096 72.70921985851601,226.35872298205504 72.79432624136098,226.21209283685312 72.75177304982208,226.16321611215244 72.79432624136098,225.8210789039731 72.83687943289988,225.57669503914076 73.04964539036155,225.52781825177954 73.47517730528489,225.38118786059204 73.68794326251373,225.28343424235936 73.81560283713043,225.23455742609804 74.070921986131,225.13680377905257 74.11347517743707,225.13680377905257 74.11347517743707,225.08792694821022 74.15602836897597,225.08792694821022" stroke="#4dd2ff" stroke-linecap="round" stroke-linejoin="round" stroke-width="0.5"><title>2021-03-02 1.4km</title></polyline><polyline fill="none" points="107.74263565894216,230.35262831515865 108.02170542650856,230.48084346216638 111.09147286810912,231.05781131132971 113.04496124037541,231.76299354241928 113.77054263558239,232.08353066741256 115.72403100761585,232.5963897384354 116.44961240282282,232.5963897384354 118.51472868211567,232.4681750088348 119.18449612380937,232.2758528664708 121.24961240286939,232.14763807336567 122.53333333320916,232.5963897384354 123.20310077513568,232.85281912237406 124.37519379844889,233.3015703006531 125.49147286801599,233.49389213934774 126.88682170538232,233.36567758664023 127.11007751896977,233.2374630085542 127.33333333325572,233.36567758664023 127.27751937974244,234.2631789254374 126.27286821696907,234.5196076518041 125.43565891473554,235.22478612751001 125.04496123990975,235.3530003139167 124.65426356554963,235.48121447477024 124.43100775172934,235.48121447477024 124.09612403064966,235.54532154556364 123.8728682170622,235.67353566846577 123.09147286810912,235.99407086527208 123.20310077513568,236.31460590392817 123.59379844949581,236.5710338211502 123.59379844949581,236.63514078472508 123.59379844949581,236.6992477417807 123.64961240300909,236.63514078472508 123.37054263567552,236.5710338211502 123.03565891459584,236.6992477417807 122.92403100780211,236.7633546925499 122.81240310054272,236.8274616371491 122.75658914702944,236.89156857528724 122.75658914702944,236.89156857528724 122.53333333320916,236.5710338211502 122.42170542641543,236.44281987514114 122.25426356564276,236.25049890892114 122.19844961212948,236.12228489975678 121.64031007746235,235.99407086527208 121.41705426340923,235.99407086527208 121.13798449607566,235.99407086527208 120.85891472874209,235.9299638386583 120.52403100766242,235.9299638386583 120.24496124009602,235.9299638386583 119.68682170519605,235.80174976633862 119.40775193786249,235.7376427205745 119.12868217076175,235.67353566846577 118.84961240296252,235.60942861024523 118.29147286829539,235.48121447477024 118.06821705400944,235.3530003139167 117.78914728667587,235.28889322385658 117.5100775193423,235.16067902499344 117.23100775154307,235.0324648009264 117.00775193795562,234.84014341741567 116.50542635656893,234.583714817476 116.00310077494942,234.3272861163714 115.61240310082212,233.94264287507394 115.33333333302289,233.8144284109003 115.05426356568933,233.68621392123168 114.77519379835576,233.55799940635916 114.49612403055653,233.4297848661663 114.32868217071518,233.36567758664023 113.88217054260895,233.1733557098196 113.65891472855583,233.1092484050314 113.43565891450271,233.04514109378215 113.21240310068242,232.9169264525408 112.93333333334886,232.85281912237406 112.65426356578246,232.7887117859791 112.04031007736921,232.7246044430649 111.81705426354893,232.66049709398067 111.53798449598253,232.5963897384354 111.20310077490285,232.5963897384354 110.97984496108256,232.5322823767783 110.4217054261826,232.4681750088348 110.14263565884903,232.33996025362285 109.64031007746235,231.95531583635602 109.08217054256238,231.76299354241928 108.85891472850926,231.69888609845657 108.5798449611757,231.63477864832385 108.24496124032885,231.57067119167186 108.02170542650856,231.50656372879166 107.74263565894216,231.37834878376452 107.24031007732265,231.12191881844774 106.96124030998908,230.99370379775064 106.73798449593596,230.86548875179142 106.17984496126883,230.5449510262697 106.01240310072899,230.41673589183483 105.78914728667587,230.28852073219605 105.28682170528919,229.96798272209708 105.0635658914689,229.77565984026296 104.7844961239025,229.39101390575524 104.39379844954237,228.9422600279213 103.72403100761585,228.4293980738148 103.72403100761585,228.2370747369714 103.61240310082212,227.9165357152233 103.50077519379556,227.66010438412195 103.33333333325572,226.82670185953612 103.50077519379556,226.5061621425557 103.55658914707601,226.18562226754148 103.61240310082212,225.92919025360607 103.6682170543354,225.73686617682688 103.6682170543354,225.41632592235692 103.6682170543354,224.58292052114848 103.6682170543354,224.005946925201 104.28217054274864,223.74951405148022 104.72868217062205,223.49308107659454 105.11937984521501,223.3648645511712 105.39844961254857,223.30075627902988 105.5100775193423,223.17253971571336 106.29147286806256,223.10843142465455" stroke="#4dd2ff" stroke-linecap="round" stroke-linejoin="round" stroke-width="0.5"><title>2020-12-25 1.0km</title></polyline><polyline fill="none" points="134.36090225540102,227.22784271463752 134.6315789471846,227.4869241376873 134.85714285704307,227.7460054330877 135.3533834584523,228.05690281902207 137.29323308262974,228.57506471994566 138.33082706760615,228.88596161524765 139.00751879694872,229.0414099940681 142.16541353357024,230.28499536775053 143.06766917277128,230.9067869510036 144.1052631577477,231.3731301553198 145.63909774413332,231.94310462108115 146.22556390962563,232.0467362756026 147.30827067676,232.0467362756026 147.9398496239446,232.0467362756026 149.02255639084615,231.8394729461288 150.01503759413026,231.73584125045454 151.1428571427241,231.7876571008237 151.77443609014153,231.73584125045454 153.53383458638564,232.0467362756026 154.12030075164512,232.25399952346925 155.24812030047178,232.46126268961234 155.87969924812205,232.40944690571632 157.00751879694872,232.35763111675624 157.50375939859077,232.3058153227321 158.0,232.5130784684443 157.95488721784204,232.56489424203755 157.8195488722995,232.61671001050854 157.77443609014153,232.66852577403188 157.77443609014153,232.72034153225832 157.7293233082164,232.66852577403188 157.63909774436615,232.7721572854207 157.63909774436615,232.66852577403188 157.6842105265241,232.72034153225832 157.7293233082164,232.7721572854207 157.6842105265241,232.72034153225832 157.77443609014153,232.61671001050854 157.7293233082164,232.61671001050854 157.6842105265241,232.61671001050854 157.6842105265241,232.66852577403188 157.6842105265241,232.61671001050854 157.6842105265241,232.61671001050854 157.6842105265241,232.61671001050854 157.6842105265241,232.66852577403188 157.63909774436615,232.66852577403188 157.63909774436615,232.66852577403188 157.5939849622082,232.66852577403188 157.5488721805159,232.66852577403188 157.63909774436615,232.66852577403188 157.63909774436615,232.66852577403188 157.63909774436615,232.66852577403188 157.5939849622082,232.66852577403188 157.5939849622082,232.72034153225832 157.50375939859077,232.66852577403188 156.46616541338153,232.66852577403188 155.29323308262974,232.66852577403188 154.12030075164512,232.40944690571632 153.57894736831076,232.25399952346925 152.4511278194841,231.94310462108115 151.86466165422462,231.8394729461288 150.64661654108204,231.8394729461288 150.06015037582256,231.7876571008237 148.84210526314564,231.8912887860206 147.57894736831076,232.0467362756026 146.99248120305128,232.0467362756026 145.77443609014153,231.994920450903 145.1428571427241,231.8394729461288 142.30075187957846,230.9067869510036 141.71428571431898,230.69952317152638 140.04511278192513,230.28499536775053 139.5939849622082,230.23317936930107 137.7894736842718,229.922283271153 136.75187969906256,229.45593877899228 136.16541353380308,229.14504222100368 135.0375939849764,228.5232485528686 134.0,228.1605352400802" stroke="#4dd2ff" stroke-linecap="round" stroke-linejoin="round" stroke-width="0.5"><title>2020-12-08 1.1km</title></polyline><polyline fill="none" points="164.66666666674428,227.52611590878223 164.8974358974956,227.57029265235178 166.43589743599296,228.76306307766936 166.93589743599296,228.93976953724632 168.8974358974956,229.51406504955958 169.8205128207337,229.77912426844705 170.28205128223635,229.95583032714785 171.35897435923107,230.35341870467528 172.3205128207337,230.83935957564972 172.8205128207337,231.14859440087457 175.28205128223635,231.98794499330688 175.82051282096654,232.0321212966519 177.35897435923107,231.85541605693288 177.8205128207337,231.81123973603826 180.243589743739,231.85541605693288 180.743589743739,231.89959237337462 182.243589743739,232.3413552986167 183.78205128223635,232.47388409118867 184.243589743739,232.42970783126657 185.24358974397182,232.47388409118867 186.78205128223635,232.2530027483008 187.243589743739,232.20882646672544 188.20512820547447,232.1204738903907 188.66666666674428,232.07629759577685 188.47435897449031,231.72288708132692 187.3974358974956,231.67871074736468 186.93589743599296,231.72288708132692 185.97435897472315,231.98794499330688 185.62820512847975,232.07629759577685 184.62820512847975,232.29717902565608 184.16666666674428,232.3413552986167 183.20512820524164,232.3413552986167 182.70512820524164,232.2530027483008 181.743589743739,232.07629759577685 181.28205128246918,231.94376868545078 179.78205128223635,231.67871074736468 179.28205128223635,231.67871074736468 178.28205128223635,231.72288708132692 177.743589743739,231.72288708132692 176.743589743739,231.81123973603826 175.743589743739,231.85541605693288 174.78205128223635,231.81123973603826 173.85897435923107,231.5903580665472 173.39743589772843,231.45782901265193 172.39743589772843,231.14859440087457 171.9358974362258,230.97188881257898 171.01282051298767,230.66265386535088 169.78205128200352,230.30924223564216 169.43589743599296,230.26506576238899 168.51282051298767,230.04418333043577 167.24358974397182,229.64659467854653 166.89743589772843,229.38153538134065 166.0897435899824,228.93976953724632 165.66666666674428,228.7188864518248" stroke="#4dd2ff" stroke-linecap="round" stroke-linejoin="round" stroke-width="0.5"><title>2020-12-03 1.3km</title></polyline><polyline fill="none" points="35.079812206327915,257.297592390154 35.29107981198467,258.07410980117857 35.33333333325572,258.3167712408176 34.61502347420901,258.7535615306988 33.38967136130668,258.7050292954664 31.69953051628545,258.4138357832271 30.093896713340655,257.73438358466956 29.54460093891248,257.6373189082078 26.417840375564992,256.4240088383376 25.276995304971933,256.2298789493507 23.54460093867965,256.27841142885154 22.361502347048372,256.2298789493507 21.51643192465417,256.2298789493507 21.009389671264216,256.2298789493507 19.868544600671157,256.1328139763791 19.48826291062869,256.0842814827338 18.178403755649924,255.9872164807166 17.67136150202714,255.93868397272308 15.896713614929467,255.79308641972602 15.347417840035632,255.6960213604325 14.248826290946454,255.59895628198865 12.812206572853029,254.96803280559834 12.262910797959194,254.77390234250925 11.333333333255723,254.57977180264425 12.389671361306682,254.8224349654629 13.319248826242983,255.25922835676465 14.248826290946454,255.6960213604325 14.798122065607458,255.74455389240757 16.192488262895495,255.89015145975281 16.61502347397618,255.93868397272308 17.71361502329819,256.0357489840826 18.262910797959194,256.0842814827338 19.403755868319422,256.0842814827338 19.910798121942207,256.1328139763791 21.051643192535266,256.2298789493507 21.55868544592522,256.2298789493507 23.122065727598965,256.27841142885154 23.62910798122175,256.27841142885154 24.389671361306682,256.1813464652805 24.64319248823449,256.1813464652805 24.812206572620198,256.1813464652805 24.981220657005906,256.1813464652805 25.150234741624445,256.1813464652805 25.361502347281203,256.1328139763791 25.57276995270513,256.1328139763791 25.995305164018646,256.1813464652805 26.164319248637185,256.1813464652805 26.54460093891248,256.32694390340475 26.924882628954947,256.5210737539164 26.882629107916728,256.61813865049044 26.882629107916728,256.66667109151604 26.840375586645678,256.66667109151604" stroke="#4dd2ff" stroke-linecap="round" stroke-linejoin="round" stroke-width="0.5"><title>2020-11-30 1.0km</title></polyline></svg>