<?xml version="1.0" encoding="utf-8" ?>
<svg baseProfile="full" height="300mm" version="1.1" viewBox="0,0,200,300" width="200mm" xmlns="http://www.w3.org/2000/svg" xmlns:ev="http://www.w3.org/2001/xml-events" xmlns:xlink="http://www.w3.org/1999/xlink"><defs /><rect fill="#222222" height="300" width="200" x="0" y="0" /><text fill="#FFFFFF" style="font-size:12px; font-family:Arial; font-weight:bold;" x="10" y="20">Over 3km Runs</text><text fill="#FFFFFF" style="font-size:4px; font-family:Arial" x="10" y="280">ATHLETE</text><text fill="#FFFFFF" style="font-size:9px; font-family:Arial" x="10" y="290">jdzj</text><text fill="#FFFFFF" style="font-size:4px; font-family:Arial" x="120" y="280">STATISTICS</text><text fill="#FFFFFF" style="font-size:3px; font-family:Arial" x="120" y="285">Number: 39</text><text fill="#FFFFFF" style="font-size:3px; font-family:Arial" x="120" y="290">Weekly: 3.2</text><text fill="#FFFFFF" style="font-size:3px; font-family:Arial" x="141" y="285">Total: 74.9 km</text><text fill="#FFFFFF" style="font-size:3px; font-family:Arial" x="141" y="290">Avg: 1.9 km</text><text fill="#FFFFFF" style="font-size:3px; font-family:Arial" x="167" y="285">Min: 1.0 km</text><text fill="#FFFFFF" style="font-size:3px; font-family:Arial" x="167" y="290">Max: 4.9 km</text><polyline fill="none" points="11.624615384498611,50.185164627531776 11.5,49.46832878002897 13.493846153840423,48.79928102562553 14.324615384684876,46.792132182978094 24.750769230769947,40.57947557425359 28.073846153682098,41.53527411821415 28.863076922949404,42.586650324316 29.8184615385253,40.24494563540793 29.444615384563804,39.81483537243912 29.444615384563804,41.43969434921746 29.236923076910898,40.91400528058875 28.447692307643592,42.73001962917624 29.48615384614095,41.53527411821415 28.48923076922074,42.586650324316 29.029230769025162,40.818425388250034 28.655384615296498,42.68222986560431 29.569230769062415,41.86980316028348 31.272307692328468,42.156542153970804 33.80615384597331,41.24853475438431 36.13230769219808,41.344114561215974 38.5,42.73001962917624 36.963076922809705,41.67864373602788 35.093846153700724,41.43969434921746 30.732307692291215,42.4910707641684 28.572307692142203,41.10516500828089" stroke="#4dd2ff" stroke-linecap="round" stroke-linejoin="round" stroke-width="0.5"><title>2021-05-06 1.2km</title></polyline><polyline fill="none" points="55.73724007583223,47.46278438757872 56.91115311929025,44.94149654899957 65.2816635160707,38.72618315467844 68.80340264644474,34.973509623494465 73.44801512314007,32.510804736055434 75.23440453689545,34.211244915786665 76.0,51.5085494897794 75.03024574671872,46.348728289827704 60.9943289225921,54.0298094599857 57.319470699410886,50.51176934101386 50.42911153123714,54.264344727329444 49.0,56.66832587873796 50.48015122883953,57.489195263944566 54.869565217522904,53.384836997662205 56.50283553870395,49.63225605653133 55.58412098302506,48.283666491217446" stroke="#4dd2ff" stroke-linecap="round" stroke-linejoin="round" stroke-width="0.5"><title>2021-05-06 1.8km</title></polyline><polyline fill="none" points="102.8550913836807,40.82384493073914 105.28720626607537,40.09045673039509 105.53394255880266,39.3163232919469 102.71409921674058,38.17549235391198 103.06657963432372,38.25698038539849 102.64360313303769,38.70516426290851 104.72323759784922,39.520042762189405 106.55613577016629,39.23483547507203 105.95691905985586,41.88318108403473 107.78981723240577,40.864588680444285 107.71932114870287,41.63871914224001 108.45953002618626,41.59797547079506 111.20887728454545,43.79812782708905 113.2180156656541,44.24630553697352 113.25326370750554,45.387119274557335 112.61879895534366,46.283470658090664 113.5,50.357769981288584 112.75979112274945,51.82450764605892 93.1618798954878,49.502170543011744 87.6984334201552,50.23554160146159 86.5,51.131882192363264 87.34595300257206,50.27628439894761" stroke="#4dd2ff" stroke-linecap="round" stroke-linejoin="round" stroke-width="0.5"><title>2021-05-02 1.6km</title></polyline><polyline fill="none" points="132.2708860761486,38.55801729654195 134.18481012666598,39.348454042105004 136.50886075990275,37.372360675712116 145.73670886084437,35.870526368147694 149.83797468361445,37.53044832928572 151.0,40.29697707982268 149.5645569623448,48.20129086408997 137.94430379755795,52.31150237331167 124.82025316450745,54.129473631910514 124.0,52.78575615363661 129.67341772140935,36.50287800800288" stroke="#4dd2ff" stroke-linecap="round" stroke-linejoin="round" stroke-width="0.5"><title>2021-05-01 1.0km</title></polyline><polyline fill="none" points="174.37958048470318,43.89144496811787 172.74392903526314,46.50013982632663 170.31865274859592,41.478392811026424 170.4314562967047,39.652293273073155 172.40551839070395,36.58704311598558 175.50761596718803,35.28267691930523 183.51666789175943,35.41311365773436 188.19801514339633,31.5 182.2758288611658,35.67398705566302 168.34459065436386,33.78265252505662 167.16015339782462,34.36961900861934 164.8476806592662,39.32620352465892 164.05805582134053,51.45663092919858 163.09922566148452,54.58702669781633 161.97119017899968,55.0435414754902 161.8019848568365,58.5 162.7044132426381,58.04348767379997 163.09922566148452,55.89135377493221 164.62207356258295,38.93489560863236 166.65253743086942,36.91313425207045 167.4985640423838,37.43487972620642" stroke="#4dd2ff" stroke-linecap="round" stroke-linejoin="round" stroke-width="0.5"><title>2021-05-01 1.8km</title></polyline><polyline fill="none" points="34.351517107803375,72.54729372254224 33.41026468691416,72.70747328280413 31.87637185282074,73.80870433762902 30.01129761134507,73.72861500787258 29.680116203962825,74.12906134077639 29.732408005162142,73.74863734330575 28.477404777309857,74.16910593061766 25.514202711405233,73.78868200814759 23.771142672689166,73.98890521413705 23.24822466110345,73.70859267051856 21.34828921884764,74.06899444117153 17.060361523530446,74.16910593061766 12.789864428632427,73.72861500787258 11.5,74.82984052217216 11.587153001863044,75.21026249312854 16.607165913446806,76.1913474433677 17.147514525509905,76.03117063254467 18.141058747598436,76.55174480551796 20.790510006423574,76.59178891735792 22.44641704321839,77.2324936324294 23.161071659065783,77.01225161476759 25.043576500960626,77.45273541120696 25.514202711405233,77.81313053362828 26.682052937394474,77.95328401951701 26.995803744299337,77.71302084159106 27.849903163325507,78.11345931352116 28.913169786857907,77.93326209892984 30.691091026412323,78.45383139346086 30.847966429952066,77.97330593819788 31.231439638475422,77.93326209892984 31.946094254264608,78.31367825318011 32.19012265978381,77.73304278393334 33.23595868301345,77.17242765137053 34.490961910865735,75.91103794146329 35.88540994183859,75.37043995175918 36.617495158163365,74.4894623648579 37.837637185293715,74.10903904291627 38.5,73.18801120518765 38.15138799225679,72.1268217752804 37.611039380251896,71.54616860652459 36.51291155582294,72.24695670625078 34.83957391860895,72.14684426873282 34.73499031632673,72.78756301557587 32.38185926398728,73.94886058874545 32.86991607490927,74.4093733037007 33.20109748223331,74.1891282225406 34.3340865073842,75.05008490809996 35.27533892838983,74.90992941746663 35.345061329891905,74.66966263690847" stroke="#4dd2ff" stroke-linecap="round" stroke-linejoin="round" stroke-width="0.5"><title>2021-04-30 3.7km</title></polyline><polyline fill="none" points="75.78672985779122,73.23623378251796 74.08056872035377,75.68592113841441 73.14218009449542,75.83290199568728 63.84360189572908,73.28522764809895 55.568720379145816,73.23623378251796 56.67772511858493,74.16711640084395 49.0,71.86440358625259 55.142180094495416,74.02013505066861 64.95260663493536,74.95101620003697 75.06161137414165,78.13559641374741 76.0,77.93962283618748 74.72037914698012,77.49868200431229" stroke="#4dd2ff" stroke-linecap="round" stroke-linejoin="round" stroke-width="0.5"><title>2021-04-29 1.4km</title></polyline><polyline fill="none" points="96.87571428576484,74.33554940490285 99.07428571442142,72.60747186263325 98.30285714287311,71.23386702072457 99.65285714273341,70.79076778833405 108.87142857140861,61.97300212824484 109.95142857148312,61.840069662663154 113.5,65.91664737128303 108.98714285693131,68.84112597076455 109.488571428461,68.88543610589113 106.6728571425192,71.94282488318277 107.86857142834924,71.49972635036102 108.1385714286007,70.48059806539095 106.78857142850757,71.58834609185578 100.34714285703376,79.38681485856068 95.98857142869383,81.95673512283247 93.01857142848894,84.57094926701393 92.82571428571828,86.25467235324322 90.39571428578347,88.15993033730774 88.39000000013039,87.14083986292826 86.5,84.43802349138423 86.6542857142631,81.82380857339012 89.31571428570896,80.58315888041398 90.28000000002794,79.07665107343928 92.9414285714738,77.92461228143657 93.4428571430035,76.77257053373614 94.75428571435623,76.01931086977129 95.14000000013039,74.6900260274997 96.14285714295693,73.93676287005655 97.26142857130617,74.20262059936067 97.49285714281723,73.36073724998278" stroke="#4dd2ff" stroke-linecap="round" stroke-linejoin="round" stroke-width="0.5"><title>2021-04-26 2.2km</title></polyline><polyline fill="none" points="139.92964901856612,83.72947800598922 140.66590629715938,82.71446476058918 141.51996473991312,72.05664420773974 144.4060932713328,61.5 141.755567069049,71.8874697809515 139.6645963982446,72.86868029402103 136.6312164113624,72.6656714527926 133.48003525985405,73.13935856189346 131.8308189562522,74.15440016260254 130.68225760187488,75.77846047110506 130.5939067285508,85.72566195391119 131.9191698296927,88.16166729407269 132.80267856363207,88.5 133.39168438641354,88.19550057966262 136.57231582922395,85.52266072752536 137.66197660111357,86.26699797008769 138.72218708205037,85.488827178051 138.9283391200006,84.60915372084128" stroke="#4dd2ff" stroke-linecap="round" stroke-linejoin="round" stroke-width="0.5"><title>2021-04-25 2.2km</title></polyline><polyline fill="none" points="176.04328879958484,88.5 175.2470947157126,82.57028896175325 175.68637421028689,79.19535109811113 175.2470947157126,72.9185027051426 175.65891924186144,61.97315048170276 175.32945962098893,61.5 174.64308541070204,61.97315048170276 173.95671120041516,73.13929845957318 174.2312608845532,84.11580935536767 175.32945962098893,84.4312207622861 175.41182452614885,84.14735051008756 175.54909936827607,78.753767806018 175.1921847788617,82.94878444314236" stroke="#4dd2ff" stroke-linecap="round" stroke-linejoin="round" stroke-width="0.5"><title>2021-04-18 2.2km</title></polyline><polyline fill="none" points="38.5,108.84329710557358 33.66475644684397,108.35455802554497 19.0429799426347,103.95588244483224 12.583094555651769,103.33384404791286 11.5,102.62294197097071 19.197707736166194,102.53407913257251 20.899713466875255,101.15670289442642 24.226361031411216,102.66737338370876" stroke="#4dd2ff" stroke-linecap="round" stroke-linejoin="round" stroke-width="0.5"><title>2021-04-16 1.0km</title></polyline><polyline fill="none" points="76.0,107.16544545063516 75.20920502085937,107.37630865129177 74.88441422593314,106.71127763851837 74.31956066942075,106.48419326210569 73.5993723848951,106.66261672708788 73.34518828446744,106.45175261124677 72.99215481168358,105.96514208130247 73.61349372385303,104.86215288248786 73.4016736401245,104.05112669288064 72.97803347278386,103.87270039442228 69.68776150629856,104.09978837710514 66.87761506275274,103.85647981220973 65.50784518831642,104.1808911520493 64.92887029290432,103.95380328134343 63.996861924708355,104.05112669288064 63.770920502138324,103.85647981220973 61.93514644348761,104.06734725587012 61.28556485357694,103.84025922839646 60.53713389125187,104.05112669288064 59.78870292886859,103.74293569203292 58.207112970761955,104.03490612830501 56.907949790824205,103.51584721657855 55.83472803351469,103.6456120981311 55.227510460303165,102.89946263092861 54.12604602507781,102.9643453276658 53.123430962325074,102.6561522900156 52.71391213394236,102.85080059153552 52.14905857742997,102.29929647214885 51.3158995815902,102.59126947163895 50.101464435167145,102.18575127677468 49.39539748959942,102.55882805289002 49.889644351555035,102.20197202375857 50.00261506275274,102.75347646955925 49.0,102.70481438699062 49.84728033473948,102.39662086291355 49.437761506356765,102.49394519609632 49.875523012597114,102.46150375812431 49.52248953975504,102.60749017864873 49.74843096238328,102.85080059153552 49.50836820085533,102.6561522900156 49.84728033473948,102.54260734103445 49.74843096238328,102.36417940571846 49.46600418409798,102.46150375812431 49.56485355651239,102.70481438699062 50.00261506275274,102.52638662765094 49.79079497908242,102.44528303669358 49.7625523013412,102.67237299059343 49.875523012597114,102.38040013515274 49.720188284583855,102.67237299059343 49.81903765688185,102.44528303669358 49.889644351555035,102.6237108840287 49.67782426782651,102.03976448181493 49.80491631804034,102.46150375812431 49.73430962342536,102.18575127677468 49.7625523013412,102.46150375812431 49.480125522997696,102.25063425516419 49.57897489547031,102.10464751777181 49.67782426782651,102.25063425516419 49.46600418409798,102.33173794214963 49.74843096238328,102.47772447788157 49.52248953975504,102.34795867474168 49.79079497908242,102.10464751777181 49.59309623437002,102.44528303669358 49.367154811741784,102.44528303669358 49.59309623437002,102.02354371879483 49.3812761506415,102.16953052819008 49.720188284583855,102.46150375812431 49.480125522997696,102.31551720792777 49.52248953975504,102.46150375812431 49.59309623437002,102.33173794214963 49.66370292886859,103.01300733347307 49.52248953975504,104.53774288666318 50.892259414249565,104.82971191170509 51.005230125563685,105.08923949877499 52.23378661094466,104.97569622984156 52.93985355651239,105.23522358651098 58.57426778244553,105.47853011143161 64.13807531388011,106.19222717446974 66.80700836819597,106.28954926127335 67.9932008368778,106.54907454446948 69.36297071131412,107.24654671369353 71.50941422587493,107.00324280455243 71.73535564856138,107.39252888633928 72.03190376568818,107.26276696148852 74.05125523015158,107.68449284293456 74.40428870293545,107.97645628120517 75.03974895400461,107.830474626855 75.23744769877521,107.23032646426873 75.8023012552294,107.00324280455243" stroke="#4dd2ff" stroke-linecap="round" stroke-linejoin="round" stroke-width="0.5"><title>2021-04-09 4.9km</title></polyline><polyline fill="none" points="112.95496894442476,106.44471134166815 104.48602484492585,103.98871357101598 103.52173913060687,103.0737308509415 97.56832298170775,103.55530091744731 93.25000000023283,103.1218878790387 94.04658385110088,103.60345789804705 93.66925465851091,103.79608577254112 86.5,102.15874641618575 92.45341614913195,103.94055662854225 101.00621118023992,104.66291026771069 112.87111801258288,107.84125358381425 111.27795031084679,107.21521790020051 113.5,106.92627808329416 112.91304347827099,106.20392779266695" stroke="#4dd2ff" stroke-linecap="round" stroke-linejoin="round" stroke-width="0.5"><title>2021-04-09 1.4km</title></polyline><polyline fill="none" points="125.07386363646947,103.50223745114636 126.37784090917557,104.60354574551457 135.81250000023283,108.21581789135234 139.9928977272939,108.03961017174879 143.6363636367023,108.788492499938 150.3863636367023,108.03961017174879 151.0,107.29072658804944 148.2769886367023,106.58589383284561 145.0170454545878,107.2466745733982 141.6420454545878,105.96916425964446 138.84232954564504,106.18942491928465 134.0866477272939,103.76655168936122 133.47301136376336,102.6211888602993 130.75000000023283,101.56392825720832 128.67897727293894,101.2115075000911 124.0,102.3568739441107" stroke="#4dd2ff" stroke-linecap="round" stroke-linejoin="round" stroke-width="0.5"><title>2021-04-08 1.4km</title></polyline><polyline fill="none" points="188.3246753248386,106.12775079283165 188.5,107.05411077366443 186.22077922080643,107.0943872469943 180.18961038975976,105.04028204680071 171.07272727275267,104.597238393937 166.26883116876706,102.9056127530348 161.5,103.63059602869907 166.02337662340142,103.10699712540372 170.82727272738703,104.55696167447604 179.7688311689999,104.95972869111574" stroke="#4dd2ff" stroke-linecap="round" stroke-linejoin="round" stroke-width="0.5"><title>2021-04-06 1.3km</title></polyline><polyline fill="none" points="19.745508981868625,130.9457708785194 23.14071856276132,129.88541559164878 24.541916167596355,131.00814466172596 24.541916167596355,132.19324533944018 23.625748503021896,132.69223441329086 25.242514970013872,134.4386929749744 26.913173652486876,134.62581324036 29.068862275220454,133.62783783260966 31.494011976057664,130.57152804534417 33.64970059879124,131.38238722848473 35.42814371269196,130.32203269645106 38.44610778428614,130.6962756817229 38.44610778428614,126.89146135671763 38.12275449116714,129.19930237036897 36.34431137726642,128.88743247062666 38.5,129.26167633139994 38.39221556880511,130.88339708879357 33.7574850297533,131.32001348305494 31.494011976057664,130.50915421778336 27.829341317294165,135.12480033526663 28.691616766620427,134.37631954066455 24.64970059879124,134.31394609995186 23.841317364946008,132.94172879809048 25.02694610785693,132.94172879809048 24.919161676662043,132.3179926458979 23.51796407182701,129.82304169406416 22.92514970037155,130.6962756817229 21.73952095792629,130.57152804534417 20.23053892189637,133.8149583453196 15.218562874011695,136.43463952775346 13.60179640701972,139.42854717787122 13.386227544629946,137.1207446550252 12.95508982008323,140.0522760989843 12.577844311250374,138.6800716354628 12.95508982008323,139.61566592089366 12.631736526731402,138.8048176226439 14.841317365178838,139.9275303655304 16.61976047884673,142.609558043594 18.93712574825622,142.422440214199 19.58383233519271,141.11261380888755 18.182634730357677,140.48888596630422 19.422155688516796,140.48888596630422 18.829341317294165,141.23735930153634 18.290419161319733,140.73837717954302 18.93712574825622,141.48685021017445 19.098802394932136,140.8631227480946 19.368263473035768,142.29769496276276 18.452095807995647,143.10853864328237 15.488023951882496,142.85904839425348 12.739520957693458,139.61566592089366 13.224550897954032,136.80887878325302 13.54790419130586,139.05430952075403 11.5,140.23939465155127 12.09281437122263,139.2414283779217 11.715568861924112,140.48888596630422 13.224550897954032,139.42854717787122 13.440119760343805,136.68413239018992" stroke="#4dd2ff" stroke-linecap="round" stroke-linejoin="round" stroke-width="0.5"><title>2021-04-05 1.9km</title></polyline><polyline fill="none" points="70.23379468498752,142.10341087402776 69.17500136501621,142.6364659423416 69.5893117946107,141.9967997299682 70.32586366939358,141.9967997299682 70.48698439181317,141.5437018830562 69.65836353285704,146.47443036714685 67.88603558414616,147.75373932847288 67.79396659974009,148.5 67.72491486161016,147.75373932847288 69.72741527110338,146.5543873605202 70.39491540763993,143.9424462687748 70.85526032932103,139.78460868593538 69.70439802494366,138.95836385842995 67.21853544760961,138.50526074811933 65.74543169816025,139.65134356773342 62.66112072265241,140.53089209322934 57.044912677491084,143.91579367421218 56.03215384972282,142.2899802714819 54.858274299418554,142.79638225099188 54.305860393331386,142.58316048438428 51.08344594121445,128.7500269431912 50.89930797251873,126.21787125550327 52.533532444620505,133.6276893276954 53.03991185850464,133.84091839494067 58.95534410269465,131.1488886642328 63.512758827768266,129.6829202270601 66.36689734249376,128.08367256019847 70.3718981614802,124.85849335137755 72.74267450836487,121.5 74.10069202748127,122.19302596943453 73.93957130482886,122.40626435974264 73.38715739874169,122.2196807777218 73.7093988439301,121.95313257249654 73.7093988439301,122.37960957048927 73.8475023205392,121.65992923290469 73.06491595355328,121.89982289876207" stroke="#4dd2ff" stroke-linecap="round" stroke-linejoin="round" stroke-width="0.5"><title>2021-04-05 3.7km</title></polyline><polyline fill="none" points="93.31308411201462,125.2103965000133 97.60280373785645,128.61973999917973 101.13551401905715,138.45806303771678 101.2196261677891,143.42589063744526 103.15420560725033,143.03625803388422 105.08878504671156,144.7896034999867 109.46261682221666,141.57513435458532 113.5,142.64662527100882 105.25700934557244,140.69845907430863 105.25700934557244,143.91293116903398 105.67757009342313,139.432148916414 105.50934579409659,144.10774731216952 105.76168224262074,142.54921705560992 102.39719626121223,143.23107435565908 104.66822429932654,141.76995097420877 105.845794392284,143.91293116903398 103.7429906539619,142.54921705560992 105.25700934557244,142.15958409424638 104.92056074785069,144.01033924537478 105.845794392284,144.01033924537478 104.75233644852415,142.06217582896352 106.68691588751972,144.4973794791731 104.75233644852415,142.7440334765124 104.92056074785069,141.1855009960709 106.35046728979796,143.42589063744526 105.0046728970483,141.2829093504115 102.73364485986531,141.1855009960709 101.72429906530306,143.71811498625902 101.9766355138272,142.4518088303157 97.68691588798538,139.23733182030264 99.3691588784568,133.0031637659995 97.68691588798538,133.6850278780912 97.77102803764865,131.15238729520934 92.80841121450067,128.4249206984532 86.5,129.00937848177273 90.03271028026938,130.2757024524617 91.21028037369251,133.58761874877382" stroke="#4dd2ff" stroke-linecap="round" stroke-linejoin="round" stroke-width="0.5"><title>2021-04-04 1.4km</title></polyline><polyline fill="none" points="140.66759776556864,122.9137280768482 132.29608938563615,126.72593444224913 124.22625698335469,136.08309806726174 131.84357541939244,144.48713224026142 136.29329608939588,139.46204931195825 141.4972067042254,137.29605642065872 141.64804469328374,134.43693762167823 146.47486033523455,130.88468614366138 139.38547486020252,121.87403255852405 133.42737430194393,125.85952535836259 124.0,136.60293756675674 131.6927374303341,143.5341014813166 136.21787709509954,138.24909395119175 143.6089385477826,137.03613691445207 145.79608938563615,135.38997825584374 146.92737430194393,131.05796703702072 146.6256983242929,130.27820274728583 145.7206703913398,132.01101133896736 143.08100558677688,133.31061553861946 143.00558659248054,132.5308532496565 151.0,127.24577948241495 148.0586592182517,125.68624343891861 144.9664804469794,121.87403255852405 143.23184357536957,124.73319227073807 137.95251396670938,122.48052176041529 127.54469273751602,131.8377306337352 124.30167597765103,136.42965776781784 131.84357541939244,143.5341014813166 136.29329608939588,138.85557184100617 136.97206703945994,139.3754096989869 135.08659217879176,141.97459437139332 145.41899441368878,144.14057572046295 148.7374301678501,148.12596744153416 141.72346368711442,135.3033382408903 142.47765363147482,132.9640546067385 146.17318435804918,129.84500006528106 142.10055865952745,127.33242029225221 139.8379888269119,123.00036931439536 138.2541899443604,122.39388047158718 136.89664804469794,123.34693417925155 137.575418994762,123.95342236361466" stroke="#4dd2ff" stroke-linecap="round" stroke-linejoin="round" stroke-width="0.5"><title>2021-04-02 3.1km</title></polyline><polyline fill="none" points="178.06382978719193,145.4343305611983 174.9042553191539,144.3345724202518 168.9441489361925,144.22459636750864 162.48138297873084,143.37228048761608 161.9308510639239,142.8498920472921 161.5,140.23793516049045 162.12234042549971,139.74303530808538 163.41489361703862,139.68804638125584 162.24202127661556,136.03125840533176 162.5292553191539,131.08214564228547 164.32446808519308,128.52506961475592 165.0425531915389,126.7928434922942 168.46542553184554,124.42819997627521 169.85372340434697,125.94047430498176 171.14627659576945,126.21543239211314 171.81648936169222,127.01280931095243 174.64095744676888,127.01280931095243 178.99734042549971,127.70020137538086 181.10372340423055,128.80002515210072 184.5984042553464,131.90700387241668 187.9015957445372,137.62595379757113 187.99734042549971,138.36830888519762 187.23138297861442,139.028178414359 186.92021276592277,140.07296864059754 187.59042553184554,140.0454742111324 188.5,142.38249103396083 187.9015957445372,143.6197273019061 185.8191489360761,144.00464413187 185.3164893615758,144.63700634156703 184.14361702115275,144.05963220700505 183.64095744676888,144.27958439930808 182.39627659565303,143.89466794897453 181.79787234030664,145.5718000237248 181.60638297861442,145.37934275722364" stroke="#4dd2ff" stroke-linecap="round" stroke-linejoin="round" stroke-width="0.5"><title>2021-04-02 3.2km</title></polyline><polyline fill="none" points="14.32891246699728,162.71723626583116 23.460212201578543,166.78919727093307 28.40185676398687,166.74806655038265 31.409814323531464,167.44728824673803 35.456233421806246,166.4601513936359 38.5,166.50128214235883 31.624668434960768,167.40615759126376 28.616710875416175,166.7069358259323 23.746684350073338,166.953720112273 17.444297082256526,165.14396528797806 11.5,162.55271175326197" stroke="#4dd2ff" stroke-linecap="round" stroke-linejoin="round" stroke-width="0.5"><title>2021-04-01 1.4km</title></polyline><polyline fill="none" points="49.0,161.59926042420557 52.04909983626567,164.6954673033033 55.62847790494561,165.45682679719175 59.82651391159743,167.63938443706138 65.57119476282969,167.5378703335009 68.75286415708251,168.40073957582354 76.0,167.5378703335009 70.918166939402,168.29922562243883 64.77577741397545,167.3855991406017 59.296235679183155,167.63938443706138 51.07692307676189,165.40606953256065 50.23731587571092,164.94925392634468 51.2094926352147,164.5431952692743" stroke="#4dd2ff" stroke-linecap="round" stroke-linejoin="round" stroke-width="0.5"><title>2021-03-29 1.2km</title></polyline><polyline fill="none" points="99.50763466744684,178.5 98.24936770671047,171.4047617338947 97.37405155971646,171.15360141260317 93.10688534518704,165.00014268804807 90.26210786867887,164.74897984799463 99.12468385323882,151.5 102.07887584809214,153.32096613023896 107.87784531945363,159.22337237704778 107.27606546878815,163.43037331756204 109.7378921310883,177.8721059873933 101.91475407057442,172.6605618582107 99.06997659383342,172.09545210778015 98.79644029820338,173.28846099448856" stroke="#4dd2ff" stroke-linecap="round" stroke-linejoin="round" stroke-width="0.5"><title>2021-03-28 1.4km</title></polyline><polyline fill="none" points="137.16769230784848,160.10942592195352 138.70461538457312,161.01598240912426 139.07846153830178,160.25256653287215 140.57384615391493,160.157139463583 140.90615384629928,159.3937222318491 141.3630769229494,159.91857170814183 142.06923076929525,159.3937222318491 144.27076923055574,160.63427462166874 145.55846153851599,159.68000383497565 149.3384615383111,160.82512855296955 149.08923076931387,159.87085814285092 150.87538461526856,160.0617123756092 149.546153845964,159.58457665276364 149.87846153834835,158.8211585173267 149.96153846150264,159.87085814285092 149.75384615384974,159.3937222318491 149.29692307696678,160.01399882443366 149.37999999988824,159.2505813666503 149.96153846150264,160.0617123756092 149.3384615383111,159.87085814285092 150.5846153846942,159.72771741898032 150.5846153846942,160.20485300049768 150.0446153844241,159.5368630544981 149.17230769223534,160.01399882443366 150.9169230768457,159.72771741898032 150.37692307680845,159.29829499311745 150.2107692307327,160.7297015967779 149.46307692304254,160.10942592195352 149.37999999988824,160.63427462166874 150.4184615383856,159.9662852686888 149.96153846150264,160.01399882443366 151.0,161.30226305214455 150.87538461526856,159.91857170814183 150.25230769230984,160.01399882443366 150.5846153846942,160.68198811152251 149.67076923092827,160.96826895224513 149.546153845964,160.4434206149308 149.04769230773672,161.1591227517929 147.30307692289352,160.92055549059296 147.30307692289352,159.9662852686888 147.71846153843217,168.1729476553155 143.0246153846383,169.22262698729173 139.20307692303322,167.98209662307636 139.49384615384042,168.602362202917 138.33076923084445,167.98209662307636 131.6015384614002,167.64810713526094 128.2369230769109,168.65007490682183 127.9461538461037,170.36772911532898 127.15692307706922,170.9879916361242 124.45692307688296,171.1788414827024 124.0,170.4154416451056" stroke="#4dd2ff" stroke-linecap="round" stroke-linejoin="round" stroke-width="0.5"><title>2021-03-26 1.5km</title></polyline><polyline fill="none" points="164.35365853691474,163.28908159493585 172.9146341466112,166.78296138744918 175.92508710816037,166.56684608149226 178.5592334496323,167.14315327999066 182.3536585366819,166.38674989546416 183.8588850174565,166.56684608149226 188.5,164.90995782002574 184.39198606286664,166.56684608149226 179.09233449492604,166.99907656561118 176.30139372847043,166.42276913978276 173.19686411181465,166.67490375047782 166.51742160285357,165.0540353585675 161.5,162.85684672000934" stroke="#4dd2ff" stroke-linecap="round" stroke-linejoin="round" stroke-width="0.5"><title>2021-03-26 1.6km</title></polyline><polyline fill="none" points="38.5,197.39574562490452 36.43718166393228,197.13247799157398 33.36587436310947,195.18429346877383 30.752971137408167,195.23694719810737 26.994057724950835,193.76264081668342 17.825976230669767,194.0259101120173 19.201188454870135,194.71040967211593 18.651103565236554,194.8683709843317 11.5,192.60425437503727 17.275891341036186,194.81571721867658 25.481324278283864,195.34225464100018 32.494906621286646,197.02717090176884" stroke="#4dd2ff" stroke-linecap="round" stroke-linejoin="round" stroke-width="0.5"><title>2021-03-24 1.1km</title></polyline><polyline fill="none" points="76.0,196.98045260098297 74.05570652172901,196.85404130007373 72.14809782616794,195.42137727636145 69.10326086962596,194.91573000318022 66.60869565233588,193.77802145073656 58.978260869625956,193.94657105699298 59.638586956774816,194.6629061421845 53.658967391587794,193.01954739898792 49.0,193.60947177780326 50.834239130374044,193.8622962621157 53.80570652172901,193.06168488171534 59.3084239133168,194.74718077926082 69.32336956541985,195.16855371458223" stroke="#4dd2ff" stroke-linecap="round" stroke-linejoin="round" stroke-width="0.5"><title>2021-03-23 1.3km</title></polyline><polyline fill="none" points="112.96143617015332,196.34032829705393 103.87765957438387,193.16479310847353 100.17952127661556,193.78340575075708 96.51728723407723,193.37099742420833 97.52260638284497,194.0308505515568 97.12765957438387,194.15457289706683 91.34707446792163,192.42245672934223 86.5,193.12355223300983 90.98803191492334,192.50493861435098 96.40957446815446,194.0720913373807 103.59042553184554,194.56698045079247 113.5,197.57754327062867 111.88430851045996,196.7939742123708 113.5,196.34032829705393" stroke="#4dd2ff" stroke-linecap="round" stroke-linejoin="round" stroke-width="0.5"><title>2021-03-22 1.6km</title></polyline><polyline fill="none" points="146.99234889051877,181.66696286508522 147.36419280793052,181.92771207584883 147.15761285379995,182.75736678148678 149.03749043610878,183.0418191668141 149.5332823258359,183.4447928055597 149.36801836267114,184.17962535582774 150.1117061972618,184.6774138768087 151.0,186.21818136313232 150.46289211930707,187.64041954364802 149.67788829375058,187.97227391318302 149.38867635803763,188.8256116255361 145.56694720732048,192.1441184944124 141.3527161438251,193.77965152416436 140.03060443745926,194.63296870570048 139.01836266263854,195.4862828705518 136.06426931906026,199.56318669089524 124.0,208.33303713492933" stroke="#4dd2ff" stroke-linecap="round" stroke-linejoin="round" stroke-width="0.5"><title>2021-03-21 1.3km</title></polyline><polyline fill="none" points="173.7393090579426,192.65431547551998 173.39659695723094,190.4628218654252 171.0465711238794,187.5408042424533 170.09187312901486,187.2598394350207 166.86058760806918,190.20995613664854 163.6537815228803,194.28387675297563 162.845960142673,194.5086430964584 161.96470045519527,196.89677457942162 163.4579460368259,199.032028183894 167.00746422261,200.7177434452169 170.85073563770857,203.83629046773422 170.63042071578093,204.00485960778315 171.1444888669066,203.94866990548326 170.67937958752736,203.69581610852038 171.26688604569063,204.67913517341367 172.56429614126682,206.22434401192004 177.48466273001395,208.5 180.03052404953633,208.24715022931923 186.0279858118156,204.06104929899448 186.83580719213933,202.37535375673906 188.0352995446883,196.98106120841112 186.83580719213933,194.90198377234628 182.35607044724748,190.77187967445934 177.50914216588717,184.67495024375967 173.9106651082402,181.5 169.87155820708722,187.11935692763655 170.60594128014054,187.20364644034998 171.60959814640228,188.13082943920745 173.56795300764497,190.63139889360173 173.54347357188817,191.41809037700295" stroke="#4dd2ff" stroke-linecap="round" stroke-linejoin="round" stroke-width="0.5"><title>2021-03-20 3.7km</title></polyline><polyline fill="none" points="35.83990147779696,231.79852100237622 26.618226600810885,228.8448868917476 16.86453201971017,228.53933757098275 11.633004926145077,227.4189885148371 11.5,225.58568481527618 12.253694581333548,224.7708810813201 11.544334975536913,223.395896864502 11.72167487675324,221.00239708510344 14.51477832510136,218.20147899762378 19.12561576371081,218.76166383081 23.825123152695596,220.34036327208742 32.69211822655052,220.1366603898059 37.43596059107222,219.37277386462665 38.012315270723775,218.7107379619556 37.16995073878206,220.6459174452175 36.63793103443459,227.21528842530097 37.0812807881739,230.57632962657954 38.5,230.83095306847827" stroke="#4dd2ff" stroke-linecap="round" stroke-linejoin="round" stroke-width="0.5"><title>2021-03-19 1.6km</title></polyline><polyline fill="none" points="59.94199535972439,224.7241834859742 65.80974477971904,227.2426167684025 68.0858468679944,227.09870699765452 70.06960556854028,227.53043605438143 72.15777262195479,227.07472202762438 73.26450116012711,227.1706618936878 76.0,226.3551718256931 70.9257540605031,227.50645112684288 68.31554524379317,227.09870699765452 65.39211136905942,227.21863181254594 53.7192575406516,223.50093505275436 49.0,222.9972427329194 50.023201856180094,223.14115493069403 49.33410672855098,222.85333044989966 49.542923433938995,222.73340348235797 51.12993039446883,222.8293450611527 53.2389791184105,222.46956394561857 53.948955916566774,222.9972427329194 54.36658932722639,222.73340348235797 54.86774941999465,223.21311099771992 55.30626450118143,223.0691988425242 55.870069605647586,223.54890569548297 56.58004640380386,223.2850670433836 58.041763341170736,224.3404199340148 58.33410672855098,223.98064105407684 57.5823665894568,222.85333044989966 57.29002320196014,222.87731583633285 57.39443155459594,223.69281756679993 58.7517401392106,224.36440517377923 59.31554524379317,223.02122810516448 59.628770301816985,223.66883226085338 60.04640371236019,223.59687632865098 59.60788863117341,223.71680287044728 59.85846867761575,223.6448469524621 59.25290023209527,222.8053596700338 60.150812065112405,222.73340348235797" stroke="#4dd2ff" stroke-linecap="round" stroke-linejoin="round" stroke-width="0.5"><title>2021-03-19 3.1km</title></polyline><polyline fill="none" points="97.86185962153831,238.5 97.71021845994983,238.02971275118762 97.42210025299573,237.9774585351406 96.9975050004432,238.3780737964844 97.51308494986733,235.43440133267723 97.31595143978484,236.1485512315412 97.40693613677286,237.45491552402382 97.11881792976055,237.68135101867665 95.48109338455833,237.6465148076095 95.28395987441763,236.60142528064898 95.42043691989966,235.67825772045762 99.39343535364605,234.7899221154221 102.06231979769655,234.61573813950235 101.97133510076674,217.77133590234735 102.8660179541912,216.62160766593297 104.71604012564057,214.98410300788237 104.38242957007606,214.14792455772113 102.12297626235522,211.5" stroke="#4dd2ff" stroke-linecap="round" stroke-linejoin="round" stroke-width="0.5"><title>2021-03-18 2.7km</title></polyline><polyline fill="none" points="133.15707811439643,236.27201083266118 133.91298898454988,236.40306984627387 134.02708873845404,237.04198105671094 134.31233812338905,237.20580404812063 135.8526848020265,237.51706728668069 137.84943049651338,237.33686232486798 139.23289001343073,237.73003653480555 140.5165122456383,238.5 140.8445490382146,237.46792049828218 140.6591369381058,233.0937980911549 141.84292188554537,232.97911917501187 140.14568804518785,232.50401996453002 138.50550408184063,232.42210617019737 137.77811815030873,231.6357316889771 136.3376087563811,216.74306192847143 137.90648037352366,214.90800908749225 139.01895297470037,214.2690127123351 138.22025469696382,212.84355039751972 136.85105764924083,211.5" stroke="#4dd2ff" stroke-linecap="round" stroke-linejoin="round" stroke-width="0.5"><title>2021-03-17 2.8km</title></polyline><polyline fill="none" points="162.40957446815446,223.5428993329988 162.74468085099943,223.5428993329988 164.42021276592277,224.25771734368755 164.89893617015332,224.86256263690302 169.87765957438387,226.23720859031891 175.14361702115275,226.95202314679045 176.9148936169222,226.8420517363702 178.15957446815446,227.11698022211203 178.78191489353776,227.33692291303305 181.27127659553662,227.72182241349947 183.32978723407723,228.5466061629122 184.0,228.7115627663443 185.14893617038615,229.31640322814928 186.10638297884725,229.9212430336629 186.4893617022317,230.03121383691905 186.92021276592277,230.2511553784134 187.97340425522998,230.5260821832344 188.5,230.4710968331783 188.45212765969336,230.4710968331783 188.45212765969336,230.4710968331783 188.3085106385406,230.5260821832344 188.4042553191539,230.4710968331783 188.45212765969336,230.4710968331783 188.5,230.5260821832344 188.21276595722884,230.4710968331783 187.59042553184554,230.4710968331783 185.4840425529983,230.5260821832344 184.04787234053947,230.08619923051447 182.65957446815446,229.81127220881172 181.27127659553662,229.70130136219086 179.88297872338444,229.75628678809153 179.16489361715503,229.81127220881172 177.77659574477002,229.9212430336629 177.15425531892106,229.9212430336629 175.0,229.75628678809153 174.32978723407723,229.59133049368393 173.0372340423055,229.26141775865108 172.36702127661556,228.93150482838973 171.07446808507666,228.4916206173948 170.4042553191539,228.27167838194873 167.67553191492334,227.72182241349947 165.9042553191539,227.00700884399703 165.7606382977683,226.6770945797325 166.33510638284497,226.5671231148881 166.57446808507666,226.5671231148881 166.76595744676888,226.34718012035592 166.57446808507666,226.29219435801497 166.09574468061328,226.18222281726776 165.85638297861442,226.1272370388615 165.71276595746167,226.0722512549255 165.42553191492334,226.0722512549255 165.23404255323112,225.96227967075538 164.99468085099943,225.96227967075538 164.75531914876774,225.96227967075538 164.42021276592277,225.8523080649902 164.18085106369108,225.7423364375718 164.03723404253833,225.6873506156844 163.55851063830778,225.4124214250478 163.4148936169222,225.30244971072534 163.17553191492334,225.1374920986127 163.03191489353776,225.02752033027355 162.888297872385,224.86256263690302 162.69680851045996,224.64261896983953 162.361702127615,224.3676892640069 162.07446808507666,224.20273137534969 161.93085106369108,224.09275942249224 161.69148936169222,223.81782944552833 161.59574468061328,223.32295514538419 161.59574468061328,222.88306650985032 161.54787234053947,222.6081359362579 161.5,222.38819137983955 161.64361702115275,221.94830200687284 161.59574468061328,221.34345355216647 161.59574468061328,221.06852221954614 161.54787234053947,220.90356335480465 161.64361702115275,220.73860444140155 161.59574468061328,220.68361812614603 161.64361702115275,220.29871376691153 161.69148936169222,220.02378191897878 161.93085106369108,219.96879553317558 162.40957446815446,219.80383634311147 162.64893617015332,219.69386352261063 162.79255319130607,219.63887710432755 163.07978723407723,219.52890425140504 163.12765957438387,219.52890425140504 163.12765957438387,219.4739178167074 163.17553191492334,219.4739178167074" stroke="#4dd2ff" stroke-linecap="round" stroke-linejoin="round" stroke-width="0.5"><title>2021-03-02 1.4km</title></polyline><polyline fill="none" points="16.46046511642635,255.39670685463352 16.774418605025858,255.54094889492262 20.22790697682649,256.1900377253187 22.425581395626068,256.98336773522897 23.2418604651466,257.3439720008755 25.43953488394618,257.92093845579075 26.255813953466713,257.92093845579075 28.579069767612964,257.77669688494643 29.332558139692992,257.5603344748379 31.655813953606412,257.41609283257276 33.10000000009313,257.92093845579075 33.85348837217316,258.209421512729 35.17209302354604,258.71426658827113 36.42790697677992,258.93062865681713 37.997674418846145,258.786387285043 38.24883720930666,258.64214588463074 38.5,258.786387285043 38.437209302559495,259.79607629112434 37.30697674443945,260.08455860830145 36.36511627910659,260.8778843934997 35.92558139516041,261.0221253531636 35.48604651167989,261.1663662841311 35.234883720986545,261.1663662841311 34.85813953494653,261.2384867388173 34.60697674448602,261.3827276270604 33.72790697682649,261.743329723482 33.85348837217316,262.10393164196284 34.29302325588651,262.39241304877214 34.29302325588651,262.4645333828521 34.29302325588651,262.5366537095397 34.355813953559846,262.4645333828521 34.04186046519317,262.39241304877214 33.66511627915315,262.5366537095397 33.53953488403931,262.6087740291259 33.41395348822698,262.68089434184367 33.351162790786475,262.75301464722725 33.351162790786475,262.75301464722725 33.10000000009313,262.39241304877214 32.97441860474646,262.24817235959927 32.78604651149362,262.03181127260905 32.72325581405312,261.8875705123064 32.09534883755259,261.743329723482 31.84418604662642,261.743329723482 31.53023255825974,261.743329723482 31.216279070125893,261.67120931850513 30.83953488408588,261.67120931850513 30.52558139548637,261.67120931850513 29.897674418753013,261.52696848718915 29.583720930153504,261.45484806067543 29.269767442252487,261.3827276270604 28.955813953420147,261.3106071865186 28.32790697691962,261.1663662841311 28.076744185993448,261.0221253531636 27.7627906978596,260.9500048768823 27.448837209492922,260.8057639031322 27.134883720893413,260.6615229010349 26.8837209304329,260.4451613446581 26.31860465137288,260.1566791696823 25.753488372080028,259.86819688096875 25.31395348883234,259.4354732345091 25.0,259.2912319623283 24.68604651163332,259.1469906614511 24.372093023499474,259.0027493322268 24.058139534667134,258.85850797448074 23.86976744211279,258.786387285043 23.367441860726103,258.57002517359797 23.11627907003276,258.4979044556967 22.865116279106587,258.4257837305777 22.613953488413244,258.28154225915205 22.300000000279397,258.209421512729 21.986046511679888,258.13730075926287 21.295348837273195,258.06517999846255 21.044186046812683,257.99305923079373 20.730232558213174,257.92093845579075 20.35348837217316,257.92093845579075 20.102325581479818,257.84881767391926 19.47441860474646,257.77669688494643 19.160465116379783,257.63245528534753 18.59534883731976,257.1997303159442 17.967441860586405,256.98336773522897 17.716279069893062,256.9112468608073 17.402325581759214,256.8391259793425 17.02558139548637,256.76700509065995 16.774418605025858,256.6948841949343 16.46046511642635,256.5506423818297 15.895348837366328,256.2621586708119 15.58139534899965,256.1179167724913 15.330232558073476,255.97367484582355 14.70232558157295,255.6130699045607 14.513953488552943,255.46882787835784 14.26279069762677,255.32458582380787 13.69767441879958,254.96398056240287 13.446511628106236,254.7476173203322 13.132558139739558,254.3148906439892 12.693023256026208,253.81004253140418 11.93953488371335,253.23307283304166 11.93953488371335,253.01670907909283 11.813953488599509,252.65610267966986 11.688372093485668,252.36761743220268 11.5,251.43003959202906 11.688372093485668,251.06943241041154 11.751162790693343,250.7088250509696 11.813953488599509,250.42033903533593 11.876744186505675,250.20397444895934 11.876744186505675,249.84336666268064 11.876744186505675,248.9057855863357 11.876744186505675,248.25669029093115 12.567441860679537,247.96820330794435 13.069767442066222,247.67971621121978 13.509302326012403,247.53547262010397 13.823255814379081,247.46335081395227 13.948837209492922,247.31910718022846 14.827906976919621,247.24698535277275" stroke="#4dd2ff" stroke-linecap="round" stroke-linejoin="round" stroke-width="0.5"><title>2020-12-25 1.0km</title></polyline><polyline fill="none" points="49.40601503755897,251.8813230539672 49.7105263157282,252.17278965492733 49.964285714318976,252.46425611217273 50.52255639084615,252.814015671378 52.70488721807487,253.3969478099607 53.872180451173335,253.7467068171827 54.633458646712825,253.92158624331933 58.18609022558667,255.32061978871934 59.2011278194841,256.02013531984994 60.36842105258256,256.5447714247275 62.09398496244103,257.185992698709 62.75375939835794,257.30257831001654 63.97180451150052,257.30257831001654 64.6823308269959,257.30257831001654 65.90037593967281,257.06940706435125 67.01691729342565,256.95282140676863 68.28571428591385,257.0111142384121 68.99624060164206,256.95282140676863 70.97556390985847,257.30257831001654 71.63533834577538,257.53574946388835 72.90413533826359,257.76892052585026 73.61466165445745,257.7106277688872 74.88345864671282,257.6523350063362 75.44172932347283,257.5940422380809 76.0,257.82721327705076 75.94924812018871,257.8855060223141 75.79699248145334,257.94379876181483 75.74624060164206,258.00209149578586 75.74624060164206,258.0603842238197 75.69548872183077,258.00209149578586 75.59398496244103,258.118676946091 75.59398496244103,258.00209149578586 75.64473684248514,258.0603842238197 75.69548872183077,258.118676946091 75.64473684248514,258.0603842238197 75.74624060164206,257.94379876181483 75.69548872183077,257.94379876181483 75.64473684248514,257.94379876181483 75.64473684248514,258.00209149578586 75.64473684248514,257.94379876181483 75.64473684248514,257.94379876181483 75.64473684248514,257.94379876181483 75.64473684248514,258.00209149578586 75.59398496244103,258.00209149578586 75.59398496244103,258.00209149578586 75.54323308262974,258.00209149578586 75.49248120328411,258.00209149578586 75.59398496244103,258.00209149578586 75.59398496244103,258.00209149578586 75.59398496244103,258.00209149578586 75.54323308262974,258.00209149578586 75.54323308262974,258.0603842238197 75.44172932347283,258.00209149578586 74.27443609037437,258.00209149578586 72.95488721807487,258.00209149578586 71.63533834577538,257.7106277688872 71.02631578966975,257.53574946388835 69.75751879694872,257.185992698709 69.0977443610318,257.06940706435125 67.72744360892102,257.06940706435125 67.0676691730041,257.0111142384121 65.69736842112616,257.127699884295 64.27631578943692,257.30257831001654 63.616541353520006,257.30257831001654 62.24624060164206,257.24428550724406 61.535714285681024,257.06940706435125 58.33834586455487,256.02013531984994 57.67857142863795,255.78696356801083 55.80075187981129,255.32061978871934 55.29323308262974,255.26232679048553 53.263157894834876,254.91256868001074 52.09586466150358,254.38793112634448 51.43609022558667,254.0381724986364 50.16729323309846,253.3386546219699 49.0,252.93060214509023" stroke="#4dd2ff" stroke-linecap="round" stroke-linejoin="round" stroke-width="0.5"><title>2020-12-08 1.1km</title></polyline><polyline fill="none" points="86.5,252.21688039737637 86.75961538474075,252.26657923389575 88.49038461549208,253.6084459623671 89.05288461549208,253.80724072939483 91.25961538474075,254.45332318075816 92.29807692323811,254.75151480198838 92.81730769248679,254.95030911802314 94.02884615398943,255.39759604274877 95.11057692323811,255.94427952257684 95.67307692323811,256.29216870098026 98.44230769225396,257.2364381174557 99.04807692347094,257.2861364587152 100.77884615398943,257.0873430640495 101.29807692323811,257.0376447030285 104.02403846173547,257.0873430640495 104.58653846150264,257.13704142006463 106.27403846173547,257.6340247109474 108.00480769248679,257.7831196025945 108.52403846173547,257.73342131017125 109.6490384619683,257.7831196025945 111.37980769225396,257.53462809184566 111.89903846173547,257.4849297750625 112.98076923098415,257.3855331266823 113.5,257.33583479523077 113.2836538462434,256.9382479664928 112.07211538474075,256.88854959077435 111.55288461549208,256.9382479664928 110.47115384647623,257.2364381174557 110.08173076948151,257.33583479523077 108.95673076948151,257.5843264038558 108.4375,257.6340247109474 107.35576923098415,257.6340247109474 106.79326923098415,257.53462809184566 105.71153846150264,257.33583479523077 105.19230769271962,257.1867397711321 103.50480769248679,256.88854959077435 102.94230769248679,256.88854959077435 101.81730769248679,256.9382479664928 101.21153846150264,256.9382479664928 100.08653846173547,257.0376447030285 98.96153846173547,257.0873430640495 97.87980769248679,257.0376447030285 96.84134615398943,256.78915282484377 96.32211538474075,256.64005763921887 95.19711538497359,256.29216870098026 94.67788461549208,256.09337491414044 93.63942307699472,255.74548559851246 92.25480769225396,255.34789751510834 91.86538461549208,255.29819898269488 90.82692307699472,255.04970624673297 89.39903846173547,254.6024190133612 89.00961538474075,254.3042273040046 88.10096153849736,253.80724072939483 87.62500000023283,253.55874725829926" stroke="#4dd2ff" stroke-linecap="round" stroke-linejoin="round" stroke-width="0.5"><title>2020-12-03 1.3km</title></polyline><polyline fill="none" points="150.71478873235174,255.7097914389451 150.95246478868648,256.5833735263441 151.0,256.85636764595984 150.19190140860155,257.3477567220689 148.81338028167374,257.29315795737784 146.91197183099575,256.96556525613414 145.10563380271196,256.2011815327569 144.48767605633475,256.09198377176654 140.97007042262703,254.72700994316256 139.68661971832626,254.50861381803406 137.73767605633475,254.56321285746526 136.40669014072046,254.50861381803406 135.4559859156143,254.50861381803406 134.88556338031776,254.50861381803406 133.602112676017,254.3994157234556 133.174295774661,254.3448166680755 131.700704225339,254.23561854078434 131.13028169004247,254.18101946933893 129.13380281697027,254.0172222222318 128.51584507036023,253.90802403050475 127.2799295776058,253.79882581724087 125.66373239457607,253.08903690631269 125.04577464796603,252.870640135312 124.0,252.65224327798933 125.18838028167374,252.92523933615303 126.23415492963977,253.41663190134568 127.2799295776058,253.90802403050475 127.89788732398301,253.9626231289585 129.46654929593205,254.12642039224738 129.94190140836872,254.18101946933893 131.1778169015888,254.29021760710748 131.7957746477332,254.3448166680755 133.0792253522668,254.3448166680755 133.64964788756333,254.3994157234556 134.93309859163128,254.50861381803406 135.50352112669498,254.50861381803406 137.26232394366525,254.56321285746526 137.83274647896178,254.56321285746526 138.68838028167374,254.4540147734224 138.973591549322,254.4540147734224 139.16373239434324,254.4540147734224 139.35387323936448,254.4540147734224 139.5440140843857,254.4540147734224 139.7816901409533,254.3994157234556 140.0193661970552,254.3994157234556 140.4947183097247,254.4540147734224 140.68485915497877,254.4540147734224 141.11267605656758,254.61781189130852 141.54049295769073,254.83620797318872 141.49295774661005,254.94540598179447 141.49295774661005,255.00000497797737 141.4454225350637,255.00000497797737" stroke="#4dd2ff" stroke-linecap="round" stroke-linejoin="round" stroke-width="0.5"><title>2020-11-30 1.0km</title></polyline></svg>