<?xml version="1.0" encoding="utf-8" ?>
<svg baseProfile="full" height="300mm" version="1.1" viewBox="0,0,200,300" width="200mm" xmlns="http://www.w3.org/2000/svg" xmlns:ev="http://www.w3.org/2001/xml-events" xmlns:xlink="http://www.w3.org/1999/xlink"><defs /><rect fill="#222222" height="300" width="200" x="0" y="0" /><text fill="#FFFFFF" style="font-size:12px; font-family:Arial; font-weight:bold;" x="10" y="20">Over 3km Runs</text><text fill="#FFFFFF" style="font-size:4px; font-family:Arial" x="10" y="280">ATHLETE</text><text fill="#FFFFFF" style="font-size:9px; font-family:Arial" x="10" y="290">jdzj</text><text fill="#FFFFFF" style="font-size:4px; font-family:Arial" x="120" y="280">STATISTICS</text><text fill="#FFFFFF" style="font-size:3px; font-family:Arial" x="120" y="285">Number: 62</text><text fill="#FFFFFF" style="font-size:3px; font-family:Arial" x="120" y="290">Weekly: 3.4</text><text fill="#FFFFFF" style="font-size:3px; font-family:Arial" x="141" y="285">Total: 127.0 km</text><text fill="#FFFFFF" style="font-size:3px; font-family:Arial" x="141" y="290">Avg: 2.0 km</text><text fill="#FFFFFF" style="font-size:3px; font-family:Arial" x="167" y="285">Min: 1.0 km</text><text fill="#FFFFFF" style="font-size:3px; font-family:Arial" x="167" y="290">Max: 13.2 km</text><polyline fill="none" points="14.904521707794629,33.03352471918333 14.816969915293157,32.46353563395678 15.079625292681158,32.63117958186194 14.846153846010566,32.999995975900674 16.422086110454984,34.67642908281414 20.128445325186476,37.023421531455824 27.716267339186743,43.36022013769252 29.46730318851769,43.99724626232637 31.743649792857468,46.813557970977854 32.706719509908,51.10503567539854 34.428571428521536,53.31780768252793 32.940190956462175,51.37325123185292 31.8020176544087,46.84708535062964 29.671590704238042,44.097829225531314 24.622770671732724,40.00743136976962 23.163574130740017,39.50451020008768 20.828859664849006,37.3587048430054 19.69068636279553,37.090478220168734 16.451270041405223,34.10644275488448 15.342280670069158,33.704098888643784 14.612682399572805,32.56412201264175 12.190416141180322,32.83235221012728 11.285714285681024,32.396478031761944" stroke="#4dd2ff" stroke-linecap="round" stroke-linejoin="round" stroke-width="0.5"><title>2021-06-16 2.1km</title></polyline><polyline fill="none" points="38.85407725314144,41.39302836326533 38.589209074154496,41.65923301197472 39.94665849162266,42.34375840757275 46.76701410161331,45.11987672073883 50.706928264931776,44.92973226841423 54.64684242790099,45.462136498623295 60.14285714284051,44.73958772222977 57.957694665761665,44.28324042906752 58.35499693430029,43.750834571023006 55.40833844267763,44.24521146362531 52.06437768228352,43.142369833163684 49.61434702621773,43.56068944366416 47.52851011627354,42.68602064967854 43.52237890858669,42.914195308985654 38.92029429785907,41.77332066226518 37.0,40.25214921563747" stroke="#4dd2ff" stroke-linecap="round" stroke-linejoin="round" stroke-width="0.5"><title>2021-06-16 1.4km</title></polyline><polyline fill="none" points="84.70557211642154,43.34784011656302 83.96262325160205,43.77452601285768 76.31024994258769,40.83038476295769 71.22105021774769,41.427748375892406 68.28640220128,41.086397840990685 67.76633799588308,41.683761100430274 62.714285714318976,40.23302032513311 68.73217152012512,41.93977367330808 75.71589085063897,42.57980444308487 85.85714285704307,45.48126538912766" stroke="#4dd2ff" stroke-linecap="round" stroke-linejoin="round" stroke-width="0.5"><title>2021-06-15 1.2km</title></polyline><polyline fill="none" points="103.2626208376605,47.95457956628525 101.43555316864513,49.05400847905548 98.56444683135487,48.704190447577275 90.12513426458463,35.510876832937356 88.42857142863795,36.46040709532099 90.38614393118769,40.50838455418125 92.3872180453036,42.357449910545256 94.82330827089027,43.057094500778476 97.21589688491076,46.70522563144914 100.73952738987282,49.1039824639156 103.2626208376605,50.203408881352516 109.57035445747897,48.20444998331368 111.57142857136205,48.45432027708739" stroke="#4dd2ff" stroke-linecap="round" stroke-linejoin="round" stroke-width="0.5"><title>2021-06-11 1.2km</title></polyline><polyline fill="none" points="134.54917310278688,54.425259340070625 134.64160939391877,54.412010982778156 134.85536831716308,54.25634239601641 135.25399982267118,53.829078125523665 135.25977709086146,53.60716354561009 135.06623860630498,53.76945942617749 134.9535818764998,53.62703655241421 134.9911341197585,53.74627434805734 135.0604613381147,53.77277157890421 135.25977709086146,53.597227037829725 135.26266572496388,53.7992687889855 135.16734079974412,53.935066664926126 134.63005485752365,54.425259340070625 134.3816323251085,54.42857142857247 133.73168965306832,52.53069156541824 133.6739169711218,51.43099865868862 133.33305814756022,50.987136573581665 132.74088815746654,50.62276782133995 132.73799952339323,50.341207460187434 132.62823142766138,50.17558262323291 132.1284977287287,49.68864090412899 131.76164119827445,49.47001172889577 131.31101427901012,48.99299771250662 131.16369394001958,48.96649673649881 130.6870693138626,49.05262483257684 130.62640799781366,49.07581312865295 130.76795106859936,49.0990014088311 130.73906472761882,49.13875270925564 130.49641946339398,49.22488036656432 129.67893601368996,49.37725953052359 129.39296123798704,49.3640091956986 129.4796202609432,49.39382244175067 129.43051348126028,49.433573395599524 129.48828616322135,49.403760184588464 129.4969520655286,49.486574594691774 129.50561796780676,49.39050986015354 129.38429533569433,49.37063436376047 128.91633661183005,49.11225184749492 127.77532614316442,49.12550228097825 127.46913092877367,49.00293557315672 126.89718137738237,49.24806854450799 126.22701826666889,49.10562662880693 126.03059114799544,49.01949866774885 125.68684369036055,48.6418580947211 125.31998715993541,48.330467080901144 124.8086989245785,48.214522885595215 124.21941756861634,48.20127209510974 123.81212016081554,48.00582233204841 123.44237499628798,47.71761468774639 121.2903425933182,46.7767818278553 121.11124727925926,46.75690479485638 120.56529543474608,46.85297701273521 120.28509792724799,46.81984869257576 120.00778905385232,46.67077085015262 119.6120461824321,46.24009783452129 119.01698755825055,45.72328297278 118.86966721926001,45.19652123225387 118.66168556420598,44.93148077413207 118.2572767905076,44.156225503356836 117.93952703973628,43.84148004020972 116.95161417825148,41.323410796016105 116.93428237366606,41.10804089966041 116.98916642152471,40.836341533551604 117.4109069998085,40.0908137570259 117.51489782733552,39.7561492716668 117.44268197489146,39.48112548021527 117.09026861496386,38.90787592245397 116.81584837564151,38.34787129627148 116.63386442748015,37.77128878539952 116.65986213435826,37.47305259005225 116.89673013039283,36.64460489631165 116.92561647137336,36.13095712049835 116.86784378941229,35.70014973616344 116.58186901372392,34.55682656885256 116.63097579337773,33.90395510615781 116.60497808649961,32.95942328661113 116.52409633176285,32.58491738982775 116.53276223405555,32.20377880464366 116.39699643144559,31.646977310447255 116.16590570361586,31.285714285717404" stroke="#4dd2ff" stroke-linecap="round" stroke-linejoin="round" stroke-width="0.5"><title>2021-06-10 13.2km</title></polyline><polyline fill="none" points="148.8683746062452,47.84171489946311 149.17559822485782,48.87092082289746 150.53250254073646,48.72389162276522 150.6093084453605,49.4884426719218 151.58218323788606,49.37081956115435 152.1710285069421,50.16477465824573 152.50385409395676,49.459036898537306 151.8126009517582,48.98854413081426 152.45265015750192,49.047355767397676 152.81107771245297,49.459036898537306 152.3246403163066,50.19418036195566 153.86075840960257,50.370614523562836 153.0926993630128,50.87051074774354 153.01589345838875,50.31180314795347 153.5023308545351,50.01774609601125 153.7327485686401,50.34120883716969 153.55353479098994,49.87071746139554 153.96316628251225,50.10596324206563 153.52793282282073,50.07655752968276 153.57913675927557,49.694283004064346 154.21918596478645,50.929322013049386 153.7327485686401,51.63505629316205 152.40144622093067,52.076139370095916 150.25088089029305,52.017328330897726 147.9467037501745,53.63462768352474 147.17864470358472,53.164141503715655 146.69220730732195,53.693438403715845 147.25545060820878,54.310950266430154 148.12591752782464,54.016897157998756 147.4090624175733,54.252139667834854 147.97230571846012,54.310950266430154 148.0747135913698,53.8110598095227 148.10031555965543,54.10511312086601 147.38346044928767,53.98749183118343 148.10031555965543,54.10511312086601 147.63948013167828,53.84046515368391 148.2027234324487,53.8110598095227 146.3593817204237,54.10511312086601 147.12744076712988,53.86987049502204 147.4346643857425,54.428571428579744 147.4346643857425,54.10511312086601 146.79461518023163,54.19332905783085 147.35785848111846,53.95808650145773 148.0747135913698,54.163923748390516 147.53707225853577,54.163923748390516 147.6906840680167,53.5758169516339 147.61387816339266,54.252139667834854 147.17864470358472,54.04630248178728 147.53707225853577,53.781654462451115 147.46026635402814,54.34035556128947 147.10183879884426,53.54641158133745 147.61387816339266,53.51700620815973 147.38346044928767,54.07570780284004 146.84581911657006,53.92868116887985 147.07623683055863,52.78187093610177 145.94975022878498,51.2821893619257 145.79613841953687,49.606065736181336 144.46483607194386,47.665279241715325 144.33682623086497,47.106565636524465 144.82326362701133,46.43022671388462 144.28562229441013,44.84229451874853 144.87446756346617,43.31316663484904 144.7976616587257,41.60759166706703 146.3593817204237,31.285714285739232 146.8970230531413,31.31512185142492 146.8970230531413,31.844457537081325 147.6906840680167,32.28556989048957 150.1996769537218,32.55023698936566 150.43009466782678,33.05016309054918 152.4270481892163,32.28556989048957 154.3983997424366,33.31482951072394 155.39687650301494,33.02075569608132 155.62729421711992,33.491273660212755 157.5730438020546,32.96194089832716 157.854665452498,34.285271040920634 158.57152056263294,34.75578700948972" stroke="#4dd2ff" stroke-linecap="round" stroke-linejoin="round" stroke-width="0.5"><title>2021-06-08 2.7km</title></polyline><polyline fill="none" points="188.71428571431898,40.081922591954935 180.37077604304068,37.17648277845001 171.7252388719935,36.61273850098951 168.3274295036681,34.704675582877826 168.5161966907326,33.14352703597979 168.13866231637076,33.27362295993953 165.57142857136205,48.62467172124889 166.09997669537552,50.14240166492527 167.34584013046697,51.22649127457407 166.7795385690406,52.570758678310085" stroke="#4dd2ff" stroke-linecap="round" stroke-linejoin="round" stroke-width="0.5"><title>2021-06-08 1.1km</title></polyline><polyline fill="none" points="33.77709689771291,70.7118673628429 26.238605897990055,67.82555194353336 22.298736116383225,68.57385815534508 19.6928379930323,68.36005653868779 19.2274990422884,68.78765964548802 15.225584067287855,67.50484880697331 11.285714285681024,68.07498751973617 14.729222519905306,67.362313988182 19.103408655617386,68.78765964548802 25.525086173787713,69.07272810209543 30.39563385664951,70.81876749108778 34.39754883188289,71.92340029755724 34.428571428521536,71.56706750314333" stroke="#4dd2ff" stroke-linecap="round" stroke-linejoin="round" stroke-width="0.5"><title>2021-06-07 1.5km</title></polyline><polyline fill="none" points="52.22745857713744,79.73927735723555 52.05019651632756,74.70387231803034 50.632100029150024,73.83920187567128 46.776650205021724,68.75287590129301 44.02908826107159,69.31237420643447 48.593586329137906,64.2260037237429 52.22745857713744,58.071428571420256 45.09266062639654,68.54942182224477 46.59938814397901,68.49855829006992 47.70727602462284,69.41410110599827 52.005881001008675,74.60214645869564 52.05019651632756,79.63755248807138 53.113768881885335,81.21428571426077 52.13882754696533,80.6548002808122" stroke="#4dd2ff" stroke-linecap="round" stroke-linejoin="round" stroke-width="0.5"><title>2021-06-04 1.3km</title></polyline><polyline fill="none" points="76.63249357865425,72.97476857290894 76.8834070879384,73.36471347388579 77.62138799775857,73.36471347388579 77.42951296118554,72.94086027883168 77.82802265248029,72.75436454183364 77.3852341066231,72.82218119688332 77.47379181574797,72.21183033807029 77.01624365174212,72.00837957010663 77.00148403353523,72.26269299242995 77.47379181574797,72.771318708139 77.48855143401306,73.44948398749693 76.86864746978972,73.39862168434775 76.41109930572566,72.82218119688332 76.49965701490873,73.11040168232284 75.9535511417198,73.21212644409388 75.27460870478535,72.00837957010663 74.50710855872603,71.21152840986906 71.89465613826178,69.36349766860076 71.59946377435699,67.78672178313718 71.90941575635225,66.19297661620658 73.35585833946243,63.80233115046576 74.71374321338953,62.70024934515823 76.1011473237304,61.072546365030576 76.1601857963833,59.75002633991244 75.62883954145946,58.71574076528486 75.1712913774536,58.41054055355198 74.68422397697577,58.88529620417103 74.55138741328847,58.46140729317267 74.75802206795197,58.444451714953175 74.47758932231227,58.39358497039939 74.6694643588271,58.427496135089314 74.5218681768165,58.76660741450905 74.5956662678509,58.49531844459125 74.31523352209479,58.69878521216742 74.53662779508159,58.54618515903712 74.34475275850855,58.49531844459125 74.40379123127786,58.69878521216742 73.85768535808893,59.10571802461345 74.47758932231227,58.76660741450905 74.2414354311768,58.91920727187244 74.32999314035987,58.58009629367734 74.13811810378684,59.00398491184751 74.13811810378684,58.69878521216742 74.68422397697577,58.35967379891372 74.9498971044668,58.732696316670626 74.83182015892817,58.851385129761184 75.24508946837159,58.88529620417103 74.77278168615885,59.10571802461345 74.1676373402006,58.29185143597715 74.83182015892817,58.39358497039939 74.84657977713505,58.07142857143481 73.87244497635402,59.12267353756761 74.71374321338953,59.10571802461345 74.71374321338953,58.88529620417103 74.10859886737308,58.95311833289452 74.9498971044668,58.35967379891372 74.19715657655615,58.851385129761184 74.49234894046094,58.83442959007516 74.61042588599958,58.69878521216742 74.30047390394611,58.54618515903712 74.38903161312919,58.851385129761184 74.84657977713505,58.61400742160913 74.71374321338953,58.86834066777374 74.72850283153821,58.664874100955785 74.5218681768165,58.76660741450905 74.61042588599958,58.52922958918498 74.90561824990436,58.51227401768847 74.80230092257261,58.91920727187244 75.03845481364988,58.597051858494524 74.6694643588271,59.05485147575382 74.86133939528372,58.76660741450905 74.62518550426466,58.122295411420055 75.05321443191497,58.32576262076327 74.38903161312919,58.88529620417103 74.6694643588271,59.00398491184751 74.84657977713505,58.78356296093261 74.72850283153821,59.05485147575382 74.99417595908744,58.41054055355198 74.83182015892817,58.936162803234765 75.00893557729432,59.15658455841185 74.75802206795197,58.902251738880295 72.61787742981687,61.08950168386218 75.25984908657847,58.630962983035715 77.16383983369451,60.156956662627636 78.04941692535067,61.47947355559154 77.17859945184318,76.53510222148907 71.77657919266494,76.67073252121918 70.68436744628707,76.95894655273878 70.52201164606959,79.38331603964616 71.08287713752361,79.79019987511856 72.27840621129144,79.51894409183296 72.8097524662735,80.0953621196677 72.36696392047452,80.4513840534928 73.1639833030058,80.55310447057127 73.3115794849,80.84131199204421 73.28206024854444,81.21428571428987 73.0163871209952,80.85826536059903 72.86879093904281,80.94303217838751" stroke="#4dd2ff" stroke-linecap="round" stroke-linejoin="round" stroke-width="0.5"><title>2021-06-02 5.9km</title></polyline><polyline fill="none" points="95.08522264577914,80.52029571883031 97.1533795465948,78.6251601264812 100.36018462874927,74.300998238381 103.1254730692599,68.53534155862872 104.31059668667149,64.13093770982232 104.28735896863509,58.07142857144936 104.75211332831532,58.498534983053105 104.98449050809722,63.14327367171063 103.35785024915822,69.2560553624644 101.56854596408084,73.42014197443496 98.68706893373746,77.69093347160378 95.01550949178636,81.21428571428987" stroke="#4dd2ff" stroke-linecap="round" stroke-linejoin="round" stroke-width="0.5"><title>2021-06-01 2.2km</title></polyline><polyline fill="none" points="137.28571428591385,71.22466962254839 136.82071097381413,71.7587849511765 126.87679399433546,68.59516878926661 120.0448222567793,68.80059913959121 119.47251048823819,69.33471757633379 115.03709428128786,67.77344637486385 114.14285714295693,67.81453253410291 114.17862662859261,68.2664800179773 115.00132479611784,67.52692933450453 119.97328328574076,69.5812335468363 128.98719364125282,69.86883532820502" stroke="#4dd2ff" stroke-linecap="round" stroke-linejoin="round" stroke-width="0.5"><title>2021-05-31 1.1km</title></polyline><polyline fill="none" points="152.5289169070311,80.35317377815954 152.9971490255557,76.53197312052362 153.7931436272338,77.12399188056588 156.69618276157416,76.53197312052362 157.67947021033615,75.4555737246992 158.42864160006866,72.28018310031621 160.16110043833032,72.92602676257957 159.13098977762274,72.49546440632548 159.64604510809295,71.74197946320055 159.55239868420176,73.03366729838308 159.64604510809295,71.68815907009412 159.59922189614736,73.6795100661111 158.10087911691517,72.17254241544288 162.8768467255868,74.80973306519445 158.0072326932568,72.97984703310067 159.17781298956834,72.44164408801589 158.5691112356726,70.66557059111074 158.10087911691517,73.30276854481781 159.55239868420176,71.95726098190062 159.0373433539644,71.09613439551322 160.34839328587987,73.03366729838308 160.9570950397756,72.76456591900205 159.22463620151393,73.57186965807341 157.6326469986234,72.81838620558847 159.92698437930085,72.6031050272868 158.3349951764103,72.2263627606444 157.16441488009878,76.04759365593782 152.66938654263504,76.80107263673563 152.809856178239,78.84622461081017 150.93692770414054,80.29935423698043 151.0305741277989,81.21428571426077 151.73292230558582,80.19171513838228 149.67270098417066,74.5944526749663 139.9802961316891,58.071428571420256" stroke="#4dd2ff" stroke-linecap="round" stroke-linejoin="round" stroke-width="0.5"><title>2021-05-30 1.4km</title></polyline><polyline fill="none" points="166.41181165201124,67.3595998614328 169.74102154828142,69.25303945178166 175.81763766962104,71.51772919850191 178.62968874699436,71.25784746056888 182.18515562650282,71.92611442427733 188.16480446932837,71.0350915423769 188.71428571431898,70.58957931064651 188.10015961690806,71.0722175379342 182.4114126097411,71.7033589015191 174.49241819640156,71.18359550257446 169.22386272950098,69.77280551634612 165.57142857147846,67.87936854053987" stroke="#4dd2ff" stroke-linecap="round" stroke-linejoin="round" stroke-width="0.5"><title>2021-05-27 1.4km</title></polyline><polyline fill="none" points="34.42857142863795,98.09287503376254 31.53068322991021,97.95418384642107 25.65440993779339,95.73511926710489 16.759503105888143,95.41150480488432 11.285714285681024,93.93212156070513 14.666583851212636,95.22658215471893 23.8029813664034,96.05873350589536 33.221118012443185,98.92502129645436 33.98583850916475,98.69386970496271" stroke="#4dd2ff" stroke-linecap="round" stroke-linejoin="round" stroke-width="0.5"><title>2021-05-25 1.1km</title></polyline><polyline fill="none" points="37.63722510286607,94.5488457721367 38.73788664408494,95.44712555911974 42.416413373779505,95.77982116944622 46.06597532634623,97.87579596941941 50.43965671362821,97.70944923875504 52.90166279277764,98.10868125437992 58.05739316996187,97.37675553164445 60.14285714284051,96.34540295400075 60.14285714284051,97.110600329499 51.91686036111787,98.30829708499368 48.78866440197453,97.77598794092773 46.00804577150848,98.00887329480611 40.50473806541413,96.67809767840663 37.0,95.11442962058936" stroke="#4dd2ff" stroke-linecap="round" stroke-linejoin="round" stroke-width="0.5"><title>2021-05-24 1.6km</title></polyline><polyline fill="none" points="71.72923588042613,95.82970091036987 77.11129568098113,95.98424929162138 77.11129568098113,96.64107923212578 80.54235880402848,98.18655710088206 85.85714285715949,97.68427746230736 80.44144518277608,98.22519396943972 76.60672757471912,97.5683666850382 72.60382059798576,97.76155129476683 62.714285714318976,94.63194888771977" stroke="#4dd2ff" stroke-linecap="round" stroke-linejoin="round" stroke-width="0.5"><title>2021-05-21 1.1km</title></polyline><polyline fill="none" points="102.30217497725971,108.0 103.12723190558609,107.20516170194605 102.8610845094081,106.41032136545982 103.28692034329288,102.71122990522417 104.88380472071003,102.16094806444016 105.22979633591603,101.33552347120713 107.14605758886319,101.79409296109225 111.08503905311227,101.24380949186161 110.95196535484865,99.47066722231102 109.6212283737259,96.59693234454608 106.95975441136397,92.86715159617597 105.04349315853324,91.06338906477322 101.98279810184613,89.25961603413452 97.64459554327186,88.64816516652354 96.04771116597112,88.00614045688417 93.7056140791392,88.34243928018259 90.77799272048287,86.59979596876656 90.2190831884509,84.85714285715949 88.91496094700415,85.31573673133971 88.99480516591575,86.29406806151383" stroke="#4dd2ff" stroke-linecap="round" stroke-linejoin="round" stroke-width="0.5"><title>2021-05-20 1.7km</title></polyline><polyline fill="none" points="114.25412087934092,94.44764541630866 114.14285714295693,92.08328114758478 119.09409340680577,91.18865457957145 136.89629120891914,91.57206611719448 137.28571428591385,100.26266677299282 136.2287087913137,101.02947888080962 127.21634615398943,100.26266677299282 126.1037087913137,101.02947888080962 119.26098901126534,101.66848827752983 115.31112637394108,101.09337984892773 114.42101648356766,100.32656781654805 114.42101648356766,93.68082551792031" stroke="#4dd2ff" stroke-linecap="round" stroke-linejoin="round" stroke-width="0.5"><title>2021-05-18 1.1km</title></polyline><polyline fill="none" points="139.8571428571595,97.21597172370821 140.757483895286,98.06209703764762 145.1568776051281,99.9188615022722 147.91928760893643,99.84835172355815 149.78135657438543,100.27141008287435 152.99393709737342,99.895358245034 156.53391436149832,98.8612126311491 157.53656688134652,98.25012447715562 159.15308829105925,97.12195761447947 163.0,93.33785892695596 162.38613111025188,92.58573277427058 160.87192118226085,93.76092884450918 152.01174687384628,94.72458529734286 150.72262220527045,94.37202851056645 143.74497915874235,94.16049418812327 143.37665782484692,94.74808906455291 143.45850701024756,94.51305128788226 143.04926108371,94.67757775592327 142.6195528608514,95.57071945742064 141.98522167478222,95.82925985152542 140.14361500565428,95.45320100369281 139.87760515336413,94.95962286536815" stroke="#4dd2ff" stroke-linecap="round" stroke-linejoin="round" stroke-width="0.5"><title>2021-05-10 2.5km</title></polyline><polyline fill="none" points="188.71428571431898,103.81901858469064 188.59905157086905,103.15720838669222 187.81161825731397,102.34097311219375 186.56324836995918,102.95866494542861 185.9294605809264,102.7601213279122 185.89104919985402,102.14242894631752 186.31357439246494,101.43649270702736 186.15992886794265,99.47309582488379 185.69899229402654,98.81127276693587 183.25986959110014,99.56133875134401 181.6273858920904,99.38485286370269 181.56976882054005,98.87745516083669 177.3445168939652,98.94363753523794 175.13586247782223,98.59066464568605 171.60201541206334,99.23042759775126 169.08606994675938,99.29660986764065 167.08867812692188,98.85539436506224 165.57142857147846,96.23014412712655 167.78008298762143,94.64174246491166 168.75957320688758,93.5607404375769 170.77617071731947,92.52385603210132 171.0258446946973,91.77376644400647 173.15767634857912,90.8251201264793 175.21268524008337,89.41317396903469 174.3868405453395,90.33976464046282 172.10136336705182,91.33253609923122 169.9503260225756,89.43523569629178 168.5867219917709,89.03812427243975" stroke="#4dd2ff" stroke-linecap="round" stroke-linejoin="round" stroke-width="0.5"><title>2021-05-08 2.6km</title></polyline><polyline fill="none" points="34.42857142840512,119.21165896602906 34.277063362067565,120.8214226977434 29.73182137007825,121.08246491153841 29.05003507132642,122.34416676664841 22.042787000071257,120.7344085922814 18.406593406572938,121.03895788671798 17.08089782553725,121.7785767262103 11.929623567964882,120.64739446944441 11.285714285681024,121.69156280942843 16.664250642759725,123.60586501308717 24.4669160626363,124.38898624735884 34.277063362067565,127.21691246257978" stroke="#4dd2ff" stroke-linecap="round" stroke-linejoin="round" stroke-width="0.5"><title>2021-05-08 1.3km</title></polyline><polyline fill="none" points="60.14285714295693,122.82648253321531 59.5596816977486,123.14378154446604 56.122015915228985,121.87458380952012 55.56953391456045,122.36816124198958 52.07048124296125,121.02844948243 49.7991663509747,122.08611707825912 44.85752178856637,122.40341674664523 41.69609700655565,121.38100569549715 38.50397877988871,121.94509491298231 37.399014778318815,121.76881712814793 37.0,121.20472763248836 42.125805229181424,121.41626129770884 45.13376278907526,122.75597160353209 50.0447139069438,122.61494970251806 59.958696476067416,125.40012194612063" stroke="#4dd2ff" stroke-linecap="round" stroke-linejoin="round" stroke-width="0.5"><title>2021-05-07 1.5km</title></polyline><polyline fill="none" points="62.821098901331425,127.65871253790101 62.714285714318976,127.0442818114825 64.42329670349136,126.47081230769982 65.1353846155107,124.75039901401033 74.07208791235462,119.42526477796491 76.92043956066482,120.24452067280072 77.59692307701334,121.14570027802256 78.41582417604513,119.13852483037044 78.09538461547345,118.76985889070784 78.09538461547345,120.1625951564929 77.91736263758503,119.71200452625635 77.24087912100367,121.26858825361705 78.13098901114427,120.24452067280072 77.27648351667449,121.14570027802256 77.73934065923095,119.63007890424342 77.41890109889209,121.22762559913099 78.20219780225307,120.53125985170482 79.6619780221954,120.77703613199992 81.83384615392424,119.99874407521565 83.82769230776466,120.08066962391604 85.8571428572759,121.26858825361705 84.539780219784,120.36740891664522 82.93758241762407,120.1625951564929 79.19912087917328,121.0637749407324 77.34769230778329,119.87585572141688" stroke="#4dd2ff" stroke-linecap="round" stroke-linejoin="round" stroke-width="0.5"><title>2021-05-06 1.2km</title></polyline><polyline fill="none" points="94.20334863639437,125.32524376077345 95.20955981663428,123.16413989913417 102.38428301387466,117.83672841824591 105.40291655412875,114.62015110583161 109.38401296269149,112.50926120232907 110.91520388890058,113.96678135640104 111.57142857136205,128.79304241976934 110.74021064001136,124.3703385341505 98.70942479092628,130.95412239426514 95.55954631394707,127.93865943516721 89.65352416969836,131.15515262339613 88.42857142863795,133.21570789607358 89.69727248186246,133.91931022622157 93.45962732937187,130.4012888551224 94.85957331908867,127.18479090556502 94.07210369990207,126.02885699245962" stroke="#4dd2ff" stroke-linecap="round" stroke-linejoin="round" stroke-width="0.5"><title>2021-05-06 1.8km</title></polyline><polyline fill="none" points="128.16150690044742,119.63472422634368 130.24617679964285,119.00610576893087 130.45766505040228,118.34256282169372 128.04065647150856,117.36470773193287 128.34278254385572,117.43455461607664 127.98023125703912,117.81871222535847 129.7627750840038,118.51717951043975 131.33383066032548,118.27271612148616 130.82021633721888,120.54272664344171 132.39127191354055,119.6696474404016 132.3308466989547,120.33318783622235 132.96531145100016,120.29826468924875 135.32189481542446,122.18410956606385 137.04401342768688,122.5682618888386 137.074226035038,123.54610223532654 136.5303991046967,124.31440342121641 137.28571428568102,127.8066599839658 136.65124953375198,129.06386369661777 119.85303991055116,127.07328903686721 115.17008578882087,127.70189280124032 114.14285714284051,128.47018473630305 114.86795971659012,127.73681519911042" stroke="#4dd2ff" stroke-linecap="round" stroke-linejoin="round" stroke-width="0.5"><title>2021-05-02 1.6km</title></polyline><polyline fill="none" points="146.94647377938963,117.69258625415387 148.58698010840453,118.37010346463649 150.57902350835502,116.67630915058544 158.4886075949762,115.3890226012445 162.00397830014117,116.81181285361527 163.0,119.18312321125995 161.76962025347166,125.9582493120688 151.80940325488336,129.48128774855286 140.56021699798293,131.03954882733524 139.85714285704307,129.8877909888397 144.7200723325368,115.93103829259053" stroke="#4dd2ff" stroke-linecap="round" stroke-linejoin="round" stroke-width="0.5"><title>2021-05-01 1.0km</title></polyline><polyline fill="none" points="176.61106898682192,122.26409568695817 175.20908203022555,124.50011985120364 173.13027378427796,120.1957652666024 173.22696253983304,118.63053709123051 174.91901576332748,116.00317981373519 177.5779565430712,114.88515164516866 184.44285819260404,114.99695456383051 188.455441551283,111.64285714289872 183.37928188079968,115.2205603334587 171.43822056078352,113.59941645013168 170.4229886266403,114.10253057884984 168.44086913624778,118.35103159263963 167.76404784666374,128.74854079651413 166.94219342409633,131.43173716962337 165.97530586761422,131.82303555042017 165.83027273439802,134.78571428573923 166.6037827793043,134.39441800618079 166.94219342409633,132.54973180714296 168.2474916249048,118.01562480744906 169.9878892262932,116.28268650179962 170.71305489330553,116.7298969082185" stroke="#4dd2ff" stroke-linecap="round" stroke-linejoin="round" stroke-width="0.5"><title>2021-05-01 1.8km</title></polyline><polyline fill="none" points="30.872728949587326,147.8976803336118 30.065941160253715,148.03497709955263 28.75117587391287,148.97888943227008 27.15254080982413,148.9102414353256 26.868671032018028,149.2534811492369 26.913492575928103,148.9274034371192 25.837775523483288,149.28780508339696 23.297888038447127,148.96172743555508 21.803836576640606,149.13334732640942 21.35562113818014,148.89307943187305 19.727105044818018,149.20199523530027 16.051738448790275,149.28780508339696 12.39131236745743,148.9102414353256 11.285714285739232,149.85414901901095 11.360416858806275,150.18022499411018 15.663285068701953,151.02115495146427 16.126441021915525,150.88386054219154 16.978050355159212,151.33006697616656 19.24900857702596,151.3643905006029 20.668357465649024,151.9135659706517 21.280918564996682,151.72478709837014 22.894494143722113,152.10234463817324 23.297888038447127,152.4112547431141 24.2989025178249,152.5313863024494 24.567831780936103,152.3254464356578 25.299916997202672,152.6686794115958 26.211288388818502,152.51422465623182 27.7352208798402,152.9604269086849 27.86968551145401,152.54854794703715 28.19837683305377,152.51422465623182 28.810937932285015,152.8402956455975 29.020105137024075,152.34260810053092 29.91653601406142,151.86208084403188 30.992253066506237,150.7808896641218 32.18749423592817,150.31751995865488 32.81499584991252,149.5623963127291 33.86083187314216,149.23631917964667 34.42857142863795,148.44686674731201 34.129761136253364,147.5372758073936 33.666605183098,147.0395730913151 32.725352762208786,147.6402486053703 31.291063358890824,147.55443794463645 31.20142027118709,148.10362544191594 29.184450797794852,149.0990233617922 29.60278520709835,149.49374854602502 29.886654984788038,149.30496704789402 30.857788434950635,150.04292992122646 31.664576224400662,149.92279664354282 31.724338282831013,149.71685368879116" stroke="#4dd2ff" stroke-linecap="round" stroke-linejoin="round" stroke-width="0.5"><title>2021-04-30 3.7km</title></polyline><polyline fill="none" points="59.96005416382104,148.48820038500708 58.49763033166528,150.58793240433442 57.693297224119306,150.7139159962826 49.723087339196354,148.53019512692117 42.630331753520295,148.48820038500708 43.58090724446811,149.28609977214364 37.0,147.31234593104455 42.264725795481354,149.16011575769517 50.67366283014417,149.95801388574182 59.338524035178125,152.68765406892635 60.14285714295693,152.51967671670718 59.046039268840104,152.14172743225936" stroke="#4dd2ff" stroke-linecap="round" stroke-linejoin="round" stroke-width="0.5"><title>2021-04-29 1.4km</title></polyline><polyline fill="none" points="71.60775510210078,149.43047091850895 73.49224489810877,147.94926159654278 72.83102040831,146.7718860177556 73.9881632651668,146.39208667571074 81.88979591825046,138.83400182423065 82.81551020406187,138.72005971087492 85.85714285715949,142.21426917539793 81.98897959163878,144.7209651178273 82.41877551015932,144.75894523365423 80.00530612224247,147.3795641855977 81.03020408155862,146.99976544317906 81.26163265306968,146.12622691321303 80.10448979586363,147.075725221599 74.58326530607883,153.76012702164007 70.84734693891369,155.96291581957485 68.30163265299052,158.20367080028518 68.13632653059904,159.6468620170781 66.0534693878144,161.27994028912508 64.33428571443073,160.40643416825333 62.714285714318976,158.08973442119895 62.846530612325296,155.84897877721232 65.12775510211941,154.78556475465302 65.95428571430966,153.4942723486747 68.23551020410378,152.50681052697473 68.6653061225079,151.5193461717863 69.78938775509596,150.873695031245 70.11999999999534,149.7343080235878 70.97959183680359,149.0886538886116 71.93836734688375,149.3165319423424 72.13673469389323,148.59491764285485" stroke="#4dd2ff" stroke-linecap="round" stroke-linejoin="round" stroke-width="0.5"><title>2021-04-26 2.2km</title></polyline><polyline fill="none" points="102.08255630172789,157.48240971943596 102.71363396907691,156.6123983662401 103.44568406278268,147.4771236066299 105.91950851830188,138.42857142857974 103.6476289164275,147.33211695510545 101.85536834143568,148.17315453774063 99.2553283526795,147.99914695954067 96.55431593710091,148.40516448163544 95.14070196263492,149.27520013938192 94.1562208016403,150.66725183240487 94.08049148169812,159.19342453192803 95.21643128269352,161.2814291092218 95.9737244831631,161.57142857142026 96.4785866169259,161.31042906831135 99.20484213938471,159.0194234807277 100.1388370867353,159.6574268315162 101.0475889275549,158.99042329547228 101.22429067431949,158.23641747501097" stroke="#4dd2ff" stroke-linecap="round" stroke-linejoin="round" stroke-width="0.5"><title>2021-04-25 2.2km</title></polyline><polyline fill="none" points="126.60853325680364,161.57142857142026 125.92608118499629,156.48881911006174 126.30260646599345,153.59601522693993 125.92608118499629,148.21585946154664 126.27907363593113,138.83412898430834 125.99667967518326,138.42857142855064 125.40835892350879,138.83412898430834 124.82003817183431,148.4051129653235 125.05536647257395,157.81355087601696 125.99667967518326,158.08390351053094 126.06727816525381,157.84058615152026 126.18494231579825,153.21751526230946 125.87901552475523,156.81324380839942" stroke="#4dd2ff" stroke-linecap="round" stroke-linejoin="round" stroke-width="0.5"><title>2021-04-18 2.2km</title></polyline><polyline fill="none" points="163.0,153.29425466191606 158.8555055259494,152.8753354504588 146.3225542367436,149.10504209555802 140.78550961927976,148.57186632679077 139.8571428571595,147.962521689391 146.45517805975396,147.88635354221333 147.9140401147306,146.70574533808394 150.76545231265482,148.00060575746465" stroke="#4dd2ff" stroke-linecap="round" stroke-linejoin="round" stroke-width="0.5"><title>2021-04-16 1.0km</title></polyline><polyline fill="none" points="188.71428571426077,151.85609610054235 188.03646144643426,152.03683598682983 187.75806933647254,151.4668094044464 187.27390914520947,151.2721656532376 186.6566049013054,151.42510005178337 186.43873281526612,151.2443593810749 186.13613269571215,150.82726464112056 186.66870890610153,149.8818453278509 186.48714883433422,149.18668002246704 186.12402869097423,149.03374319522118 183.30379557679407,149.2283900375187 180.89509862521663,149.01983983903483 179.72101016138913,149.29790670175862 179.22474596532993,149.10325995543099 178.42588164971676,149.18668002246704 178.23221757321153,149.01983983903483 176.65869695151923,149.20058336216607 176.1019127315958,149.0059364814806 175.46040047815768,149.18668002246704 174.81888822471956,148.92251630745886 173.46323968918296,149.1727766814147 172.34967124921968,148.72786904277746 171.42976688581984,148.83909608410613 170.9092946802266,148.19953939794505 169.9651823071763,148.25515313800133 169.1057979676989,147.99098767715623 168.75478182907682,148.15782907845278 168.27062163775554,147.68511126183148 167.55648535565706,147.93537383283547 166.51554094435414,147.58778680866817 165.9103407053044,147.90756690247508 166.33398087270325,147.60169030608085 166.43081291089766,148.07440840247727 165.57142857142026,148.03269804599404 166.29766885831486,147.768532168222 165.9466527196928,147.85195302522334 166.32187686790712,147.82414607839019 166.01927674835315,147.9492772959784 166.21294082485838,148.15782907845278 166.00717274355702,147.99098767715623 166.29766885831486,147.89366343518486 166.21294082485838,147.74072520490154 165.97086072922684,147.82414607839019 166.05558876268333,148.03269804599404 166.43081291089766,147.87975996655587 166.24925283918856,147.81024260287813 166.2250448296545,148.00489113479853 166.32187686790712,147.7546286872821 166.18873281532433,148.00489113479853 166.2734608487226,147.81024260287813 166.33398087270325,147.96318075773888 166.15242080099415,147.46265527012292 166.2613568440429,147.82414607839019 166.20083682006225,147.58778680866817 166.2250448296545,147.82414607839019 165.98296473396476,147.64340079014073 166.06769276747946,147.51826930095558 166.15242080099415,147.64340079014073 165.97086072922684,147.7129182361241 166.21294082485838,147.83804955247615 166.01927674835315,147.7268217212113 166.24925283918856,147.51826930095558 166.07979677227559,147.81024260287813 165.88613269577036,147.81024260287813 166.07979677227559,147.44875175897323 165.89823670050828,147.5738833098876 166.18873281532433,147.82414607839019 165.98296473396476,147.69901474965445 166.01927674835315,147.82414607839019 166.07979677227559,147.7129182361241 166.1403167961398,148.29686342869536 166.01927674835315,149.60377961714403 167.19336521218065,149.8540387814719 167.29019725043327,150.07649099895207 168.3432456664741,149.97916819700913 168.94844590558205,150.20162021700526 173.77794381353306,150.41016866694554 178.54692169756163,151.0219090066821 180.8345786012942,151.10532793823222 181.85131500300486,151.32777818097384 183.02540346683236,151.92561146889057 184.86521219357383,151.71706526105118 185.05887627013726,152.0507390454295 185.31306037056493,151.93951453841873 187.04393305437407,152.3009938653704 187.34653317392804,152.55124824102677 187.89121338911355,152.4261211087287 188.06066945602652,151.9117083979363 188.5448296473478,151.71706526105118" stroke="#4dd2ff" stroke-linecap="round" stroke-linejoin="round" stroke-width="0.5"><title>2021-04-09 4.9km</title></polyline><polyline fill="none" points="33.961401952197775,178.02403829284594 26.70230700983666,175.91889734659344 25.87577639776282,175.13462644364336 20.77284826990217,175.54740078639588 17.07142857159488,175.1759038963064 17.754214729415253,175.58867819831357 17.43078970722854,175.75378780503524 11.285714285681024,174.35035407100804 16.388642413541675,175.87761996733025 23.719609583029523,176.49678022947046 33.88952972507104,179.22107450041221 32.523957409197465,178.684472485882 34.42857142863795,178.43680978569319 33.925465838517994,177.81765239371452" stroke="#4dd2ff" stroke-linecap="round" stroke-linejoin="round" stroke-width="0.5"><title>2021-04-09 1.4km</title></polyline><polyline fill="none" points="37.92045454552863,175.50191781527246 39.038149350788444,176.44589635328157 47.125000000116415,179.54212962117163 50.70819805201609,179.3910944329109 53.83116883132607,180.03299357136711 59.61688311712351,179.3910944329109 60.14285714284051,178.74919421831146 57.80884740280453,178.14505185672897 55.0146103897132,178.7114353486395 52.121753246872686,177.61642650826252 49.721996753360145,177.805221359391 45.64569805201609,175.72847287659533 45.11972402606625,174.74673330882797 42.78571428579744,173.8405099347292 41.010551948216744,173.53843500008225 37.0,174.52017766638892" stroke="#4dd2ff" stroke-linecap="round" stroke-linejoin="round" stroke-width="0.5"><title>2021-04-08 1.4km</title></polyline><polyline fill="none" points="85.70686456409749,177.75235782240634 85.85714285715949,178.5463806631451 83.90352504642215,178.58090335456654 78.73395176255144,176.82024175437982 70.91948051948566,176.44049005192937 66.80185528751463,174.99052521688282 62.714285714318976,175.61193945314153 66.59146567713469,175.1631403931824 70.70909090910573,176.40596714953426 78.3732838591095,176.7511960209522" stroke="#4dd2ff" stroke-linecap="round" stroke-linejoin="round" stroke-width="0.5"><title>2021-04-06 1.3km</title></polyline><polyline fill="none" points="95.49615055602044,173.3106607530499 98.40633019665256,172.4017847928917 99.6073567152489,173.36412399582332 99.6073567152489,174.37992457667133 98.82207014551386,174.80762949713971 100.20786997419782,176.30459397862433 101.63986313063651,176.4649827774847 103.48759623593651,175.60957528511062 105.56629597931169,172.9898811817984 107.41402908461168,173.68490333872614 108.93840889655985,172.7760280255461 111.52523524360731,173.09680772718275 111.52523524360731,169.83553830580786 111.24807527801022,171.8136877460638 109.72369546629488,171.5463706891751 111.57142857136205,171.8671511412249 111.47904191608541,173.25719750468852 107.50641573988833,173.63144012837438 105.56629597931169,172.93641790095717 102.42514970060438,176.89268600166542 103.16424294258468,176.25113103486365 99.69974337029271,176.19766808568966 99.00684345583431,175.02148182695964 100.02309666387737,175.02148182695964 99.93071000860073,174.48685083934106 98.72968349000439,172.34832145209657 98.22155688609928,173.09680772718275 97.20530367828906,172.9898811817984 95.91189050441608,175.7699642960215 91.61591103486717,178.01540530950297 90.23011120595038,180.5816118667717 90.0453378953971,178.60349541861797 89.67579127429053,181.11623665632214 89.3524379809387,179.94006140186684 89.67579127429053,180.74199936079094 89.39863130846061,180.04698653373634 91.29255774151534,181.00931174191646 92.81693755323067,183.3081926088198 94.80325064132921,183.14780589792645 95.35757057298906,182.02509755053325 94.15654405462556,181.49047368543688 95.21899059019051,181.49047368543688 94.7108639862854,182.13202225847635 94.24893070966937,181.70432329678442 94.80325064132921,182.34587160876254 94.94183062436059,181.8112480698037 95.17279726243578,183.04088139667874 94.38751069270074,183.7358902656706 91.84687767294236,183.52204148081364 89.49101796373725,180.74199936079094 89.90675791236572,178.33618181425845 90.18391787819564,180.26083673210815 88.42857142863795,181.2766239870689 88.93669803254306,180.42122432397446 88.6133447389584,181.49047368543688 89.90675791236572,180.5816118667717 90.09153122315183,178.22925633442355" stroke="#4dd2ff" stroke-linecap="round" stroke-linejoin="round" stroke-width="0.5"><title>2021-04-05 1.9km</title></polyline><polyline fill="none" points="132.34325258701574,182.874352177736 131.4357154556783,183.33125652201124 131.79083868092857,182.78297119712806 132.42216885939706,182.78297119712806 132.56027233577333,182.39460161403986 131.85002588527277,186.62094031469314 130.33088764350396,187.7174908529705 130.25197137112264,188.35714285714494 130.19278416701127,187.7174908529705 131.90921308950055,186.68947488044796 132.48135606362484,184.45066823037632 132.87593742506579,180.88680744508747 131.88948402134702,180.17859759292332 129.75874466937967,179.7902234983776 128.49608431267552,180.77258020092268 125.85238919081166,181.5264789370558 121.03849658067338,184.4278231493081 120.17041758541018,183.0342688041419 119.1642351137707,183.468327643699 118.69073747983202,183.28556612947432 115.9286679495126,171.4285945227457 115.77083540498279,169.25817536185787 117.17159923817962,175.6094479951571 117.60563873581123,175.79221576709824 122.67600923078135,173.48476171219954 126.58236470946576,172.22821733748424 129.02876915060915,170.8574336230231 132.4616269954713,168.09299430117244 134.49372100713663,165.21428571428987 135.65773602342233,165.80830797379895 135.51963254692964,165.99108373692434 135.0461349132238,165.83115495233505 135.32234186620917,165.60268506214197 135.32234186620917,165.96823677470093 135.44071627466474,165.3513679139287 134.769927960122,165.55699105607346" stroke="#4dd2ff" stroke-linecap="round" stroke-linejoin="round" stroke-width="0.5"><title>2021-04-05 3.7km</title></polyline><polyline fill="none" points="145.6969292392023,168.39462557143997 149.37383177597076,171.31691999925533 152.40186915919185,179.74976831802633 152.47396528720856,184.00790626066737 154.13217623531818,183.67393545759842 155.79038718296215,185.17680299998028 159.539385848213,182.42154373251833 163.0,183.3399645179743 155.93457943946123,181.67010777798714 155.93457943946123,184.4253695734078 156.2950600804761,180.58469907118706 156.15086782397702,184.5923548389692 156.36715620849282,183.256471761968 153.48331108130515,183.84092087624595 155.42990654241294,182.58852940646466 156.43925233650953,184.4253695734078 154.63684913236648,183.256471761968 155.93457943946123,182.92250065220287 155.64619492692873,184.50886221032124 156.43925233650953,184.50886221032124 155.50200267042965,182.83900785335572 157.1602136180736,184.92632526782108 155.50200267042965,183.4234572655405 155.64619492692873,182.0875722822966 156.87182910600677,184.00790626066737 155.71829105494544,182.1710651575122 153.7716955943033,182.0875722822966 152.90654205624014,184.25838427391136 153.12283044075593,183.17297899740515 149.44592790398747,180.41771298879758 150.8878504675813,175.07414037082344 149.44592790398747,175.65859532402828 149.51802403246984,173.48776053875918 145.2643524701707,171.14993202721234 139.8571428572759,171.6508958415361 142.885180240497,172.73631638777442 143.89452603505924,175.57510178466327" stroke="#4dd2ff" stroke-linecap="round" stroke-linejoin="round" stroke-width="0.5"><title>2021-04-04 1.4km</title></polyline><polyline fill="none" points="179.85794094158337,166.42605263722362 172.68236233014613,169.69365809333976 165.76536312839016,177.71408405760303 172.29449321632273,184.91754192020744 176.1085395051632,180.61032798164524 180.56903431774117,178.753762646229 180.6983240225818,176.30308938998496 184.83559457282536,173.25830240885261 178.75897845160216,165.53488505014684 173.65203511575237,168.95102173567284 165.57142857136205,178.15966077148914 172.1652035114821,184.1006584125571 176.0438946527429,179.57065195811447 182.37909018341452,178.53097449807683 184.25379090197384,177.11998136213515 185.22346368711442,173.40682888880838 184.964884277666,172.738459497632 184.18914604955353,174.22372400481254 181.92657621693797,175.33767046168214 181.8619313647505,174.66930278541986 188.71428571431898,170.1392395562725 186.19313647248782,168.80249437619932 183.54269752581604,165.53488505014684 182.05586592154577,167.98559337487677 177.53072625701316,166.05473293748219 168.60973663185723,174.0751976860338 165.83000798057765,178.01113522954984 172.29449321632273,184.1006584125571 176.1085395051632,180.09049014939228 176.69034317624755,180.5360654562246 175.0742218673695,182.76393803261453 183.93056663987227,184.62049347464927 186.774940143805,188.03654352127342 180.76296887453645,177.04571849212516 181.40941739827394,175.04061823431402 184.5770151638426,172.36714291304816 181.0861931364052,170.21350310766138 179.1468475656584,166.50031655514613 177.7893056664616,165.9804689756129 176.62569832382724,166.79737215361092 177.20750199537724,167.31721916876268" stroke="#4dd2ff" stroke-linecap="round" stroke-linejoin="round" stroke-width="0.5"><title>2021-04-02 3.1km</title></polyline><polyline fill="none" points="25.483282674802467,212.51514048103127 22.775075987912714,211.5724906459218 17.66641337389592,211.47822545784584 12.126899696071632,210.7476689893665 11.655015197582543,210.2999074691179 11.285714285681024,208.06108728041 11.819148936192505,207.63688740693033 12.927051671780646,207.5897540410806 11.921732522896491,204.45536434742098 12.167933130753227,200.2132676933834 13.706686930148862,198.0214882412256 14.322188449907117,196.53672299339087 17.256079027312808,194.50988569394394 18.446048632264137,195.80612083282904 19.553951367852278,196.0417991932336 20.128419452928938,196.72526512366312 22.54939209728036,196.72526512366312 26.28343465051148,197.31445832175086 28.08890577510465,198.25716441609256 31.084346504532732,200.92028903351456 33.91565349535085,205.8222461122059 33.99772036471404,206.45855047300574 33.34118541027419,207.0241529265768 33.07446808507666,207.9196874062327 33.64893617015332,207.89612075241166 34.42857142863795,209.89927802911552 33.91565349535085,210.95976625877665 32.13069908809848,211.2896949701826 31.699848024290986,211.83171972133277 30.694528875290416,211.33682760599186 30.263677811599337,211.52535805653315 29.196808510576375,211.19542967055168 28.68389057740569,212.63297144891112 28.519756838912144,212.46800807760155" stroke="#4dd2ff" stroke-linecap="round" stroke-linejoin="round" stroke-width="0.5"><title>2021-04-02 3.2km</title></polyline><polyline fill="none" points="39.4247821145691,201.61477394215763 47.25161045859568,205.1050262322533 51.48730579763651,205.06977132891188 54.065555134555325,205.66910421149805 57.533914361614734,204.8229869088682 60.14285714284051,204.85824183633667 54.249715801444836,205.6338493639778 51.671466464642435,205.03451642225264 47.49715801444836,205.24604581054882 42.09511178487446,203.69482738969964 37.0,201.47375293137156" stroke="#4dd2ff" stroke-linecap="round" stroke-linejoin="round" stroke-width="0.5"><title>2021-04-01 1.4km</title></polyline><polyline fill="none" points="62.714285714318976,200.65650893500424 65.32779985968955,203.31040054565528 68.39583820430562,203.96299439755967 71.9941547815688,205.8337580889056 76.91816693963483,205.7467460001062 79.64531213464215,206.48634820783627 85.8571428572759,205.7467460001062 81.50128594809212,206.39933624776313 76.23638064065017,205.6162278347765 71.5396305823233,205.8337580889056 64.49450549460016,203.91948817073717 63.77484217914753,203.52793193684192 64.60813654446974,203.1798816593655" stroke="#4dd2ff" stroke-linecap="round" stroke-linejoin="round" stroke-width="0.5"><title>2021-03-29 1.2km</title></polyline><polyline fill="none" points="99.57797257229686,215.1428571428405 98.49945803452283,209.06122434331337 97.74918705131859,208.84594406792894 94.09161601029336,203.57155087549472 91.65323531604372,203.35626844118815 99.24972901702859,192.0 101.78189358417876,193.56082811160013 106.75243884534575,198.62003346602432 106.23662754474208,202.2260342721711 108.34676468395628,214.6046622749418 101.64121777494438,210.13762444985332 99.2028370804619,209.6532446637866 98.96837739855982,210.67582370952005" stroke="#4dd2ff" stroke-linecap="round" stroke-linejoin="round" stroke-width="0.5"><title>2021-03-28 1.4km</title></polyline><polyline fill="none" points="125.42945054965094,199.379507933103 126.74681318691,200.15655635067378 127.06725274748169,199.502199885319 128.34901098930277,199.42040525449556 128.63384615420364,198.76604762728675 129.0254945056513,199.21591860699118 129.63076923089102,198.76604762728675 131.51780219795182,199.82937824717374 132.62153846165165,199.01143185855472 135.86153846164234,199.9929673311126 135.64791208831593,199.17502126528416 137.17890109913424,199.33861060769414 136.0395604397636,198.92963713093195 136.32439560466446,198.2752787291247 136.39560439577326,199.17502126528416 136.21758241788484,198.76604762728675 135.82593406620435,199.2977132780943 135.89714285731316,198.6433554571413 136.39560439577326,199.33861060769414 135.86153846164234,199.17502126528416 136.92967032990418,199.05232921626884 136.92967032990418,199.46130257184268 136.46681318688206,198.88873976102332 135.71912087942474,199.2977132780943 137.21450549457222,199.05232921626884 136.75164835178293,198.68425285126432 136.6092307693325,199.91117279726313 135.9683516486548,199.379507933103 135.89714285731316,199.82937824717374 136.78725274722092,199.25681594459456 136.39560439577326,199.2977132780943 137.28571428591385,200.40193975897273 137.17890109913424,199.21591860699118 136.64483516500331,199.2977132780943 136.92967032990418,199.87027552415384 136.1463736265432,200.1156591019244 136.0395604397636,199.66578909853706 135.6123076924123,200.2792480729695 134.11692307703197,200.07476184910047 134.11692307703197,199.25681594459456 134.47296703304164,206.29109799026628 130.4496703299228,207.1908231319685 127.17406593426131,206.12751139121247 127.42329670349136,206.65916760251275 126.42637362657115,206.12751139121247 120.65846153860912,205.84123468736652 117.77450549486093,206.7000642058556 117.52527472539805,208.17233924171887 116.84879120904952,208.70399283096776 114.53450549463741,208.86757841374492 114.14285714295693,208.21323569581727" stroke="#4dd2ff" stroke-linecap="round" stroke-linejoin="round" stroke-width="0.5"><title>2021-03-26 1.5km</title></polyline><polyline fill="none" points="142.303135888651,202.1049270813528 149.64111498265993,205.09968118922552 152.22150323551614,204.91443949838867 154.47934295679443,205.40841709711822 157.73170731705613,204.76007133896928 159.02190144348424,204.91443949838867 163.0,203.49424955999712 159.47884519665968,204.91443949838867 154.93628670985345,205.28492277048645 152.54405176709406,204.79094497693586 149.8830263814889,205.0070603575441 144.15778994525317,203.61774459303706 139.8571428571595,201.7344400457223" stroke="#4dd2ff" stroke-linecap="round" stroke-linejoin="round" stroke-width="0.5"><title>2021-03-26 1.6km</title></polyline><polyline fill="none" points="188.71428571431898,205.62492482137168 186.94615571177565,205.39926684994134 184.3136065970175,203.7293944018311 182.0739752606023,203.77452616984374 178.85204947832972,202.5108349857619 170.99369391193613,202.73649438176653 172.17244724696502,203.3232082904142 171.70094591309316,203.45860370088485 165.57142857136205,201.51793232149794 170.52219257806428,203.4134719017602 177.55542080989107,203.86478969233576 183.56706281821243,205.30900363012915" stroke="#4dd2ff" stroke-linecap="round" stroke-linejoin="round" stroke-width="0.5"><title>2021-03-24 1.1km</title></polyline><polyline fill="none" points="34.428571428521536,232.0546736579854 32.76203416136559,231.94632111437386 31.126940993824974,230.71832337975502 28.517080745310523,230.28491143131396 26.378881987533532,229.3097326720599 19.838509316788986,229.4542037631618 20.40450310567394,230.0682052647462 15.279114906908944,228.65961205630447 11.285714285681024,229.16526152385632 12.857919254573062,229.38196822468308 15.404891304322518,228.6957298986381 20.121506211231463,230.14044066795032 28.705745341605507,230.50161746965023" stroke="#4dd2ff" stroke-linecap="round" stroke-linejoin="round" stroke-width="0.5"><title>2021-03-23 1.3km</title></polyline><polyline fill="none" points="59.681231002905406,231.5059956831974 51.895136778010055,228.7841083787207 48.72530395130161,229.31434778639232 45.58624620048795,228.96085493505234 46.447948328219354,229.52644332990167 46.10942249232903,229.63249105465366 41.154635258135386,228.14782005373854 37.0,228.74875905684894 40.846884498372674,228.21851881232578 45.49392097257078,229.5617925749102 51.64893617015332,229.98598324356135 60.14285714284051,232.56646566055133 58.757978723268025,231.89483503918746 60.14285714284051,231.5059956831974" stroke="#4dd2ff" stroke-linecap="round" stroke-linejoin="round" stroke-width="0.5"><title>2021-03-22 1.6km</title></polyline><polyline fill="none" points="82.42201333469711,218.9288253129198 82.74073669244535,219.1523246364377 82.56366816046648,219.86345724125567 84.17499180242885,220.10727357154246 84.59995627927128,220.4526795476122 84.45830145361833,221.08253601926845 85.09574816911481,221.50921189438668 85.85714285715949,222.82986973981315 85.39676467364188,224.04893103739596 84.72390425181948,224.33337763986492 84.47600830695592,225.06480996473692 81.20024046336766,227.90924442376127 77.58804240892641,229.3111298778531 76.4548038035864,230.04254460487573 75.58716799644753,230.7739567461831 73.05508798768278,234.2684457350406 62.714285714318976,241.78546040135552" stroke="#4dd2ff" stroke-linecap="round" stroke-linejoin="round" stroke-width="0.5"><title>2021-03-21 1.3km</title></polyline><polyline fill="none" points="98.91940776410047,228.34655612187635 98.62565453490242,226.4681330274907 96.6113466777606,223.96354649352725 95.79303411080036,223.72271951571747 93.02336080698296,226.25139097425563 90.27466987690423,229.7433229310991 89.58225155097898,229.93597979696642 88.82688610453624,231.98294963951048 90.10681088885758,233.81316701477044 93.14925504813436,235.25806581016514 96.44348768959753,237.9311061151966 96.25464632792864,238.07559394951386 96.69527617178392,238.02743134753837 96.29661107517313,237.81069952159305 96.80018803931307,238.65354443434626 97.91225383547135,239.9780091530556 102.12971091154031,241.9285714285652 104.3118777568452,241.71184305369388 109.45255926740356,238.1237565419724 110.14497759344522,236.67887464862724 111.17311389558017,232.05519532147446 110.14497759344522,230.27312894770876 106.30520324059762,226.7330397209589 102.15069328516256,221.50710020892438 99.06628437864129,218.78571428571013 95.60419274913147,223.60230593796587 96.23366395453922,223.67455409171816 97.09394126851112,224.46928237644897 98.77253114955965,226.61262762307888 98.75154877605382,227.28693460885552" stroke="#4dd2ff" stroke-linecap="round" stroke-linejoin="round" stroke-width="0.5"><title>2021-03-20 3.7km</title></polyline><polyline fill="none" points="135.00562983821146,236.18444657346117 127.10133708664216,233.6527601929265 118.74102744576521,233.3908607751655 114.25686136540025,232.43056158415857 114.14285714295693,230.85915841310634 114.78888106974773,230.16075521256425 114.18085855059326,228.98219731246354 114.33286418020725,226.93062607294996 116.72695285012014,224.5298391408287 120.67909922613762,225.0099975692574 124.70724841672927,226.36316851896117 132.30752990860492,226.18856604839675 136.3736805068329,225.53380616972572 136.86769880377688,224.9663468245417 136.14567206217907,226.6250720959215 135.68965517240576,232.2559615074424 136.06966924737208,235.1368539656687 137.28571428591385,235.3551026301575" stroke="#4dd2ff" stroke-linecap="round" stroke-linejoin="round" stroke-width="0.5"><title>2021-03-19 1.6km</title></polyline><polyline fill="none" points="149.23599602270406,230.12072870226984 154.2654955254402,232.27938580149203 156.21644017251674,232.15603456941608 157.91680477303453,232.52608804662304 159.70666224730667,232.13547602368635 160.65528670873027,232.21771019458538 163.0,231.51871870773903 158.65064633754082,232.5055295373022 156.41332449472975,232.15603456941608 153.90752403065562,232.2588272678986 143.90222074917983,229.07223004521802 139.8571428571595,228.64049377107585 140.73417301964946,228.76384708344995 140.14352005312685,228.51714038562204 140.32250580051914,228.41434584201488 141.68279748095665,228.49658148099843 143.4905535300495,228.18819766766683 144.09910507127643,228.64049377107585 144.45707656617742,228.41434584201488 144.88664236001205,228.8255237123376 145.26251242961735,228.70217043644516 145.74577394779772,229.11334773898125 146.35432548902463,228.88720032288984 147.6072257210035,229.79178851486358 147.8578057673294,229.48340661777183 147.21345707669389,228.51714038562204 146.96287703025155,228.5376992882957 147.05236990388948,229.23670077153656 148.2157772622304,229.8123472918087 148.69903878029436,228.66105266156956 148.96751740155742,229.2161419378681 149.325488896342,229.1544654245663 148.9496188267367,229.25725960324053 149.164401723654,229.19558310210414 148.64534305606503,228.476022574323 149.41498177009635,228.41434584201488" stroke="#4dd2ff" stroke-linecap="round" stroke-linejoin="round" stroke-width="0.5"><title>2021-03-19 3.1km</title></polyline><polyline fill="none" points="175.31016538990662,241.9285714285652 175.18018725136062,241.52546807244653 174.9332287882571,241.48067874439585 174.56929000036325,241.8240632541274 175.01121567131486,239.30091542800074 174.8422440912109,239.91304391274753 174.92023097432684,241.03278473486716 174.67327251122333,241.22687230171869 173.26950861531077,241.1970126922388 173.1005370352068,240.3012216691277 173.21751735988073,239.50993518896576 176.62294458883116,238.74850467036595 178.91055982658872,238.59920411957137 178.83257294347277,224.16114505915903 179.59944396070205,223.17566371365683 181.18517725053243,221.77208829247684 180.89922534575453,221.0553639066202 178.96255108201876,218.78571428571013" stroke="#4dd2ff" stroke-linecap="round" stroke-linejoin="round" stroke-width="0.5"><title>2021-03-18 2.7km</title></polyline><polyline fill="none" points="19.134638383809943,266.80458071372414 19.78256198676536,266.9169170111127 19.88036177586764,267.4645551914873 20.12486124865245,267.60497489839327 21.44515840173699,267.8717719600245 23.156654711347073,267.717310564185 24.342477154394146,268.0543170298479 25.442724781983998,268.7142857142899 25.723899175645784,267.8296461413847 25.564974518376403,264.08039836384705 26.579647330509033,263.98210215002473 25.12487546732882,263.57487425531144 23.719003498728853,263.50466243161645 23.095529843121767,262.8306271619949 21.86080750549445,250.0654816529859 23.20555460586911,248.4925792178692 24.159102549776435,247.94486803916516 23.474504025944043,246.72304319788236 22.30090655654203,245.5714285714348" stroke="#4dd2ff" stroke-linecap="round" stroke-linejoin="round" stroke-width="0.5"><title>2021-03-17 2.8km</title></polyline><polyline fill="none" points="37.77963525848463,255.89391371404054 38.06686930102296,255.89391371404054 39.50303951394744,256.5066148660262 39.913373860297725,257.02505368881975 44.18085106392391,258.20332164887805 48.69452887540683,258.81601984013105 50.21276595746167,258.72175863123266 51.27963525848463,258.9574116189906 51.8130699088797,259.1459339254652 53.94680851069279,259.4758477830619 55.711246200604364,260.18280528255855 56.285714285681024,260.32419665690395 57.27051671757363,260.84263133845525 58.09118541050702,261.3610654574586 58.41945288772695,261.4553261459805 58.788753799628466,261.64384746726137 59.69148936192505,261.87949901423417 60.14285714295693,261.83236871418194 60.101823708508164,261.83236871418194 60.101823708508164,261.83236871418194 59.97872340446338,261.87949901423417 60.06079027382657,261.83236871418194 60.101823708508164,261.83236871418194 60.14285714295693,261.87949901423417 59.89665653510019,261.83236871418194 59.363221884705126,261.83236871418194 57.55775075987913,261.87949901423417 56.32674772059545,261.50245648334385 55.136778115527704,261.2668047504267 53.94680851069279,261.1725440247974 52.756838905857876,261.2196743898385 52.14133738633245,261.2668047504267 50.95136778126471,261.3610654574586 50.41793313063681,261.3610654574586 48.57142857159488,261.2196743898385 47.99696048651822,261.0782832803379 46.88905775081366,260.79550093601574 46.314589665737,260.51271842437563 45.20668693026528,260.13567481495556 44.63221884518862,259.9471528988797 42.29331306996755,259.4758477830619 40.775075987912714,258.86315043776995 40.65197568410076,258.58036678266944 41.14437689981423,258.4861055270885 41.349544072989374,258.4861055270885 41.51367781171575,258.29758296033833 41.349544072989374,258.2504523069074 40.93920972640626,258.1561909862794 40.73404255323112,258.10906031905324 40.61094224941917,258.06192964711227 40.36474164156243,258.06192964711227 40.200607902836055,257.9676682892605 39.99544072966091,257.9676682892605 39.79027355625294,257.9676682892605 39.50303951394744,257.87340691289864 39.29787234053947,257.7791455179686 39.17477203649469,257.7320148134604 38.764437690144405,257.49636122150696 38.64133738609962,257.4020997521002 38.43617021292448,257.2607075131382 38.3130699088797,257.1664459973981 38.189969605067745,257.02505368881975 38.02583586634137,256.83653054561 37.73860182380304,256.60087651206413 37.4924012159463,256.45948403605144 37.36930091190152,256.36522236216115 37.16413373872638,256.1295680962212 37.08206686936319,255.70539012463996 37.08206686936319,255.32834272275795 37.041033434914425,255.0926879454055 37.0,254.9041640399373 37.12310030404478,254.5271160059492 37.08206686936319,254.00867447335622 37.08206686936319,253.77301904538763 37.041033434914425,253.63162573272712 37.12310030404478,253.49023237838992 37.08206686936319,253.4431012510031 37.12310030404478,253.1131832288229 37.16413373872638,252.87752735917456 37.36930091190152,252.8303961713682 37.77963525848463,252.68900257983478 37.98480243165977,252.59474016228341 38.107902735704556,252.54760894659557 38.35410334356129,252.45334650125005 38.395136778242886,252.45334650125005 38.395136778242886,252.40621527150506 38.43617021292448,252.40621527150506" stroke="#4dd2ff" stroke-linecap="round" stroke-linejoin="round" stroke-width="0.5"><title>2021-03-02 1.4km</title></polyline><polyline fill="none" points="66.96611295687035,257.4828915896942 67.23521594703197,257.60652762424434 70.19534883718006,258.1628894788446 72.07906976761296,258.8428866302129 72.77873754152097,259.15197600075044 74.66245847172104,259.6465186763671 75.36212624562904,259.6465186763671 77.35348837217316,259.52288304426474 77.99933554814197,259.3374295498361 79.99069767422043,259.21379385649925 81.22857142845169,259.6465186763671 81.87441860465333,259.89378986804513 83.0046511630062,260.3265142185264 84.08106312295422,260.51196742011234 85.42657807306387,260.3883319586166 85.64186046482064,260.26469647255726 85.85714285704307,260.3883319586166 85.80332225910388,261.25377967813984 84.83455149503425,261.5010502357036 84.02724252501503,262.1810437658569 83.65049833874218,262.3046788741485 83.27375415270217,262.4283139578183 83.05847176071256,262.4283139578183 82.73554817261174,262.4901314903982 82.52026578085497,262.6137665374554 81.76677740854211,262.9228540487238 81.87441860465333,263.2319414073718 82.25116279069334,263.47921118466184 82.25116279069334,263.5410286138649 82.25116279069334,263.60284603672335 82.30498338863254,263.5410286138649 82.03588039870374,263.47921118466184 81.71295681060292,263.60284603672335 81.60531561472453,263.6646634535282 81.49767441838048,263.72648086445406 81.44385382044129,263.7882982690353 81.44385382044129,263.7882982690353 81.22857142845169,263.47921118466184 81.1209302325733,263.3555763082113 80.95946843829006,263.1701239479007 80.90564784035087,263.0464890105068 80.36744186049327,262.9228540487238 80.15215946827084,262.9228540487238 79.88305647834204,262.9228540487238 79.61395348841324,262.86103655869374 79.29102990031242,262.86103655869374 79.02192691038363,262.86103655869374 78.4837209302932,262.7374015604146 78.21461794013157,262.6755840519909 77.94551495043561,262.6137665374554 77.67641196004115,262.5519490170409 77.13820598018356,262.4283139578183 76.92292358796112,262.3046788741485 76.65382059803233,262.2428613230586 76.38471760810353,262.119226202718 76.11561461770907,261.99559105804656 75.9003322259523,261.8101382954046 75.41594684380107,261.5628678597277 74.93156146164984,261.31559732655296 74.55481727584265,260.9446913438733 74.2857142854482,260.82105596771 74.0166112955194,260.69742056692485 73.74750830582343,260.5737851418671 73.47840531542897,260.4501496924204 73.31694352184422,260.3883319586166 72.88637873763219,260.20287872024346 72.67109634564258,260.1410609620507 72.45581395342015,260.0792431976297 72.24053156143054,259.9556076506851 71.97142857150175,259.89378986804513 71.70232558134012,259.83197207935154 71.1102990033105,259.77015428437153 70.8950166113209,259.70833648351254 70.62591362115927,259.6465186763671 70.30299003305845,259.6465186763671 70.08770764106885,259.58470086334273 69.54950166097842,259.52288304426474 69.28039867104962,259.3992473874241 68.7960132888984,259.028340270801 68.2578073090408,258.8428866302129 68.0425249170512,258.78106873785146 67.7734219271224,258.7192508394364 67.45049833902158,258.6574329348514 67.23521594703197,258.59561502427096 66.96611295687035,258.47197918442544 66.48172757471912,258.22470743209124 66.21262458479032,258.1010715193115 65.99734219256788,257.9774355820846 65.45913621271029,257.6683456324972 65.29767441865988,257.54470960999606 65.08239202643745,257.4210735632223 64.59800664451905,257.1119833391858 64.38272425252944,256.9265291317133 64.11362126236781,256.55562055198243 63.7368770763278,256.1228935983381 63.09102990035899,255.62834814260714 63.09102990035899,255.4428934963653 62.9833887044806,255.13380229682662 62.87574750860222,254.8865292276023 62.714285714318976,254.08289107889868 62.87574750860222,253.77379920892417 62.92956810630858,253.464707186562 62.9833887044806,253.21743345883442 63.03720930265263,253.03197809914127 63.03720930265263,252.72288571088575 63.03720930265263,251.91924478829606 63.03720930265263,251.36287739221007 63.629235880449414,251.11560283537256 64.05980066442862,250.8683281810372 64.43654485070147,250.74469081725692 64.70564784063026,250.68287212622818 64.81328903650865,250.55923472589348 65.56677740858868,250.49741601670394" stroke="#4dd2ff" stroke-linecap="round" stroke-linejoin="round" stroke-width="0.5"><title>2020-12-25 1.0km</title></polyline><polyline fill="none" points="88.77658431814052,254.46970547479577 89.03759398520924,254.71953398990445 89.25510204094462,254.96936238187482 89.73361976374872,255.26915628972347 91.60418904409744,255.76881240849616 92.60472610103898,256.06860584329115 93.25725026871078,256.2185024942446 96.3023630506359,257.4176741045958 97.17239527404308,258.0172588455607 98.17293233098462,258.4669469354558 99.65198711073026,259.0165651703137 100.21750805596821,259.11649569429574 101.26154672424309,259.11649569429574 101.87056928034872,259.11649569429574 102.91460794839077,258.91663462657016 103.87164339446463,258.8167040629196 104.95918367360719,258.8666693471896 105.56820622994564,258.8167040629196 107.2647690656595,259.11649569429574 107.83029001089744,259.31635668332456 108.91783029004,259.5162175935693 109.52685284684412,259.46625237332773 110.61439312598668,259.416287148284 111.09291084879078,259.3663219183218 111.57142857159488,259.56618280886323 111.52792696026154,259.6161480190931 111.39742212719284,259.6661132244044 111.3539205158595,259.7160784249427 111.3539205158595,259.7660436203878 111.31041890452616,259.7160784249427 111.22341568232514,259.81600881091435 111.22341568232514,259.7160784249427 111.26691729365848,259.7660436203878 111.31041890452616,259.81600881091435 111.26691729365848,259.7660436203878 111.3539205158595,259.6661132244044 111.31041890452616,259.6661132244044 111.26691729365848,259.6661132244044 111.26691729365848,259.7160784249427 111.26691729365848,259.6661132244044 111.26691729365848,259.6661132244044 111.26691729365848,259.6661132244044 111.26691729365848,259.7160784249427 111.22341568232514,259.7160784249427 111.22341568232514,259.7160784249427 111.1799140709918,259.7160784249427 111.13641246012412,259.7160784249427 111.22341568232514,259.7160784249427 111.22341568232514,259.7160784249427 111.22341568232514,259.7160784249427 111.1799140709918,259.7160784249427 111.1799140709918,259.7660436203878 111.09291084879078,259.7160784249427 110.09237379184924,259.7160784249427 108.96133190137334,259.7160784249427 107.83029001089744,259.46625237332773 107.30827067699283,259.31635668332456 106.22073039761744,259.0165651703137 105.6552094523795,258.91663462657016 104.48066595057026,258.91663462657016 103.91514500556514,258.8666693471896 102.74060150398873,258.96659990079934 101.52255639107898,259.11649569429574 100.95703544607386,259.11649569429574 99.78249194449745,259.066530434764 99.17346938792616,258.91663462657016 96.43286788417026,258.0172588455607 95.86734693893231,257.81739734398434 94.25778732565232,257.4176741045958 93.8227712137159,257.3677086775424 92.08270676713437,257.0679160114378 91.08216970996,256.61822667971137 90.51664876495488,256.318433570239 89.42910848581232,255.71884681881056 88.42857142863795,255.3690875529137" stroke="#4dd2ff" stroke-linecap="round" stroke-linejoin="round" stroke-width="0.5"><title>2020-12-08 1.1km</title></polyline><polyline fill="none" points="114.14285714295693,254.75732605491066 114.36538461549208,254.79992505762493 115.8489010988269,255.9500965391926 116.3310439561028,256.12049205377116 118.22252747253515,256.6742770120618 119.11263736267574,256.9298698302882 119.55769230774604,257.1002649583097 120.5961538462434,257.48365375094 121.52335164835677,257.9522395907843 122.00549450563267,258.2504303151509 124.37912087910809,259.0598041006888 124.8983516485896,259.1024026789237 126.38186813192442,258.93200834063464 126.82692307699472,258.8894097454613 129.16346153849736,258.93200834063464 129.64560439554043,258.9746069314715 131.0920329671353,259.40059260939597 132.57554945047013,259.52838823079946 133.02060439554043,259.485789694445 133.98489011009224,259.52838823079946 135.46840659342706,259.3153955073212 135.91346153849736,259.2727969500702 136.84065934084356,259.18759982287884 137.28571428568102,259.14500125305494 137.10027472535148,258.8042125427164 136.06181318685412,258.7616139349702 135.61675824178383,258.8042125427164 134.68956043967046,259.0598041006888 134.35576923075132,259.14500125305494 133.39148351643234,259.3579940604395 132.94642857136205,259.40059260939597 132.01923076924868,259.40059260939597 131.5370879122056,259.3153955073212 130.6098901098594,259.14500125305494 130.16483516502194,259.0172055181174 128.71840659342706,258.7616139349702 128.236263736384,258.7616139349702 127.27197802206501,258.8042125427164 126.7527472525835,258.8042125427164 125.78846153849736,258.8894097454613 124.82417582417838,258.93200834063464 123.89697802206501,258.8894097454613 123.00686813192442,258.6764167070214 122.56181318685412,258.54862083363696 121.59752747276798,258.2504303151509 121.15247252746485,258.0800356406835 120.26236263732426,257.78184479873744 119.07554945047013,257.44105501295417 118.74175824178383,257.3984562708938 117.85164835164323,257.18546249720384 116.62774725281633,256.80207344004884 116.29395604413003,256.54648054629797 115.5151098901406,256.12049205377116 115.1071428572759,255.90749764998327" stroke="#4dd2ff" stroke-linecap="round" stroke-linejoin="round" stroke-width="0.5"><title>2020-12-03 1.3km</title></polyline><polyline fill="none" points="162.75553319905885,257.75124980477267 162.95925553282723,258.50003445113543 162.99999999976717,258.7340294107853 162.30734406411648,259.15522004745435 161.1257545268163,259.108421106328 159.4959758548066,258.8276273623633 157.94768611644395,258.17244131377083 157.41800804808736,258.07884323288454 154.40291750477627,256.90886566552217 153.30281690112315,256.72166898686555 151.6322937621735,256.7684681635292 150.49144869181328,256.72166898686555 149.67655935580842,256.72166898686555 149.18762575415894,256.72166898686555 148.08752515073866,256.6280706200632 147.72082494944334,256.581271429779 146.45774647849612,256.4876730349497 145.96881287684664,256.44087383081205 144.2575452714227,256.30047619043035 143.7278672028333,256.20687774042017 142.66851106635295,256.11327927189996 141.28319919505157,255.50488877680618 140.75352112646215,255.3176915445365 139.85714285704307,255.13049423822667 140.8757545268163,255.36449085953063 141.7721327964682,255.7856844868511 142.66851106635295,256.20687774042017 143.1981891344767,256.25367696766625 144.54275653907098,256.3940746219014 144.9502012070734,256.44087383081205 146.00955734378658,256.53447223463445 146.53923541214317,256.581271429779 147.6393360157963,256.581271429779 148.12826961744577,256.6280706200632 149.22837022109888,256.72166898686555 149.71730382274836,256.72166898686555 151.22484909417108,256.7684681635292 151.71378269605339,256.7684681635292 152.4471830984112,256.67486980577814 152.6916498991195,256.67486980577814 152.8546277664136,256.67486980577814 153.0176056334749,256.67486980577814 153.180583500769,256.67486980577814 153.3843058347702,256.6280706200632 153.58802816877142,256.6280706200632 153.99547283677384,256.67486980577814 154.15845070406795,256.67486980577814 154.52515090536326,256.8152673353907 154.89185110642575,257.002463976969 154.85110663971864,257.09606227008044 154.85110663971864,257.1428614096367 154.8103621727787,257.1428614096367" stroke="#4dd2ff" stroke-linecap="round" stroke-linejoin="round" stroke-width="0.5"><title>2020-11-30 1.0km</title></polyline></svg>