<?xml version="1.0" encoding="utf-8" ?>
<svg baseProfile="full" height="300mm" version="1.1" viewBox="0,0,200,300" width="200mm" xmlns="http://www.w3.org/2000/svg" xmlns:ev="http://www.w3.org/2001/xml-events" xmlns:xlink="http://www.w3.org/1999/xlink"><defs /><rect fill="#222222" height="300" width="200" x="0" y="0" /><text fill="#FFFFFF" style="font-size:12px; font-family:Arial; font-weight:bold;" x="10" y="20">Over 3km Runs</text><text fill="#FFFFFF" style="font-size:4px; font-family:Arial" x="10" y="280">ATHLETE</text><text fill="#FFFFFF" style="font-size:9px; font-family:Arial" x="10" y="290">jdzj</text><text fill="#FFFFFF" style="font-size:4px; font-family:Arial" x="120" y="280">STATISTICS</text><text fill="#FFFFFF" style="font-size:3px; font-family:Arial" x="120" y="285">Number: 27</text><text fill="#FFFFFF" style="font-size:3px; font-family:Arial" x="120" y="290">Weekly: 3.4</text><text fill="#FFFFFF" style="font-size:3px; font-family:Arial" x="141" y="285">Total: 49.9 km</text><text fill="#FFFFFF" style="font-size:3px; font-family:Arial" x="141" y="290">Avg: 1.8 km</text><text fill="#FFFFFF" style="font-size:3px; font-family:Arial" x="167" y="285">Min: 1.0 km</text><text fill="#FFFFFF" style="font-size:3px; font-family:Arial" x="167" y="290">Max: 3.7 km</text><polyline fill="none" points="43.545962733216584,49.73365360999014 33.38322981400415,46.786456285219174 32.226086956681684,45.68847702111816 25.08198757795617,46.266361100948416 19.9000000001397,45.746265454858076 20.855900621274486,46.32414947764482 20.403105590026826,46.55530292709591 11.800000000046566,44.59049569943454 18.94409937877208,46.72866795427399 29.207453416427597,47.59549232129939 43.44534161500633,51.40950430056546 41.53354037296958,50.65826148027554 44.199999999953434,50.31153369997628 43.495652173878625,49.444713351200335" stroke="#4dd2ff" stroke-linecap="round" stroke-linejoin="round" stroke-width="0.5"><title>2021-04-09 1.4km</title></polyline><polyline fill="none" points="49.088636363856494,46.202684941352345 50.653409091057256,47.524254894582555 61.97500000009313,51.858981469646096 66.99147727293894,51.64753220608691 71.36363636399619,52.54619099991396 79.46363636408933,51.64753220608691 80.20000000018626,50.74887190561276 76.9323863638565,49.90307259937981 73.02045454550534,50.696009488077834 68.97045454569161,49.16299711156171 65.61079545482062,49.42730990314158 59.90397727279924,46.51986202725675 59.1676136367023,45.1454266323708 55.9000000001397,43.8767139086267 53.414772727526724,43.45380900008604 47.800000000046566,44.828248732956126" stroke="#4dd2ff" stroke-linecap="round" stroke-linejoin="round" stroke-width="0.5"><title>2021-04-08 1.4km</title></polyline><polyline fill="none" points="115.9896103895735,49.35330095136305 116.19999999995343,50.46493292838568 113.46493506501429,50.5132646963757 106.22753246757202,48.04833845613757 95.28727272711694,47.516686072718585 89.52259740256704,45.4867353036243 83.80000000004657,46.356715234403964 89.22805194789544,45.728396550461184 94.99272727267817,47.468354009324685 105.72259740275331,47.95167442932143" stroke="#4dd2ff" stroke-linecap="round" stroke-linejoin="round" stroke-width="0.5"><title>2021-04-06 1.3km</title></polyline><polyline fill="none" points="129.69461077847518,43.134925054211635 133.76886227540672,41.86249870999018 135.4502994013019,43.20977359410608 135.4502994013019,44.63189440732822 134.35089820367284,45.23068129591411 136.29101796401665,47.326431569992565 138.29580838303082,47.55097588838544 140.8826347303111,46.35340539913159 143.79281437117606,42.68583365442464 146.3796407186892,43.658864674158394 148.51377245527692,42.386439235764556 152.13532934128307,42.83553081803257 152.13532934128307,38.26975362806115 151.74730538926087,41.03916284447769 149.61317365267314,40.66491896478692 152.20000000018626,41.11401159770321 152.0706586826127,43.06007650657557 146.5089820357971,43.58401617966592 143.79281437117606,42.61098506132839 139.3952095808927,48.149760402331594 140.42994011985138,47.25158344878582 135.5796407184098,47.17673531989567 134.60958083812147,45.530074557696935 136.032335329568,45.530074557696935 135.90299401199445,44.78159117506584 134.2215568863321,41.787650032900274 133.51017964049242,42.83553081803257 132.08742514974438,42.68583365442464 130.27664670627564,46.57795001438353 124.26227544876747,49.72156743326923 122.3221556886565,53.314256613492034 122.06347305350937,50.544893586076796 121.54610778414644,54.06273131881608 121.09341317345388,52.41608596255537 121.54610778414644,53.53879910509568 121.15808383212425,52.56578114721924 123.80958083830774,53.91303643863648 125.94371257466264,57.13146965234773 128.72455089795403,56.906928257027175 129.50059880223125,55.335136570676696 127.81916167656891,54.586663159541786 129.30658682622015,54.586663159541786 128.59520958084613,55.48483116179705 127.94850299367681,54.88605261547491 128.72455089795403,55.78422025218606 128.91856287419796,55.03574729769025 129.2419161675498,56.75723395525711 128.1425149696879,57.73024637193885 124.58562874235213,57.430858073115814 121.28742514923215,53.53879910509568 121.86946107749827,50.17065453995019 122.2574850297533,52.86517142492812 119.80000000004657,54.287273581838235 120.51137724542059,53.0897140535526 120.0586826344952,54.586663159541786 121.86946107749827,53.314256613492034 122.12814371241257,50.020958868204616" stroke="#4dd2ff" stroke-linecap="round" stroke-linejoin="round" stroke-width="0.5"><title>2021-04-05 1.9km</title></polyline><polyline fill="none" points="181.28055362205487,56.52409304885077 180.0100016380893,57.163759130839026 180.5071741535794,56.39615967599093 181.39103640336543,56.39615967599093 181.58438127033878,55.85244225966744 180.590036239475,61.769316440593684 178.46324270113837,63.30448719416745 178.3527599198278,64.20000000001164 178.2698978340486,63.30448719416745 180.67289832537062,61.865264832624234 181.47389848926105,58.73093552252976 182.0263123953482,53.74153042313992 180.6452776300721,52.75003663011012 177.66224253724795,52.206312897760654 175.8945180379087,53.581612281297566 172.1933448673226,54.63707051187521 165.45389521308243,58.69895240906044 164.23858461971395,56.747976325801574 162.8299291593721,57.35565870118444 162.16703247197438,57.099792581255315 158.30013512948062,40.50003233185271 158.07916956709232,37.46144550660392 160.04023893363774,46.35322719323449 160.64789423032198,46.60910207394045 167.74641292332672,43.37866639709682 173.21531059336849,41.61950427247211 176.64027681108564,39.70040707223234 181.4462777938461,35.83019202167634 184.29120941017754,31.800000000017462 185.9208304330241,32.631631163327256 185.72748556593433,32.88751723172027 185.064588878653,32.66361693327781 185.45127861283254,32.34375908700167 185.45127861283254,32.85553148458712 185.61700278474018,31.991915079503087 184.67789914435707,32.27978747850284" stroke="#4dd2ff" stroke-linecap="round" stroke-linejoin="round" stroke-width="0.5"><title>2021-04-05 3.7km</title></polyline><polyline fill="none" points="19.975700934417546,77.05247579992283 25.123364485800266,81.14368799887598 29.36261682258919,92.94967564521357 29.46355140162632,98.91106876486447 31.78504672879353,98.44350964063779 34.106542055960745,100.54752419993747 39.355140186846256,96.69016122550238 44.1999999997206,97.97595032514073 34.308411214500666,95.63815088907722 34.308411214500666,99.49551740277093 34.81308411248028,94.11857869965024 34.61121495300904,99.72929677448701 34.91401869105175,97.85906046675518 30.876635513734072,98.67728922667447 33.60186915891245,96.92394116905052 35.014953271020204,99.49551740277093 32.49158878484741,97.85906046675518 34.308411214500666,97.39150091307238 33.904672897420824,99.61240709444974 35.014953271020204,99.61240709444974 33.70280373841524,97.27461099473294 36.02429906511679,100.19685537496116 33.70280373841524,98.09284017176833 33.904672897420824,96.22260119521525 35.62056074757129,98.91106876486447 34.00560747645795,96.33949122042395 31.280373831745237,96.22260119521525 30.069158878177404,99.26173798344098 30.371962616685778,97.74217059637886 25.224299065303057,93.88479818427004 27.242990653961897,86.40379651915282 25.224299065303057,87.2220334536396 25.32523364527151,84.18286475422792 19.37009345786646,80.909904838074 11.799999999813735,81.61125417810399 16.039252336602658,83.13084294286091 17.452336448710412,87.1051424985053" stroke="#4dd2ff" stroke-linecap="round" stroke-linejoin="round" stroke-width="0.5"><title>2021-04-04 1.4km</title></polyline><polyline fill="none" points="67.80111731821671,74.29647369217128 57.75530726229772,78.87112133065239 48.07150838011876,90.0997176807141 57.21229050308466,100.1845586883137 62.55195530736819,94.15445917437319 68.79664804507047,91.55526770476718 68.97765363147482,88.1243251459673 74.76983240200207,83.86162337241694 66.2625698321499,73.04883907025214 59.112849161960185,77.83143042994197 47.799999999813735,90.72352508013137 57.031284916214645,99.04092177760322 62.46145251393318,92.69891274138354 71.33072625705972,91.2433642973192 73.95530726294965,89.26797390705906 75.31284916214645,84.06956044433173 74.95083798887208,83.13384329667315 73.86480446951464,85.21321360673755 70.697206703946,86.77273864636663 70.60670391097665,85.83702389954124 80.20000000018626,79.49493537889794 76.67039106180891,77.62349212670233 72.95977653609589,73.04883907025214 70.87821229035035,76.47983072488569 64.54301675967872,73.77662611252163 52.05363128473982,85.00527676043566 48.16201117262244,90.51558932138141 57.21229050308466,99.04092177760322 62.55195530736819,93.42668620916083 63.36648044688627,94.05049163871445 61.10391061427072,97.16951324569527 73.50279329624027,99.76869086455554 77.484916201327,104.55116092984099 69.06815642444417,89.16400588897523 69.97318435786292,86.35686552803963 74.40782122965902,82.6140000782907 69.52067039115354,79.5989043507725 66.80558659229428,74.40044317720458 64.90502793295309,73.67265656590462 63.275977653451264,74.81632101512514 64.09050279343501,75.54410683631431" stroke="#4dd2ff" stroke-linecap="round" stroke-linejoin="round" stroke-width="0.5"><title>2021-04-02 3.1km</title></polyline><polyline fill="none" points="103.6765957447933,101.32119667343795 99.88510638312437,100.00148690427886 92.73297872347757,99.86951564098126 84.97765957459342,98.8467365851102 84.31702127680182,98.21987045675633 83.80000000004657,95.08552219255944 84.54680851078592,94.4916423697141 86.09787234046962,94.42565565751283 84.69042553205509,90.03751008637482 85.03510638314765,84.09857477073092 87.18936170230154,81.03008353771293 88.05106382991653,78.9514121907414 92.15851063840091,76.11383997151279 93.82446808530949,77.92856916596065 95.37553191499319,78.2585188705416 96.17978723417036,79.2153711731371 99.5691489361925,79.2153711731371 104.79680851078592,80.04024165045121 107.32446808519308,81.36003018252086 111.5180851065088,85.08840464690002 115.4819148934912,91.951144557097 115.59680851059966,92.84197066220804 114.67765957443044,93.6338140972075 114.30425531917717,94.8875623687345 115.10851063835435,94.85456905336468 116.20000000006985,97.65898924076464 115.4819148934912,99.14367276226403 112.98297872347757,99.60557295824401 112.37978723400738,100.36440760985715 110.97234042547643,99.67155864837696 110.36914893623907,99.93550127916387 108.87553191487677,99.47360153877526 108.15744680853095,101.48616002846393 107.92765957443044,101.25521130865673" stroke="#4dd2ff" stroke-linecap="round" stroke-linejoin="round" stroke-width="0.5"><title>2021-04-02 3.2km</title></polyline><polyline fill="none" points="123.19469496048987,86.06068351896829 134.15225464198738,90.94703672511969 140.08222811692394,90.89767986044171 143.6917771883309,91.73674589607981 148.54748010635376,90.55218167236308 152.20000000018626,90.6015385708306 143.94960212218575,91.68738910951652 140.34005305054598,90.84832299110712 134.4960212202277,91.14446413470432 126.93315649894066,88.97275834553875 119.80000000004657,85.8632541038969" stroke="#4dd2ff" stroke-linecap="round" stroke-linejoin="round" stroke-width="0.5"><title>2021-04-01 1.4km</title></polyline><polyline fill="none" points="155.80000000004657,84.71911250898847 159.45891980384476,88.43456076394068 163.7541734862607,89.34819215658354 168.7918166941963,91.96726132446202 175.6854337155819,91.84544440015452 179.50343698868528,92.88088749098824 188.20000000018626,91.84544440015452 182.10180032765493,92.75907074689167 174.7309328969568,91.66271896869875 168.15548281534575,91.96726132446202 158.2923076923471,89.28728343907278 157.28477905108593,88.73910471156705 158.45139116235077,88.25183432310587" stroke="#4dd2ff" stroke-linecap="round" stroke-linejoin="round" stroke-width="0.5"><title>2021-03-29 1.2km</title></polyline><polyline fill="none" points="27.4091616012156,145.79999999998836 25.8992412481457,137.28571408067364 24.84886187198572,136.98432169511216 19.728262414457276,129.60017122566933 16.314529442461208,129.29877581761684 26.94962062384002,113.39999999996508 30.494651017710567,115.58515935624018 37.45341438357718,122.66804685239913 36.731278562685475,127.71644798107445 39.68547055730596,145.04652718489524 30.297704885015264,138.79267422982957 26.883971912786365,138.11454252933618 26.555728357983753,139.5461531933397" stroke="#4dd2ff" stroke-linecap="round" stroke-linejoin="round" stroke-width="0.5"><title>2021-03-28 1.4km</title></polyline><polyline fill="none" points="63.60123076941818,123.73131110635586 65.44553846144117,124.81917889096076 65.89415384619497,123.9030798394233 67.68861538451165,123.78856735629961 68.08738461555913,122.87246667820727 68.63569230749272,123.50228604977019 69.48307692306116,122.87246667820727 72.12492307671346,124.36112954601413 73.67015384626575,123.21600460197078 78.20615384588018,124.59015426354017 77.90707692317665,123.4450297714211 80.05046153836884,123.67405485076597 78.45538461534306,123.10149198333966 78.85415384615771,122.18539022078039 78.95384615380317,123.4450297714211 78.70461538457312,122.87246667820727 78.1563076924067,123.61679858935531 78.25600000005215,122.70069764001528 78.95384615380317,123.67405485076597 78.20615384588018,123.4450297714211 79.70153846149333,123.27326090278802 79.70153846149333,123.84582360059721 79.0535384612158,123.04423566540936 78.0067692308221,123.61679858935531 80.10030769230798,123.27326090278802 79.45230769226328,122.75795399176423 79.25292307697237,124.47564191615675 78.35569230769761,123.73131110635586 78.25600000005215,124.36112954601413 79.50215384596959,123.55954232241493 78.95384615380317,123.61679858935531 80.19999999995343,125.16271566256182 80.05046153836884,123.50228604977019 79.30276923091151,123.61679858935531 79.70153846149333,124.41838573379209 78.60492307692766,124.76192274270579 78.45538461534306,124.13210473791696 77.8572307692375,124.99094730213983 75.7636923075188,124.70466658868827 75.7636923075188,123.55954232241493 76.2621538459789,133.4075371863437 70.62953846156597,134.66715238476172 66.04369230754673,133.1785159477149 66.39261538465507,133.92283464351203 64.99692307692021,133.1785159477149 56.921846153680235,132.7777285623015 52.88430769252591,133.98008988820948 52.53538461541757,136.04127493838314 51.5883076924365,136.78558996337233 48.348307692212984,137.01460977923125 47.800000000046566,136.09852997411508" stroke="#4dd2ff" stroke-linecap="round" stroke-linejoin="round" stroke-width="0.5"><title>2021-03-26 1.5km</title></polyline><polyline fill="none" points="87.22439024411142,127.54689791394048 97.49756097584032,131.73955366492737 101.11010452965274,131.48021529777907 104.27108013955876,132.17178393597715 108.82439024397172,131.26409987456282 110.63066202099435,131.48021529777907 116.19999999995343,129.49194938404253 111.27038327534683,131.48021529777907 104.91080139367841,131.9988918787276 101.56167247402482,131.3073229677393 97.83623693394475,131.60988450056175 89.82090592337772,129.66484243026935 83.80000000004657,127.02821606400539" stroke="#4dd2ff" stroke-linecap="round" stroke-linejoin="round" stroke-width="0.5"><title>2021-03-26 1.6km</title></polyline><polyline fill="none" points="152.19999999995343,132.474894749932 149.72461799671873,132.15897358994698 146.03904923587106,129.82115216256352 142.9035653648898,129.8843366377987 138.39286926970817,128.11516898003174 127.39117147680372,128.43109213450225 129.04142614570446,129.25249160657404 128.38132427842356,129.44204518123297 119.80000000004657,126.72510525007965 126.73106960905716,129.37886066245846 136.5775891339872,130.01070556923514 144.99388794554397,132.0326050821459" stroke="#4dd2ff" stroke-linecap="round" stroke-linejoin="round" stroke-width="0.5"><title>2021-03-24 1.1km</title></polyline><polyline fill="none" points="188.19999999995343,131.9765431211854 185.8668478259351,131.82484956010012 183.5777173913084,130.10565273166867 179.92391304345801,129.49887600383954 176.93043478252366,128.13362574088387 167.77391304355115,128.33588526840322 168.56630434794351,129.19548737065634 161.3907608697191,127.22345687882625 155.80000000004657,127.9313661333872 158.00108695635572,128.23475551456795 161.56684782588854,127.27402185808751 168.17010869574733,129.29661693514208 180.18804347817786,129.80226445753942" stroke="#4dd2ff" stroke-linecap="round" stroke-linejoin="round" stroke-width="0.5"><title>2021-03-23 1.3km</title></polyline><polyline fill="none" points="43.553723404183984,172.00839395646472 32.65319148940034,168.1977517301857 28.21542553184554,168.94008690092596 23.820744680939242,168.44519690907327 25.027127659413964,169.2370206618798 24.55319148930721,169.3854874765093 17.616489361505955,167.3069480752456 11.800000000046566,168.14826267960598 17.185638297814876,167.4059263372328 23.69148936169222,169.28650960486266 32.30851063830778,169.88037654096843 44.199999999953434,173.49305192477186 42.261170212645084,172.55276905483333 44.199999999953434,172.00839395646472" stroke="#4dd2ff" stroke-linecap="round" stroke-linejoin="round" stroke-width="0.5"><title>2021-03-22 1.6km</title></polyline><polyline fill="none" points="75.3908186686458,154.40035543809063 75.83703136956319,154.71325449101278 75.58913542469963,155.70884013775503 77.84498852340039,156.05018300018855 78.43993879109621,156.53375136666 78.24162203527521,157.41555042698747 79.13404743687715,158.01289665215882 80.20000000006985,159.86181763574132 79.55547054321505,161.56850345237763 78.61346595268697,161.9667286958138 78.2664116298547,162.9907339506317 73.68033664883114,166.9729421932716 68.62325937265996,168.93558182899142 67.03672532516066,169.95956244683475 65.82203519518953,170.98353944465634 62.27712318289559,175.87582402906264 47.800000000046566,186.39964456189773" stroke="#4dd2ff" stroke-linecap="round" stroke-linejoin="round" stroke-width="0.5"><title>2021-03-21 1.3km</title></polyline><polyline fill="none" points="98.48717086960096,167.58517857064726 98.07591634884011,164.9553862385219 95.2558853487717,161.44896509093815 94.11024775495753,161.1118073220132 90.23270512965973,164.65194736397825 86.38453782745637,169.54065210354747 85.41515217127744,169.81037171575008 84.35764054628089,172.67612949531758 86.14953524421435,175.23843382069026 90.40895706729498,177.261292134237 95.02088276529685,181.00354856130434 94.75650485907681,181.20583152933978 95.37338664045092,181.1384038865799 94.81525550503284,180.83497933024773 95.52026325499173,182.01496220807894 97.07715536956675,183.86921281428658 102.98159527604003,186.60000000000582 106.03662885946687,186.29658027520054 113.23358297417872,181.2732591587701 114.20296863059048,179.2504245080927 115.6423594536027,172.77727345007588 114.20296863059048,170.28238052679808 108.8272845367901,165.32625560936867 103.01097059901804,158.0099402925116 98.69279812998138,154.20000000001164 93.84586984862108,160.9432283131464 94.72712953633163,161.04437572840834 95.93151777575258,162.1569953270373 98.28154360922053,165.15767867234536 98.25216828635894,166.101708452421" stroke="#4dd2ff" stroke-linecap="round" stroke-linejoin="round" stroke-width="0.5"><title>2021-03-20 3.7km</title></polyline><polyline fill="none" points="149.00788177340291,178.55822520283982 137.9418719210662,175.0138642701204 126.2374384237919,174.6472050852026 119.95960591128096,173.30278621782782 119.80000000004657,171.10282177833142 120.70443349750713,170.12505729758414 119.85320197045803,168.4750762374606 120.06600985210389,165.6028765020892 123.41773399012163,162.24177479714854 128.9507389164064,162.91399659699528 134.59014778328128,164.8084359265631 145.23054187186062,164.5639924677671 150.9231527093798,163.64732863759855 151.61477832496166,162.85288555437 150.60394088667817,165.17510093428427 149.96551724127494,173.0583461103961 150.49753694585524,177.09159555193037 152.19999999995343,177.39714368217392" stroke="#4dd2ff" stroke-linecap="round" stroke-linejoin="round" stroke-width="0.5"><title>2021-03-19 1.6km</title></polyline><polyline fill="none" points="168.93039443169255,170.06902018317487 175.97169373568613,173.09114012206555 178.70301624154672,172.91844839716214 181.08352668222506,173.43652326526353 183.58932714629918,172.88966643315507 184.91740139224567,173.00479427241953 188.20000000006985,172.02620619081426 182.11090487265028,173.40774135221727 178.97865429252852,172.91844839716214 175.47053364291787,173.06235817505512 161.46310904889833,168.6011220632936 155.80000000004657,167.99669127949164 157.02784222748596,168.16938591681537 156.20092807430774,167.82399653986795 156.45150812075008,167.68008417880628 158.35591647331603,167.79521407338325 160.88677494216245,167.36347673472483 161.73874709988013,167.99669127949164 162.2399071926484,167.68008417880628 162.84129930404015,168.2557331972639 163.36751740146428,168.0830386110174 164.04408352682367,168.6586868345621 164.89605568465777,168.34208045204286 166.65011600940488,169.60850392081193 167.0009280743543,169.1767692648864 166.09883990732487,167.82399653986795 165.74802784237545,167.85277900358778 165.8733178655384,168.83138108014828 167.50208816712257,169.6372862085118 168.17865429248195,168.02547372618574 168.55452436220367,168.80259871299495 169.0556844548555,168.7162515943637 168.52946635743137,168.86016344450763 168.83016241318546,168.77381634293124 168.10348027863074,167.76643160404637 169.18097447813489,167.68008417880628" stroke="#4dd2ff" stroke-linecap="round" stroke-linejoin="round" stroke-width="0.5"><title>2021-03-19 3.1km</title></polyline><polyline fill="none" points="25.43423154577613,227.39999999999418 25.252262151800096,226.83565530143096 24.90652030345518,226.7729502421571 24.39700600039214,227.25368855577835 25.015701939701103,223.72128159920976 24.77914172760211,224.57826147784363 24.888323363964446,226.14589862881985 24.54258151561953,226.41762122241198 22.577312061330304,226.3758177691343 22.34075184923131,225.12171033676714 22.504524303716607,224.01390926454042 27.272122424212284,222.94790653850941 30.47478375711944,222.73888576740865 30.365602120757103,202.52560308281682 31.439221544889733,201.14592919911956 33.659248150652274,199.18092360945593 33.25891548395157,198.17750946925662 30.547571514733136,194.99999999998545" stroke="#4dd2ff" stroke-linecap="round" stroke-linejoin="round" stroke-width="0.5"><title>2021-03-18 2.7km</title></polyline><polyline fill="none" points="58.788493737287354,224.72641299921088 59.695586781483144,224.88368381554028 59.8325064862147,225.6503772680735 60.17480574810179,225.84696485774475 62.02322176244343,226.2204807440139 64.4193165958859,226.00423478984158 66.07946801616345,226.47604384178703 67.61981469480088,227.39999999999418 68.0134588459041,226.16150459794153 67.79096432571532,220.91255770938005 69.21150626271265,220.77494301002298 67.1748256542487,220.20482395743602 65.20660489820875,220.10652740424848 64.33374178042868,219.16287802677834 62.605130507668946,201.29167431416863 64.48777644825168,199.08961090500816 65.82274356967537,198.32281525481085 64.86430563637987,196.6122604770353 63.22126917913556,195.0" stroke="#4dd2ff" stroke-linecap="round" stroke-linejoin="round" stroke-width="0.5"><title>2021-03-17 2.8km</title></polyline><polyline fill="none" points="84.89148936187848,209.45147919963347 85.29361702152528,209.45147919963347 87.30425531952642,210.3092608124134 87.87872340437025,211.03507516434183 93.85319148935378,212.68465030839434 100.1723404256627,213.54242777614854 102.29787234053947,213.41046208370244 103.79148936178535,213.74037626659265 104.53829787252471,214.00430749566294 107.52553191501647,214.46618689625757 109.99574468098581,215.45592739555286 110.80000000004657,215.65387531963643 112.17872340464965,216.37968387379078 113.32765957480296,217.10549164039548 113.78723404277116,217.2374566043727 114.30425531952642,217.50138645415427 115.56808510655537,217.8312986199162 116.20000000018626,217.76531619986054 116.14255319186486,217.76531619986054 116.14255319186486,217.76531619986054 115.970212766435,217.8312986199162 116.08510638331063,217.76531619986054 116.14255319186486,217.76531619986054 116.20000000018626,217.8312986199162 115.85531914886087,217.76531619986054 115.10851063858718,217.76531619986054 112.58085106383078,217.8312986199162 110.85744680883363,217.30343907664064 109.19148936192505,216.97352665057406 107.52553191501647,216.8415616346756 105.85957446834072,216.90754414570983 104.99787234072573,216.97352665057406 103.33191489381716,217.10549164039548 102.5851063830778,217.10549164039548 100.0,216.90754414570983 99.19574468093924,216.70959659246728 97.6446808509063,216.31370131042786 96.84042553207837,215.9178057941026 95.28936170227826,215.38994474092033 94.4851063832175,215.12601405836176 91.2106382981874,214.46618689625757 89.08510638331063,213.60841061285464 88.91276595764793,213.2125134957023 89.60212765960023,213.080547737889 89.88936170237139,213.080547737889 90.11914893635549,212.81661614443874 89.88936170237139,212.75063322967617 89.3148936170619,212.61866738076787 89.02765957452357,212.55268444668036 88.8553191490937,212.48670150589896 88.51063829800114,212.48670150589896 88.28085106401704,212.35473560495302 87.99361702147871,212.35473560495302 87.70638297870755,212.35473560495302 87.30425531952642,212.22276967804646 87.01702127675526,212.09080372512108 86.84468085109256,212.0248207388213 86.2702127660159,211.69490571005736 86.09787234058604,211.56293965294026 85.8106382980477,211.36499051837018 85.63829787261784,211.23302439635154 85.46595744695514,211.03507516434183 85.23617021273822,210.77114276384236 84.83404255332425,210.44122711685486 84.48936170223169,210.2432776504429 84.31702127680182,210.11131130700232 84.0297872342635,209.7813953346922 83.9148936169222,209.18754617444938 83.9148936169222,208.6596798118553 83.85744680883363,208.32976312353276 83.80000000004657,208.06582965585403 83.97234042570926,207.5379624082707 83.9148936169222,206.81214426265797 83.9148936169222,206.48222666350193 83.85744680883363,206.28427602577722 83.97234042570926,206.08632532972842 83.9148936169222,206.02034175139852 83.97234042570926,205.55845652031712 84.0297872342635,205.2285383028211 84.31702127680182,205.16255463985726 84.89148936187848,204.96460361179197 85.17872340441681,204.83263622719096 85.35106382984668,204.76665252522798 85.69574468093924,204.63468510168605 85.75319148949347,204.63468510168605 85.75319148949347,204.56870138004888 85.8106382980477,204.56870138004888" stroke="#4dd2ff" stroke-linecap="round" stroke-linejoin="round" stroke-width="0.5"><title>2021-03-02 1.4km</title></polyline><polyline fill="none" points="125.75255813961849,211.6760482256068 126.1293023256585,211.849138673977 130.27348837209865,212.62804527039407 132.9106976748444,213.5800412823446 133.89023255789652,214.01276640110882 136.52744186064228,214.70512614701875 137.50697674416006,214.70512614701875 140.29488372104242,214.53203626198228 141.19906976725906,214.2724013698171 143.98697674414143,214.09931139915716 145.71999999973923,214.70512614701875 146.62418604642153,215.05130581534468 148.20651162834838,215.65711990598356 149.71348837204278,215.9167543881922 151.59720930224285,215.7436647420982 151.89860465098172,215.57057506160345 152.20000000018626,215.7436647420982 152.12465116288513,216.95529154944234 150.76837209332734,217.30147032998502 149.63813953474164,218.25346127222292 149.11069767409936,218.42655042384285 148.58325581392273,218.59963954100385 148.28186046518385,218.59963954100385 147.8297674418427,218.68618408660404 147.52837209310383,218.8592731524841 146.47348837181926,219.29199566825991 146.62418604642153,219.7247179703554 147.1516279070638,220.07089565863134 147.1516279070638,220.15744005946908 147.1516279070638,220.24398445145926 147.22697674436495,220.15744005946908 146.85023255832493,220.07089565863134 146.39813953498378,220.24398445145926 146.24744186084718,220.33052883500932 146.09674418577924,220.41707321023569 146.02139534894377,220.5036175766727 146.02139534894377,220.5036175766727 145.71999999973923,220.07089565863134 145.56930232560262,219.89780683151912 145.34325581369922,219.6381735271425 145.26790697686374,219.46508461475605 144.5144186047837,219.29199566825991 144.21302325557917,219.29199566825991 143.83627907000482,219.29199566825991 143.4595348839648,219.20545118226437 143.00744186062366,219.20545118226437 142.63069767458364,219.20545118226437 141.87720930250362,219.0323621846619 141.50046511599794,218.94581767282216 141.1237209304236,218.8592731524841 140.7469767439179,218.77272862388054 139.99348837230355,218.59963954100385 139.692093023099,218.42655042384285 139.31534883752465,218.34000585234025 138.93860465148464,218.1669166838401 138.56186046497896,217.99382748128846 138.26046511624008,217.7341936136363 137.5823255814612,217.38801500370027 136.9041860466823,217.04183625720907 136.37674418650568,216.52256788144587 136.0,216.34947835485218 135.62325581396,216.17638879379956 135.24651162791997,216.00329919869546 134.8697674414143,215.83020956942346 134.6437209304422,215.7436647420982 134.0409302324988,215.48403020837577 133.73953488375992,215.3974853468826 133.43813953502104,215.3109404767165 133.1367441858165,215.13785071100574 132.76000000024214,215.05130581534468 132.38325581373647,214.9647609111853 131.55441860482097,214.87821599823656 131.2530232560821,214.79167107696412 130.8762790695764,214.70512614701875 130.42418604623526,214.70512614701875 130.12279069749638,214.61858120874967 129.36930232541636,214.53203626198228 128.992558139842,214.3589463424869 128.31441860459745,213.83967637922615 127.56093023251742,213.5800412823446 127.25953488377854,213.49349623301532 126.88279069773853,213.40695117530413 126.43069767439738,213.32040610880358 126.1293023256585,213.23386103397934 125.75255813961849,213.0607708581956 125.0744186048396,212.71459040499758 124.69767441879958,212.5415001270594 124.39627906959504,212.36840981501155 123.64279069798067,211.93568388553103 123.41674418607727,211.76259345409926 123.11534883733839,211.589502988616 122.4372093025595,211.15677667490672 122.13581395382062,210.89714078442194 121.75906976731494,210.3778687728336 121.23162790713832,209.77205103775486 120.32744186045602,209.07968739973148 120.32744186045602,208.82005089498125 120.17674418631941,208.38732321566204 120.0260465121828,208.04114091867814 119.79999999981374,206.91604751051636 120.0260465121828,206.4833188925404 120.10139534901828,206.05059006123338 120.17674418631941,205.70440684247296 120.25209302362055,205.44476933882106 120.25209302362055,205.0120399952284 120.25209302362055,203.88694270368433 120.25209302362055,203.10802834917558 121.08093023300171,202.7618439695798 121.68372093047947,202.41565945348702 122.21116279112175,202.2425671441597 122.58790697716177,202.15602097677765 122.73860465129837,201.982928616344 123.79348837211728,201.8963824234088" stroke="#4dd2ff" stroke-linecap="round" stroke-linejoin="round" stroke-width="0.5"><title>2020-12-25 1.0km</title></polyline><polyline fill="none" points="156.28721804521047,207.45758766471408 156.65263157896698,207.8073475859128 156.9571428571362,208.1571073346422 157.62706766906194,208.5768188056536 160.24586466164328,209.27633737190627 161.64661654131487,209.6960481806309 162.5601503760554,209.90590349194827 166.82330827065744,211.58474374643993 168.04135338333435,212.42416238383157 169.44210526323877,213.05372570967302 171.5127819548361,213.82319123845082 172.30451127816923,213.9630939720082 173.76616541366093,213.9630939720082 174.6187969923485,213.9630939720082 176.0804511278402,213.6832884772448 177.42030075215735,213.54338568809908 178.9428571430035,213.61333708610618 179.7954887219239,213.54338568809908 182.1706766919233,213.9630939720082 182.9624060150236,214.24289935670095 184.48496240586974,214.52270463097375 185.3375939852558,214.45275332266465 186.86015037610196,214.38280200760346 187.53007518826053,214.31285068567377 188.20000000018626,214.59265593241435 188.13909774436615,214.6626072267536 187.95639097783715,214.73255851416616 187.89548872201703,214.80250979494303 187.89548872201703,214.87246106856037 187.83458646619692,214.80250979494303 187.71278195502236,214.9424123353092 187.71278195502236,214.80250979494303 187.77368421084248,214.87246106856037 187.83458646619692,214.9424123353092 187.77368421084248,214.87246106856037 187.89548872201703,214.73255851416616 187.83458646619692,214.73255851416616 187.77368421084248,214.73255851416616 187.77368421084248,214.80250979494303 187.77368421084248,214.73255851416616 187.77368421084248,214.73255851416616 187.77368421084248,214.73255851416616 187.77368421084248,214.80250979494303 187.71278195502236,214.80250979494303 187.71278195502236,214.80250979494303 187.65187969920225,214.80250979494303 187.59097744408064,214.80250979494303 187.71278195502236,214.80250979494303 187.71278195502236,214.80250979494303 187.71278195502236,214.80250979494303 187.65187969920225,214.80250979494303 187.65187969920225,214.87246106856037 187.53007518826053,214.80250979494303 186.1293233083561,214.80250979494303 184.54586466168985,214.80250979494303 182.9624060150236,214.45275332266465 182.23157894751057,214.24289935670095 180.7090225564316,213.82319123845082 179.9172932333313,213.6832884772448 178.27293233084492,213.6832884772448 177.48120300774463,213.61333708610618 175.8368421054911,213.75323986110743 174.13157894741744,213.9630939720082 173.33984962431714,213.9630939720082 171.6954887220636,213.89314260869287 170.84285714291036,213.6832884772448 167.0060150376521,212.42416238383157 166.2142857145518,212.144356281613 163.96090225572698,211.58474374643993 163.3518796991557,211.51479214860592 160.91578947380185,211.09508241602452 159.51503759389743,210.46551735157846 158.72330827079713,210.04580699832877 157.20075187995099,209.2063855463639 155.80000000004657,208.716722574085" stroke="#4dd2ff" stroke-linecap="round" stroke-linejoin="round" stroke-width="0.5"><title>2020-12-08 1.1km</title></polyline><polyline fill="none" points="11.800000000046566,248.66025647684 12.11153846164234,248.71989508066326 14.188461538637057,250.3301351548289 14.863461538683623,250.56868887529708 17.511538461782038,251.3439878168865 18.75769230769947,251.7018177623395 19.38076923089102,251.94037094159285 20.83461538469419,252.47711525129853 22.132692307932302,253.13313542708056 22.80769230797887,253.55060244118795 26.13076923089102,254.6837257409352 26.857692308025435,254.74336375045823 28.93461538478732,254.5048116768594 29.557692307746038,254.44517364358762 32.828846154036,254.5048116768594 33.503846153849736,254.56444970407756 35.528846154222265,255.16082965314854 37.60576923075132,255.3397435231018 38.22884615394287,255.28010557219386 39.57884615426883,255.3397435231018 41.65576923079789,255.04155371017987 42.278846153989434,254.9819157300517 43.57692307722755,254.8626397519838 44.200000000186265,254.80300175427692 43.94038461567834,254.3258975597564 42.48653846164234,254.26625950890593 41.86346153868362,254.3258975597564 40.56538461567834,254.6837257409352 40.09807692328468,254.80300175427692 38.74807692319155,255.1011916846037 38.125,255.16082965314854 36.82692307699472,255.16082965314854 36.15192307718098,255.04155371017987 34.85384615394287,254.80300175427692 34.23076923121698,254.62408772535855 32.20576923084445,254.26625950890593 31.530769231030717,254.26625950890593 30.180769230937585,254.3258975597564 29.45384615380317,254.3258975597564 28.103846153942868,254.44517364358762 26.753846154082566,254.5048116768594 25.455769231077284,254.44517364358762 24.20961538492702,254.14698338980088 23.586538461735472,253.968069167051 22.23653846187517,253.55060244118795 21.613461538683623,253.31204989692196 20.36730769230053,252.8945827182033 18.705769230844453,252.41747701808345 18.238461538683623,252.35783877922222 16.99230769253336,252.0596474960912 15.278846154222265,251.52290281601017 14.811538461828604,251.16507276479388 13.721153846243396,250.56868887529708 13.150000000139698,250.27049670991255" stroke="#4dd2ff" stroke-linecap="round" stroke-linejoin="round" stroke-width="0.5"><title>2020-12-03 1.3km</title></polyline><polyline fill="none" points="79.85774647886865,252.85174972674577 80.14295774628408,253.90004823164782 80.19999999995343,254.2276411751518 79.2302816901356,254.817308066471 77.57605633791536,254.75178954889998 75.29436619696207,254.35867830732604 73.12676056311466,253.4414178393199 72.38521126750857,253.31038052606164 68.16408450691961,251.67241193179507 66.62394366180524,251.41033658164088 64.28521126741543,251.4758554289583 62.68802816863172,251.41033658164088 61.54718309850432,251.41033658164088 60.86267605610192,251.41033658164088 59.32253521098755,251.27929886814672 58.809154929360375,251.21378000173718 57.040845070267096,251.08274224895285 56.356338027864695,251.01722336321836 53.960563380038366,250.8206666666665 53.21901408419944,250.68962883658241 51.73591549298726,250.55859098071232 49.79647887335159,249.70684428757522 49.054929577279836,249.44476816238603 47.800000000046566,249.1826919335872 49.22605633782223,249.51028720336035 50.48098591552116,250.09995828161482 51.73591549298726,250.68962883658241 52.47746478859335,250.75514775473857 54.35985915502533,250.95170447067358 54.93028169008903,251.01722336321836 56.413380281534046,251.14826112851733 57.15492957714014,251.21378000173718 58.69507042248733,251.21378000173718 59.379577464889735,251.27929886814672 60.91971830977127,251.41033658164088 61.60422535194084,251.41033658164088 63.714788732118905,251.4758554289583 64.3992957745213,251.4758554289583 65.42605633777566,251.34481772815343 65.76830985909328,251.34481772815343 65.99647887307219,251.34481772815343 66.2246478870511,251.34481772815343 66.45281690103002,251.34481772815343 66.73802816891111,251.27929886814672 67.02323943632655,251.27929886814672 67.59366197162308,251.34481772815343 67.82183098583482,251.34481772815343 68.33521126769483,251.54137426958187 68.84859154908918,251.80344956781482 68.79154929565266,251.934487178165 68.79154929565266,252.0000059735612 68.7345070419833,252.0000059735612" stroke="#4dd2ff" stroke-linecap="round" stroke-linejoin="round" stroke-width="0.5"><title>2020-11-30 1.0km</title></polyline></svg>