<?xml version="1.0" encoding="utf-8" ?>
<svg baseProfile="full" height="300mm" version="1.1" viewBox="0,0,200,300" width="200mm" xmlns="http://www.w3.org/2000/svg" xmlns:ev="http://www.w3.org/2001/xml-events" xmlns:xlink="http://www.w3.org/1999/xlink"><defs /><rect fill="#222222" height="300" width="200" x="0" y="0" /><text fill="#FFFFFF" style="font-size:12px; font-family:Arial; font-weight:bold;" x="10" y="20">Over 3km Runs</text><text fill="#FFFFFF" style="font-size:4px; font-family:Arial" x="10" y="280">ATHLETE</text><text fill="#FFFFFF" style="font-size:9px; font-family:Arial" x="10" y="290">jdzj</text><text fill="#FFFFFF" style="font-size:4px; font-family:Arial" x="120" y="280">STATISTICS</text><text fill="#FFFFFF" style="font-size:3px; font-family:Arial" x="120" y="285">Number: 44</text><text fill="#FFFFFF" style="font-size:3px; font-family:Arial" x="120" y="290">Weekly: 3.1</text><text fill="#FFFFFF" style="font-size:3px; font-family:Arial" x="141" y="285">Total: 83.8 km</text><text fill="#FFFFFF" style="font-size:3px; font-family:Arial" x="141" y="290">Avg: 1.9 km</text><text fill="#FFFFFF" style="font-size:3px; font-family:Arial" x="167" y="285">Min: 1.0 km</text><text fill="#FFFFFF" style="font-size:3px; font-family:Arial" x="167" y="290">Max: 4.9 km</text><polyline fill="none" points="11.629807692253962,42.68891965242801 11.5,39.93049467226956 17.276442307746038,38.8867636762443 38.04567307676189,39.33407713682391 38.5,49.4731112352456 37.26682692300528,50.36772536096396 26.752403846243396,49.4731112352456 25.454326923005283,50.36772536096396 17.471153846243396,51.11323632381391 12.86298076924868,50.44227649050299 11.82451923051849,49.547662452736404 11.82451923051849,41.794296437641606" stroke="#4dd2ff" stroke-linecap="round" stroke-linejoin="round" stroke-width="0.5"><title>2021-05-18 1.1km</title></polyline><polyline fill="none" points="41.5,45.91863367764745 42.55039787793066,46.905779877241 47.683023872668855,49.07200508596725 50.90583554375917,48.989743677462684 53.0782493368024,49.48331176335341 56.82625994691625,49.04458461920149 60.956233421806246,47.83808140299516 62.12599469488487,47.12514522334095 64.01193633954972,45.80895055021392 68.5,41.39416874811286 67.7838196286466,40.51668823664659 66.01724137936253,41.88775031856494 55.68037135282066,43.01201618020423 54.17639257281553,42.600699928967515 46.035809018532746,42.35390988612198 45.60610079567414,43.0394372419687 45.701591511955485,42.765226502524456 45.22413793101441,42.957174048555316 44.7228116709739,43.9991727003071 43.98275862063747,44.300803160091164 41.83421750657726,43.86206783761736 41.523872678983025,43.286226676253136" stroke="#4dd2ff" stroke-linecap="round" stroke-linejoin="round" stroke-width="0.5"><title>2021-05-10 2.5km</title></polyline><polyline fill="none" points="98.5,53.62218834881787 98.36556016595569,52.850076451170025 97.44688796682749,51.89780196425272 95.99045643152203,52.618442436360056 95.25103734445293,52.386808215931524 95.20622406643815,51.66616710406379 95.69917012448423,50.8425748248701 95.51991701254155,48.551945129060186 94.9821576763643,47.7798182280967 92.13651452283375,48.65489520991105 90.231950207497,48.44899500766769 90.16473029053304,47.85703102100524 85.23526970960665,47.93424379112548 82.65850622404832,47.522442086657975 78.53568464738782,48.26883219741285 75.60041493782774,48.34604484558804 73.27012448140886,47.8312934259302 71.5,44.76850148165249 74.07676348555833,42.915366209083004 75.21950207476038,41.654197177209426 77.57219917012844,40.444498704135185 77.86348547716625,39.569394184683915 80.35062240669504,38.46264014756889 82.74813278007787,36.815369630552595 81.7846473029349,37.896392080554506 79.11825726146344,39.05462544912007 76.60871369298548,36.84110831236467 75.0178423236357,36.37781165118213" stroke="#4dd2ff" stroke-linecap="round" stroke-linejoin="round" stroke-width="0.5"><title>2021-05-08 2.6km</title></polyline><polyline fill="none" points="128.5,40.33026879368117 128.32324058911763,42.208326480700634 123.02045826520771,42.51287573011359 122.2250409165863,43.98486122771283 114.04991816682741,42.10681002429919 109.80769230774604,42.46211753448006 108.2610474631656,43.32500618058839 102.25122749595903,42.005293547641486 101.5,43.22348994429922 107.7749590834137,45.45684251523926 116.87806873978116,46.37048395522288 128.32324058911763,49.66973120631883" stroke="#4dd2ff" stroke-linecap="round" stroke-linejoin="round" stroke-width="0.5"><title>2021-05-08 1.3km</title></polyline><polyline fill="none" points="158.5,44.547562955413014 157.81962864729576,44.917745135200676 153.80901856790297,43.43701444446924 153.16445623361506,44.01285478231148 149.0822281166911,42.449857729516225 146.4323607427068,43.68380325799808 140.66710875323042,44.05398620440974 136.9787798409816,42.861173311423045 133.25464190985076,43.51927739850362 131.96551724127494,43.313619982858654 131.5,42.65551557124127 137.48010610067286,42.902304847346386 140.9893899206072,44.465300204145024 146.71883289143443,44.30077465294744 158.28514588880353,47.550142270483775" stroke="#4dd2ff" stroke-linecap="round" stroke-linejoin="round" stroke-width="0.5"><title>2021-05-07 1.5km</title></polyline><polyline fill="none" points="161.6246153844986,50.185164627531776 161.5,49.46832878002897 163.49384615384042,48.79928102562553 164.32461538468488,46.792132182978094 174.75076923076995,40.57947557425359 178.0738461536821,41.53527411821415 178.8630769229494,42.586650324316 179.8184615385253,40.24494563540793 179.4446153845638,39.81483537243912 179.4446153845638,41.43969434921746 179.2369230769109,40.91400528058875 178.4476923076436,42.73001962917624 179.48615384614095,41.53527411821415 178.48923076922074,42.586650324316 179.02923076902516,40.818425388250034 178.6553846152965,42.68222986560431 179.56923076906241,41.86980316028348 181.27230769232847,42.156542153970804 183.8061538459733,41.24853475438431 186.13230769219808,41.344114561215974 188.5,42.73001962917624 186.9630769228097,41.67864373602788 185.09384615370072,41.43969434921746 180.73230769229122,42.4910707641684 178.5723076921422,41.10516500828089" stroke="#4dd2ff" stroke-linecap="round" stroke-linejoin="round" stroke-width="0.5"><title>2021-05-06 1.2km</title></polyline><polyline fill="none" points="18.237240075832233,77.46278438757872 19.411153119290248,74.94149654899957 27.781663516070694,68.72618315467844 31.303402646444738,64.97350962349446 35.94801512314007,62.510804736055434 37.734404536895454,64.21124491578666 38.5,81.5085494897794 37.53024574671872,76.3487282898277 23.494328922592103,84.0298094599857 19.819470699410886,80.51176934101386 12.92911153123714,84.26434472732944 11.5,86.66832587873796 12.980151228839532,87.48919526394457 17.369565217522904,83.3848369976622 19.00283553870395,79.63225605653133 18.08412098302506,78.28366649121745" stroke="#4dd2ff" stroke-linecap="round" stroke-linejoin="round" stroke-width="0.5"><title>2021-05-06 1.8km</title></polyline><polyline fill="none" points="57.8550913836807,70.82384493073914 60.28720626607537,70.09045673039509 60.533942558802664,69.3163232919469 57.71409921674058,68.17549235391198 58.066579634323716,68.25698038539849 57.643603133037686,68.70516426290851 59.72323759784922,69.5200427621894 61.55613577016629,69.23483547507203 60.95691905985586,71.88318108403473 62.78981723240577,70.86458868044429 62.719321148702875,71.63871914224 63.45953002618626,71.59797547079506 66.20887728454545,73.79812782708905 68.2180156656541,74.24630553697352 68.25326370750554,75.38711927455734 67.61879895534366,76.28347065809066 68.5,80.35776998128858 67.75979112274945,81.82450764605892 48.1618798954878,79.50217054301174 42.6984334201552,80.23554160146159 41.5,81.13188219236326 42.34595300257206,80.27628439894761" stroke="#4dd2ff" stroke-linecap="round" stroke-linejoin="round" stroke-width="0.5"><title>2021-05-02 1.6km</title></polyline><polyline fill="none" points="79.7708860761486,68.55801729654195 81.68481012666598,69.348454042105 84.00886075990275,67.37236067571212 93.23670886084437,65.8705263681477 97.33797468361445,67.53044832928572 98.5,70.29697707982268 97.0645569623448,78.20129086408997 85.44430379755795,82.31150237331167 72.32025316450745,84.12947363191051 71.5,82.78575615363661 77.17341772140935,66.50287800800288" stroke="#4dd2ff" stroke-linecap="round" stroke-linejoin="round" stroke-width="0.5"><title>2021-05-01 1.0km</title></polyline><polyline fill="none" points="114.37958048470318,73.89144496811787 112.74392903526314,76.50013982632663 110.31865274859592,71.47839281102642 110.43145629670471,69.65229327307316 112.40551839070395,66.58704311598558 115.50761596718803,65.28267691930523 123.51666789175943,65.41311365773436 128.19801514339633,61.5 122.27582886116579,65.67398705566302 108.34459065436386,63.78265252505662 107.16015339782462,64.36961900861934 104.84768065926619,69.32620352465892 104.05805582134053,81.45663092919858 103.09922566148452,84.58702669781633 101.97119017899968,85.0435414754902 101.8019848568365,88.5 102.70441324263811,88.04348767379997 103.09922566148452,85.89135377493221 104.62207356258295,68.93489560863236 106.65253743086942,66.91313425207045 107.4985640423838,67.43487972620642" stroke="#4dd2ff" stroke-linecap="round" stroke-linejoin="round" stroke-width="0.5"><title>2021-05-01 1.8km</title></polyline><polyline fill="none" points="154.35151710780337,72.54729372254224 153.41026468691416,72.70747328280413 151.87637185282074,73.80870433762902 150.01129761134507,73.72861500787258 149.68011620396283,74.12906134077639 149.73240800516214,73.74863734330575 148.47740477730986,74.16910593061766 145.51420271140523,73.78868200814759 143.77114267268917,73.98890521413705 143.24822466110345,73.70859267051856 141.34828921884764,74.06899444117153 137.06036152353045,74.16910593061766 132.78986442863243,73.72861500787258 131.5,74.82984052217216 131.58715300186304,75.21026249312854 136.6071659134468,76.1913474433677 137.1475145255099,76.03117063254467 138.14105874759844,76.55174480551796 140.79051000642357,76.59178891735792 142.4464170432184,77.2324936324294 143.16107165906578,77.01225161476759 145.04357650096063,77.45273541120696 145.51420271140523,77.81313053362828 146.68205293739447,77.95328401951701 146.99580374429934,77.71302084159106 147.8499031633255,78.11345931352116 148.9131697868579,77.93326209892984 150.69109102641232,78.45383139346086 150.84796642995207,77.97330593819788 151.23143963847542,77.93326209892984 151.9460942542646,78.31367825318011 152.1901226597838,77.73304278393334 153.23595868301345,77.17242765137053 154.49096191086574,75.91103794146329 155.8854099418386,75.37043995175918 156.61749515816336,74.4894623648579 157.83763718529372,74.10903904291627 158.5,73.18801120518765 158.1513879922568,72.1268217752804 157.6110393802519,71.54616860652459 156.51291155582294,72.24695670625078 154.83957391860895,72.14684426873282 154.73499031632673,72.78756301557587 152.38185926398728,73.94886058874545 152.86991607490927,74.4093733037007 153.2010974822333,74.1891282225406 154.3340865073842,75.05008490809996 155.27533892838983,74.90992941746663 155.3450613298919,74.66966263690847" stroke="#4dd2ff" stroke-linecap="round" stroke-linejoin="round" stroke-width="0.5"><title>2021-04-30 3.7km</title></polyline><polyline fill="none" points="188.28672985779122,73.23623378251796 186.58056872035377,75.68592113841441 185.64218009449542,75.83290199568728 176.34360189572908,73.28522764809895 168.06872037914582,73.23623378251796 169.17772511858493,74.16711640084395 161.5,71.86440358625259 167.64218009449542,74.02013505066861 177.45260663493536,74.95101620003697 187.56161137414165,78.13559641374741 188.5,77.93962283618748 187.22037914698012,77.49868200431229" stroke="#4dd2ff" stroke-linecap="round" stroke-linejoin="round" stroke-width="0.5"><title>2021-04-29 1.4km</title></polyline><polyline fill="none" points="21.875714285764843,104.33554940490285 24.07428571442142,102.60747186263325 23.30285714287311,101.23386702072457 24.65285714273341,100.79076778833405 33.871428571408615,91.97300212824484 34.95142857148312,91.84006966266315 38.5,95.91664737128303 33.987142856931314,98.84112597076455 34.488571428461,98.88543610589113 31.672857142519206,101.94282488318277 32.86857142834924,101.49972635036102 33.1385714286007,100.48059806539095 31.788571428507566,101.58834609185578 25.34714285703376,109.38681485856068 20.98857142869383,111.95673512283247 18.01857142848894,114.57094926701393 17.825714285718277,116.25467235324322 15.39571428578347,118.15993033730774 13.390000000130385,117.14083986292826 11.5,114.43802349138423 11.654285714263096,111.82380857339012 14.315714285708964,110.58315888041398 15.28000000002794,109.07665107343928 17.941428571473807,107.92461228143657 18.442857143003494,106.77257053373614 19.75428571435623,106.01931086977129 20.140000000130385,104.6900260274997 21.142857142956927,103.93676287005655 22.26142857130617,104.20262059936067 22.49285714281723,103.36073724998278" stroke="#4dd2ff" stroke-linecap="round" stroke-linejoin="round" stroke-width="0.5"><title>2021-04-26 2.2km</title></polyline><polyline fill="none" points="57.429649018566124,113.72947800598922 58.16590629715938,112.71446476058918 59.01996473991312,102.05664420773974 61.90609327133279,91.5 59.25556706904899,101.8874697809515 57.16459639824461,102.86868029402103 54.1312164113624,102.6656714527926 50.98003525985405,103.13935856189346 49.33081895625219,104.15440016260254 48.18225760187488,105.77846047110506 48.09390672855079,115.72566195391119 49.41916982969269,118.16166729407269 50.30267856363207,118.5 50.891684386413544,118.19550057966262 54.07231582922395,115.52266072752536 55.161976601113565,116.26699797008769 56.22218708205037,115.488827178051 56.4283391200006,114.60915372084128" stroke="#4dd2ff" stroke-linecap="round" stroke-linejoin="round" stroke-width="0.5"><title>2021-04-25 2.2km</title></polyline><polyline fill="none" points="86.04328879958484,118.5 85.24709471571259,112.57028896175325 85.68637421028689,109.19535109811113 85.24709471571259,102.9185027051426 85.65891924186144,91.97315048170276 85.32945962098893,91.5 84.64308541070204,91.97315048170276 83.95671120041516,103.13929845957318 84.2312608845532,114.11580935536767 85.32945962098893,114.4312207622861 85.41182452614885,114.14735051008756 85.54909936827607,108.753767806018 85.1921847788617,112.94878444314236" stroke="#4dd2ff" stroke-linecap="round" stroke-linejoin="round" stroke-width="0.5"><title>2021-04-18 2.2km</title></polyline><polyline fill="none" points="128.5,108.84329710557358 123.66475644684397,108.35455802554497 109.0429799426347,103.95588244483224 102.58309455565177,103.33384404791286 101.5,102.62294197097071 109.1977077361662,102.53407913257251 110.89971346687526,101.15670289442642 114.22636103141122,102.66737338370876" stroke="#4dd2ff" stroke-linecap="round" stroke-linejoin="round" stroke-width="0.5"><title>2021-04-16 1.0km</title></polyline><polyline fill="none" points="158.5,107.16544545063516 157.70920502085937,107.37630865129177 157.38441422593314,106.71127763851837 156.81956066942075,106.48419326210569 156.0993723848951,106.66261672708788 155.84518828446744,106.45175261124677 155.49215481168358,105.96514208130247 156.11349372385303,104.86215288248786 155.9016736401245,104.05112669288064 155.47803347278386,103.87270039442228 152.18776150629856,104.09978837710514 149.37761506275274,103.85647981220973 148.00784518831642,104.1808911520493 147.42887029290432,103.95380328134343 146.49686192470836,104.05112669288064 146.27092050213832,103.85647981220973 144.4351464434876,104.06734725587012 143.78556485357694,103.84025922839646 143.03713389125187,104.05112669288064 142.2887029288686,103.74293569203292 140.70711297076195,104.03490612830501 139.4079497908242,103.51584721657855 138.3347280335147,103.6456120981311 137.72751046030317,102.89946263092861 136.6260460250778,102.9643453276658 135.62343096232507,102.6561522900156 135.21391213394236,102.85080059153552 134.64905857742997,102.29929647214885 133.8158995815902,102.59126947163895 132.60146443516714,102.18575127677468 131.89539748959942,102.55882805289002 132.38964435155503,102.20197202375857 132.50261506275274,102.75347646955925 131.5,102.70481438699062 132.34728033473948,102.39662086291355 131.93776150635676,102.49394519609632 132.3755230125971,102.46150375812431 132.02248953975504,102.60749017864873 132.24843096238328,102.85080059153552 132.00836820085533,102.6561522900156 132.34728033473948,102.54260734103445 132.24843096238328,102.36417940571846 131.96600418409798,102.46150375812431 132.0648535565124,102.70481438699062 132.50261506275274,102.52638662765094 132.29079497908242,102.44528303669358 132.2625523013412,102.67237299059343 132.3755230125971,102.38040013515274 132.22018828458386,102.67237299059343 132.31903765688185,102.44528303669358 132.38964435155503,102.6237108840287 132.1778242678265,102.03976448181493 132.30491631804034,102.46150375812431 132.23430962342536,102.18575127677468 132.2625523013412,102.46150375812431 131.9801255229977,102.25063425516419 132.0789748954703,102.10464751777181 132.1778242678265,102.25063425516419 131.96600418409798,102.33173794214963 132.24843096238328,102.47772447788157 132.02248953975504,102.34795867474168 132.29079497908242,102.10464751777181 132.09309623437002,102.44528303669358 131.86715481174178,102.44528303669358 132.09309623437002,102.02354371879483 131.8812761506415,102.16953052819008 132.22018828458386,102.46150375812431 131.9801255229977,102.31551720792777 132.02248953975504,102.46150375812431 132.09309623437002,102.33173794214963 132.1637029288686,103.01300733347307 132.02248953975504,104.53774288666318 133.39225941424957,104.82971191170509 133.50523012556368,105.08923949877499 134.73378661094466,104.97569622984156 135.4398535565124,105.23522358651098 141.07426778244553,105.47853011143161 146.6380753138801,106.19222717446974 149.30700836819597,106.28954926127335 150.4932008368778,106.54907454446948 151.86297071131412,107.24654671369353 154.00941422587493,107.00324280455243 154.23535564856138,107.39252888633928 154.53190376568818,107.26276696148852 156.55125523015158,107.68449284293456 156.90428870293545,107.97645628120517 157.5397489540046,107.830474626855 157.7374476987752,107.23032646426873 158.3023012552294,107.00324280455243" stroke="#4dd2ff" stroke-linecap="round" stroke-linejoin="round" stroke-width="0.5"><title>2021-04-09 4.9km</title></polyline><polyline fill="none" points="187.95496894442476,106.44471134166815 179.48602484492585,103.98871357101598 178.52173913060687,103.0737308509415 172.56832298170775,103.55530091744731 168.25000000023283,103.1218878790387 169.04658385110088,103.60345789804705 168.6692546585109,103.79608577254112 161.5,102.15874641618575 167.45341614913195,103.94055662854225 176.00621118023992,104.66291026771069 187.87111801258288,107.84125358381425 186.2779503108468,107.21521790020051 188.5,106.92627808329416 187.913043478271,106.20392779266695" stroke="#4dd2ff" stroke-linecap="round" stroke-linejoin="round" stroke-width="0.5"><title>2021-04-09 1.4km</title></polyline><polyline fill="none" points="12.573863636469468,133.50223745114636 13.877840909175575,134.60354574551457 23.31250000023283,138.21581789135234 27.492897727293894,138.0396101717488 31.1363636367023,138.788492499938 37.8863636367023,138.0396101717488 38.5,137.29072658804944 35.7769886367023,136.5858938328456 32.51704545458779,137.2466745733982 29.142045454587787,135.96916425964446 26.342329545645043,136.18942491928465 21.586647727293894,133.76655168936122 20.973011363763362,132.6211888602993 18.25000000023283,131.56392825720832 16.178977272938937,131.2115075000911 11.5,132.3568739441107" stroke="#4dd2ff" stroke-linecap="round" stroke-linejoin="round" stroke-width="0.5"><title>2021-04-08 1.4km</title></polyline><polyline fill="none" points="68.32467532483861,136.12775079283165 68.5,137.05411077366443 66.22077922080643,137.0943872469943 60.189610389759764,135.0402820468007 51.07272727275267,134.597238393937 46.268831168767065,132.9056127530348 41.5,133.63059602869907 46.02337662340142,133.10699712540372 50.827272727387026,134.55696167447604 59.768831168999895,134.95972869111574" stroke="#4dd2ff" stroke-linecap="round" stroke-linejoin="round" stroke-width="0.5"><title>2021-04-06 1.3km</title></polyline><polyline fill="none" points="79.74550898186862,130.9457708785194 83.14071856276132,129.88541559164878 84.54191616759636,131.00814466172596 84.54191616759636,132.19324533944018 83.6257485030219,132.69223441329086 85.24251497001387,134.4386929749744 86.91317365248688,134.62581324036 89.06886227522045,133.62783783260966 91.49401197605766,130.57152804534417 93.64970059879124,131.38238722848473 95.42814371269196,130.32203269645106 98.44610778428614,130.6962756817229 98.44610778428614,126.89146135671763 98.12275449116714,129.19930237036897 96.34431137726642,128.88743247062666 98.5,129.26167633139994 98.39221556880511,130.88339708879357 93.7574850297533,131.32001348305494 91.49401197605766,130.50915421778336 87.82934131729417,135.12480033526663 88.69161676662043,134.37631954066455 84.64970059879124,134.31394609995186 83.84131736494601,132.94172879809048 85.02694610785693,132.94172879809048 84.91916167666204,132.3179926458979 83.51796407182701,129.82304169406416 82.92514970037155,130.6962756817229 81.73952095792629,130.57152804534417 80.23053892189637,133.8149583453196 75.2185628740117,136.43463952775346 73.60179640701972,139.42854717787122 73.38622754462995,137.1207446550252 72.95508982008323,140.0522760989843 72.57784431125037,138.6800716354628 72.95508982008323,139.61566592089366 72.6317365267314,138.8048176226439 74.84131736517884,139.9275303655304 76.61976047884673,142.609558043594 78.93712574825622,142.422440214199 79.58383233519271,141.11261380888755 78.18263473035768,140.48888596630422 79.4221556885168,140.48888596630422 78.82934131729417,141.23735930153634 78.29041916131973,140.73837717954302 78.93712574825622,141.48685021017445 79.09880239493214,140.8631227480946 79.36826347303577,142.29769496276276 78.45209580799565,143.10853864328237 75.4880239518825,142.85904839425348 72.73952095769346,139.61566592089366 73.22455089795403,136.80887878325302 73.54790419130586,139.05430952075403 71.5,140.23939465155127 72.09281437122263,139.2414283779217 71.71556886192411,140.48888596630422 73.22455089795403,139.42854717787122 73.4401197603438,136.68413239018992" stroke="#4dd2ff" stroke-linecap="round" stroke-linejoin="round" stroke-width="0.5"><title>2021-04-05 1.9km</title></polyline><polyline fill="none" points="122.73379468498752,142.10341087402776 121.67500136501621,142.6364659423416 122.0893117946107,141.9967997299682 122.82586366939358,141.9967997299682 122.98698439181317,141.5437018830562 122.15836353285704,146.47443036714685 120.38603558414616,147.75373932847288 120.29396659974009,148.5 120.22491486161016,147.75373932847288 122.22741527110338,146.5543873605202 122.89491540763993,143.9424462687748 123.35526032932103,139.78460868593538 122.20439802494366,138.95836385842995 119.71853544760961,138.50526074811933 118.24543169816025,139.65134356773342 115.16112072265241,140.53089209322934 109.54491267749108,143.91579367421218 108.53215384972282,142.2899802714819 107.35827429941855,142.79638225099188 106.80586039333139,142.58316048438428 103.58344594121445,128.7500269431912 103.39930797251873,126.21787125550327 105.0335324446205,133.6276893276954 105.53991185850464,133.84091839494067 111.45534410269465,131.1488886642328 116.01275882776827,129.6829202270601 118.86689734249376,128.08367256019847 122.8718981614802,124.85849335137755 125.24267450836487,121.5 126.60069202748127,122.19302596943453 126.43957130482886,122.40626435974264 125.88715739874169,122.2196807777218 126.2093988439301,121.95313257249654 126.2093988439301,122.37960957048927 126.3475023205392,121.65992923290469 125.56491595355328,121.89982289876207" stroke="#4dd2ff" stroke-linecap="round" stroke-linejoin="round" stroke-width="0.5"><title>2021-04-05 3.7km</title></polyline><polyline fill="none" points="138.31308411201462,125.2103965000133 142.60280373785645,128.61973999917973 146.13551401905715,138.45806303771678 146.2196261677891,143.42589063744526 148.15420560725033,143.03625803388422 150.08878504671156,144.7896034999867 154.46261682221666,141.57513435458532 158.5,142.64662527100882 150.25700934557244,140.69845907430863 150.25700934557244,143.91293116903398 150.67757009342313,139.432148916414 150.5093457940966,144.10774731216952 150.76168224262074,142.54921705560992 147.39719626121223,143.23107435565908 149.66822429932654,141.76995097420877 150.845794392284,143.91293116903398 148.7429906539619,142.54921705560992 150.25700934557244,142.15958409424638 149.9205607478507,144.01033924537478 150.845794392284,144.01033924537478 149.75233644852415,142.06217582896352 151.68691588751972,144.4973794791731 149.75233644852415,142.7440334765124 149.9205607478507,141.1855009960709 151.35046728979796,143.42589063744526 150.0046728970483,141.2829093504115 147.7336448598653,141.1855009960709 146.72429906530306,143.71811498625902 146.9766355138272,142.4518088303157 142.68691588798538,139.23733182030264 144.3691588784568,133.0031637659995 142.68691588798538,133.6850278780912 142.77102803764865,131.15238729520934 137.80841121450067,128.4249206984532 131.5,129.00937848177273 135.03271028026938,130.2757024524617 136.2102803736925,133.58761874877382" stroke="#4dd2ff" stroke-linecap="round" stroke-linejoin="round" stroke-width="0.5"><title>2021-04-04 1.4km</title></polyline><polyline fill="none" points="178.16759776556864,122.9137280768482 169.79608938563615,126.72593444224913 161.7262569833547,136.08309806726174 169.34357541939244,144.48713224026142 173.79329608939588,139.46204931195825 178.9972067042254,137.29605642065872 179.14804469328374,134.43693762167823 183.97486033523455,130.88468614366138 176.88547486020252,121.87403255852405 170.92737430194393,125.85952535836259 161.5,136.60293756675674 169.1927374303341,143.5341014813166 173.71787709509954,138.24909395119175 181.1089385477826,137.03613691445207 183.29608938563615,135.38997825584374 184.42737430194393,131.05796703702072 184.1256983242929,130.27820274728583 183.2206703913398,132.01101133896736 180.58100558677688,133.31061553861946 180.50558659248054,132.5308532496565 188.5,127.24577948241495 185.5586592182517,125.68624343891861 182.4664804469794,121.87403255852405 180.73184357536957,124.73319227073807 175.45251396670938,122.48052176041529 165.04469273751602,131.8377306337352 161.80167597765103,136.42965776781784 169.34357541939244,143.5341014813166 173.79329608939588,138.85557184100617 174.47206703945994,139.3754096989869 172.58659217879176,141.97459437139332 182.91899441368878,144.14057572046295 186.2374301678501,148.12596744153416 179.22346368711442,135.3033382408903 179.97765363147482,132.9640546067385 183.67318435804918,129.84500006528106 179.60055865952745,127.33242029225221 177.3379888269119,123.00036931439536 175.7541899443604,122.39388047158718 174.39664804469794,123.34693417925155 175.075418994762,123.95342236361466" stroke="#4dd2ff" stroke-linecap="round" stroke-linejoin="round" stroke-width="0.5"><title>2021-04-02 3.1km</title></polyline><polyline fill="none" points="28.063829787191935,175.4343305611983 24.90425531915389,174.3345724202518 18.944148936192505,174.22459636750864 12.481382978730835,173.37228048761608 11.93085106392391,172.8498920472921 11.5,170.23793516049045 12.122340425499715,169.74303530808538 13.414893617038615,169.68804638125584 12.24202127661556,166.03125840533176 12.52925531915389,161.08214564228547 14.324468085193075,158.52506961475592 15.0425531915389,156.7928434922942 18.46542553184554,154.4281999762752 19.853723404346965,155.94047430498176 21.14627659576945,156.21543239211314 21.81648936169222,157.01280931095243 24.64095744676888,157.01280931095243 28.997340425499715,157.70020137538086 31.10372340423055,158.80002515210072 34.598404255346395,161.90700387241668 37.90159574453719,167.62595379757113 37.997340425499715,168.36830888519762 37.23138297861442,169.028178414359 36.92021276592277,170.07296864059754 37.59042553184554,170.0454742111324 38.5,172.38249103396083 37.90159574453719,173.6197273019061 35.81914893607609,174.00464413187 35.316489361575805,174.63700634156703 34.14361702115275,174.05963220700505 33.64095744676888,174.27958439930808 32.396276595653035,173.89466794897453 31.79787234030664,175.5718000237248 31.60638297861442,175.37934275722364" stroke="#4dd2ff" stroke-linecap="round" stroke-linejoin="round" stroke-width="0.5"><title>2021-04-02 3.2km</title></polyline><polyline fill="none" points="44.32891246699728,162.71723626583116 53.46021220157854,166.78919727093307 58.40185676398687,166.74806655038265 61.409814323531464,167.44728824673803 65.45623342180625,166.4601513936359 68.5,166.50128214235883 61.62466843496077,167.40615759126376 58.616710875416175,166.7069358259323 53.74668435007334,166.953720112273 47.444297082256526,165.14396528797806 41.5,162.55271175326197" stroke="#4dd2ff" stroke-linecap="round" stroke-linejoin="round" stroke-width="0.5"><title>2021-04-01 1.4km</title></polyline><polyline fill="none" points="71.5,161.59926042420557 74.54909983626567,164.6954673033033 78.12847790494561,165.45682679719175 82.32651391159743,167.63938443706138 88.07119476282969,167.5378703335009 91.25286415708251,168.40073957582354 98.5,167.5378703335009 93.418166939402,168.29922562243883 87.27577741397545,167.3855991406017 81.79623567918316,167.63938443706138 73.57692307676189,165.40606953256065 72.73731587571092,164.94925392634468 73.7094926352147,164.5431952692743" stroke="#4dd2ff" stroke-linecap="round" stroke-linejoin="round" stroke-width="0.5"><title>2021-03-29 1.2km</title></polyline><polyline fill="none" points="114.50763466744684,178.5 113.24936770671047,171.4047617338947 112.37405155971646,171.15360141260317 108.10688534518704,165.00014268804807 105.26210786867887,164.74897984799463 114.12468385323882,151.5 117.07887584809214,153.32096613023896 122.87784531945363,159.22337237704778 122.27606546878815,163.43037331756204 124.7378921310883,177.8721059873933 116.91475407057442,172.6605618582107 114.06997659383342,172.09545210778015 113.79644029820338,173.28846099448856" stroke="#4dd2ff" stroke-linecap="round" stroke-linejoin="round" stroke-width="0.5"><title>2021-03-28 1.4km</title></polyline><polyline fill="none" points="144.66769230784848,160.10942592195352 146.20461538457312,161.01598240912426 146.57846153830178,160.25256653287215 148.07384615391493,160.157139463583 148.40615384629928,159.3937222318491 148.8630769229494,159.91857170814183 149.56923076929525,159.3937222318491 151.77076923055574,160.63427462166874 153.05846153851599,159.68000383497565 156.8384615383111,160.82512855296955 156.58923076931387,159.87085814285092 158.37538461526856,160.0617123756092 157.046153845964,159.58457665276364 157.37846153834835,158.8211585173267 157.46153846150264,159.87085814285092 157.25384615384974,159.3937222318491 156.79692307696678,160.01399882443366 156.87999999988824,159.2505813666503 157.46153846150264,160.0617123756092 156.8384615383111,159.87085814285092 158.0846153846942,159.72771741898032 158.0846153846942,160.20485300049768 157.5446153844241,159.5368630544981 156.67230769223534,160.01399882443366 158.4169230768457,159.72771741898032 157.87692307680845,159.29829499311745 157.7107692307327,160.7297015967779 156.96307692304254,160.10942592195352 156.87999999988824,160.63427462166874 157.9184615383856,159.9662852686888 157.46153846150264,160.01399882443366 158.5,161.30226305214455 158.37538461526856,159.91857170814183 157.75230769230984,160.01399882443366 158.0846153846942,160.68198811152251 157.17076923092827,160.96826895224513 157.046153845964,160.4434206149308 156.54769230773672,161.1591227517929 154.80307692289352,160.92055549059296 154.80307692289352,159.9662852686888 155.21846153843217,168.1729476553155 150.5246153846383,169.22262698729173 146.70307692303322,167.98209662307636 146.99384615384042,168.602362202917 145.83076923084445,167.98209662307636 139.1015384614002,167.64810713526094 135.7369230769109,168.65007490682183 135.4461538461037,170.36772911532898 134.65692307706922,170.9879916361242 131.95692307688296,171.1788414827024 131.5,170.4154416451056" stroke="#4dd2ff" stroke-linecap="round" stroke-linejoin="round" stroke-width="0.5"><title>2021-03-26 1.5km</title></polyline><polyline fill="none" points="164.35365853691474,163.28908159493585 172.9146341466112,166.78296138744918 175.92508710816037,166.56684608149226 178.5592334496323,167.14315327999066 182.3536585366819,166.38674989546416 183.8588850174565,166.56684608149226 188.5,164.90995782002574 184.39198606286664,166.56684608149226 179.09233449492604,166.99907656561118 176.30139372847043,166.42276913978276 173.19686411181465,166.67490375047782 166.51742160285357,165.0540353585675 161.5,162.85684672000934" stroke="#4dd2ff" stroke-linecap="round" stroke-linejoin="round" stroke-width="0.5"><title>2021-03-26 1.6km</title></polyline><polyline fill="none" points="38.5,197.39574562490452 36.43718166393228,197.13247799157398 33.36587436310947,195.18429346877383 30.752971137408167,195.23694719810737 26.994057724950835,193.76264081668342 17.825976230669767,194.0259101120173 19.201188454870135,194.71040967211593 18.651103565236554,194.8683709843317 11.5,192.60425437503727 17.275891341036186,194.81571721867658 25.481324278283864,195.34225464100018 32.494906621286646,197.02717090176884" stroke="#4dd2ff" stroke-linecap="round" stroke-linejoin="round" stroke-width="0.5"><title>2021-03-24 1.1km</title></polyline><polyline fill="none" points="68.5,196.98045260098297 66.55570652172901,196.85404130007373 64.64809782616794,195.42137727636145 61.603260869625956,194.91573000318022 59.10869565233588,193.77802145073656 51.478260869625956,193.94657105699298 52.138586956774816,194.6629061421845 46.158967391587794,193.01954739898792 41.5,193.60947177780326 43.334239130374044,193.8622962621157 46.30570652172901,193.06168488171534 51.8084239133168,194.74718077926082 61.82336956541985,195.16855371458223" stroke="#4dd2ff" stroke-linecap="round" stroke-linejoin="round" stroke-width="0.5"><title>2021-03-23 1.3km</title></polyline><polyline fill="none" points="97.96143617015332,196.34032829705393 88.87765957438387,193.16479310847353 85.17952127661556,193.78340575075708 81.51728723407723,193.37099742420833 82.52260638284497,194.0308505515568 82.12765957438387,194.15457289706683 76.34707446792163,192.42245672934223 71.5,193.12355223300983 75.98803191492334,192.50493861435098 81.40957446815446,194.0720913373807 88.59042553184554,194.56698045079247 98.5,197.57754327062867 96.88430851045996,196.7939742123708 98.5,196.34032829705393" stroke="#4dd2ff" stroke-linecap="round" stroke-linejoin="round" stroke-width="0.5"><title>2021-03-22 1.6km</title></polyline><polyline fill="none" points="124.49234889051877,181.66696286508522 124.86419280793052,181.92771207584883 124.65761285379995,182.75736678148678 126.53749043610878,183.0418191668141 127.0332823258359,183.4447928055597 126.86801836267114,184.17962535582774 127.61170619726181,184.6774138768087 128.5,186.21818136313232 127.96289211930707,187.64041954364802 127.17788829375058,187.97227391318302 126.88867635803763,188.8256116255361 123.06694720732048,192.1441184944124 118.85271614382509,193.77965152416436 117.53060443745926,194.63296870570048 116.51836266263854,195.4862828705518 113.56426931906026,199.56318669089524 101.5,208.33303713492933" stroke="#4dd2ff" stroke-linecap="round" stroke-linejoin="round" stroke-width="0.5"><title>2021-03-21 1.3km</title></polyline><polyline fill="none" points="143.7393090579426,192.65431547551998 143.39659695723094,190.4628218654252 141.0465711238794,187.5408042424533 140.09187312901486,187.2598394350207 136.86058760806918,190.20995613664854 133.6537815228803,194.28387675297563 132.845960142673,194.5086430964584 131.96470045519527,196.89677457942162 133.4579460368259,199.032028183894 137.00746422261,200.7177434452169 140.85073563770857,203.83629046773422 140.63042071578093,204.00485960778315 141.1444888669066,203.94866990548326 140.67937958752736,203.69581610852038 141.26688604569063,204.67913517341367 142.56429614126682,206.22434401192004 147.48466273001395,208.5 150.03052404953633,208.24715022931923 156.0279858118156,204.06104929899448 156.83580719213933,202.37535375673906 158.0352995446883,196.98106120841112 156.83580719213933,194.90198377234628 152.35607044724748,190.77187967445934 147.50914216588717,184.67495024375967 143.9106651082402,181.5 139.87155820708722,187.11935692763655 140.60594128014054,187.20364644034998 141.60959814640228,188.13082943920745 143.56795300764497,190.63139889360173 143.54347357188817,191.41809037700295" stroke="#4dd2ff" stroke-linecap="round" stroke-linejoin="round" stroke-width="0.5"><title>2021-03-20 3.7km</title></polyline><polyline fill="none" points="185.83990147779696,201.79852100237622 176.61822660081089,198.8448868917476 166.86453201971017,198.53933757098275 161.63300492614508,197.4189885148371 161.5,195.58568481527618 162.25369458133355,194.7708810813201 161.5443349755369,193.395896864502 161.72167487675324,191.00239708510344 164.51477832510136,188.20147899762378 169.1256157637108,188.76166383081 173.8251231526956,190.34036327208742 182.69211822655052,190.1366603898059 187.43596059107222,189.37277386462665 188.01231527072378,188.7107379619556 187.16995073878206,190.6459174452175 186.6379310344346,197.21528842530097 187.0812807881739,200.57632962657954 188.5,200.83095306847827" stroke="#4dd2ff" stroke-linecap="round" stroke-linejoin="round" stroke-width="0.5"><title>2021-03-19 1.6km</title></polyline><polyline fill="none" points="22.441995359724388,224.7241834859742 28.30974477971904,227.2426167684025 30.585846867994405,227.09870699765452 32.56960556854028,227.53043605438143 34.65777262195479,227.07472202762438 35.76450116012711,227.1706618936878 38.5,226.3551718256931 33.425754060503095,227.50645112684288 30.815545243793167,227.09870699765452 27.89211136905942,227.21863181254594 16.219257540651597,223.50093505275436 11.5,222.9972427329194 12.523201856180094,223.14115493069403 11.834106728550978,222.85333044989966 12.042923433938995,222.73340348235797 13.629930394468829,222.8293450611527 15.738979118410498,222.46956394561857 16.448955916566774,222.9972427329194 16.866589327226393,222.73340348235797 17.367749419994652,223.21311099771992 17.80626450118143,223.0691988425242 18.370069605647586,223.54890569548297 19.080046403803863,223.2850670433836 20.541763341170736,224.3404199340148 20.834106728550978,223.98064105407684 20.082366589456797,222.85333044989966 19.79002320196014,222.87731583633285 19.89443155459594,223.69281756679993 21.251740139210597,224.36440517377923 21.815545243793167,223.02122810516448 22.128770301816985,223.66883226085338 22.54640371236019,223.59687632865098 22.10788863117341,223.71680287044728 22.358468677615747,223.6448469524621 21.75290023209527,222.8053596700338 22.650812065112405,222.73340348235797" stroke="#4dd2ff" stroke-linecap="round" stroke-linejoin="round" stroke-width="0.5"><title>2021-03-19 3.1km</title></polyline><polyline fill="none" points="52.861859621538315,238.5 52.71021845994983,238.02971275118762 52.42210025299573,237.9774585351406 51.9975050004432,238.3780737964844 52.513084949867334,235.43440133267723 52.31595143978484,236.1485512315412 52.406936136772856,237.45491552402382 52.11881792976055,237.68135101867665 50.481093384558335,237.6465148076095 50.28395987441763,236.60142528064898 50.42043691989966,235.67825772045762 54.393435353646055,234.7899221154221 57.062319797696546,234.61573813950235 56.97133510076674,217.77133590234735 57.86601795419119,216.62160766593297 59.716040125640575,214.98410300788237 59.382429570076056,214.14792455772113 57.12297626235522,211.5" stroke="#4dd2ff" stroke-linecap="round" stroke-linejoin="round" stroke-width="0.5"><title>2021-03-18 2.7km</title></polyline><polyline fill="none" points="80.65707811439643,236.27201083266118 81.41298898454988,236.40306984627387 81.52708873845404,237.04198105671094 81.81233812338905,237.20580404812063 83.35268480202649,237.51706728668069 85.34943049651338,237.33686232486798 86.73289001343073,237.73003653480555 88.0165122456383,238.5 88.34454903821461,237.46792049828218 88.1591369381058,233.0937980911549 89.34292188554537,232.97911917501187 87.64568804518785,232.50401996453002 86.00550408184063,232.42210617019737 85.27811815030873,231.6357316889771 83.83760875638109,216.74306192847143 85.40648037352366,214.90800908749225 86.51895297470037,214.2690127123351 85.72025469696382,212.84355039751972 84.35105764924083,211.5" stroke="#4dd2ff" stroke-linecap="round" stroke-linejoin="round" stroke-width="0.5"><title>2021-03-17 2.8km</title></polyline><polyline fill="none" points="102.40957446815446,223.5428993329988 102.74468085099943,223.5428993329988 104.42021276592277,224.25771734368755 104.89893617015332,224.86256263690302 109.87765957438387,226.23720859031891 115.14361702115275,226.95202314679045 116.9148936169222,226.8420517363702 118.15957446815446,227.11698022211203 118.78191489353776,227.33692291303305 121.27127659553662,227.72182241349947 123.32978723407723,228.5466061629122 124.0,228.7115627663443 125.14893617038615,229.31640322814928 126.10638297884725,229.9212430336629 126.48936170223169,230.03121383691905 126.92021276592277,230.2511553784134 127.97340425522998,230.5260821832344 128.5,230.4710968331783 128.45212765969336,230.4710968331783 128.45212765969336,230.4710968331783 128.3085106385406,230.5260821832344 128.4042553191539,230.4710968331783 128.45212765969336,230.4710968331783 128.5,230.5260821832344 128.21276595722884,230.4710968331783 127.59042553184554,230.4710968331783 125.48404255299829,230.5260821832344 124.04787234053947,230.08619923051447 122.65957446815446,229.81127220881172 121.27127659553662,229.70130136219086 119.88297872338444,229.75628678809153 119.16489361715503,229.81127220881172 117.77659574477002,229.9212430336629 117.15425531892106,229.9212430336629 115.0,229.75628678809153 114.32978723407723,229.59133049368393 113.0372340423055,229.26141775865108 112.36702127661556,228.93150482838973 111.07446808507666,228.4916206173948 110.40425531915389,228.27167838194873 107.67553191492334,227.72182241349947 105.90425531915389,227.00700884399703 105.76063829776831,226.6770945797325 106.33510638284497,226.5671231148881 106.57446808507666,226.5671231148881 106.76595744676888,226.34718012035592 106.57446808507666,226.29219435801497 106.09574468061328,226.18222281726776 105.85638297861442,226.1272370388615 105.71276595746167,226.0722512549255 105.42553191492334,226.0722512549255 105.23404255323112,225.96227967075538 104.99468085099943,225.96227967075538 104.75531914876774,225.96227967075538 104.42021276592277,225.8523080649902 104.18085106369108,225.7423364375718 104.03723404253833,225.6873506156844 103.55851063830778,225.4124214250478 103.4148936169222,225.30244971072534 103.17553191492334,225.1374920986127 103.03191489353776,225.02752033027355 102.88829787238501,224.86256263690302 102.69680851045996,224.64261896983953 102.36170212761499,224.3676892640069 102.07446808507666,224.20273137534969 101.93085106369108,224.09275942249224 101.69148936169222,223.81782944552833 101.59574468061328,223.32295514538419 101.59574468061328,222.88306650985032 101.54787234053947,222.6081359362579 101.5,222.38819137983955 101.64361702115275,221.94830200687284 101.59574468061328,221.34345355216647 101.59574468061328,221.06852221954614 101.54787234053947,220.90356335480465 101.64361702115275,220.73860444140155 101.59574468061328,220.68361812614603 101.64361702115275,220.29871376691153 101.69148936169222,220.02378191897878 101.93085106369108,219.96879553317558 102.40957446815446,219.80383634311147 102.64893617015332,219.69386352261063 102.79255319130607,219.63887710432755 103.07978723407723,219.52890425140504 103.12765957438387,219.52890425140504 103.12765957438387,219.4739178167074 103.17553191492334,219.4739178167074" stroke="#4dd2ff" stroke-linecap="round" stroke-linejoin="round" stroke-width="0.5"><title>2021-03-02 1.4km</title></polyline><polyline fill="none" points="136.46046511642635,225.39670685463352 136.77441860502586,225.54094889492262 140.2279069768265,226.1900377253187 142.42558139562607,226.98336773522897 143.2418604651466,227.3439720008755 145.43953488394618,227.92093845579075 146.2558139534667,227.92093845579075 148.57906976761296,227.77669688494643 149.332558139693,227.56033447483787 151.6558139536064,227.41609283257276 153.10000000009313,227.92093845579075 153.85348837217316,228.20942151272902 155.17209302354604,228.71426658827113 156.42790697677992,228.93062865681713 157.99767441884615,228.78638728504302 158.24883720930666,228.64214588463074 158.5,228.78638728504302 158.4372093025595,229.79607629112434 157.30697674443945,230.08455860830145 156.3651162791066,230.8778843934997 155.9255813951604,231.02212535316357 155.4860465116799,231.16636628413107 155.23488372098655,231.16636628413107 154.85813953494653,231.2384867388173 154.60697674448602,231.38272762706038 153.7279069768265,231.74332972348202 153.85348837217316,232.10393164196284 154.2930232558865,232.39241304877214 154.2930232558865,232.4645333828521 154.2930232558865,232.53665370953968 154.35581395355985,232.4645333828521 154.04186046519317,232.39241304877214 153.66511627915315,232.53665370953968 153.5395348840393,232.60877402912593 153.41395348822698,232.68089434184367 153.35116279078647,232.75301464722725 153.35116279078647,232.75301464722725 153.10000000009313,232.39241304877214 152.97441860474646,232.24817235959927 152.78604651149362,232.03181127260905 152.72325581405312,231.8875705123064 152.0953488375526,231.74332972348202 151.84418604662642,231.74332972348202 151.53023255825974,231.74332972348202 151.2162790701259,231.67120931850513 150.83953488408588,231.67120931850513 150.52558139548637,231.67120931850513 149.897674418753,231.52696848718915 149.5837209301535,231.45484806067543 149.2697674422525,231.38272762706038 148.95581395342015,231.3106071865186 148.32790697691962,231.16636628413107 148.07674418599345,231.02212535316357 147.7627906978596,230.9500048768823 147.44883720949292,230.80576390313217 147.1348837208934,230.6615229010349 146.8837209304329,230.44516134465812 146.31860465137288,230.15667916968232 145.75348837208003,229.86819688096875 145.31395348883234,229.43547323450912 145.0,229.2912319623283 144.68604651163332,229.14699066145113 144.37209302349947,229.0027493322268 144.05813953466713,228.85850797448074 143.8697674421128,228.78638728504302 143.3674418607261,228.57002517359797 143.11627907003276,228.4979044556967 142.8651162791066,228.42578373057768 142.61395348841324,228.28154225915205 142.3000000002794,228.20942151272902 141.9860465116799,228.13730075926287 141.2953488372732,228.06517999846255 141.04418604681268,227.99305923079373 140.73023255821317,227.92093845579075 140.35348837217316,227.92093845579075 140.10232558147982,227.84881767391926 139.47441860474646,227.77669688494643 139.16046511637978,227.63245528534753 138.59534883731976,227.19973031594418 137.9674418605864,226.98336773522897 137.71627906989306,226.9112468608073 137.40232558175921,226.8391259793425 137.02558139548637,226.76700509065995 136.77441860502586,226.69488419493428 136.46046511642635,226.55064238182968 135.89534883736633,226.2621586708119 135.58139534899965,226.1179167724913 135.33023255807348,225.97367484582355 134.70232558157295,225.6130699045607 134.51395348855294,225.46882787835784 134.26279069762677,225.32458582380787 133.69767441879958,224.96398056240287 133.44651162810624,224.7476173203322 133.13255813973956,224.3148906439892 132.6930232560262,223.81004253140418 131.93953488371335,223.23307283304166 131.93953488371335,223.01670907909283 131.8139534885995,222.65610267966986 131.68837209348567,222.36761743220268 131.5,221.43003959202906 131.68837209348567,221.06943241041154 131.75116279069334,220.7088250509696 131.8139534885995,220.42033903533593 131.87674418650568,220.20397444895934 131.87674418650568,219.84336666268064 131.87674418650568,218.9057855863357 131.87674418650568,218.25669029093115 132.56744186067954,217.96820330794435 133.06976744206622,217.67971621121978 133.5093023260124,217.53547262010397 133.82325581437908,217.46335081395227 133.94883720949292,217.31910718022846 134.82790697691962,217.24698535277275" stroke="#4dd2ff" stroke-linecap="round" stroke-linejoin="round" stroke-width="0.5"><title>2020-12-25 1.0km</title></polyline><polyline fill="none" points="161.90601503755897,221.8813230539672 162.2105263157282,222.17278965492733 162.46428571431898,222.46425611217273 163.02255639084615,222.814015671378 165.20488721807487,223.3969478099607 166.37218045117334,223.7467068171827 167.13345864671282,223.92158624331933 170.68609022558667,225.32061978871934 171.7011278194841,226.02013531984994 172.86842105258256,226.54477142472751 174.59398496244103,227.18599269870901 175.25375939835794,227.30257831001654 176.47180451150052,227.30257831001654 177.1823308269959,227.30257831001654 178.4003759396728,227.06940706435125 179.51691729342565,226.95282140676863 180.78571428591385,227.01111423841212 181.49624060164206,226.95282140676863 183.47556390985847,227.30257831001654 184.13533834577538,227.53574946388835 185.4041353382636,227.76892052585026 186.11466165445745,227.7106277688872 187.38345864671282,227.65233500633622 187.94172932347283,227.59404223808087 188.5,227.82721327705076 188.4492481201887,227.88550602231408 188.29699248145334,227.94379876181483 188.24624060164206,228.00209149578586 188.24624060164206,228.0603842238197 188.19548872183077,228.00209149578586 188.09398496244103,228.118676946091 188.09398496244103,228.00209149578586 188.14473684248514,228.0603842238197 188.19548872183077,228.118676946091 188.14473684248514,228.0603842238197 188.24624060164206,227.94379876181483 188.19548872183077,227.94379876181483 188.14473684248514,227.94379876181483 188.14473684248514,228.00209149578586 188.14473684248514,227.94379876181483 188.14473684248514,227.94379876181483 188.14473684248514,227.94379876181483 188.14473684248514,228.00209149578586 188.09398496244103,228.00209149578586 188.09398496244103,228.00209149578586 188.04323308262974,228.00209149578586 187.99248120328411,228.00209149578586 188.09398496244103,228.00209149578586 188.09398496244103,228.00209149578586 188.09398496244103,228.00209149578586 188.04323308262974,228.00209149578586 188.04323308262974,228.0603842238197 187.94172932347283,228.00209149578586 186.77443609037437,228.00209149578586 185.45488721807487,228.00209149578586 184.13533834577538,227.7106277688872 183.52631578966975,227.53574946388835 182.25751879694872,227.18599269870901 181.5977443610318,227.06940706435125 180.22744360892102,227.06940706435125 179.5676691730041,227.01111423841212 178.19736842112616,227.127699884295 176.77631578943692,227.30257831001654 176.11654135352,227.30257831001654 174.74624060164206,227.24428550724406 174.03571428568102,227.06940706435125 170.83834586455487,226.02013531984994 170.17857142863795,225.78696356801083 168.3007518798113,225.32061978871934 167.79323308262974,225.26232679048553 165.76315789483488,224.91256868001074 164.59586466150358,224.38793112634448 163.93609022558667,224.0381724986364 162.66729323309846,223.3386546219699 161.5,222.93060214509023" stroke="#4dd2ff" stroke-linecap="round" stroke-linejoin="round" stroke-width="0.5"><title>2020-12-08 1.1km</title></polyline><polyline fill="none" points="11.5,252.21688039737637 11.759615384740755,252.26657923389575 13.490384615492076,253.6084459623671 14.052884615492076,253.80724072939483 16.259615384740755,254.45332318075816 17.298076923238114,254.75151480198838 17.817307692486793,254.95030911802314 19.028846153989434,255.39759604274877 20.110576923238114,255.94427952257684 20.673076923238114,256.29216870098026 23.442307692253962,257.2364381174557 24.048076923470944,257.2861364587152 25.778846153989434,257.0873430640495 26.298076923238114,257.0376447030285 29.024038461735472,257.0873430640495 29.58653846150264,257.13704142006463 31.274038461735472,257.6340247109474 33.00480769248679,257.7831196025945 33.52403846173547,257.73342131017125 34.6490384619683,257.7831196025945 36.37980769225396,257.53462809184566 36.89903846173547,257.4849297750625 37.98076923098415,257.3855331266823 38.5,257.33583479523077 38.283653846243396,256.9382479664928 37.072115384740755,256.88854959077435 36.552884615492076,256.9382479664928 35.47115384647623,257.2364381174557 35.08173076948151,257.33583479523077 33.95673076948151,257.5843264038558 33.4375,257.6340247109474 32.35576923098415,257.6340247109474 31.79326923098415,257.53462809184566 30.71153846150264,257.33583479523077 30.192307692719623,257.1867397711321 28.504807692486793,256.88854959077435 27.942307692486793,256.88854959077435 26.817307692486793,256.9382479664928 26.21153846150264,256.9382479664928 25.086538461735472,257.0376447030285 23.961538461735472,257.0873430640495 22.879807692486793,257.0376447030285 21.841346153989434,256.78915282484377 21.322115384740755,256.64005763921887 20.197115384973586,256.29216870098026 19.677884615492076,256.09337491414044 18.639423076994717,255.74548559851246 17.254807692253962,255.34789751510834 16.865384615492076,255.29819898269488 15.826923076994717,255.04970624673297 14.399038461735472,254.6024190133612 14.009615384740755,254.3042273040046 13.100961538497359,253.80724072939483 12.62500000023283,253.55874725829926" stroke="#4dd2ff" stroke-linecap="round" stroke-linejoin="round" stroke-width="0.5"><title>2020-12-03 1.3km</title></polyline><polyline fill="none" points="68.21478873235174,255.7097914389451 68.45246478868648,256.5833735263441 68.5,256.85636764595984 67.69190140860155,257.3477567220689 66.31338028167374,257.29315795737784 64.41197183099575,256.96556525613414 62.605633802711964,256.2011815327569 61.98767605633475,256.09198377176654 58.47007042262703,254.72700994316256 57.186619718326256,254.50861381803406 55.23767605633475,254.56321285746526 53.90669014072046,254.50861381803406 52.95598591561429,254.50861381803406 52.38556338031776,254.50861381803406 51.102112676016986,254.3994157234556 50.674295774661005,254.3448166680755 49.200704225338995,254.23561854078434 48.630281690042466,254.18101946933893 46.633802816970274,254.0172222222318 46.01584507036023,253.90802403050475 44.7799295776058,253.79882581724087 43.16373239457607,253.08903690631269 42.54577464796603,252.870640135312 41.5,252.65224327798933 42.688380281673744,252.92523933615303 43.73415492963977,253.41663190134568 44.7799295776058,253.90802403050475 45.397887323983014,253.9626231289585 46.966549295932055,254.12642039224738 47.44190140836872,254.18101946933893 48.67781690158881,254.29021760710748 49.2957746477332,254.3448166680755 50.5792253522668,254.3448166680755 51.14964788756333,254.3994157234556 52.43309859163128,254.50861381803406 53.00352112669498,254.50861381803406 54.76232394366525,254.56321285746526 55.33274647896178,254.56321285746526 56.188380281673744,254.4540147734224 56.47359154932201,254.4540147734224 56.66373239434324,254.4540147734224 56.853873239364475,254.4540147734224 57.04401408438571,254.4540147734224 57.28169014095329,254.3994157234556 57.519366197055206,254.3994157234556 57.9947183097247,254.4540147734224 58.18485915497877,254.4540147734224 58.61267605656758,254.61781189130852 59.04049295769073,254.83620797318872 58.992957746610045,254.94540598179447 58.992957746610045,255.00000497797737 58.9454225350637,255.00000497797737" stroke="#4dd2ff" stroke-linecap="round" stroke-linejoin="round" stroke-width="0.5"><title>2020-11-30 1.0km</title></polyline></svg>