<?xml version="1.0" encoding="utf-8" ?>
<svg baseProfile="full" height="300mm" version="1.1" viewBox="0,0,200,300" width="200mm" xmlns="http://www.w3.org/2000/svg" xmlns:ev="http://www.w3.org/2001/xml-events" xmlns:xlink="http://www.w3.org/1999/xlink"><defs /><rect fill="#222222" height="300" width="200" x="0" y="0" /><text fill="#FFFFFF" style="font-size:12px; font-family:Arial; font-weight:bold;" x="10" y="20">Over 3km Runs</text><text fill="#FFFFFF" style="font-size:4px; font-family:Arial" x="10" y="280">ATHLETE</text><text fill="#FFFFFF" style="font-size:9px; font-family:Arial" x="10" y="290">jdzj</text><text fill="#FFFFFF" style="font-size:4px; font-family:Arial" x="120" y="280">STATISTICS</text><text fill="#FFFFFF" style="font-size:3px; font-family:Arial" x="120" y="285">Number: 17</text><text fill="#FFFFFF" style="font-size:3px; font-family:Arial" x="120" y="290">Weekly: 2.8</text><text fill="#FFFFFF" style="font-size:3px; font-family:Arial" x="141" y="285">Total: 29.6 km</text><text fill="#FFFFFF" style="font-size:3px; font-family:Arial" x="141" y="290">Avg: 1.7 km</text><text fill="#FFFFFF" style="font-size:3px; font-family:Arial" x="167" y="285">Min: 1.0 km</text><text fill="#FFFFFF" style="font-size:3px; font-family:Arial" x="167" y="290">Max: 3.7 km</text><polyline fill="none" points="31.7614520015195,72.75 29.874051560182124,62.10714260087116 28.561077340040356,61.73040211893385 22.160328018013388,52.500214032130316 17.8931618030183,52.12346977205016 31.18702577985823,32.25 35.61831377213821,34.98144919535844 44.31676797941327,43.83505856554257 43.41409820318222,50.145559976343066 47.1068381969817,71.80815898114815 35.3721311064437,63.99084278731607 31.104964890982956,63.143178161699325 30.6946604475379,64.93269149173284" stroke="#4dd2ff" stroke-linecap="round" stroke-linejoin="round" stroke-width="0.5"><title>2021-03-28 1.4km</title></polyline><polyline fill="none" points="77.0015384615399,45.16413888288662 79.30692307674326,46.523973613628186 79.86769230756909,45.37884979927912 82.11076923087239,45.2357091953163 82.6092307693325,44.09058334771544 83.2946153844241,44.87785756215453 84.35384615394287,44.09058334771544 87.65615384606645,45.951411932474 89.58769230777398,44.520005752448924 95.25769230746664,46.23769282939611 94.88384615397081,44.80628721421817 97.56307692313567,45.092568563413806 95.56923076906241,44.37686497910181 96.06769230775535,43.23173777596094 96.19230769225396,44.80628721421817 95.88076923089102,44.09058334771544 95.19538461556658,45.02099823660683 95.31999999983236,43.87587204994634 96.19230769225396,45.092568563413806 95.25769230746664,44.80628721421817 97.12692307704128,44.591576128441375 97.12692307704128,45.30727950070286 96.31692307675257,44.30529458174715 95.00846153846942,45.02099823660683 97.62538461526856,44.591576128441375 96.81538461521268,43.94744248967618 96.56615384598263,46.09455239516683 95.4446153845638,45.16413888288662 95.31999999983236,45.951411932474 96.8776923075784,44.949427902989555 96.19230769225396,45.02099823660683 97.75,46.95339457812952 97.56307692313567,44.87785756215453 96.62846153858118,45.02099823660683 97.12692307704128,46.02298216725467 95.75615384639241,46.45240342832403 95.56923076906241,45.6651309223962 94.82153846160509,46.73868412763113 92.20461538457312,46.38083323586034 92.20461538457312,44.949427902989555 92.82769230753183,57.25942148291506 85.78692307695746,58.83394048089394 80.05461538466625,56.97314493457088 80.49076923076063,57.90354330436094 78.74615384615026,56.97314493457088 68.65230769221671,56.47216070286231 63.60538461548276,57.97511236020364 63.16923076915555,60.55159367294982 61.985384615371004,61.48198745417176 57.93538461532444,61.76826222403906 57.25,60.62316246761475" stroke="#4dd2ff" stroke-linecap="round" stroke-linejoin="round" stroke-width="0.5"><title>2021-03-26 1.5km</title></polyline><polyline fill="none" points="106.5304878053721,49.93362239241833 119.3719512198586,55.17444208118832 123.88763066218235,54.850269122223835 127.83885017433204,55.71472991997143 133.53048780513927,54.58012484322535 135.78832752630115,54.850269122223835 142.75,52.36493673006771 136.58797909435816,54.850269122223835 128.63850174238905,55.498614848416764 124.45209059258923,54.63415370968869 119.79529616772197,55.01235562574584 109.77613240433857,52.58105303783668 102.25,49.28527008002857" stroke="#4dd2ff" stroke-linecap="round" stroke-linejoin="round" stroke-width="0.5"><title>2021-03-26 1.6km</title></polyline><polyline fill="none" points="187.75,56.09361843741499 184.655772495782,55.69871698744828 180.0488115446642,52.77644020324806 176.12945670587942,52.85542079724837 170.49108658730984,50.643961225112434 156.73896434600465,51.03886516811326 158.80178268207237,52.0656145082321 157.97665534797125,52.302556476555765 147.25,48.90638156264322 155.91383701143786,52.22357582813129 168.2219864174258,53.01338196161669 178.74235993204638,55.54075635276968" stroke="#4dd2ff" stroke-linecap="round" stroke-linejoin="round" stroke-width="0.5"><title>2021-03-24 1.1km</title></polyline><polyline fill="none" points="52.75,104.22067890147446 49.833559782477096,104.0310619500815 46.97214673901908,101.88206591451308 42.4048913042061,101.12359500478487 38.66304347827099,99.41703217604663 27.217391304438934,99.66985658550402 28.20788043504581,100.74435921327677 19.23845108714886,98.27932109846734 12.25,99.1642076667049 15.001358695561066,99.54344439320266 19.458559782477096,98.34252732252935 27.712635869625956,100.87077116890578 42.73505434789695,101.50283057184424" stroke="#4dd2ff" stroke-linecap="round" stroke-linejoin="round" stroke-width="0.5"><title>2021-03-23 1.3km</title></polyline><polyline fill="none" points="96.94215425499715,103.26049244561 83.31648936145939,98.4971896627685 77.76928191469051,99.42510862619383 72.27593085099943,98.80649613635615 73.78390957415104,99.7962758273934 73.19148936145939,99.98185934562935 64.52061170176603,97.38368509407155 57.25,98.4353283495293 63.98204787215218,97.50740792159922 72.11436170199886,99.8581370061147 82.88563829776831,100.60047067626147 97.75,105.11631490598666 95.32646276568994,103.94096131855622 97.75,103.26049244561" stroke="#4dd2ff" stroke-linecap="round" stroke-linejoin="round" stroke-width="0.5"><title>2021-03-22 1.6km</title></polyline><polyline fill="none" points="136.73852333577815,81.25044429762056 137.29628921183757,81.6415681137587 136.98641928075813,82.88605017220834 139.80623565416317,83.31272875022842 140.54992348875385,83.917189208325 140.3020275438903,85.01943803371978 141.41755929589272,85.76612081518397 142.75,88.07727204466937 141.9443381788442,90.21062931543565 140.7668324407423,90.70841086975997 140.33301453711465,91.98841743828962 134.60042081098072,96.96617774158949 128.27907421567943,99.41947728622472 126.2959066563053,100.69945305853616 124.7775439938996,101.97942430581315 120.34640397853218,108.09478003630647 102.25,121.24955570237944" stroke="#4dd2ff" stroke-linecap="round" stroke-linejoin="round" stroke-width="0.5"><title>2021-03-21 1.3km</title></polyline><polyline fill="none" points="165.60896358732134,97.73147321326542 165.09489543619566,94.44423279812327 161.56985668628477,90.0612063636654 160.13780969381332,89.63975915251649 155.2908814123366,94.06493420494371 150.48067228472792,100.17581512941979 149.26894021430053,100.51296464467305 147.94705068296753,104.09516186913243 150.18691905541345,107.29804227585555 155.51119633438066,109.82661516778171 161.2761034569703,114.50443570161588 160.94563107402064,114.75728941164562 161.71673330082558,114.67300485819578 161.01906938152388,114.29372416279512 161.9003290690016,115.76870276010595 163.8464442123659,118.08651601785095 171.22699409537017,121.5 175.04578607459553,121.1207253439643 184.04197871801443,114.84157394847716 185.25371078867465,112.31303063509404 187.0529493172653,104.22159181258758 185.25371078867465,101.10297565849032 178.53410567133687,94.90781951168901 171.26371324900538,85.76242536562495 165.86599766276777,81.0 159.8073373110965,89.42903539142571 160.90891192061827,89.55546966052498 162.41439721989445,90.94624415878206 165.35192951164208,94.69709834040259 165.3152103582397,95.87713556550443" stroke="#4dd2ff" stroke-linecap="round" stroke-linejoin="round" stroke-width="0.5"><title>2021-03-20 3.7km</title></polyline><polyline fill="none" points="48.75985221681185,160.19778150354978 34.92733990121633,155.76733033760684 20.296798029681668,155.30900635645958 12.449507389217615,153.628482772212 12.25,150.87852722289972 13.380541872000322,149.65632162196562 12.316502463305369,147.59384529676754 12.582512315129861,144.0035956276115 16.772167487535626,139.80221849639202 23.688423645449802,140.64249574620044 30.737684729043394,143.01054490817478 44.03817733982578,142.70499058469431 51.15394088672474,141.55916079698363 52.01847290620208,140.56610694288975 50.75492610828951,143.46887616778258 49.95689655165188,153.3229326379951 50.621921182377264,158.36449443991296 52.75,158.74642960273195" stroke="#4dd2ff" stroke-linecap="round" stroke-linejoin="round" stroke-width="0.5"><title>2021-03-19 1.6km</title></polyline><polyline fill="none" points="73.66299303958658,149.58627522893948 82.46461716957856,153.36392515257467 85.8787703019334,153.14806049643084 88.85440835275222,153.79565408156486 91.98665893287398,153.1120830414293 93.64675174013246,153.25599284050986 97.75,152.03275773851783 90.13863109075464,153.7596766902425 86.22331786563154,153.14806049643084 81.83816705353092,153.3279477187898 64.3288863110356,147.75140257910243 57.25,146.99586409932817 58.78480278432835,147.21173239601194 57.751160092884675,146.77999567482038 58.06438515090849,146.60010522350785 60.444895591703244,146.74401759169996 63.60846867761575,146.20434591840603 64.67343387485016,146.99586409932817 65.29988399078138,146.60010522350785 66.05162412999198,147.31966649653623 66.70939675183035,147.10379826373537 67.55510440852959,147.82335854318808 68.620069605764,147.4276005650463 70.8126450116979,149.01062990099308 71.25116009288467,148.4709615810716 70.12354988406878,146.77999567482038 69.685034802882,146.81597375447745 69.8416473318357,148.0392263501708 71.8776102088159,149.0466077606252 72.72331786563154,147.03184215771034 73.19315545260906,148.0032483912364 73.81960556854028,147.89531449295464 73.16183294681832,148.07520430564182 73.53770301642362,147.96727042866405 72.6293503481429,146.70803950502886 73.9762180976104,146.60010522350785" stroke="#4dd2ff" stroke-linecap="round" stroke-linejoin="round" stroke-width="0.5"><title>2021-03-19 3.1km</title></polyline><polyline fill="none" points="119.29278943233658,170.25 119.06532768986654,169.54456912676687 118.63315037940629,169.46618780269637 117.996257500723,170.06711069471203 118.7696274247719,165.65160199900856 118.47392715967726,166.7228268473118 118.61040420515928,168.68237328602117 118.17822689458262,169.02202652799315 115.7216400768375,168.9697722114215 115.42593981162645,167.40213792095892 115.63065537984949,166.01738658067188 121.59015303046908,164.68488317311858 125.5934796964284,164.4236072092608 125.45700265117921,139.1570038535283 126.79902693128679,137.4324114988849 129.57406018837355,134.97615451182355 129.07364435505588,133.7218868365744 125.68446439353283,129.75" stroke="#4dd2ff" stroke-linecap="round" stroke-linejoin="round" stroke-width="0.5"><title>2021-03-18 2.7km</title></polyline><polyline fill="none" points="160.98561717162374,166.9080162490136 162.11948347685393,167.10460476942535 162.29063310776837,168.06297158508096 162.71850718511268,168.30870607218822 165.02902720309794,168.77560093002103 168.02414574485738,168.50529348730925 170.0993350201752,169.09505480223743 172.02476836845744,170.25 172.51682355743833,168.70188074742327 172.2387054071296,162.14069713673962 174.01438282837626,161.96867876253964 171.46853206784,161.2560299468023 169.00825612281915,161.13315925530333 167.9171772254631,159.95359753347293 165.75641313462984,137.61459289271443 168.1097205602564,134.86201363126747 169.77842946210876,133.90351906852447 168.58038204547483,131.76532559629413 166.52658647391945,129.75" stroke="#4dd2ff" stroke-linecap="round" stroke-linejoin="round" stroke-width="0.5"><title>2021-03-17 2.8km</title></polyline><polyline fill="none" points="13.61436170199886,196.5643489995855 14.11702127661556,196.5643489995855 16.6303191492334,197.63657601556042 17.34840425522998,198.54384395538364 24.81648936169222,200.60581288556568 32.71542553184554,201.6780347202439 35.3723404253833,201.5130776046426 37.23936170199886,201.92547033325536 38.17287234030664,202.25538436957868 41.90691489353776,202.8327336203074 44.99468085123226,204.06990924442653 46.0,204.31734414957464 47.72340425569564,205.22460484225303 49.15957446815446,206.13186455052346 49.73404255323112,206.2968207554659 50.3803191492334,206.6267330676783 51.9601063830778,207.0391232749098 52.75,206.95664524979657 52.67819148954004,206.95664524979657 52.67819148954004,206.95664524979657 52.4627659576945,207.0391232749098 52.60638297908008,206.95664524979657 52.67819148954004,206.95664524979657 52.75,207.0391232749098 52.31914893630892,206.95664524979657 51.38563829800114,206.95664524979657 48.22606382984668,207.0391232749098 46.07180851092562,206.3792988458299 43.98936170199886,205.96690831327578 41.90691489353776,205.8019520433736 39.82446808507666,205.8844301821664 38.74734042584896,205.96690831327578 36.66489361738786,206.13186455052346 35.73138297861442,206.13186455052346 32.5,205.8844301821664 31.49468085123226,205.6369957405841 29.55585106369108,205.14212663803482 28.55053191492334,204.6472572426428 26.61170212784782,203.9874309261795 25.60638297908008,203.6575175729813 21.51329787261784,202.8327336203074 18.85638297908008,201.76051326608285 18.64095744676888,201.26564186962787 19.5026595746167,201.10068467236124 19.86170212784782,201.10068467236124 20.14893617015332,200.77077018056298 19.86170212784782,200.68829153710976 19.14361702091992,200.52333422598895 18.78457446815446,200.44085555832135 18.56914893630892,200.35837688238826 18.13829787261784,200.35837688238826 17.85106382984668,200.19341950619128 17.49202127661556,200.19341950619128 17.13297872338444,200.19341950619128 16.6303191492334,200.02846209757263 16.27127659600228,199.8635046564741 16.05585106369108,199.78102592355572 15.3377659576945,199.3686321376008 15.1223404253833,199.20367456617532 14.76329787261784,198.95623814797727 14.54787234030664,198.79128049546853 14.3324468084611,198.54384395538364 14.04521276568994,198.2139284547884 13.5425531915389,197.80153389606858 13.11170212784782,197.55409706308274 12.89627659600228,197.38913913373835 12.53723404277116,196.9767441683798 12.393617020919919,196.23443271807628 12.393617020919919,195.5745997648337 12.32180851092562,195.16220390447415 12.25,194.83228706987575 12.46542553184554,194.17245301039657 12.393617020919919,193.265180328337 12.393617020919919,192.85278332937742 12.32180851092562,192.60534503223607 12.46542553184554,192.35790666216053 12.393617020919919,192.27542718924815 12.46542553184554,191.6980706504546 12.53723404277116,191.2856728785555 12.89627659600228,191.20319329987979 13.61436170199886,190.9557545147254 13.97340425522998,190.79079528397415 14.18882978707552,190.70831565652043 14.61968085123226,190.54335637716576 14.69148936169222,190.54335637716576 14.69148936169222,190.4608767250902 14.76329787261784,190.4608767250902" stroke="#4dd2ff" stroke-linecap="round" stroke-linejoin="round" stroke-width="0.5"><title>2021-03-02 1.4km</title></polyline><polyline fill="none" points="64.69069767463952,199.3450602820376 65.16162790730596,199.56142334244214 70.34186046523973,200.53505658800714 73.6383720934391,201.72505160293076 74.8627906977199,202.26595800137147 78.15930232591927,203.13140768371522 79.38372093020007,203.13140768371522 82.86860465165228,202.91504532750696 83.99883720930666,202.5905017122859 87.4837209302932,202.37413924885914 89.64999999990687,203.13140768371522 90.78023255849257,203.56413226912264 92.75813953531906,204.3213998825522 94.64186046505347,204.645942985313 96.99651162838563,204.42958092759363 97.37325581395999,204.21321882703342 97.75,204.42958092759363 97.65581395383924,205.9441144367447 95.96046511642635,206.37683791248128 94.54767441889271,207.56682659033686 93.88837209297344,207.78318802977446 93.22906976751983,207.99954942625482 92.85232558147982,207.99954942625482 92.28720930218697,208.10773010831326 91.91046511661261,208.32409144064877 90.59186046523973,208.86499458528124 90.78023255849257,209.40589746297337 91.43953488394618,209.83861957327463 91.43953488394618,209.94680007430725 91.43953488394618,210.05498056439683 91.53372093010694,209.94680007430725 91.06279069790617,209.83861957327463 90.49767441861331,210.05498056439683 90.30930232582614,210.1631610437762 90.1209302325733,210.2713415127946 90.02674418594688,210.37952197086997 90.02674418594688,210.37952197086997 89.64999999990687,209.83861957327463 89.46162790711969,209.622258539428 89.17906976724043,209.29771690897178 89.08488372107968,209.08135576848872 88.14302325621247,208.86499458528124 87.7662790697068,208.86499458528124 87.29534883750603,208.86499458528124 86.8244186048396,208.756813977845 86.2593023260124,208.756813977845 85.78837209334597,208.756813977845 84.8465116280131,208.54045273084193 84.37558139534667,208.43227209104225 83.9046511631459,208.32409144064877 83.4337209300138,208.21591077989433 82.49186046561226,207.99954942625482 82.11511627910659,207.78318802977446 81.64418604690582,207.67500731546897 81.17325581423938,207.45864585484378 80.70232558110729,207.24228435161058 80.32558139553294,206.91774201695807 79.47790697682649,206.4850187546108 78.63023255812004,206.05229532148223 77.9709302331321,205.40320985182188 77.5,205.18684794357978 77.02906976733357,204.970485992264 76.5581395351328,204.75412399834022 76.0872093020007,204.53776196180843 75.80465116305277,204.42958092759363 75.05116279097274,204.10503776045516 74.67441860493273,203.99685668363236 74.29767441842705,203.88867559586652 73.9209302328527,203.67231338878628 73.45000000018626,203.56413226912264 72.97906976751983,203.45595113898162 71.94302325602621,203.34776999778114 71.5662790699862,203.2395888462197 71.09534883731976,203.13140768371522 70.53023255802691,203.13140768371522 70.1534883719869,203.0232265109662 69.21162790711969,202.91504532750696 68.74069767445326,202.6986829281086 67.89302325574681,202.04959547403269 66.95116279087961,201.72505160293076 66.5744186048396,201.61687029129826 66.10348837263882,201.50868896907195 65.53837209334597,201.40050763601903 65.16162790730596,201.29232629248872 64.69069767463952,201.0759635727154 63.843023255933076,200.64323800627608 63.372093023732305,200.42687515879516 62.99534883722663,200.21051226882264 62.053488372359425,199.66960485698655 61.77093023294583,199.45324181765318 61.394186046440154,199.2368787357118 60.54651162819937,198.6959708436625 60.169767442159355,198.37142598058563 59.69883720949292,197.7223359660711 59.03953488403931,196.96506379719358 57.90930232545361,196.0996092496207 57.90930232545361,195.77506361866836 57.72093023266643,195.23415401950479 57.53255813987926,194.80142614839133 57.25,193.3950593881309 57.53255813987926,192.85414861573372 57.626744186040014,192.31323757651262 57.72093023266643,191.8805085531203 57.81511627975851,191.55596167349722 57.81511627975851,191.01504999410827 57.81511627975851,189.60867837956175 57.81511627975851,188.63503543648403 58.851162791252136,188.20230496197473 59.6046511628665,187.769574316917 60.26395348878577,187.55320893018506 60.734883721452206,187.44502622098662 60.92325581423938,187.2286607704591 62.2418604651466,187.12047802924644" stroke="#4dd2ff" stroke-linecap="round" stroke-linejoin="round" stroke-width="0.5"><title>2020-12-25 1.0km</title></polyline><polyline fill="none" points="102.85902255633846,194.0719845808926 103.31578947370872,194.50918448233278 103.69642857136205,194.94638416823 104.53383458638564,195.4710235070088 107.80733082722872,196.34542171488283 109.55827067652717,196.87006022571586 110.70018796995282,197.13237936492078 116.02913533849642,199.2309296830208 117.55169172910973,200.2802029797458 119.30263157887384,201.06715713703306 121.89097744366154,202.02898904803442 122.88063909765333,202.2038674650248 124.70770676713437,202.2038674650248 125.77349624037743,202.2038674650248 127.60056390985847,201.85411059652688 129.2753759403713,201.67923211009474 131.17857142863795,201.76667135755997 132.24436090234667,201.67923211009474 135.2133458647877,202.2038674650248 136.2030075187795,202.55362419580342 138.1062030075118,202.90338078868808 139.17199248168617,202.8159416533308 141.07518797041848,202.72850250947522 141.91259398544207,202.6410633570631 142.75,202.99081991548883 142.67387218028307,203.0782590333838 142.44548872252926,203.16569814272225 142.36936090234667,203.25313724362059 142.36936090234667,203.34057633567136 142.29323308262974,203.25313724362059 142.1409774441272,203.4280154191074 142.1409774441272,203.25313724362059 142.21710526384413,203.34057633567136 142.29323308262974,203.4280154191074 142.21710526384413,203.34057633567136 142.36936090234667,203.16569814272225 142.29323308262974,203.16569814272225 142.21710526384413,203.16569814272225 142.21710526384413,203.25313724362059 142.21710526384413,203.16569814272225 142.21710526384413,203.16569814272225 142.21710526384413,203.16569814272225 142.21710526384413,203.25313724362059 142.1409774441272,203.25313724362059 142.1409774441272,203.25313724362059 142.0648496239446,203.25313724362059 141.988721805159,203.25313724362059 142.1409774441272,203.25313724362059 142.1409774441272,203.25313724362059 142.1409774441272,203.25313724362059 142.0648496239446,203.25313724362059 142.0648496239446,203.34057633567136 141.91259398544207,203.25313724362059 140.16165413567796,203.25313724362059 138.18233082722872,203.25313724362059 136.2030075187795,202.8159416533308 135.28947368450463,202.55362419580342 133.38627819530666,202.02898904803442 132.39661654178053,201.85411059652688 130.34116541361436,201.85411059652688 129.35150375962257,201.76667135755997 127.29605263192207,201.94154982635519 125.16447368403897,202.2038674650248 124.17481203051284,202.2038674650248 122.11936090234667,202.1164282608661 121.05357142863795,201.85411059652688 116.25751879718155,200.2802029797458 115.26785714318976,199.93044535192894 112.45112781971693,199.2309296830208 111.68984962394461,199.1434901856701 108.64473684225231,198.6188530200161 106.8937969924882,197.83189668948762 105.90413533849642,197.3072587478673 104.00093984976411,196.25798193289666 102.25,195.64590321760625" stroke="#4dd2ff" stroke-linecap="round" stroke-linejoin="round" stroke-width="0.5"><title>2020-12-08 1.1km</title></polyline><polyline fill="none" points="147.25,194.5753205961082 147.63942307699472,194.6498688508873 150.2355769232381,196.66266894357977 151.0793269232381,196.96086109412136 154.38942307699472,197.9299847711227 155.94711538474075,198.37727220298257 156.7259615387302,198.67546367709292 158.54326923075132,199.3463940641377 160.16586538474075,200.16641928389436 161.00961538497359,200.68825305148493 165.16346153849736,202.10465717618354 166.07211538497359,202.17920468811644 168.66826923098415,201.8810145960888 169.44711538474075,201.80646705452818 173.5360576924868,201.8810145960888 174.37980769225396,201.9555621300824 176.9110576924868,202.70103706646478 179.50721153849736,202.9246794038918 180.2860576924868,202.85013196524233 181.97355769271962,202.9246794038918 184.56971153849736,202.5519421377685 185.34855769225396,202.47739466262283 186.9711538462434,202.32829969003797 187.75,202.2537521928898 187.4254807694815,201.65737194975372 185.60817307699472,201.58282438619062 184.8293269232381,201.65737194975372 183.2067307694815,202.10465717618354 182.62259615398943,202.2537521928898 180.93509615398943,202.6264896057546 180.15625,202.70103706646478 178.5336538462434,202.70103706646478 177.6899038462434,202.5519421377685 176.06730769225396,202.2537521928898 175.2884615387302,202.03010965674184 172.75721153849736,201.58282438619062 171.9134615387302,201.58282438619062 170.2259615387302,201.65737194975372 169.31730769225396,201.65737194975372 167.6298076924868,201.80646705452818 165.9423076924868,201.8810145960888 164.3197115387302,201.80646705452818 162.76201923098415,201.43372923729476 161.98317307699472,201.2100864588283 160.29567307722755,200.68825305148493 159.5168269232381,200.39006237121066 157.95913461525925,199.8682283977978 155.88221153826453,199.27184627269162 155.2980769232381,199.19729847408598 153.74038461549208,198.824559370114 151.59855769271962,198.15362852008548 151.01442307722755,197.706340956036 149.65144230774604,196.96086109412136 148.9375,196.58812088746345" stroke="#4dd2ff" stroke-linecap="round" stroke-linejoin="round" stroke-width="0.5"><title>2020-12-03 1.3km</title></polyline><polyline fill="none" points="52.32218309864402,248.56468715838855 52.678697182796896,249.8750602895161 52.75,250.28455146891065 51.5378521126695,251.02163508307422 49.47007042216137,250.93973693606677 46.617957746144384,250.4483478841721 43.908450704067945,249.30177229916444 42.98151408461854,249.1379756575916 37.70510563394055,247.09051491471473 35.77992957737297,246.7629207270802 32.85651408415288,246.8448192861979 30.860035210847855,246.7629207270802 29.433978873305023,246.7629207270802 28.578345070127398,246.7629207270802 26.65316901402548,246.5991235851543 26.011443661525846,246.51722500211326 23.801056338008493,246.35342781117652 22.94542253483087,246.2715292039793 19.950704225338995,246.0258333333186 19.023767604958266,245.86203604575712 17.169894366059452,245.6982387258322 14.745598591398448,244.63355535943992 13.81866197148338,244.30596020299708 12.25,243.97836491692578 14.03257042216137,244.38785900420044 15.601232394110411,245.12494785204763 17.169894366059452,245.86203604575712 18.09683098550886,245.94393469346687 20.449823943898082,246.18963058834197 21.162852112669498,246.2715292039793 23.016725352033973,246.43532641069032 23.94366197148338,246.51722500211326 25.86883802805096,246.51722500211326 26.724471830762923,246.5991235851543 28.649647887330502,246.7629207270802 29.505281690042466,246.7629207270802 32.14348591538146,246.8448192861979 32.999119718093425,246.8448192861979 34.28257042216137,246.68102216016268 34.710387323983014,246.68102216016268 34.99559859139845,246.68102216016268 35.28080985881388,246.68102216016268 35.566021126229316,246.68102216016268 35.922535210847855,246.5991235851543 36.27904929546639,246.5991235851543 36.99207746423781,246.68102216016268 37.277288732118905,246.68102216016268 37.91901408461854,246.92671783699188 38.56073943618685,247.25431195972487 38.48943661944941,247.4181089727208 38.48943661944941,247.50000746693695 38.4181338022463,247.50000746693695" stroke="#4dd2ff" stroke-linecap="round" stroke-linejoin="round" stroke-width="0.5"><title>2020-11-30 1.0km</title></polyline></svg>