<?xml version="1.0" encoding="utf-8" ?>
<svg baseProfile="full" height="300mm" version="1.1" viewBox="0,0,200,300" width="200mm" xmlns="http://www.w3.org/2000/svg" xmlns:ev="http://www.w3.org/2001/xml-events" xmlns:xlink="http://www.w3.org/1999/xlink"><defs /><rect fill="#222222" height="300" width="200" x="0" y="0" /><text fill="#FFFFFF" style="font-size:12px; font-family:Arial; font-weight:bold;" x="10" y="20">Over 3km Runs</text><text fill="#FFFFFF" style="font-size:4px; font-family:Arial" x="10" y="280">ATHLETE</text><text fill="#FFFFFF" style="font-size:9px; font-family:Arial" x="10" y="290">jdzj</text><text fill="#FFFFFF" style="font-size:4px; font-family:Arial" x="120" y="280">STATISTICS</text><text fill="#FFFFFF" style="font-size:3px; font-family:Arial" x="120" y="285">Number: 35</text><text fill="#FFFFFF" style="font-size:3px; font-family:Arial" x="120" y="290">Weekly: 3.2</text><text fill="#FFFFFF" style="font-size:3px; font-family:Arial" x="141" y="285">Total: 69.3 km</text><text fill="#FFFFFF" style="font-size:3px; font-family:Arial" x="141" y="290">Avg: 2.0 km</text><text fill="#FFFFFF" style="font-size:3px; font-family:Arial" x="167" y="285">Min: 1.0 km</text><text fill="#FFFFFF" style="font-size:3px; font-family:Arial" x="167" y="290">Max: 4.9 km</text><polyline fill="none" points="26.43380626826547,45.87593710637884 24.56449032598175,48.85730265866732 21.79274599812925,43.118163212551735 21.921664338791743,41.03119231207529 24.177735303528607,37.52804927539546 27.72298967652023,36.03734505060129 36.87619187589735,36.186415608855896 42.22630302095786,31.714285714318976 35.458090126980096,36.48455663502682 19.536675033392385,34.32303145725746 18.183032454457134,34.99385029554833 15.540206467499956,40.65851831395412 14.637778081465513,54.521863919100724 13.541972184553742,58.099459083226975 12.252788775833324,58.62119025766151 12.059411264955997,62.571428571420256 13.090757991420105,62.049700198695064 13.541972184553742,59.59011859993916 15.282369785476476,40.21130926703336 17.602899920661002,37.90072485950077 18.569787476910278,38.49700540135382" stroke="#4dd2ff" stroke-linecap="round" stroke-linejoin="round" stroke-width="0.5"><title>2021-05-01 1.8km</title></polyline><polyline fill="none" points="74.25887669471558,44.3397642543423 73.18315964215435,44.522826608939795 71.43013926036656,45.78137638588669 69.29862584162038,45.68984572330373 68.92013280454557,46.14749867518549 68.97989486309234,45.712728392361896 67.54560545983259,46.19326392072253 64.1590888131177,45.75849372360972 62.16702019737568,45.987320244748844 61.56939961272292,45.66696305203368 59.39804482157342,46.078850789926946 54.49755602690857,46.19326392072253 49.61698791850358,45.68984572330373 48.14285714284051,46.94838916820299 48.24246057367418,47.38315713501652 53.97961818682961,48.504397078140755 54.59715945774224,48.32133786578197 55.73263856873382,48.916279777738964 58.760582864517346,48.96204447699711 60.653048049425706,49.69427843707672 61.46979618188925,49.44257327403466 63.6212302868953,49.945983327095746 64.1590888131177,50.357863467012066 65.49377478566021,50.518038879468804 65.85234713647515,50.24345239039394 66.8284607580863,50.70109635833069 68.04362261365168,50.49515668449749 70.0755326016806,51.09009302110644 70.25481877708808,50.54092107224278 70.69307387259323,50.49515668449749 71.50982200494036,50.92991800364689 71.7887116111815,50.26633461023448 72.98395278060343,49.62563160156424 74.41824218386319,48.18404336167441 76.01189707650337,47.566217087733094 76.84856589511037,46.55938555984176 78.24301392608322,46.124616049055476 79.0,45.07201280594745 78.60158627689816,43.85922488605138 77.98404500598554,43.19562126460369 76.72904177813325,43.99652195001545 74.81665590708144,43.88210773569881 74.69713179010432,44.614357732090866 72.00783915887587,45.941554958582856 72.56561837135814,46.467855204231455 72.94411140831653,46.2161465400568 74.23895600845572,47.20009703782853 75.31467306113336,47.03991933426005 75.39435580559075,46.765328727909946" stroke="#4dd2ff" stroke-linecap="round" stroke-linejoin="round" stroke-width="0.5"><title>2021-04-30 3.7km</title></polyline><polyline fill="none" points="115.18483412312344,45.12712432281114 113.2349356804043,47.926767015247606 112.16249153669924,48.094745137845166 101.53554502385668,45.18311731208814 92.07853757613339,45.12712432281114 93.3459715640638,46.190990172326565 84.57142857136205,43.55931838421384 91.59106296533719,46.02301148645347 102.80297901132144,47.08687565714354 114.35612728470005,50.72639590140898 115.42857142863795,50.50242609845009 113.96614759648219,49.99849371914752" stroke="#4dd2ff" stroke-linecap="round" stroke-linejoin="round" stroke-width="0.5"><title>2021-04-29 1.4km</title></polyline><polyline fill="none" points="132.85795918363146,46.38348503416637 135.37061224505305,44.40853927156422 134.48897959198803,42.838705166534055 136.03183673438616,42.33230604379787 146.56734693865292,32.25485957515775 147.80163265299052,32.10293675735011 151.8571428572759,36.76188271003775 146.6995918364264,40.10414396660053 147.27265306119807,40.154784121055854 144.05469387723133,43.64894272363745 145.42122448957525,43.14254440044169 145.72979591833428,41.97782636046759 144.18693877547048,43.243824104982195 136.82530612242408,52.15635983838001 131.84408163279295,55.09341156895971 128.44979591830634,58.08108487658319 128.22938775504008,60.00533983227797 125.45224489783868,62.18277752836002 123.16000000014901,61.01810270050191 121.0,57.92916970443912 121.17632653051987,54.941495512466645 124.21795918373391,53.52361014904454 125.31999999983236,51.801886941102566 128.3616326530464,50.48527117879712 128.93469387758523,49.16865203855559 130.43346938770264,48.30778385119629 130.87428571423516,46.788601174310315 132.02040816331282,45.92772899434203 133.29877551016398,46.23156639930676 133.5632653059438,45.269413999980316" stroke="#4dd2ff" stroke-linecap="round" stroke-linejoin="round" stroke-width="0.5"><title>2021-04-26 2.2km</title></polyline><polyline fill="none" points="175.63388459268026,57.119403435412096 176.47532148251776,55.959388297836995 177.45138827420305,43.77902195171919 180.7498208816396,31.714285714289872 177.7206480790628,43.58567974969628 175.33096731244586,44.70706319317105 171.86424732743762,44.47505308894324 168.2628974398831,45.0164097850211 166.37807880726177,46.17645732869278 165.06543725926895,48.032526252703974 164.96446483267937,59.400756518763956 166.47905123408418,62.1847626218223 167.48877550137695,62.571428571420256 168.16192501306068,62.223429233941715 171.7969323763391,59.16875511719263 173.04225897276774,60.019426251528785 174.25392809382174,59.13008820349933 174.4895304229576,58.124747109541204" stroke="#4dd2ff" stroke-linecap="round" stroke-linejoin="round" stroke-width="0.5"><title>2021-04-25 2.2km</title></polyline><polyline fill="none" points="28.335187199525535,96.85714285713038 27.425251103704795,90.0803302420245 27.927284811856225,86.22325839786208 27.425251103704795,79.0497173773183 27.89590770495124,66.54074340767693 27.5193824240705,66.0 26.734954755054787,66.54074340767693 25.950527086271904,79.30205538237351 26.26429815380834,91.84663926329813 27.5193824240705,92.207109442621 27.613513744203374,91.88268629726372 27.770399278146215,85.71859177830629 27.362496890244074,90.51289650646504" stroke="#4dd2ff" stroke-linecap="round" stroke-linejoin="round" stroke-width="0.5"><title>2021-04-18 2.2km</title></polyline><polyline fill="none" points="79.0,85.82091097781085 73.47400736785494,85.26235202921089 56.763405648991466,80.2352942226862 49.38067949237302,79.5243931976438 48.14285714295693,78.71193368113018 56.94023741292767,78.61037615154055 58.885386819485575,77.03623187934863 62.68726975028403,78.76271243853262" stroke="#4dd2ff" stroke-linecap="round" stroke-linejoin="round" stroke-width="0.5"><title>2021-04-16 1.0km</title></polyline><polyline fill="none" points="115.42857142852154,83.90336622930772 114.52480573806679,84.144352744348 114.15361625817604,83.38431730118464 113.50806933647254,83.12479229956807 112.68499701126711,83.32870483095758 112.39450089650927,83.0877172699984 111.99103407049552,82.53159095007868 112.70113568432862,81.27103186570457 112.45905558863888,80.34414479187399 111.97489539743401,80.14022902220313 108.21458457858535,80.39975814527133 105.00298864312936,80.12169121394982 103.43753735802602,80.49244703091972 102.77585176326102,80.23291803582106 101.71069934248226,80.34414479187399 101.45248057384742,80.12169121394982 99.3544530782383,80.36268257813936 98.61207411834039,80.10315340387751 97.75672444707016,80.34414479187399 96.90137477579992,79.99192650518671 95.09384339506505,80.32560700378963 93.60908547515282,79.73239681895939 92.38254632399185,79.88069954072125 91.68858338316204,79.02795729250647 90.42976688576164,79.10210894591 89.28392109979177,78.74988833145471 88.8158995815902,78.97234353318345 88.1703526598867,78.34205311103142 87.21817095036386,78.67573653902218 85.83024506870424,78.21228717346094 85.02331141661853,78.6386606318847 85.58816497313092,78.23082517001603 85.71727435739012,78.86111596520641 84.57142857142026,78.80550215656694 85.5397489539464,78.45328098619939 85.07172743574483,78.56450879554905 85.57202630006941,78.52743286642362 85.16855947393924,78.69427448988426 85.42677824263228,78.97234353318345 85.15242080093594,78.74988833145471 85.5397489539464,78.62012267547834 85.42677824263228,78.41620503511513 85.10400478180964,78.52743286642362 85.21697549312375,78.80550215656694 85.71727435739012,78.60158471732575 85.4751942618168,78.50889489907422 85.442916915752,78.76842627496808 85.57202630006941,78.43474301161768 85.39450089662569,78.76842627496808 85.50747160782339,78.50889489907422 85.58816497313092,78.71281243889825 85.34608487749938,78.04544512207212 85.4913329348783,78.52743286642362 85.41063956957078,78.21228717346094 85.442916915752,78.52743286642362 85.12014345481293,78.28643914876739 85.23311416618526,78.11959716318233 85.34608487749938,78.28643914876739 85.10400478180964,78.37912907675491 85.42677824263228,78.54597083188128 85.16855947393924,78.39766705685179 85.4751942618168,78.11959716318233 85.24925283918856,78.50889489907422 84.99103407049552,78.50889489907422 85.24925283918856,78.02690710721072 85.00717274355702,78.19374917508685 85.39450089662569,78.52743286642362 85.12014345481293,78.36059109478083 85.16855947393924,78.52743286642362 85.24925283918856,78.37912907675491 85.32994620437967,79.15772266683052 85.16855947393924,80.90027758476208 86.73401075910078,81.23395647053258 86.86312014347641,81.53055942717765 88.26718469813932,81.40079569125373 89.07411835028324,81.69739838459645 95.51344889419852,81.97546298449743 101.87208607292268,82.79111677082255 104.92229527788004,82.90234201289422 106.27794381347485,83.19894233654486 107.84339509863639,83.9960533870908 110.29647340095835,83.71799177663343 110.5546921697678,84.16289015581424 110.89360430359375,84.01459081313806 113.2014345487114,84.49656324907846 113.60490137472516,84.83023574994877 114.33114166167798,84.66339957356104 114.557083084248,83.97751595916634 115.2026300059515,83.71799177663343" stroke="#4dd2ff" stroke-linecap="round" stroke-linejoin="round" stroke-width="0.5"><title>2021-04-09 4.9km</title></polyline><polyline fill="none" points="151.23425022209994,83.07967010472203 141.55545696569607,80.27281550969929 140.45341614936478,79.22712097247131 133.64951197896153,79.77748676278861 128.7142857145518,79.28215757600265 129.6246672582347,79.8325233120122 129.1934338954743,80.05266945430776 121.0,78.18142447556602 127.80390417040326,80.21777900401503 137.57852706313133,81.04332602024078 151.13842058577575,84.67571838147705 149.3176574979443,83.9602490287507 151.8571428572759,83.63003209518502 151.18633540370502,82.80448890588013" stroke="#4dd2ff" stroke-linecap="round" stroke-linejoin="round" stroke-width="0.5"><title>2021-04-09 1.4km</title></polyline><polyline fill="none" points="158.65584415593185,79.71684280128102 160.14610389620066,80.97548085200833 170.92857142863795,85.10379187582294 175.70616883132607,84.90241162481834 179.87012987048365,85.75827714276966 187.58441558480263,84.90241162481834 188.28571428568102,84.04654467201908 185.17370129888877,83.24102152325213 181.44805194810033,83.99619951244676 177.59090909105726,82.53618772528716 174.39123376645148,82.78791419346817 168.95616883132607,80.01891621641698 168.254870129982,78.7099301260605 165.14285714295693,77.5016322939191 162.77597402618267,77.09886571438983 157.42857142863795,78.40785593612236" stroke="#4dd2ff" stroke-linecap="round" stroke-linejoin="round" stroke-width="0.5"><title>2021-04-08 1.4km</title></polyline><polyline fill="none" points="42.37105751410127,117.00314376319875 42.57142857136205,118.06184088415466 39.96660482394509,118.10787113939296 33.07384044537321,115.7603223391634 22.65454545454122,115.25398673591553 17.164378478657454,113.32070028915768 11.714285714318976,114.1492526041693 16.883858998073265,113.55085385756684 22.374025973957032,115.20795619935961 32.59294990752824,115.66826136125019" stroke="#4dd2ff" stroke-linecap="round" stroke-linejoin="round" stroke-width="0.5"><title>2021-04-06 1.3km</title></polyline><polyline fill="none" points="57.56629597954452,111.08088100404711 61.44653550046496,109.86904639052227 63.04790419177152,111.15216532774502 63.04790419177152,112.50656610226724 62.00085543212481,113.07683932950022 63.84858853719197,115.07279197144089 65.75791274569929,115.28664370329352 68.22155688609928,114.1461003801669 70.99315654416569,110.65317490900634 73.45680068433285,111.57987111830153 75.48930710018612,110.36803736741422 78.93840889632702,110.79574363626307 78.93840889632702,106.44738440774381 78.56886227568612,109.08491699479055 76.53635585983284,108.72849425219465 79.0,109.1562015216332 78.87681779288687,111.00959667295683 73.57998289121315,111.5085868377937 70.99315654416569,110.58189053460956 66.80496150557883,115.85691466892604 67.7904191617854,115.00150804652367 63.17108639865182,114.93022411421407 62.24721984588541,113.36197576927952 63.60222412343137,113.36197576927952 63.47904191631824,112.64913445245475 61.87767322501168,109.79776193608996 61.2001710862387,110.79574363626307 59.8451668091584,110.65317490900634 58.12061591073871,114.35995239467593 52.39264328451827,117.35387374600396 50.54491017968394,120.77548248902895 50.298545765457675,118.13799389149062 49.80581693747081,121.48831554176286 49.37467921292409,119.92008186911698 49.80581693747081,120.98933248105459 49.436270316364244,120.06264871166786 51.96150556020439,121.34574898920255 53.99401197582483,124.41092347842641 56.64242942677811,124.19707453052979 57.38152266899124,122.70013006735826 55.78015397768468,121.98729824722977 57.196749358437955,121.98729824722977 56.51924721989781,122.84269634459633 55.90333618456498,122.27243106235983 56.64242942677811,123.12782881164458 56.82720273733139,122.41499742638553 57.135158254997805,124.05450852884678 56.08810949511826,124.98118702089414 52.700598802184686,124.69605530775152 49.559452523244545,120.98933248105459 50.11377245490439,117.781575752364 50.48331907601096,120.34778230945813 48.14285714295693,121.70216531609185 48.820359281497076,120.56163243198534 48.38922155671753,121.98729824722977 50.11377245490439,120.77548248902895 50.360136869130656,117.63900844595628" stroke="#4dd2ff" stroke-linecap="round" stroke-linejoin="round" stroke-width="0.5"><title>2021-04-05 1.9km</title></polyline><polyline fill="none" points="108.83862249716185,123.83246957033407 107.62857298867311,124.44167536270106 108.10207062237896,123.71062826286652 108.94384419359267,123.71062826286652 109.12798216217197,123.19280215207255 108.18098689476028,128.82792041960056 106.15546923910733,130.2899878039898 106.05024754267652,131.14285714286962 105.97133127041161,130.2899878039898 108.25990316702519,128.91929984060698 109.02276046597399,125.93422430718783 109.54886894789524,121.1824099267833 108.23359774285927,120.23813012393657 105.39261194027495,119.7202979978756 103.70906479796395,121.03010693457327 100.18413796881214,122.03530524941743 93.76561448862776,125.90376419911627 92.60817582835443,124.04569173886557 91.26659919938538,124.62443685828475 90.6352690209169,124.38075483930879 86.95250964711886,108.57145936368033 86.74206625437364,105.67756714916322 88.60975136538036,114.14593066021916 89.18847069551703,114.38962102282676 95.94896468881052,111.31301561629516 101.15743866038974,109.63762311666505 104.41931124858093,107.80991149737383 108.99645504180808,104.12399240158265 111.70591372391209,100.28571428573923 113.25793374574278,101.07774396508466 113.07379577704705,101.32144498257549 112.44246559869498,101.10820660312311 112.81074153608643,100.80358008286566 112.81074153608643,101.2909823662776 112.96857408061624,100.46849055192433 112.07418966130354,100.74265474145068" stroke="#4dd2ff" stroke-linecap="round" stroke-linejoin="round" stroke-width="0.5"><title>2021-04-05 3.7km</title></polyline><polyline fill="none" points="128.78638184256852,104.52616742858663 133.68891855794936,108.42255999904592 137.72630173619837,119.66635775740724 137.82242990657687,125.34387501422316 140.03337783692405,124.89858061017003 142.24432576773688,126.9024039999349 147.24299065442756,123.2287249766523 151.8571428572759,124.45328602404334 142.43658210942522,122.22681037068833 142.43658210942522,125.90049276454374 142.91722296411172,120.77959876158275 142.72496662195772,126.12313978536986 143.01335113449022,124.34196234925184 139.16822429886088,125.12122783495579 141.76368491351604,123.45137254195288 143.10947930580005,125.90049276454374 140.70627503329888,124.34196234925184 142.43658210942522,123.8966675363481 142.05206942604855,126.01181628042832 143.10947930580005,126.01181628042832 141.8598130843602,123.7853438045131 144.07076101424173,126.56843369046692 141.8598130843602,124.56460968742613 142.05206942604855,122.78342970972881 143.68624833133072,125.34387501422316 142.14819759689271,122.8947535433108 139.5527369827032,122.78342970972881 138.39919893164188,125.67784569854848 138.68758344464004,124.23063866328448 133.7850467292592,120.5569506516913 135.70761014707386,113.43218716117553 133.7850467292592,114.21146043203771 133.88117490010336,111.31701405160129 128.20961281703785,108.19990936957765 121.0,108.86786112200934 125.03738317778334,110.31508851703256 126.38317757006735,114.10013571288437" stroke="#4dd2ff" stroke-linecap="round" stroke-linejoin="round" stroke-width="0.5"><title>2021-04-04 1.4km</title></polyline><polyline fill="none" points="176.47725458908826,101.90140351635637 166.90981644019485,106.25821079115849 157.68715083785355,116.95211207686225 166.39265762176365,126.5567225603154 171.47805267339572,120.81377064221306 177.42537909047678,118.33835019503022 177.59776536328718,115.07078585337149 183.11412609741092,111.01106987847015 175.01197126880288,100.71318006690126 168.20271348766983,105.26802898093592 157.42857142863795,117.54621436202433 166.22027134848759,125.46754455007613 171.39185953699052,119.42753594421083 179.83878691121936,118.0412993307691 182.33838786929846,116.15997514955234 183.63128491630778,111.20910518511664 183.28651237022132,110.31794599688146 182.25219473289326,112.29829867312219 179.23543495638296,113.78356061555678 179.14924181997776,112.89240371389315 188.28571428591385,106.85231940844096 184.9241819633171,105.0699925016379 181.39026336790994,100.71318006690126 179.4078212287277,103.98079116654117 173.37430167617276,101.40631058334839 161.4796488424763,112.1002635814366 157.77334397425875,117.34818030608585 166.39265762176365,125.46754455007613 171.47805267339572,120.12065353256185 172.25379090197384,120.71475394169101 170.0989624899812,123.68525071017211 181.9074221868068,126.16065796621842 185.69992019189522,130.7153913617367 177.68395849922672,116.06095798953902 178.5458898646757,113.38749097910477 182.76935355179012,109.82285721745575 178.11492418218404,106.95133747690124 175.52913008769974,102.00042207358638 173.71907422179356,101.30729196750326 172.16759776510298,102.39649620489217 172.9433359936811,103.08962555840844" stroke="#4dd2ff" stroke-linecap="round" stroke-linejoin="round" stroke-width="0.5"><title>2021-04-02 3.1km</title></polyline><polyline fill="none" points="30.644376899697818,161.92494921281468 27.03343465051148,160.66808276600204 20.22188449848909,160.54239584857714 12.835866261506453,159.56832055727136 12.206686930265278,158.9713051969302 11.714285714318976,155.98621161197661 12.425531915039755,155.4206117806898 13.902735562413,155.35776729288045 12.56231003056746,151.17858103467734 12.890577507670969,145.5224521626078 14.942249240237288,142.60007955975016 15.762917933287099,140.62039256261778 19.674772036494687,137.91794283004128 21.261398176429793,139.64625634855474 22.738601823803037,139.9604941624275 23.504559270571917,140.87178206964745 26.732522796373814,140.87178206964745 31.71124620072078,141.6573730004602 34.118541033472866,142.91431445957278 38.11246200616006,146.4651472827827 41.88753799383994,153.00109005440027 41.99696048628539,153.84949586880975 41.12158054707106,154.60363247356145 40.765957446885295,155.7976784464263 41.531914893654175,155.76625624133158 42.571428571478464,158.43713261027006 41.88753799383994,159.8511169164849 39.50759878417011,160.29102186500677 38.93313069897704,161.0137215332361 37.5927051671315,160.3538653794385 37.018237082171254,160.60523931350326 35.59574468084611,160.1653347988613 34.911854103324,162.08205716998782 34.693009118549526,161.86210600825143" stroke="#4dd2ff" stroke-linecap="round" stroke-linejoin="round" stroke-width="0.5"><title>2021-04-02 3.2km</title></polyline><polyline fill="none" points="51.37589996214956,147.39112716095406 61.811671087518334,152.0447968810622 67.45926487306133,151.99779034330277 70.89693065546453,152.79690085342736 75.52140962495469,151.66874444988207 79.0,151.71575101985945 71.14247821155004,152.7498943900282 67.70481242891401,151.95078380109044 62.13906782865524,152.23282298547565 54.93633952271193,150.16453175767674 48.14285714295693,147.20309914657264" stroke="#4dd2ff" stroke-linecap="round" stroke-linejoin="round" stroke-width="0.5"><title>2021-04-01 1.4km</title></polyline><polyline fill="none" points="84.57142857136205,146.11344048473984 88.05611409875564,149.65196263231337 92.14683189149946,150.52208776818588 96.94458732777275,153.01643935660832 103.50993687193841,152.90042323822854 107.14613046543673,153.88655951520195 115.42857142863795,152.90042323822854 109.62076221662574,153.77054356847657 102.60088847321458,152.72639901778894 96.33855506195687,153.01643935660832 86.9450549450703,150.46407946577528 85.98550385795534,149.9420044872095 87.09656301164068,149.47793745057425" stroke="#4dd2ff" stroke-linecap="round" stroke-linejoin="round" stroke-width="0.5"><title>2021-03-29 1.2km</title></polyline><polyline fill="none" points="135.8658681914676,165.42857142857974 134.4278488077689,157.3197276958963 133.42748749698512,157.03268732869765 128.5507261089515,150.00016307207989 125.29955184995197,149.7131198263378 135.42821011785418,134.57142857142026 138.80442954064347,136.65253272023983 145.43182322243229,143.3981398594333 144.74407482147217,148.20614093437325 147.55759100685827,164.71097827132326 138.61686179507524,158.75492783793015 135.36568753584288,158.10908812313573 135.0530746264849,159.47252685081912" stroke="#4dd2ff" stroke-linecap="round" stroke-linejoin="round" stroke-width="0.5"><title>2021-03-28 1.4km</title></polyline><polyline fill="none" points="172.4773626376409,144.41077248216607 174.2338461538311,145.4468370389659 174.6610989011824,144.57436175178736 176.37010989012197,144.4653022440616 176.74989011022262,143.5928254078026 177.27208791207522,144.19265338068362 178.07912087929435,143.5928254078026 180.5951648352202,145.0105995676131 182.0668131869752,143.92000438278774 186.38681318680756,145.22871834621765 186.10197802213952,144.13812359177973 188.14329670346342,144.35624271497363 186.62417582422495,143.81094474595739 187.00395604409277,142.93846687691985 187.0989010988269,144.13812359177973 186.86153846164234,143.5928254078026 186.3393406595569,144.30171294219326 186.43428571429104,143.42923584755044 187.0989010988269,144.35624271497363 186.38681318680756,144.13812359177973 187.81098901107907,143.97453419311205 187.81098901107907,144.51983200054383 187.19384615379386,143.75641491939314 186.19692307710648,144.30171294219326 188.19076923071407,143.97453419311205 187.57362637366168,143.48376570641994 187.38373626372777,145.1196589677129 186.529230769258,144.41077248216607 186.43428571429104,145.0105995676131 187.62109890114516,144.2471831641742 187.0989010988269,144.30171294219326 188.28571428591385,145.77401491667842 188.14329670346342,144.19265338068362 187.43120879144408,144.30171294219326 187.81098901107907,145.06512927025324 186.7665934069082,145.3923073739861 186.62417582422495,144.7924807027448 186.05450549465604,145.61042600200744 184.06065934081562,145.3377777034766 184.06065934081562,144.2471831641742 184.53538461541757,153.6262258917559 179.17098901118152,154.82585941400612 174.80351648363285,153.4081104263314 175.13582417578436,154.1169853747706 173.80659340671264,153.4081104263314 166.11604395601898,153.02640815457562 162.2707692310214,154.17151417920832 161.93846153863706,156.13454756035935 161.0364835166838,156.8434190126718 157.9507692309562,157.06153312308015 157.42857142863795,156.18907616578508" stroke="#4dd2ff" stroke-linecap="round" stroke-linejoin="round" stroke-width="0.5"><title>2021-03-26 1.5km</title></polyline><polyline fill="none" points="14.975609756307676,182.3303789656784 24.759581881575286,186.32338444280322 28.200099552050233,186.07639552172623 31.210552513599396,186.73503231999348 35.547038327436894,185.87057130914764 37.26729716267437,186.07639552172623 42.57142857136205,184.18280893721385 37.87655550031923,186.07639552172623 31.819810851244256,186.5703732178372 28.630164260976017,185.91173615976004 25.082130413269624,186.19989000057103 17.44848183169961,184.3474689812283 11.714285714318976,181.83639625145588" stroke="#4dd2ff" stroke-linecap="round" stroke-linejoin="round" stroke-width="0.5"><title>2021-03-26 1.6km</title></polyline><polyline fill="none" points="79.0,187.02370928565506 76.64249333017506,186.72283199045341 73.13242784375325,184.49633539299248 70.146252728533,184.556511083676 65.8503516856581,182.87158950482262 55.372544263722375,183.17246869957307 56.944215377094224,183.95475391106447 56.31554693193175,184.13528112502536 48.14285714295693,181.5477192858234 54.74387581832707,184.07510539289797 64.12151346099563,184.6768624469405 72.13703613867983,186.60248103068443" stroke="#4dd2ff" stroke-linecap="round" stroke-linejoin="round" stroke-width="0.5"><title>2021-03-24 1.1km</title></polyline><polyline fill="none" points="115.42857142840512,186.54908868685015 113.20652173901908,186.40461862867232 111.02639751532115,184.7672883158666 107.54658385086805,184.1894057179452 104.69565217383206,182.88916737228283 95.975155279506,183.081795493752 96.72981366468593,183.90046416252153 89.89596273284405,182.0223398845992 84.57142857136205,182.69653917464893 86.6677018632181,182.98548144244705 90.06366459606215,182.0704970076913 96.35248447209597,183.99677803347004 107.79813664592803,184.47834710241295" stroke="#4dd2ff" stroke-linecap="round" stroke-linejoin="round" stroke-width="0.5"><title>2021-03-23 1.3km</title></polyline><polyline fill="none" points="151.24164133728482,185.81751805375097 140.86018237075768,182.18833498109598 136.63373860158026,182.89532085802057 132.44832826731727,182.42399705623393 133.59726443747059,183.17811491605244 133.1458966564387,183.31951188234962 126.53951367759146,181.33995054781553 121.0,182.14120255198213 126.12917933124118,181.43421555924579 132.32522796327248,183.2252472427208 140.53191489353776,183.7908348008932 151.85714285704307,187.23147802357562 150.0106382977683,186.33597052839468 151.85714285704307,185.81751805375097" stroke="#4dd2ff" stroke-linecap="round" stroke-linejoin="round" stroke-width="0.5"><title>2021-03-22 1.6km</title></polyline><polyline fill="none" points="183.70554158906452,169.04795756010571 184.1305060661398,169.34595665812958 183.89441468997393,170.29413346454385 186.04284621262923,170.61922190495534 186.60946551524103,171.07976320636226 186.42059241433162,171.91957183522754 187.27052136824932,172.48847300207126 188.28571428568102,174.24935012930655 187.67187670769636,175.8747651927406 186.77472947863862,176.25402732935618 186.44420155207627,177.2292704291758 182.0765110939974,181.02184970790404 177.26024702144787,182.8910303133307 175.74926221428905,183.8662499493803 174.59241447143722,184.84146613779012 171.21630779316183,189.5007847895904 157.42857142852154,199.52347101134364" stroke="#4dd2ff" stroke-linecap="round" stroke-linejoin="round" stroke-width="0.5"><title>2021-03-21 1.3km</title></polyline><polyline fill="none" points="25.702067494858056,215.8906462577579 25.3103965226328,213.38608213191037 22.624652713071555,210.0466334199591 21.53356929041911,209.72553078286 17.840671552112326,213.09709272757755 14.175750311813317,217.75300200338825 13.252525877440348,218.00987782451557 12.245371948811226,220.73917094792705 13.951938327751122,223.1794607815973 18.008530540158972,225.10599250879022 22.400840728892945,228.67004624885158 22.14905224670656,228.86269669458852 22.736558705102652,228.79847989196423 22.205005242838524,228.50950412402744 22.876441195141524,229.63329734103172 24.359195590019226,231.39925029932056 29.982471691444516,234.0 32.89202748518437,233.71102883352432 39.746269499184564,228.92691348455264 40.66949393390678,227.00040429341607 42.04034233675338,220.83549852389842 40.66949393390678,218.45941002550535 35.54979479685426,213.73929105652496 30.010448189568706,206.7713717071456 25.897902980912477,203.14285714286962 21.281780808232725,209.56497934585786 22.1210757488152,209.661310217547 23.26811216736678,210.720947930502 25.50623200868722,213.57874159270432 25.47825551079586,214.47781757373014" stroke="#4dd2ff" stroke-linecap="round" stroke-linejoin="round" stroke-width="0.5"><title>2021-03-20 3.7km</title></polyline><polyline fill="none" points="75.9598874032963,226.3411668598419 65.4208304011263,222.96558501914842 54.27375088003464,222.61638579540886 48.294862772803754,221.3359868740663 48.14285714295693,219.24078264605487 49.00422237883322,218.30957837868482 48.19352568639442,216.7381678451784 48.396199859213084,214.00273952580756 51.588318085996434,210.8016902829986 56.857846587197855,211.44190152094234 62.228712174575776,213.2461294538807 72.3624208306428,213.01332615979481 77.78395496145822,212.14031298819464 78.44264602405019,211.38370052794926 77.47994370176457,213.59533422312234 76.87192118237726,221.10318677179748 77.37860661535524,224.94437671615742 79.00000000023283,225.235374935437" stroke="#4dd2ff" stroke-linecap="round" stroke-linejoin="round" stroke-width="0.5"><title>2021-03-19 1.6km</title></polyline><polyline fill="none" points="97.07656612549908,218.25620969827287 103.78256546263583,221.13441916389274 106.3838249919936,220.96995085445815 108.65097779268399,221.4633554907341 111.03745442512445,220.94253946014214 112.3022870401619,221.05218502136995 115.42857142863795,220.12019637221238 109.6294332119869,221.4359441449633 106.64633742149454,220.96995085445815 103.30527013610117,221.10700778575847 89.96486576087773,216.85821148887044 84.57142857147846,216.28256312332815 85.7408021214651,216.4470342065033 84.95326483272947,216.11809194274247 85.1919124959968,215.98103255126625 87.00563473650254,216.09068006990128 89.41597613540944,215.6795016521355 90.22737819037866,216.28256312332815 90.70467351691332,215.98103255126625 91.27742790861521,216.52926971166744 91.77858800138347,216.36479867715389 92.42293669225182,216.91303508056444 93.23433874733746,216.61150519244256 94.90487238985952,217.8176227817312 95.2389791184105,217.4064469189325 94.37984753085766,216.11809194274247 94.04574080230668,216.1455038129643 94.16506463382393,217.0775057906285 95.71627444494516,217.84503448431497 96.3606231356971,216.30997497733915 96.7185946307145,217.05009401240386 97.19588995701633,216.9678586613154 96.69472986424807,217.10491756623378 96.98110706021544,217.02268223138526 96.28902883676346,216.06326819432434 97.31521378876641,215.98103255126625" stroke="#4dd2ff" stroke-linecap="round" stroke-linejoin="round" stroke-width="0.5"><title>2021-03-19 3.1km</title></polyline><polyline fill="none" points="133.98498242464848,234.0 133.8116782399593,233.46252885850845 133.4824002890964,233.40280975445057 132.9971485719434,233.86065576742112 133.58638279984007,230.4964586659189 133.36108735977905,231.31262997890008 133.46506987058092,232.8056177417311 133.13579191971803,233.0644011641998 131.26410672522616,233.02458835155994 131.03881128504872,231.83020032073546 131.19478505128063,230.77515168052923 135.7353546898812,229.75991098905797 138.78550834016642,229.56084358801309 138.68152582942275,210.3100981741154 139.7040205191006,208.99612304678885 141.81833157211076,207.12468915186764 141.43706236581784,206.1690566374018 138.85483001411194,203.14285714285506" stroke="#4dd2ff" stroke-linecap="round" stroke-linejoin="round" stroke-width="0.5"><title>2021-03-18 2.7km</title></polyline><polyline fill="none" points="167.8938035593601,231.45372666590265 168.75770169665338,231.60350839575403 168.88810141547583,232.33369263625355 169.21410071256105,232.52091891213786 170.97449691663496,232.8766483276413 173.25649199611507,232.67069979985536 174.8375885868445,233.1200417540822 176.30458542361157,234.0 176.67948461521883,232.8204805694695 176.46758507215418,227.8214835327526 177.8204821550171,227.69042191430344 175.88078633742407,227.14745138803846 174.00629037927138,227.05383562309726 173.17499217187287,226.1551219302637 171.5286957216449,209.13492791824683 173.3216918554972,207.03772467143426 174.5930891140015,206.307443099824 173.68029108230257,204.6783433114615 172.11549445637502,203.14285714285506" stroke="#4dd2ff" stroke-linecap="round" stroke-linejoin="round" stroke-width="0.5"><title>2021-03-17 2.8km</title></polyline><polyline fill="none" points="12.753799392143264,251.19188495207345 13.136778115527704,251.19188495207345 15.051671732682735,252.00881982134888 15.598784194560722,252.7000715850736 21.288753799395636,254.271095531818 27.306990881450474,255.08802645350806 29.331306990934536,254.96234484162414 30.753799392143264,255.2765488253208 31.46504559274763,255.52791190060088 34.310030395165086,255.96779704402434 36.66261398186907,256.9104070433532 37.42857142863795,257.0989288758137 38.74164133751765,257.7901751179015 39.83586626150645,258.4814206099254 40.27355623105541,258.607101527974 40.76595744700171,258.8584632896236 41.969604863319546,259.1726653522928 42.57142857136205,259.1098249522038 42.51671732543036,259.1098249522038 42.51671732543036,259.1098249522038 42.35258358693682,259.1726653522928 42.46200607903302,259.1098249522038 42.51671732543036,259.1098249522038 42.57142857136205,259.1726653522928 42.243161094142124,259.1098249522038 41.53191489377059,259.1098249522038 39.12462006066926,259.1726653522928 37.48328267480247,258.6699419777724 35.89665653510019,258.35573966719676 34.310030395165086,258.23005869972985 32.72340425546281,258.2928991864319 31.902735562529415,258.35573966719676 30.31610942259431,258.4814206099254 29.604863221757114,258.4814206099254 27.142857142724097,258.2928991864319 26.376899695955217,258.10437770711724 24.899696048349142,257.7273345813155 24.133738601813093,257.35029123246204 22.65653495443985,256.84756641992135 21.89057750767097,256.59620386513416 18.772036474198103,255.96779704402434 16.747720364946872,255.15086725034053 16.583586626220495,254.7738223768538 17.240121580427513,254.64814070274588 17.513677811715752,254.64814070274588 17.732522796373814,254.3967772804317 17.513677811715752,254.33393640920985 16.966565349372104,254.20825464831432 16.693009118549526,254.14541375869885 16.52887538005598,254.08257286279695 16.200607902836055,254.08257286279695 15.981762918177992,253.9568910523667 15.708206686889753,253.9568910523667 15.434650455834344,253.9568910523667 15.051671732682735,253.8312092171982 14.778115501627326,253.70552735729143 14.613981762900949,253.6426864179084 14.066869301022962,253.32848162861774 13.902735562296584,253.2027996694669 13.629179331474006,253.01427668414544 13.465045592747629,252.88859466317808 13.300911854254082,252.7000715850736 13.082066869130358,252.44870739412727 12.699088145978749,252.1345020160661 12.370820668758824,251.94597871473525 12.206686930032447,251.82029648288153 11.933130699209869,251.50609079492278 11.823708206415176,250.9405201661284 11.823708206415176,250.4377902969718 11.768996960716322,250.1235839271685 11.714285714318976,249.8722187198582 11.878419452812523,249.36948800791288 11.823708206415176,248.67823263112223 11.823708206415176,248.36402539379196 11.768996960716322,248.17550097691128 11.878419452812523,247.9869765045005 11.823708206415176,247.92413500131806 11.878419452812523,247.48424430505838 11.933130699209869,247.17003647889942 12.206686930032447,247.10719489509938 12.753799392143264,246.91867010644637 13.027355622965842,246.79298688302515 13.19148936169222,246.73014526208863 13.519756838912144,246.60446200164733 13.57446808507666,246.60446200164733 13.57446808507666,246.54162036196794 13.629179331474006,246.54162036196794" stroke="#4dd2ff" stroke-linecap="round" stroke-linejoin="round" stroke-width="0.5"><title>2021-03-02 1.4km</title></polyline><polyline fill="none" points="53.81196013279259,253.31052211951464 54.17076411982998,253.4753701656009 58.11760797351599,254.21718597173458 60.629235880449414,255.12384884024505 61.56212624581531,255.53596800094238 64.07375415274873,256.19535823515616 65.00664451811463,256.19535823515616 67.66179401986301,256.0305107256281 68.52292358782142,255.78323939972324 71.1780730895698,255.61839180858806 72.82857142854482,256.19535823515616 73.68970099650323,256.5250531573547 75.19667774112895,257.10201895801583 76.63189368741587,257.3492898934637 78.42591362120584,257.1844426114112 78.71295681037009,257.0195952967042 79.0,257.1844426114112 78.92823920259252,258.33837290410884 77.6365448506549,258.6680669808993 76.56013289047405,259.5747250210843 76.0578073086217,259.7395718321786 75.55548172723502,259.9044186103856 75.26843853807077,259.9044186103856 74.8378737536259,259.9868419871782 74.55083056492731,260.15168871660717 73.54617940168828,260.5638053982402 73.68970099650323,260.9759218764375 74.19202657788992,261.30561491288245 74.19202657788992,261.3880381517811 74.19202657788992,261.4704613822978 74.2637873752974,261.3880381517811 73.90498338872567,261.30561491288245 73.47441860474646,261.4704613822978 73.3308970099315,261.55288460466545 73.18737541511655,261.6353078192333 73.11561461770907,261.717731025361 73.11561461770907,261.717731025361 72.82857142854482,261.30561491288245 72.68504983372986,261.140768410929 72.46976744150743,260.89349859720096 72.39800664409995,260.72865201398963 71.68039867095649,260.5638053982402 71.39335548132658,260.5638053982402 71.03455149475485,260.5638053982402 70.67574750818312,260.4813820782583 70.24518272420391,260.4813820782583 69.88637873763219,260.4813820782583 69.16877076402307,260.3165354138473 68.80996677698568,260.2341120693018 68.45116279087961,260.15168871660717 68.09235880384222,260.0692653559963 67.37475083069876,259.9044186103856 67.08770764106885,259.7395718321786 66.72890365449712,259.657148430706 66.37009966792539,259.49230160354637 66.011295680888,259.32745474402327 65.72425249172375,259.0801843938534 65.0784053155221,258.75049047963694 64.43255813932046,258.42079643538455 63.93023255839944,257.92625512514496 63.57142857089639,257.76140795688843 63.21262458432466,257.5965607559192 62.85382059821859,257.4317135224701 62.49501661071554,257.2668662565411 62.27973421942443,257.1844426114112 61.70564784063026,256.9371716269525 61.41860465100035,256.8547479493427 61.13156146137044,256.77232426346745 60.84451827220619,256.60747686756076 60.48571428563446,256.5250531573547 60.12691029859707,256.442629439116 59.33754152804613,256.3602057124954 59.05049833888188,256.2777819779585 58.69169435184449,256.19535823515616 58.26112956786528,256.19535823515616 57.97408637870103,256.1129344844376 57.25647840509191,256.0305107256281 56.89767441852018,255.86566318321275 56.25182724231854,255.37112036108738 55.53421926917508,255.12384884024505 55.24717607954517,255.04142498376314 54.88837209297344,254.95900111924857 54.457807308994234,254.8765772464103 54.17076411982998,254.7941533655976 53.81196013279259,254.6293055791757 53.16611295659095,254.29960990947438 52.80730897001922,254.13476202567108 52.52026578038931,253.9699141094461 51.80265780724585,253.55779417662416 51.58737541548908,253.39294614666142 51.300332225859165,253.228098084277 50.654485049657524,252.8159777855617 50.36744186049327,252.5687055088929 50.00863787345588,252.07416073593777 49.5063122920692,251.49719146447023 48.64518272411078,250.83779752347618 48.64518272411078,250.59052466176217 48.50166112976149,250.17840306239668 48.35813953494653,249.84870563674485 48.1428571427241,248.77718810515944 48.35813953494653,248.3650656118407 48.42990033188835,247.9529429153772 48.50166112976149,247.62324461177923 48.573421927168965,247.37597079877742 48.573421927168965,246.96384761441732 48.573421927168965,245.89232638437534 48.573421927168965,245.15050318959402 49.3627906977199,244.82080378045794 49.936877076514065,244.49110424134415 50.43920265790075,244.32625442295102 50.79800664447248,244.24382950161817 50.941528239287436,244.07897963450523 51.94617940206081,243.99655468884157" stroke="#4dd2ff" stroke-linecap="round" stroke-linejoin="round" stroke-width="0.5"><title>2020-12-25 1.0km</title></polyline><polyline fill="none" points="85.03544575697742,249.29294063308043 85.38345864648,249.6260453199502 85.6734693874605,249.95914984249976 86.31149301794358,250.35887505300343 88.80558539181948,251.02508321136702 90.13963480107486,251.42480779107427 91.00966702471487,251.62466999236494 95.0698174003046,253.2235654728138 96.22986036492512,254.02301179413917 97.5639097741805,254.62259591399925 99.53598281391896,255.35542022710433 100.2900107409805,255.48866092576645 101.68206229852512,255.48866092576645 102.49409237364307,255.48866092576645 103.88614393095486,255.22217950213235 105.16219119238667,255.08893875055946 106.6122448979877,255.15555912960554 107.42427497310564,255.08893875055946 109.68635875405744,255.48866092576645 110.44038668088615,255.75514224445214 111.89044038648717,256.0216234581312 112.70247046207078,255.95500316447578 114.1525241676718,255.8883828644175 114.79054779815488,255.82176255778177 115.42857142840512,256.0882437452092 115.37056928011589,256.15486402547685 115.19656283594668,256.22148429922527 115.13856068742462,256.28810456662904 115.13856068742462,256.3547248272225 115.08055853913538,256.28810456662904 114.96455424278975,256.42134508123854 114.96455424278975,256.28810456662904 115.02255639107898,256.3547248272225 115.08055853913538,256.42134508123854 115.02255639107898,256.3547248272225 115.13856068742462,256.22148429922527 115.08055853913538,256.22148429922527 115.02255639107898,256.22148429922527 115.02255639107898,256.28810456662904 115.02255639107898,256.22148429922527 115.02255639107898,256.22148429922527 115.02255639107898,256.22148429922527 115.02255639107898,256.28810456662904 114.96455424278975,256.28810456662904 114.96455424278975,256.28810456662904 114.90655209426768,256.28810456662904 114.84854994644411,256.28810456662904 114.96455424278975,256.28810456662904 114.96455424278975,256.28810456662904 114.96455424278975,256.28810456662904 114.90655209426768,256.28810456662904 114.90655209426768,256.3547248272225 114.79054779815488,256.28810456662904 113.45649838866666,256.28810456662904 111.9484425347764,256.28810456662904 110.44038668088615,255.95500316447578 109.74436090211384,255.75514224445214 108.29430719627999,255.35542022710433 107.5402792696841,255.22217950213235 105.97422126727179,255.22217950213235 105.22019334044307,255.15555912960554 103.65413533826359,255.28879986773245 102.03007518779486,255.48866092576645 101.27604726096615,255.48866092576645 99.70998925878666,255.42204057972413 98.89795918343589,255.22217950213235 95.2438238451723,254.02301179413917 94.48979591834359,253.75652979197912 92.34371643397026,253.2235654728138 91.76369495131075,253.15694490342867 89.44360902253538,252.7572213485837 88.10955961304717,252.1576355729485 87.35553168621846,251.75791142700473 85.90547798061743,250.95846242510015 84.57142857136205,250.49211673723767" stroke="#4dd2ff" stroke-linecap="round" stroke-linejoin="round" stroke-width="0.5"><title>2020-12-08 1.1km</title></polyline><polyline fill="none" points="121.0,249.6764347399003 121.29670329671353,249.73323341022478 123.27472527488135,251.26679538562894 123.91758241760544,251.49398940510582 126.43956043967046,252.23236934945453 127.62637362652458,252.57315977377584 128.21978021995164,252.8003532778239 129.60439560445957,253.31153833464487 130.84065934084356,253.93631945445668 131.48351648380049,254.33390708692605 134.64835164835677,255.4130721343099 135.3406593410764,255.46987023862312 137.31868131877854,255.24267778755166 137.9120879122056,255.18587966065388 141.02747252746485,255.24267778755166 141.67032967018895,255.29947590868687 143.59890109905973,255.86745681258617 145.57692307699472,256.0378509744187 146.17032967042178,255.98105292598484 147.45604395633563,256.0378509744187 149.4340659340378,255.7538606764865 150.02747252746485,255.697062600113 151.26373626384884,255.58346643054392 151.8571428572759,255.5266683374648 151.60989011009224,255.07228339032736 150.22527472535148,255.01548524666578 149.63186813192442,255.07228339032736 148.39560439577326,255.4130721343099 147.95054945070297,255.5266683374648 146.66483516502194,255.8106587473303 146.07142857136205,255.86745681258617 144.8351648352109,255.86745681258617 144.1923076924868,255.7538606764865 142.9560439561028,255.5266683374648 142.36263736290857,255.35627402423415 140.4340659340378,255.01548524666578 139.7912087913137,255.01548524666578 138.50549450563267,255.07228339032736 137.81318681314588,255.07228339032736 136.52747252769768,255.18587966065388 135.24175824178383,255.24267778755166 134.00549450563267,255.18587966065388 132.81868131877854,254.90188894275343 132.22527472535148,254.73149444488809 130.9395604399033,254.33390708692605 130.3461538462434,254.1067141876556 129.15934065938927,253.7091263983748 127.57692307676189,253.25474001734983 127.13186813192442,253.19794169458328 125.9450549450703,252.9139499963494 124.3131868133787,252.40276458679 123.86813186830841,252.06197406176943 122.82967032981105,251.49398940510582 122.28571428591385,251.20999686670257" stroke="#4dd2ff" stroke-linecap="round" stroke-linejoin="round" stroke-width="0.5"><title>2020-12-03 1.3km</title></polyline><polyline fill="none" points="187.95975855132565,253.66833307308843 188.23138832999393,254.66671260155272 188.28571428568102,254.97870588110527 187.362173038302,255.5402933966252 185.78672032197937,255.47789480845677 183.6136820926331,255.1035031498759 181.54929577442817,254.22992175177205 180.84305835026316,254.10512431059033 176.822937625926,252.54515422077384 175.35613682074472,252.29555864923168 173.12877263571136,252.35795755143045 171.60764587507583,252.29555864923168 170.52112676063552,252.29555864923168 169.86921529169194,252.29555864923168 168.40241448697634,252.17076082678977 167.91348088532686,252.10836190643022 166.22937625739723,251.9835640466772 165.57746478868648,251.9211651078076 163.29577464796603,251.73396825394593 162.58953722310252,251.60917032061843 161.17706237430684,251.48437236261088 159.32997987954877,250.6731850358192 158.62374245468527,250.42358872608747 157.42857142863795,250.17399231769377 158.78672032197937,250.48598781274632 159.9818913480267,251.04757931584027 161.17706237430684,251.60917032061843 161.88329979870468,251.67156929027988 163.67605633824132,251.85876616259338 164.21931589534506,251.9211651078076 165.6317907446064,252.0459629795514 166.33802816877142,252.10836190643022 167.80482897395268,252.10836190643022 168.45674044266343,252.17076082678977 169.92354124761187,252.29555864923168 170.57545271632262,252.29555864923168 172.5855130783748,252.35795755143045 173.23742454731837,252.35795755143045 174.2152917503845,252.23315974109573 174.5412474849727,252.23315974109573 174.75855130772106,252.23315974109573 174.97585513070226,252.23315974109573 175.19315895368345,252.23315974109573 175.46478873235174,252.17076082678977 175.73641851102002,252.17076082678977 176.2796780683566,252.23315974109573 176.49698189133778,252.23315974109573 176.98591549298726,252.42035644722637 177.47484909463674,252.66995196935022 177.42052313894965,252.7947496934794 177.42052313894965,252.85714854625985 177.36619718302973,252.85714854625985" stroke="#4dd2ff" stroke-linecap="round" stroke-linejoin="round" stroke-width="0.5"><title>2020-11-30 1.0km</title></polyline></svg>