<?xml version="1.0" encoding="utf-8" ?>
<svg baseProfile="full" height="300mm" version="1.1" viewBox="0,0,200,300" width="200mm" xmlns="http://www.w3.org/2000/svg" xmlns:ev="http://www.w3.org/2001/xml-events" xmlns:xlink="http://www.w3.org/1999/xlink"><defs /><rect fill="#222222" height="300" width="200" x="0" y="0" /><text fill="#FFFFFF" style="font-size:12px; font-family:Arial; font-weight:bold;" x="10" y="20">Over 3km Runs</text><text fill="#FFFFFF" style="font-size:4px; font-family:Arial" x="10" y="280">ATHLETE</text><text fill="#FFFFFF" style="font-size:9px; font-family:Arial" x="10" y="290">jdzj</text><text fill="#FFFFFF" style="font-size:4px; font-family:Arial" x="120" y="280">STATISTICS</text><text fill="#FFFFFF" style="font-size:3px; font-family:Arial" x="120" y="285">Number: 28</text><text fill="#FFFFFF" style="font-size:3px; font-family:Arial" x="120" y="290">Weekly: 3.5</text><text fill="#FFFFFF" style="font-size:3px; font-family:Arial" x="141" y="285">Total: 52.8 km</text><text fill="#FFFFFF" style="font-size:3px; font-family:Arial" x="141" y="290">Avg: 1.9 km</text><text fill="#FFFFFF" style="font-size:3px; font-family:Arial" x="167" y="285">Min: 1.0 km</text><text fill="#FFFFFF" style="font-size:3px; font-family:Arial" x="167" y="290">Max: 3.7 km</text><polyline fill="none" points="44.20000000001164,50.9586231186986 43.251046025019605,51.21165895949525 42.86129707109649,50.41362174417009 42.183472803328186,50.14112049246614 41.31924686185084,50.35522865044186 41.01422594138421,50.102191711441264 40.590585774043575,49.518259075513924 41.336192468588706,48.19467203693057 41.082008368102834,47.221440609399 40.57364016736392,47.00732905125187 36.62531380756991,47.279834630462574 33.253138075291645,46.987864352588076 31.60941422590986,47.3771579604072 30.914644351461902,47.104652515554335 29.7962343096151,47.221440609399 29.52510460256599,46.987864352588076 27.32217573217349,47.240905284983455 26.54267782426905,46.96839965200343 25.644560669432394,47.221440609399 24.746443514653947,46.8516114083759 22.848535564844497,47.20197593190824 21.289539748919196,46.57910523783357 20.001673640217632,46.73482309568499 19.27301255229395,45.83944373506529 17.951255230116658,45.91730297113827 16.74811715481337,45.54747132596094 16.256694560695905,45.78104928777611 15.578870292927604,45.11924434451794 14.5790794978966,45.469611943903146 13.12175732216565,44.9829901100602 12.274476987484377,45.43068224140734 12.8675732218544,45.00245500644087 13.003138075291645,45.6642603414075 11.799999999988358,45.60586584232806 12.816736401699018,45.236033613444306 12.325313807581551,45.35282281324908 12.850627615116537,45.313893087688484 12.426987447717693,45.48907679230615 12.698117154825013,45.78104928777611 12.410041841038037,45.54747132596094 12.816736401699018,45.41121738718357 12.698117154825013,45.197103864804376 12.359205020940863,45.313893087688484 12.47782426775666,45.60586584232806 13.003138075291645,45.39175253112626 12.748953974922188,45.2944282219687 12.715062761562876,45.56693616665143 12.850627615116537,45.21656874012842 12.664225941465702,45.56693616665143 12.782845188281499,45.2944282219687 12.8675732218544,45.50854163877375 12.613389121368527,44.807805956108496 12.765899581660051,45.313893087688484 12.68117154808715,44.9829901100602 12.715062761562876,45.313893087688484 12.376150627620518,45.06084968414507 12.494769874494523,44.885665599271306 12.613389121368527,45.06084968414507 12.359205020940863,45.15817410852469 12.698117154825013,45.3333579514001 12.426987447717693,45.177638987632236 12.748953974922188,44.885665599271306 12.511715481174178,45.2944282219687 12.240585774066858,45.2944282219687 12.511715481174178,44.788341040490195 12.257531380746514,44.96352521177323 12.664225941465702,45.313893087688484 12.376150627620518,45.13870922745264 12.426987447717693,45.313893087688484 12.511715481174178,45.15817410852469" stroke="#4dd2ff" stroke-linecap="round" stroke-linejoin="round" stroke-width="0.5"><title>2021-04-09 2.9km</title></polyline><polyline fill="none" points="79.54596273321658,49.73365360999014 69.38322981400415,46.786456285219174 68.22608695668168,45.68847702111816 61.08198757795617,46.266361100948416 55.9000000001397,45.746265454858076 56.855900621274486,46.32414947764482 56.403105590026826,46.55530292709591 47.800000000046566,44.59049569943454 54.94409937877208,46.72866795427399 65.2074534164276,47.59549232129939 79.44534161500633,51.40950430056546 77.53354037296958,50.65826148027554 80.19999999995343,50.31153369997628 79.49565217387863,49.444713351200335" stroke="#4dd2ff" stroke-linecap="round" stroke-linejoin="round" stroke-width="0.5"><title>2021-04-09 1.4km</title></polyline><polyline fill="none" points="85.0886363638565,46.202684941352345 86.65340909105726,47.524254894582555 97.97500000009313,51.858981469646096 102.99147727293894,51.64753220608691 107.36363636399619,52.54619099991396 115.46363636408933,51.64753220608691 116.20000000018626,50.74887190561276 112.9323863638565,49.90307259937981 109.02045454550534,50.696009488077834 104.97045454569161,49.16299711156171 101.61079545482062,49.42730990314158 95.90397727279924,46.51986202725675 95.1676136367023,45.1454266323708 91.9000000001397,43.8767139086267 89.41477272752672,43.45380900008604 83.80000000004657,44.828248732956126" stroke="#4dd2ff" stroke-linecap="round" stroke-linejoin="round" stroke-width="0.5"><title>2021-04-08 1.4km</title></polyline><polyline fill="none" points="151.9896103895735,49.35330095136305 152.19999999995343,50.46493292838568 149.4649350650143,50.5132646963757 142.22753246757202,48.04833845613757 131.28727272711694,47.516686072718585 125.52259740256704,45.4867353036243 119.80000000004657,46.356715234403964 125.22805194789544,45.728396550461184 130.99272727267817,47.468354009324685 141.7225974027533,47.95167442932143" stroke="#4dd2ff" stroke-linecap="round" stroke-linejoin="round" stroke-width="0.5"><title>2021-04-06 1.3km</title></polyline><polyline fill="none" points="165.69461077847518,43.134925054211635 169.76886227540672,41.86249870999018 171.4502994013019,43.20977359410608 171.4502994013019,44.63189440732822 170.35089820367284,45.23068129591411 172.29101796401665,47.326431569992565 174.29580838303082,47.55097588838544 176.8826347303111,46.35340539913159 179.79281437117606,42.68583365442464 182.3796407186892,43.658864674158394 184.51377245527692,42.386439235764556 188.13532934128307,42.83553081803257 188.13532934128307,38.26975362806115 187.74730538926087,41.03916284447769 185.61317365267314,40.66491896478692 188.20000000018626,41.11401159770321 188.0706586826127,43.06007650657557 182.5089820357971,43.58401617966592 179.79281437117606,42.61098506132839 175.3952095808927,48.149760402331594 176.42994011985138,47.25158344878582 171.5796407184098,47.17673531989567 170.60958083812147,45.530074557696935 172.032335329568,45.530074557696935 171.90299401199445,44.78159117506584 170.2215568863321,41.787650032900274 169.51017964049242,42.83553081803257 168.08742514974438,42.68583365442464 166.27664670627564,46.57795001438353 160.26227544876747,49.72156743326923 158.3221556886565,53.314256613492034 158.06347305350937,50.544893586076796 157.54610778414644,54.06273131881608 157.09341317345388,52.41608596255537 157.54610778414644,53.53879910509568 157.15808383212425,52.56578114721924 159.80958083830774,53.91303643863648 161.94371257466264,57.13146965234773 164.72455089795403,56.906928257027175 165.50059880223125,55.335136570676696 163.8191616765689,54.586663159541786 165.30658682622015,54.586663159541786 164.59520958084613,55.48483116179705 163.9485029936768,54.88605261547491 164.72455089795403,55.78422025218606 164.91856287419796,55.03574729769025 165.2419161675498,56.75723395525711 164.1425149696879,57.73024637193885 160.58562874235213,57.430858073115814 157.28742514923215,53.53879910509568 157.86946107749827,50.17065453995019 158.2574850297533,52.86517142492812 155.80000000004657,54.287273581838235 156.5113772454206,53.0897140535526 156.0586826344952,54.586663159541786 157.86946107749827,53.314256613492034 158.12814371241257,50.020958868204616" stroke="#4dd2ff" stroke-linecap="round" stroke-linejoin="round" stroke-width="0.5"><title>2021-04-05 1.9km</title></polyline><polyline fill="none" points="37.28055362205487,97.32409304883913 36.01000163808931,97.96375913082738 36.5071741535794,97.19615967597929 37.39103640336543,97.19615967597929 37.58438127033878,96.6524422596558 36.59003623947501,102.56931644058204 34.46324270113837,104.10448719415581 34.352759919827804,105.0 34.26989783404861,104.10448719415581 36.672898325370625,102.66526483261259 37.473898489261046,99.53093552251812 38.026312395348214,94.54153042312828 36.64527763007209,93.55003663009848 33.66224253724795,93.00631289774901 31.89451803790871,94.38161228128592 28.193344867322594,95.43707051186357 21.453895213082433,99.4989524090488 20.238584619713947,97.54797632578993 18.829929159372114,98.1556587011728 18.16703247197438,97.89979258124367 14.300135129480623,81.30003233184107 14.079169567092322,78.26144550659228 16.04023893363774,87.15322719322285 16.64789423032198,87.4091020739288 23.746412923326716,84.17866639708518 29.215310593368486,82.41950427246047 32.64027681108564,80.5004070722207 37.44627779384609,76.6301920216647 40.291209410177544,72.60000000000582 41.92083043302409,73.43163116331561 41.72748556593433,73.68751723170863 41.06458887865301,73.46361693326617 41.45127861283254,73.14375908699003 41.45127861283254,73.65553148457548 41.61700278474018,72.79191507949145 40.67789914435707,73.0797874784912" stroke="#4dd2ff" stroke-linecap="round" stroke-linejoin="round" stroke-width="0.5"><title>2021-04-05 3.7km</title></polyline><polyline fill="none" points="55.975700934417546,77.05247579992283 61.123364485800266,81.14368799887598 65.36261682258919,92.94967564521357 65.46355140162632,98.91106876486447 67.78504672879353,98.44350964063779 70.10654205596074,100.54752419993747 75.35514018684626,96.69016122550238 80.1999999997206,97.97595032514073 70.30841121450067,95.63815088907722 70.30841121450067,99.49551740277093 70.81308411248028,94.11857869965024 70.61121495300904,99.72929677448701 70.91401869105175,97.85906046675518 66.87663551373407,98.67728922667447 69.60186915891245,96.92394116905052 71.0149532710202,99.49551740277093 68.49158878484741,97.85906046675518 70.30841121450067,97.39150091307238 69.90467289742082,99.61240709444974 71.0149532710202,99.61240709444974 69.70280373841524,97.27461099473294 72.0242990651168,100.19685537496116 69.70280373841524,98.09284017176833 69.90467289742082,96.22260119521525 71.62056074757129,98.91106876486447 70.00560747645795,96.33949122042395 67.28037383174524,96.22260119521525 66.0691588781774,99.26173798344098 66.37196261668578,97.74217059637886 61.22429906530306,93.88479818427004 63.2429906539619,86.40379651915282 61.22429906530306,87.2220334536396 61.32523364527151,84.18286475422792 55.37009345786646,80.909904838074 47.799999999813735,81.61125417810399 52.03925233660266,83.13084294286091 53.45233644871041,87.1051424985053" stroke="#4dd2ff" stroke-linecap="round" stroke-linejoin="round" stroke-width="0.5"><title>2021-04-04 1.4km</title></polyline><polyline fill="none" points="103.80111731821671,74.29647369217128 93.75530726229772,78.87112133065239 84.07150838011876,90.0997176807141 93.21229050308466,100.1845586883137 98.55195530736819,94.15445917437319 104.79664804507047,91.55526770476718 104.97765363147482,88.1243251459673 110.76983240200207,83.86162337241694 102.2625698321499,73.04883907025214 95.11284916196018,77.83143042994197 83.79999999981374,90.72352508013137 93.03128491621464,99.04092177760322 98.46145251393318,92.69891274138354 107.33072625705972,91.2433642973192 109.95530726294965,89.26797390705906 111.31284916214645,84.06956044433173 110.95083798887208,83.13384329667315 109.86480446951464,85.21321360673755 106.697206703946,86.77273864636663 106.60670391097665,85.83702389954124 116.20000000018626,79.49493537889794 112.67039106180891,77.62349212670233 108.95977653609589,73.04883907025214 106.87821229035035,76.47983072488569 100.54301675967872,73.77662611252163 88.05363128473982,85.00527676043566 84.16201117262244,90.51558932138141 93.21229050308466,99.04092177760322 98.55195530736819,93.42668620916083 99.36648044688627,94.05049163871445 97.10391061427072,97.16951324569527 109.50279329624027,99.76869086455554 113.484916201327,104.55116092984099 105.06815642444417,89.16400588897523 105.97318435786292,86.35686552803963 110.40782122965902,82.6140000782907 105.52067039115354,79.5989043507725 102.80558659229428,74.40044317720458 100.90502793295309,73.67265656590462 99.27597765345126,74.81632101512514 100.09050279343501,75.54410683631431" stroke="#4dd2ff" stroke-linecap="round" stroke-linejoin="round" stroke-width="0.5"><title>2021-04-02 3.1km</title></polyline><polyline fill="none" points="139.6765957447933,101.32119667343795 135.88510638312437,100.00148690427886 128.73297872347757,99.86951564098126 120.97765957459342,98.8467365851102 120.31702127680182,98.21987045675633 119.80000000004657,95.08552219255944 120.54680851078592,94.4916423697141 122.09787234046962,94.42565565751283 120.69042553205509,90.03751008637482 121.03510638314765,84.09857477073092 123.18936170230154,81.03008353771293 124.05106382991653,78.9514121907414 128.1585106384009,76.11383997151279 129.8244680853095,77.92856916596065 131.3755319149932,78.2585188705416 132.17978723417036,79.2153711731371 135.5691489361925,79.2153711731371 140.79680851078592,80.04024165045121 143.32446808519308,81.36003018252086 147.5180851065088,85.08840464690002 151.4819148934912,91.951144557097 151.59680851059966,92.84197066220804 150.67765957443044,93.6338140972075 150.30425531917717,94.8875623687345 151.10851063835435,94.85456905336468 152.20000000006985,97.65898924076464 151.4819148934912,99.14367276226403 148.98297872347757,99.60557295824401 148.37978723400738,100.36440760985715 146.97234042547643,99.67155864837696 146.36914893623907,99.93550127916387 144.87553191487677,99.47360153877526 144.15744680853095,101.48616002846393 143.92765957443044,101.25521130865673" stroke="#4dd2ff" stroke-linecap="round" stroke-linejoin="round" stroke-width="0.5"><title>2021-04-02 3.2km</title></polyline><polyline fill="none" points="159.19469496048987,86.06068351896829 170.15225464198738,90.94703672511969 176.08222811692394,90.89767986044171 179.6917771883309,91.73674589607981 184.54748010635376,90.55218167236308 188.20000000018626,90.6015385708306 179.94960212218575,91.68738910951652 176.34005305054598,90.84832299110712 170.4960212202277,91.14446413470432 162.93315649894066,88.97275834553875 155.80000000004657,85.8632541038969" stroke="#4dd2ff" stroke-linecap="round" stroke-linejoin="round" stroke-width="0.5"><title>2021-04-01 1.4km</title></polyline><polyline fill="none" points="11.800000000046566,125.51911250897683 15.458919803844765,129.23456076392904 19.754173486260697,130.1481921565719 24.791816694196314,132.76726132445037 31.685433715581894,132.64544440014288 35.50343698868528,133.6808874909766 44.200000000186265,132.64544440014288 38.10180032765493,133.55907074688002 30.7309328969568,132.4627189686871 24.15548281534575,132.76726132445037 14.292307692347094,130.08728343906114 13.284779051085934,129.5391047115554 14.451391162350774,129.05183432309423" stroke="#4dd2ff" stroke-linecap="round" stroke-linejoin="round" stroke-width="0.5"><title>2021-03-29 1.2km</title></polyline><polyline fill="none" points="63.4091616012156,145.79999999998836 61.8992412481457,137.28571408067364 60.84886187198572,136.98432169511216 55.72826241445728,129.60017122566933 52.31452944246121,129.29877581761684 62.94962062384002,113.39999999996508 66.49465101771057,115.58515935624018 73.45341438357718,122.66804685239913 72.73127856268547,127.71644798107445 75.68547055730596,145.04652718489524 66.29770488501526,138.79267422982957 62.883971912786365,138.11454252933618 62.55572835798375,139.5461531933397" stroke="#4dd2ff" stroke-linecap="round" stroke-linejoin="round" stroke-width="0.5"><title>2021-03-28 1.4km</title></polyline><polyline fill="none" points="99.60123076941818,123.73131110635586 101.44553846144117,124.81917889096076 101.89415384619497,123.9030798394233 103.68861538451165,123.78856735629961 104.08738461555913,122.87246667820727 104.63569230749272,123.50228604977019 105.48307692306116,122.87246667820727 108.12492307671346,124.36112954601413 109.67015384626575,123.21600460197078 114.20615384588018,124.59015426354017 113.90707692317665,123.4450297714211 116.05046153836884,123.67405485076597 114.45538461534306,123.10149198333966 114.85415384615771,122.18539022078039 114.95384615380317,123.4450297714211 114.70461538457312,122.87246667820727 114.1563076924067,123.61679858935531 114.25600000005215,122.70069764001528 114.95384615380317,123.67405485076597 114.20615384588018,123.4450297714211 115.70153846149333,123.27326090278802 115.70153846149333,123.84582360059721 115.0535384612158,123.04423566540936 114.0067692308221,123.61679858935531 116.10030769230798,123.27326090278802 115.45230769226328,122.75795399176423 115.25292307697237,124.47564191615675 114.35569230769761,123.73131110635586 114.25600000005215,124.36112954601413 115.50215384596959,123.55954232241493 114.95384615380317,123.61679858935531 116.19999999995343,125.16271566256182 116.05046153836884,123.50228604977019 115.30276923091151,123.61679858935531 115.70153846149333,124.41838573379209 114.60492307692766,124.76192274270579 114.45538461534306,124.13210473791696 113.8572307692375,124.99094730213983 111.7636923075188,124.70466658868827 111.7636923075188,123.55954232241493 112.2621538459789,133.4075371863437 106.62953846156597,134.66715238476172 102.04369230754673,133.1785159477149 102.39261538465507,133.92283464351203 100.99692307692021,133.1785159477149 92.92184615368024,132.7777285623015 88.88430769252591,133.98008988820948 88.53538461541757,136.04127493838314 87.5883076924365,136.78558996337233 84.34830769221298,137.01460977923125 83.80000000004657,136.09852997411508" stroke="#4dd2ff" stroke-linecap="round" stroke-linejoin="round" stroke-width="0.5"><title>2021-03-26 1.5km</title></polyline><polyline fill="none" points="123.22439024411142,127.54689791394048 133.49756097584032,131.73955366492737 137.11010452965274,131.48021529777907 140.27108013955876,132.17178393597715 144.82439024397172,131.26409987456282 146.63066202099435,131.48021529777907 152.19999999995343,129.49194938404253 147.27038327534683,131.48021529777907 140.9108013936784,131.9988918787276 137.56167247402482,131.3073229677393 133.83623693394475,131.60988450056175 125.82090592337772,129.66484243026935 119.80000000004657,127.02821606400539" stroke="#4dd2ff" stroke-linecap="round" stroke-linejoin="round" stroke-width="0.5"><title>2021-03-26 1.6km</title></polyline><polyline fill="none" points="188.19999999995343,132.474894749932 185.72461799671873,132.15897358994698 182.03904923587106,129.82115216256352 178.9035653648898,129.8843366377987 174.39286926970817,128.11516898003174 163.39117147680372,128.43109213450225 165.04142614570446,129.25249160657404 164.38132427842356,129.44204518123297 155.80000000004657,126.72510525007965 162.73106960905716,129.37886066245846 172.5775891339872,130.01070556923514 180.99388794554397,132.0326050821459" stroke="#4dd2ff" stroke-linecap="round" stroke-linejoin="round" stroke-width="0.5"><title>2021-03-24 1.1km</title></polyline><polyline fill="none" points="44.199999999953434,172.77654312117375 41.86684782593511,172.62484956008848 39.5777173913084,170.90565273165703 35.923913043458015,170.2988760038279 32.93043478252366,168.93362574087223 23.773913043551147,169.13588526839158 24.566304347943515,169.9954873706447 17.390760869719088,168.0234568788146 11.800000000046566,168.73136613337556 14.00108695635572,169.0347555145563 17.566847825888544,168.07402185807587 24.17010869574733,170.09661693513044 36.18804347817786,170.60226445752778" stroke="#4dd2ff" stroke-linecap="round" stroke-linejoin="round" stroke-width="0.5"><title>2021-03-23 1.3km</title></polyline><polyline fill="none" points="79.55372340418398,172.00839395646472 68.65319148940034,168.1977517301857 64.21542553184554,168.94008690092596 59.82074468093924,168.44519690907327 61.027127659413964,169.2370206618798 60.55319148930721,169.3854874765093 53.616489361505955,167.3069480752456 47.800000000046566,168.14826267960598 53.185638297814876,167.4059263372328 59.69148936169222,169.28650960486266 68.30851063830778,169.88037654096843 80.19999999995343,173.49305192477186 78.26117021264508,172.55276905483333 80.19999999995343,172.00839395646472" stroke="#4dd2ff" stroke-linecap="round" stroke-linejoin="round" stroke-width="0.5"><title>2021-03-22 1.6km</title></polyline><polyline fill="none" points="111.3908186686458,154.40035543809063 111.83703136956319,154.71325449101278 111.58913542469963,155.70884013775503 113.84498852340039,156.05018300018855 114.43993879109621,156.53375136666 114.24162203527521,157.41555042698747 115.13404743687715,158.01289665215882 116.20000000006985,159.86181763574132 115.55547054321505,161.56850345237763 114.61346595268697,161.9667286958138 114.2664116298547,162.9907339506317 109.68033664883114,166.9729421932716 104.62325937265996,168.93558182899142 103.03672532516066,169.95956244683475 101.82203519518953,170.98353944465634 98.2771231828956,175.87582402906264 83.80000000004657,186.39964456189773" stroke="#4dd2ff" stroke-linecap="round" stroke-linejoin="round" stroke-width="0.5"><title>2021-03-21 1.3km</title></polyline><polyline fill="none" points="134.48717086960096,167.58517857064726 134.0759163488401,164.9553862385219 131.2558853487717,161.44896509093815 130.11024775495753,161.1118073220132 126.23270512965973,164.65194736397825 122.38453782745637,169.54065210354747 121.41515217127744,169.81037171575008 120.35764054628089,172.67612949531758 122.14953524421435,175.23843382069026 126.40895706729498,177.261292134237 131.02088276529685,181.00354856130434 130.7565048590768,181.20583152933978 131.37338664045092,181.1384038865799 130.81525550503284,180.83497933024773 131.52026325499173,182.01496220807894 133.07715536956675,183.86921281428658 138.98159527604003,186.60000000000582 142.03662885946687,186.29658027520054 149.23358297417872,181.2732591587701 150.20296863059048,179.2504245080927 151.6423594536027,172.77727345007588 150.20296863059048,170.28238052679808 144.8272845367901,165.32625560936867 139.01097059901804,158.0099402925116 134.69279812998138,154.20000000001164 129.84586984862108,160.9432283131464 130.72712953633163,161.04437572840834 131.93151777575258,162.1569953270373 134.28154360922053,165.15767867234536 134.25216828635894,166.101708452421" stroke="#4dd2ff" stroke-linecap="round" stroke-linejoin="round" stroke-width="0.5"><title>2021-03-20 3.7km</title></polyline><polyline fill="none" points="185.00788177340291,178.55822520283982 173.9418719210662,175.0138642701204 162.2374384237919,174.6472050852026 155.95960591128096,173.30278621782782 155.80000000004657,171.10282177833142 156.70443349750713,170.12505729758414 155.85320197045803,168.4750762374606 156.0660098521039,165.6028765020892 159.41773399012163,162.24177479714854 164.9507389164064,162.91399659699528 170.59014778328128,164.8084359265631 181.23054187186062,164.5639924677671 186.9231527093798,163.64732863759855 187.61477832496166,162.85288555437 186.60394088667817,165.17510093428427 185.96551724127494,173.0583461103961 186.49753694585524,177.09159555193037 188.19999999995343,177.39714368217392" stroke="#4dd2ff" stroke-linecap="round" stroke-linejoin="round" stroke-width="0.5"><title>2021-03-19 1.6km</title></polyline><polyline fill="none" points="24.930394431692548,210.86902018316323 31.97169373568613,213.8911401220539 34.70301624154672,213.7184483971505 37.083526682225056,214.2365232652519 39.58932714629918,213.68966643314343 40.917401392245665,213.8047942724079 44.20000000006985,212.82620619080262 38.11090487265028,214.20774135220563 34.97865429252852,213.7184483971505 31.47053364291787,213.86235817504348 17.463109048898332,209.40112206328195 11.800000000046566,208.79669127948 13.027842227485962,208.96938591680373 12.20092807430774,208.6239965398563 12.451508120750077,208.48008417879464 14.355916473316029,208.5952140733716 16.886774942162447,208.16347673471319 17.73874709988013,208.79669127948 18.23990719264839,208.48008417879464 18.84129930404015,209.05573319725227 19.367517401464283,208.88303861100576 20.04408352682367,209.45868683455046 20.896055684657767,209.14208045203122 22.650116009404883,210.40850392080029 23.000928074354306,209.97676926487475 22.098839907324873,208.6239965398563 21.74802784237545,208.65277900357614 21.87331786553841,209.63138108013663 23.502088167122565,210.43728620850015 24.17865429248195,208.8254737261741 24.554524362203665,209.6025987129833 25.05568445485551,209.51625159435207 24.529466357431374,209.660163444496 24.830162413185462,209.5738163429196 24.10348027863074,208.56643160403473 25.180974478134885,208.48008417879464" stroke="#4dd2ff" stroke-linecap="round" stroke-linejoin="round" stroke-width="0.5"><title>2021-03-19 3.1km</title></polyline><polyline fill="none" points="61.43423154577613,227.39999999999418 61.252262151800096,226.83565530143096 60.90652030345518,226.7729502421571 60.39700600039214,227.25368855577835 61.0157019397011,223.72128159920976 60.77914172760211,224.57826147784363 60.888323363964446,226.14589862881985 60.54258151561953,226.41762122241198 58.5773120613303,226.3758177691343 58.34075184923131,225.12171033676714 58.50452430371661,224.01390926454042 63.272122424212284,222.94790653850941 66.47478375711944,222.73888576740865 66.3656021207571,202.52560308281682 67.43922154488973,201.14592919911956 69.65924815065227,199.18092360945593 69.25891548395157,198.17750946925662 66.54757151473314,194.99999999998545" stroke="#4dd2ff" stroke-linecap="round" stroke-linejoin="round" stroke-width="0.5"><title>2021-03-18 2.7km</title></polyline><polyline fill="none" points="94.78849373728735,224.72641299921088 95.69558678148314,224.88368381554028 95.8325064862147,225.6503772680735 96.17480574810179,225.84696485774475 98.02322176244343,226.2204807440139 100.4193165958859,226.00423478984158 102.07946801616345,226.47604384178703 103.61981469480088,227.39999999999418 104.0134588459041,226.16150459794153 103.79096432571532,220.91255770938005 105.21150626271265,220.77494301002298 103.1748256542487,220.20482395743602 101.20660489820875,220.10652740424848 100.33374178042868,219.16287802677834 98.60513050766895,201.29167431416863 100.48777644825168,199.08961090500816 101.82274356967537,198.32281525481085 100.86430563637987,196.6122604770353 99.22126917913556,195.0" stroke="#4dd2ff" stroke-linecap="round" stroke-linejoin="round" stroke-width="0.5"><title>2021-03-17 2.8km</title></polyline><polyline fill="none" points="120.89148936187848,209.45147919963347 121.29361702152528,209.45147919963347 123.30425531952642,210.3092608124134 123.87872340437025,211.03507516434183 129.85319148935378,212.68465030839434 136.1723404256627,213.54242777614854 138.29787234053947,213.41046208370244 139.79148936178535,213.74037626659265 140.5382978725247,214.00430749566294 143.52553191501647,214.46618689625757 145.9957446809858,215.45592739555286 146.80000000004657,215.65387531963643 148.17872340464965,216.37968387379078 149.32765957480296,217.10549164039548 149.78723404277116,217.2374566043727 150.30425531952642,217.50138645415427 151.56808510655537,217.8312986199162 152.20000000018626,217.76531619986054 152.14255319186486,217.76531619986054 152.14255319186486,217.76531619986054 151.970212766435,217.8312986199162 152.08510638331063,217.76531619986054 152.14255319186486,217.76531619986054 152.20000000018626,217.8312986199162 151.85531914886087,217.76531619986054 151.10851063858718,217.76531619986054 148.58085106383078,217.8312986199162 146.85744680883363,217.30343907664064 145.19148936192505,216.97352665057406 143.52553191501647,216.8415616346756 141.85957446834072,216.90754414570983 140.99787234072573,216.97352665057406 139.33191489381716,217.10549164039548 138.5851063830778,217.10549164039548 136.0,216.90754414570983 135.19574468093924,216.70959659246728 133.6446808509063,216.31370131042786 132.84042553207837,215.9178057941026 131.28936170227826,215.38994474092033 130.4851063832175,215.12601405836176 127.2106382981874,214.46618689625757 125.08510638331063,213.60841061285464 124.91276595764793,213.2125134957023 125.60212765960023,213.080547737889 125.88936170237139,213.080547737889 126.11914893635549,212.81661614443874 125.88936170237139,212.75063322967617 125.3148936170619,212.61866738076787 125.02765957452357,212.55268444668036 124.8553191490937,212.48670150589896 124.51063829800114,212.48670150589896 124.28085106401704,212.35473560495302 123.99361702147871,212.35473560495302 123.70638297870755,212.35473560495302 123.30425531952642,212.22276967804646 123.01702127675526,212.09080372512108 122.84468085109256,212.0248207388213 122.2702127660159,211.69490571005736 122.09787234058604,211.56293965294026 121.8106382980477,211.36499051837018 121.63829787261784,211.23302439635154 121.46595744695514,211.03507516434183 121.23617021273822,210.77114276384236 120.83404255332425,210.44122711685486 120.48936170223169,210.2432776504429 120.31702127680182,210.11131130700232 120.0297872342635,209.7813953346922 119.9148936169222,209.18754617444938 119.9148936169222,208.6596798118553 119.85744680883363,208.32976312353276 119.80000000004657,208.06582965585403 119.97234042570926,207.5379624082707 119.9148936169222,206.81214426265797 119.9148936169222,206.48222666350193 119.85744680883363,206.28427602577722 119.97234042570926,206.08632532972842 119.9148936169222,206.02034175139852 119.97234042570926,205.55845652031712 120.0297872342635,205.2285383028211 120.31702127680182,205.16255463985726 120.89148936187848,204.96460361179197 121.17872340441681,204.83263622719096 121.35106382984668,204.76665252522798 121.69574468093924,204.63468510168605 121.75319148949347,204.63468510168605 121.75319148949347,204.56870138004888 121.8106382980477,204.56870138004888" stroke="#4dd2ff" stroke-linecap="round" stroke-linejoin="round" stroke-width="0.5"><title>2021-03-02 1.4km</title></polyline><polyline fill="none" points="161.7525581396185,211.6760482256068 162.1293023256585,211.849138673977 166.27348837209865,212.62804527039407 168.9106976748444,213.5800412823446 169.89023255789652,214.01276640110882 172.52744186064228,214.70512614701875 173.50697674416006,214.70512614701875 176.29488372104242,214.53203626198228 177.19906976725906,214.2724013698171 179.98697674414143,214.09931139915716 181.71999999973923,214.70512614701875 182.62418604642153,215.05130581534468 184.20651162834838,215.65711990598356 185.71348837204278,215.9167543881922 187.59720930224285,215.7436647420982 187.89860465098172,215.57057506160345 188.20000000018626,215.7436647420982 188.12465116288513,216.95529154944234 186.76837209332734,217.30147032998502 185.63813953474164,218.25346127222292 185.11069767409936,218.42655042384285 184.58325581392273,218.59963954100385 184.28186046518385,218.59963954100385 183.8297674418427,218.68618408660404 183.52837209310383,218.8592731524841 182.47348837181926,219.29199566825991 182.62418604642153,219.7247179703554 183.1516279070638,220.07089565863134 183.1516279070638,220.15744005946908 183.1516279070638,220.24398445145926 183.22697674436495,220.15744005946908 182.85023255832493,220.07089565863134 182.39813953498378,220.24398445145926 182.24744186084718,220.33052883500932 182.09674418577924,220.41707321023569 182.02139534894377,220.5036175766727 182.02139534894377,220.5036175766727 181.71999999973923,220.07089565863134 181.56930232560262,219.89780683151912 181.34325581369922,219.6381735271425 181.26790697686374,219.46508461475605 180.5144186047837,219.29199566825991 180.21302325557917,219.29199566825991 179.83627907000482,219.29199566825991 179.4595348839648,219.20545118226437 179.00744186062366,219.20545118226437 178.63069767458364,219.20545118226437 177.87720930250362,219.0323621846619 177.50046511599794,218.94581767282216 177.1237209304236,218.8592731524841 176.7469767439179,218.77272862388054 175.99348837230355,218.59963954100385 175.692093023099,218.42655042384285 175.31534883752465,218.34000585234025 174.93860465148464,218.1669166838401 174.56186046497896,217.99382748128846 174.26046511624008,217.7341936136363 173.5823255814612,217.38801500370027 172.9041860466823,217.04183625720907 172.37674418650568,216.52256788144587 172.0,216.34947835485218 171.62325581396,216.17638879379956 171.24651162791997,216.00329919869546 170.8697674414143,215.83020956942346 170.6437209304422,215.7436647420982 170.0409302324988,215.48403020837577 169.73953488375992,215.3974853468826 169.43813953502104,215.3109404767165 169.1367441858165,215.13785071100574 168.76000000024214,215.05130581534468 168.38325581373647,214.9647609111853 167.55441860482097,214.87821599823656 167.2530232560821,214.79167107696412 166.8762790695764,214.70512614701875 166.42418604623526,214.70512614701875 166.12279069749638,214.61858120874967 165.36930232541636,214.53203626198228 164.992558139842,214.3589463424869 164.31441860459745,213.83967637922615 163.56093023251742,213.5800412823446 163.25953488377854,213.49349623301532 162.88279069773853,213.40695117530413 162.43069767439738,213.32040610880358 162.1293023256585,213.23386103397934 161.7525581396185,213.0607708581956 161.0744186048396,212.71459040499758 160.69767441879958,212.5415001270594 160.39627906959504,212.36840981501155 159.64279069798067,211.93568388553103 159.41674418607727,211.76259345409926 159.1153488373384,211.589502988616 158.4372093025595,211.15677667490672 158.13581395382062,210.89714078442194 157.75906976731494,210.3778687728336 157.23162790713832,209.77205103775486 156.32744186045602,209.07968739973148 156.32744186045602,208.82005089498125 156.1767441863194,208.38732321566204 156.0260465121828,208.04114091867814 155.79999999981374,206.91604751051636 156.0260465121828,206.4833188925404 156.10139534901828,206.05059006123338 156.1767441863194,205.70440684247296 156.25209302362055,205.44476933882106 156.25209302362055,205.0120399952284 156.25209302362055,203.88694270368433 156.25209302362055,203.10802834917558 157.0809302330017,202.7618439695798 157.68372093047947,202.41565945348702 158.21116279112175,202.2425671441597 158.58790697716177,202.15602097677765 158.73860465129837,201.982928616344 159.79348837211728,201.8963824234088" stroke="#4dd2ff" stroke-linecap="round" stroke-linejoin="round" stroke-width="0.5"><title>2020-12-25 1.0km</title></polyline><polyline fill="none" points="12.287218045210466,248.25758766470244 12.652631578966975,248.60734758590115 12.957142857136205,248.95710733463056 13.627067669061944,249.37681880564196 16.24586466164328,250.07633737189462 17.64661654131487,250.49604818061925 18.56015037605539,250.70590349193662 22.823308270657435,252.38474374642828 24.041353383334354,253.22416238381993 25.442105263238773,253.85372570966138 27.5127819548361,254.62319123843918 28.30451127816923,254.76309397199657 29.76616541366093,254.76309397199657 30.618796992348507,254.76309397199657 32.080451127840206,254.48328847723315 33.420300752157345,254.34338568808744 34.94285714300349,254.41333708609454 35.7954887219239,254.34338568808744 38.17067669192329,254.76309397199657 38.96240601502359,255.0428993566893 40.48496240586974,255.3227046309621 41.33759398525581,255.252753322653 42.860150376101956,255.18280200759182 43.530075188260525,255.11285068566212 44.200000000186265,255.3926559324027 44.139097744366154,255.46260722674197 43.956390977837145,255.53255851415452 43.895488722017035,255.6025097949314 43.895488722017035,255.67246106854873 43.834586466196924,255.6025097949314 43.712781955022365,255.74241233529756 43.712781955022365,255.6025097949314 43.773684210842475,255.67246106854873 43.834586466196924,255.74241233529756 43.773684210842475,255.67246106854873 43.895488722017035,255.53255851415452 43.834586466196924,255.53255851415452 43.773684210842475,255.53255851415452 43.773684210842475,255.6025097949314 43.773684210842475,255.53255851415452 43.773684210842475,255.53255851415452 43.773684210842475,255.53255851415452 43.773684210842475,255.6025097949314 43.712781955022365,255.6025097949314 43.712781955022365,255.6025097949314 43.651879699202254,255.6025097949314 43.590977444080636,255.6025097949314 43.712781955022365,255.6025097949314 43.712781955022365,255.6025097949314 43.712781955022365,255.6025097949314 43.651879699202254,255.6025097949314 43.651879699202254,255.67246106854873 43.530075188260525,255.6025097949314 42.129323308356106,255.6025097949314 40.54586466168985,255.6025097949314 38.96240601502359,255.252753322653 38.23157894751057,255.0428993566893 36.70902255643159,254.62319123843918 35.91729323333129,254.48328847723315 34.272932330844924,254.48328847723315 33.481203007744625,254.41333708609454 31.836842105491087,254.5532398610958 30.131578947417438,254.76309397199657 29.33984962431714,254.76309397199657 27.6954887220636,254.69314260868123 26.84285714291036,254.48328847723315 23.006015037652105,253.22416238381993 22.214285714551806,252.94435628160136 19.960902255726978,252.38474374642828 19.35187969915569,252.31479214859428 16.91578947380185,251.89508241601288 15.515037593897432,251.2655173515668 14.723308270797133,250.84580699831713 13.200751879950985,250.00638554635225 11.800000000046566,249.51672257407336" stroke="#4dd2ff" stroke-linecap="round" stroke-linejoin="round" stroke-width="0.5"><title>2020-12-08 1.1km</title></polyline><polyline fill="none" points="47.800000000046566,248.66025647684 48.11153846164234,248.71989508066326 50.18846153863706,250.3301351548289 50.86346153868362,250.56868887529708 53.51153846178204,251.3439878168865 54.75769230769947,251.7018177623395 55.38076923089102,251.94037094159285 56.83461538469419,252.47711525129853 58.1326923079323,253.13313542708056 58.80769230797887,253.55060244118795 62.13076923089102,254.6837257409352 62.857692308025435,254.74336375045823 64.93461538478732,254.5048116768594 65.55769230774604,254.44517364358762 68.828846154036,254.5048116768594 69.50384615384974,254.56444970407756 71.52884615422226,255.16082965314854 73.60576923075132,255.3397435231018 74.22884615394287,255.28010557219386 75.57884615426883,255.3397435231018 77.65576923079789,255.04155371017987 78.27884615398943,254.9819157300517 79.57692307722755,254.8626397519838 80.20000000018626,254.80300175427692 79.94038461567834,254.3258975597564 78.48653846164234,254.26625950890593 77.86346153868362,254.3258975597564 76.56538461567834,254.6837257409352 76.09807692328468,254.80300175427692 74.74807692319155,255.1011916846037 74.125,255.16082965314854 72.82692307699472,255.16082965314854 72.15192307718098,255.04155371017987 70.85384615394287,254.80300175427692 70.23076923121698,254.62408772535855 68.20576923084445,254.26625950890593 67.53076923103072,254.26625950890593 66.18076923093759,254.3258975597564 65.45384615380317,254.3258975597564 64.10384615394287,254.44517364358762 62.75384615408257,254.5048116768594 61.455769231077284,254.44517364358762 60.20961538492702,254.14698338980088 59.58653846173547,253.968069167051 58.23653846187517,253.55060244118795 57.61346153868362,253.31204989692196 56.36730769230053,252.8945827182033 54.70576923084445,252.41747701808345 54.23846153868362,252.35783877922222 52.99230769253336,252.0596474960912 51.278846154222265,251.52290281601017 50.811538461828604,251.16507276479388 49.721153846243396,250.56868887529708 49.1500000001397,250.27049670991255" stroke="#4dd2ff" stroke-linecap="round" stroke-linejoin="round" stroke-width="0.5"><title>2020-12-03 1.3km</title></polyline><polyline fill="none" points="115.85774647886865,252.85174972674577 116.14295774628408,253.90004823164782 116.19999999995343,254.2276411751518 115.2302816901356,254.817308066471 113.57605633791536,254.75178954889998 111.29436619696207,254.35867830732604 109.12676056311466,253.4414178393199 108.38521126750857,253.31038052606164 104.16408450691961,251.67241193179507 102.62394366180524,251.41033658164088 100.28521126741543,251.4758554289583 98.68802816863172,251.41033658164088 97.54718309850432,251.41033658164088 96.86267605610192,251.41033658164088 95.32253521098755,251.27929886814672 94.80915492936037,251.21378000173718 93.0408450702671,251.08274224895285 92.3563380278647,251.01722336321836 89.96056338003837,250.8206666666665 89.21901408419944,250.68962883658241 87.73591549298726,250.55859098071232 85.79647887335159,249.70684428757522 85.05492957727984,249.44476816238603 83.80000000004657,249.1826919335872 85.22605633782223,249.51028720336035 86.48098591552116,250.09995828161482 87.73591549298726,250.68962883658241 88.47746478859335,250.75514775473857 90.35985915502533,250.95170447067358 90.93028169008903,251.01722336321836 92.41338028153405,251.14826112851733 93.15492957714014,251.21378000173718 94.69507042248733,251.21378000173718 95.37957746488973,251.27929886814672 96.91971830977127,251.41033658164088 97.60422535194084,251.41033658164088 99.7147887321189,251.4758554289583 100.3992957745213,251.4758554289583 101.42605633777566,251.34481772815343 101.76830985909328,251.34481772815343 101.99647887307219,251.34481772815343 102.2246478870511,251.34481772815343 102.45281690103002,251.34481772815343 102.73802816891111,251.27929886814672 103.02323943632655,251.27929886814672 103.59366197162308,251.34481772815343 103.82183098583482,251.34481772815343 104.33521126769483,251.54137426958187 104.84859154908918,251.80344956781482 104.79154929565266,251.934487178165 104.79154929565266,252.0000059735612 104.7345070419833,252.0000059735612" stroke="#4dd2ff" stroke-linecap="round" stroke-linejoin="round" stroke-width="0.5"><title>2020-11-30 1.0km</title></polyline></svg>