<?xml version="1.0" encoding="utf-8" ?>
<svg baseProfile="full" height="300mm" version="1.1" viewBox="0,0,200,300" width="200mm" xmlns="http://www.w3.org/2000/svg" xmlns:ev="http://www.w3.org/2001/xml-events" xmlns:xlink="http://www.w3.org/1999/xlink"><defs /><rect fill="#222222" height="300" width="200" x="0" y="0" /><text fill="#FFFFFF" style="font-size:12px; font-family:Arial; font-weight:bold;" x="10" y="20">Over 3km Runs</text><text fill="#FFFFFF" style="font-size:4px; font-family:Arial" x="10" y="280">ATHLETE</text><text fill="#FFFFFF" style="font-size:9px; font-family:Arial" x="10" y="290">jdzj</text><text fill="#FFFFFF" style="font-size:4px; font-family:Arial" x="120" y="280">STATISTICS</text><text fill="#FFFFFF" style="font-size:3px; font-family:Arial" x="120" y="285">Number: 71</text><text fill="#FFFFFF" style="font-size:3px; font-family:Arial" x="120" y="290">Weekly: 3.0</text><text fill="#FFFFFF" style="font-size:3px; font-family:Arial" x="141" y="285">Total: 159.3 km</text><text fill="#FFFFFF" style="font-size:3px; font-family:Arial" x="141" y="290">Avg: 2.2 km</text><text fill="#FFFFFF" style="font-size:3px; font-family:Arial" x="167" y="285">Min: 1.0 km</text><text fill="#FFFFFF" style="font-size:3px; font-family:Arial" x="167" y="290">Max: 13.2 km</text><polyline fill="none" points="30.9099686848931,44.18559424488922 30.360386221436784,39.430497878056485 26.090553235961124,34.14161238653469 24.780010438524187,33.85047942926758 21.94754697312601,35.79136256733909 11.125,48.64952057073242 12.816022964660078,45.73826885074959 16.282620041863993,43.360733873792924 16.83220250532031,41.565444771171315 21.144311064854264,36.47066986237769 22.793058455223218,34.82092195242876 25.075939457165077,33.89900160068646 26.936064718291163,35.209098427469144 29.64170146174729,35.306142498360714 27.401096033398062,35.88840652385261 30.61403966601938,39.867192312085535 31.375,45.398621698026545" stroke="#4dd2ff" stroke-linecap="round" stroke-linejoin="round" stroke-width="0.5"><title>2021-08-22 1.7km</title></polyline><polyline fill="none" points="40.75666397425812,45.90598794899415 40.39680937002413,46.39410373289138 36.471122778835706,41.13743939518463 37.09268982242793,38.88456110015977 40.59309369965922,33.28985584908514 43.4392164782621,35.467670320911566 49.066033925744705,42.30142130696913 53.875,47.10750260268105 33.625,42.63935087493155 35.9804119549226,41.28763080891804 36.994547657552175,41.55046564084478 40.364095314987935,45.75579835145618 40.822092084097676,49.21014415094396" stroke="#4dd2ff" stroke-linecap="round" stroke-linejoin="round" stroke-width="0.5"><title>2021-08-15 2.0km</title></polyline><polyline fill="none" points="56.125,36.567080754524795 57.82521528529469,36.49195228748431 58.806108719087206,36.81750881749031 68.04830462869722,43.60401519702282 68.61504305712879,44.455445984902326 70.59862755658105,46.00804771253024 74.41321313253138,43.854436313558836 75.89545209915377,43.97964677918935 76.35320236813277,43.35359383322066 76.375,41.70080663301633 76.13522604957689,41.65072200431314" stroke="#4dd2ff" stroke-linecap="round" stroke-linejoin="round" stroke-width="0.5"><title>2021-08-15 1.2km</title></polyline><polyline fill="none" points="93.61179876953247,50.851586711356504 93.64775502032717,51.047867244589725 93.51933983888011,51.184668438058 93.57070591149386,51.261990709946986 93.6939844856388,51.23225138671478 93.8429460961197,51.35120858869777 93.93026841949904,51.29767787781748 94.17168896066141,51.375 94.43879253804334,51.345260734357 94.44906575256027,51.083554543351056 94.69048629366443,51.14898120109501 94.80349165332154,51.03002358701269 95.01409255090402,51.05976301326882 95.06032201624475,50.91701362909589 95.01409255090402,50.185417556123866 94.81376486783847,50.203261471866426 94.55693450494437,49.882070153737004 94.64425682835281,49.8106940652433 94.62884700656286,49.412175967103394 94.39769967997563,49.180201492905326 94.17168896066141,48.52590954707193 93.8429460961197,46.36669408361922 93.50393001711927,45.533917461914825 93.28819251229288,45.49227831887765 93.06218179292046,45.23054588232844 93.0416353639157,45.0282972864552 92.8567175026401,44.96286376712669 92.57420410343911,44.58810674302367 92.2403246316826,44.36801022608415 91.56229247365263,43.63633205428778 91.23868621641304,43.56494832679891 90.79180138497031,42.92843956260549 90.54010762934922,42.45848938384006 90.42710226966301,42.125357850691216 90.4579219132138,41.96474018191293 90.24732101563131,41.80412207097834 90.12917904870119,41.43529362432673 89.70284064632142,40.995075974602514 89.5898352866352,40.67383397178128 89.54360582135268,40.65003819749472 89.52819599953364,40.79876162749133 89.35868796004797,40.42992682535987 89.18404331326019,40.29310041871213 89.12240402615862,40.01349763338294 88.79879776894813,39.76958772634316 88.81934419798199,39.62086167277084 88.47005490443553,39.23417215913287 88.54710401329794,39.02000455637972 88.76284151812433,38.82963269387619 88.74229508909048,38.72254824821357 88.17726829074672,38.87127659187536 87.08317094482481,38.17522467837989 86.52328075372498,37.663591480213654 84.31967624009121,34.18912640025155 82.66055209582555,32.36851924995426 82.69137173937634,32.14242681311225 82.43967798375525,31.696189168156707 82.52186369986157,31.125" stroke="#4dd2ff" stroke-linecap="round" stroke-linejoin="round" stroke-width="0.5"><title>2021-07-21 5.3km</title></polyline><polyline fill="none" points="112.21372721204534,42.36473419616232 113.81993923289701,43.01496253174264 116.38987846579403,40.78560631669825 114.46242404077202,42.36473419616232 113.01683322247118,40.69271635648329 112.53496961621568,42.82918305421481 110.84844699455425,41.25005597562995 111.08937879791483,43.47941105969949 104.1826671087183,44.96564476756612 107.15415934706107,48.86699677311117 105.4676367258653,47.752326467540115 106.5116745387204,47.380769397714175 105.38732612458989,48.959885904158 104.34328831126913,47.93810494610807 104.10235650837421,51.375 105.06608372041956,46.82343350991141 103.13862929586321,49.517220491718035 107.23446994833648,46.916322847944684 105.14639432122931,49.42433141719084 108.03757595829666,49.05277502548415 108.51943956455216,41.80739525560057 110.20596218621358,41.62161553342594 107.31478054914623,40.87849626719253 106.43136393837631,42.643403539434075 108.27850776165724,48.402550977421924 110.04534098459408,47.6594372143154 109.08161377208307,48.030994171393104 109.88471978250891,45.61587125598453 115.34584065247327,44.12963860388845 113.01683322247118,46.35898667742731 115.58677245536819,45.98742904228857 115.26553005119786,43.01496253174264 113.98056043498218,42.92207279766444 118.4779540929012,45.24431331909727 119.36137070413679,40.87849626719253 118.15671168873087,37.627342388092075 117.0323632741347,38.463354487787 113.17745442455634,37.348671518382616 111.81217420706525,38.64913485117722 115.18521944992244,35.95531589805614 112.69559081830084,37.99890341568971 110.68782579246908,37.99890341568971 114.94428764702752,36.69843915948877 108.59975016582757,37.348671518382616 112.29403781332076,38.556244674138725 114.2214922378771,36.88421988062328 112.13341661123559,38.463354487787 113.98056043498218,38.0917936488986 110.36658338876441,39.299365824845154 114.14118163706735,38.0917936488986 112.37434841366485,38.37046429235488 114.94428764702752,36.69843915948877 112.21372721204534,38.37046429235488 115.66708305617794,35.76953498867806 110.68782579246908,37.99890341568971 112.05310600996017,38.37046429235488 115.42615125374869,36.04820633889176 111.65155300498009,38.742025018436834 109.24223497370258,38.277574087376706 115.26553005119786,36.233987191924825 111.57124240370467,38.742025018436834 116.22925726370886,36.233987191924825 110.68782579246908,38.18468387279427 113.81993923289701,36.88421988062328 114.30180283868685,37.81312292057555 112.21372721204534,38.463354487787 113.98056043498218,38.277574087376706 115.82770425826311,37.53445210750215 110.44689398957416,38.0917936488986 112.29403781332076,36.977110226871446 113.17745442455634,38.18468387279427 112.21372721204534,38.463354487787 113.65931803081185,37.53445210750215 111.57124240370467,38.742025018436834 116.06863606162369,37.44156181777362 111.97279540868476,38.463354487787 113.98056043498218,36.88421988062328 112.37434841366485,38.277574087376706 113.33807562664151,38.277574087376706 109.88471978250891,38.277574087376706 113.57900742953643,38.18468387279427 114.54273464204744,37.162890891428106 113.41838622745126,36.88421988062328 111.00906819663942,38.18468387279427 112.69559081830084,37.07000056398101 112.29403781332076,37.99890341568971 114.7033558441326,38.37046429235488 109.322545574978,38.18468387279427 114.62304524332285,37.44156181777362 111.41062120208517,37.81312292057555 114.14118163706735,38.0917936488986 112.69559081830084,37.906013172876555 113.57900742953643,38.0917936488986 110.84844699455425,39.20647571387235 111.00906819663942,40.22826641483698 106.43136393837631,39.57803610077826 109.72409857995808,31.125 108.51943956455216,33.725942496035714 107.23446994833648,33.44727043900639 104.66453071497381,35.86242544814013 106.91322754370049,37.07000056398101 107.63602295331657,39.20647571387235 111.89248480834067,37.53445210750215 111.57124240370467,40.50693640834652 112.13341661123559,38.742025018436834" stroke="#4dd2ff" stroke-linecap="round" stroke-linejoin="round" stroke-width="0.5"><title>2021-07-17 3.7km</title></polyline><polyline fill="none" points="123.625,36.86442194136907 126.6371502209222,36.48752550914651 127.02485272462945,33.09543920130818 126.96520618558861,36.83015864621848 127.83008100150619,37.995108782401076 130.90187776146922,40.59910083102295 135.5543078056071,43.305861331755295 143.0995949927019,49.40456079869182 143.875,49.06194007390877 143.8451767305378,48.06833805973292 142.86100883653853,47.21178231635713 141.45931516948622,48.03407587055699 140.59444035345223,47.554404867376434 137.76122974965256,44.881940000952454 135.43501472775824,43.61422511268756 127.14414580271114,37.3783709621639 124.34075846837368,37.446897440677276 123.83376288658474,36.62457880450529" stroke="#4dd2ff" stroke-linecap="round" stroke-linejoin="round" stroke-width="0.5"><title>2021-07-14 1.9km</title></polyline><polyline fill="none" points="165.6008551309351,44.36228115929407 165.15266599599272,45.6726960343658 163.4821428572759,46.70230518319295 153.90719315898605,43.473069004307035 147.59180080494843,43.37946762802312 146.36946680070832,42.53705440936028 146.125,36.26570899269427 146.93988933600485,35.79769481680705 156.39260563394055,36.6401200008695 162.99320925562643,36.031701962434454 164.46001006034203,36.686921356100356 163.97107645869255,43.28586623299634 166.25276659964584,45.6726960343658 165.56011066399515,45.57909509196179 166.375,45.71949649861199" stroke="#4dd2ff" stroke-linecap="round" stroke-linejoin="round" stroke-width="0.5"><title>2021-06-29 1.4km</title></polyline><polyline fill="none" points="183.06423933210317,45.34325263205392 183.89076994435163,44.12034329758899 184.27898886828916,43.962083692706074 184.45431354362518,44.163504978161654 185.21822820045054,43.789436655075406 185.15561224491103,43.659951242632815 185.28084415587364,43.73188759708137 185.29336734692333,42.32192857823975 185.65653988876147,41.02705623971997 188.18622448982205,38.782583600404905 188.22379406308755,37.47329193119367 188.49930426722858,36.969715080209426 188.7998608535272,37.40135248757724 188.5994897959754,40.63859229488298 188.875,41.21409406611929 188.24884044530336,41.70326878497144 187.72286641929531,41.372356654843315 187.74791280151112,41.573781519167824 186.93390538037056,41.573781519167824 186.0948515770142,42.422640389049775 186.0823283859645,42.667225925586536 185.26832096476573,43.08445912890602 185.23075139144203,43.76066212891601 184.6672077922267,44.14911775273504 184.12871057511074,44.10595606789866 183.5526437847875,44.37931318943447 183.11433209653478,45.27131707286753 182.77620593691245,45.41518815570453 182.36294063081732,44.436861991809565 179.73307050089352,44.4224747933622 178.51832096476573,44.638282621177495 176.96544526901562,45.530284919790574 170.1528293135343,40.264514924943796 169.07583487936063,40.25012731463357 168.7878014841699,40.06308825114684 168.9005102040246,39.97676244859758 169.36386827455135,40.135026380914496 168.625,39.71778473412269 168.6375231910497,39.94798716972582 169.32629870128585,40.14941400257521 168.97564935061382,40.264514924943796 169.13845083484193,40.480328909427044" stroke="#4dd2ff" stroke-linecap="round" stroke-linejoin="round" stroke-width="0.5"><title>2021-06-26 3.3km</title></polyline><polyline fill="none" points="11.125,73.20496133718189 12.109703032489051,73.63485837863482 12.327718464031932,73.81850238531115 12.534833123994758,74.1148353517383 12.3822223219031,74.21083009303766 12.153306118794717,74.56141773296986 11.895321191463154,74.99547459627138 11.848084514625953,75.19163344882327 11.95345863988041,75.29179932071565 12.785550870277802,75.39196495551369 12.829153956583468,75.6048161422732 12.763749327117694,76.33517972240588 12.85458909026056,75.52969231623501 12.603871343977517,74.69914779682222 12.70561187871499,74.49463935882886 12.949062443934963,74.40699258284076 13.286986362814787,74.44455550905332 14.834895926789613,74.80766207685883 14.92573568993248,74.8452246474335 14.88576619415835,75.16241835819528 15.260026018309873,75.19163344882327 15.419904001435498,74.77844672114952 15.779629463489982,73.12983325052119 15.892270769792958,73.00044567746954 16.735263771770406,73.2258302264745 17.015050242232974,73.25922042792808 17.138592320101452,73.19243999867831 17.35297416112735,73.24669910547891 17.738134756858926,73.03800985232738 19.620334649211145,71.74828743058606 19.758411089191213,71.85680927867725 19.605800287099555,72.3201109607835 19.54766283869685,73.02548846443096 19.722075183919515,73.38443344869302 19.849250852304976,73.46373483687057 22.792459178177523,73.4470398201338 23.250291584423394,73.52216734357353 23.85346761169785,73.50547234989062 25.601224654572434,73.37191216329302 26.073591422944446,73.21748267199655 26.651332316512708,72.69158341962611 27.036492912258836,72.16150374885183 27.338080925896065,71.43941603158964 27.49069172797317,70.43765543665722 27.367149650104693,69.94511444517411 26.44785124709597,68.8347891403464 25.99365243136708,67.9540216463065 25.964583707173006,68.04168179222688 26.088125785041484,68.4215403251219 26.044522698706714,68.4215403251219 26.120828099767095,68.43406307580517 26.476919971304596,68.9808862403479 26.509622286015656,69.01427979234722 26.52779023865878,68.96418945445475 26.251637358713197,68.55094190347154 25.543087206155178,67.05236388591584 25.579423111412325,66.5389112935809 28.340951910999138,64.38067246764695 28.896891261436394,63.86301273409845 30.14321281175944,63.107385132821946 30.619213170633884,62.756702542083076 30.6519154853886,62.64815734118383 30.135945630725473,62.05532863430926 30.52837340750557,61.754736254726595 31.120648663199972,61.09927045989025 31.160618158974103,60.89887124564484 31.371366409468465,60.761096234771685 31.375,60.677596009642 31.091579938991345,60.539820277597755 31.13518302529701,60.61497073256032 31.18241970213421,60.57739552177736 31.189686883197282,60.6734209940696 31.124282253716956,60.62749579539741" stroke="#4dd2ff" stroke-linecap="round" stroke-linejoin="round" stroke-width="0.5"><title>2021-06-21 11.9km</title></polyline><polyline fill="none" points="36.791456494363956,59.841834129270865 36.71484867599793,59.3430936797231 36.94467213121243,59.4897821341292 36.74038461537566,59.812496478902176 38.11932534677908,61.279375447455095 41.36238965962548,63.33299384001293 48.00173392193392,68.87769262047368 49.533890290069394,69.4350904795283 51.5256935688667,71.89936322459835 52.36837957124226,75.65440621596645 53.875,77.5905817222083 52.57266708696261,75.8890948278713 51.57676544773858,71.9286996817973 49.7126418662956,69.52310057231807 45.29492433788255,65.94400244852295 44.01812736445572,65.50394642507308 41.975252206786536,63.62636673761881 40.979350567562506,63.39166844263673 38.14486128638964,60.78063741052756 37.17449558642693,60.42858652755967 36.53609709965531,59.431106761068804 34.41661412362009,59.665808183839545 33.625,59.2844182777917" stroke="#4dd2ff" stroke-linecap="round" stroke-linejoin="round" stroke-width="0.5"><title>2021-06-16 2.1km</title></polyline><polyline fill="none" points="57.74731759657152,67.15639981784625 57.515557939885184,67.38932888544514 58.70332618022803,67.98828860660433 64.67113733896986,70.41739213062101 68.11856223177165,70.25101573485881 71.56598712445702,70.71686943629174 76.375,70.0846392569365 74.46298283257056,69.6853353754268 74.81062231748365,69.2194802496233 72.23229613737203,69.65206003066851 69.30633047199808,68.68707360400003 67.16255364799872,69.05310326316976 65.33744635188486,68.28776806846145 61.83208154514432,68.48742089534062 57.805257510743104,67.48915557947475 56.125,66.15813056367915" stroke="#4dd2ff" stroke-linecap="round" stroke-linejoin="round" stroke-width="0.5"><title>2021-06-16 1.4km</title></polyline><polyline fill="none" points="97.86737560201436,68.866860101989 97.2172953451518,69.2402102612541 90.52146869990975,66.66408666758798 86.06841894064564,67.18677982891677 83.50060192612,66.8880981108814 83.04554574633949,67.41079096286558 78.625,66.1413927844842 83.8906500802841,67.63480196415912 90.00140449439641,68.1948288877029 98.875,70.7336072154867" stroke="#4dd2ff" stroke-linecap="round" stroke-linejoin="round" stroke-width="0.5"><title>2021-06-15 1.2km</title></polyline><polyline fill="none" points="114.10479323309846,72.89775712051778 112.50610902253538,73.85975741918082 109.99389097746462,73.55366664161556 102.60949248145334,62.00951722881291 101.125,62.84035620841314 102.83787593990564,66.38233648490859 104.58881578966975,68.00026867174893 106.72039473708719,68.61245768817025 108.81390977441333,71.80457242752891 111.89708646619692,73.90348465595162 114.10479323309846,74.86548277118709 119.62406015046872,73.11639373539947 121.375,73.33503024245147" stroke="#4dd2ff" stroke-linecap="round" stroke-linejoin="round" stroke-width="0.5"><title>2021-06-11 1.2km</title></polyline><polyline fill="none" points="141.48052646493306,78.55960192255952 141.56140821968438,78.54800960992907 141.74844727752497,78.41179959651345 142.09724984482455,78.03794335983184 142.10230495450378,77.8437681024061 141.9329587805114,77.9857769979044 141.83438414192642,77.86115698336289 141.86724235478323,77.96549005454654 141.92790367084672,77.98867513153891 142.10230495450378,77.83507365809965 142.1048325093434,78.0118601903614 142.021423199767,78.13068333181036 141.55129800032591,78.55960192255952 141.33392828446813,78.5625 140.7652284464275,76.90185511973868 140.71467734972248,75.93962382635073 140.41642587911338,75.55124450188123 139.89827713777777,75.23242184367155 139.89574958296726,74.98605652766128 139.7997024991928,74.84113479532607 139.3624355126376,74.41506079111059 139.0414360484865,74.22376026278289 138.64713749413204,73.80637299844238 138.51823219751532,73.78318464443328 138.1011856496334,73.85854672850292 138.04810699807422,73.87883648756906 138.17195718502626,73.8991262327254 138.1466816366592,73.93390862059823 137.9343670304661,74.00927032074105 137.21906901197508,74.14260208920678 136.96884108324593,74.13100804623537 137.04466772831802,74.15709463653002 137.00169929610274,74.19187672114822 137.05225039282232,74.16579016151263 137.05983305734117,74.23825277035394 137.0674157218309,74.15419612763253 136.96125841872708,74.1368050682886 136.55179453534947,73.91072036655532 135.5534103752725,73.92231449585415 135.2854895626806,73.81506862651077 134.78503370520775,74.0295599764413 134.19864098333346,73.90492330020606 134.02676725450146,73.82956133427797 133.7259882290673,73.49912583287733 133.4049887649453,73.22665869578668 132.9576115590171,73.125207524894 132.44199037253566,73.1136130832183 132.08560514071723,72.94259454054009 131.76207812174107,72.69041285177627 129.8790497691516,71.86718409937203 129.72234136934276,71.8497916954966 129.24463350539736,71.93385488613967 128.9994606863329,71.90486760600288 128.7568154221226,71.77442449388036 128.41054040963354,71.39758560520386 127.88986411347287,70.94537260117977 127.76095881685615,70.4844560782185 127.57897486868023,70.25254567736374 127.22511719170143,69.57419731543632 126.9470861597656,69.29879503517986 126.08266240597004,67.09548444651227 126.06749707694689,66.90703578720058 126.11552061882685,66.66929884185811 126.4845436248288,66.0169620373963 126.57553559892403,65.7241306127089 126.51234672803548,65.4834847951879 126.20398503808246,64.98189143214404 125.96386732869723,64.49188738423618 125.80463137403422,63.98737768722276 125.82737936756166,63.72642101629572 126.03463886409008,63.001529284269054 126.05991441245715,62.55208748043515 126.00936331572302,62.17513101914301 125.75913538700843,61.17472324774462 125.80210381920915,60.603460717886264 125.7793558256817,59.77699537578337 125.70858429028885,59.44930271609701 125.71616695479315,59.115806454061385 125.59737187752035,58.62860514663953 125.3951674906566,58.3125" stroke="#4dd2ff" stroke-linecap="round" stroke-linejoin="round" stroke-width="0.5"><title>2021-06-10 13.2km</title></polyline><polyline fill="none" points="154.0098277805373,72.79900053702295 154.2786484467797,73.699555720028 155.46593972330447,73.57090516990866 155.53314488974866,74.23988733792794 156.3844103332376,74.13696711600642 156.89964994357433,74.83167782594683 157.19087233231403,74.2141572862165 156.5860258329194,73.80247611447703 157.1460688879015,73.85393629648024 157.45969299844,74.2141572862165 157.03406027681194,74.85740781668574 158.37816360848956,75.01178770809202 157.70611194276717,75.44919690428651 157.63890677620657,74.96032775446656 158.06453949783463,74.70302783398074 158.26615499763284,74.9860577325162 158.10934294224717,74.57437777871382 158.46777049731463,74.7802178367856 158.0869412200991,74.75448783847969 158.13174466439523,74.41999762854539 158.6917877192609,75.50065676140366 158.26615499763284,76.11817425652407 157.10126544337254,76.50412194884848 155.21952077909373,76.45266228952096 153.2033657814609,77.86779922308051 152.5313141157385,77.45612381573301 152.10568139399402,77.91925860324409 152.5985192822991,78.45958148312639 153.36017783696298,78.20228501321981 152.7329296155367,78.40812220933731 153.22576750372536,78.45958148312639 153.31537439255044,78.02217733333237 153.3377761146985,78.27947398077231 152.71052789327223,78.1765553522564 153.3377761146985,78.27947398077231 152.9345451153349,78.04790700945887 153.42738300352357,78.02217733333237 151.81445900548715,78.27947398077231 152.48651067132596,78.07363668314065 152.75533133756835,78.5625 152.75533133756835,78.27947398077231 152.19528828270268,78.35666292559472 152.68812617112417,78.15082568876096 153.31537439255044,78.33093327982351 152.844938226277,78.33093327982351 152.97934855963103,77.81633983267238 152.91214339307044,78.40812220933731 152.5313141157385,78.22801467156387 152.844938226277,77.99644765461562 152.77773305983283,78.48531111612101 152.46410894906148,77.79061013364117 152.91214339307044,77.76488043213612 152.71052789327223,78.25374432746321 152.2400917271152,78.12509602276259 152.44170722691342,77.12163706909632 151.45603145030327,75.80941569167771 151.32162111718208,74.3428075191623 150.1567315630382,72.64461933649727 150.04472295206506,72.15574493195163 150.47035567369312,71.56394837464904 149.99991950765252,70.17450770389405 150.51515911810566,68.83652080548927 150.44795395142864,67.34414270866546 151.81445900548715,58.3125 152.28489517164417,58.33823161997134 152.28489517164417,58.801400344935246 152.97934855963103,59.18737365416018 155.17471733456478,59.418957365705865 155.37633283436298,59.85639270421234 157.12366716563702,59.18737365416018 158.84859977464657,60.08797582186526 159.7222669402836,59.83066123406752 159.92388243996538,60.24236445268616 161.62641332682688,59.77919828603626 161.87283227103762,60.93711216081283 162.5000804924639,61.348813633288955" stroke="#4dd2ff" stroke-linecap="round" stroke-linejoin="round" stroke-width="0.5"><title>2021-06-08 2.7km</title></polyline><polyline fill="none" points="188.875,66.00918226796784 181.5744290376315,63.46692243113648 174.0095840130234,62.97364618835854 171.0365008157678,61.30409113501082 171.20167210442014,59.9380861564714 170.8713295267662,60.051920089958 168.625,73.48408775610733 169.08747960848268,74.81210145680234 170.1776101142168,75.76067986522685 169.68209624791052,76.9369138435286" stroke="#4dd2ff" stroke-linecap="round" stroke-linejoin="round" stroke-width="0.5"><title>2021-06-08 1.1km</title></polyline><polyline fill="none" points="30.80495978554245,96.56038394250209 24.20878016075585,94.03485795060988 20.76139410189353,94.68962588594877 18.481233243830502,94.50254947136273 18.07406166207511,94.87670218982385 14.572386058862321,93.75424270611256 11.125,94.25311407979461 14.138069704989903,93.62952473966288 17.96548257372342,94.87670218982385 23.58445040206425,95.1261370893626 27.84617962455377,96.65392155470909 31.347855227882974,97.62047526036622 31.375,97.30868406526861" stroke="#4dd2ff" stroke-linecap="round" stroke-linejoin="round" stroke-width="0.5"><title>2021-06-07 1.5km</title></polyline><polyline fill="none" points="46.94902625493705,104.4593676875811 46.7939219516702,100.0533882782911 45.553087525302544,99.2968016412342 42.179568929364905,94.84626641366049 39.77545222849585,95.33582743065199 43.769388037733734,90.88525325831142 46.94902625493705,85.5 40.70607804809697,94.66824409450055 42.02446462586522,94.62373850381118 42.99386652139947,95.42483846776304 46.75514587573707,99.96437815137324 46.7939219516702,104.37035842708428 47.72454777150415,105.75 46.871474103303626,105.26045024572522" stroke="#4dd2ff" stroke-linecap="round" stroke-linejoin="round" stroke-width="0.5"><title>2021-06-04 1.3km</title></polyline><polyline fill="none" points="68.30343188130064,98.54042250130442 68.52298120193882,98.88162428965734 69.1687144979951,98.88162428965734 69.00082384096459,98.51075274398318 69.34951982088387,98.34756897410261 68.96207984327339,98.4069085472729 69.03956783871399,97.8728515458206 68.63921319524525,97.69483212385967 68.62629852932878,97.91735636838712 69.03956783871399,98.3624038696289 69.05248250468867,98.95579848907073 68.51006653602235,98.91129397381155 68.10971189243719,98.4069085472729 68.18719988799421,98.65910147203249 67.70935724896844,98.74811063858215 67.11528261663625,97.69483212385967 66.44371998880524,96.9975873586518 64.15782412094995,95.38056046003476 63.89953080250416,94.00088156024867 64.17073878680822,92.60635453918076 65.43637604702963,90.51453975666664 66.62452531169401,89.55021817701345 67.83850390819134,88.12597806940903 67.89016257179901,86.9687730474252 67.42523459874792,86.06377316963335 67.02487995522097,85.79672298436344 66.59869597986108,86.2121341786551 66.48246398661286,85.84123138153518 66.66326930944342,85.82639525058039 66.4178906569723,85.78188684911584 66.58578131394461,85.81155911821406 66.4566346546635,86.10828148770088 66.52120798430406,85.87090363902098 66.27582933183294,86.04893706065195 66.46954932063818,85.91541201416112 66.30165866366588,85.87090363902098 66.35331732733175,86.04893706065195 65.87547468830599,86.40500327153131 66.4178906569723,86.10828148770088 66.2112560022506,86.24180636290112 66.2887439977494,85.94508425696404 66.1208533407771,86.31598679786839 66.1208533407771,86.04893706065195 66.59869597986108,85.75221457405132 66.83115996635752,86.0786092770868 66.72784263902577,86.18246198854467 67.08945328480331,86.2121341786551 66.67618397535989,86.40500327153131 66.14668267266825,85.69287000647455 66.72784263902577,85.78188684911584 66.74075730494224,85.5 65.88838935422245,86.41983934536984 66.62452531169401,86.40500327153131 66.62452531169401,86.2121341786551 66.09502400894416,86.2714785412827 66.83115996635752,85.75221457405132 66.17251200444298,86.18246198854467 66.43080532288877,86.16762589132122 66.53412265022052,86.04893706065195 66.26291466591647,85.91541201416112 66.34040266141528,86.18246198854467 66.74075730494224,85.97475649391708 66.62452531169401,86.19729808431293 66.63743997755228,86.01926483833813 66.4566346546635,86.10828148770088 66.53412265022052,85.9005758905405 66.79241596860811,85.88573976549378 66.70201330725104,86.24180636290112 66.90864796191454,85.95992037618998 66.58578131394461,86.3604950412846 66.7536719708587,86.10828148770088 66.5470373161952,85.54450848499255 66.92156262788922,85.72254229316604 66.34040266141528,86.2121341786551 66.58578131394461,86.31598679786839 66.74075730494224,86.12311759081786 66.63743997755228,86.3604950412846 66.86990396416513,85.79672298436344 66.72784263902577,86.25664245283406 66.8828186300816,86.4495114886231 66.66326930944342,86.22697027152753 64.79064275103156,88.1408139733976 67.10236795071978,85.98959261017444 68.76835985440994,87.3248370798101 69.5432398096309,88.48203936114442 68.7812745203264,101.65571444381203 64.05450679356,101.77439095608133 63.098821515450254,102.02657823365007 62.95676019031089,104.14790153469949 63.44751749531133,104.50392489074147 64.49360543483635,104.26657608036476 64.95853340794565,104.77094185471651 64.57109343033517,105.08246104681166 65.26848539011553,105.17146641176078 65.39763204922201,105.4236479930405 65.37180271744728,105.75 65.13933873083442,105.43848219052597 65.01019207161153,105.51265315609635" stroke="#4dd2ff" stroke-linecap="round" stroke-linejoin="round" stroke-width="0.5"><title>2021-06-02 5.9km</title></polyline><polyline fill="none" points="84.44956981495488,105.14275875395106 86.25920710316859,103.48451511067105 89.0651615500683,99.70087345856882 91.4847889355151,94.65592386377102 92.521772100823,90.80207049607998 92.50143909745384,85.5 92.9080991622759,85.87371811016055 93.11142919457052,89.93786446272861 91.68811896792613,95.28654844213452 90.12247771851253,98.9301242276124 87.60118531691842,102.66706678764604 84.38857080531307,105.75" stroke="#4dd2ff" stroke-linecap="round" stroke-linejoin="round" stroke-width="0.5"><title>2021-06-01 2.2km</title></polyline><polyline fill="none" points="121.375,97.00908591973712 120.96812210197095,97.47643683227943 112.267194744898,94.70827269062283 106.28921947441995,94.88802424713504 105.78844667703379,95.35537787928479 101.90745749603957,93.98926557801315 101.125,94.0252159673546 101.15629829990212,94.42067001573741 101.87615919637028,93.77356316769146 106.22662287484854,95.57107935348176 114.11379443586338,95.82273091215757" stroke="#4dd2ff" stroke-linecap="round" stroke-linejoin="round" stroke-width="0.5"><title>2021-05-31 1.1km</title></polyline><polyline fill="none" points="134.7128022937104,104.9965270559187 135.12250539730303,101.65297648045816 135.81900067371316,102.17099289552425 138.3591599164065,101.65297648045816 139.21953643416055,100.71112700912636 139.87506140000187,97.93266021279851 141.39096288359724,98.49777341730078 140.4896160555072,98.12103135554935 140.94028946966864,97.46173203032231 140.85834884876385,98.59195888612885 140.94028946966864,97.4146391863469 140.89931915909983,99.1570713078836 139.58826922718436,97.83847461355617 143.76724088494666,100.1460164320597 139.50632860674523,98.54486615397036 140.5305863658432,98.07393857705756 139.99797233124264,96.5198742672801 139.58826922718436,98.82742247672286 140.85834884876385,97.65010335922125 140.40767543460242,96.8966175960959 141.55484412494116,98.59195888612885 142.08745815977454,98.35649517914862 140.57155667617917,99.06288595087244 139.17856612382457,98.40358792993356 141.18611133191735,98.21521689888323 139.7931207793299,97.88556741559296 138.76886301999912,101.22914444896742 134.83571322471835,101.88843855715822 134.95862415595911,103.67794653447345 133.31981174112298,104.94943495737971 133.40175236179493,105.75 134.0163070175331,104.85525074606994 132.21361336112022,99.95764609059552 123.73275911505334,85.5" stroke="#4dd2ff" stroke-linecap="round" stroke-linejoin="round" stroke-width="0.5"><title>2021-05-30 1.4km</title></polyline><polyline fill="none" points="146.86033519543707,93.62714987873915 149.77339385461528,95.28390952030895 155.0904329607729,97.2655130486819 157.55097765359096,97.03811652798322 160.66201117320452,97.62285012123175 165.89420391060412,96.84320509957615 166.375,96.45338189680479 165.83763966476545,96.8756903456815 160.85998603352346,97.42793903881102 153.9308659217786,96.97314606473083 149.32087988825515,95.73870482679922 146.125,94.08194747296511" stroke="#4dd2ff" stroke-linecap="round" stroke-linejoin="round" stroke-width="0.5"><title>2021-05-27 1.4km</title></polyline><polyline fill="none" points="188.875,97.08126565456041 186.33934782608412,96.95991086564027 181.19760869559832,95.01822935871314 173.41456521768123,94.73506670427741 168.625,93.44060636562062 171.58326086960733,94.57325938538997 179.57760869548656,95.30139181768754 187.81847826065496,97.80939363440848 188.48760869563557,97.60713599185692" stroke="#4dd2ff" stroke-linecap="round" stroke-linejoin="round" stroke-width="0.5"><title>2021-05-25 1.1km</title></polyline><polyline fill="none" points="11.682571965036914,121.16774005061598 12.645650813588873,121.95373486418976 15.86436170199886,122.24484352322179 19.057728410582058,124.07882147320197 22.884699624497443,123.93326808389975 25.038954943651333,124.2825960975606 29.550219023716636,123.64216109015979 31.375,122.73972758473246 31.375,123.40927528828615 24.177252816036344,124.45725994935492 21.440081351669505,123.99148944829358 19.007040050113574,124.19526413292624 14.191645807237364,123.03083546858397 11.125,121.66262591799023" stroke="#4dd2ff" stroke-linecap="round" stroke-linejoin="round" stroke-width="0.5"><title>2021-05-24 1.6km</title></polyline><polyline fill="none" points="41.51308139541652,122.28848829655908 46.222383720916696,122.4237181301578 46.222383720916696,122.99844432808459 49.22456395346671,124.35073746327544 53.875,123.91124277951894 49.136264534899965,124.38454472325975 45.78088662785012,123.80982084941934 42.27834302315023,123.97885738292825 33.625,121.24045527674025" stroke="#4dd2ff" stroke-linecap="round" stroke-linejoin="round" stroke-width="0.5"><title>2021-05-21 1.1km</title></polyline><polyline fill="none" points="68.26440310524777,132.9375 68.98632791743148,132.24201648921007 68.7534489458194,131.5465311947628 69.12605530046858,128.3098261670675 70.52332913072314,127.82832955638878 70.8260717940284,127.1060830373026 72.50280039035715,127.50733134092297 75.94940917147323,127.02583330537891 75.83296968555078,125.47433381949668 74.66857482714113,122.95981580147054 72.339785110089,119.69625764663215 70.66305651376024,118.1179654316511 67.98494833917357,116.53966402987135 64.18902110040653,116.00464452069718 62.79174727026839,115.4428728997591 60.74241231940687,115.73713437016704 58.180743630509824,114.21232147264527 57.69169778993819,112.6875 56.55059082864318,113.08876963990042 56.62045452021994,113.9448095538246" stroke="#4dd2ff" stroke-linecap="round" stroke-linejoin="round" stroke-width="0.5"><title>2021-05-20 1.7km</title></polyline><polyline fill="none" points="78.72235576924868,121.07918973924825 78.625,119.01037100411486 82.95733173075132,118.22757275711047 98.53425480774604,118.56305785255972 98.875,126.16733342636144 97.95012019225396,126.83829402067931 90.06430288474075,126.16733342636144 89.09074519248679,126.83829402067931 83.10336538474075,127.39742724283133 79.64723557699472,126.89420736784814 78.86838942300528,126.22324683947954 78.86838942300528,120.408222328173" stroke="#4dd2ff" stroke-linecap="round" stroke-linejoin="round" stroke-width="0.5"><title>2021-05-18 1.1km</title></polyline><polyline fill="none" points="101.125,123.50147525823559 101.9127984084189,124.24183490793803 105.76226790447254,125.86650381448271 108.17937665781938,125.80480775810429 109.8086870026309,126.17498382250778 112.61969496018719,125.84593846439384 115.71717506635468,124.94106105224637 116.59449602116365,124.40635891750571 118.00895225466229,123.41921291266044 121.375,120.10812656108465 120.83786472154316,119.45001617747766 119.512931034551,120.47831273893826 111.76027851458639,121.32151213516772 110.63229442969896,121.01302494673291 104.52685676387046,120.82793241459876 104.2045755967265,121.34207793147652 104.2761936339084,121.13641987690062 103.9181034482317,121.28038053642376 103.54210875323042,122.0618795252376 102.987068965449,122.28810237007565 101.37566312996205,121.95905087822757 101.14290450920817,121.52717000718985" stroke="#4dd2ff" stroke-linecap="round" stroke-linejoin="round" stroke-width="0.5"><title>2021-05-10 2.5km</title></polyline><polyline fill="none" points="143.875,129.27914126160613 143.77417012443766,128.70005733837024 143.08516597514972,127.98585147317499 141.99284232367063,128.5263318272482 141.4382780083106,128.3526061619341 141.40466804982862,127.81212532802601 141.77437759336317,127.19443111865257 141.63993775937706,125.47645884678059 141.23661825724412,124.89736367107253 139.1023858921253,125.55367140742601 137.67396265559364,125.39924625573622 137.62354771787068,124.95527326574665 133.9264522821759,125.01318284333684 131.99387966800714,124.70433156497893 128.90176348551176,125.26412414804508 126.7003112033126,125.32203363419103 124.95259336102754,124.9359700694331 123.625,122.6388761112321 125.55757261416875,121.24902465680498 126.41462655604118,120.30314788289252 128.17914937762544,119.39587402809411 128.39761410781648,118.73954563849838 130.26296680496307,117.90948011066939 132.0610995850875,116.67402722290717 131.33848547720117,117.4847940604086 129.33869294606848,118.3534690868255 127.4565352696809,116.69333123425895 126.26338174275588,116.34585873837932" stroke="#4dd2ff" stroke-linecap="round" stroke-linejoin="round" stroke-width="0.5"><title>2021-05-08 2.6km</title></polyline><polyline fill="none" points="166.375,119.31020159527543 166.24243044189643,120.71874486052548 162.26534369878937,120.94715679759975 161.6687806873815,122.051145920821 155.53743862512056,120.64260751823895 152.35576923075132,120.90908815088915 151.19578559719957,121.55625463544857 146.68842062191106,120.56647016076022 146.125,121.48011745823896 150.83121931250207,123.15513188645127 157.65855155477766,123.84036296643899 166.24243044189643,126.31479840475367" stroke="#4dd2ff" stroke-linecap="round" stroke-linejoin="round" stroke-width="0.5"><title>2021-05-08 1.3km</title></polyline><polyline fill="none" points="188.875,122.47317221653066 188.3647214854136,122.75080885138595 185.3567639257526,121.64026083334466 184.87334217515308,122.07214108671178 181.81167108751833,120.89989329711534 179.8242705570301,121.82535244346946 175.50033156492282,122.10298965330003 172.73408488067798,121.20837998355273 169.94098143232986,121.70195804885589 168.974137930898,121.54771498712944 168.625,121.05413667843095 173.11007957544643,121.23922863550251 175.742042440339,122.41147515308694 180.0391246684594,122.2880809897033 188.71385941642802,124.72510670285556" stroke="#4dd2ff" stroke-linecap="round" stroke-linejoin="round" stroke-width="0.5"><title>2021-05-07 1.5km</title></polyline><polyline fill="none" points="11.218461538432166,153.8888734706561 11.125,153.35124658502173 12.620384615380317,152.84946076924098 13.243461538455449,151.34409913726267 21.063076923135668,146.68460668070475 23.55538461531978,147.4014555886679 24.147307692328468,148.18998774324427 24.863846153835766,146.43370922654867 24.583461538422853,146.1111265293439 24.583461538422853,147.32977076192037 24.42769230774138,146.93550396047067 23.835769230732694,148.29751472189673 24.61461538472213,147.4014555886679 23.866923076915555,148.18998774324427 24.271923076710664,146.86381904120208 23.991538461414166,148.2616723992105 24.67692307685502,147.65235237020534 25.95423076930456,147.86740661549265 27.8546153845964,147.18640106578823 29.59923076920677,147.25808592091198 31.375,148.29751472189673 30.222307692165487,147.50898280204274 28.82038461533375,147.32977076192037 25.549230769160204,148.11830307313357 23.929230769048445,147.07887375622522" stroke="#4dd2ff" stroke-linecap="round" stroke-linejoin="round" stroke-width="0.5"><title>2021-05-06 1.2km</title></polyline><polyline fill="none" points="38.677930056583136,151.8470882906695 39.55836483929306,149.95612241173512 45.836247636936605,145.29463736596517 48.47755198483355,142.4801322175772 51.961011342238635,140.63310355204158 53.30080340267159,141.90843368682545 53.875,154.88141211730544 53.14768430986442,151.01154621737078 42.62074669194408,156.77235709497472 39.86460302444175,154.13382700574584 34.69683364848606,156.94825854545343 33.625,158.75124440903892 34.735113421455026,159.36689644792932 38.02717391308397,156.288627748203 39.252126653911546,153.4741920423694 38.56309073721059,152.46274986839853" stroke="#4dd2ff" stroke-linecap="round" stroke-linejoin="round" stroke-width="0.5"><title>2021-05-06 1.8km</title></polyline><polyline fill="none" points="68.39131853787694,146.86788369805436 70.21540469978936,146.31784254781087 70.400456919102,145.737242468982 68.28557441267185,144.88161926544853 68.54993472597562,144.94273528904887 68.23270234989468,145.27887319718138 69.79242819850333,145.89003207164933 71.16710182779934,145.67612660629675 70.71768929506652,147.66238581301877 72.09236292436253,146.8984415103332 72.03949086170178,147.47903935669456 72.5946475196397,147.44848160311813 74.6566579635255,149.0985958703095 76.16351174935699,149.43472915273742 76.18994778068736,150.29033945591073 75.71409921674058,150.96260299356072 76.375,154.0183274859737 75.81984334206209,155.11838073455147 61.12140992179047,153.37662790727336 57.02382506523281,153.92665620110347 56.125,154.59891164427972 56.75946475204546,153.95721329923254" stroke="#4dd2ff" stroke-linecap="round" stroke-linejoin="round" stroke-width="0.5"><title>2021-05-02 1.6km</title></polyline><polyline fill="none" points="84.82816455699503,145.1685129723628 86.26360759488307,145.76134053152055 88.00664556981064,144.27927050675498 94.92753164563328,143.15289477608167 98.00348101276904,144.39783624687698 98.875,146.4727328097797 97.79841772187501,152.40096814802382 89.08322784816846,155.48362677992554 79.24018987338059,156.84710522391833 78.625,155.83931711519836 82.88006329117343,143.6271585059585" stroke="#4dd2ff" stroke-linecap="round" stroke-linejoin="round" stroke-width="0.5"><title>2021-05-01 1.0km</title></polyline><polyline fill="none" points="110.78468536376022,149.16858372607385 109.55794677650556,151.12510486977408 107.73898956133053,147.35879460824071 107.82359222252853,145.98921995479031 109.30413879314438,143.69028233698918 111.63071197550744,142.71200768946437 117.63750091870315,142.80983524330077 121.14851135760546,139.875 116.70687164599076,143.00549029174726 106.25844299071468,141.58698939380702 105.37011504848488,142.0272142564354 103.63576049450785,145.74465264350874 103.04354186612181,154.84247319688438 102.32441924628802,157.19027002339135 101.47839263430797,157.5326561066031 101.35148864262737,160.125 102.02830993197858,159.78261575536453 102.32441924628802,158.16851533119916 103.46655517187901,145.45117170648882 104.98940307321027,143.93485068905284 105.62392303184606,144.32615979464026" stroke="#4dd2ff" stroke-linecap="round" stroke-linejoin="round" stroke-width="0.5"><title>2021-05-01 1.8km</title></polyline><polyline fill="none" points="140.76363783085253,148.16047029191395 140.05769851518562,148.280604962114 138.90727888967376,149.10652825323632 137.50847320858156,149.04646125591535 137.26008715300122,149.34679600560048 137.2993060039007,149.0614780074975 136.3580535830115,149.37682944798144 134.13565203361213,149.0915115061216 132.82835700456053,149.24167891062098 132.4361684958567,149.0314445029071 131.01121691416483,149.30174583088956 127.79527114267694,149.37682944798144 124.59239832148887,149.04646125591535 123.625,149.8723803916364 123.69036475144094,150.15769686985004 127.45537443511421,150.8935105825367 127.86063589417608,150.77337797441578 128.60579406074248,151.16380860414938 130.59288250486134,151.19384168802935 131.834812782472,151.67437022434024 132.37080374435754,151.50918871109025 133.78268237574957,151.8395515584125 134.13565203361213,152.10984790022485 135.0115397030604,152.2149630146596 135.2468528082827,152.03476563120785 135.88742737250868,152.33509448515542 136.6848773402162,152.19994657421194 138.01831826986745,152.59037354509928 138.1359748225077,152.2299794536666 138.42357972887112,152.19994657421194 138.95957069075666,152.4852586899069 139.14259199483786,152.0497820879682 139.92696901230374,151.62932073853153 140.86822143319296,150.68327845611202 141.9140574564226,150.2778299638303 142.46312136866618,149.61709677365434 143.37822788901394,149.3317792822054 143.875,148.64100840390893 143.61354099423625,147.84511633147486 143.20827953523258,147.40962645490072 142.3846836669254,147.93521752970992 141.12968043901492,147.8601332015678 141.05124273727415,148.34067226169282 139.28639444801956,149.2116454415809 139.65243705618195,149.55702997779008 139.90082311170409,149.39184616692364 140.7505648805527,150.0375636810786 141.45650419633603,149.93244706311089 141.50879599741893,149.75224697770318" stroke="#4dd2ff" stroke-linecap="round" stroke-linejoin="round" stroke-width="0.5"><title>2021-04-30 3.7km</title></polyline><polyline fill="none" points="166.2150473933434,148.67717533686664 164.93542654020712,150.51444085378898 164.23163507098798,150.6246764967509 157.25770142185502,148.71392073607421 151.05154028430115,148.67717533686664 151.8832938389387,149.3753373006184 146.125,147.64830268966034 150.73163507098798,149.26510128797963 158.08945497625973,149.963262150035 165.67120853066444,152.35169731031056 166.375,152.2047171271115 165.41528436017688,151.8740115032415" stroke="#4dd2ff" stroke-linecap="round" stroke-linejoin="round" stroke-width="0.5"><title>2021-04-29 1.4km</title></polyline><polyline fill="none" points="176.40678571432363,149.5016620536917 178.05571428569965,148.2056038969895 177.47714285715483,147.1754002655507 178.48964285699185,146.84307584125781 185.40357142838184,140.22975159619818 186.21357142843772,140.13005224702647 188.875,143.18748552846955 185.49035714264028,145.38084447808797 185.86642857128754,145.41407707944745 183.7546428568894,147.70711866239435 184.65142857120372,147.3747947627853 184.8539285713341,146.61044854906504 183.84142857126426,147.4412595689064 179.01035714277532,153.2901111439569 175.74142857140396,155.21755134215346 173.5139285713667,157.17821195026045 173.3692857142305,158.44100426495424 171.5467857142212,159.86994775300263 170.04249999998137,159.10562989721075 168.625,157.07851761856 168.74071428563911,155.11785643006442 170.73678571428172,154.18736916032503 171.45999999996275,153.05748830508674 173.45607142848894,152.19345921109198 173.8321428571362,151.32942790031666 174.81571428570896,150.76448315236485 175.10499999998137,149.76751952065388 175.8571428571595,149.20257215254242 176.69607142847963,149.40196544953506 176.8696428569965,148.77055293749436" stroke="#4dd2ff" stroke-linecap="round" stroke-linejoin="round" stroke-width="0.5"><title>2021-04-26 2.2km</title></polyline><polyline fill="none" points="23.07223676389549,183.7346085044992 23.62442972289864,182.9733485704637 24.264973554876633,174.97998315581935 26.42956995347049,167.0625 24.44167530175764,174.85310233573546 22.87344729877077,175.58901022053033 20.598412308492698,175.43675358961627 18.235026444890536,175.7920189214201 16.99811421718914,176.55330012195918 16.136693201377057,177.77134535335063 16.070430046413094,185.23174646544794 17.06437737226952,187.05875047057634 17.727008922724053,187.3125 18.16876328981016,187.08412543477607 20.55423687188886,185.0794955456513 21.371482450864278,185.63774847757304 22.16664031147957,185.05412038354552 22.32125434000045,184.39436529063096" stroke="#4dd2ff" stroke-linecap="round" stroke-linejoin="round" stroke-width="0.5"><title>2021-04-25 2.2km</title></polyline><polyline fill="none" points="44.532466599717736,187.3125 43.93532103684265,182.86521672131494 44.26478065783158,180.33401332359063 43.93532103684265,175.62637702886423 44.244189431425184,167.41736286129162 43.99709471582901,167.0625 43.48231405811384,167.41736286129162 42.96753340039868,175.7919738446799 43.17344566353131,184.02435701653303 43.99709471582901,184.26091557172185 44.05886839458253,184.04801288257295 44.161824526265264,180.00282585452078 43.89413858426269,183.14908833237132" stroke="#4dd2ff" stroke-linecap="round" stroke-linejoin="round" stroke-width="0.5"><title>2021-04-18 2.2km</title></polyline><polyline fill="none" points="76.375,180.06997282919474 72.74856733519118,179.70341851917328 61.78223495709244,176.4044118336169 56.93732091691345,175.9378830359492 56.125,175.4047064782353 61.89828080229927,175.3380593494512 63.17478510038927,174.30502717083436 65.66977077361662,175.43803003779612" stroke="#4dd2ff" stroke-linecap="round" stroke-linejoin="round" stroke-width="0.5"><title>2021-04-16 1.0km</title></polyline><polyline fill="none" points="98.875,178.81158408797637 98.28190376562998,178.96973148846882 98.03831066942075,178.4709582288924 97.61467050208012,178.3006449465829 97.07452928868588,178.43446254530863 96.88389121333603,178.27631445843872 96.61911610880634,177.9113565609805 97.08512029284611,177.08411466186226 96.92625523009337,176.47584501966048 96.6085251045879,176.3420252958167 94.14082112972392,176.51234128282522 92.03321129706455,176.3298598591573 91.00588389119366,176.5731683640406 90.57165271969279,176.40285246100393 89.87264644354582,176.47584501966048 89.70319037663285,176.3298598591573 88.32635983260116,176.48801044189895 87.83917364018271,176.31769442129007 87.2778504184098,176.47584501966048 86.71652719663689,176.24470176902832 85.53033472807147,176.46367959622876 84.55596234311815,176.07438541243755 83.75104602513602,176.17170907359105 83.29563284519827,175.6120969732001 82.46953451883746,175.66075899574935 81.71757322177291,175.42961421751534 81.41043410042766,175.575600443648 80.98679393308703,175.161972354108 80.3619246861781,175.38095210372558 79.4510983263608,175.07681345757737 78.92154811718501,175.35662103966752 79.29223326366628,175.08897901781893 79.37696129706455,175.5026073521658 78.625,175.46611079024296 79.26046025106916,175.23496564719244 78.95332112972392,175.30795889707224 79.28164225944784,175.28362781858596 79.01686715480173,175.3931176339829 79.18632322177291,175.575600443648 79.0062761506415,175.42961421751534 79.26046025106916,175.34445550577948 79.18632322177291,175.21063455429248 78.97450313810259,175.28362781858596 79.04864016739884,175.46611079024296 79.37696129706455,175.33228997074184 79.21809623431182,175.27146227751655 79.19691422599135,175.4417797429487 79.28164225944784,175.22280010136456 79.16514121345244,175.4417797429487 79.23927824269049,175.27146227751655 79.29223326366628,175.40528316302516 79.13336820085533,174.96732336135756 79.22868723853026,175.28362781858596 79.17573221755447,175.07681345757737 79.19691422599135,175.28362781858596 78.98509414226282,175.12547569137678 79.05923117161728,175.0159856383325 79.13336820085533,175.12547569137678 78.97450313810259,175.18630345661222 79.18632322177291,175.29579335841117 79.01686715480173,175.19846900605626 79.21809623431182,175.0159856383325 79.06982217577752,175.27146227751655 78.90036610880634,175.27146227751655 79.06982217577752,174.95515778909612 78.91095711296657,175.06464789614984 79.16514121345244,175.28362781858596 78.98509414226282,175.17413790593855 79.01686715480173,175.28362781858596 79.06982217577752,175.18630345661222 79.12277719663689,175.6972555001048 79.01686715480173,176.8408071649974 80.04419456067262,177.05978393377882 80.12892259418732,177.25442962408124 81.05033995822305,177.1692721723739 81.57989016739884,177.36391768988688 85.8057008368778,177.5463975835737 89.97855648538098,178.0816703808523 91.98025627614697,178.154661945955 92.8699006276438,178.34930590835575 93.8972280335147,178.87241003527015 95.50706066942075,178.68993210341432 95.67651673639193,178.98189666475082 95.89892782428069,178.88457522112003 97.41344142262824,179.20086963220092 97.67821652721614,179.41984221090388 98.15481171553256,179.31035597014125 98.30308577406686,178.8602448481979 98.7267259414657,178.68993210341432" stroke="#4dd2ff" stroke-linecap="round" stroke-linejoin="round" stroke-width="0.5"><title>2021-04-09 4.9km</title></polyline><polyline fill="none" points="120.96622670814395,178.2710335062584 114.61451863369439,176.42903517826926 113.89130434789695,175.74279813820613 109.4262422361644,176.1039756881073 106.18750000011642,175.77891590929357 106.78493788826745,176.14009342354257 106.50194099382497,176.28456432942767 101.125,175.05655981213204 105.59006211173255,176.39291747141397 112.00465838517994,176.93468270081212 120.90333850937895,179.31844018786796 119.70846273307689,178.8489134251722 121.375,178.63220856248518 120.93478260876145,178.09044584451476" stroke="#4dd2ff" stroke-linecap="round" stroke-linejoin="round" stroke-width="0.5"><title>2021-04-09 1.4km</title></polyline><polyline fill="none" points="124.4303977272939,176.06417808833066 125.40838068188168,176.8901593091141 132.484375,179.5993634184997 135.6196732954122,179.46720762879704 138.3522727272939,180.02886937494623 143.4147727274103,179.46720762879704 143.875,178.90554494102253 141.8327414772939,178.3769203746051 139.38778409094084,178.87250593004865 136.85653409094084,177.91437319471152 134.75674715917557,178.0795686894562 131.1899857954122,176.26241376702092 130.7297585227061,175.40339164520265 128.6875,174.61044619287713 127.13423295458779,174.34613062505377 123.625,175.20515545806848" stroke="#4dd2ff" stroke-linecap="round" stroke-linejoin="round" stroke-width="0.5"><title>2021-04-08 1.4km</title></polyline><polyline fill="none" points="166.24350649362896,178.03331309460918 166.375,178.72808308023377 164.66558441566303,178.75829043524573 160.14220779226162,177.2177115350787 153.3045454545645,176.88542879544548 149.7016233765753,175.61670956478338 146.125,176.16044702150975 149.51753246749286,175.76774784404552 153.12045454548206,176.85522125582793 159.82662337680813,177.15729651832953" stroke="#4dd2ff" stroke-linecap="round" stroke-linejoin="round" stroke-width="0.5"><title>2021-04-06 1.3km</title></polyline><polyline fill="none" points="174.80913173640147,174.1468281589041 177.3555389221292,173.3515616937657 178.40643712575547,174.19360849630903 178.40643712575547,175.08243400458014 177.71931137726642,175.4566758099536 178.93188622733578,176.7665197312599 180.18488023942336,176.90685993025545 181.80164670641534,176.1583783744718 183.62050898186862,173.86614603403723 185.23727544909343,174.474290421349 186.57110778428614,173.6790245223383 188.8345808382146,173.95970676129218 188.8345808382146,171.10609601755277 188.59206586820073,172.83697677779128 187.2582335327752,172.60307435298455 188.875,172.88375724857906 188.79416167666204,174.10004781660973 185.31811377219856,174.4275101122912 183.62050898186862,173.81936566333752 180.87200598791242,177.28110025144997 181.5187125748489,176.71973965549842 178.48727544909343,176.6729595749639 177.8809880237095,175.64379659856786 178.7702095808927,175.64379659856786 178.68937125755474,175.17599448442343 177.63847305369563,173.30478127056267 177.19386227522045,173.95970676129218 176.30464071850292,173.86614603403723 175.17290419130586,176.29871875897516 171.41392215550877,178.26347964580054 170.20134730520658,180.50891038341797 170.03967065853067,178.778058491298 169.71631736517884,180.97670707423822 169.43338323337957,179.94755372661166 169.71631736517884,180.64924944069935 169.47380239493214,180.04111321701203 171.13098802394234,180.8831477741478 172.46482035913505,182.89466853271006 174.20284431125037,182.75433016064926 174.68787425127812,181.7719603566802 173.63697604765184,181.30416447474272 174.5666167663876,181.30416447474272 174.12200598791242,181.86551947612315 173.7178143709898,181.49128288467182 174.20284431125037,182.0526376576454 174.3241017961409,181.58484206104185 174.5261976046022,182.66077122205752 173.83907185611315,183.26890398244723 171.61601796397008,183.0817862956901 169.5546407182701,180.64924944069935 169.91841317340732,178.54415908746887 170.1609281434212,180.22823214056552 168.625,181.117045988678 169.06961077847518,180.36857128347037 168.78667664644308,181.30416447474272 169.91841317340732,180.50891038341797 170.08008982031606,178.45059929261333" stroke="#4dd2ff" stroke-linecap="round" stroke-linejoin="round" stroke-width="0.5"><title>2021-04-05 1.9km</title></polyline><polyline fill="none" points="27.050346013740636,209.70255815553537 26.256251023791265,210.10234945676348 26.56698384595802,209.62259979749797 27.119397752045188,209.62259979749797 27.24023829388898,209.28277641229215 26.618772649613675,212.98082277536741 25.289526688167825,213.94030449635466 25.220474949805066,214.5 25.16868614620762,213.94030449635466 26.670561453327537,213.04079052039015 27.17118655575905,211.08183470158838 27.516445247048978,207.96345651445154 26.653298518736847,207.34377289381518 24.788901585736312,207.00394556108222 23.684073773620185,207.86350767580734 21.370840542018414,208.52316906992928 17.158684508118313,211.06184525565186 16.399115387292113,209.84248520362598 15.518705724563915,210.2222866882512 15.104395294969436,210.0623703632882 12.687584455881733,199.68752020740067 12.549480979389045,197.78840344163473 13.775149333465379,203.34576699577156 14.154933893878479,203.50568879621278 18.591508077050094,201.48666649818188 22.0095691208262,200.38719017029507 24.150173006870318,199.18775442014157 27.153923621110152,196.76887001353316 28.93200588133186,194.25 29.950519020610955,194.7697694770759 29.82967847865075,194.92969826981425 29.415368049114477,194.78976058329863 29.65704913297668,194.58984942937968 29.65704913297668,194.90970717786695 29.760626740404405,194.36994692469307 29.173686965194065,194.54986717406427" stroke="#4dd2ff" stroke-linecap="round" stroke-linejoin="round" stroke-width="0.5"><title>2021-04-05 3.7km</title></polyline><polyline fill="none" points="38.73481308412738,197.03279737499543 41.952102803625166,199.5898049993557 44.601635514292866,206.9685472783167 44.66471962607466,210.69441797811305 46.11565420543775,210.40219352539862 47.56658878503367,211.71720262500457 50.84696261677891,209.30635076598264 53.875,210.10996895330027 47.692757009062916,208.64884430577513 47.692757009062916,211.05969837674638 48.00817757030018,207.6991116873105 47.88200934557244,211.20581048412714 48.07126168208197,210.036912791722 45.547897196142,210.5483057667152 47.251168224494904,209.45246323070023 48.13434579432942,211.05969837674638 46.55724299047142,210.036912791722 47.692757009062916,209.74468807072844 47.4404205607716,211.13275443407474 48.13434579432942,211.13275443407474 47.314252336509526,209.67163187172264 48.76518691563979,211.49803460936528 47.314252336509526,210.18302510736976 47.4404205607716,209.01412574702408 48.51285046734847,210.69441797811305 47.50350467301905,209.08718201285228 45.80023364489898,209.01412574702408 45.04322429909371,210.91358623967972 45.2324766353704,209.96385662275134 42.01518691587262,207.55299886519788 43.276869158959016,202.87737282452872 42.01518691587262,203.38877090858296 42.0782710283529,201.48929047142155 38.35630841110833,199.44369052385446 33.625,199.88203386135865 36.27453271043487,200.83177683933172 37.157710280502215,203.31571406160947" stroke="#4dd2ff" stroke-linecap="round" stroke-linejoin="round" stroke-width="0.5"><title>2021-04-04 1.4km</title></polyline><polyline fill="none" points="68.62569832382724,195.31029605760705 62.34706703899428,198.16945083171595 56.294692737516016,205.18732355046086 62.00768156419508,211.49034918023972 65.34497206704691,207.7215369839687 69.24790502805263,206.09704231552314 69.36103351972997,203.95270321628777 72.9811452513095,201.2885146077606 67.66410614503548,194.53052441892214 63.19553072634153,197.5196440187283 56.125,205.5772031751112 61.89455307251774,210.77557611098746 65.28840782120824,206.81182046339381 70.83170391060412,205.9021026858245 72.47206703922711,204.6674836918828 73.32053072634153,201.4184752777801 73.09427374298684,200.83365206042072 72.41550279338844,202.13325850421097 70.43575418996625,203.1079616539646 70.37918994412757,202.52313993725693 76.375,198.5593346118112 74.16899441345595,197.3896825792035 71.84986033500172,194.53052441892214 70.54888268141076,196.67489420302445 66.5893854747992,194.98539132031146 58.783519552787766,202.00329797528684 56.351256982889026,205.44724332587793 62.00768156419508,210.77557611098746 65.34497206704691,207.26667888072552 65.85405027936213,207.65655727422563 64.43994413386099,209.605945778545 72.18924581003375,211.2304317903472 74.67807262577116,214.21947558113607 69.41759776510298,204.60250368062407 69.9832402234897,202.84804095502477 72.75488826842047,200.5087500489317 69.70041899429634,198.6243152192328 68.0034916200675,195.37527698581107 66.81564245815389,194.9204103536904 65.79748603329062,195.63520063448232 66.3065642460715,196.090066772711" stroke="#4dd2ff" stroke-linecap="round" stroke-linejoin="round" stroke-width="0.5"><title>2021-04-02 3.1km</title></polyline><polyline fill="none" points="91.04787234042305,212.20074792089872 88.67819148930721,211.37592931518157 84.20811170211527,211.29344727563148 79.36103723407723,210.65421036571206 78.94813829788473,210.26241903548362 78.625,208.30345137036056 79.09175531915389,207.9322764810786 80.06117021269165,207.8910347859637 79.18151595746167,205.1484438040061 79.39694148930721,201.43660923172138 80.7433510638075,199.5188022110815 81.28191489365418,198.21963261922065 83.84906914888415,196.4461499822064 84.89029255323112,197.58035572872905 85.85970744676888,197.78657429409213 86.36236702126916,198.38460698320705 88.48071808507666,198.38460698320705 91.74800531915389,198.90015103154292 93.3277925531147,199.7250188640901 95.94880319142248,202.0552529043198 98.42619680834468,206.34446534818562 98.49800531903747,206.90123166389822 97.92353723396081,207.39613381076197 97.69015957438387,208.1797264804627 98.19281914888415,208.15910565835657 98.875,209.9118682754779 98.42619680834468,210.83979547643685 96.86436170211527,211.12848309891706 96.48736702115275,211.60275475618255 95.60771276580635,211.1697241552465 95.23071808507666,211.33468829948106 94.29720744676888,211.04600096173817 93.84840425522998,212.3038500177936 93.70478723396081,212.15950706791773" stroke="#4dd2ff" stroke-linecap="round" stroke-linejoin="round" stroke-width="0.5"><title>2021-04-02 3.2km</title></polyline><polyline fill="none" points="103.24668435018975,202.66292719938792 110.09515915124211,205.71689795321436 113.80139257304836,205.68604991279426 116.0573607427068,206.2104661850608 119.09217506635468,205.47011354524875 121.375,205.50096160676912 116.2185013263952,206.17961819347693 113.96253315662034,205.65520186946378 110.31001326267142,205.8402900842193 105.58322281180881,204.48297396599082 101.125,202.5395338149392" stroke="#4dd2ff" stroke-linecap="round" stroke-linejoin="round" stroke-width="0.5"><title>2021-04-01 1.4km</title></polyline><polyline fill="none" points="123.625,201.82444531813962 125.91182487737387,204.14660047745565 128.59635842882562,204.71762009788654 131.7448854338145,206.35453832778148 136.05339607212227,206.2784027501184 138.4396481178701,206.92555468186038 143.875,206.2784027501184 140.06362520472612,206.84941921680002 135.456833060598,206.16419935543672 131.34717675950378,206.35453832778148 125.18269230774604,204.67955214940594 124.5529869068414,204.33694044474396 125.28211947646923,204.03239645194844" stroke="#4dd2ff" stroke-linecap="round" stroke-linejoin="round" stroke-width="0.5"><title>2021-03-29 1.2km</title></polyline><polyline fill="none" points="155.88072600075975,214.5 154.93702578009106,209.17857130043558 154.28053867002018,208.99020105946693 151.0801640090067,204.37510701606516 148.94658090150915,204.18673488602508 155.59351288992912,194.25 157.8091568860691,195.61572459767922 162.15838398970664,200.04252928277128 161.7070491015911,203.19777998817153 163.55341909849085,214.02907949057408 157.68606555322185,210.12042139365803 155.55248244549148,209.69658908084966 155.34733022376895,210.59134574586642" stroke="#4dd2ff" stroke-linecap="round" stroke-linejoin="round" stroke-width="0.5"><title>2021-03-28 1.4km</title></polyline><polyline fill="none" points="178.50076923076995,200.7070694414433 179.65346153837163,201.3869868068141 179.93384615378454,200.81442489963956 181.0553846154362,200.74285459765815 181.30461538466625,200.17029167385772 181.64730769221205,200.56392878107727 182.17692307697143,200.17029167385772 183.82807692303322,201.100705966237 184.793846153887,200.38500287622446 187.62884615373332,201.24384641469806 187.4419230769854,200.5281436071091 188.78153846156783,200.6712842817069 187.7846153845312,200.3134324895509 188.03384615387768,199.74086888798047 188.09615384612698,200.5281436071091 187.9403846154455,200.17029167385772 187.5976923077833,200.63549911830341 187.65999999991618,200.06293602497317 188.09615384612698,200.6712842817069 187.62884615373332,200.5281436071091 188.56346153852064,200.4207880642207 188.56346153852064,200.77863975035143 188.1584615383763,200.27764729087357 187.5042307692347,200.63549911830341 188.81269230763428,200.4207880642207 188.40769230760634,200.0987212448381 188.2830769229913,201.17227619758341 187.7223076922819,200.7070694414433 187.65999999991618,201.100705966237 188.4388461537892,200.59971395149478 188.09615384612698,200.63549911830341 188.875,201.60169728906476 188.78153846156783,200.56392878107727 188.3142307692906,200.63549911830341 188.56346153852064,201.13649108362733 187.8780769231962,201.35120171416202 187.7846153845312,200.9575654611981 187.41076923080254,201.49434206381557 186.10230769228656,201.31541661793017 186.10230769228656,200.59971395149478 186.41384615376592,206.75471074145753 182.89346153847873,207.54197024044697 180.02730769233312,206.61157246728544 180.24538461538032,207.07677165218047 179.37307692307513,206.61157246728544 174.32615384610835,206.36108035143116 171.80269230774138,207.11255618010182 171.58461538457777,208.4007968364749 170.9926923076855,208.86599372708588 168.96769230766222,209.00913111201953 168.625,208.43658123380737" stroke="#4dd2ff" stroke-linecap="round" stroke-linejoin="round" stroke-width="0.5"><title>2021-03-26 1.5km</title></polyline><polyline fill="none" points="13.265243902686052,230.27931119620916 19.6859756099293,232.89972104059416 21.943815331091173,232.73763456111192 23.91942508716602,233.16986495998572 26.765243902569637,232.60256242161267 27.894163763150573,232.73763456111192 31.375,231.49496836503386 28.29398954717908,232.73763456111192 24.319250871194527,233.06180742420838 22.226045296294615,232.62957685484434 19.897648083860986,232.81867781287292 14.888066202169284,231.60302651891834 11.125,229.95513504001428" stroke="#4dd2ff" stroke-linecap="round" stroke-linejoin="round" stroke-width="0.5"><title>2021-03-26 1.6km</title></polyline><polyline fill="none" points="53.875,233.3593092187075 52.327886247891,233.16185849372414 50.0244057723321,231.70072010162403 48.06472835293971,231.74021039862419 45.24554329365492,230.63448061255622 38.369482173002325,230.83193258405663 39.400891341036186,231.34530725411605 38.98832767398562,231.46377823827788 33.625,229.7656907813216 37.95691850571893,231.42428791406564 44.1109932087129,231.81919098080834 49.37117996602319,233.08287817638484" stroke="#4dd2ff" stroke-linecap="round" stroke-linejoin="round" stroke-width="0.5"><title>2021-03-24 1.1km</title></polyline><polyline fill="none" points="76.375,233.04783945073723 74.91677989123855,232.95303097504075 73.48607336950954,231.87853295725654 71.20244565210305,231.49929750239244 69.3315217391355,230.64601608802332 63.60869565221947,230.772428292752 64.1039402175229,231.30967960663838 59.61922554357443,230.07716054923367 56.125,230.51960383335245 57.50067934778053,230.70922219660133 59.72927989123855,230.10876366126467 63.85631793481298,231.3728855844529 71.36752717394847,231.68891528592212" stroke="#4dd2ff" stroke-linecap="round" stroke-linejoin="round" stroke-width="0.5"><title>2021-03-23 1.3km</title></polyline><polyline fill="none" points="98.47107712749857,232.567746222805 91.6582446807297,230.18609483138425 88.88464095734525,230.65005431309692 86.13796542549971,230.34074806817807 86.89195478707552,230.8356379136967 86.5957446807297,230.92842967281467 82.26030585088301,229.62934254703578 78.625,230.15516417476465 81.99102393607609,229.6912039607996 86.05718085099943,230.86656850305735 91.44281914888415,231.23773533813073 98.875,233.49565745299333 97.66323138284497,232.9079806592781 98.875,232.567746222805" stroke="#4dd2ff" stroke-linecap="round" stroke-linejoin="round" stroke-width="0.5"><title>2021-03-22 1.6km</title></polyline><polyline fill="none" points="118.36926166788908,221.56272214881028 118.64814460591879,221.75828405687935 118.49320964037906,222.38052508610417 119.90311782708159,222.5938643751142 120.27496174437692,222.8960946041625 120.15101377194514,223.4472190168599 120.70877964794636,223.82056040759198 121.375,224.97613602233469 120.9721690894221,226.04281465771783 120.38341622037115,226.29170543488 120.16650726855733,226.9317087191448 117.30021040549036,229.42058887079475 114.13953710783971,230.64723864311236 113.14795332815265,231.28722652926808 112.3887719969498,231.92721215290658 110.17320198926609,234.98489001815324 101.125,241.56227785118972" stroke="#4dd2ff" stroke-linecap="round" stroke-linejoin="round" stroke-width="0.5"><title>2021-03-21 1.3km</title></polyline><polyline fill="none" points="132.80448179366067,229.8032366066327 132.54744771809783,228.15961639906163 130.78492834314238,225.9681031818327 130.06890484690666,225.75737957625824 127.6454407061683,227.96996710247186 125.24033614236396,231.0254075647099 124.63447010715026,231.19398232233652 123.97352534148376,232.9850809345662 125.09345952770673,234.58652113792778 127.75559816719033,235.85080758389086 130.63805172848515,238.18971785080794 130.47281553701032,238.3161447058228 130.8583666504128,238.2740024290979 130.50953469076194,238.08436208139756 130.9501645345008,238.82185138005298 131.92322210618295,239.98075800892548 135.6134970476851,241.6875 137.52289303729776,241.49786267198215 142.02098935900722,238.35828697423858 142.62685539433733,237.09401531754702 143.52647465863265,233.0482959062938 142.62685539433733,231.48898782924516 139.26705283566844,228.3914097558445 135.6318566245027,223.81871268281247 132.93299883138388,221.4375 129.90366865554824,225.65201769571286 130.45445596030913,225.7152348302625 131.20719860994723,226.41062207939103 132.67596475582104,228.2860491702013 132.65760517911986,228.87606778275222" stroke="#4dd2ff" stroke-linecap="round" stroke-linejoin="round" stroke-width="0.5"><title>2021-03-20 3.7km</title></polyline><polyline fill="none" points="164.37992610840593,236.6613907517749 157.46366995060816,234.44616516880342 150.14839901484083,234.2170031782298 146.2247536946088,233.376741386106 146.125,232.00176361144986 146.69027093600016,231.3906608109828 146.15825123165268,230.35942264838377 146.29125615756493,228.56429781380575 148.3860837437678,226.463609248196 151.8442118227249,226.88374787310022 155.3688423645217,228.0677724540874 162.0190886699129,227.91499529234716 165.57697044336237,227.34208039849182 166.00923645310104,226.84555347144487 165.37746305414476,228.2969380838913 164.97844827582594,233.22396631899755 165.31096059118863,235.74474721995648 166.375,235.93571480136598" stroke="#4dd2ff" stroke-linecap="round" stroke-linejoin="round" stroke-width="0.5"><title>2021-03-19 1.6km</title></polyline><polyline fill="none" points="176.8314965197933,231.35563761446974 181.23230858478928,233.24446257628733 182.9393851509667,233.13653024821542 184.4272041763761,233.46032704078243 185.993329466437,233.11854152071464 186.82337587006623,233.19049642025493 188.875,232.57887886925892 185.06931554537732,233.44233834512124 183.11165893281577,233.13653024821542 180.91908352676546,233.2264738593949 172.1644431555178,230.43820128955122 168.625,230.0604320496641 169.39240139216417,230.16836619800597 168.87558004644234,229.9524978374102 169.03219257545425,229.86255261175393 170.22244779585162,229.93450879584998 171.80423433880787,229.66467295920302 172.33671693742508,230.0604320496641 172.6499419953907,229.86255261175393 173.025812064996,230.22233324826811 173.35469837591518,230.11439913186769 173.7775522042648,230.47417927159404 174.310034802882,230.27630028252315 175.40632250584895,231.06781495049654 175.62558004644234,230.7979807905358 175.0617749420344,229.9524978374102 174.842517401441,229.97048687723873 174.92082366591785,230.5821131750854 175.93880510440795,231.0858038803126 176.36165893281577,230.07842107885517 176.59657772630453,230.5641241956182 176.90980278427014,230.51015724647732 176.58091647340916,230.6001021528209 176.7688515082118,230.54613521433203 176.31467517407145,229.91651975251443 176.9881090488052,229.86255261175393" stroke="#4dd2ff" stroke-linecap="round" stroke-linejoin="round" stroke-width="0.5"><title>2021-03-19 3.1km</title></polyline><polyline fill="none" points="19.646394716168288,268.875 19.532663844933268,268.52228456338344 19.316575189703144,268.4830939013482 18.998128750361502,268.783555347356 19.38481371238595,266.5758009995043 19.23696357983863,267.1114134236559 19.305202102579642,268.0911866430106 19.08911344729131,268.2610132639966 17.86082003841875,268.23488610571076 17.712969905813225,267.45106896047946 17.815327689924743,266.75869329033594 20.79507651523454,266.0924415865593 22.7967398482142,265.9618036046304 22.728501325589605,253.32850192676415 23.399513465643395,252.46620574944245 24.787030094186775,251.23807725591178 24.536822177527938,250.6109434182872 22.842232196766417,248.625" stroke="#4dd2ff" stroke-linecap="round" stroke-linejoin="round" stroke-width="0.5"><title>2021-03-18 2.7km</title></polyline><polyline fill="none" points="40.49280858581187,267.2040081245068 41.059741738426965,267.3023023847127 41.145316553884186,267.7814857925405 41.35925359255634,267.9043530360941 42.51451360154897,268.1378004650105 44.01207287242869,268.0026467436546 45.0496675100876,268.2975274011187 46.01238418422872,268.875 46.258411778719164,268.10094037371164 46.1193527035648,264.8203485683698 47.00719141418813,264.7343393812698 45.734266033919994,264.37801497340115 44.504128061409574,264.31657962765166 43.958588612731546,263.72679876673647 42.87820656731492,252.5572964463572 44.054860280128196,251.18100681563374 44.88921473105438,250.70175953426224 44.29019102273742,249.63266279814707 43.263293236959726,248.625" stroke="#4dd2ff" stroke-linecap="round" stroke-linejoin="round" stroke-width="0.5"><title>2021-03-17 2.8km</title></polyline><polyline fill="none" points="56.80718085099943,257.65717449979275 57.05851063830778,257.65717449979275 58.3151595746167,258.1932880077802 58.67420212761499,258.6469219776918 62.40824468084611,259.67790644278284 66.35771276592277,260.21401736012194 67.68617021269165,260.1315388023213 68.61968085099943,260.3377351666277 69.08643617015332,260.50269218478934 70.95345744676888,260.7913668101537 72.49734042561613,261.40995462221326 73.0,261.5336720747873 73.86170212784782,261.9873024211265 74.57978723407723,262.44093227526173 74.86702127661556,262.52341037773294 75.1901595746167,262.68836653383914 75.9800531915389,262.8945616374549 76.375,262.8533226248983 76.33909574477002,262.8533226248983 76.33909574477002,262.8533226248983 76.23138297884725,262.8945616374549 76.30319148954004,262.8533226248983 76.33909574477002,262.8533226248983 76.375,262.8945616374549 76.15957446815446,262.8533226248983 75.69281914900057,262.8533226248983 74.11303191492334,262.8945616374549 73.03590425546281,262.56464942291495 71.99468085099943,262.3584541566379 70.95345744676888,262.2759760216868 69.91223404253833,262.3172150910832 69.37367021292448,262.3584541566379 68.33244680869393,262.44093227526173 67.86569148930721,262.44093227526173 66.25,262.3172150910832 65.74734042561613,262.19349787029205 64.77792553184554,261.9460633190174 64.27526595746167,261.6986286213214 63.30585106392391,261.36871546308976 62.80319148954004,261.20375878649065 60.75664893630892,260.7913668101537 59.42819148954004,260.2552566330414 59.32047872338444,260.00782093481394 59.75132978730835,259.9253423361806 59.93085106392391,259.9253423361806 60.07446808507666,259.7603850902815 59.93085106392391,259.7191457685549 59.57180851045996,259.6366671129945 59.39228723407723,259.5954277791607 59.28457446815446,259.5541884411941 59.06914893630892,259.5541884411941 58.92553191492334,259.47170975309564 58.74601063830778,259.47170975309564 58.56648936169222,259.47170975309564 58.3151595746167,259.3892310487863 58.13563829800114,259.30675232823705 58.02792553184554,259.26551296177786 57.66888297884725,259.0593160688004 57.56117021269165,258.97683728308766 57.38164893630892,258.85311907398864 57.27393617015332,258.77064024773426 57.16622340423055,258.6469219776918 57.02260638284497,258.4819642273942 56.77127659576945,258.2757669480343 56.55585106392391,258.15204853154137 56.44813829800114,258.0695695668692 56.26861702138558,257.8633720841899 56.19680851045996,257.49221635903814 56.19680851045996,257.16229988241685 56.16090425546281,256.9561019522371 56.125,256.7911435349379 56.23271276592277,256.4612265051983 56.19680851045996,256.0075901641685 56.19680851045996,255.8013916646887 56.16090425546281,255.67767251611804 56.23271276592277,255.55395333108027 56.19680851045996,255.51271359462407 56.23271276592277,255.2240353252273 56.26861702138558,255.01783643927774 56.44813829800114,254.9765966499399 56.80718085099943,254.8528772573627 56.98670212761499,254.77039764198707 57.09441489353776,254.7291578282602 57.30984042561613,254.64667818858288 57.34574468084611,254.64667818858288 57.34574468084611,254.6054383625451 57.38164893630892,254.6054383625451" stroke="#4dd2ff" stroke-linecap="round" stroke-linejoin="round" stroke-width="0.5"><title>2021-03-02 1.4km</title></polyline><polyline fill="none" points="82.34534883731976,259.0475301410188 82.58081395365298,259.15571167122107 85.17093023261987,259.64252829400357 86.81918604671955,260.2375258014654 87.43139534885995,260.50797900068574 89.07965116295964,260.9407038418576 89.69186046510004,260.9407038418576 91.43430232582614,260.8325226637535 91.99941860465333,260.67025085614296 93.7418604651466,260.56206962442957 94.82499999995343,260.9407038418576 95.39011627924629,261.1570661345613 96.37906976765953,261.5356999412761 97.32093023252673,261.6979714926565 98.49825581419282,261.5897904637968 98.68662790698,261.4816094135167 98.875,261.5897904637968 98.82790697691962,262.34705721837236 97.98023255821317,262.56341895624064 97.27383720944636,263.15841329516843 96.94418604648672,263.26659401488723 96.61453488375992,263.3747747131274 96.42616279073991,263.3747747131274 96.14360465109348,263.42886505415663 95.9552325583063,263.5370457203244 95.29593023261987,263.8074972926406 95.39011627924629,264.0779487314867 95.71976744197309,264.2943097866373 95.71976744197309,264.3484000371536 95.71976744197309,264.4024902821984 95.76686046505347,264.3484000371536 95.53139534895308,264.2943097866373 95.24883720930666,264.4024902821984 95.15465116291307,264.4565805218881 95.06046511628665,264.5106707563973 95.01337209297344,264.564760985435 95.01337209297344,264.564760985435 94.82499999995343,264.2943097866373 94.73081395355985,264.186129269714 94.58953488362022,264.0238584544859 94.54244186053984,263.91567788424436 94.07151162810624,263.8074972926406 93.8831395348534,263.8074972926406 93.64767441875301,263.8074972926406 93.4122093024198,263.7534069889225 93.1296511630062,263.7534069889225 92.89418604667298,263.7534069889225 92.42325581400655,263.64522636542097 92.18779069767334,263.5911360455211 91.95232558157295,263.5370457203244 91.7168604650069,263.48295538994716 91.24593023280613,263.3747747131274 91.0575581395533,263.26659401488723 90.82209302345291,263.2125036577345 90.58662790711969,263.1043229274219 90.35116279055364,262.9961421758053 90.16279069776647,262.83387100847904 89.73895348841324,262.6175093773054 89.31511627906002,262.4011476607411 88.98546511656605,262.07660492591094 88.75,261.9684239717899 88.51453488366678,261.860242996132 88.2790697675664,261.7520619991701 88.04360465100035,261.6438809809042 87.90232558152638,261.5897904637968 87.52558139548637,261.4275188802276 87.33720930246636,261.3734283418162 87.14883720921353,261.31933779793326 86.96046511642635,261.21115669439314 86.72500000009313,261.1570661345613 86.48953488375992,261.1029755694908 85.9715116280131,261.04888499889057 85.7831395349931,260.99479442310985 85.54767441865988,260.9407038418576 85.26511627901345,260.9407038418576 85.07674418599345,260.8866132554831 84.60581395355985,260.8325226637535 84.37034883722663,260.7243414640543 83.9465116278734,260.39979773701634 83.4755813954398,260.2375258014654 83.2872093024198,260.1834351456491 83.05174418631941,260.129344484536 82.76918604667298,260.0752538180095 82.58081395365298,260.02116314624436 82.34534883731976,259.9129817863577 81.92151162796654,259.69661900313804 81.68604651186615,259.5884375793976 81.49767441861331,259.4802561344113 81.02674418617971,259.2098024284933 80.88546511647291,259.1016209088266 80.69709302322008,258.9934393678559 80.27325581409968,258.72298542183125 80.08488372107968,258.5607129902928 79.84941860474646,258.23616798303556 79.51976744201966,257.8575318985968 78.9546511627268,257.42480462481035 78.9546511627268,257.2625318093342 78.86046511633322,256.9920770097524 78.76627906993963,256.77571307419566 78.625,256.07252969406545 78.76627906993963,255.80207430786686 78.81337209302,255.5316187882563 78.86046511633322,255.31525427656015 78.90755813987926,255.1529808367486 78.90755813987926,254.88252499705413 78.90755813987926,254.17933918978088 78.90755813987926,253.69251771824202 79.42558139562607,253.47615248098737 79.80232558143325,253.2597871584585 80.13197674439289,253.15160446509253 80.3674418607261,253.0975131104933 80.46162790711969,252.98933038522955 81.1209302325733,252.93523901462322" stroke="#4dd2ff" stroke-linecap="round" stroke-linejoin="round" stroke-width="0.5"><title>2020-12-25 1.0km</title></polyline><polyline fill="none" points="101.42951127816923,256.4109922904463 101.65789473685436,256.6295922411664 101.84821428568102,256.848192084115 102.26691729319282,257.1105117535044 103.90366541361436,257.5477108574414 104.77913533826359,257.81003011285793 105.35009398497641,257.9411896824604 108.01456766924821,258.9904648415104 108.77584586455487,259.5151014898729 109.65131578943692,259.90857856851653 110.94548872183077,260.3894945240172 111.44031954882666,260.4769337325124 112.35385338356718,260.4769337325124 112.88674812018871,260.4769337325124 113.80028195492923,260.30205529826344 114.63768797018565,260.2146160550474 115.58928571431898,260.25833567878 116.12218045117334,260.2146160550474 117.60667293239385,260.4769337325124 118.10150375938974,260.6518120979017 119.0531015037559,260.82669039434404 119.58599624084309,260.7829708266654 120.53759398520924,260.7392512547376 120.95629699272104,260.69553167853155 121.375,260.8704099577444 121.33693609014153,260.9141295166919 121.22274436126463,260.9578490713611 121.18468045117334,261.0015686218103 121.18468045117334,261.0452881678357 121.14661654131487,261.0015686218103 121.0704887220636,261.0890077095537 121.0704887220636,261.0015686218103 121.10855263192207,261.0452881678357 121.14661654131487,261.0890077095537 121.10855263192207,261.0452881678357 121.18468045117334,260.9578490713611 121.14661654131487,260.9578490713611 121.10855263192207,260.9578490713611 121.10855263192207,261.0015686218103 121.10855263192207,260.9578490713611 121.10855263192207,260.9578490713611 121.10855263192207,260.9578490713611 121.10855263192207,261.0015686218103 121.0704887220636,261.0015686218103 121.0704887220636,261.0015686218103 121.0324248119723,261.0015686218103 120.9943609025795,261.0015686218103 121.0704887220636,261.0015686218103 121.0704887220636,261.0015686218103 121.0704887220636,261.0015686218103 121.0324248119723,261.0015686218103 121.0324248119723,261.0452881678357 120.95629699272104,261.0015686218103 120.08082706783898,261.0015686218103 119.09116541361436,261.0015686218103 118.10150375938974,260.7829708266654 117.64473684225231,260.6518120979017 116.69313909765333,260.3894945240172 116.19830827089027,260.30205529826344 115.17058270680718,260.30205529826344 114.67575187981129,260.25833567878 113.64802631596103,260.3457749131776 112.58223684201948,260.4769337325124 112.08740601525642,260.4769337325124 111.05968045117334,260.43321413043304 110.52678571431898,260.30205529826344 108.12875939859077,259.5151014898729 107.63392857159488,259.34022267596447 106.22556390985847,258.9904648415104 105.8449248119723,258.94674509283504 104.32236842112616,258.68442651000805 103.4468984962441,258.2909483447438 102.95206766924821,258.02862937393365 102.00046992488205,257.5039909664483 101.125,257.1979516088031" stroke="#4dd2ff" stroke-linecap="round" stroke-linejoin="round" stroke-width="0.5"><title>2020-12-08 1.1km</title></polyline><polyline fill="none" points="123.625,256.6626602980541 123.81971153849736,256.69993442544364 125.11778846161906,257.7063344717899 125.53966346161906,257.8554305470607 127.19471153849736,258.33999238556135 127.97355769237038,258.5636361014913 128.3629807693651,258.71273183854646 129.27163461537566,259.04819703206886 130.08293269237038,259.4582096419472 130.5048076924868,259.71912652574247 132.58173076924868,260.42732858809177 133.0360576924868,260.4646023440582 134.33413461549208,260.3155072980444 134.72355769237038,260.2782335272641 136.7680288462434,260.3155072980444 137.18990384612698,260.3527810650412 138.4555288462434,260.7255185332324 139.75360576924868,260.8373397019459 140.1430288462434,260.80006598262116 140.9867788463598,260.8373397019459 142.28485576924868,260.65097106888425 142.67427884612698,260.6136973313114 143.4855769231217,260.539149845019 143.875,260.5018760964449 143.71274038474075,260.20368597487686 142.80408653849736,260.1664121930953 142.41466346161906,260.20368597487686 141.60336538474075,260.42732858809177 141.31129807699472,260.5018760964449 140.46754807699472,260.6882448028773 140.078125,260.7255185332324 139.2668269231217,260.7255185332324 138.8449519231217,260.65097106888425 138.03365384612698,260.5018760964449 137.6442307693651,260.3900548283709 136.37860576924868,260.1664121930953 135.9567307693651,260.1664121930953 135.1129807693651,260.20368597487686 134.65865384612698,260.20368597487686 133.8149038462434,260.2782335272641 132.9711538462434,260.3155072980444 132.1598557693651,260.2782335272641 131.38100961549208,260.0918646186474 130.99158653849736,259.98004322941415 130.14783653861377,259.71912652574247 129.75841346161906,259.57003118560533 128.97956730762962,259.3091141988989 127.94110576913226,259.0109231363458 127.64903846161906,258.973649237043 126.87019230774604,258.787279685057 125.79927884635981,258.45181426004274 125.50721153861377,258.228170478018 124.82572115387302,257.8554305470607 124.46875,257.6690604437317" stroke="#4dd2ff" stroke-linecap="round" stroke-linejoin="round" stroke-width="0.5"><title>2020-12-03 1.3km</title></polyline><polyline fill="none" points="166.161091549322,259.2823435791943 166.33934859139845,259.93753014475806 166.375,260.1422757344553 165.76892605633475,260.5108175415371 164.73503521108069,260.4698684680334 163.3089788730722,260.22417394208605 161.95422535203397,259.6508861495822 161.49075704230927,259.5689878287958 158.85255281697027,258.54525745735737 157.88996478868648,258.3814603635401 156.42825704207644,258.42240964309894 155.43001760542393,258.3814603635401 154.7169894366525,258.3814603635401 154.2891725350637,258.3814603635401 153.32658450701274,258.29956179257715 153.00572183076292,258.25861250105663 151.90052816900425,258.17671390558826 151.47271126741543,258.13576460198965 149.9753521126695,258.0129166666593 149.51188380247913,257.93101802287856 148.58494718302973,257.8491193629161 147.37279929569922,257.31677767971996 146.9093309857417,257.15298010149854 146.125,256.9891824584629 147.01628521108069,257.1939295021002 147.8006161970552,257.5624739260238 148.58494718302973,257.93101802287856 149.04841549275443,257.97196734673344 150.22491197194904,258.094815294171 150.58142605633475,258.13576460198965 151.508362676017,258.21766320534516 151.9718309857417,258.25861250105663 152.93441901402548,258.25861250105663 153.36223591538146,258.29956179257715 154.32482394366525,258.3814603635401 154.75264084502123,258.3814603635401 156.07174295769073,258.42240964309894 156.4995598590467,258.42240964309894 157.14128521108069,258.34051108008134 157.3551936619915,258.34051108008134 157.49779929569922,258.34051108008134 157.64040492940694,258.34051108008134 157.78301056311466,258.34051108008134 157.96126760542393,258.29956179257715 158.1395246477332,258.29956179257715 158.4960387321189,258.34051108008134 158.63864436605945,258.34051108008134 158.95950704230927,258.46335891849594 159.28036971809343,258.62715597986244 159.2447183097247,258.7090544863604 159.2447183097247,258.7500037334685 159.20906690112315,258.7500037334685" stroke="#4dd2ff" stroke-linecap="round" stroke-linejoin="round" stroke-width="0.5"><title>2020-11-30 1.0km</title></polyline></svg>