<?xml version="1.0" encoding="utf-8" ?>
<svg baseProfile="full" height="300mm" version="1.1" viewBox="0,0,200,300" width="200mm" xmlns="http://www.w3.org/2000/svg" xmlns:ev="http://www.w3.org/2001/xml-events" xmlns:xlink="http://www.w3.org/1999/xlink"><defs /><rect fill="#222222" height="300" width="200" x="0" y="0" /><text fill="#FFFFFF" style="font-size:12px; font-family:Arial; font-weight:bold;" x="10" y="20">Over 3km Runs</text><text fill="#FFFFFF" style="font-size:4px; font-family:Arial" x="10" y="280">ATHLETE</text><text fill="#FFFFFF" style="font-size:9px; font-family:Arial" x="10" y="290">jdzj</text><text fill="#FFFFFF" style="font-size:4px; font-family:Arial" x="120" y="280">STATISTICS</text><text fill="#FFFFFF" style="font-size:3px; font-family:Arial" x="120" y="285">Number: 34</text><text fill="#FFFFFF" style="font-size:3px; font-family:Arial" x="120" y="290">Weekly: 3.1</text><text fill="#FFFFFF" style="font-size:3px; font-family:Arial" x="141" y="285">Total: 67.5 km</text><text fill="#FFFFFF" style="font-size:3px; font-family:Arial" x="141" y="290">Avg: 2.0 km</text><text fill="#FFFFFF" style="font-size:3px; font-family:Arial" x="167" y="285">Min: 1.0 km</text><text fill="#FFFFFF" style="font-size:3px; font-family:Arial" x="167" y="290">Max: 4.9 km</text><polyline fill="none" points="37.830305266194046,44.3397642543423 36.754588213632815,44.522826608939795 35.00156783184502,45.78137638588669 32.87005441309884,45.68984572330373 32.49156137602404,46.14749867518549 32.551323434570804,45.712728392361896 31.11703403131105,46.19326392072253 27.73051738459617,45.75849372360972 25.73844876885414,45.987320244748844 25.140828184201382,45.66696305203368 22.969473393051885,46.078850789926946 18.068984598387033,46.19326392072253 13.188416489982046,45.68984572330373 11.714285714318976,46.94838916820299 11.813889145152643,47.38315713501652 17.551046758308075,48.504397078140755 18.1685880292207,48.32133786578197 19.304067140212283,48.916279777738964 22.33201143599581,48.96204447699711 24.22447662090417,49.69427843707672 25.041224753367715,49.44257327403466 27.19265885837376,49.945983327095746 27.73051738459617,50.357863467012066 29.06520335713867,50.518038879468804 29.42377570795361,50.24345239039394 30.399889329564758,50.70109635833069 31.61505118513014,50.49515668449749 33.64696117315907,51.09009302110644 33.82624734856654,50.54092107224278 34.264502444071695,50.49515668449749 35.081250576418824,50.92991800364689 35.36014018265996,50.26633461023448 36.555381352081895,49.62563160156424 37.98967075534165,48.18404336167441 39.58332564798184,47.566217087733094 40.41999446658883,46.55938555984176 41.814442497561686,46.124616049055476 42.571428571478464,45.07201280594745 42.173014848376624,43.85922488605138 41.555473577464,43.19562126460369 40.300470349611714,43.99652195001545 38.388084478559904,43.88210773569881 38.268560361582786,44.614357732090866 35.57926773035433,45.941554958582856 36.137046942836605,46.467855204231455 36.515539979794994,46.2161465400568 37.81038457993418,47.20009703782853 38.886101632611826,47.03991933426005 38.96578437706921,46.765328727909946" stroke="#4dd2ff" stroke-linecap="round" stroke-linejoin="round" stroke-width="0.5"><title>2021-04-30 3.7km</title></polyline><polyline fill="none" points="78.75626269471832,45.12712432281114 76.80636425199918,47.926767015247606 75.73392010829411,48.094745137845166 65.10697359545156,45.18311731208814 55.649966147728264,45.12712432281114 56.91740013565868,46.190990172326565 48.14285714295693,43.55931838421384 55.162491536932066,46.02301148645347 66.37440758291632,47.08687565714354 77.92755585629493,50.72639590140898 79.00000000023283,50.50242609845009 77.53757616807707,49.99849371914752" stroke="#4dd2ff" stroke-linecap="round" stroke-linejoin="round" stroke-width="0.5"><title>2021-04-29 1.4km</title></polyline><polyline fill="none" points="96.42938775499351,46.38348503416637 98.9420408164151,44.40853927156422 98.06040816335008,42.838705166534055 99.60326530574821,42.33230604379787 110.13877551001497,32.25485957515775 111.37306122435257,32.10293675735011 115.42857142863795,36.76188271003775 110.27102040778846,40.10414396660053 110.84408163256012,40.154784121055854 107.62612244859338,43.64894272363745 108.9926530609373,43.14254440044169 109.30122448969632,41.97782636046759 107.75836734683253,43.243824104982195 100.39673469378613,52.15635983838001 95.415510204155,55.09341156895971 92.02122448966838,58.08108487658319 91.80081632640213,60.00533983227797 89.02367346920073,62.18277752836002 86.73142857151106,61.01810270050191 84.57142857136205,57.92916970443912 84.74775510188192,54.941495512466645 87.78938775509596,53.52361014904454 88.89142857119441,51.801886941102566 91.93306122440845,50.48527117879712 92.50612244894728,49.16865203855559 94.00489795906469,48.30778385119629 94.4457142855972,46.788601174310315 95.59183673467487,45.92772899434203 96.87020408152603,46.23156639930676 97.13469387730584,45.269413999980316" stroke="#4dd2ff" stroke-linecap="round" stroke-linejoin="round" stroke-width="0.5"><title>2021-04-26 2.2km</title></polyline><polyline fill="none" points="139.20531316415872,57.119403435412096 140.04675005399622,55.959388297836995 141.02281684568152,43.77902195171919 144.32124945311807,31.714285714289872 141.29207665054128,43.58567974969628 138.90239588392433,44.70706319317105 135.4356758989161,44.47505308894324 131.83432601136155,45.0164097850211 129.94950737874024,46.17645732869278 128.6368658307474,48.032526252703974 128.53589340415783,59.400756518763956 130.05047980556265,62.1847626218223 131.0602040728554,62.571428571420256 131.73335358453915,62.223429233941715 135.36836094781756,59.16875511719263 136.6136875442462,60.019426251528785 137.8253566653002,59.13008820349933 138.06095899443608,58.124747109541204" stroke="#4dd2ff" stroke-linecap="round" stroke-linejoin="round" stroke-width="0.5"><title>2021-04-25 2.2km</title></polyline><polyline fill="none" points="174.0494729137281,62.571428571420256 173.13953681790736,55.794615956314374 173.64157052605879,51.937544112151954 173.13953681790736,44.764003091608174 173.6101934191538,32.2550291219668 173.23366813827306,31.714285714289872 172.44924046925735,32.2550291219668 171.66481280047446,45.01634109666338 171.9785838680109,57.560924977588 173.23366813827306,57.921395156910876 173.32779945840593,57.59697201155359 173.48468499234878,51.43287749259616 173.07678260444663,56.22718222075491" stroke="#4dd2ff" stroke-linecap="round" stroke-linejoin="round" stroke-width="0.5"><title>2021-04-18 2.2km</title></polyline><polyline fill="none" points="42.57142857136205,85.82091097781085 37.045435939216986,85.26235202921089 20.334834220353514,80.2352942226862 12.952108063735068,79.5243931976438 11.714285714318976,78.71193368113018 20.51166598428972,78.61037615154055 22.456815390847623,77.03623187934863 26.25869832164608,78.76271243853262" stroke="#4dd2ff" stroke-linecap="round" stroke-linejoin="round" stroke-width="0.5"><title>2021-04-16 1.0km</title></polyline><polyline fill="none" points="78.99999999994179,83.90336622930772 78.09623430948704,84.144352744348 77.7250448295963,83.38431730118464 77.0794979078928,83.12479229956807 76.25642558268737,83.32870483095758 75.96592946792953,83.0877172699984 75.56246264191577,82.53159095007868 76.27256425574888,81.27103186570457 76.03048416005913,80.34414479187399 75.54632396885427,80.14022902220313 71.7860131500056,80.39975814527133 68.57441721454961,80.12169121394982 67.00896592944628,80.49244703091972 66.34728033468127,80.23291803582106 65.28212791390251,80.34414479187399 65.02390914526768,80.12169121394982 62.92588164965855,80.36268257813936 62.183502689760644,80.10315340387751 61.32815301849041,80.34414479187399 60.47280334722018,79.99192650518671 58.66527196648531,80.32560700378963 57.18051404657308,79.73239681895939 55.9539748954121,79.88069954072125 55.260011954582296,79.02795729250647 54.00119545718189,79.10210894591 52.855349671212025,78.74988833145471 52.38732815301046,78.97234353318345 51.74178123130696,78.34205311103142 50.78959952178411,78.67573653902218 49.4016736401245,78.21228717346094 48.59473998803878,78.6386606318847 49.15959354455117,78.23082517001603 49.28870292881038,78.86111596520641 48.14285714284051,78.80550215656694 49.11117752536666,78.45328098619939 48.64315600716509,78.56450879554905 49.143454871489666,78.52743286642362 48.739988045359496,78.69427448988426 48.99820681405254,78.97234353318345 48.7238493723562,78.74988833145471 49.11117752536666,78.62012267547834 48.99820681405254,78.41620503511513 48.67543335322989,78.52743286642362 48.78840406454401,78.80550215656694 49.28870292881038,78.60158471732575 49.04662283323705,78.50889489907422 49.01434548717225,78.76842627496808 49.143454871489666,78.43474301161768 48.96592946804594,78.76842627496808 49.07890017924365,78.50889489907422 49.15959354455117,78.71281243889825 48.917513448919635,78.04544512207212 49.06276150629856,78.52743286642362 48.98206814099103,78.21228717346094 49.01434548717225,78.52743286642362 48.69157202623319,78.28643914876739 48.804542737605516,78.11959716318233 48.917513448919635,78.28643914876739 48.67543335322989,78.37912907675491 48.99820681405254,78.54597083188128 48.739988045359496,78.39766705685179 49.04662283323705,78.11959716318233 48.82068141060881,78.50889489907422 48.56246264191577,78.50889489907422 48.82068141060881,78.02690710721072 48.57860131497728,78.19374917508685 48.96592946804594,78.52743286642362 48.69157202623319,78.36059109478083 48.739988045359496,78.52743286642362 48.82068141060881,78.37912907675491 48.90137477579992,79.15772266683052 48.739988045359496,80.90027758476208 50.30543933052104,81.23395647053258 50.434548714896664,81.53055942717765 51.83861326955957,81.40079569125373 52.6455469217035,81.69739838459645 59.084877465618774,81.97546298449743 65.44351464434294,82.79111677082255 68.4937238493003,82.90234201289422 69.8493723848951,83.19894233654486 71.41482367005665,83.9960533870908 73.8679019723786,83.71799177663343 74.12612074118806,84.16289015581424 74.465032875014,84.01459081313806 76.77286312013166,84.49656324907846 77.17632994614542,84.83023574994877 77.90257023309823,84.66339957356104 78.12851165566826,83.97751595916634 78.77405857737176,83.71799177663343" stroke="#4dd2ff" stroke-linecap="round" stroke-linejoin="round" stroke-width="0.5"><title>2021-04-09 4.9km</title></polyline><polyline fill="none" points="114.805678793462,83.07967010472203 105.12688553705812,80.27281550969929 104.02484472072683,79.22712097247131 97.22094055032358,79.77748676278861 92.28571428591385,79.28215757600265 93.19609582959674,79.8325233120122 92.76486246683635,80.05266945430776 84.57142857136205,78.18142447556602 91.3753327417653,80.21777900401503 101.14995563449338,81.04332602024078 114.7098491571378,84.67571838147705 112.88908606930636,83.9602490287507 115.42857142863795,83.63003209518502 114.75776397506706,82.80448890588013" stroke="#4dd2ff" stroke-linecap="round" stroke-linejoin="round" stroke-width="0.5"><title>2021-04-09 1.4km</title></polyline><polyline fill="none" points="122.2272727272939,79.71684280128102 123.7175324675627,80.97548085200833 134.5,85.10379187582294 139.27759740268812,84.90241162481834 143.4415584418457,85.75827714276966 151.15584415616468,84.90241162481834 151.85714285704307,84.04654467201908 148.74512987025082,83.24102152325213 145.01948051946238,83.99619951244676 141.1623376624193,82.53618772528716 137.96266233781353,82.78791419346817 132.52759740268812,80.01891621641698 131.82629870134406,78.7099301260605 128.71428571431898,77.5016322939191 126.34740259754471,77.09886571438983 121.0,78.40785593612236" stroke="#4dd2ff" stroke-linecap="round" stroke-linejoin="round" stroke-width="0.5"><title>2021-04-08 1.4km</title></polyline><polyline fill="none" points="188.08534322842024,82.71742947748862 188.28571428568102,83.77612659844453 185.68089053826407,83.82215685368283 178.78812615969218,81.47460805345327 168.3688311688602,80.9682724502054 162.87866419297643,79.03498600344756 157.42857142863795,79.86353831845918 162.59814471239224,79.26513957185671 168.088311688276,80.92224191364949 178.3072356218472,81.38254707554006" stroke="#4dd2ff" stroke-linecap="round" stroke-linejoin="round" stroke-width="0.5"><title>2021-04-06 1.3km</title></polyline><polyline fill="none" points="21.13772455090657,111.08088100404711 25.01796407182701,109.86904639052227 26.61933276313357,111.15216532774502 26.61933276313357,112.50656610226724 25.572284003486857,113.07683932950022 27.42001710855402,115.07279197144089 29.329341317061335,115.28664370329352 31.792985457461327,114.1461003801669 34.564585115527734,110.65317490900634 37.028229255694896,111.57987111830153 39.06073567154817,110.36803736741422 42.50983746768907,110.79574363626307 42.50983746768907,106.44738440774381 42.14029084704816,109.08491699479055 40.10778443119489,108.72849425219465 42.57142857136205,109.1562015216332 42.44824636424892,111.00959667295683 37.1514114625752,111.5085868377937 34.564585115527734,110.58189053460956 30.37639007694088,115.85691466892604 31.361847733147442,115.00150804652367 26.742514970013872,114.93022411421407 25.81864841724746,113.36197576927952 27.173652694793418,113.36197576927952 27.050470487680286,112.64913445245475 25.449101796373725,109.79776193608996 24.771599657600746,110.79574363626307 23.416595380520448,110.65317490900634 21.692044482100755,114.35995239467593 15.96407185588032,117.35387374600396 14.116338751045987,120.77548248902895 13.869974336819723,118.13799389149062 13.377245508832857,121.48831554176286 12.946107784286141,119.92008186911698 13.377245508832857,120.98933248105459 13.007698887726292,120.06264871166786 15.532934131566435,121.34574898920255 17.56544054718688,124.41092347842641 20.213857998140156,124.19707453052979 20.952951240353286,122.70013006735826 19.351582549046725,121.98729824722977 20.768177929800004,121.98729824722977 20.090675791259855,122.84269634459633 19.474764755927026,122.27243106235983 20.213857998140156,123.12782881164458 20.39863130869344,122.41499742638553 20.706586826359853,124.05450852884678 19.65953806648031,124.98118702089414 16.272027373546734,124.69605530775152 13.130881094606593,120.98933248105459 13.68520102626644,117.781575752364 14.054747647373006,120.34778230945813 11.714285714318976,121.70216531609185 12.391787852859125,120.56163243198534 11.960650128079578,121.98729824722977 13.68520102626644,120.77548248902895 13.931565440492705,117.63900844595628" stroke="#4dd2ff" stroke-linecap="round" stroke-linejoin="round" stroke-width="0.5"><title>2021-04-05 1.9km</title></polyline><polyline fill="none" points="72.4100510685239,123.83246957033407 71.20000156003516,124.44167536270106 71.67349919374101,123.71062826286652 72.51527276495472,123.71062826286652 72.69941073353402,123.19280215207255 71.75241546612233,128.82792041960056 69.72689781046938,130.2899878039898 69.62167611403856,131.14285714286962 69.54275984177366,130.2899878039898 71.83133173838723,128.91929984060698 72.59418903733604,125.93422430718783 73.12029751925729,121.1824099267833 71.80502631422132,120.23813012393657 68.964040511637,119.7202979978756 67.280493369326,121.03010693457327 63.755566540174186,122.03530524941743 57.33704305998981,125.90376419911627 56.17960439971648,124.04569173886557 54.83802777074743,124.62443685828475 54.20669759227894,124.38075483930879 50.52393821848091,108.57145936368033 50.31349482573569,105.67756714916322 52.18117993674241,114.14593066021916 52.759899266879074,114.38962102282676 59.52039326017257,111.31301561629516 64.72886723175179,109.63762311666505 67.99073981994297,107.80991149737383 72.56788361317012,104.12399240158265 75.27734229527414,100.28571428573923 76.82936231710482,101.07774396508466 76.6452243484091,101.32144498257549 76.01389417005703,101.10820660312311 76.38217010744847,100.80358008286566 76.38217010744847,101.2909823662776 76.54000265197828,100.46849055192433 75.64561823266558,100.74265474145068" stroke="#4dd2ff" stroke-linecap="round" stroke-linejoin="round" stroke-width="0.5"><title>2021-04-05 3.7km</title></polyline><polyline fill="none" points="92.35781041393057,104.52616742858663 97.26034712931141,108.42255999904592 101.29773030756041,119.66635775740724 101.39385847793892,125.34387501422316 103.6048064082861,124.89858061017003 105.81575433909893,126.9024039999349 110.8144192257896,123.2287249766523 115.42857142863795,124.45328602404334 106.00801068078727,122.22681037068833 106.00801068078727,125.90049276454374 106.48865153547376,120.77959876158275 106.29639519331977,126.12313978536986 106.58477970585227,124.34196234925184 102.73965287022293,125.12122783495579 105.3351134848781,123.45137254195288 106.6809078771621,125.90049276454374 104.27770360466093,124.34196234925184 106.00801068078727,123.8966675363481 105.6234979974106,126.01181628042832 106.6809078771621,126.01181628042832 105.43124165572226,123.7853438045131 107.64218958560377,126.56843369046692 105.43124165572226,124.56460968742613 105.6234979974106,122.78342970972881 107.25767690269276,125.34387501422316 105.71962616825476,122.8947535433108 103.12416555406526,122.78342970972881 101.97062750300393,125.67784569854848 102.25901201600209,124.23063866328448 97.35647530062124,120.5569506516913 99.27903871843591,113.43218716117553 97.35647530062124,114.21146043203771 97.45260347146541,111.31701405160129 91.7810413883999,108.19990936957765 84.57142857136205,108.86786112200934 88.60881174914539,110.31508851703256 89.9546061414294,114.10013571288437" stroke="#4dd2ff" stroke-linecap="round" stroke-linejoin="round" stroke-width="0.5"><title>2021-04-04 1.4km</title></polyline><polyline fill="none" points="140.0486831604503,101.90140351635637 130.4812450115569,106.25821079115849 121.2585794092156,116.95211207686225 129.9640861931257,126.5567225603154 135.04948124475777,120.81377064221306 140.99680766183883,118.33835019503022 141.16919393464923,115.07078585337149 146.68555466877297,111.01106987847015 138.58339984016493,100.71318006690126 131.77414205903187,105.26802898093592 121.0,117.54621436202433 129.79169991984963,125.46754455007613 134.96328810835257,119.42753594421083 143.4102154825814,118.0412993307691 145.9098164406605,116.15997514955234 147.20271348766983,111.20910518511664 146.85794094158337,110.31794599688146 145.8236233042553,112.29829867312219 142.806863527745,113.78356061555678 142.7206703913398,112.89240371389315 151.8571428572759,106.85231940844096 148.49561053467914,105.0699925016379 144.961691939272,100.71318006690126 142.97924980008975,103.98079116654117 136.9457302475348,101.40631058334839 125.05107741383836,112.1002635814366 121.3447725456208,117.34818030608585 129.9640861931257,125.46754455007613 135.04948124475777,120.12065353256185 135.8252194733359,120.71475394169101 133.67039106134325,123.68525071017211 145.47885075816885,126.16065796621842 149.27134876325727,130.7153913617367 141.25538707058877,116.06095798953902 142.11731843603775,113.38749097910477 146.34078212315217,109.82285721745575 141.6863527535461,106.95133747690124 139.1005586590618,102.00042207358638 137.2905027931556,101.30729196750326 135.73902633646503,102.39649620489217 136.51476456504315,103.08962555840844" stroke="#4dd2ff" stroke-linecap="round" stroke-linejoin="round" stroke-width="0.5"><title>2021-04-02 3.1km</title></polyline><polyline fill="none" points="176.35866261390038,127.63923492707545 172.74772036471404,126.38236848026281 165.93617021269165,126.25668156283791 158.550151975709,125.28260627153213 157.92097264446784,124.68559091119096 157.42857142852154,121.70049732623738 158.13981762924232,121.13489749495056 159.61702127661556,121.07205300714122 158.27659574477002,116.8928667489381 158.60486322187353,111.23673787686857 160.65653495443985,108.31436527401092 161.47720364748966,106.33467827687855 165.38905775069725,103.63222854430205 166.97568389063235,105.36054206281551 168.4528875380056,105.67477987668826 169.21884498477448,106.58606778390822 172.44680851057637,106.58606778390822 177.42553191492334,107.37165871472098 179.83282674767543,108.62860017383355 183.82674772036262,112.17943299704348 187.6018237080425,118.71537576866103 187.71124620048795,119.56378158307052 186.83586626127362,120.31791818782222 186.48024316108786,121.51196416068706 187.24620060785674,121.48054195559234 188.28571428568102,124.15141832453082 187.6018237080425,125.56540263074567 185.22188449837267,126.00530757926754 184.6474164131796,126.72800724749686 183.30699088133406,126.06815109369927 182.73252279637381,126.31952502776403 181.31003039504867,125.87962051312206 180.62613981752656,127.79634288424859 180.4072948327521,127.5763917225122" stroke="#4dd2ff" stroke-linecap="round" stroke-linejoin="round" stroke-width="0.5"><title>2021-04-02 3.2km</title></polyline><polyline fill="none" points="14.947328533511609,147.39112716095406 25.383099658880383,152.0447968810622 31.030693444423378,151.99779034330277 34.46835922682658,152.79690085342736 39.092838196316734,151.66874444988207 42.57142857136205,151.71575101985945 34.71390678291209,152.7498943900282 31.27624100027606,151.95078380109044 25.71049640001729,152.23282298547565 18.50776809407398,150.16453175767674 11.714285714318976,147.20309914657264" stroke="#4dd2ff" stroke-linecap="round" stroke-linejoin="round" stroke-width="0.5"><title>2021-04-01 1.4km</title></polyline><polyline fill="none" points="48.14285714295693,146.11344048473984 51.62754267035052,149.65196263231337 55.71826046309434,150.52208776818588 60.51601589936763,153.01643935660832 67.08136544353329,152.90042323822854 70.7175590370316,153.88655951520195 79.00000000023283,152.90042323822854 73.19219078822061,153.77054356847657 66.17231704480946,152.72639901778894 59.90998363355175,153.01643935660832 50.516483516665176,150.46407946577528 49.556932429550216,149.9420044872095 50.66799158323556,149.47793745057425" stroke="#4dd2ff" stroke-linecap="round" stroke-linejoin="round" stroke-width="0.5"><title>2021-03-29 1.2km</title></polyline><polyline fill="none" points="99.43729676306248,165.42857142857974 97.99927737936378,157.3197276958963 96.99891606858,157.03268732869765 92.12215468054637,150.00016307207989 88.87098042154685,149.7131198263378 98.99963868944906,134.57142857142026 102.37585811223835,136.65253272023983 109.00325179402716,143.3981398594333 108.31550339306705,148.20614093437325 111.12901957845315,164.71097827132326 102.18829036667012,158.75492783793015 98.93711610743776,158.10908812313573 98.62450319807976,159.47252685081912" stroke="#4dd2ff" stroke-linecap="round" stroke-linejoin="round" stroke-width="0.5"><title>2021-03-28 1.4km</title></polyline><polyline fill="none" points="136.04879120900296,144.41077248216607 137.80527472519316,145.4468370389659 138.23252747254446,144.57436175178736 139.94153846148401,144.4653022440616 140.32131868158467,143.5928254078026 140.84351648343727,144.19265338068362 141.6505494506564,143.5928254078026 144.16659340658225,145.0105995676131 145.63824175833724,143.92000438278774 149.9582417581696,145.22871834621765 149.67340659350157,144.13812359177973 151.71472527482547,144.35624271497363 150.195604395587,143.81094474595739 150.57538461545482,142.93846687691985 150.67032967018895,144.13812359177973 150.4329670330044,143.5928254078026 149.91076923091896,144.30171294219326 150.00571428565308,143.42923584755044 150.67032967018895,144.35624271497363 149.9582417581696,144.13812359177973 151.38241758244112,143.97453419311205 151.38241758244112,144.51983200054383 150.7652747251559,143.75641491939314 149.76835164846852,144.30171294219326 151.76219780207612,143.97453419311205 151.14505494502373,143.48376570641994 150.95516483508982,145.1196589677129 150.10065934062004,144.41077248216607 150.00571428565308,145.0105995676131 151.1925274725072,144.2471831641742 150.67032967018895,144.30171294219326 151.8571428572759,145.77401491667842 151.71472527482547,144.19265338068362 151.00263736280613,144.30171294219326 151.38241758244112,145.06512927025324 150.33802197827026,145.3923073739861 150.195604395587,144.7924807027448 149.6259340660181,145.61042600200744 147.63208791217767,145.3377777034766 147.63208791217767,144.2471831641742 148.10681318677962,153.6262258917559 142.74241758254357,154.82585941400612 138.3749450549949,153.4081104263314 138.7072527471464,154.1169853747706 137.37802197807468,153.4081104263314 129.68747252738103,153.02640815457562 125.84219780238345,154.17151417920832 125.5098901099991,156.13454756035935 124.60791208804585,156.8434190126718 121.52219780231826,157.06153312308015 121.0,156.18907616578508" stroke="#4dd2ff" stroke-linecap="round" stroke-linejoin="round" stroke-width="0.5"><title>2021-03-26 1.5km</title></polyline><polyline fill="none" points="160.68989547062665,148.04466467993916 170.47386759589426,152.03767015706399 173.9143852663692,151.790681235987 176.92483822791837,152.44931803425425 181.26132404175587,151.5848570234084 182.98158287699334,151.790681235987 188.28571428568102,149.89709465147462 183.5908412146382,151.790681235987 177.53409656556323,152.28465893209795 174.344449975295,151.6260218740208 170.7964161275886,151.9141757148318 163.16276754601859,150.06175469548907 157.42857142863795,147.55068196571665" stroke="#4dd2ff" stroke-linecap="round" stroke-linejoin="round" stroke-width="0.5"><title>2021-03-26 1.6km</title></polyline><polyline fill="none" points="42.57142857136205,187.02370928565506 40.213921901537105,186.72283199045341 36.7038564151153,184.49633539299248 33.71768129989505,184.556511083676 29.421780257020146,182.87158950482262 18.943972835084423,183.17246869957307 20.515643948456272,183.95475391106447 19.886975503293797,184.13528112502536 11.714285714318976,181.5477192858234 18.315304389689118,184.07510539289797 27.692942032357678,184.6768624469405 35.70846471004188,186.60248103068443" stroke="#4dd2ff" stroke-linecap="round" stroke-linejoin="round" stroke-width="0.5"><title>2021-03-24 1.1km</title></polyline><polyline fill="none" points="79.0,186.54908868685015 76.77795031061396,186.40461862867232 74.59782608691603,184.7672883158666 71.11801242246293,184.1894057179452 68.26708074542694,182.88916737228283 59.54658385110088,183.081795493752 60.301242236280814,183.90046416252153 53.467391304438934,182.0223398845992 48.14285714295693,182.69653917464893 50.23913043481298,182.98548144244705 53.63509316765703,182.0704970076913 59.923913043690845,183.99677803347004 71.3695652175229,184.47834710241295" stroke="#4dd2ff" stroke-linecap="round" stroke-linejoin="round" stroke-width="0.5"><title>2021-03-23 1.3km</title></polyline><polyline fill="none" points="114.81306990864687,185.81751805375097 104.43161094211973,182.18833498109598 100.20516717294231,182.89532085802057 96.01975683867931,182.42399705623393 97.16869300883263,183.17811491605244 96.71732522780076,183.31951188234962 90.1109422489535,181.33995054781553 84.57142857136205,182.14120255198213 89.70060790260322,181.43421555924579 95.89665653463453,183.2252472427208 104.10334346489981,183.7908348008932 115.42857142840512,187.23147802357562 113.58206686913036,186.33597052839468 115.42857142840512,185.81751805375097" stroke="#4dd2ff" stroke-linecap="round" stroke-linejoin="round" stroke-width="0.5"><title>2021-03-22 1.6km</title></polyline><polyline fill="none" points="147.276970160543,169.04795756010571 147.70193463761825,169.34595665812958 147.4658432614524,170.29413346454385 149.6142747841077,170.61922190495534 150.1808940867195,171.07976320636226 149.9920209858101,171.91957183522754 150.84194993972778,172.48847300207126 151.8571428571595,174.24935012930655 151.24330527917482,175.8747651927406 150.34615805011708,176.25402732935618 150.01563012355473,177.2292704291758 145.64793966547586,181.02184970790404 140.83167559292633,182.8910303133307 139.3206907857675,183.8662499493803 138.1638430429157,184.84146613779012 134.7877363646403,189.5007847895904 121.0,199.52347101134364" stroke="#4dd2ff" stroke-linecap="round" stroke-linejoin="round" stroke-width="0.5"><title>2021-03-21 1.3km</title></polyline><polyline fill="none" points="171.41635320917703,181.60493197204778 171.02468223695178,179.10036784620024 168.33893842739053,175.76091913424898 167.24785500473808,175.43981649714988 163.5549572664313,178.81137844186742 159.8900360261323,183.46728771767812 158.96681159175932,183.72416353880544 157.9596576631302,186.45345666221692 159.6662240420701,188.89374649588717 163.72281625447795,190.8202782230801 168.11512644321192,194.38433196314145 167.86333796102554,194.5769824088784 168.45084441942163,194.5127656062541 167.9192909571575,194.22378983831732 168.5907269094605,195.3475830553216 170.0734813043382,197.11353601361043 175.6967574057635,199.71428571428987 178.60631319950335,199.4253145478142 185.46055521350354,194.64119919884251 186.38377964822575,192.71469000770594 187.75462805107236,186.5497842381883 186.38377964822575,184.17369573979522 181.26408051117323,179.45357677081483 175.72473390388768,172.48565742143546 171.61218869523145,168.8571428571595 166.9960665225517,175.27926506014774 167.83536146313418,175.37559593183687 168.98239788168576,176.43523364479188 171.2205177230062,179.2930273069942 171.19254122511484,180.19210328802" stroke="#4dd2ff" stroke-linecap="round" stroke-linejoin="round" stroke-width="0.5"><title>2021-03-20 3.7km</title></polyline><polyline fill="none" points="39.531315974658355,226.3411668598419 28.992258972488344,222.96558501914842 17.84517945139669,222.61638579540886 11.866291344165802,221.3359868740663 11.714285714318976,219.24078264605487 12.575650950195268,218.30957837868482 11.764954257756472,216.7381678451784 11.967628430575132,214.00273952580756 15.159746657358482,210.8016902829986 20.429275158559904,211.44190152094234 25.800140745937824,213.2461294538807 35.93384940200485,213.01332615979481 41.35538353282027,212.14031298819464 42.01407459541224,211.38370052794926 41.05137227312662,213.59533422312234 40.44334975373931,221.10318677179748 40.95003518671729,224.94437671615742 42.57142857159488,225.235374935437" stroke="#4dd2ff" stroke-linecap="round" stroke-linejoin="round" stroke-width="0.5"><title>2021-03-19 1.6km</title></polyline><polyline fill="none" points="60.64799469686113,218.25620969827287 67.35399403399788,221.13441916389274 69.95525356335565,220.96995085445815 72.22240636404604,221.4633554907341 74.6088829964865,220.94253946014214 75.87371561152395,221.05218502136995 79.0,220.12019637221238 73.20086178334896,221.4359441449633 70.21776599285658,220.96995085445815 66.87669870746322,221.10700778575847 53.53629433223978,216.85821148887044 48.14285714284051,216.28256312332815 49.31223069282714,216.4470342065033 48.52469340409152,216.11809194274247 48.76334106735885,215.98103255126625 50.57706330786459,216.09068006990128 52.987404706771486,215.6795016521355 53.79880676174071,216.28256312332815 54.276102088275366,215.98103255126625 54.84885647997726,216.52926971166744 55.35001657274552,216.36479867715389 55.99436526361387,216.91303508056444 56.80576731869951,216.61150519244256 58.47630096122157,217.8176227817312 58.810407689772546,217.4064469189325 57.95127610221971,216.11809194274247 57.61716937366873,216.1455038129643 57.73649320518598,217.0775057906285 59.287703016307205,217.84503448431497 59.932051707059145,216.30997497733915 60.290023202076554,217.05009401240386 60.76731852837838,216.9678586613154 60.26615843561012,217.10491756623378 60.552535631577484,217.02268223138526 59.86045740812551,216.06326819432434 60.88664236012846,215.98103255126625" stroke="#4dd2ff" stroke-linecap="round" stroke-linejoin="round" stroke-width="0.5"><title>2021-03-19 3.1km</title></polyline><polyline fill="none" points="97.55641099606873,234.0 97.38310681137955,233.46252885850845 97.05382886051666,233.40280975445057 96.56857714336365,233.86065576742112 97.15781137126032,230.4964586659189 96.9325159311993,231.31262997890008 97.03649844200118,232.8056177417311 96.70722049113829,233.0644011641998 94.83553529664641,233.02458835155994 94.61023985646898,231.83020032073546 94.76621362270089,230.77515168052923 99.30678326130146,229.75991098905797 102.35693691158667,229.56084358801309 102.25295440084301,210.3100981741154 103.27544909052085,208.99612304678885 105.38976014353102,207.12468915186764 105.0084909372381,206.1690566374018 102.4262585855322,203.14285714285506" stroke="#4dd2ff" stroke-linecap="round" stroke-linejoin="round" stroke-width="0.5"><title>2021-03-18 2.7km</title></polyline><polyline fill="none" points="131.46523213078035,231.45372666590265 132.32913026807364,231.60350839575403 132.4595299868961,232.33369263625355 132.7855292839813,232.52091891213786 134.54592548805522,232.8766483276413 136.82792056753533,232.67069979985536 138.40901715826476,233.1200417540822 139.87601399503183,234.0 140.25091318663908,232.8204805694695 140.03901364357444,227.8214835327526 141.39191072643735,227.69042191430344 139.45221490884433,227.14745138803846 137.57771895069163,227.05383562309726 136.74642074329313,226.1551219302637 135.10012429306516,209.13492791824683 136.89312042691745,207.03772467143426 138.16451768542174,206.307443099824 137.25171965372283,204.6783433114615 135.68692302779527,203.14285714285506" stroke="#4dd2ff" stroke-linecap="round" stroke-linejoin="round" stroke-width="0.5"><title>2021-03-17 2.8km</title></polyline><polyline fill="none" points="158.46808510646224,216.90617066639243 158.85106382984668,216.90617066639243 160.7659574470017,217.72310553566786 161.3130699088797,218.41435729939258 167.0030395137146,219.98538124613697 173.02127659576945,220.80231216782704 175.0455927052535,220.67663055594312 176.46808510646224,220.99083453963976 177.1793313070666,221.24219761491986 180.02431610948406,221.6820827583433 182.37689969618805,222.62469275767216 183.14285714295693,222.8132145901327 184.45592705183662,223.5044608322205 185.55015197582543,224.19570632424438 185.98784194537438,224.32138724229299 186.4802431613207,224.5727490039426 187.68389057763852,224.8869510666118 188.28571428568102,224.82411066652276 188.23100303974934,224.82411066652276 188.23100303974934,224.82411066652276 188.0668693012558,224.8869510666118 188.176291793352,224.82411066652276 188.23100303974934,224.82411066652276 188.28571428568102,224.8869510666118 187.9574468084611,224.82411066652276 187.24620060808957,224.82411066652276 184.83890577498823,224.8869510666118 183.19756838912144,224.38422769209137 181.61094224941917,224.07002538151573 180.02431610948406,223.94434441404883 178.4376899697818,224.00718490075087 177.6170212768484,224.07002538151573 176.03039513691328,224.19570632424438 175.3191489360761,224.19570632424438 172.85714285704307,224.00718490075087 172.0911854102742,223.8186634214362 170.61398176266812,223.4416202956345 169.84802431613207,223.06457694678102 168.37082066875882,222.56185213424033 167.60486322198994,222.31048957945313 164.48632218851708,221.6820827583433 162.46200607926585,220.8651529646595 162.29787234053947,220.48810809117276 162.9544072947465,220.36242641706485 163.22796352603473,220.36242641706485 163.4468085106928,220.11106299475068 163.22796352603473,220.04822212352883 162.68085106369108,219.9225403626333 162.4072948328685,219.85969947301783 162.24316109437495,219.79685857711593 161.91489361715503,219.79685857711593 161.69604863249697,219.67117676668568 161.42249240120873,219.67117676668568 161.14893617015332,219.67117676668568 160.7659574470017,219.54549493151717 160.4924012159463,219.4198130716104 160.32826747721992,219.35697213222738 159.78115501534194,219.0427673429367 159.61702127661556,218.9170853837859 159.34346504579298,218.72856239846442 159.1793313070666,218.60288037749706 159.01519756857306,218.41435729939258 158.79635258344933,218.16299310844624 158.41337386029772,217.84878773038508 158.0851063830778,217.66026442905422 157.92097264435142,217.5345821972005 157.64741641352884,217.22037650924176 157.53799392073415,216.65480588044738 157.53799392073415,216.15207601129077 157.4832826750353,215.8378696414875 157.42857142863795,215.5865044341772 157.5927051671315,215.08377372223185 157.53799392073415,214.3925183454412 157.53799392073415,214.07831110811094 157.4832826750353,213.88978669123026 157.5927051671315,213.70126221881947 157.53799392073415,213.63842071563704 157.5927051671315,213.19853001937736 157.64741641352884,212.8843221932184 157.92097264435142,212.82148060941836 158.46808510646224,212.63295582076535 158.74164133728482,212.50727259734413 158.9057750760112,212.4444309764076 159.23404255323112,212.3187477159663 159.28875379939564,212.3187477159663 159.28875379939564,212.25590607628692 159.34346504579298,212.25590607628692" stroke="#4dd2ff" stroke-linecap="round" stroke-linejoin="round" stroke-width="0.5"><title>2021-03-02 1.4km</title></polyline><polyline fill="none" points="17.38338870415464,253.31052211951464 17.74219269119203,253.4753701656009 21.689036544878036,254.21718597173458 24.200664451811463,255.12384884024505 25.133554817177355,255.53596800094238 27.645182724110782,256.19535823515616 28.578073089476675,256.19535823515616 31.233222591225058,256.0305107256281 32.09435215918347,255.78323939972324 34.749501660931855,255.61839180858806 36.39999999990687,256.19535823515616 37.26112956786528,256.5250531573547 38.768106312491,257.10201895801583 40.203322258777916,257.3492898934637 41.997342192567885,257.1844426114112 42.284385381732136,257.0195952967042 42.57142857136205,257.1844426114112 42.49966777395457,258.33837290410884 41.20797342201695,258.6680669808993 40.1315614618361,259.5747250210843 39.62923587998375,259.7395718321786 39.12691029859707,259.9044186103856 38.83986710943282,259.9044186103856 38.40930232498795,259.9868419871782 38.12225913628936,260.15168871660717 37.117607973050326,260.5638053982402 37.26112956786528,260.9759218764375 37.76345514925197,261.30561491288245 37.76345514925197,261.3880381517811 37.76345514925197,261.4704613822978 37.835215946659446,261.3880381517811 37.47641196008772,261.30561491288245 37.04584717610851,261.4704613822978 36.90232558129355,261.55288460466545 36.7588039864786,261.6353078192333 36.68704318907112,261.717731025361 36.68704318907112,261.717731025361 36.39999999990687,261.30561491288245 36.25647840509191,261.140768410929 36.04119601286948,260.89349859720096 35.969435215462,260.72865201398963 35.25182724231854,260.5638053982402 34.96478405268863,260.5638053982402 34.6059800661169,260.5638053982402 34.24717607954517,260.4813820782583 33.81661129556596,260.4813820782583 33.457807308994234,260.4813820782583 32.740199335385114,260.3165354138473 32.38139534834772,260.2341120693018 32.022591362241656,260.15168871660717 31.663787375204265,260.0692653559963 30.946179402060807,259.9044186103856 30.659136212430894,259.7395718321786 30.300332225859165,259.657148430706 29.941528239287436,259.49230160354637 29.582724252250046,259.32745474402327 29.295681063085794,259.0801843938534 28.649833886884153,258.75049047963694 28.00398671068251,258.42079643538455 27.501661129761487,257.92625512514496 27.142857142258435,257.76140795688843 26.784053155686706,257.5965607559192 26.42524916958064,257.4317135224701 26.066445182077587,257.2668662565411 25.851162790786475,257.1844426114112 25.27707641199231,256.9371716269525 24.9900332223624,256.8547479493427 24.702990032732487,256.77232426346745 24.415946843568236,256.60747686756076 24.057142856996506,256.5250531573547 23.698338869959116,256.442629439116 22.90897009940818,256.3602057124954 22.62192691024393,256.2777819779585 22.263122923206538,256.19535823515616 21.83255813922733,256.19535823515616 21.54551495006308,256.1129344844376 20.82790697645396,256.0305107256281 20.46910298988223,255.86566318321275 19.82325581368059,255.37112036108738 19.10564784053713,255.12384884024505 18.81860465090722,255.04142498376314 18.45980066433549,254.95900111924857 18.029235880356282,254.8765772464103 17.74219269119203,254.7941533655976 17.38338870415464,254.6293055791757 16.737541527953,254.29960990947438 16.37873754138127,254.13476202567108 16.091694351751357,253.9699141094461 15.374086378607899,253.55779417662416 15.158803986851126,253.39294614666142 14.871760797221214,253.228098084277 14.225913621019572,252.8159777855617 13.938870431855321,252.5687055088929 13.58006644481793,252.07416073593777 13.077740863431245,251.49719146447023 12.21661129547283,250.83779752347618 12.21661129547283,250.59052466176217 12.073089701123536,250.17840306239668 11.92956810630858,249.84870563674485 11.714285714086145,248.77718810515944 11.92956810630858,248.3650656118407 12.001328903250396,247.9529429153772 12.073089701123536,247.62324461177923 12.144850498531014,247.37597079877742 12.144850498531014,246.96384761441732 12.144850498531014,245.89232638437534 12.144850498531014,245.15050318959402 12.93421926908195,244.82080378045794 13.508305647876114,244.49110424134415 14.010631229262799,244.32625442295102 14.369435215834528,244.24382950161817 14.512956810649484,244.07897963450523 15.517607973422855,243.99655468884157" stroke="#4dd2ff" stroke-linecap="round" stroke-linejoin="round" stroke-width="0.5"><title>2020-12-25 1.0km</title></polyline><polyline fill="none" points="48.6068743285723,249.29294063308043 48.95488721807487,249.6260453199502 49.24489795905538,249.95914984249976 49.882921589538455,250.35887505300343 52.377013963414356,251.02508321136702 53.71106337266974,251.42480779107427 54.58109559630975,251.62466999236494 58.64124597189948,253.2235654728138 59.801288936519995,254.02301179413917 61.13533834577538,254.62259591399925 63.10741138551384,255.35542022710433 63.861439312575385,255.48866092576645 65.25349087012,255.48866092576645 66.06552094523795,255.48866092576645 67.45757250254974,255.22217950213235 68.73361976398155,255.08893875055946 70.18367346958257,255.15555912960554 70.99570354470052,255.08893875055946 73.25778732565232,255.48866092576645 74.01181525248103,255.75514224445214 75.46186895808205,256.0216234581312 76.27389903366566,255.95500316447578 77.72395273926668,255.8883828644175 78.36197636974975,255.82176255778177 79.0,256.0882437452092 78.94199785171077,256.15486402547685 78.76799140754156,256.22148429922527 78.7099892590195,256.28810456662904 78.7099892590195,256.3547248272225 78.65198711073026,256.28810456662904 78.53598281438462,256.42134508123854 78.53598281438462,256.28810456662904 78.59398496267386,256.3547248272225 78.65198711073026,256.42134508123854 78.59398496267386,256.3547248272225 78.7099892590195,256.22148429922527 78.65198711073026,256.22148429922527 78.59398496267386,256.22148429922527 78.59398496267386,256.28810456662904 78.59398496267386,256.22148429922527 78.59398496267386,256.22148429922527 78.59398496267386,256.22148429922527 78.59398496267386,256.28810456662904 78.53598281438462,256.28810456662904 78.53598281438462,256.28810456662904 78.47798066586256,256.28810456662904 78.41997851803899,256.28810456662904 78.53598281438462,256.28810456662904 78.53598281438462,256.28810456662904 78.53598281438462,256.28810456662904 78.47798066586256,256.28810456662904 78.47798066586256,256.3547248272225 78.36197636974975,256.28810456662904 77.02792696026154,256.28810456662904 75.51987110637128,256.28810456662904 74.01181525248103,255.95500316447578 73.31578947370872,255.75514224445214 71.86573576787487,255.35542022710433 71.11170784127899,255.22217950213235 69.54564983886667,255.22217950213235 68.79162191203795,255.15555912960554 67.22556390985847,255.28879986773245 65.60150375938974,255.48866092576645 64.84747583256103,255.48866092576645 63.28141783038154,255.42204057972413 62.469387755030766,255.22217950213235 58.81525241676718,254.02301179413917 58.06122448993847,253.75652979197912 55.91514500556514,253.2235654728138 55.33512352290563,253.15694490342867 53.01503759413026,252.7572213485837 51.68098818464205,252.1576355729485 50.926960257813334,251.75791142700473 49.47690655221231,250.95846242510015 48.14285714295693,250.49211673723767" stroke="#4dd2ff" stroke-linecap="round" stroke-linejoin="round" stroke-width="0.5"><title>2020-12-08 1.1km</title></polyline><polyline fill="none" points="84.57142857136205,249.6764347399003 84.86813186807558,249.73323341022478 86.8461538462434,251.26679538562894 87.4890109889675,251.49398940510582 90.0109890110325,252.23236934945453 91.19780219788663,252.57315977377584 91.7912087913137,252.8003532778239 93.17582417582162,253.31153833464487 94.4120879122056,253.93631945445668 95.05494505516253,254.33390708692605 98.21978021971881,255.4130721343099 98.91208791243844,255.46987023862312 100.8901098901406,255.24267778755166 101.48351648356766,255.18587966065388 104.5989010988269,255.24267778755166 105.241758241551,255.29947590868687 107.17032967042178,255.86745681258617 109.14835164835677,256.0378509744187 109.74175824178383,255.98105292598484 111.02747252769768,256.0378509744187 113.00549450539984,255.7538606764865 113.5989010988269,255.697062600113 114.83516483521089,255.58346643054392 115.42857142863795,255.5266683374648 115.18131868145429,255.07228339032736 113.79670329671353,255.01548524666578 113.20329670328647,255.07228339032736 111.96703296713531,255.4130721343099 111.52197802206501,255.5266683374648 110.23626373638399,255.8106587473303 109.6428571427241,255.86745681258617 108.40659340657294,255.86745681258617 107.76373626384884,255.7538606764865 106.52747252746485,255.5266683374648 105.93406593427062,255.35627402423415 104.00549450539984,255.01548524666578 103.36263736267574,255.01548524666578 102.07692307699472,255.07228339032736 101.38461538450792,255.07228339032736 100.09890109905973,255.18587966065388 98.81318681314588,255.24267778755166 97.57692307699472,255.18587966065388 96.3901098901406,254.90188894275343 95.79670329671353,254.73149444488809 94.51098901126534,254.33390708692605 93.91758241760544,254.1067141876556 92.73076923075132,253.7091263983748 91.14835164812393,253.25474001734983 90.70329670328647,253.19794169458328 89.51648351643234,252.9139499963494 87.88461538474075,252.40276458679 87.43956043967046,252.06197406176943 86.4010989011731,251.49398940510582 85.8571428572759,251.20999686670257" stroke="#4dd2ff" stroke-linecap="round" stroke-linejoin="round" stroke-width="0.5"><title>2020-12-03 1.3km</title></polyline><polyline fill="none" points="151.5311871226877,253.66833307308843 151.80281690135598,254.66671260155272 151.85714285704307,254.97870588110527 150.93360160966404,255.5402933966252 149.35814889334142,255.47789480845677 147.18511066399515,255.1035031498759 145.12072434579022,254.22992175177205 144.4144869216252,254.10512431059033 140.39436619728804,252.54515422077384 138.92756539210677,252.29555864923168 136.7002012070734,252.35795755143045 135.17907444643788,252.29555864923168 134.09255533199757,252.29555864923168 133.440643863054,252.29555864923168 131.9738430583384,252.17076082678977 131.4849094566889,252.10836190643022 129.80080482875928,251.9835640466772 129.14889336004853,251.9211651078076 126.86720321932808,251.73396825394593 126.16096579446457,251.60917032061843 124.74849094566889,251.48437236261088 122.90140845091082,250.6731850358192 122.19517102604732,250.42358872608747 121.0,250.17399231769377 122.35814889334142,250.48598781274632 123.55331991938874,251.04757931584027 124.74849094566889,251.60917032061843 125.45472837006673,251.67156929027988 127.24748490960337,251.85876616259338 127.79074446670711,251.9211651078076 129.20321931596845,252.0459629795514 129.90945674013346,252.10836190643022 131.37625754531473,252.10836190643022 132.02816901402548,252.17076082678977 133.4949698189739,252.29555864923168 134.14688128768466,252.29555864923168 136.15694164973684,252.35795755143045 136.80885311868042,252.35795755143045 137.78672032174654,252.23315974109573 138.11267605633475,252.23315974109573 138.3299798790831,252.23315974109573 138.5472837020643,252.23315974109573 138.7645875250455,252.23315974109573 139.03621730371378,252.17076082678977 139.30784708238207,252.17076082678977 139.85110663971864,252.23315974109573 140.06841046269983,252.23315974109573 140.5573440643493,252.42035644722637 141.0462776659988,252.66995196935022 140.9919517103117,252.7947496934794 140.9919517103117,252.85714854625985 140.93762575439177,252.85714854625985" stroke="#4dd2ff" stroke-linecap="round" stroke-linejoin="round" stroke-width="0.5"><title>2020-11-30 1.0km</title></polyline></svg>