<?xml version="1.0" encoding="utf-8" ?>
<svg baseProfile="full" height="300mm" version="1.1" viewBox="0,0,200,300" width="200mm" xmlns="http://www.w3.org/2000/svg" xmlns:ev="http://www.w3.org/2001/xml-events" xmlns:xlink="http://www.w3.org/1999/xlink"><defs /><rect fill="#222222" height="300" width="200" x="0" y="0" /><text fill="#FFFFFF" style="font-size:12px; font-family:Arial; font-weight:bold;" x="10" y="20">Over 3km Runs</text><text fill="#FFFFFF" style="font-size:4px; font-family:Arial" x="10" y="280">ATHLETE</text><text fill="#FFFFFF" style="font-size:9px; font-family:Arial" x="10" y="290">jdzj</text><text fill="#FFFFFF" style="font-size:4px; font-family:Arial" x="120" y="280">STATISTICS</text><text fill="#FFFFFF" style="font-size:3px; font-family:Arial" x="120" y="285">Number: 59</text><text fill="#FFFFFF" style="font-size:3px; font-family:Arial" x="120" y="290">Weekly: 3.5</text><text fill="#FFFFFF" style="font-size:3px; font-family:Arial" x="141" y="285">Total: 122.3 km</text><text fill="#FFFFFF" style="font-size:3px; font-family:Arial" x="141" y="290">Avg: 2.1 km</text><text fill="#FFFFFF" style="font-size:3px; font-family:Arial" x="167" y="285">Min: 1.0 km</text><text fill="#FFFFFF" style="font-size:3px; font-family:Arial" x="167" y="290">Max: 13.2 km</text><polyline fill="none" points="26.11976369470358,47.95457956628525 24.2926960256882,49.05400847905548 21.421589688397944,48.704190447577275 12.982277121627703,35.510876832937356 11.285714285681024,36.46040709532099 13.243286788230762,40.50838455418125 15.24436090234667,42.357449910545256 17.68045112793334,43.057094500778476 20.073039741953835,46.70522563144914 23.59667024691589,49.1039824639156 26.11976369470358,50.203408881352516 32.42749731452204,48.20444998331368 34.42857142840512,48.45432027708739" stroke="#4dd2ff" stroke-linecap="round" stroke-linejoin="round" stroke-width="0.5"><title>2021-06-11 1.2km</title></polyline><polyline fill="none" points="57.40631595993182,54.425259340070625 57.498752251063706,54.412010982778156 57.71251117430802,54.25634239601641 58.11114267981611,53.829078125523665 58.1169199480064,53.60716354561009 57.923381463449914,53.76945942617749 57.81072473364475,53.62703655241421 57.848276976903435,53.74627434805734 57.91760419525963,53.77277157890421 58.1169199480064,53.597227037829725 58.11980858210882,53.7992687889855 58.02448365688906,53.935066664926126 57.48719771466858,54.425259340070625 57.23877518225345,54.42857142857247 56.58883251021325,52.53069156541824 56.531059828266734,51.43099865868862 56.19020100470516,50.987136573581665 55.59803101461148,50.62276782133995 55.595142380538164,50.341207460187434 55.48537428480631,50.17558262323291 54.985640585873625,49.68864090412899 54.61878405541938,49.47001172889577 54.16815713615506,48.99299771250662 54.02083679716452,48.96649673649881 53.54421217100753,49.05262483257684 53.483550854958594,49.07581312865295 53.625093925744295,49.0990014088311 53.59620758476376,49.13875270925564 53.35356232053891,49.22488036656432 52.5360788708349,49.37725953052359 52.250104095131974,49.3640091956986 52.33676311808813,49.39382244175067 52.28765633840521,49.433573395599524 52.34542902036628,49.403760184588464 52.35409492267354,49.486574594691774 52.36276082495169,49.39050986015354 52.24143819283927,49.37063436376047 51.77347946897498,49.11225184749492 50.63246900030936,49.12550228097825 50.3262737859186,49.00293557315672 49.7543242345273,49.24806854450799 49.08416112381383,49.10562662880693 48.88773400514037,49.01949866774885 48.54398654750548,48.6418580947211 48.177130017080344,48.330467080901144 47.66584178172343,48.214522885595215 47.07656042576127,48.20127209510974 46.669263017960475,48.00582233204841 46.29951785343292,47.71761468774639 44.14748545046314,46.7767818278553 43.968390136404196,46.75690479485638 43.42243829189101,46.85297701273521 43.142240784392925,46.81984869257576 42.86493191099726,46.67077085015262 42.46918903957703,46.24009783452129 41.874130415395484,45.72328297278 41.726810076404945,45.19652123225387 41.51882842135092,44.93148077413207 41.11441964765254,44.156225503356836 40.79666989688121,43.84148004020972 39.80875703539641,41.323410796016105 39.791425230811,41.10804089966041 39.84630927866965,40.836341533551604 40.26804985695344,40.0908137570259 40.37204068448045,39.7561492716668 40.29982483203639,39.48112548021527 39.9474114721088,38.90787592245397 39.672991232786444,38.34787129627148 39.491007284625084,37.77128878539952 39.5170049915032,37.47305259005225 39.75387298753776,36.64460489631165 39.782759328518296,36.13095712049835 39.72498664655723,35.70014973616344 39.43901187086885,34.55682656885256 39.488118650522665,33.90395510615781 39.46212094364455,32.95942328661113 39.381239188907784,32.58491738982775 39.38990509120049,32.20377880464366 39.25413928859052,31.646977310447255 39.0230485607608,31.285714285717404" stroke="#4dd2ff" stroke-linecap="round" stroke-linejoin="round" stroke-width="0.5"><title>2021-06-10 13.2km</title></polyline><polyline fill="none" points="71.72551746340469,47.84171489946311 72.03274108201731,48.87092082289746 73.38964539789595,48.72389162276522 73.46645130252,49.4884426719218 74.43932609504554,49.37081956115435 75.02817136410158,50.16477465824573 75.36099695111625,49.459036898537306 74.6697438089177,48.98854413081426 75.30979301466141,49.047355767397676 75.66822056961246,49.459036898537306 75.1817831734661,50.19418036195566 76.71790126676206,50.370614523562836 75.94984222017229,50.87051074774354 75.87303631554823,50.31180314795347 76.35947371169459,50.01774609601125 76.58989142579958,50.34120883716969 76.41067764814943,49.87071746139554 76.82030913967174,50.10596324206563 76.38507567998022,50.07655752968276 76.43627961643506,49.694283004064346 77.07632882194594,50.929322013049386 76.58989142579958,51.63505629316205 75.25858907809015,52.076139370095916 73.10802374745253,52.017328330897726 70.80384660733398,53.63462768352474 70.03578756074421,53.164141503715655 69.54935016448144,53.693438403715845 70.11259346536826,54.310950266430154 70.98306038498413,54.016897157998756 70.26620527473278,54.252139667834854 70.82944857561961,54.310950266430154 70.93185644852929,53.8110598095227 70.95745841681492,54.10511312086601 70.24060330644716,53.98749183118343 70.95745841681492,54.10511312086601 70.49662298883777,53.84046515368391 71.05986628960818,53.8110598095227 69.21652457758319,54.10511312086601 69.98458362428937,53.86987049502204 70.291807242902,54.428571428579744 70.291807242902,54.10511312086601 69.65175803739112,54.19332905783085 70.21500133827794,53.95808650145773 70.93185644852929,54.163923748390516 70.39421511569526,54.163923748390516 70.5478269251762,53.5758169516339 70.47102102055214,54.252139667834854 70.03578756074421,54.04630248178728 70.39421511569526,53.781654462451115 70.31740921118762,54.34035556128947 69.95898165600374,53.54641158133745 70.47102102055214,53.51700620815973 70.24060330644716,54.07570780284004 69.70296197372954,53.92868116887985 69.93337968771812,52.78187093610177 68.80689308594447,51.2821893619257 68.65328127669636,49.606065736181336 67.32197892910335,47.665279241715325 67.19396908802446,47.106565636524465 67.68040648417082,46.43022671388462 67.14276515156962,44.84229451874853 67.73161042062566,43.31316663484904 67.65480451588519,41.60759166706703 69.21652457758319,31.285714285739232 69.7541659103008,31.31512185142492 69.7541659103008,31.844457537081325 70.5478269251762,32.28556989048957 73.05681981088128,32.55023698936566 73.28723752498627,33.05016309054918 75.28419104637578,32.28556989048957 77.25554259959608,33.31482951072394 78.25401936017442,33.02075569608132 78.48443707427941,33.491273660212755 80.43018665921409,32.96194089832716 80.7118083096575,34.285271040920634 81.42866341979243,34.75578700948972" stroke="#4dd2ff" stroke-linecap="round" stroke-linejoin="round" stroke-width="0.5"><title>2021-06-08 2.7km</title></polyline><polyline fill="none" points="111.57142857159488,40.081922591954935 103.22791890031658,37.17648277845001 94.5823817292694,36.61273850098951 91.184572360944,34.704675582877826 91.37333954800852,33.14352703597979 90.99580517364666,33.27362295993953 88.42857142863795,48.62467172124889 88.95711955265142,50.14240166492527 90.20298298774287,51.22649127457407 89.6366814263165,52.570758678310085" stroke="#4dd2ff" stroke-linecap="round" stroke-linejoin="round" stroke-width="0.5"><title>2021-06-08 1.1km</title></polyline><polyline fill="none" points="136.6342397548724,43.92615307710366 129.09574875514954,41.03983765779412 125.15587897354271,41.78814386960585 122.54998085019179,41.574342252948554 122.08464189944789,42.00194535974879 118.08272692444734,40.71913452123408 114.14285714284051,41.28927323399694 117.5863653770648,40.57659970244276 121.96055151277687,42.00194535974879 128.3822290309472,42.28701381635619 133.252776713809,44.03305320534855 137.25469168904237,45.137686011818005 137.28571428568102,44.7813532174041" stroke="#4dd2ff" stroke-linecap="round" stroke-linejoin="round" stroke-width="0.5"><title>2021-06-07 1.5km</title></polyline><polyline fill="none" points="155.08460143441334,52.95356307155453 154.90733937360346,47.91815803234931 153.48924288642593,47.053487589990254 149.63379306229763,41.967161615611985 146.8862311183475,42.526659920753445 151.4507291864138,37.44028943806188 155.08460143441334,31.285714285739232 147.94980348367244,41.76370753656374 149.45653100125492,41.7128440043889 150.56441888189875,42.628386820317246 154.86302385828458,47.81643217301462 154.90733937360346,52.851838202390354 155.97091173916124,54.428571428579744 154.99597040424123,53.86908599513117" stroke="#4dd2ff" stroke-linecap="round" stroke-linejoin="round" stroke-width="0.5"><title>2021-06-04 1.3km</title></polyline><polyline fill="none" points="179.48963643581374,46.18905428718426 179.74054994509788,46.578999188161106 180.47853085491806,46.578999188161106 180.28665581834503,46.155145993107 180.68516550963977,45.96865025610896 180.2423769637826,46.03646691115864 180.33093467290746,45.426116052345606 179.8733865089016,45.22266528438195 179.85862689069472,45.47697870670527 180.33093467290746,45.985604422414326 180.34569429117255,46.66376970177225 179.7257903269492,46.612907398623065 179.26824216288514,46.03646691115864 179.35679987206822,46.324687396598165 178.8106939988793,46.4264121583692 178.13175156194484,45.22266528438195 177.36425141588552,44.42581412414438 174.75179899542127,42.57778338287608 174.45660663151648,41.0010074974125 174.76655861351173,39.4072623304819 176.21300119662192,37.01661686474108 177.57088607054902,35.91453505943355 178.9582901808899,34.286832079305896 179.0173286535428,32.96431205418776 178.48598239861894,31.930026479560183 178.0284342346131,31.624826267827302 177.54136683413526,32.09958191844635 177.40853027044795,31.67569300744799 177.61516492511146,31.658737429228495 177.33473217947176,31.607870684674708 177.5266072159866,31.641781849364634 177.37901103397598,31.980893128784373 177.4528091250104,31.70960415886657 177.17237637925427,31.913070926442742 177.39377065224107,31.760470873312443 177.20189561566804,31.70960415886657 177.26093408843735,31.913070926442742 176.71482821524842,32.32000373888877 177.33473217947176,31.980893128784373 177.09857828833628,32.13349298614776 177.18713599751936,31.794382007952663 176.99526096094633,32.21827062612283 176.99526096094633,31.913070926442742 177.54136683413526,31.57395951318904 177.8070399616263,31.946982030945946 177.68896301608765,32.065670844036504 178.10223232553108,32.09958191844635 177.62992454331834,32.32000373888877 177.0247801973601,31.50613715025247 177.68896301608765,31.607870684674708 177.70372263429454,31.285714285710128 176.7295878335135,32.33695925184293 177.57088607054902,32.32000373888877 177.57088607054902,32.09958191844635 176.96574172453256,32.16740404716984 177.8070399616263,31.57395951318904 177.05429943371564,32.065670844036504 177.34949179762043,32.04871530435048 177.46756874315906,31.913070926442742 177.1576167611056,31.760470873312443 177.24617447028868,32.065670844036504 177.70372263429454,31.82829313588445 177.57088607054902,32.08262638204906 177.5856456886977,31.879159815231105 177.37901103397598,31.980893128784373 177.46756874315906,31.7435153034603 177.76276110706385,31.72655973196379 177.6594437797321,32.13349298614776 177.89559767080937,31.811337572769844 177.5266072159866,32.26913719002914 177.7184822524432,31.980893128784373 177.48232836142415,31.336581125695375 177.91035728907445,31.54004833503859 177.24617447028868,32.09958191844635 177.5266072159866,32.21827062612283 177.70372263429454,31.997848675207933 177.5856456886977,32.26913719002914 177.85131881624693,31.624826267827302 177.68896301608765,32.150448517510085 177.8660784344538,32.37087027268717 177.61516492511146,32.116537453155615 175.47502028697636,34.3037873981375 178.11699194373796,31.845248697311035 180.020982690854,33.371242376902956 180.90655978251016,34.69375926986686 180.03574230900267,49.74938793576439 174.63372204982443,49.8850182354945 173.54151030344656,50.1732322670141 173.37915450322907,52.59760175392148 173.9400199946831,53.00448558939388 175.13554906845093,52.733229806108284 175.66689532343298,53.30964783394302 175.224106777634,53.66566976776812 176.0211261601653,53.76739018484659 176.16872234205948,54.05559770631953 176.13920310570393,54.42857142856519 175.8735299781547,54.072551074874355 175.7259337962023,54.15731789266283" stroke="#4dd2ff" stroke-linecap="round" stroke-linejoin="round" stroke-width="0.5"><title>2021-06-02 5.9km</title></polyline><polyline fill="none" points="17.942365502938628,80.52029571883031 20.010522403754294,78.6251601264812 23.217327485908754,74.300998238381 25.982615926419385,68.53534155862872 27.167739543830976,64.13093770982232 27.144501825794578,58.07142857144936 27.609256185474806,58.498534983053105 27.841633365256712,63.14327367171063 26.214993106317706,69.2560553624644 24.42568882124033,73.42014197443496 21.544211790896952,77.69093347160378 17.87265234894585,81.21428571428987" stroke="#4dd2ff" stroke-linecap="round" stroke-linejoin="round" stroke-width="0.5"><title>2021-06-01 2.2km</title></polyline><polyline fill="none" points="60.14285714295693,71.22466962254839 59.6778538308572,71.7587849511765 49.73393685137853,68.59516878926661 42.90196511382237,68.80059913959121 42.32965334528126,69.33471757633379 37.894237138330936,67.77344637486385 37.0,67.81453253410291 37.03576948563568,68.2664800179773 37.858467653160915,67.52692933450453 42.830426142783836,69.5812335468363 51.84433649829589,69.86883532820502" stroke="#4dd2ff" stroke-linecap="round" stroke-linejoin="round" stroke-width="0.5"><title>2021-05-31 1.1km</title></polyline><polyline fill="none" points="75.38605976407416,80.35317377815954 75.85429188259877,76.53197312052362 76.65028648427688,77.12399188056588 79.55332561861724,76.53197312052362 80.53661306737922,75.4555737246992 81.28578445711173,72.28018310031621 83.0182432953734,72.92602676257957 81.98813263466582,72.49546440632548 82.50318796513602,71.74197946320055 82.40954154124483,73.03366729838308 82.50318796513602,71.68815907009412 82.45636475319043,73.6795100661111 80.95802197395824,72.17254241544288 85.73398958262987,74.80973306519445 80.86437555029988,72.97984703310067 82.03495584661141,72.44164408801589 81.42625409271568,70.66557059111074 80.95802197395824,73.30276854481781 82.40954154124483,71.95726098190062 81.89448621100746,71.09613439551322 83.20553614292294,73.03366729838308 83.81423789681867,72.76456591900205 82.081779058557,73.57186965807341 80.48978985566646,72.81838620558847 82.78412723634392,72.6031050272868 81.19213803345338,72.2263627606444 80.02155773714185,76.04759365593782 75.52652939967811,76.80107263673563 75.66699903528206,78.84622461081017 73.79407056118362,80.29935423698043 73.88771698484197,81.21428571426077 74.59006516262889,80.19171513838228 72.52984384121373,74.5944526749663 62.837438988732174,58.071428571420256" stroke="#4dd2ff" stroke-linecap="round" stroke-linejoin="round" stroke-width="0.5"><title>2021-05-30 1.4km</title></polyline><polyline fill="none" points="89.26895450905431,67.3595998614328 92.5981644053245,69.25303945178166 98.67478052666411,71.51772919850191 101.48683160403743,71.25784746056888 105.04229848354589,71.92611442427733 111.02194732637145,71.0350915423769 111.57142857136205,70.58957931064651 110.95730247395113,71.0722175379342 105.26855546678416,71.7033589015191 97.34956105344463,71.18359550257446 92.08100558654405,69.77280551634612 88.42857142852154,67.87936854053987" stroke="#4dd2ff" stroke-linecap="round" stroke-linejoin="round" stroke-width="0.5"><title>2021-05-27 1.4km</title></polyline><polyline fill="none" points="137.28571428591385,71.30716074805241 134.3878260871861,71.16846956071095 128.5115527950693,68.94940498139476 119.61664596316405,68.62579051917419 114.14285714295693,67.146407274995 117.52372670848854,68.4408678690088 126.6601242236793,69.27301922018523 136.0782608697191,72.13930701074423 136.84298136644065,71.90815541925258" stroke="#4dd2ff" stroke-linecap="round" stroke-linejoin="round" stroke-width="0.5"><title>2021-05-25 1.1km</title></polyline><polyline fill="none" points="140.49436796002556,67.76313148642657 141.59502950124443,68.66141127340961 145.273556230939,68.9941068837361 148.92311818350572,71.09008168370929 153.2967995707877,70.92373495304491 155.75880564993713,71.32296696866979 160.91453602712136,70.59104124593432 163.0,69.55968866829062 163.0,70.32488604378887 154.77400321827736,71.52258279928355 151.64580725913402,70.9902736552176 148.86518862866797,71.22315900909598 143.36188092257362,69.8923833926965 139.8571428571595,68.32871533487923" stroke="#4dd2ff" stroke-linecap="round" stroke-linejoin="round" stroke-width="0.5"><title>2021-05-24 1.6km</title></polyline><polyline fill="none" points="174.58637873758562,69.04398662465974 179.96843853814062,69.19853500591125 179.96843853814062,69.85536494641565 183.39950166118797,71.40084281517193 188.71428571431898,70.89856317659724 183.29858803993557,71.43947968372959 179.4638704318786,70.78265239932807 175.46096345514525,70.9758370090567 165.57142857147846,67.84623460200964" stroke="#4dd2ff" stroke-linecap="round" stroke-linejoin="round" stroke-width="0.5"><title>2021-05-21 1.1km</title></polyline><polyline fill="none" points="25.159317834302783,108.0 25.98437476262916,107.20516170194605 25.718227366451174,106.41032136545982 26.14406320033595,102.71122990522417 27.740947577753104,102.16094806444016 28.086939192959107,101.33552347120713 30.00320044590626,101.79409296109225 33.94218191015534,101.24380949186161 33.809108211891726,99.47066722231102 32.47837123076897,96.59693234454608 29.816897268407047,92.86715159617597 27.90063601557631,91.06338906477322 24.8399409588892,89.25961603413452 20.501738400314935,88.64816516652354 18.904854023014195,88.00614045688417 16.562756936182268,88.34243928018259 13.635135577525944,86.59979596876656 13.076226045493968,84.85714285715949 11.77210380404722,85.31573673133971 11.851948022958823,86.29406806151383" stroke="#4dd2ff" stroke-linecap="round" stroke-linejoin="round" stroke-width="0.5"><title>2021-05-20 1.7km</title></polyline><polyline fill="none" points="37.11126373638399,94.44764541630866 37.0,92.08328114758478 41.95123626384884,91.18865457957145 59.75343406596221,91.57206611719448 60.14285714295693,100.26266677299282 59.085851648356766,101.02947888080962 50.07348901103251,100.26266677299282 48.960851648356766,101.02947888080962 42.11813186830841,101.66848827752983 38.16826923098415,101.09337984892773 37.27815934061073,100.32656781654805 37.27815934061073,93.68082551792031" stroke="#4dd2ff" stroke-linecap="round" stroke-linejoin="round" stroke-width="0.5"><title>2021-05-18 1.1km</title></polyline><polyline fill="none" points="62.714285714318976,97.21597172370821 63.614626752445474,98.06209703764762 68.01402046228759,99.9188615022722 70.77643046609592,99.84835172355815 72.63849943154491,100.27141008287435 75.8510799545329,99.895358245034 79.3910572186578,98.8612126311491 80.393709738506,98.25012447715562 82.01023114821874,97.12195761447947 85.85714285715949,93.33785892695596 85.24327396741137,92.58573277427058 83.72906403942034,93.76092884450918 74.86888973100577,94.72458529734286 73.57976506242994,94.37202851056645 66.60212201590184,94.16049418812327 66.2338006820064,94.74808906455291 66.31564986740705,94.51305128788226 65.9064039408695,94.67757775592327 65.47669571801089,95.57071945742064 64.84236453194171,95.82925985152542 63.00075786281377,95.45320100369281 62.73474801052362,94.95962286536815" stroke="#4dd2ff" stroke-linecap="round" stroke-linejoin="round" stroke-width="0.5"><title>2021-05-10 2.5km</title></polyline><polyline fill="none" points="111.57142857136205,103.81901858469064 111.45619442791212,103.15720838669222 110.66876111435704,102.34097311219375 109.42039122700226,102.95866494542861 108.78660343796946,102.7601213279122 108.7481920568971,102.14242894631752 109.17071724950802,101.43649270702736 109.01707172498573,99.47309582488379 108.55613515106961,98.81127276693587 106.11701244814321,99.56133875134401 104.48452874913346,99.38485286370269 104.42691167758312,98.87745516083669 100.20165975100826,98.94363753523794 97.9930053348653,98.59066464568605 94.45915826910641,99.23042759775126 91.94321280380245,99.29660986764065 89.94582098396495,98.85539436506224 88.42857142852154,96.23014412712655 90.6372258446645,94.64174246491166 91.61671606393065,93.5607404375769 93.63331357436255,92.52385603210132 93.88298755174037,91.77376644400647 96.01481920562219,90.8251201264793 98.06982809712645,89.41317396903469 97.24398340238258,90.33976464046282 94.95850622409489,91.33253609923122 92.80746887961868,89.43523569629178 91.44386484881397,89.03812427243975" stroke="#4dd2ff" stroke-linecap="round" stroke-linejoin="round" stroke-width="0.5"><title>2021-05-08 2.6km</title></polyline><polyline fill="none" points="137.28571428568102,92.42594468028983 137.13420621934347,94.03570841200417 132.58896422735415,94.29675062579918 131.90717792860232,95.55845248090918 124.89992985734716,93.94869430654217 121.26373626384884,94.25324360097875 119.93804068281315,94.99286244047107 114.78676642524078,93.86168018370518 114.14285714295693,94.9058485236892 119.52139350003563,96.82015072734794 127.3240589199122,97.60327196161961 137.13420621934347,100.43119817684055" stroke="#4dd2ff" stroke-linecap="round" stroke-linejoin="round" stroke-width="0.5"><title>2021-05-08 1.3km</title></polyline><polyline fill="none" points="163.00000000011642,96.04076824750518 162.4168245549081,96.35806725875591 158.97915877238847,95.08886952380999 158.42667677171994,95.58244695627945 154.92762410012074,94.24273519671988 152.6563092081342,95.300402792549 147.71466464572586,95.6177024609351 144.55323986371513,94.59529140978702 141.3611216370482,95.15938062727218 140.2561576354783,94.9831028424378 139.8571428571595,94.41901334677823 144.9829480863409,94.63054701199871 147.99090564623475,95.97025731782196 152.9018567641033,95.82923541680793 162.8158393332269,98.6144076604105" stroke="#4dd2ff" stroke-linecap="round" stroke-linejoin="round" stroke-width="0.5"><title>2021-05-07 1.5km</title></polyline><polyline fill="none" points="165.6782417583745,100.87299825219088 165.57142857136205,100.25856752577238 167.28043956053443,99.68509802198969 167.99252747255377,97.9646847283002 176.9292307693977,92.63955049225478 179.7775824177079,93.45880638709059 180.45406593405642,94.35998599231243 181.2729670330882,92.35281054466031 180.95252747251652,91.98414460499771 180.95252747251652,93.37688087078277 180.7745054946281,92.92629024054622 180.09802197804675,94.48287396790693 180.98813186818734,93.45880638709059 180.13362637371756,94.35998599231243 180.59648351627402,92.84436461853329 180.27604395593517,94.44191131342086 181.05934065929614,93.74554556599469 182.51912087923847,93.9913218462898 184.69098901096731,93.21302978950553 186.68483516480774,93.29495533820591 188.71428571431898,94.48287396790693 187.39692307682708,93.58169463093509 185.79472527466714,93.37688087078277 182.05626373621635,94.27806065502227 180.20483516482636,93.09014143570676" stroke="#4dd2ff" stroke-linecap="round" stroke-linejoin="round" stroke-width="0.5"><title>2021-05-06 1.2km</title></polyline><polyline fill="none" points="17.06049149343744,125.32524376077345 18.066702673677355,123.16413989913417 25.241425870917737,117.83672841824591 28.260059411171824,114.62015110583161 32.24115581973456,112.50926120232907 33.77234674594365,113.96678135640104 34.42857142840512,128.79304241976934 33.59735349705443,124.3703385341505 21.56656764796935,130.95412239426514 18.41668917099014,127.93865943516721 12.51066702674143,131.15515262339613 11.285714285681024,133.21570789607358 12.554415338905528,133.91931022622157 16.316770186414942,130.4012888551224 17.71671617613174,127.18479090556502 16.929246556945145,126.02885699245962" stroke="#4dd2ff" stroke-linecap="round" stroke-linejoin="round" stroke-width="0.5"><title>2021-05-06 1.8km</title></polyline><polyline fill="none" points="51.01864975760691,119.63472422634368 53.10331965680234,119.00610576893087 53.31480790756177,118.34256282169372 50.89779932866804,117.36470773193287 51.19992540101521,117.43455461607664 50.83737411419861,117.81871222535847 52.619917941163294,118.51717951043975 54.19097351748496,118.27271612148616 53.67735919437837,120.54272664344171 55.24841477070004,119.6696474404016 55.18798955611419,120.33318783622235 55.82245430815965,120.29826468924875 58.179037672583945,122.18410956606385 59.901156284846365,122.5682618888386 59.9313688921975,123.54610223532654 59.387541961856186,124.31440342121641 60.14285714284051,127.8066599839658 59.50839239091147,129.06386369661777 42.71018276771065,127.07328903686721 38.02722864598036,127.70189280124032 37.0,128.47018473630305 37.72510257374961,127.73681519911042" stroke="#4dd2ff" stroke-linecap="round" stroke-linejoin="round" stroke-width="0.5"><title>2021-05-02 1.6km</title></polyline><polyline fill="none" points="69.80361663666554,117.69258625415387 71.44412296568044,118.37010346463649 73.43616636563092,116.67630915058544 81.3457504522521,115.3890226012445 84.86112115741707,116.81181285361527 85.8571428572759,119.18312321125995 84.62676311074756,125.9582493120688 74.66654611215927,129.48128774855286 63.41735985525884,131.03954882733524 62.714285714318976,129.8877909888397 67.5772151898127,115.93103829259053" stroke="#4dd2ff" stroke-linecap="round" stroke-linejoin="round" stroke-width="0.5"><title>2021-05-01 1.0km</title></polyline><polyline fill="none" points="99.46821184386499,122.26409568695817 98.06622488726862,124.50011985120364 95.98741664132103,120.1957652666024 96.08410539687611,118.63053709123051 97.77615862037055,116.00317981373519 100.43509940011427,114.88515164516866 107.30000104964711,114.99695456383051 111.31258440832607,111.64285714289872 106.23642473784275,115.2205603334587 94.2953634178266,113.59941645013168 93.28013148368336,114.10253057884984 91.29801199329086,118.35103159263963 90.62119070370682,128.74854079651413 89.7993362811394,131.43173716962337 88.8324487246573,131.82303555042017 88.6874155914411,134.78571428573923 89.46092563634738,134.39441800618079 89.7993362811394,132.54973180714296 91.10463448194787,118.01562480744906 92.84503208333626,116.28268650179962 93.5701977503486,116.7298969082185" stroke="#4dd2ff" stroke-linecap="round" stroke-linejoin="round" stroke-width="0.5"><title>2021-05-01 1.8km</title></polyline><polyline fill="none" points="133.7298718066886,121.11196604790166 132.923084017355,121.2492628138425 131.60831873101415,122.19317514655995 130.0096836669254,122.12452714961546 129.7258138891193,122.46776686352678 129.77063543302938,122.14168915140908 128.69491838058457,122.50209079768683 126.1550308955484,122.17601314984495 124.66097943374189,122.3476330406993 124.21276399528142,122.10736514616292 122.5842479019193,122.41628094959015 118.90888130589155,122.50209079768683 115.24845522455871,122.12452714961546 114.14285714284051,123.06843473330082 114.21755971590756,123.39451070840005 118.52042792580323,124.23544066575414 118.9835838790168,124.09814625648141 119.83519321226049,124.54435269045644 122.10615143412724,124.57867621489277 123.5255003227503,125.12785168494156 124.13806142209796,124.93907281266002 125.7516370008234,125.31663035246311 126.1550308955484,125.62554045740399 127.15604537492618,125.74567201673926 127.42497463803738,125.53973214994767 128.15705985430395,125.88296512588568 129.06843124591978,125.72851037052169 130.59236373694148,126.17471262297477 130.7268283685553,125.76283366132702 131.05551969015505,125.72851037052169 131.6680807893863,126.05458135988738 131.87724799412536,125.5568938148208 132.7736788711627,125.07636655832175 133.84939592360752,123.99517537841166 135.04463709302945,123.53180567294476 135.6721387070138,122.77668202701898 136.71797473024344,122.45060489393654 137.28571428573923,121.66115246160189 136.98690399335464,120.75156152168347 136.52374804019928,120.25385880560498 135.58249561931007,120.85453431966016 134.1482062159921,120.76872365892632 134.05856312828837,121.31791115620581 132.04159365489613,122.31330907608208 132.45992806419963,122.70803426031489 132.74379784188932,122.5192527621839 133.71493129205192,123.25721563551633 134.52171908150194,123.1370823578327 134.5814811399323,122.93113940308103" stroke="#4dd2ff" stroke-linecap="round" stroke-linejoin="round" stroke-width="0.5"><title>2021-04-30 3.7km</title></polyline><polyline fill="none" points="162.8171970208641,121.70248609929695 161.35477318870835,123.8022181186243 160.55044008116238,123.92820171057247 152.58023019623943,121.74448084121104 145.48747461056337,121.70248609929695 146.43805010151118,122.50038548643352 139.85714285704307,120.52663164533442 145.12186865252443,122.37440147198504 153.53080568718724,123.17229960003169 162.1956668922212,125.90193978321622 163.0,125.73396243099705 161.90318212588318,125.35601314654923" stroke="#4dd2ff" stroke-linecap="round" stroke-linejoin="round" stroke-width="0.5"><title>2021-04-29 1.4km</title></polyline><polyline fill="none" points="174.46489795926027,122.64475663279882 176.34938775526825,121.16354731083266 175.68816326546948,119.98617173204548 176.8453061223263,119.60637239000062 184.74693877540994,112.04828753852053 185.67265306122135,111.93434542516479 188.71428571431898,115.4285548896878 184.84612244879827,117.93525083211716 185.2759183673188,117.9732309479441 182.86244897940196,120.59384989988757 183.8873469387181,120.21405115746893 184.11877551022917,119.3405126275029 182.96163265302312,120.29001093588886 177.44040816323832,126.97441273592995 173.70448979607318,129.17720153386472 171.15877551015,131.41795651457505 170.99346938775852,132.86114773136796 168.9106122449739,134.49422600341495 167.19142857159022,133.6207198825432 165.57142857147846,131.30402013548883 165.70367346948478,129.0632644915022 167.9848979592789,127.9998504689429 168.81142857146915,126.70855806296458 171.09265306126326,125.7210962412646 171.5224489796674,124.73363188607618 172.64653061225545,124.08798074553488 172.97714285715483,122.94859373787767 173.83673469396308,122.30293960290146 174.79551020404324,122.53081765663228 174.99387755105272,121.80920335714472" stroke="#4dd2ff" stroke-linecap="round" stroke-linejoin="round" stroke-width="0.5"><title>2021-04-26 2.2km</title></polyline><polyline fill="none" points="24.93969915888738,157.48240971943596 25.570776826236397,156.6123983662401 26.302826919942163,147.4771236066299 28.77665137546137,138.42857142857974 26.50477177358698,147.33211695510545 24.712511198595166,148.17315453774063 22.112471209838986,147.99914695954067 19.411458794260398,148.40516448163544 17.99784481979441,149.27520013938192 17.01336365879979,150.66725183240487 16.937634338857606,159.19342453192803 18.073574139853008,161.2814291092218 18.830867340322584,161.57142857142026 19.335729474085383,161.31042906831135 22.061984996544197,159.0194234807277 22.99597994389478,159.6574268315162 23.904731784714386,158.99042329547228 24.08143353147898,158.23641747501097" stroke="#4dd2ff" stroke-linecap="round" stroke-linejoin="round" stroke-width="0.5"><title>2021-04-25 2.2km</title></polyline><polyline fill="none" points="49.46567611396313,161.57142857142026 48.78322404215578,156.48881911006174 49.15974932315294,153.59601522693993 48.78322404215578,148.21585946154664 49.136216493090615,138.83412898430834 48.85382253234275,138.42857142855064 48.265501780668274,138.83412898430834 47.6771810289938,148.4051129653235 47.91250932973344,157.81355087601696 48.85382253234275,158.08390351053094 48.9244210224133,157.84058615152026 49.04208517295774,153.21751526230946 48.73615838191472,156.81324380839942" stroke="#4dd2ff" stroke-linecap="round" stroke-linejoin="round" stroke-width="0.5"><title>2021-04-18 2.2km</title></polyline><polyline fill="none" points="85.85714285715949,153.29425466191606 81.7126483831089,152.8753354504588 69.17969709390309,149.10504209555802 63.64265247643925,148.57186632679077 62.714285714318976,147.962521689391 69.31232091691345,147.88635354221333 70.77118297189008,146.70574533808394 73.6225951698143,148.00060575746465" stroke="#4dd2ff" stroke-linecap="round" stroke-linejoin="round" stroke-width="0.5"><title>2021-04-16 1.0km</title></polyline><polyline fill="none" points="111.57142857142026,151.85609610054235 110.89360430359375,152.03683598682983 110.61521219363203,151.4668094044464 110.13105200236896,151.2721656532376 109.51374775846489,151.42510005178337 109.29587567242561,151.2443593810749 108.99327555287164,150.82726464112056 109.52585176326102,149.8818453278509 109.34429169149371,149.18668002246704 108.98117154813372,149.03374319522118 106.16093843395356,149.2283900375187 103.75224148237612,149.01983983903483 102.57815301854862,149.29790670175862 102.08188882248942,149.10325995543099 101.28302450687625,149.18668002246704 101.08936043037102,149.01983983903483 99.51583980867872,149.20058336216607 98.95905558875529,149.0059364814806 98.31754333531717,149.18668002246704 97.67603108187905,148.92251630745886 96.32038254634244,149.1727766814147 95.20681410637917,148.72786904277746 94.28690974297933,148.83909608410613 93.76643753738608,148.19953939794505 92.82232516433578,148.25515313800133 91.96294082485838,147.99098767715623 91.6119246862363,148.15782907845278 91.12776449491503,147.68511126183148 90.41362821281655,147.93537383283547 89.37268380151363,147.58778680866817 88.7674835624639,147.90756690247508 89.19112372986274,147.60169030608085 89.28795576805715,148.07440840247727 88.42857142857974,148.03269804599404 89.15481171547435,147.768532168222 88.80379557685228,147.85195302522334 89.17901972506661,147.82414607839019 88.87641960551264,147.9492772959784 89.07008368201787,148.15782907845278 88.86431560071651,147.99098767715623 89.15481171547435,147.89366343518486 89.07008368201787,147.74072520490154 88.82800358638633,147.82414607839019 88.91273161984282,148.03269804599404 89.28795576805715,147.87975996655587 89.10639569634805,147.81024260287813 89.082187686814,148.00489113479853 89.17901972506661,147.7546286872821 89.04587567248382,148.00489113479853 89.1306037058821,147.81024260287813 89.19112372986274,147.96318075773888 89.00956365815364,147.46265527012292 89.11849970120238,147.82414607839019 89.05797967722174,147.58778680866817 89.082187686814,147.82414607839019 88.84010759112425,147.64340079014073 88.92483562463894,147.51826930095558 89.00956365815364,147.64340079014073 88.82800358638633,147.7129182361241 89.07008368201787,147.83804955247615 88.87641960551264,147.7268217212113 89.10639569634805,147.51826930095558 88.93693962943507,147.81024260287813 88.74327555292984,147.81024260287813 88.93693962943507,147.44875175897323 88.75537955766777,147.5738833098876 89.04587567248382,147.82414607839019 88.84010759112425,147.69901474965445 88.87641960551264,147.82414607839019 88.93693962943507,147.7129182361241 88.9974596532993,148.29686342869536 88.87641960551264,149.60377961714403 90.05050806934014,149.8540387814719 90.14734010759275,150.07649099895207 91.20038852363359,149.97916819700913 91.80558876274154,150.20162021700526 96.63508667069254,150.41016866694554 101.40406455472112,151.0219090066821 103.69172145845369,151.10532793823222 104.70845786016434,151.32777818097384 105.88254632399185,151.92561146889057 107.72235505073331,151.71706526105118 107.91601912729675,152.0507390454295 108.17020322772441,151.93951453841873 109.90107591153355,152.3009938653704 110.20367603108753,152.55124824102677 110.74835624627303,152.4261211087287 110.917812313186,151.9117083979363 111.40197250450728,151.71706526105118" stroke="#4dd2ff" stroke-linecap="round" stroke-linejoin="round" stroke-width="0.5"><title>2021-04-09 4.9km</title></polyline><polyline fill="none" points="136.81854480947368,151.23832400713582 129.55944986711256,149.1331830608833 128.73291925503872,148.34891215793323 123.62999112717807,148.76168650068576 119.92857142887078,148.39018961059628 120.61135758669116,148.80296391260345 120.28793256450444,148.96807351932512 114.14285714295693,147.5646397852979 119.24578527081758,149.09190568162012 126.57675244030543,149.71106594376033 136.74667258234695,152.4353602147021 135.38110026647337,151.89875820017187 137.28571428591385,151.65109549998306 136.7826086957939,151.0319381080044" stroke="#4dd2ff" stroke-linecap="round" stroke-linejoin="round" stroke-width="0.5"><title>2021-04-09 1.4km</title></polyline><polyline fill="none" points="140.77759740268812,148.71620352956234 141.89529220794793,149.66018206757144 149.9821428572759,152.7564153354615 153.56534090917557,152.60538014720078 156.68831168848556,153.247279285657 162.474025974283,152.60538014720078 163.0,151.96347993260133 160.66599025996402,151.35933757101884 157.8717532468727,151.92572106292937 154.97889610403217,150.8307122225524 152.57913961051963,151.01950707368087 148.50284090917557,148.9427585908852 147.97686688322574,147.96101902311784 145.64285714295693,147.05479564901907 143.86769480537623,146.75272071437212 139.8571428571595,147.7344633806788" stroke="#4dd2ff" stroke-linecap="round" stroke-linejoin="round" stroke-width="0.5"><title>2021-04-08 1.4km</title></polyline><polyline fill="none" points="188.56400742125697,150.9666435366671 188.71428571431898,151.76066637740587 186.76066790358163,151.7951890688273 181.59109461971093,150.0345274686406 173.77662337664515,149.65477576619014 169.65899814467411,148.20481093114358 165.57142857147846,148.8262251674023 169.44860853429418,148.37742610744317 173.5662337662652,149.62025286379503 181.230426716269,149.96548173521296" stroke="#4dd2ff" stroke-linecap="round" stroke-linejoin="round" stroke-width="0.5"><title>2021-04-06 1.3km</title></polyline><polyline fill="none" points="18.35329341306351,173.3106607530499 21.263473053695634,172.4017847928917 22.46449957229197,173.36412399582332 22.46449957229197,174.37992457667133 21.679213002556935,174.80762949713971 23.065012831240892,176.30459397862433 24.497005987679586,176.4649827774847 26.34473909297958,175.60957528511062 28.423438836354762,172.9898811817984 30.271171941654757,173.68490333872614 31.795551753602922,172.7760280255461 34.382378100650385,173.09680772718275 34.382378100650385,169.83553830580786 34.10521813505329,171.8136877460638 32.58083832333796,171.5463706891751 34.42857142840512,171.8671511412249 34.33618477312848,173.25719750468852 30.363558596931398,173.63144012837438 28.423438836354762,172.93641790095717 25.28229255764745,176.89268600166542 26.02138579962775,176.25113103486365 22.55688622733578,176.19766808568966 21.863986312877387,175.02148182695964 22.88023952092044,175.02148182695964 22.7878528656438,174.48685083934106 21.586826347047463,172.34832145209657 21.07869974314235,173.09680772718275 20.06244653533213,172.9898811817984 18.76903336145915,175.7699642960215 14.47305389191024,178.01540530950297 13.087254062993452,180.5816118667717 12.90248075244017,178.60349541861797 12.532934131333604,181.11623665632214 12.209580837981775,179.94006140186684 12.532934131333604,180.74199936079094 12.25577416550368,180.04698653373634 14.149700598558411,181.00931174191646 15.674080410273746,183.3081926088198 17.660393498372287,183.14780589792645 18.214713430032134,182.02509755053325 17.01368691166863,181.49047368543688 18.076133447233588,181.49047368543688 17.568006843328476,182.13202225847635 17.10607356671244,181.70432329678442 17.660393498372287,182.34587160876254 17.798973481403664,181.8112480698037 18.02994011947885,183.04088139667874 17.244653549743816,183.7358902656706 14.704020529985428,183.52204148081364 12.348160820780322,180.74199936079094 12.763900769408792,178.33618181425845 13.041060735238716,180.26083673210815 11.285714285681024,181.2766239870689 11.793840889586136,180.42122432397446 11.470487596001476,181.49047368543688 12.763900769408792,180.5816118667717 12.948674080194905,178.22925633442355" stroke="#4dd2ff" stroke-linecap="round" stroke-linejoin="round" stroke-width="0.5"><title>2021-04-05 1.9km</title></polyline><polyline fill="none" points="55.20039544417523,182.874352177736 54.29285831283778,183.33125652201124 54.64798153808806,182.78297119712806 55.27931171655655,182.78297119712806 55.41741519293282,182.39460161403986 54.70716874243226,186.62094031469314 53.188030500663444,187.7174908529705 53.109114228282124,188.35714285714494 53.049927024170756,187.7174908529705 54.76635594666004,186.68947488044796 55.33849892078433,184.45066823037632 55.73308028222527,180.88680744508747 54.746626878506504,180.17859759292332 52.615887526539154,179.7902234983776 51.35322716983501,180.77258020092268 48.70953204797115,181.5264789370558 43.89563943783287,184.4278231493081 43.027560442569666,183.0342688041419 42.02137797093019,183.468327643699 41.54788033699151,183.28556612947432 38.78581080667209,171.4285945227457 38.62797826214228,169.25817536185787 40.02874209533911,175.6094479951571 40.462781592970714,175.79221576709824 45.533152087940834,173.48476171219954 49.43950756662525,172.22821733748424 51.88591200776864,170.8574336230231 55.318769852630794,168.09299430117244 57.350863864296116,165.21428571428987 58.51487888058182,165.80830797379895 58.37677540408913,165.99108373692434 57.90327777038328,165.83115495233505 58.17948472336866,165.60268506214197 58.17948472336866,165.96823677470093 58.297859131824225,165.3513679139287 57.62707081728149,165.55699105607346" stroke="#4dd2ff" stroke-linecap="round" stroke-linejoin="round" stroke-width="0.5"><title>2021-04-05 3.7km</title></polyline><polyline fill="none" points="68.55407209601253,168.39462557143997 72.230974632781,171.31691999925533 75.25901201600209,179.74976831802633 75.3311081440188,184.00790626066737 76.98931909212843,183.67393545759842 78.64753003977239,185.17680299998028 82.39652870502323,182.42154373251833 85.85714285681024,183.3399645179743 78.79172229627147,181.67010777798714 78.79172229627147,184.4253695734078 79.15220293728635,180.58469907118706 79.00801068078727,184.5923548389692 79.22429906530306,183.256471761968 76.34045393811539,183.84092087624595 78.28704939922318,182.58852940646466 79.29639519331977,184.4253695734078 77.49399198917672,183.256471761968 78.79172229627147,182.92250065220287 78.50333778373897,184.50886221032124 79.29639519331977,184.50886221032124 78.35914552723989,182.83900785335572 80.01735647488385,184.92632526782108 78.35914552723989,183.4234572655405 78.50333778373897,182.0875722822966 79.72897196281701,184.00790626066737 78.57543391175568,182.1710651575122 76.62883845111355,182.0875722822966 75.76368491305038,184.25838427391136 75.97997329756618,183.17297899740515 72.30307076079771,180.41771298879758 73.74499332439154,175.07414037082344 72.30307076079771,175.65859532402828 72.37516688928008,173.48776053875918 68.12149532698095,171.14993202721234 62.714285714086145,171.6508958415361 65.74232309730724,172.73631638777442 66.75166889186949,175.57510178466327" stroke="#4dd2ff" stroke-linecap="round" stroke-linejoin="round" stroke-width="0.5"><title>2021-04-04 1.4km</title></polyline><polyline fill="none" points="102.71508379885927,166.42605263722362 95.53950518742204,169.69365809333976 88.62250598566607,177.71408405760303 95.15163607359864,184.91754192020744 98.96568236243911,180.61032798164524 103.42617717501707,178.753762646229 103.5554668798577,176.30308938998496 107.69273743010126,173.25830240885261 101.61612130887806,165.53488505014684 96.50917797302827,168.95102173567284 88.42857142863795,178.15966077148914 95.02234636875801,184.1006584125571 98.9010375100188,179.57065195811447 105.23623304069042,178.53097449807683 107.11093375924975,177.11998136213515 108.08060654439032,173.40682888880838 107.82202713494189,172.738459497632 107.04628890682943,174.22372400481254 104.78371907421388,175.33767046168214 104.71907422202639,174.66930278541986 111.57142857159488,170.1392395562725 109.05027932976373,168.80249437619932 106.39984038309194,165.53488505014684 104.91300877882168,167.98559337487677 100.38786911428906,166.05473293748219 91.46687948913313,174.0751976860338 88.68715083785355,178.01113522954984 95.15163607359864,184.1006584125571 98.96568236243911,180.09049014939228 99.54748603352346,180.5360654562246 97.93136472464539,182.76393803261453 106.78770949714817,184.62049347464927 109.6320830010809,188.03654352127342 103.62011173181236,177.04571849212516 104.26656025554985,175.04061823431402 107.43415802111849,172.36714291304816 103.9433359936811,170.21350310766138 102.0039904229343,166.50031655514613 100.64644852373749,165.9804689756129 99.48284118110314,166.79737215361092 100.06464485265315,167.31721916876268" stroke="#4dd2ff" stroke-linecap="round" stroke-linejoin="round" stroke-width="0.5"><title>2021-04-02 3.1km</title></polyline><polyline fill="none" points="128.34042553196196,185.72942619532114 125.6322188450722,184.78677636021166 120.52355623105541,184.6925111721357 114.98404255323112,183.96195470365637 114.51215805474203,183.51419318340777 114.14285714284051,181.27537299469986 114.676291793352,180.8511731212202 115.78419452894013,180.80403975537047 114.77887538005598,177.66965006171085 115.02507598791271,173.42755340767326 116.56382978730835,171.23577395551547 117.1793313070666,169.75100870768074 120.1132218844723,167.72417140823381 121.30319148942363,169.0204065471189 122.41109422501177,169.25608490752347 122.98556231008843,169.939550837953 125.40653495443985,169.939550837953 129.14057750767097,170.52874403604073 130.94604863226414,171.47145013038244 133.94148936169222,174.13457474780444 136.77279635251034,179.03653182649578 136.85486322187353,179.67283618729562 136.19832826743368,180.23843864086666 135.93161094223615,181.13397312052257 136.5060790273128,181.11040646670153 137.28571428579744,183.1135637434054 136.77279635251034,184.17405197306653 134.98784194525797,184.50398068447248 134.55699088145047,185.04600543562265 133.5516717324499,184.55111332028173 133.12082066875882,184.73964377082302 132.05395136773586,184.40971538484155 131.54103343456518,185.847257163201 131.37689969607163,185.68229379189142" stroke="#4dd2ff" stroke-linecap="round" stroke-linejoin="round" stroke-width="0.5"><title>2021-04-02 3.2km</title></polyline><polyline fill="none" points="142.28192497172859,174.8290596564475 150.10875331575517,178.31931194654317 154.344448654796,178.28405704320176 156.9226979917148,178.88338992578792 160.39105721877422,178.03727262315806 163.0,178.07252755062655 157.10685865860432,178.84813507826766 154.52860932180192,178.2488021365425 150.35430087160785,178.4603315248387 144.95225464203395,176.9091131039895 139.8571428571595,174.68803864566144" stroke="#4dd2ff" stroke-linecap="round" stroke-linejoin="round" stroke-width="0.5"><title>2021-04-01 1.4km</title></polyline><polyline fill="none" points="165.57142857136205,173.8707946492941 168.18494271673262,176.52468625994516 171.2529810613487,177.17728011184954 174.85129763861187,179.04804380319547 179.7753097966779,178.96103171439609 182.50245499168523,179.70063392212614 188.71428571431898,178.96103171439609 184.3584288051352,179.613621962053 179.09352349769324,178.83051354906638 174.39677343936637,179.04804380319547 167.35164835164323,177.13377388502704 166.6319850361906,176.7422176511318 167.46527940151282,176.39416737365536" stroke="#4dd2ff" stroke-linecap="round" stroke-linejoin="round" stroke-width="0.5"><title>2021-03-29 1.2km</title></polyline><polyline fill="none" points="22.43511542957276,215.1428571428405 21.356600891798735,209.06122434331337 20.60632990859449,208.84594406792894 16.948758867569268,203.57155087549472 14.510378173319623,203.35626844118815 22.10687187430449,192.0 24.639036441454664,193.56082811160013 29.609581702621654,198.62003346602432 29.09377040201798,202.2260342721711 31.203907541232184,214.6046622749418 24.498360632220283,210.13762444985332 22.059979937737808,209.6532446637866 21.825520255835727,210.67582370952005" stroke="#4dd2ff" stroke-linecap="round" stroke-linejoin="round" stroke-width="0.5"><title>2021-03-28 1.4km</title></polyline><polyline fill="none" points="48.28659340669401,199.379507933103 49.603956043953076,200.15655635067378 49.92439560452476,199.502199885319 51.20615384634584,199.42040525449556 51.49098901124671,198.76604762728675 51.88263736269437,199.21591860699118 52.48791208793409,198.76604762728675 54.374945054994896,199.82937824717374 55.478681318694726,199.01143185855472 58.71868131868541,199.9929673311126 58.50505494535901,199.17502126528416 60.03604395617731,199.33861060769414 58.89670329680666,198.92963713093195 59.18153846170753,198.2752787291247 59.252747252816334,199.17502126528416 59.074725274927914,198.76604762728675 58.68307692324743,199.2977132780943 58.75428571435623,198.6433554571413 59.252747252816334,199.33861060769414 58.71868131868541,199.17502126528416 59.786813186947256,199.05232921626884 59.786813186947256,199.46130257184268 59.323956043925136,198.88873976102332 58.57626373646781,199.2977132780943 60.071648351615295,199.05232921626884 59.608791208826005,198.68425285126432 59.46637362637557,199.91117279726313 58.82549450569786,199.379507933103 58.75428571435623,199.82937824717374 59.64439560426399,199.25681594459456 59.252747252816334,199.2977132780943 60.14285714295693,200.40193975897273 60.03604395617731,199.21591860699118 59.50197802204639,199.2977132780943 59.786813186947256,199.87027552415384 59.00351648358628,200.1156591019244 58.89670329680666,199.66578909853706 58.46945054945536,200.2792480729695 56.97406593407504,200.07476184910047 56.97406593407504,199.25681594459456 57.330109890084714,206.29109799026628 53.30681318696588,207.1908231319685 50.03120879130438,206.12751139121247 50.28043956053443,206.65916760251275 49.28351648361422,206.12751139121247 43.51560439565219,205.84123468736652 40.631648351904005,206.7000642058556 40.38241758244112,208.17233924171887 39.705934066092595,208.70399283096776 37.39164835168049,208.86757841374492 37.0,208.21323569581727" stroke="#4dd2ff" stroke-linecap="round" stroke-linejoin="round" stroke-width="0.5"><title>2021-03-26 1.5km</title></polyline><polyline fill="none" points="65.1602787458105,202.1049270813528 72.49825783981942,205.09968118922552 75.07864609267563,204.91443949838867 77.33648581395391,205.40841709711822 80.58885017421562,204.76007133896928 81.87904430064373,204.91443949838867 85.85714285715949,203.49424955999712 82.33598805381916,204.91443949838867 77.79342956701294,205.28492277048645 75.40119462425355,204.79094497693586 72.74016923864838,205.0070603575441 67.01493280241266,203.61774459303706 62.714285714318976,201.7344400457223" stroke="#4dd2ff" stroke-linecap="round" stroke-linejoin="round" stroke-width="0.5"><title>2021-03-26 1.6km</title></polyline><polyline fill="none" points="111.57142857159488,205.62492482137168 109.80329856905155,205.39926684994134 107.1707494542934,203.7293944018311 104.93111811787821,203.77452616984374 101.70919233560562,202.5108349857619 93.85083676921204,202.73649438176653 95.02959010424092,203.3232082904142 94.55808877036907,203.45860370088485 88.42857142863795,201.51793232149794 93.37933543534018,203.4134719017602 100.41256366716698,203.86478969233576 106.42420567548834,205.30900363012915" stroke="#4dd2ff" stroke-linecap="round" stroke-linejoin="round" stroke-width="0.5"><title>2021-03-24 1.1km</title></polyline><polyline fill="none" points="137.28571428568102,205.26895937227528 135.61917701852508,205.16060682866373 133.98408385098446,203.9326090940449 131.37422360247,203.49919714560383 129.23602484469302,202.52401838634978 122.69565217394847,202.66848947745166 123.26164596283343,203.28249097903608 118.13625776406843,201.87389777059434 114.14285714284051,202.3795472381462 115.71506211173255,202.59625393897295 118.262034161482,201.91001561292796 122.97864906839095,203.3547263822402 131.562888198765,203.7159031839401" stroke="#4dd2ff" stroke-linecap="round" stroke-linejoin="round" stroke-width="0.5"><title>2021-03-23 1.3km</title></polyline><polyline fill="none" points="162.5383738600649,204.72028139748727 154.75227963516954,201.99839409301057 151.5824468084611,202.5286335006822 148.44338905764744,202.1751406493422 149.30509118537884,202.74072904419154 148.96656534948852,202.84677676894353 144.01177811529487,201.3621057680284 139.8571428571595,201.9630447711388 143.70402735553216,201.43280452661566 148.35106382973026,202.7760782892001 154.5060790273128,203.20026895785122 163.0,205.7807513748412 161.6151215804275,205.10912075347733 163.0,204.72028139748727" stroke="#4dd2ff" stroke-linecap="round" stroke-linejoin="round" stroke-width="0.5"><title>2021-03-22 1.6km</title></polyline><polyline fill="none" points="185.2791561918566,192.14311102720967 185.59787954960484,192.36661035072757 185.42081101762597,193.07774295554555 187.03213465958834,193.32155928583234 187.45709913643077,193.66696526190208 187.31544431077782,194.29682173355832 187.9528910262743,194.72349760867655 188.71428571431898,196.04415545410302 188.25390753080137,197.26321675168583 187.58104710897896,197.5476633541548 187.3331511641154,198.2790956790268 184.05738332052715,201.12353013805114 180.4451852660859,202.52541559214296 179.3119466607459,203.2568303191656 178.44431085360702,203.98824246047297 175.91223084484227,207.48273144933046 165.57142857147846,214.9997461156454" stroke="#4dd2ff" stroke-linecap="round" stroke-linejoin="round" stroke-width="0.5"><title>2021-03-21 1.3km</title></polyline><polyline fill="none" points="21.776550621143542,228.34655612187635 21.482797391945496,226.4681330274907 19.468489534803666,223.96354649352725 18.650176967843436,223.72271951571747 15.880503664026037,226.25139097425563 13.1318127339473,229.7433229310991 12.439394408022054,229.93597979696642 11.684028961579315,231.98294963951048 12.963953745900653,233.81316701477044 16.006397905177437,235.25806581016514 19.300630546640605,237.9311061151966 19.111789184971713,238.07559394951386 19.55241902882699,238.02743134753837 19.153753932216205,237.81069952159305 19.657330896356143,238.65354443434626 20.76939669251442,239.9780091530556 24.986853768583387,241.9285714285652 27.16902061388828,241.71184305369388 32.30970212444663,238.1237565419724 33.00212045048829,236.67887464862724 34.030256752623245,232.05519532147446 33.00212045048829,230.27312894770876 29.162346097640693,226.7330397209589 25.007836142205633,221.50710020892438 21.923427235684358,218.78571428571013 18.461335606174543,223.60230593796587 19.090806811582297,223.67455409171816 19.95108412555419,224.46928237644897 21.629674006602727,226.61262762307888 21.608691633096896,227.28693460885552" stroke="#4dd2ff" stroke-linecap="round" stroke-linejoin="round" stroke-width="0.5"><title>2021-03-20 3.7km</title></polyline><polyline fill="none" points="57.862772695254534,236.18444657346117 49.958479943685234,233.6527601929265 41.598170302808285,233.3908607751655 37.11400422244333,232.43056158415857 37.0,230.85915841310634 37.646023926790804,230.16075521256425 37.03800140763633,228.98219731246354 37.190007037250325,226.93062607294996 39.584095707163215,224.5298391408287 43.536242083180696,225.0099975692574 47.564391273772344,226.36316851896117 55.16467276564799,226.18856604839675 59.23082336387597,225.53380616972572 59.72484166081995,224.9663468245417 59.002814919222146,226.6250720959215 58.54679802944884,232.2559615074424 58.92681210441515,235.1368539656687 60.14285714295693,235.3551026301575" stroke="#4dd2ff" stroke-linecap="round" stroke-linejoin="round" stroke-width="0.5"><title>2021-03-19 1.6km</title></polyline><polyline fill="none" points="72.09313887986355,230.12072870226984 77.12263838259969,232.27938580149203 79.07358302967623,232.15603456941608 80.77394763019402,232.52608804662304 82.56380510446616,232.13547602368635 83.51242956588976,232.21771019458538 85.85714285715949,231.51871870773903 81.50778919470031,232.5055295373022 79.27046735188924,232.15603456941608 76.76466688781511,232.2588272678986 66.75936360633932,229.07223004521802 62.714285714318976,228.64049377107585 63.59131587680895,228.76384708344995 63.00066291028634,228.51714038562204 63.17964865767863,228.41434584201488 64.53994033811614,228.49658148099843 66.347696387209,228.18819766766683 66.95624792843591,228.64049377107585 67.31421942333691,228.41434584201488 67.74378521717153,228.8255237123376 68.11965528677683,228.70217043644516 68.6029168049572,229.11334773898125 69.21146834618412,228.88720032288984 70.46436857816298,229.79178851486358 70.7149486244889,229.48340661777183 70.07059993385337,228.51714038562204 69.82001988741104,228.5376992882957 69.90951276104897,229.23670077153656 71.07292011938989,229.8123472918087 71.55618163745385,228.66105266156956 71.8246602587169,229.2161419378681 72.18263175350148,229.1544654245663 71.80676168389618,229.25725960324053 72.0215445808135,229.19558310210414 71.50248591322452,228.476022574323 72.27212462725583,228.41434584201488" stroke="#4dd2ff" stroke-linecap="round" stroke-linejoin="round" stroke-width="0.5"><title>2021-03-19 3.1km</title></polyline><polyline fill="none" points="98.1673082470661,241.9285714285652 98.03733010852011,241.52546807244653 97.7903716454166,241.48067874439585 97.42643285752274,241.8240632541274 97.86835852847435,239.30091542800074 97.69938694837037,239.91304391274753 97.77737383148633,241.03278473486716 97.53041536838282,241.22687230171869 96.12665147247026,241.1970126922388 95.95767989236629,240.3012216691277 96.07466021704022,239.50993518896576 99.48008744599065,238.74850467036595 101.76770268374821,238.59920411957137 101.68971580063226,224.16114505915903 102.45658681786153,223.17566371365683 104.04232010769192,221.77208829247684 103.75636820291402,221.0553639066202 101.81969393917825,218.78571428571013" stroke="#4dd2ff" stroke-linecap="round" stroke-linejoin="round" stroke-width="0.5"><title>2021-03-18 2.7km</title></polyline><polyline fill="none" points="121.99178124091122,240.01886642799946 122.63970484386664,240.131202725388 122.73750463296892,240.67884090576263 122.98200410575373,240.8192606126686 124.30230125883827,241.0860576742998 126.01379756844835,240.93159627846035 127.19962001149543,241.2686027441232 128.29986763908528,241.9285714285652 128.58104203274706,241.04393185566005 128.42211737547768,237.29468407812237 129.4367901876103,237.19638786430005 127.9820183244301,236.78915996958676 126.57614635583013,236.71894814589177 125.95267270022305,236.04491287627025 124.71795036259573,223.27976736726123 126.06269746297039,221.70686493214453 127.01624540687772,221.15915375344048 126.33164688304532,219.93732891215768 125.15804941364331,218.78571428571013" stroke="#4dd2ff" stroke-linecap="round" stroke-linejoin="round" stroke-width="0.5"><title>2021-03-17 2.8km</title></polyline><polyline fill="none" points="140.6367781155277,229.1081994283304 140.92401215806603,229.1081994283304 142.36018237099051,229.72090058031608 142.7705167173408,230.23933940310962 147.03799392096698,231.41760736316792 151.5516717324499,232.03030555442092 153.06990881450474,231.93604434552253 154.1367781155277,232.17169733328046 154.67021276592277,232.3602196397551 156.80395136773586,232.69013349735178 158.56838905764744,233.39709099684842 159.1428571427241,233.53848237119382 160.1276595746167,234.05691705274512 160.9483282675501,234.57535117174848 161.27659574477002,234.66961186027038 161.64589665667154,234.85813318155124 162.54863221896812,235.09378472852404 163.0,235.0466544284718 162.95896656555124,235.0466544284718 162.95896656555124,235.0466544284718 162.83586626150645,235.09378472852404 162.91793313086964,235.0466544284718 162.95896656555124,235.0466544284718 163.0,235.09378472852404 162.75379939214326,235.0466544284718 162.2203647417482,235.0466544284718 160.4148936169222,235.09378472852404 159.18389057763852,234.71674219763372 157.99392097257078,234.48109046471654 156.80395136773586,234.38682973908726 155.61398176290095,234.43396010412835 154.99848024337552,234.48109046471654 153.80851063830778,234.57535117174848 153.27507598767988,234.57535117174848 151.42857142863795,234.43396010412835 150.8541033435613,234.2925689946278 149.74620060785674,234.0097866503056 149.17173252278008,233.7270041386655 148.06382978730835,233.34996052924544 147.4893617022317,233.1614386131696 145.15045592701063,232.69013349735178 143.6322188449558,232.07743615205982 143.50911854114383,231.79465249695932 144.0015197568573,231.70039124137838 144.20668693003245,231.70039124137838 144.37082066875882,231.5118686746282 144.20668693003245,231.46473802119726 143.79635258344933,231.37047670056927 143.5911854102742,231.3233460333431 143.46808510646224,231.27621536140214 143.2218844986055,231.27621536140214 143.05775075987913,231.18195400355035 142.852583586704,231.18195400355035 142.647416413296,231.18195400355035 142.36018237099051,231.08769262718852 142.15501519758254,230.99343123225844 142.03191489353776,230.94630052775028 141.62158054718748,230.71064693579683 141.4984802431427,230.61638546639006 141.29331306996755,230.47499322742806 141.17021276592277,230.380731711688 141.04711246211082,230.23933940310962 140.88297872338444,230.05081625989988 140.5957446808461,229.815162226354 140.34954407298937,229.6737697503413 140.2264437689446,229.57950807645102 140.02127659576945,229.34385381051106 139.93920972640626,228.91967583892983 139.93920972640626,228.54262843704782 139.8981762919575,228.30697365969536 139.85714285704307,228.11844975422719 139.98024316108786,227.74140172023908 139.93920972640626,227.2229601876461 139.93920972640626,226.9873047596775 139.8981762919575,226.845911447017 139.98024316108786,226.7045180926798 139.93920972640626,226.65738696529297 139.98024316108786,226.32746894311276 140.02127659576945,226.09181307346444 140.2264437689446,226.04468188565806 140.6367781155277,225.90328829412465 140.84194528870285,225.8090258765733 140.96504559274763,225.76189466088545 141.21124620060436,225.66763221553992 141.25227963528596,225.66763221553992 141.25227963528596,225.62050098579493 141.29331306996755,225.62050098579493" stroke="#4dd2ff" stroke-linecap="round" stroke-linejoin="round" stroke-width="0.5"><title>2021-03-02 1.4km</title></polyline><polyline fill="none" points="169.82325581391342,230.69717730395496 170.09235880407505,230.8208133385051 173.05249169422314,231.37717519310536 174.93621262465604,232.05717234447366 175.63588039856404,232.3662617150112 177.5196013287641,232.8608043906279 178.21926910267211,232.8608043906279 180.21063122921623,232.7371687585255 180.85647840518504,232.55171526409686 182.8478405312635,232.42807957076002 184.08571428549476,232.8608043906279 184.7315614616964,233.1080755823059 185.86179402004927,233.5407999327872 186.9382059799973,233.7262531343731 188.28372093010694,233.6026176728774 188.4990033218637,233.47898218681803 188.71428571408615,233.6026176728774 188.66046511614695,234.4680653924006 187.69169435207732,234.71533594996436 186.8843853820581,235.39532948011765 186.50764119578525,235.5189645884093 186.13089700974524,235.6425996720791 185.91561461775564,235.6425996720791 185.59269102965482,235.70441720465897 185.37740863789804,235.82805225171614 184.62392026558518,236.1371397629846 184.7315614616964,236.44622712163255 185.10830564773642,236.6934968989226 185.10830564773642,236.75531432812568 185.10830564773642,236.81713175098412 185.1621262456756,236.75531432812568 184.8930232557468,236.6934968989226 184.570099667646,236.81713175098412 184.4624584717676,236.87894916778896 184.35481727542356,236.94076657871483 184.30099667748436,237.00258398329606 184.30099667748436,237.00258398329606 184.08571428549476,236.6934968989226 183.97807308961637,236.56986202247208 183.81661129533313,236.3844096621615 183.76279069739394,236.26077472476754 183.22458471753635,236.1371397629846 183.0093023253139,236.1371397629846 182.7401993353851,236.1371397629846 182.47109634545632,236.0753222729545 182.1481727573555,236.0753222729545 181.8790697674267,236.0753222729545 181.34086378733627,235.95168727467535 181.07176079717465,235.88986976625165 180.80265780747868,235.82805225171614 180.53355481708422,235.76623473130167 179.99534883722663,235.6425996720791 179.7800664450042,235.5189645884093 179.5109634550754,235.45714703731937 179.2418604651466,235.33351191697875 178.97275747475214,235.20987677230733 178.75747508299537,235.02442400966538 178.27308970084414,234.77715357398847 177.7887043186929,234.52988304081373 177.41196013288572,234.15897705813404 177.14285714249127,234.03534168197075 176.87375415256247,233.91170628118562 176.6046511628665,233.7880708561279 176.33554817247204,233.66443540668115 176.1740863788873,233.6026176728774 175.74352159467526,233.41716443450423 175.52823920268565,233.35534667631146 175.31295681046322,233.29352891189046 175.09767441847362,233.1698933649459 174.82857142854482,233.1080755823059 174.5594684383832,233.0462577936123 173.96744186035357,232.9844399986323 173.75215946836397,232.9226221977733 173.48305647820234,232.8608043906279 173.16013289010152,232.8608043906279 172.94485049811192,232.7989865776035 172.4066445180215,232.7371687585255 172.1375415280927,232.61353310168488 171.65315614594147,232.24262598506175 171.11495016608387,232.05717234447366 170.89966777409427,231.99535445211222 170.63056478416547,231.9335365536972 170.30764119606465,231.87171864911215 170.09235880407505,231.80990073853172 169.82325581391342,231.6862648986862 169.3388704317622,231.438993146352 169.0697674418334,231.31535723357229 168.85448504961096,231.19172129634535 168.31627906975336,230.882631346758 168.15481727570295,230.75899532425683 167.93953488348052,230.63535927748308 167.45514950156212,230.3262690534466 167.23986710957251,230.1408148459741 166.9707641194109,229.7699062662432 166.59401993337087,229.3371793125989 165.94817275740206,228.8426338568679 165.94817275740206,228.65717921062605 165.84053156152368,228.34808801108738 165.7328903656453,228.10081494186306 165.57142857136205,227.29717679315945 165.7328903656453,226.98808492318494 165.78671096335165,226.67899290082278 165.84053156152368,226.4317191730952 165.8943521596957,226.24626381340204 165.8943521596957,225.93717142514652 165.8943521596957,225.13353050255682 165.8943521596957,224.57716310647083 166.4863787374925,224.32988854963332 166.9169435214717,224.08261389529798 167.29368770774454,223.9589765315177 167.56279069767334,223.89715784048894 167.67043189355172,223.77352044015424 168.42392026563175,223.7117017309647" stroke="#4dd2ff" stroke-linecap="round" stroke-linejoin="round" stroke-width="0.5"><title>2020-12-25 1.0km</title></polyline><polyline fill="none" points="11.633727175183594,254.46970547479577 11.894736842252314,254.71953398990445 12.112244897987694,254.96936238187482 12.590762620791793,255.26915628972347 14.461331901140511,255.76881240849616 15.46186895808205,256.06860584329115 16.11439312575385,256.2185024942446 19.159505907678977,257.4176741045958 20.029538131086156,258.0172588455607 21.030075188027695,258.4669469354558 22.509129967773333,259.0165651703137 23.074650913011283,259.11649569429574 24.118689581286162,259.11649569429574 24.72771213739179,259.11649569429574 25.77175080543384,258.91663462657016 26.7287862515077,258.8167040629196 27.816326530650258,258.8666693471896 28.425349086988717,258.8167040629196 30.121911922702566,259.11649569429574 30.687432867940515,259.31635668332456 31.774973147083074,259.5162175935693 32.383995703887194,259.46625237332773 33.47153598302975,259.416287148284 33.95005370583385,259.3663219183218 34.42857142863795,259.56618280886323 34.38506981730461,259.6161480190931 34.25456498423591,259.6661132244044 34.21106337290257,259.7160784249427 34.21106337290257,259.7660436203878 34.16756176156923,259.7160784249427 34.08055853936821,259.81600881091435 34.08055853936821,259.7160784249427 34.12406015070155,259.7660436203878 34.16756176156923,259.81600881091435 34.12406015070155,259.7660436203878 34.21106337290257,259.6661132244044 34.16756176156923,259.6661132244044 34.12406015070155,259.6661132244044 34.12406015070155,259.7160784249427 34.12406015070155,259.6661132244044 34.12406015070155,259.6661132244044 34.12406015070155,259.6661132244044 34.12406015070155,259.7160784249427 34.08055853936821,259.7160784249427 34.08055853936821,259.7160784249427 34.03705692803487,259.7160784249427 33.99355531716719,259.7160784249427 34.08055853936821,259.7160784249427 34.08055853936821,259.7160784249427 34.08055853936821,259.7160784249427 34.03705692803487,259.7160784249427 34.03705692803487,259.7660436203878 33.95005370583385,259.7160784249427 32.94951664889231,259.7160784249427 31.818474758416414,259.7160784249427 30.687432867940515,259.46625237332773 30.165413534035906,259.31635668332456 29.077873254660517,259.0165651703137 28.512352309422567,258.91663462657016 27.337808807613328,258.91663462657016 26.77228786260821,258.8666693471896 25.5977443610318,258.96659990079934 24.37969924812205,259.11649569429574 23.814178303116933,259.11649569429574 22.639634801540524,259.066530434764 22.030612244969234,258.91663462657016 19.290010741213337,258.0172588455607 18.724489795975387,257.81739734398434 17.11493018269539,257.4176741045958 16.67991407075897,257.3677086775424 14.939849624177441,257.0679160114378 13.939312567003071,256.61822667971137 13.373791621997952,256.318433570239 12.286251342855394,255.71884681881056 11.285714285681024,255.3690875529137" stroke="#4dd2ff" stroke-linecap="round" stroke-linejoin="round" stroke-width="0.5"><title>2020-12-08 1.1km</title></polyline><polyline fill="none" points="37.0,254.75732605491066 37.22252747253515,254.79992505762493 38.70604395586997,255.9500965391926 39.188186813145876,256.12049205377116 41.07967032957822,256.6742770120618 41.969780219718814,256.9298698302882 42.41483516478911,257.1002649583097 43.45329670328647,257.48365375094 44.38049450539984,257.9522395907843 44.86263736267574,258.2504303151509 47.23626373615116,259.0598041006888 47.75549450563267,259.1024026789237 49.23901098896749,258.93200834063464 49.68406593403779,258.8894097454613 52.02060439554043,258.93200834063464 52.502747252583504,258.9746069314715 53.94917582417838,259.40059260939597 55.43269230751321,259.52838823079946 55.877747252583504,259.485789694445 56.84203296713531,259.52838823079946 58.325549450470135,259.3153955073212 58.77060439554043,259.2727969500702 59.69780219788663,259.18759982287884 60.1428571427241,259.14500125305494 59.957417582394555,258.8042125427164 58.9189560438972,258.7616139349702 58.4739010988269,258.8042125427164 57.54670329671353,259.0598041006888 57.21291208779439,259.14500125305494 56.24862637347542,259.3579940604395 55.80357142840512,259.40059260939597 54.87637362629175,259.40059260939597 54.39423076924868,259.3153955073212 53.46703296690248,259.14500125305494 53.021978022065014,259.0172055181174 51.575549450470135,258.7616139349702 51.09340659342706,258.7616139349702 50.129120879108086,258.8042125427164 49.609890109626576,258.8042125427164 48.64560439554043,258.8894097454613 47.681318681221455,258.93200834063464 46.754120879108086,258.8894097454613 45.86401098896749,258.6764167070214 45.4189560438972,258.54862083363696 44.45467032981105,258.2504303151509 44.009615384507924,258.0800356406835 43.11950549436733,257.78184479873744 41.93269230751321,257.44105501295417 41.5989010988269,257.3984562708938 40.70879120868631,257.18546249720384 39.48489010985941,256.80207344004884 39.1510989011731,256.54648054629797 38.372252747183666,256.12049205377116 37.964285714318976,255.90749764998327" stroke="#4dd2ff" stroke-linecap="round" stroke-linejoin="round" stroke-width="0.5"><title>2020-12-03 1.3km</title></polyline><polyline fill="none" points="85.61267605633475,257.75124980477267 85.81639839010313,258.50003445113543 85.85714285704307,258.7340294107853 85.16448692139238,259.15522004745435 83.98289738409221,259.108421106328 82.3531187120825,258.8276273623633 80.80482897371985,258.17244131377083 80.27515090536326,258.07884323288454 77.26006036205217,256.90886566552217 76.15995975839905,256.72166898686555 74.4894366194494,256.7684681635292 73.34859154908918,256.72166898686555 72.53370221308433,256.72166898686555 72.04476861143485,256.72166898686555 70.94466800801456,256.6280706200632 70.57796780671924,256.581271429779 69.31488933577202,256.4876730349497 68.82595573412254,256.44087383081205 67.11468812869862,256.30047619043035 66.5850100601092,256.20687774042017 65.52565392362885,256.11327927189996 64.14034205232747,255.50488877680618 63.61066398373805,255.3176915445365 62.714285714318976,255.13049423822667 63.73289738409221,255.36449085953063 64.62927565374412,255.7856844868511 65.52565392362885,256.20687774042017 66.05533199175261,256.25367696766625 67.39989939634688,256.3940746219014 67.80734406434931,256.44087383081205 68.86670020106249,256.53447223463445 69.39637826941907,256.581271429779 70.49647887307219,256.581271429779 70.98541247472167,256.6280706200632 72.08551307837479,256.72166898686555 72.57444668002427,256.72166898686555 74.08199195144698,256.7684681635292 74.57092555332929,256.7684681635292 75.30432595568709,256.67486980577814 75.54879275639541,256.67486980577814 75.71177062368952,256.67486980577814 75.87474849075079,256.67486980577814 76.03772635804489,256.67486980577814 76.2414486920461,256.6280706200632 76.44517102604732,256.6280706200632 76.85261569404975,256.67486980577814 77.01559356134385,256.67486980577814 77.38229376263916,256.8152673353907 77.74899396370165,257.002463976969 77.70824949699454,257.09606227008044 77.70824949699454,257.1428614096367 77.6675050300546,257.1428614096367" stroke="#4dd2ff" stroke-linecap="round" stroke-linejoin="round" stroke-width="0.5"><title>2020-11-30 1.0km</title></polyline></svg>