<?xml version="1.0" encoding="utf-8" ?>
<svg baseProfile="full" height="300mm" version="1.1" viewBox="0,0,200,300" width="200mm" xmlns="http://www.w3.org/2000/svg" xmlns:ev="http://www.w3.org/2001/xml-events" xmlns:xlink="http://www.w3.org/1999/xlink"><defs /><rect fill="#222222" height="300" width="200" x="0" y="0" /><text fill="#FFFFFF" style="font-size:12px; font-family:Arial; font-weight:bold;" x="10" y="20">Over 3km Runs</text><text fill="#FFFFFF" style="font-size:4px; font-family:Arial" x="10" y="280">ATHLETE</text><text fill="#FFFFFF" style="font-size:9px; font-family:Arial" x="10" y="290">jdzj</text><text fill="#FFFFFF" style="font-size:4px; font-family:Arial" x="120" y="280">STATISTICS</text><text fill="#FFFFFF" style="font-size:3px; font-family:Arial" x="120" y="285">Number: 10</text><text fill="#FFFFFF" style="font-size:3px; font-family:Arial" x="120" y="290">Weekly: 2.0</text><text fill="#FFFFFF" style="font-size:3px; font-family:Arial" x="141" y="285">Total: 19.7 km</text><text fill="#FFFFFF" style="font-size:3px; font-family:Arial" x="141" y="290">Avg: 2.0 km</text><text fill="#FFFFFF" style="font-size:3px; font-family:Arial" x="167" y="285">Min: 1.0 km</text><text fill="#FFFFFF" style="font-size:3px; font-family:Arial" x="167" y="290">Max: 3.7 km</text><polyline fill="none" points="37.47861811588518,55.30863095103996 36.79319391446188,50.925643730850425 32.093142247758806,45.08160848490661 30.183746258029714,44.51967887004139 23.721175216138363,50.419912273297086 17.307563045760617,58.56775350595126 15.691920285345986,59.0172861929168 13.929400910390541,63.793549158843234 16.915892073651776,68.064056367788 24.014928445219994,71.43548689043382 31.701471275417134,77.67258093546843 31.260841431561857,78.00971921556629 32.288977733813226,77.89733981096651 31.35875917505473,77.39163221704075 32.53377209138125,79.35827034682734 35.128592282533646,82.44868802384008 44.9693254600279,87.0 50.06104809907265,86.49430045863846 62.055971623631194,78.12209859798895 63.671614384278655,74.75070751347812 66.07059908937663,63.96212241682224 63.671614384278655,59.80396754469257 54.71214089449495,51.543759348918684 45.01828433177434,39.349900487519335 37.82133021648042,33.0 29.743116414174438,44.23871385527309 31.211882560281083,44.40729288069997 33.219196292804554,46.26165887841489 37.13590601528995,51.26279778720345 37.08694714377634,52.83618075400591" stroke="#4dd2ff" stroke-linecap="round" stroke-linejoin="round" stroke-width="0.5"><title>2021-03-20 3.7km</title></polyline><polyline fill="none" points="121.67980295559391,73.59704200475244 103.23645320162177,67.68977378349518 83.72906403942034,67.0786751419655 73.26600985229015,64.83797702967422 73.0,61.17136963055236 74.5073891626671,59.541762162640225 73.08866995107383,56.791793729003984 73.44334975350648,52.00479417020688 79.02955665020272,46.40295799524756 88.25123152742162,47.52332766161999 97.65024630539119,50.68072654417483 115.38423645310104,50.27332077961182 124.87192118214443,48.7455477292533 126.02463054144755,47.4214759239112 124.33990147756413,51.291834890434984 123.27586206886917,64.43057685060194 124.1625615763478,71.15265925315907 127.0,71.66190613695653" stroke="#4dd2ff" stroke-linecap="round" stroke-linejoin="round" stroke-width="0.5"><title>2021-03-19 1.6km</title></polyline><polyline fill="none" points="154.88399071944878,59.44836697194842 166.61948955943808,64.48523353680503 171.1716937359888,64.19741399530903 175.13921113708057,65.06087210876285 179.31554524390958,64.14944405524875 181.52900232025422,64.34132378737559 187.0,62.71034365138621 176.8515081210062,65.01290225368575 171.63109048758633,64.19741399530903 165.78422273811884,64.43726362509187 142.4385150813032,57.001870105508715 133.0,55.99448546583881 135.0464037123602,56.28230986138806 133.66821345710196,55.70666089979932 134.085846867878,55.46680696471594 137.25986078893766,55.658690122305416 141.477958236821,54.93912789123715 142.89791183313355,55.99448546583881 143.7331786544528,55.46680696471594 144.7354988399893,56.426221995439846 145.61252900236286,56.1383976850484 146.74013921129517,57.097811390965944 148.16009280760773,56.57013408676721 151.08352668234147,58.68083986802958 151.66821345710196,57.96128210815368 150.1647331789136,55.70666089979932 149.58004640392028,55.75463167266571 149.78886310919188,57.38563513359986 152.5034802784212,58.728810347558465 153.63109048758633,56.042456210328965 154.25754060363397,57.337664521706756 155.09280742472038,57.19375265730196 154.21577726234682,57.43360574089456 154.7169373552315,57.289693904924206 153.50580046419054,55.61071934006759 155.3016241302248,55.46680696471594" stroke="#4dd2ff" stroke-linecap="round" stroke-linejoin="round" stroke-width="0.5"><title>2021-03-19 3.1km</title></polyline><polyline fill="none" points="35.72371924307663,147.0 35.42043691989966,146.05942550237523 34.844200505991466,145.95491707028123 33.995010000886396,146.75614759296877 35.02616989973467,140.86880266535445 34.63190287956968,142.2971024630824 34.81387227354571,144.90983104804764 34.237635859521106,145.3627020373533 30.96218676911667,145.29302961521898 30.567919748835266,143.20285056129796 30.840873839799315,141.35651544091525 38.78687070729211,139.57984423084417 44.12463959539309,139.2314762790047 43.942670201533474,105.54267180469469 45.732035908382386,103.24321533186594 49.43208025128115,99.96820601576474 48.76485914015211,98.29584911544225 44.24595252471045,93.0" stroke="#4dd2ff" stroke-linecap="round" stroke-linejoin="round" stroke-width="0.5"><title>2021-03-18 2.7km</title></polyline><polyline fill="none" points="91.31415622879285,142.54402166532236 92.82597796909977,142.80613969254773 93.05417747690808,144.08396211342188 93.62467624677811,144.41160809624125 96.70536960405298,145.03413457336137 100.69886099302676,144.67372464973596 103.46578002686147,145.4600730696111 106.03302449127659,147.0 106.68909807642922,144.93584099656437 106.3182738762116,136.1875961823098 108.68584377109073,135.95823835002375 105.2913760903757,135.00803992906003 102.01100816368125,134.84421234039473 100.55623630061746,133.2714633779542 97.67521751276217,103.48612385694287 100.81296074704733,99.81601817498449 103.03790594940074,98.5380254246702 101.44050939392764,95.68710079503944 98.70211529848166,93.0" stroke="#4dd2ff" stroke-linecap="round" stroke-linejoin="round" stroke-width="0.5"><title>2021-03-17 2.8km</title></polyline><polyline fill="none" points="134.81914893630892,117.08579866599757 135.48936170199886,117.08579866599757 138.84042553184554,118.51543468737509 139.79787234030664,119.72512527380604 149.75531914876774,122.47441718063783 160.2872340423055,123.9040462935809 163.8297872338444,123.68410347274039 166.31914893630892,124.23396044422407 167.56382978707552,124.6738458260661 172.54255319107324,125.44364482699893 176.65957446815446,127.09321232582442 178.0,127.42312553268857 180.2978723407723,128.63280645629857 182.2127659576945,129.8424860673258 182.97872340446338,130.0624276738381 183.84042553184554,130.50231075682677 185.94680851045996,131.0521643664688 187.0,130.94219366635662 186.90425531938672,130.94219366635662 186.90425531938672,130.94219366635662 186.61702127708122,131.0521643664688 186.80851063830778,130.94219366635662 186.90425531938672,130.94219366635662 187.0,131.0521643664688 186.42553191445768,130.94219366635662 185.18085106369108,130.94219366635662 180.96808510599658,131.0521643664688 178.09574468107894,130.17239846102893 175.31914893630892,129.62254441762343 172.54255319107324,129.40260272438172 169.76595744676888,129.51257357618306 168.32978723431006,129.62254441762343 165.55319148954004,129.8424860673258 164.30851063784212,129.8424860673258 160.0,129.51257357618306 158.65957446815446,129.18266098736785 156.074468084611,128.52283551730216 154.73404255323112,127.86300965677947 152.14893617015332,126.9832412347896 150.80851063830778,126.54335676389746 145.35106382984668,125.44364482699893 141.80851063830778,124.01401768799406 141.52127659553662,123.35418915946502 142.67021276568994,123.13424622977618 143.14893617015332,123.13424622977618 143.53191489353776,122.69436024071183 143.14893617015332,122.58438871602993 142.19148936122656,122.36444563453551 141.71276595722884,122.25447407772299 141.42553191492334,122.14450250985101 140.85106382984668,122.14450250985101 140.46808510646224,121.92455934151076 139.98936170199886,121.92455934151076 139.51063829753548,121.92455934151076 138.84042553184554,121.70461612998042 138.36170212738216,121.48467287514359 138.07446808507666,121.37470123136882 137.11702127661556,120.82484285009559 136.8297872338444,120.60489942145068 136.35106382984668,120.27498419722542 136.06382978707552,120.05504066054709 135.77659574477002,119.72512527380604 135.39361702091992,119.28523793967906 134.72340425522998,118.73537852801383 134.14893617015332,118.40546275069937 133.86170212738216,118.18551884498447 133.38297872338444,117.63565889105666 133.19148936122656,116.64591029076837 133.19148936122656,115.76613301970065 133.09574468107894,115.21627187251579 133.0,114.77638275967911 133.2872340423055,113.89660401374567 133.19148936122656,112.68690710433293 133.19148936122656,112.13704443909228 133.09574468107894,111.80712670960929 133.2872340423055,111.4772088828031 133.19148936122656,111.36723625229206 133.2872340423055,110.59742753382307 133.38297872338444,110.04756383795757 133.86170212738216,109.93759106635116 134.81914893630892,109.60767268622294 135.29787234030664,109.38772704522125 135.58510638261214,109.2777542086551 136.15957446815446,109.05780850281008 136.25531914876774,109.05780850281008 136.25531914876774,108.9478356334148 136.35106382984668,108.9478356334148" stroke="#4dd2ff" stroke-linecap="round" stroke-linejoin="round" stroke-width="0.5"><title>2021-03-02 1.4km</title></polyline><polyline fill="none" points="22.920930232852697,180.79341370926704 23.548837210051715,181.08189778984524 30.455813953652978,182.38007545063738 34.851162791252136,183.96673547045793 36.4837209302932,184.68794400175102 40.87906976789236,185.8418769115815 42.51162790693343,185.8418769115815 47.15813953522593,185.55339376989286 48.665116279385984,185.12066894967575 53.311627907212824,184.83218566514552 56.200000000186265,185.8418769115815 57.70697674434632,186.41884302545805 60.34418604709208,187.42853317654226 62.855813953559846,187.86125731363427 65.99534883769229,187.57277457008604 66.49767441861331,187.28429176926147 67.0,187.57277457008604 66.87441860511899,189.59215258224867 64.6139534888789,190.1691172166029 62.730232558213174,191.7557687869994 61.851162790320814,192.04425070632715 60.972093023359776,192.33273256826214 60.46976744197309,192.33273256826214 59.71627906989306,192.4769734776346 59.21395348897204,192.76545525412075 57.45581395365298,193.48665944696404 57.70697674434632,194.2078632839257 58.58604651177302,194.78482609754428 58.58604651177302,194.9290667657042 58.58604651177302,195.07330741907936 58.71162790711969,194.9290667657042 58.083720930386335,194.78482609754428 57.33023255830631,195.07330741907936 57.079069768078625,195.21754805825185 56.82790697645396,195.36178868368734 56.70232558157295,195.5060292944545 56.70232558157295,195.5060292944545 56.200000000186265,194.78482609754428 55.94883720949292,194.49634471919853 55.57209302298725,194.0636225452181 55.44651162810624,193.77514102461282 54.190697675105184,193.48665944696404 53.68837209325284,193.48665944696404 53.06046511651948,193.48665944696404 52.432558140251786,193.34241863701027 51.67906976817176,193.34241863701027 51.05116279097274,193.34241863701027 49.795348837506026,193.0539369743783 49.16744186030701,192.90969612135086 48.539534884504974,192.76545525412075 47.911627906840295,192.62121437303722 46.65581395383924,192.33273256826214 46.153488371986896,192.04425070632715 45.5255813957192,191.9000097537646 44.897674418985844,191.61152780626435 44.269767441786826,191.32304580206983 43.7674418608658,190.89032268931624 42.63720930274576,190.31335833936464 41.506976744160056,189.7363937619375 40.62790697766468,188.87094646901824 40.0,188.58246392465662 39.37209302326664,188.29398132290225 38.74418604699895,188.00549866445363 38.11627906933427,187.7170159489615 37.73953488422558,187.57277457008604 36.734883721452206,187.14005034719594 36.23255814006552,186.9958089113934 35.730232558213174,186.85156746115535 35.22790697682649,186.5630845183041 34.60000000055879,186.41884302545805 33.972093023359776,186.27460151852574 32.59069767454639,186.1303599969251 32.08837209362537,185.98611846158747 31.46046511642635,185.8418769115815 30.70697674434632,185.8418769115815 30.204651162959635,185.6976353478385 28.948837209492922,185.55339376989286 28.320930232759565,185.26491057069506 27.190697674639523,184.39946063188836 25.93488372117281,183.96673547045793 25.432558139786124,183.8224937216146 24.80465116351843,183.678251958685 24.05116279097274,183.5340101813199 23.548837210051715,183.38976838986855 22.920930232852697,183.10128476365935 21.790697674732655,182.52431734162383 21.1627906979993,182.2358335449826 20.660465116146952,181.9473496916471 19.4046511631459,181.22613980912138 19.027906977105886,180.93765575671569 18.52558139525354,180.64917164761573 17.39534883759916,179.92796112480573 16.893023256212473,179.49523464066442 16.265116279479116,178.6297812879784 15.386046512052417,177.62008506280836 13.8790697674267,176.46614566608332 13.8790697674267,176.03341815818567 13.627906977199018,175.3122053593397 13.376744186971337,174.73523486440536 13.0,172.86007918405812 13.376744186971337,172.13886482082307 13.502325581386685,171.41765010193922 13.627906977199018,170.84067807067186 13.75348837301135,170.4079488979187 13.75348837301135,169.68673332536127 13.75348837301135,167.8115711726714 13.75348837301135,166.5133805818623 15.134883721359074,165.9364066158887 16.139534884132445,165.35943242243957 17.018604652024806,165.07094524020795 17.646511628758162,164.92670162790455 17.897674418985844,164.6382143604569 19.655813953839242,164.4939707055455" stroke="#4dd2ff" stroke-linecap="round" stroke-linejoin="round" stroke-width="0.5"><title>2020-12-25 1.0km</title></polyline><polyline fill="none" points="73.81203007511795,173.76264610793442 74.4210526314564,174.34557930985466 74.92857142863795,174.92851222434547 76.0451127816923,175.628031342756 80.40977443614975,176.7938956199214 82.74436090234667,177.49341363436542 84.26691729342565,177.84317248663865 91.37218045117334,180.64123957743868 93.4022556389682,182.04027063969988 95.73684210516512,183.08954284945503 99.18796992488205,184.37198539741803 100.50751879671589,184.60515662003309 102.94360902300104,184.60515662003309 104.36466165399179,184.60515662003309 106.80075187934563,184.1388141287025 109.0338345868513,183.90564281353727 111.57142857182771,184.02222847682424 112.99248120328411,183.90564281353727 116.95112781971693,184.60515662003309 118.27067669155076,185.0714989277767 120.80827067652717,185.53784105170052 122.2293233089149,185.4212555377744 124.76691729342565,185.30467001267243 125.88345864694566,185.18808447616175 127.0,185.65442655410152 126.89849624037743,185.77101204462815 126.59398496290669,185.88759752362967 126.49248120328411,186.00418299157172 126.49248120328411,186.12076844763942 126.39097744366154,186.00418299157172 126.18796992488205,186.237353892182 126.18796992488205,186.00418299157172 126.28947368497029,186.12076844763942 126.39097744366154,186.237353892182 126.28947368497029,186.12076844763942 126.49248120328411,185.88759752362967 126.39097744366154,185.88759752362967 126.28947368497029,185.88759752362967 126.28947368497029,186.00418299157172 126.28947368497029,185.88759752362967 126.28947368497029,185.88759752362967 126.28947368497029,185.88759752362967 126.28947368497029,186.00418299157172 126.18796992488205,186.00418299157172 126.18796992488205,186.00418299157172 126.08646616525948,186.00418299157172 125.98496240656823,186.00418299157172 126.18796992488205,186.00418299157172 126.18796992488205,186.00418299157172 126.18796992488205,186.00418299157172 126.08646616525948,186.00418299157172 126.08646616525948,186.12076844763942 125.88345864694566,186.00418299157172 123.54887218074873,186.00418299157172 120.90977443614975,186.00418299157172 118.27067669155076,185.4212555377744 117.0526315793395,185.0714989277767 114.51503759389743,184.37198539741803 113.1954887220636,184.1388141287025 110.45488721784204,184.1388141287025 109.13533834600821,184.02222847682424 106.39473684225231,184.25539976859 103.55263157887384,184.60515662003309 102.23308270704001,184.60515662003309 99.49248120328411,184.48857101448812 98.07142857136205,184.1388141287025 91.67669172910973,182.04027063969988 90.3571428572759,181.57392713602167 86.60150375962257,180.64123957743868 85.58646616525948,180.52465358097106 81.52631578966975,179.82513736002147 79.19172932300717,178.77586225268897 77.87218045117334,178.07634499727283 75.33458646619692,176.67730924393982 73.0,175.86120429018047" stroke="#4dd2ff" stroke-linecap="round" stroke-linejoin="round" stroke-width="0.5"><title>2020-12-08 1.1km</title></polyline><polyline fill="none" points="133.0,174.43376079475274 133.5192307694815,174.5331584677915 136.98076923098415,177.21689192473423 138.10576923098415,177.61448145878967 142.5192307694815,178.90664636151632 144.59615384647623,179.50302960397676 145.63461538497359,179.90061823604628 148.05769230797887,180.79519208549755 150.22115384647623,181.88855904515367 151.34615384647623,182.5843374019605 156.88461538450792,184.47287623491138 158.0961538469419,184.57227291743038 161.55769230797887,184.17468612809898 162.59615384647623,184.07528940605698 168.04807692347094,184.17468612809898 169.17307692300528,184.27408284012927 172.54807692347094,185.26804942189483 176.00961538497359,185.56623920518905 177.04807692347094,185.4668426203425 179.2980769239366,185.56623920518905 182.75961538450792,185.06925618369132 183.79807692347094,184.96985955012497 185.9615384619683,184.77106625336455 187.0,184.67166959046153 186.5673076924868,183.87649593298556 184.1442307694815,183.7770991815487 183.10576923098415,183.87649593298556 180.94230769295245,184.47287623491138 180.16346153896302,184.67166959046153 177.91346153896302,185.16865280771162 176.875,185.26804942189483 174.7115384619683,185.26804942189483 173.5865384619683,185.06925618369132 171.42307692300528,184.67166959046153 170.38461538543925,184.37347954226425 167.00961538497359,183.7770991815487 165.88461538497359,183.7770991815487 163.63461538497359,183.87649593298556 162.42307692300528,183.87649593298556 160.17307692347094,184.07528940605698 157.92307692347094,184.17468612809898 155.75961538497359,184.07528940605698 153.68269230797887,183.57830564968754 152.6442307694815,183.28011527843773 150.39423076994717,182.5843374019605 149.35576923098415,182.18674982828088 147.27884615398943,181.49097119702492 144.50961538450792,180.6957950302167 143.73076923098415,180.59639796538977 141.65384615398943,180.09941249346593 138.79807692347094,179.20483802672243 138.0192307694815,178.6084546080092 136.20192307699472,177.61448145878967 135.25000000046566,177.11749451659853" stroke="#4dd2ff" stroke-linecap="round" stroke-linejoin="round" stroke-width="0.5"><title>2020-12-03 1.3km</title></polyline><polyline fill="none" points="66.42957746470347,241.4195828778902 66.90492957737297,243.16674705268815 67.0,243.71273529191967 65.3838028172031,244.69551344413776 62.62676056334749,244.5863159147557 58.82394366199151,243.93113051226828 55.21126760542393,242.40236306551378 53.9753521126695,242.18396754353307 46.940140845254064,239.4540198863251 44.37323943665251,239.01722763606813 40.4753521126695,239.12642571493052 37.813380281440914,239.01722763606813 35.911971831228584,239.01722763606813 34.771126760635525,239.01722763606813 32.20422535203397,238.7988314469112 31.34859154932201,238.68963333615102 28.40140845067799,238.4712370815687 27.260563380084932,238.36203893867787 23.267605633940548,238.0344444444636 22.031690140720457,237.8160480610095 19.559859155211598,237.59765163448174 16.327464789152145,236.17807381262537 15.091549295932055,235.74128027062397 13.0,235.30448655597866 15.376760563347489,235.85047867230605 17.468309859279543,236.83326380269136 19.559859155211598,237.8160480610095 20.795774647966027,237.92524625791702 23.93309859186411,238.25284078449477 24.883802816737443,238.36203893867787 27.355633803177625,238.58043521421496 28.591549295466393,238.68963333615102 31.158450704533607,238.68963333615102 32.299295775126666,238.7988314469112 34.86619718326256,239.01722763606813 36.007042253389955,239.01722763606813 39.5246478873305,239.12642571493052 40.66549295792356,239.12642571493052 42.37676056334749,238.90802954684477 42.94718309864402,238.90802954684477 43.327464788686484,238.90802954684477 43.70774647872895,238.90802954684477 44.088028168771416,238.90802954684477 44.563380281906575,238.7988314469112 45.03873239411041,238.7988314469112 45.98943661944941,238.90802954684477 46.369718309957534,238.90802954684477 47.22535211313516,239.23562378261704 48.08098591538146,239.67241594637744 47.98591549322009,239.89081196358893 47.98591549322009,240.00000995595474 47.8908450701274,240.00000995595474" stroke="#4dd2ff" stroke-linecap="round" stroke-linejoin="round" stroke-width="0.5"><title>2020-11-30 1.0km</title></polyline></svg>