<?xml version="1.0" encoding="utf-8" ?>
<svg baseProfile="full" height="300mm" version="1.1" viewBox="0,0,200,300" width="200mm" xmlns="http://www.w3.org/2000/svg" xmlns:ev="http://www.w3.org/2001/xml-events" xmlns:xlink="http://www.w3.org/1999/xlink"><defs /><rect fill="#222222" height="300" width="200" x="0" y="0" /><text fill="#FFFFFF" style="font-size:12px; font-family:Arial; font-weight:bold;" x="10" y="20">Over 3km Runs</text><text fill="#FFFFFF" style="font-size:4px; font-family:Arial" x="10" y="280">ATHLETE</text><text fill="#FFFFFF" style="font-size:9px; font-family:Arial" x="10" y="290">jdzj</text><text fill="#FFFFFF" style="font-size:4px; font-family:Arial" x="120" y="280">STATISTICS</text><text fill="#FFFFFF" style="font-size:3px; font-family:Arial" x="120" y="285">Number: 69</text><text fill="#FFFFFF" style="font-size:3px; font-family:Arial" x="120" y="290">Weekly: 3.0</text><text fill="#FFFFFF" style="font-size:3px; font-family:Arial" x="141" y="285">Total: 155.6 km</text><text fill="#FFFFFF" style="font-size:3px; font-family:Arial" x="141" y="290">Avg: 2.3 km</text><text fill="#FFFFFF" style="font-size:3px; font-family:Arial" x="167" y="285">Min: 1.0 km</text><text fill="#FFFFFF" style="font-size:3px; font-family:Arial" x="167" y="290">Max: 13.2 km</text><polyline fill="none" points="11.199999999953434,37.0048861381656 13.013562970911153,36.92474910666351 14.059849300305359,37.272009405336576 23.918191603850573,44.51094954350265 24.522712594131008,45.419142383907456 26.638536060228944,47.07525089336559 30.707427341258153,44.778065401129425 32.288482239004225,44.91162323113531 32.77674919262063,44.243833422107855 32.79999999993015,42.48086040857015 32.544241119525395,42.42743680460262" stroke="#4dd2ff" stroke-linecap="round" stroke-linejoin="round" stroke-width="0.5"><title>2021-08-15 1.2km</title></polyline><polyline fill="none" points="53.185918687522644,52.241692492112634 53.22427202167455,52.45105839422831 53.08729582815431,52.59697966726162 53.14208630559733,52.67945675727606 53.27358345137327,52.64773481249358 53.43247583587072,52.7746224946095 53.52561964749475,52.71752306967028 53.78313489136053,52.79999999999927 54.06804537391872,52.76827811664771 54.07900346937822,52.489124846237246 54.336518713244004,52.55891328116559 54.45705776356044,52.43202515947996 54.681698720989516,52.463747214154864 54.73101015065913,52.311481204371375 54.681698720989516,51.53111205986352 54.468015859049046,51.55014556999231 54.19406347195036,51.20754149731874 54.28720728357439,51.1314070029257 54.27077014034148,50.7063210315755 54.024212991964305,50.45888159243259 53.78313489136053,49.76097018354267 53.43247583587072,47.45780702252523 53.070858684921404,46.5695119593729 52.84073867977713,46.52509687346901 52.59966057911515,46.24591560781482 52.57774438819615,46.03018377221815 52.38049866948859,45.9603880182658 52.07915104366839,45.560647192556644 51.72301294046338,45.32587757449073 50.99977863856475,44.54542085790308 50.65459863084834,44.46927821524878 50.17792147732689,43.790335533441976 49.909448137972504,43.28905534276055 49.788909087656066,42.9337150407373 49.821783374092774,42.76238952737549 49.597142416692805,42.591063542375196 49.471124318632064,42.19764653261518 49.01636335608782,41.728081039575045 48.895824305771384,41.38542290322948 48.84651287610177,41.36004074399534 48.83007573283976,41.51867906932239 48.649267157394206,41.12525528038532 48.46297953414614,40.979307113291725 48.39723096124362,40.68106414227441 48.05205095355632,40.420893574762886 48.07396714450442,40.26225245095702 47.701391898066504,39.849783636407665 47.78357761420193,39.621338193472184 48.0136976193462,39.41827487346745 47.991781428368995,39.30405146476187 47.389086176786805,39.46269503133226 46.222049007803435,38.72023965693734 45.624832803965546,38.17449757889335 43.2743213227659,34.46840149359923 41.50458890222944,32.526420533286 41.53746318866615,32.28525526732119 41.26898984934087,31.809268446031638 41.356654613191495,31.19999999999709" stroke="#4dd2ff" stroke-linecap="round" stroke-linejoin="round" stroke-width="0.5"><title>2021-07-21 5.3km</title></polyline><polyline fill="none" points="75.02797569287941,43.189049809239805 76.74126851558685,43.88262670050608 79.48253703024238,41.50464673782699 77.42658564355224,43.189049809239805 75.88462210446596,41.4055641136365 75.37063425779343,43.684461924480274 73.57167679443955,42.00005970732309 73.82867071824148,44.378038463706616 66.46151158306748,45.96335441869451 69.63110330421478,50.12479655799689 67.8321458408609,48.935814898693934 68.9457861748524,48.539487357542384 67.74648119974881,50.223878297780175 66.63284086575732,49.1339786091703 66.37584694242105,52.79999999998836 67.40382263530046,47.94499574392103 65.34787124907598,50.818368524487596 69.7167679448612,48.04407770448597 67.48948727641255,50.719286845007446 70.57341435551643,50.32296002714429 71.08740220265463,42.59455493930727 72.88635966554284,42.396389902278315 69.80243258597329,41.60372935171472 68.86012153420597,43.486297108756844 70.83040827931836,49.62938770925393 72.71503038378432,48.836733028583694 71.68705469043925,49.23306044947822 72.54370110156015,46.656929339747876 78.36889669625089,45.07161451084539 75.88462210446596,47.44958578929072 78.62589061958715,47.053257645107806 78.2832320551388,43.88262670050608 76.91259779781103,43.78354431746993 81.7098176991567,46.2606008737348 82.65212875092402,41.60372935171472 81.36715913470834,38.13583188067423 80.1678541591391,39.0275781203527 76.05595138622448,37.838582952914294 74.59965248778462,39.225743841263466 78.19756741356105,36.35233695793431 75.54196353955194,38.5321636433946 73.40034751221538,38.5321636433946 77.94057349022478,37.145001770113595 71.17306684376672,37.838582952914294 75.11364033445716,39.126660985755734 77.16959172068164,37.343167872633785 74.94231105223298,39.0275781203527 76.91259779781103,38.63124655879801 73.05768894823268,39.9193235465209 77.08392707956955,38.63124655879801 75.19930497510359,38.92849524517078 77.94057349022478,37.145001770113595 75.02797569287941,38.92849524517078 78.71155526023358,36.15417065459769 73.40034751221538,38.5321636433946 74.85664641112089,38.92849524517078 78.45456133736297,36.45142009475967 74.42832320556045,39.32482668629382 71.85838397219777,38.829412359860726 78.2832320551388,36.64958633802598 74.34265856444836,39.32482668629382 79.31120774848387,36.64958633802598 73.40034751221538,38.730329464306124 76.74126851558685,37.343167872633785 77.25525636179373,38.33399778191233 75.02797569287941,39.0275781203527 76.91259779781103,38.829412359860726 78.88288454245776,38.03674891463015 73.14335358887911,38.63124655879801 75.11364033445716,37.44225090864347 76.05595138622448,38.730329464306124 75.02797569287941,39.0275781203527 76.56993923289701,38.03674891463015 74.34265856444836,39.32482668629382 79.13987846625969,37.93766593898181 74.77098176954314,39.0275781203527 76.91259779781103,37.343167872633785 75.19930497510359,38.829412359860726 76.22728066891432,38.829412359860726 72.54370110156015,38.829412359860726 76.48427459178492,38.730329464306124 77.51225028513,37.64041695080232 76.31294530956075,37.343167872633785 73.74300607666373,38.730329464306124 75.54196353955194,37.54133393493248 75.11364033445716,38.5321636433946 77.68357956735417,38.92849524517078 71.94404861377552,38.730329464306124 77.59791492624208,37.93766593898181 74.17132928222418,38.33399778191233 77.08392707956955,38.63124655879801 75.54196353955194,38.433080717688426 76.48427459178492,38.63124655879801 73.57167679443955,39.82024076144444 73.74300607666373,40.91015084245009 68.86012153420597,40.216571840806864 72.3723718188703,31.199999999953434 71.08740220265463,33.97433866246138 69.7167679448612,33.677088468219154 66.97549942974001,36.25325381133007 69.37410938041285,37.54133393493248 70.14509115042165,39.82024076144444 74.68531712889671,38.03674891463015 74.34265856444836,41.20739883556962 74.94231105223298,39.32482668629382" stroke="#4dd2ff" stroke-linecap="round" stroke-linejoin="round" stroke-width="0.5"><title>2021-07-17 3.7km</title></polyline><polyline fill="none" points="89.19999999995343,37.32205007082666 92.41296023561154,36.920027209765976 92.8265095729148,33.30180181472679 92.76288659789134,37.28550255598384 93.68541973491665,38.52811603457667 96.96200294559821,41.30570755308145 101.92459499265533,44.19291875389172 109.97290132544003,50.69819818527321 110.79999999993015,50.332736078853486 110.76818851253483,49.27289393040701 109.71840942557901,48.35923447078676 108.22326951415744,49.23634759525885 107.30073637701571,48.72469852521317 104.27864506631158,45.874069334357046 101.79734904284123,44.52184012022917 92.95375552284531,37.87026235964731 89.9634756995365,37.94335727006546 89.42268041230273,37.06621739148977" stroke="#4dd2ff" stroke-linecap="round" stroke-linejoin="round" stroke-width="0.5"><title>2021-07-14 1.9km</title></polyline><polyline fill="none" points="135.974245473044,45.31976656994084 135.49617706239223,46.717542436672375 133.71428571431898,47.81579219541163 123.50100603606552,44.37127360459999 116.76458752527833,44.27143213656382 115.46076458739117,43.37285803665873 115.19999999995343,36.6834229255619 116.06921529164538,36.18420780461747 126.15211267606355,37.082794667599956 133.19275653921068,36.43381542660063 134.75734406430274,37.132716113177594 134.23581488919444,44.17159064853331 136.66961770621128,46.717542436672375 135.93078470835462,46.61770143144531 136.80000000004657,46.76746293186443" stroke="#4dd2ff" stroke-linecap="round" stroke-linejoin="round" stroke-width="0.5"><title>2021-06-29 1.4km</title></polyline><polyline fill="none" points="156.6018552876194,46.366136140874005 157.48348794068443,45.061699517435045 157.89758812618675,44.892889272246975 158.08460111316526,45.107738643389894 158.89944341377122,44.708732432089164 158.83265306125395,44.57061465881998 158.9662337662885,44.6473467702308 158.97959183674539,43.143390483470284 159.36697588133393,41.76219332238543 162.06530612247298,39.368089173789485 162.10538033401826,37.97151139329071 162.39925788505934,37.43436275223212 162.7198515771306,37.89477598677331 162.5061224490055,41.34783178122598 162.80000000004657,41.96170033721137 162.13209647504846,42.48348670398991 161.57105751393829,42.130513765179785 161.59777365496848,42.345366953799385 160.72949907241855,42.345366953799385 159.83450834883843,43.25081641499128 159.82115027838154,43.51170765397546 158.9528756957152,43.956756404193584 158.9128014842281,44.67803960418678 158.31168831168907,45.09239226959471 157.73729128018022,45.04635313911422 157.12282003706787,45.337934068753384 156.65528756962158,46.28940487773798 156.29461966606323,46.44286736611684 155.85380333958892,45.399319457952515 153.0486085342709,45.38397311292647 151.75287569576176,45.614168129264726 150.09647495363606,46.56563724778243 142.82968460110715,40.94881591995363 141.68089053803124,40.933469135619816 141.37365491647506,40.733960801240755 141.4938775509363,40.64187994519307 141.9881261595292,40.81069480633596 141.20000000001164,40.36563704974833 141.21335807046853,40.61118631438876 141.94805194804212,40.82604160277697 141.57402597402688,40.94881591995363 141.7476808904903,41.17901750339661" stroke="#4dd2ff" stroke-linecap="round" stroke-linejoin="round" stroke-width="0.5"><title>2021-06-26 3.3km</title></polyline><polyline fill="none" points="167.1999999999971,47.08529209299013 168.25034990131098,47.54384893720635 168.48289969496545,47.73973587765795 168.70382199893356,48.05582437518024 168.54103714336816,48.15821876590053 168.29685986004188,48.53217891516397 168.02167593754712,48.99517290268341 167.97129014892562,49.204409012072574 168.08368921585497,49.31125260875706 168.97125426163257,49.41809595254381 169.0177642203489,49.645137218416494 168.94799928225984,50.42419170389621 169.04489502961223,49.565005137312255 168.77746276689868,48.679090983270726 168.88598600395198,48.460948649411876 169.14566660685523,48.367458755026746 169.50611878700147,48.40752587631869 171.15722232189728,48.79483954864554 171.25411806926422,48.83490629059088 171.21148394042393,49.173246248737996 171.6106944195344,49.204409012072574 171.78123093485192,48.7636765025527 172.16493809438543,47.005155467217264 172.28508882111055,46.86714205596218 173.1842813565454,47.10755224156674 173.48272025838378,47.14316845645226 173.6144984747807,47.071935998581466 173.84317243853002,47.1298123791712 174.25401040729776,46.907210509143624 176.26169029249286,45.531506592618825 176.4089718284522,45.64726323058494 176.24618697290134,46.141451691495604 176.18417369460803,46.89385436205339 176.37021352951706,47.27672901193364 176.50586757579003,47.361317159324244 179.6452897900599,47.34350914146853 180.13364435671247,47.42364516647285 180.77703211913467,47.40583717321351 182.6413062982174,47.26337297417558 183.14516418446146,47.09864818345886 183.7614211376058,46.5376889809304 184.1722591064172,45.972270665435644 184.49395298761374,45.202043767025316 184.65673784317914,44.13349913242928 184.52495962676767,43.608122074845596 183.54437466357194,42.423775083032524 183.05989592679543,41.48428975605566 183.0288892876415,41.57779391170334 183.16066750403843,41.982976346789656 183.11415754529298,41.982976346789656 183.19554997308296,41.996333947517996 183.57538130271132,42.579611989698606 183.61026377175585,42.61523177849813 183.62964292122342,42.56180208474689 183.3350798492902,42.12100469703364 182.57929301989498,40.52252147830586 182.61805131884466,39.97483871314762 185.5636820383952,37.67271729881759 186.1566840121959,37.12054691636877 187.48609366588062,36.31454414167456 187.99382738200075,35.94048271155043 188.02870985107438,35.824701163925056 187.4783420060994,35.192350543260545 187.89693163467746,34.871718671704 188.5286919074133,34.17255515721263 188.57132603623904,33.95879599534601 188.79612417009776,33.811835983749916 188.8000000000029,33.72276907694322 188.49768526824482,33.57580829610015 188.54419522697572,33.65596878139331 188.59458101561177,33.615888556556456 188.60233267540752,33.71831572700103 188.5325677373039,33.669328848416626" stroke="#4dd2ff" stroke-linecap="round" stroke-linejoin="round" stroke-width="0.5"><title>2021-06-21 11.9km</title></polyline><polyline fill="none" points="14.577553593902849,56.8312897378928 14.49583858763799,56.29929992504185 14.74098360654898,56.4557676097611 14.523076922982,56.79999624416814 15.993947036447935,58.36466714396374 19.453215636895038,60.55519342934713 26.535182849969715,66.46953879517969 28.169482975965366,67.06409651151625 30.294073140015826,69.69265410624212 31.19293820927851,73.6980332970561 32.79999999993015,75.76328717035358 31.41084489261266,73.94836781639606 30.34854981082026,69.72394632725627 28.360151323955506,67.15797394383117 23.647919293609448,63.340269278443884 22.28600252198521,62.87087618676014 20.106935687130317,60.86812452014419 19.044640605221502,60.61777967214584 16.021185372024775,57.83267990456079 14.986128625343554,57.45715896273032 14.305170239531435,56.393180545128416 12.044388398411684,56.64352872944437 11.199999999953434,56.23671282964642" stroke="#4dd2ff" stroke-linecap="round" stroke-linejoin="round" stroke-width="0.5"><title>2021-06-16 2.1km</title></polyline><polyline fill="none" points="38.93047210294753,64.63349313905928 38.683261802536435,64.88195081116282 39.95021459215786,65.52084118037601 46.31587982818019,68.11188493933878 49.993133047246374,67.93441678385716 53.67038626607973,68.4313273987209 58.800000000046566,67.7569485407439 56.760515021393076,67.33102440045332 57.131330471951514,66.83411226628232 54.381115879747085,67.2955306993681 51.26008583675139,66.26621184428222 48.973390557803214,66.65664348073187 47.026609441963956,65.84028593968833 43.287553648115136,66.05324895502417 38.99227467807941,64.98843261809088 37.199999999953434,63.56867260125" stroke="#4dd2ff" stroke-linecap="round" stroke-linejoin="round" stroke-width="0.5"><title>2021-06-16 1.4km</title></polyline><polyline fill="none" points="83.72520064201672,66.45798410879797 83.03178170137107,66.85622427868657 75.88956661312841,64.10835911211325 71.13964686996769,64.66589848417789 68.4006420543883,64.34730465160101 67.91524879599456,64.90484369374462 63.199999999953434,63.55081897013588 68.8166934188921,65.14378876177943 75.3348314606119,65.74115081355558 84.79999999993015,68.44918102986412" stroke="#4dd2ff" stroke-linecap="round" stroke-linejoin="round" stroke-width="0.5"><title>2021-06-15 1.2km</title></polyline><polyline fill="none" points="103.04511278192513,70.75760759520927 101.33984962408431,71.78374124711263 98.66015037591569,71.45724441774655 90.78345864685252,59.143485044070985 89.19999999995343,60.0297132889973 91.02706766920164,63.80782558390638 92.89473684225231,65.53361991653219 95.16842105286196,66.18662153405603 97.40150375943631,69.59154392269556 100.69022556394339,71.83038363300147 103.04511278192513,72.85651495592901 108.9323308269959,70.9908199844358 110.80000000004657,71.2240322586149" stroke="#4dd2ff" stroke-linecap="round" stroke-linejoin="round" stroke-width="0.5"><title>2021-06-11 1.2km</title></polyline><polyline fill="none" points="134.24589489592472,76.79690871739695 134.33216876766528,76.78454358392446 134.53167709601985,76.63925290294719 134.90373316782643,76.24047291715397 134.90912528480112,76.03335264256566 134.7284893658798,76.18482879776457 134.62334308472055,76.05190078225314 134.65839184510696,76.16318939151643 134.7230972489051,76.18792014030805 134.90912528480112,76.0240785686401 134.91182134329574,76.21265086971835 134.82285141308967,76.33939555393044 134.3213845336868,76.79690871739695 134.08952350342588,76.79999999999927 133.48291034286376,75.02864546105411 133.4289891730441,74.00226541477423 133.11085427105718,73.58799413533961 132.55816228030017,73.2479166332505 132.55546622183465,72.98512696283797 132.45301599914092,72.83054378168163 131.98659788013902,72.37606484385105 131.6441984517296,72.17201094696793 131.22361332707806,71.72679786500521 131.08611434401246,71.70206362072895 130.64126469293842,71.78244984373669 130.58464746462414,71.80409225340736 130.71675433068594,71.82573464824054 130.6897937457834,71.86283586197169 130.46332483249716,71.94322167545761 129.7003402794362,72.08544222848832 129.43343048878887,72.07307524931821 129.5143122435402,72.10090094563384 129.4684792491753,72.13800183589228 129.5224004190095,72.11017617228026 129.53048859449336,72.18746962171099 129.53857676996267,72.097809202809 129.42534231331956,72.07925873950808 128.98858083771484,71.83810172432459 127.92363773362013,71.8504687955774 127.637855533525,71.73607320161136 127.10403595223033,71.96486397487206 126.47855038222042,71.83191818688647 126.29521840480447,71.7515320898965 125.97438744433748,71.39906755507036 125.63198801592807,71.10843594217295 125.15478566294769,71.00022135988729 124.6047897307144,70.98785395543382 124.22464548342396,70.80543417657645 123.87954999653448,70.53644037522827 121.87098642042838,69.65832970599695 121.70383079398016,69.6397778085302 121.19427573909343,69.7294452118822 120.93275806543534,69.69852544640344 120.67393645025732,69.5593861268062 120.30457643694535,69.15742464555115 119.74918838770827,68.67506410792521 119.61168940464268,68.18341981676713 119.4175731932628,67.93604872252217 119.04012500448152,67.21247713646517 118.74355857042246,66.9187147041921 117.82150656636804,64.56851674294558 117.80533021541487,64.36750483968171 117.85655532675446,64.11391876464768 118.2501798664889,63.41809283988914 118.34723797217885,63.10573932022271 118.27983650990063,62.849050448201524 117.95091737396433,62.31401752762031 117.69479181726638,61.79134654318477 117.52494013230898,61.253202866369975 117.54920465873147,60.9748490840484 117.770281455043,60.20163123655402 117.79724203994556,59.72222664579749 117.74332087011135,59.3201397537523 117.47641107946401,58.25303813092796 117.52224407382892,57.64369143241129 117.49797954739188,56.762128400836446 117.42248990964436,56.41258956383717 117.43057808511367,56.05686021766451 117.30386333602655,55.53717882308047 117.08817865670426,55.19999999999891" stroke="#4dd2ff" stroke-linecap="round" stroke-linejoin="round" stroke-width="0.5"><title>2021-06-10 13.2km</title></polyline><polyline fill="none" points="149.61048296582885,70.65226723949309 149.89722500985954,71.61285943468101 151.1636690380983,71.4756321812165 151.23535454901867,72.18921316042542 152.14337102207355,72.07943159039132 152.69295993982814,72.82045634766109 153.00359715439845,72.16176777196233 152.35842755506746,71.72264118873863 152.95580681378487,71.77753204954206 153.29033919831272,72.16176777196233 152.8363309619017,72.84790167113533 154.27004118240438,73.01257355528651 153.55318607226945,73.47914336452959 153.48150056123268,72.95768293808214 153.9355087976437,72.68322968957364 154.15056533075403,72.985128247994 153.9832991383737,72.54600296393619 154.36562186374795,72.76556569256354 153.9594039680669,72.73812036099844 154.00719430868048,72.38133080376429 154.60457356716506,73.53403387882281 154.15056533075403,74.19271920694155 152.90801647293847,74.60439674541703 150.9008221643744,74.54950644215569 148.75025683350395,76.05898583793896 148.03340172336902,75.61986540345242 147.57939348684158,76.11387584343902 148.1050872344058,76.69022024865262 148.9175230260007,76.41577068076003 148.24845825647935,76.6353303566284 148.77415200392716,76.69022024865262 148.86973268527072,76.22365582219209 148.89362785569392,76.4981055794633 148.22456308605615,76.38832570906379 148.89362785569392,76.4981055794633 148.46351478958968,76.25110081007006 148.98920853703748,76.22365582219209 147.2687562723877,76.4981055794633 147.98561138263904,76.27854579532868 148.27235342666972,76.79999999998836 148.27235342666972,76.4981055794633 147.67497416818514,76.58044045395218 148.20066791574936,76.3608807346609 148.86973268527072,76.55299549846677 148.3679341080133,76.55299549846677 148.51130513020325,76.00409582149587 148.43961961916648,76.6353303566284 148.03340172336902,76.4432156496332 148.3679341080133,76.19621083157836 148.29624859709293,76.71766519051744 147.96171621233225,75.97665080922889 148.43961961916648,75.94920579425525 148.22456308605615,76.47066061594523 147.72276450879872,76.33343575758045 147.93782104190905,75.26307954033837 146.88643354689702,73.86337673777598 146.7430625249399,72.29899468706571 145.50051366712432,70.48759395891102 145.38103781547397,69.96612792738597 145.835046051885,69.33487826626515 145.33324747474398,67.85280821745982 145.882836392615,66.42562219250249 145.81115088157821,64.83375222256291 147.2687562723877,55.19999999998254 147.77055484964512,55.2274470613047 147.77055484964512,55.7214937012468 148.51130513020325,56.13319856443559 150.853031823528,56.380221190076554 151.06808835663833,56.8468188844854 152.93191164336167,56.13319856443559 154.77183975966182,57.09384087665239 155.70375140290707,56.819371983001474 155.9188079360174,57.258522082847776 157.73484088201076,56.76447817173903 157.99768775573466,57.99958630485344 158.66675252525602,58.438734542171005" stroke="#4dd2ff" stroke-linecap="round" stroke-linejoin="round" stroke-width="0.5"><title>2021-06-08 2.7km</title></polyline><polyline fill="none" points="188.80000000004657,63.409794419130776 181.01272430666722,60.698050593200605 172.94355628057383,60.171889267570805 169.77226753672585,58.39103054400766 169.94845024473034,56.933958566893125 169.59608482848853,57.05538142926525 167.19999999995343,71.38302693981677 167.69331158231944,72.79957488723448 168.85611745505594,73.81139185623033 168.32756933104247,75.06604143307777" stroke="#4dd2ff" stroke-linecap="round" stroke-linejoin="round" stroke-width="0.5"><title>2021-06-08 1.1km</title></polyline><polyline fill="none" points="32.19195710448548,90.9977428719576 25.156032171449624,88.30384848060203 21.47882037528325,89.00226761162048 19.046648793388158,88.80271943609114 18.61233243951574,89.20181566910469 14.87721179611981,88.00452555314405 11.199999999953434,88.53665501839714 14.413941018632613,87.8714930556016 18.49651474528946,89.20181566910469 24.490080428891815,89.46787956194021 29.035924932919443,91.09751632501138 32.77104557643179,92.12850694436929 32.79999999993015,91.79592966960627" stroke="#4dd2ff" stroke-linecap="round" stroke-linejoin="round" stroke-width="0.5"><title>2021-06-07 1.5km</title></polyline><polyline fill="none" points="51.4122946721036,99.42332553342567 51.24685008195229,94.72361416352214 49.92329336050898,93.9165884173417 46.32487352471799,89.16935084125726 43.76048237713985,89.69154925938346 48.020680573768914,84.94427014220855 51.4122946721036,79.20000000001164 44.75314991804771,88.97946036746725 46.159428934333846,88.93198773739277 47.193457623012364,89.78649436563137 51.20548893418163,94.62867002814892 51.24685008195229,99.32838232224458 52.23951762309298,100.79999999998836 51.329572377027944,100.2778135954577" stroke="#4dd2ff" stroke-linecap="round" stroke-linejoin="round" stroke-width="0.5"><title>2021-06-04 1.3km</title></polyline><polyline fill="none" points="76.1903273400385,93.1097840013681 76.42451328207972,93.47373257562867 77.11329546454363,93.47373257562867 76.93421209708322,93.0781362602429 77.30615447560558,92.90407357236836 76.89288516616216,92.96736911709013 76.97553902800428,92.39770831553324 76.5484940749011,92.20782093210437 76.53471843129955,92.44518012627668 76.97553902800428,92.91989746091713 76.98931467172224,93.55285172165895 76.41073763841996,93.5053802387265 75.98369268531678,92.96736911709013 76.06634654721711,93.23637490349938 75.5566477322136,93.33131801447598 74.92296812444692,92.20782093210437 74.20663465477992,91.46409318254155 71.76834572904045,89.73926449069404 71.49283285601996,88.26760699760052 71.78212137258379,86.7801115084585 73.13213445013389,84.54884240710817 74.39949366584187,83.52023272214865 75.69440416875295,82.00104327403824 75.74950674327556,80.76669125058106 75.25358357199002,79.8013580475963 74.82653861888684,79.5165045166359 74.37194237852236,79.95960979055963 74.24796158570098,79.56398014030128 74.44082059670473,79.54815493394563 74.17908336746041,79.50067930571095 74.3581667348626,79.53232972609112 74.22041029832326,79.84883358687512 74.28928851662204,79.59563054828322 74.0275512872613,79.78553286468377 74.23418594204122,79.64310614843271 74.05510257458081,79.59563054828322 74.11020514916163,79.78553286468377 73.60050633421633,80.16533682295994 74.17908336746041,79.84883358687512 73.95867306907894,79.99126012041233 74.04132693097927,79.67475654075679 73.86224356351886,80.07038591771561 73.86224356351886,79.78553286468377 74.37194237852236,79.46902887898614 74.61990396416513,79.81718322889355 74.5096988150035,79.92795945444959 74.89541683712741,79.95960979055963 74.45459624042269,80.16533682295994 73.88979485083837,79.40572800689552 74.5096988150035,79.50067930571095 74.52347445860505,79.19999999999709 73.61428197787609,80.18116196838673 74.39949366584187,80.16533682295994 74.39949366584187,79.95960979055963 73.83469227619935,80.02291044402227 74.61990396416513,79.46902887898614 73.91734613809967,79.92795945444959 74.19285901106196,79.91213428406627 74.30306416022358,79.78553286468377 74.01377564365976,79.64310614843271 74.09642950556008,79.92795945444959 74.52347445860505,79.7064069268381 74.39949366584187,79.94378462326131 74.41326930938521,79.75388249421667 74.22041029832326,79.84883358687512 74.30306416022358,79.62728094990598 74.57857703318587,79.61145574983675 74.4821475277422,79.99126012041233 74.70255782606546,79.6905817345978 74.3581667348626,80.11786137736635 74.5372501022648,79.84883358687512 74.31683980394155,79.2474757173186 74.71633346972521,79.43737844604766 74.09642950556008,79.95960979055963 74.3581667348626,80.07038591771561 74.52347445860505,79.86465876353031 74.41326930938521,80.11786137736635 74.66123089508619,79.5165045166359 74.5096988150035,80.00708528302494 74.67500653880415,80.21281225452549 74.44082059670473,79.97543495628634 72.4433522677864,82.01686823827913 74.90919248072896,79.72223211750679 76.68625051138224,81.1464928851201 77.51278913032729,82.38084198521392 76.700026155042,96.43276207338204 71.65814057982061,96.55935035314178 70.6387429498136,96.82835011588759 70.48721086967271,99.09109497033933 71.01068532833597,99.4708532167715 72.12651246384485,99.21768115236773 72.6224356351886,99.75567131169373 72.20916632574517,100.08795844991982 72.9530510827899,100.18289750587428 73.09080751921283,100.45189119256975 73.06325623195153,100.80000000000291 72.81529464625055,100.46771433655522 72.67753820976941,100.54683003315586" stroke="#4dd2ff" stroke-linecap="round" stroke-linejoin="round" stroke-width="0.5"><title>2021-06-02 5.9km</title></polyline><polyline fill="none" points="95.41287446941715,100.15227600421349 97.3431542434264,98.38348278471676 100.3361723201815,94.34759835581644 102.91710819792934,88.966318788036 104.02322357427329,84.85554186248919 104.00153503741603,79.19999999999709 104.43530577316415,79.59863265082822 104.65219114092179,83.93372209358495 103.1339935658034,89.63898500494543 101.46397623314988,93.52546584278753 98.77459767146502,97.51153790681565 95.34780885907821,100.80000000000291" stroke="#4dd2ff" stroke-linecap="round" stroke-linejoin="round" stroke-width="0.5"><title>2021-06-01 2.2km</title></polyline><polyline fill="none" points="136.79999999993015,91.47635831439402 136.36599690874573,91.97486595442751 127.08500772796106,89.02215753664495 120.70850077271461,89.21389253027155 120.17434312216938,89.71240307122935 116.0346213291632,88.25521661652601 115.19999999995343,88.29356369850575 115.23338485322893,88.71538135013543 116.00123647612054,88.02513404554338 120.64173106651288,89.94248464371776 129.0547140649287,90.21091297297971" stroke="#4dd2ff" stroke-linecap="round" stroke-linejoin="round" stroke-width="0.5"><title>2021-05-31 1.1km</title></polyline><polyline fill="none" points="153.0269891130738,99.99629552630358 153.46400575712323,96.4298415791709 154.206934051821,96.98239242186537 156.91643724404275,96.4298415791709 157.8341721962206,95.42520214305841 158.53339882660657,92.46150422698702 160.15036040893756,93.06429164510337 159.1889237924479,92.6624334459193 159.66964210080914,91.95918083234574 159.58223877171986,93.16475614518276 159.66964210080914,91.90894846542506 159.6259404362645,93.76754272839753 158.2274871757254,92.36103958779131 162.68505694367923,94.82241752752452 158.14008384686895,93.11452389755868 159.2326254567597,92.61220114884782 158.66450381977484,90.9545325517538 158.2274871757254,93.41591730850632 159.58223877171986,92.16011024982436 159.10152046359144,91.35639210251975 160.32516706665047,93.16475614518276 160.89328870363533,92.91359485773137 159.27632712130435,93.66707834758563 157.7904705319088,92.96382712526247 159.93185208714567,92.76289802548126 158.44599549798295,92.4112719099794 157.35345388785936,95.97775407889276 153.15809410624206,96.68100112763932 153.28919909941033,98.58980963676004 151.54113252367824,99.94606395452865 151.6285358525347,100.79999999998836 152.28406081837602,99.8456007958157 150.36118758493103,94.62148916331353 141.31494305608794,79.19999999998254" stroke="#4dd2ff" stroke-linecap="round" stroke-linejoin="round" stroke-width="0.5"><title>2021-05-30 1.4km</title></polyline><polyline fill="none" points="167.98435754165985,87.86895987065509 171.09162011160515,89.6361701549904 176.7631284914678,91.74988058526651 179.3877094971249,91.50732429651543 182.70614525128622,92.1310401293158 188.28715083794668,91.29941877289093 188.79999999993015,90.88360735660535 188.22681564232334,91.33406970204669 182.91731843561865,91.92313497472787 175.52625698316842,91.43802246905398 170.60893854743335,90.12128514857613 167.19999999995343,88.3540773045097" stroke="#4dd2ff" stroke-linecap="round" stroke-linejoin="round" stroke-width="0.5"><title>2021-05-27 1.4km</title></polyline><polyline fill="none" points="32.800000000046566,115.5533500314632 30.09530434780754,115.4239049233147 24.610782608622685,113.35277798259631 16.308869565371424,113.05073781785904 11.199999999953434,111.66998012328986 14.355478260898963,112.87814334436553 22.882782608503476,113.65481793880463 31.673043478047475,116.33001987668104 32.386782608693466,116.11427839126554" stroke="#4dd2ff" stroke-linecap="round" stroke-linejoin="round" stroke-width="0.5"><title>2021-05-25 1.1km</title></polyline><polyline fill="none" points="37.79474342928734,112.24558938734117 38.82202753436286,113.08398385517648 42.25531914876774,113.39449975814205 45.661576971178874,115.35074290478951 49.74367959937081,115.19548595618107 52.04155193991028,115.56810250409762 56.85356695856899,114.8849718295387 58.79999999993015,113.92237609039876 58.79999999993015,114.63656030752463 51.122403003741056,115.75441061265883 48.20275344175752,115.25758874489111 45.607509386725724,115.47494840848958 40.47108886099886,114.2328911665245 37.199999999953434,112.7734676458931" stroke="#4dd2ff" stroke-linecap="round" stroke-linejoin="round" stroke-width="0.5"><title>2021-05-24 1.6km</title></polyline><polyline fill="none" points="71.61395348829683,113.44105418300023 76.63720930216368,113.58529933882528 76.63720930216368,114.1983406166255 79.83953488362022,115.64078662748216 84.79999999993015,115.17199229812832 79.74534883711021,115.67684770480264 76.16627906973008,115.06380890600849 72.43023255793378,115.2441145417688 63.199999999953434,112.32315229519736" stroke="#4dd2ff" stroke-linecap="round" stroke-linejoin="round" stroke-width="0.5"><title>2021-05-21 1.1km</title></polyline><polyline fill="none" points="102.14869664539583,124.79999999998836 102.91874977841508,124.05815092180273 102.6703455420211,123.31629994107061 103.06779232039116,119.86381457818788 104.55821773922071,119.35021819346002 104.88114324677736,118.57982190645998 106.66965374955907,119.00782009700197 110.34603644942399,118.49422219238477 110.22183433105238,116.83928940744954 108.97981314873323,114.15713685489027 106.4957707838621,110.67600815641345 104.7072602811968,108.99249646041426 101.85061156167649,107.30897496518446 97.80162250692956,106.7382874887262 96.31119708810002,106.13906442638836 94.12523980706464,106.45294332815683 91.39279320568312,104.82647623747471 90.87114430905785,103.19999999998254 89.6539635504596,103.62802094922517 89.72848482138943,104.5411301907152" stroke="#4dd2ff" stroke-linecap="round" stroke-linejoin="round" stroke-width="0.5"><title>2021-05-20 1.7km</title></polyline><polyline fill="none" points="115.3038461538963,112.1511357218842 115.19999999995343,109.94439573778072 119.8211538461037,109.10941094096052 136.43653846159577,109.46726170938928 136.80000000004657,117.57848898816155 135.81346153840423,118.29418028873624 127.40192307694815,117.57848898816155 126.36346153845079,118.29418028873624 119.97692307690158,118.89058905903948 116.29038461553864,118.35382119234418 115.45961538446136,117.63812996214256 115.45961538446136,111.43543715006672" stroke="#4dd2ff" stroke-linecap="round" stroke-linejoin="round" stroke-width="0.5"><title>2021-05-18 1.1km</title></polyline><polyline fill="none" points="141.19999999995343,114.73490694213251 142.04031830222812,115.52462390180153 146.14641909801867,117.25760406878544 148.72466843493748,117.19179494198761 150.4625994693488,117.58664941068855 153.46100795746315,117.2356676953641 156.76498673739843,116.27046512240486 157.70079575583804,115.70011617867567 159.2095490716165,114.6471604401886 162.79999999993015,111.11533499849611 162.22705570282415,110.413350589326 160.81379310344346,111.51020025488106 152.54429708211683,112.40961294418958 151.3411140581593,112.08055994319147 144.8286472148029,111.88312790892087 144.48488063644618,112.43154979358951 144.56127320951782,112.21218120203412 144.17931034474168,112.3657392388559 143.77824933675583,113.19933816026605 143.18620689644013,113.4406425280904 141.46737400523853,113.08965427010844 141.21909814304672,112.62898134101124" stroke="#4dd2ff" stroke-linecap="round" stroke-linejoin="round" stroke-width="0.5"><title>2021-05-10 2.5km</title></polyline><polyline fill="none" points="188.80000000004657,120.8977506790543 188.69244813278783,120.28006116092729 187.95751037355512,119.51824157139345 186.79236514528748,120.09475394907349 186.20082987553906,119.9094465727394 186.1649792531971,119.33293368323939 186.55933609965723,118.67405985989899 186.41593361005653,116.84155610324524 185.9857261410216,116.22385458248027 183.70921161829028,116.92391616792884 182.18556016602088,116.75919600612542 182.13178423244972,116.28562481679546 178.18821576761547,116.3473950329062 176.12680497928523,116.01795366931765 172.82854771788698,116.61506575791282 170.4803319502389,116.67683587648207 168.61609958508052,116.26503474074707 167.19999999995343,113.81480118533364 169.2614107884001,112.33229296727222 170.1756016598083,111.3233577417559 172.05775933607947,110.35559896331688 172.29078838170972,109.65551534775295 174.28049792535603,108.77011211805802 176.19850622408558,107.45229570445372 175.4277178423945,108.31711366445234 173.29460580914747,109.24370035929314 171.28697095438838,107.47288664989173 170.0142738589784,107.10224932096025" stroke="#4dd2ff" stroke-linecap="round" stroke-linejoin="round" stroke-width="0.5"><title>2021-05-08 2.6km</title></polyline><polyline fill="none" points="32.799999999813735,134.26421503492747 32.65859247115441,135.76666118454887 28.416366612073034,136.01030058410834 27.78003273322247,137.1878889821819 21.239934533368796,135.68544801944518 17.846153846010566,135.96969402758987 16.608837970299646,136.66000494445325 11.800981996580958,135.60423483813065 11.199999999953434,136.57879195542773 16.2199672665447,138.3654740121856 23.502454991685227,139.0963871642016 32.65859247115441,141.73578496507253" stroke="#4dd2ff" stroke-linecap="round" stroke-linejoin="round" stroke-width="0.5"><title>2021-05-08 1.3km</title></polyline><polyline fill="none" points="58.79999999993015,137.6380503643304 58.25570291781332,137.93419610816636 55.04721485415939,136.74961155556957 54.53156498679891,137.21028382584336 51.26578249328304,135.95988618361298 49.145888594095595,136.94704260639264 44.53368700260762,137.2431889635336 41.58302387269214,136.28893864914426 38.60371352778748,136.81542191881454 37.5724137929501,136.65089598626946 37.199999999953434,136.124412456993 41.98408488044515,136.3218438778713 44.79151193634607,137.5722401633102 49.37506631296128,137.44061972235795 58.628116710926406,140.04011381638702" stroke="#4dd2ff" stroke-linecap="round" stroke-linejoin="round" stroke-width="0.5"><title>2021-05-07 1.5km</title></polyline><polyline fill="none" points="63.29969230759889,142.14813170203706 63.199999999953434,141.57466302404646 64.79507692309562,141.03942482051207 65.4596923077479,139.43370574639994 73.80061538470909,134.46358045941452 76.45907692296896,135.22821929460042 77.09046153840609,136.06932025947026 77.85476923070382,134.19595650833799 77.55569230765104,133.85186829796294 77.55569230765104,135.15175547939725 77.38953846157528,134.73120422448847 76.75815384613816,136.18401570335845 77.58892307698261,135.22821929460042 76.79138461535331,136.06932025947026 77.22338461515028,134.6547403105942 76.92430769221392,136.14578389251255 77.6553846152965,135.49584252823843 79.01784615393262,135.72523372317664 81.04492307687178,134.99882780353073 82.90584615373518,135.07529164897278 84.79999999993015,136.18401570335845 83.57046153827105,135.34291498883977 82.07507692289073,135.15175547939725 78.5858461537864,135.99285661135218 76.8578461536672,134.88413200664218" stroke="#4dd2ff" stroke-linecap="round" stroke-linejoin="round" stroke-width="0.5"><title>2021-05-06 1.2km</title></polyline><polyline fill="none" points="94.58979206043296,139.97022751005716 95.5289224954322,137.95319723919965 102.22533081285655,132.98094652371947 105.04272211715579,129.97880769876065 108.75841209851205,128.00864378883853 110.18752362951636,129.36899593262933 110.80000000004657,143.2068395917886 110.02419659728184,139.07898263185052 98.79546313802712,145.22384756797692 95.8555765596684,142.40941547282273 90.34328922489658,145.4114757818461 89.19999999995343,147.3346607029962 90.38412098307163,147.99135621113237 93.89565217401832,144.70786959808902 95.20226843096316,141.70580484520178 94.46729678637348,140.62693319297978" stroke="#4dd2ff" stroke-linecap="round" stroke-linejoin="round" stroke-width="0.5"><title>2021-05-06 1.8km</title></polyline><polyline fill="none" points="128.28407310706098,134.65907594456803 130.2297650129767,134.07236538428697 130.42715404706541,133.45305863354588 128.1712793733459,132.54039388312958 128.4532637075754,132.60558430830133 128.11488250654656,132.964131410321 129.77859007834923,133.61603420972824 131.24490861629602,133.38786838002852 130.76553524797782,135.50654486721032 132.2318537859246,134.69167094433215 132.17545691900887,135.31097531376872 132.76762402092572,135.27838037660695 134.9671018277295,137.03850226165378 136.5744125325,137.39704442955554 136.60261096607428,138.30969541962259 136.09503916441463,139.02677652644343 136.79999999993015,142.28621598501923 136.2078328981297,143.45960611684131 120.52950391650666,141.6017364343861 116.15874673624057,142.188433281146 115.19999999995343,142.90550575387897 115.8767624021275,142.22102751914645" stroke="#4dd2ff" stroke-linecap="round" stroke-linejoin="round" stroke-width="0.5"><title>2021-05-02 1.6km</title></polyline><polyline fill="none" points="147.81670886068605,132.84641383722192 149.3478481010534,133.47876323369564 151.20708860759623,131.89788854058133 158.5893670883961,130.6964210945298 161.87037974665873,132.02435866341693 162.79999999981374,134.23758166382322 161.65164556982927,140.56103269133018 152.35544303781353,143.84920189867262 141.85620253137313,145.3035789055284 141.19999999995343,144.2286049229442 145.73873417708091,131.2023024064256" stroke="#4dd2ff" stroke-linecap="round" stroke-linejoin="round" stroke-width="0.5"><title>2021-05-01 1.0km</title></polyline><polyline fill="none" points="177.50366438762285,137.11315597448265 176.19514322816394,139.20011186110787 174.25492219859734,135.18271424883278 174.34516503708437,133.7218346184818 175.92441471247002,131.26963449281175 178.40609277342446,130.22614153544419 184.81333431322128,130.3304909261642 188.55841211462393,127.20000000001164 183.8206630886998,130.53918964450713 172.6756725232117,129.02612202009186 171.72812271816656,129.49569520686055 169.878144527087,133.46096281975042 169.2464446569793,143.16530474333558 168.47938052914105,145.66962135827634 167.5769521431066,146.03483318036888 167.44158788537607,148.79999999998836 168.1635305939708,148.43479013908654 168.47938052914105,146.71308301994577 169.6976588498801,133.14791648695245 171.32202994450927,131.53050740167964 171.99885123386048,131.94790378096513" stroke="#4dd2ff" stroke-linecap="round" stroke-linejoin="round" stroke-width="0.5"><title>2021-05-01 1.8km</title></polyline><polyline fill="none" points="29.481213686231058,160.0378349780367 28.728211749519687,160.16597862626077 27.501097482279874,161.04696347011486 26.009038089134265,160.98289200631552 25.74409296317026,161.30324907263275 25.785926404118072,160.99890987465915 24.781923821836244,161.33528474450577 22.411362169135828,161.0309456065297 21.016914138162974,161.1911241713242 20.598579728917684,160.9668741364294 19.078631375101395,161.25519555294886 15.648289218835998,161.33528474450577 12.231891542905942,160.98289200631552 11.200000000011642,161.86387241774355 11.269722401513718,162.16820999450283 15.285732730757445,162.9530779547058 15.718011620396283,162.82493650604738 16.512846998113673,163.2413958444231 18.632408005185425,163.27343113390089 19.957133634597994,163.78599490594934 20.528857327299193,163.6098012918228 22.034861200780142,163.96218832896557 22.411362169135828,164.25050442690554 23.34564234991558,164.36262721562525 23.596642995486036,164.17041667328158 24.27992253069533,164.49076745082857 25.13053582952125,164.3466096791526 26.552872821164783,164.76306511477742 26.67837314395001,164.37864475056995 26.98515171080362,164.3466096791526 27.55687540344661,164.65094260255864 27.75209812785033,164.18643422715832 28.58876694639912,163.73794212110806 29.592769528680947,162.72883035318227 30.70832795352908,162.29635196141317 31.293996126565617,161.5915698918834 32.27010974823497,161.28723123433883 32.79999999998836,160.55040896416176 32.52111039380543,159.70145742023306 32.0888315042248,159.23693488522258 31.210329244669992,159.797565365021 29.871659134922083,159.71747541498917 29.787992253084667,160.23005041247234 27.905487411189824,161.15908847100218 28.295932859939057,161.52749864295765 28.560877985786647,161.3513025780412 29.467269205895718,162.0400679264858 30.220271142723504,161.92794353398494 30.27604906389024,161.7357301095326" stroke="#4dd2ff" stroke-linecap="round" stroke-linejoin="round" stroke-width="0.5"><title>2021-04-30 3.7km</title></polyline><polyline fill="none" points="58.62938388611656,160.58898702598526 57.26445497618988,162.54873691071407 56.51374407566618,162.66632159650908 49.074881516513415,160.62818211846752 42.45497630327009,160.58898702598526 43.342180094798096,161.3336931206577 37.199999999953434,159.4915228689788 42.1137440756429,161.2161080405058 49.96208530792501,161.96081296002376 58.049289099290036,164.5084771309921 58.79999999993015,164.35169826893252 57.77630331739783,163.9989456034382" stroke="#4dd2ff" stroke-linecap="round" stroke-linejoin="round" stroke-width="0.5"><title>2021-04-29 1.4km</title></polyline><polyline fill="none" points="71.50057142856531,161.46843952391646 73.25942857132759,160.08597749008914 72.6422857142752,158.98709361656802 73.72228571400046,158.63261423064978 81.09714285691734,151.5784017026017 81.96114285697695,151.47205573011888 84.79999999993015,154.73331789701479 81.18971428542864,157.07290077660582 81.59085714269895,157.10834888470708 79.33828571392223,159.55425990652293 80.29485714260954,159.19978108030045 80.51085714274086,158.3844784523244 79.43085714266635,159.2706768734788 74.27771428553388,165.50945188684273 70.7908571427688,167.5653880982718 68.4148571427213,169.6567594135995 68.2605714284582,171.00373788256547 66.31657142844051,172.52794426985201 64.71199999994133,171.71267189036007 63.199999999953434,169.55041879310738 63.32342857134063,167.4590468587121 65.45257142849732,166.46652710431954 66.2239999998128,165.26132085875724 68.35314285708591,164.33968982516672 68.75428571423981,163.41805642697727 69.803428571322,162.81544869582285 70.1119999998482,161.75202082199394 70.914285714156,161.14941029602778 71.80914285697509,161.36209647948272 71.99428571411408,160.68858979997458" stroke="#4dd2ff" stroke-linecap="round" stroke-linejoin="round" stroke-width="0.5"><title>2021-04-26 2.2km</title></polyline><polyline fill="none" points="101.94371921487618,168.98358240476227 102.53272503777407,168.1715718084597 103.21597179200035,159.64531536618597 105.5248746171128,151.19999999998254 103.4044536552392,159.50997582476703 101.73167711868882,160.294944235211 99.30497312918305,160.13253716222243 96.78402820788324,160.51148684948566 95.46465516509488,161.3235201300704 94.5458060814999,162.6227683768666 94.4751253828872,170.58052956312895 95.535335863824,172.52933383526397 96.24214285099879,172.79999999998836 96.71334750915412,172.55640046374174 99.25785266340245,170.41812858200865 100.12958128086757,171.01359837604105 100.97774966561701,170.3910617424408 101.14267129602376,169.68732297664974" stroke="#4dd2ff" stroke-linecap="round" stroke-linejoin="round" stroke-width="0.5"><title>2021-04-25 2.2km</title></polyline><polyline fill="none" points="126.83463103964459,172.8000000000029 126.19767577259336,168.05623116942297 126.54909936827607,165.35628087850637 126.19767577259336,160.33480216412863 126.52713539346587,151.5785203853884 126.26356769679114,151.20000000001164 125.71446832851507,151.5785203853884 125.16536896035541,160.51143876765855 125.38500870764256,169.2926474843116 126.26356769679114,169.54497660984634 126.32945962087251,169.31788040809624 126.4392794945743,165.0030142448377 126.15374782308936,168.359027554543" stroke="#4dd2ff" stroke-linecap="round" stroke-linejoin="round" stroke-width="0.5"><title>2021-04-18 2.2km</title></polyline><polyline fill="none" points="162.80000000004657,165.07463768444723 158.9318051575683,164.68364642042434 147.2343839542009,161.16470595585997 142.06647564459126,160.6670752383361 141.19999999995343,160.0983535767591 147.35816618904937,160.0272633060522 148.71977077366319,158.92536231552367 151.38108882517554,160.1338987069612" stroke="#4dd2ff" stroke-linecap="round" stroke-linejoin="round" stroke-width="0.5"><title>2021-04-16 1.0km</title></polyline><polyline fill="none" points="188.80000000004657,163.7323563605023 188.16736401669914,163.90104692101886 187.9075313807698,163.36902211081178 187.45564853557153,163.18735460967582 186.87949790793937,163.33009338164993 186.67615062760888,163.16140208898287 186.3937238493818,162.77211366503616 186.89079497911735,161.88972230597574 186.72133891214617,161.24090135429287 186.38242677826202,161.09816031553783 183.7502092050854,161.2798307016783 181.50209205021383,161.08518384976196 180.40627615066478,161.34471292163653 179.94309623434674,161.1630426250631 179.1974895398016,161.24090135429287 179.01673640171066,161.08518384976196 177.54811715480173,161.25387780468736 177.02845188288484,161.07220738270553 176.42970711301314,161.24090135429287 175.83096234314144,160.9943485536205 174.5656903766212,161.22792490263237 173.526359832671,160.8126777732541 172.66778242681175,160.91648967849324 172.18200836825417,160.31957010473707 171.30083682009717,160.3714762621239 170.49874476989498,160.12492183200084 170.1711297071888,160.2806404732255 169.71924686199054,159.83943717771035 169.0527196652838,160.07301557730534 168.08117154811043,159.7486010214052 167.51631799171446,160.0470624423033 167.91171548125567,159.7615776189923 168.00209205021383,160.20278117564158 167.20000000001164,160.16385150958376 167.87782426783815,159.91729669032793 167.55020920507377,159.99515615687415 167.9004184100777,159.96920300649072 167.6179916318506,160.08599214290734 167.79874476994155,160.2806404732255 167.60669456073083,160.12492183200084 167.87782426783815,160.03408587283047 167.79874476994155,159.89134352456313 167.5728033473133,159.96920300649072 167.6518828452099,160.16385150958376 168.00209205021383,160.02110930212075 167.83263598330086,159.95622642934904 167.81004184106132,160.137898392466 167.9004184100777,159.90432010810764 167.776150627702,160.137898392466 167.8552301255404,159.95622642934904 167.91171548125567,160.09896870721423 167.7422594142845,159.6318115854374 167.84393305447884,159.96920300649072 167.78744769876357,159.7486010214052 167.81004184106132,159.96920300649072 167.58410041843308,159.80050740412844 167.6631799163879,159.6837180142029 167.7422594142845,159.80050740412844 167.5728033473133,159.86539035370515 167.79874476994155,159.9821795822936 167.6179916318506,159.8783669397817 167.83263598330086,159.6837180142029 167.67447698750766,159.95622642934904 167.4937238494167,159.95622642934904 167.67447698750766,159.61883497503004 167.50502092053648,159.73562442255206 167.776150627702,159.96920300649072 167.58410041843308,159.85241376633348 167.6179916318506,159.96920300649072 167.67447698750766,159.86539035370515 167.7309623431065,160.41040586677263 167.6179916318506,161.63019430932763 168.71380753139965,161.86376952935825 168.80418410047423,162.07139159900544 169.78702928876737,161.98055698386452 170.35188284527976,162.18817886919715 174.85941422602627,162.3828240891453 179.31046025111573,162.95378173956124 181.44560669455677,163.03163940900413 182.3945606694906,163.2392596355785 183.49037656909786,163.797237370949 185.20753138075816,163.60259424363903 185.3882845188491,163.91402310905687 185.6255230125971,163.8102135691879 187.24100418412127,164.14759427434183 187.52343096234836,164.3811650249554 188.0317991632037,164.26437970147526 188.1899581590551,163.78426117140043 188.64184100425337,163.60259424363903" stroke="#4dd2ff" stroke-linecap="round" stroke-linejoin="round" stroke-width="0.5"><title>2021-04-09 4.9km</title></polyline><polyline fill="none" points="32.36397515540011,187.15576907334616 25.58881987584755,185.1909708568419 24.81739130441565,184.45898468076484 20.054658385226503,184.8442407339753 16.600000000093132,184.49751030324842 17.237267080810852,184.88276631844928 16.935403726645745,185.03686861807364 11.199999999953434,183.72699713296606 15.962732919142582,185.15244530286873 22.80496894416865,185.7303282142093 32.29689440992661,188.27300286706304 31.022360248491168,187.7721743201837 32.79999999993015,187.54102246667026 32.330434782546945,186.96314223416266" stroke="#4dd2ff" stroke-linecap="round" stroke-linejoin="round" stroke-width="0.5"><title>2021-04-09 1.4km</title></polyline><polyline fill="none" points="38.05909090908244,184.80178996088216 39.102272727293894,185.68283659638837 46.65000000002328,188.5726543130586 49.994318181765266,188.43168813735247 52.909090909175575,189.03079399993294 58.30909090919886,188.43168813735247 58.79999999993015,187.8325812703988 56.62159090919886,187.2687150662532 54.013636363553815,187.79733965868945 51.31363636360038,186.775331407669 49.07386363646947,186.9515399353986 45.26931818178855,185.0132413514657 44.77840909094084,184.0969510881987 42.59999999997672,183.25114260573173 40.943181818234734,182.96920600003796 37.199999999953434,183.88549915526528" stroke="#4dd2ff" stroke-linecap="round" stroke-linejoin="round" stroke-width="0.5"><title>2021-04-08 1.4km</title></polyline><polyline fill="none" points="84.65974025975447,186.90220063424204 84.79999999993015,187.64328861891408 82.97662337659858,187.6755097975838 78.15168831171468,186.03222563740565 70.85818181815557,185.67779071512632 67.01506493496709,184.3244902024162 63.199999999953434,184.90447682293598 66.81870129867457,184.48559770031716 70.66181818174664,185.6455693395401 77.81506493513007,185.96778295288095" stroke="#4dd2ff" stroke-linecap="round" stroke-linejoin="round" stroke-width="0.5"><title>2021-04-06 1.3km</title></polyline><polyline fill="none" points="95.7964071854949,182.75661670282716 98.51257485011593,181.9083324733365 99.63353293412365,182.80651572940405 99.63353293412365,183.75459627155215 98.90059880237095,184.1537875306385 100.19401197577827,185.55095438001445 101.53053892194293,185.70065059227636 103.2550898201298,184.90227026611683 105.19520958070643,182.4572224362928 106.9197604788933,183.10590978278196 108.342514970107,182.25762615716667 110.75688622728921,182.55702054535504 110.75688622728921,179.5131690853741 110.49820359284058,181.35944189631846 109.07544910162687,181.1099459765246 110.80000000004657,181.40934106512577 110.71377245499752,182.70671767104068 107.0059880237095,183.05601078644395 105.19520958070643,182.40732337423833 102.26347305392846,186.09984026823076 102.95329341315664,185.50105563254328 99.71976047893986,185.45115687994985 99.07305389200337,184.35338303845492 100.02155688614585,184.35338303845492 99.93532934132963,183.85439411672996 98.81437125732191,181.85843335525715 98.34011976025067,182.55702054535504 97.39161676634103,182.4572224362928 96.1844311375171,185.0519666762557 92.17485029902309,187.1477116222086 90.88143712561578,189.54283774230862 90.70898203575052,187.6965957240318 90.36407185602002,190.04182087921072 90.06227544881403,188.94405730837025 90.36407185602002,189.69253273674985 90.10538922133856,189.04385409812676 91.87305389204994,189.94202429242432 93.29580838303082,192.0876464348985 95.14970059855841,191.93795217137085 95.66706586815417,190.8900910471275 94.54610778414644,190.39110877303756 95.53772455081344,190.39110877303756 95.0634730537422,190.98988744121743 94.63233532896265,190.59070174364024 95.14970059855841,191.18948016813374 95.27904191589914,190.69049819846987 95.49461077828892,191.8381559701811 94.76167664653622,192.4868309146259 92.39041916141286,192.28723871539114 90.19161676615477,189.69253273674985 90.57964071817696,187.44710302661406 90.83832335309125,189.24344761660905 89.19999999995343,190.1915157212352 89.67425149702467,189.393142702349 89.37245508958586,190.39110877303756 90.57964071817696,189.54283774230862 90.75209580827504,187.3473059121461" stroke="#4dd2ff" stroke-linecap="round" stroke-linejoin="round" stroke-width="0.5"><title>2021-04-05 1.9km</title></polyline><polyline fill="none" points="132.18703574803658,191.6827286992193 131.34000109205954,192.10917275387328 131.671449435642,191.5974397839891 132.26069093553815,191.5974397839891 132.38958751352038,191.23496150644496 131.72669082635548,195.17954429371457 130.30882846738677,196.2029914627783 130.2351732798852,196.8000000000029 130.17993188928813,196.2029914627783 131.78193221695255,195.24350988841616 132.31593232613523,193.15395701501984 132.68420826352667,189.8276869487454 131.76351842004806,189.16669108673523 129.7748283582041,188.80420859849255 128.5963453585282,189.72107485418383 126.12889657821506,190.42471367458347 121.63593014201615,193.13263493936392 120.8257230798481,191.83198421719135 119.88661943958141,192.23710580078478 119.44468831468839,192.0665283874987 116.86675675294828,181.00002155455877 116.71944637806155,178.97429700440262 118.02682595571969,184.90215146214177 118.43192948680371,185.07273471595545 123.164275282179,182.91911093138333 126.81020706228446,181.74633618164808 129.0935178740183,180.46693804815004 132.29751852923073,177.8867946810933 134.19413960678503,175.1999999999971 135.28055362193845,175.7544207755418 135.15165704395622,175.9250114877941 134.7097259190632,175.7757446221658 134.9675190752605,175.5625060579914 134.9675190752605,175.90368765637686 135.07800185645465,175.3279433863354 134.4519327628659,175.51985831900674" stroke="#4dd2ff" stroke-linecap="round" stroke-linejoin="round" stroke-width="0.5"><title>2021-04-05 3.7km</title></polyline><polyline fill="none" points="146.6504672896117,178.16831719997572 150.0822429903783,180.89579199929722 152.90841121505946,188.76645043020835 152.97570093441755,192.7407125099562 154.52336448570713,192.42900642711902 156.07102803722955,193.83168279996607 159.57009345805272,191.2601074836566 162.79999999981374,192.11730021680705 156.2056074764114,190.5587672594702 156.2056074764114,193.13034493516898 156.54205607483163,189.54571913310792 156.40747663518414,193.28619784972398 156.60934579418972,192.03937364451122 153.91775700915605,192.58485948451562 155.73457943927497,191.41596077935537 156.67663551401347,193.13034493516898 154.99439252307639,192.03937364451122 156.2056074764114,191.72766727540875 155.93644859828055,193.20827139628818 156.67663551401347,193.20827139628818 155.80186915886588,191.64974066318246 157.34953270992264,193.5979035833152 155.80186915886588,192.19522678118665 155.93644859828055,190.94840079679852 157.0803738317918,192.7407125099562 156.00373831763864,191.0263274803292 154.18691588775255,190.94840079679852 153.37943925219588,192.97449198900722 153.58130841120146,191.96144706424093 150.14953271020204,189.3898654562072 151.49532710271887,184.4025310127763 150.14953271020204,184.94802230247296 150.2168224300258,182.9219098361791 146.24672897183336,180.73993655876257 141.19999999995343,181.20750278542982 144.02616822440177,182.22056196193444 144.96822429914027,184.8700949990307" stroke="#4dd2ff" stroke-linecap="round" stroke-linejoin="round" stroke-width="0.5"><title>2021-04-04 1.4km</title></polyline><polyline fill="none" points="180.53407821198925,176.33098246145528 173.83687150804326,179.38074755377602 167.3810055863578,186.86647845379775 173.47486033500172,193.5897057921975 177.03463687119074,189.56963944953168 181.19776536314748,187.8368451365386 181.31843575416133,185.5495500973193 185.17988826800138,182.7077489149524 179.50837988802232,175.49922604684252 174.74189944122918,178.68762028665515 167.19999999995343,187.28235005342867 173.35418994398788,192.82728118507657 176.97430167580023,188.59927516093012 182.88715083780698,187.6289095315733 184.63687150832266,186.311982604675 185.54189944127575,182.84637362958165 185.30055865901522,182.22256219777046 184.57653631293215,183.60880907118553 182.4648044691421,184.64849243091885 182.4044692737516,184.02468259970192 188.79999999981374,179.79662358592032 186.44692737422884,178.54899475112325 183.97318435739726,175.49922604684252 182.58547486015595,177.78655381657882 178.36201117304154,175.9844174083555 170.03575418959372,183.47018450696487 167.4413407817483,187.14372621424263 173.47486033500172,192.82728118507657 177.03463687119074,189.08445747278165 177.5776536311023,189.50032775918953 176.06927374284714,191.57967549713794 184.3351955304388,193.31246057635872 186.9899441341404,196.50077395321568 181.378770949319,186.2426705926773 181.98212290508673,184.37124368536752 184.93854748620652,181.87600005220156 181.68044692720287,179.86593623377848 179.8703910612967,176.40029545151629 178.60335195506923,175.9151043772581 177.51731843547896,176.67754734342452 178.06033519562334,177.16273789084516" stroke="#4dd2ff" stroke-linecap="round" stroke-linejoin="round" stroke-width="0.5"><title>2021-04-02 3.1km</title></polyline><polyline fill="none" points="24.451063829823397,218.34746444896155 21.92340425529983,217.46765793619852 17.155319148907438,217.37967709400982 11.985106382984668,216.69782439009578 11.544680851162411,216.2799136378453 11.199999999953434,214.19034812839527 11.697872340446338,213.79442824648868 12.731914893607609,213.75043710503087 11.793617021292448,210.8250067242625 12.023404255392961,206.86571651382837 13.459574468084611,204.82005569181638 14.034042553277686,203.43427479383536 16.772340425522998,201.542559981026 17.882978723500855,202.75237944399123 18.917021276662126,202.97234591370216 19.453191489330493,203.61024744875613 21.71276595746167,203.61024744875613 25.197872340446338,204.16016110031342 26.88297872338444,205.04002012169803 29.6787234043004,207.5256030979508 32.321276595583186,212.10076303806272 32.39787234039977,212.694647108161 31.78510638291482,213.22254273148428 31.536170212784782,214.05837491249258 32.07234042545315,214.03637936891755 32.800000000046566,215.9059928271745 32.321276595583186,216.89578184153652 30.655319148907438,217.20371530551347 30.253191489260644,217.7096050732507 29.314893616945483,217.24770576560695 28.912765957415104,217.42366751944064 27.91702127654571,217.11573435919126 27.43829787231516,218.45744001898856 27.28510638291482,218.3034742057789" stroke="#4dd2ff" stroke-linecap="round" stroke-linejoin="round" stroke-width="0.5"><title>2021-04-02 3.2km</title></polyline><polyline fill="none" points="39.46312997350469,208.1737890126533 46.76816976128612,211.43135781673482 50.72148541116621,211.39845324031194 53.127851458848454,211.9578305973846 56.36498673749156,211.16812111492618 58.800000000046566,211.20102571387542 53.29973474808503,211.92492607302847 50.89336870028637,211.36554866074584 46.9973474801518,211.56297608980094 41.95543766580522,210.11517223037663 37.199999999953434,208.0421694025863" stroke="#4dd2ff" stroke-linecap="round" stroke-linejoin="round" stroke-width="0.5"><title>2021-04-01 1.4km</title></polyline><polyline fill="none" points="63.199999999953434,207.2794083393528 65.63927986915223,209.75637384262518 68.50278232409619,210.36546143773012 71.86121112946421,212.1115075496491 76.45695581031032,212.03029626677744 79.00229132571258,212.7205916606472 84.80000000004657,212.03029626677744 80.73453355161473,212.63938049794524 75.82062193122692,211.9084793124639 71.43698854348622,212.1115075496491 64.86153846140951,210.32485562603688 64.18985270056874,209.95940314105246 64.96759410807863,209.63455621540197" stroke="#4dd2ff" stroke-linecap="round" stroke-linejoin="round" stroke-width="0.5"><title>2021-03-29 1.2km</title></polyline><polyline fill="none" points="99.60610773414373,220.79999999998836 98.59949416550808,215.12380938709248 97.8992412481457,214.9228811300709 94.48550827638246,210.00011415043264 92.20968629512936,209.79918387840735 99.29974708263762,199.19999999998254 101.66310067870654,200.65677290415624 106.30227625579573,205.37869790161494 105.82085237512365,208.74429865402635 107.79031370510347,220.29768478992628 101.53180325683206,216.12844948653947 99.25598127534613,215.67636168620083 99.03715223865584,216.63076879555592" stroke="#4dd2ff" stroke-linecap="round" stroke-linejoin="round" stroke-width="0.5"><title>2021-03-28 1.4km</title></polyline><polyline fill="none" points="125.73415384616237,206.0875407375279 126.96369230758864,206.8127859272936 127.26276923064142,206.20205322626862 128.45907692308538,206.12571157084312 128.724923076923,205.51497778543853 129.09046153828967,205.93485736649018 129.6553846154129,205.51497778543853 131.41661538451444,206.50741969732917 132.44676923076622,205.74400306795724 135.4707692306256,206.66010284234653 135.2713846154511,205.89668651425745 136.7003076922847,206.04936990048736 135.63692307681777,205.66766132219345 135.9027692307718,205.0569268138206 135.9692307690857,205.89668651425745 135.80307692300994,205.51497778543853 135.43753846152686,206.01119905951782 135.50399999995716,205.40046509329113 135.9692307690857,206.04936990048736 135.4707692306256,205.89668651425745 136.46769230766222,205.78217393517843 136.46769230766222,206.16388240037486 136.035692307516,205.62949044359266 135.3378461538814,206.01119905951782 136.73353846149985,205.78217393517843 136.30153846147005,205.4386359944765 136.16861538449302,206.58376127740485 135.57046153838746,206.0875407375279 135.50399999995716,206.50741969732917 136.33476923056878,205.9730282149394 135.9692307690857,206.01119905951782 136.79999999993015,207.0418104416749 136.7003076922847,205.93485736649018 136.2018461538246,206.01119905951782 136.46769230766222,206.54559048920055 135.73661538469605,206.77461516176118 135.63692307681777,206.35473649192136 135.23815384611953,206.92729820142267 133.84246153838467,206.73644439244526 133.84246153838467,205.9730282149394 134.1747692306526,212.53835812423495 130.41969230771065,213.37810158979846 127.3624615384033,212.38567729844362 127.59507692302577,212.88188976232777 126.66461538453586,212.38567729844362 121.28123076912016,212.1184857081971 118.58953846152872,212.92005992544 118.35692307678983,214.29418329225155 117.72553846158553,214.7903933088819 115.56553846143652,214.9430731861503 115.19999999995343,214.33235331607284" stroke="#4dd2ff" stroke-linecap="round" stroke-linejoin="round" stroke-width="0.5"><title>2021-03-26 1.5km</title></polyline><polyline fill="none" points="143.4829268293688,208.63126527593704 150.33170731714927,211.4263691099477 152.74006968643516,211.25347686518217 154.84738675958943,211.71452262398088 157.88292682927568,211.10939991637133 159.0871080138022,211.25347686518217 162.79999999993015,209.92796625601477 159.5135888501536,211.25347686518217 155.2738675958244,211.59926125247148 153.0411149825668,211.13821531180292 150.5574912892189,211.33992300037062 145.213937282213,210.04322828681325 141.19999999995343,208.28547737599" stroke="#4dd2ff" stroke-linecap="round" stroke-linejoin="round" stroke-width="0.5"><title>2021-03-26 1.6km</title></polyline><polyline fill="none" points="188.79999999981374,211.91659649994108 187.149745330913,211.705982393265 184.69269949034788,210.14743477504817 182.6023769096937,210.18955775853829 179.59524617972784,209.01011265337002 172.2607809845358,209.22072808965459 173.36095076380298,209.76832773769274 172.92088285204954,209.89469678746536 167.19999999995343,208.08340350005892 171.82071307254955,209.85257377498783 178.38505942258053,210.27380371282925 183.99592529702932,211.62173672145582" stroke="#4dd2ff" stroke-linecap="round" stroke-linejoin="round" stroke-width="0.5"><title>2021-03-24 1.1km</title></polyline><polyline fill="none" points="32.79999999993015,235.58436208078638 31.24456521740649,235.48323304005316 29.71847826091107,234.33710182108916 27.28260869567748,233.9325840025558 25.286956521798857,233.02241716056596 19.182608695700765,233.15725684558856 19.710869565373287,233.7303249137476 14.927173913107254,232.41563791921362 11.199999999953434,232.88757742225425 12.667391304392368,233.08983700969839 15.04456521733664,232.4493479053781 19.446739130537026,233.79774462341447 27.458695652196184,234.13484297165996" stroke="#4dd2ff" stroke-linecap="round" stroke-linejoin="round" stroke-width="0.5"><title>2021-03-23 1.3km</title></polyline><polyline fill="none" points="58.369148936122656,235.07226263763732 51.10212765960023,232.53183448678465 48.14361702115275,233.0267246006115 45.21382978721522,232.69679793936666 46.018085106275976,233.22468044125708 45.702127659576945,233.32365831767675 41.077659574337304,231.93796538349125 37.199999999953434,232.49884178640787 40.79042553191539,232.00395089149242 45.12765957438387,233.25767306992202 50.872340425499715,233.6535843606398 58.800000000046566,236.06203461650875 57.50744680839125,235.43517936990247 58.800000000046566,235.07226263763732" stroke="#4dd2ff" stroke-linecap="round" stroke-linejoin="round" stroke-width="0.5"><title>2021-03-22 1.6km</title></polyline><polyline fill="none" points="81.59387911239173,223.33357029205945 81.89135424635606,223.5421696606645 81.72609028307488,224.20589342516905 83.22999234893359,224.43345533344836 83.626625860692,224.75583424443903 83.49441469012527,225.34370028464764 84.08936495782109,225.74193110143824 84.79999999998836,226.9745450904884 84.37031369539909,228.1123356349126 83.74231063504703,228.3778191305464 83.51094108645339,229.06048930042016 80.45355776586803,231.71529479551828 77.08217291504843,233.0237212193315 76.02448354999069,233.70637496456038 75.21469013008755,234.38902629644144 72.85141545522492,237.65054935270746 63.20000000001164,244.66642970794055" stroke="#4dd2ff" stroke-linecap="round" stroke-linejoin="round" stroke-width="0.5"><title>2021-03-21 1.3km</title></polyline><polyline fill="none" points="98.99144724651705,232.12345238041598 98.71727756597102,230.37025749233726 96.83725689921994,228.03264339396264 96.07349850342143,227.80787154800782 93.48847008659504,230.167964909313 90.92302521842066,233.42710140236886 90.27676811430138,233.60691447717545 89.57176036422607,235.51741966354894 90.76635682955384,237.22562254712102 93.60597137827426,238.5741947561619 96.68058851035312,241.06903237420192 96.50433657283429,241.2038876862207 96.91559109371156,241.15893592438078 96.5435036701383,240.95665288683085 97.01350883673877,241.74330813872803 98.05143691319972,242.97947520951857 101.9877301841043,244.8000000000029 104.02441923972219,244.5977201834612 108.8223886495689,241.24883943918394 109.4686457538046,239.90028300539416 110.42823963589035,235.58484896672599 109.4686457538046,233.92158701785957 105.88485635793768,230.6175037395733 102.0073137327563,225.7399601950019 99.12853208673187,223.1999999999971 95.8972465659026,227.69548554210633 96.4847530242987,227.7629171522858 97.2876785172848,228.50466355135723 98.85436240618583,230.50511911488138 98.83477885765024,231.13447230160818" stroke="#4dd2ff" stroke-linecap="round" stroke-linejoin="round" stroke-width="0.5"><title>2021-03-20 3.7km</title></polyline><polyline fill="none" points="134.671921182191,239.4388168019068 127.29458128055558,237.07590951339807 119.49162561586127,236.8314700568153 115.30640394077636,235.9351908118697 115.19999999995343,234.46854785224423 115.80295566492714,233.81670486507937 115.23546798038296,232.71671749165398 115.37733990140259,230.80191766808275 117.61182266008109,228.5611831981223 121.30049261078238,229.009331064648 125.06009852210991,230.27229061772232 132.15369458124042,230.109328311868 135.94876847276464,229.49821909173625 136.4098522164859,228.96859036956448 135.73596059111878,230.516733956174 135.3103448273614,235.77223074028734 135.66502463049255,238.4610637013102 136.80000000004657,238.6647624548059" stroke="#4dd2ff" stroke-linecap="round" stroke-linejoin="round" stroke-width="0.5"><title>2021-03-19 1.6km</title></polyline><polyline fill="none" points="149.95359628775623,233.77934678878228 154.64779582375195,235.7940934147191 156.46867749432568,235.67896559811197 158.0556844547973,236.02434884350805 159.72621809749398,235.6597776221024 160.61160092806676,235.73652951495023 162.79999999998836,235.08413746055157 158.7406032483559,236.0051609014772 156.6524361949996,235.67896559811197 154.31368909520097,235.77490545003093 144.97540603252128,232.80074804219475 141.20000000001164,232.3977941863268 142.01856148493243,232.5129239445523 141.46728538285242,232.282664359911 141.6343387471279,232.18672278587474 142.9039443155052,232.26347604891635 144.59118329471676,231.97565115649195 145.1591647331952,232.3977941863268 145.4932714617462,232.18672278587474 145.89419953600736,232.57048879817012 146.2450116009568,232.45535907401063 146.6960556845297,232.83912455638347 147.26403712300817,232.62805363468942 148.43341067287838,233.47233594719728 148.66728538280586,233.18451284324692 148.0658932715305,232.282664359911 147.83201856154483,232.30185266905755 147.91554524365347,232.9542540534312 149.00139211135684,233.49152413901174 149.45243619498797,232.41698248412285 149.7030162413721,232.93506580867688 150.03712296986487,232.87750106291787 149.68631090491544,232.973442296352 149.88677494210424,232.91587756195804 149.40232018567622,232.24428773602995 150.12064965203172,232.18672278587474" stroke="#4dd2ff" stroke-linecap="round" stroke-linejoin="round" stroke-width="0.5"><title>2021-03-19 3.1km</title></polyline><polyline fill="none" points="176.2894876972423,244.8000000000029 176.16817476798315,244.42377020095591 175.93768020236166,244.38196682812122 175.59800400037784,244.70245903720206 176.01046795991715,242.34752106614178 175.85276115185115,242.91884098523587 175.92554890940664,243.96393241922488 175.69505434378516,244.14508081495296 174.38487470766995,244.11721184609632 174.22716789954575,243.28114022451336 174.33634953590808,242.54260617637192 177.5147482829052,241.8319376923464 179.64985583815724,241.6925905116077 179.57706808060175,228.21706872188952 180.29281436331803,227.29728613275802 181.77283210051246,225.98728240632045 181.50594365608413,225.31833964618272 179.6983810098609,223.1999999999971" stroke="#4dd2ff" stroke-linecap="round" stroke-linejoin="round" stroke-width="0.5"><title>2021-03-18 2.7km</title></polyline><polyline fill="none" points="18.525662491563708,267.0176086661377 19.13039118767483,267.1224558770191 19.221670990868006,267.63358484537457 19.449870498792734,267.7646432384936 20.682147841667756,268.01365382934455 22.279544397315476,267.8694898598915 23.386312010814436,268.18402922785026 24.413209796592128,268.8000000000029 24.675639230641536,267.9743363986199 24.52730955055449,264.4750384729123 25.4743375084945,264.3832953400124 24.116550436243415,264.0032159716211 22.80440326553071,263.9376849361579 22.22249452030519,263.30858535117295 21.070087005151436,251.39444954277133 22.325184298853856,249.92640727000253 23.215162379841786,249.415210169871 22.57620375760598,248.27484031801578 21.480846119462512,247.1999999999971" stroke="#4dd2ff" stroke-linecap="round" stroke-linejoin="round" stroke-width="0.5"><title>2021-03-17 2.8km</title></polyline><polyline fill="none" points="37.927659574430436,256.83431946646306 38.19574468093924,256.83431946646306 39.53617021278478,257.4061738749733 39.91914893616922,257.89005010956316 43.902127659413964,258.98976687228424 48.114893617108464,259.5616185174731 49.53191489353776,259.4736413891369 50.52765957452357,259.6935841777304 51.02553191501647,259.8695383304439 53.01702127652243,260.1774579308403 54.66382978716865,260.8372849303705 55.199999999953434,260.969250213122 56.11914893635549,261.45312258254853 56.885106383124366,261.93699442697107 57.19148936169222,262.02497106959345 57.53617021278478,262.20092430277145 58.37872340413742,262.42086574662244 58.800000000046566,262.37687746656593 58.76170212775469,262.37687746656593 58.76170212775469,262.37687746656593 58.646808510879055,262.42086574662244 58.72340425546281,262.37687746656593 58.76170212775469,262.37687746656593 58.800000000046566,262.42086574662244 58.57021276582964,262.37687746656593 58.072340425569564,262.37687746656593 56.38723404239863,262.42086574662244 55.23829787247814,262.06895938445814 54.12765957438387,261.849017767061 53.01702127652243,261.7610410898051 51.906382978660986,261.80502943051397 51.33191489381716,261.849017767061 50.221276595722884,261.93699442697107 49.72340425522998,261.93699442697107 48.0,261.80502943051397 47.46382978721522,261.6730643949704 46.42978723393753,261.40913420694415 45.89361702138558,261.1452038627467 44.859574468107894,260.7932964939682 44.32340425532311,260.61734270560555 42.140425531892106,260.1774579308403 40.72340425546281,259.60560707523837 40.608510638354346,259.34167566380347 41.06808510632254,259.25369849195704 41.25957446801476,259.25369849195704 41.412765957415104,259.07774409631384 41.25957446801476,259.0337554864527 40.87659574463032,258.9457782538666 40.6851063829381,258.9017896311416 40.57021276606247,258.8578010039637 40.34042553184554,258.8578010039637 40.18723404267803,258.7698237366567 39.99574468075298,258.7698237366567 39.80425531906076,258.7698237366567 39.53617021278478,258.681846452062 39.34468085109256,258.59386915012146 39.2297872339841,258.54988049255917 38.84680851059966,258.3299371400499 38.731914893491194,258.2419597686385 38.540425532031804,258.1099936789251 38.42553191492334,258.0220162642363 38.310638297814876,257.89005010956316 38.157446808414534,257.71409517590655 37.88936170213856,257.4941514112579 37.65957446815446,257.3621851003263 37.544680851045996,257.2742075380229 37.353191489353776,257.0542635564634 37.27659574453719,256.65836411633063 37.27659574453719,256.3064532079152 37.23829787247814,256.0865087490529 37.199999999953434,255.91055310392403 37.3148936170619,255.55864160554484 37.27659574453719,255.07476284180302 37.27659574453719,254.8548177756893 37.23829787247814,254.72285068387282 37.3148936170619,254.59088355317363 37.27659574453719,254.5468945009343 37.3148936170619,254.2389710135758 37.353191489353776,254.01902553523541 37.544680851045996,253.97503642659285 37.927659574430436,253.84306907452992 38.119148936122656,253.75509081812925 38.23404255323112,253.71110168349696 38.46382978721522,253.62312340116478 38.502127659507096,253.62312340116478 38.502127659507096,253.57913425340666 38.540425532031804,253.57913425340666" stroke="#4dd2ff" stroke-linecap="round" stroke-linejoin="round" stroke-width="0.5"><title>2021-03-02 1.4km</title></polyline><polyline fill="none" points="67.16837209300138,258.3173654836719 67.41953488369472,258.4327591159381 70.18232558132149,258.95203018025495 71.94046511640772,259.5866941881832 72.59348837193102,259.87517760071205 74.35162790701725,260.3367507646326 75.00465116254054,260.3367507646326 76.86325581395067,260.22135750798043 77.46604651142843,260.0482675798703 79.32465116260573,259.9328742660582 80.47999999998137,260.3367507646326 81.08279069769196,260.5675372101832 82.1376744187437,260.97141327062855 83.14232558128424,261.1445029254537 84.39813953498378,261.0291098279995 84.59906976716593,260.9137167077279 84.79999999981374,261.0291098279995 84.7497674417682,261.8368610329344 83.84558139531873,262.0676468866295 83.0920930232387,262.7023075147881 82.74046511598863,262.81770028255414 82.38883720920421,262.93309302732814 82.1879069765564,262.93309302732814 81.88651162781753,262.9907893910422 81.68558139540255,263.1061821016483 80.98232558136806,263.394663778774 81.08279069769196,263.6831453135237 81.43441860447638,263.913930439041 81.43441860447638,263.97162670624675 81.43441860447638,264.02932296763174 81.48465116275474,263.97162670624675 81.2334883720614,263.913930439041 80.93209302308969,264.02932296763174 80.83162790699862,264.0870192233124 80.73116279044189,264.1447154734633 80.68093023239635,264.20241171779344 80.68093023239635,264.20241171779344 80.47999999998137,263.913930439041 80.37953488365747,263.79853788769105 80.2288372090552,263.62544901808724 80.17860465100966,263.5100564098102 79.67627906985581,263.394663778774 79.47534883697517,263.394663778774 79.22418604651466,263.394663778774 78.97302325582132,263.33696745481575 78.67162790708244,263.33696745481575 78.42046511615627,263.33696745481575 77.91813953476958,263.22157478972804 77.66697674407624,263.16387844854034 77.41581395361573,263.1061821016483 77.16465116268955,263.04848574922653 76.6623255815357,262.93309302732814 76.46139534865506,262.81770028255414 76.21023255819455,262.7600039015524 75.9590697675012,262.6446111225523 75.70790697657503,262.5292183208512 75.50697674416006,262.35612907569157 75.0548837208189,262.1253433357924 74.60279069747776,261.8945575047983 74.25116279092617,261.548378587584 73.99999999976717,261.4329855698743 73.74883720930666,261.31759252917254 73.49767441861331,261.2021994657698 73.24651162768714,261.0868063796079 73.09581395355053,261.0291098279995 72.69395348825492,260.85602013889 72.49302325583994,260.79832356458064 72.29209302319214,260.7406269844505 72.09116279054433,260.62523380731 71.84000000008382,260.5675372101832 71.58883720915765,260.5098406074103 71.03627906972542,260.4521439987584 70.83534883731045,260.394447384635 70.58418604638427,260.3367507646326 70.2827906976454,260.3367507646326 70.08186046499759,260.2790541391587 69.5795348836109,260.22135750798043 69.32837209291756,260.105964228278 68.87627906980924,259.75978425279027 68.37395348842256,259.5866941881832 68.17302325577475,259.5289974886691 67.92186046508141,259.4713007835089 67.62046511634253,259.41360407252796 67.41953488369472,259.35590735595906 67.16837209300138,259.2405139054172 66.71627906966023,259.0097269366379 66.46511627919972,258.89433341799304 66.26418604631908,258.7789398766472 65.76186046516523,258.4904559236602 65.61116279079579,258.3750623026863 65.41023255791515,258.25966865901137 64.95813953480683,257.97118444991065 64.75720930239186,257.7980938562541 64.50604651169851,257.45191251521464 64.15441860468127,257.04803402512334 63.55162790697068,256.5864582664799 63.55162790697068,256.41336726327427 63.45116279064678,256.1248821437475 63.350697674555704,255.89409394573886 63.199999999953434,255.1440316736116 63.350697674555704,254.8555459283525 63.40093023236841,254.5670600407757 63.45116279064678,254.33627122826874 63.50139534892514,254.16317955916747 63.50139534892514,253.8746933301445 63.50139534892514,253.12462846905692 63.50139534892514,252.60535223275656 64.05395348835737,252.37456264632056 64.45581395342015,252.14377296896419 64.80744186067022,252.0283780960599 65.05860465136357,251.97068065113854 65.15906976745464,251.85528574418277 65.8623255812563,251.79758828220656" stroke="#4dd2ff" stroke-linecap="round" stroke-linejoin="round" stroke-width="0.5"><title>2020-12-25 1.0km</title></polyline><polyline fill="none" points="89.52481202990748,255.50505844311556 89.76842105272226,255.7382317239244 89.97142857126892,255.9714048897149 90.41804511263035,256.25121253708494 92.16390977427363,256.71755824791035 93.09774436079897,256.99736545371707 93.70676691737026,257.1372689946147 96.54887218028307,258.2564958309231 97.36090225563385,258.81610825585085 98.29473684192635,259.23581713973545 99.67518796981312,259.74879415892065 100.20300751877949,259.8420626479783 101.17744360910729,259.8420626479783 101.74586466164328,259.8420626479783 102.72030075173825,259.65552565146936 103.61353383469395,259.5622571253625 104.62857142859139,259.6088913907006 105.19699248112738,259.5622571253625 106.78045112779364,259.8420626479783 107.30827067652717,260.0285995710874 108.3233082704246,260.2151364206511 108.89172932342626,260.1685022150923 109.9067669173237,260.1218680050515 110.35338345868513,260.0752337904123 110.80000000004657,260.2617706215824 110.7593984962441,260.3084048177989 110.63759398506954,260.35503900944605 110.59699248126708,260.4016731965821 110.59699248126708,260.4483073790034 110.55639097746462,260.4016731965821 110.47518797009252,260.49494155685534 110.47518797009252,260.4016731965821 110.51578947389498,260.4483073790034 110.55639097746462,260.49494155685534 110.51578947389498,260.4483073790034 110.59699248126708,260.35503900944605 110.55639097746462,260.35503900944605 110.51578947389498,260.35503900944605 110.51578947389498,260.4016731965821 110.51578947389498,260.35503900944605 110.51578947389498,260.35503900944605 110.51578947389498,260.35503900944605 110.51578947389498,260.4016731965821 110.47518797009252,260.4016731965821 110.47518797009252,260.4016731965821 110.43458646605723,260.4016731965821 110.3939849624876,260.4016731965821 110.47518797009252,260.4016731965821 110.47518797009252,260.4016731965821 110.47518797009252,260.4016731965821 110.43458646605723,260.4016731965821 110.43458646605723,260.4483073790034 110.35338345868513,260.4016731965821 109.4195488721598,260.4016731965821 108.3639097744599,260.4016731965821 107.30827067652717,260.1685022150923 106.8210526315961,260.0285995710874 105.80601503746584,259.74879415892065 105.27819548873231,259.65552565146936 104.18195488722995,259.65552565146936 103.65413533849642,259.6088913907006 102.55789473699406,259.7021599073778 101.4210526314564,259.8420626479783 100.89323308272287,259.8420626479783 99.79699248122051,259.7954284057778 99.22857142845169,259.65552565146936 96.67067669169046,258.81610825585085 96.14285714295693,258.6295708543621 94.6406015038956,258.2564958309231 94.23458646610379,258.2098614323768 92.6105263158679,257.9300549439795 91.67669172910973,257.51034490103484 91.1488721803762,257.2305379988684 90.13383458647877,256.67092369752936 89.19999999995343,256.3444817160489" stroke="#4dd2ff" stroke-linecap="round" stroke-linejoin="round" stroke-width="0.5"><title>2020-12-08 1.1km</title></polyline><polyline fill="none" points="115.19999999995343,255.77350431791274 115.40769230760634,255.81326338712825 116.79230769223068,256.88675676990533 117.24230769230053,257.0457925835217 119.00769230758306,257.5626585446007 119.83846153842751,257.80121184160816 120.25384615384974,257.96024729442433 121.22307692305185,258.318076834199 122.08846153842751,258.7554236180731 122.53846153849736,259.03373496080167 124.75384615373332,259.7891504939762 125.23846153856721,259.82890916700126 126.62307692307513,259.6698744512396 127.03846153838094,259.63011576244025 129.2192307692021,259.6698744512396 129.66923076903913,259.7096331360517 131.01923076924868,260.1072197687754 132.4038461537566,260.22649568208726 132.81923076917883,260.18673704814864 133.71923076931853,260.22649568208726 135.10384615371004,260.02770247348235 135.51923076913226,259.98794382004417 136.38461538462434,259.90842650135164 136.79999999993015,259.8686678361846 136.62692307692487,259.55059837320005 135.65769230760634,259.51083967264276 135.24230769230053,259.55059837320005 134.37692307692487,259.7891504939762 134.0653846153291,259.8686678361846 133.1653846153058,260.06746112307883 132.74999999988358,260.1072197687754 131.88461538450792,260.1072197687754 131.4346153845545,260.02770247348235 130.56923076906241,259.8686678361846 130.15384615387302,259.7493918169057 128.8038461537799,259.51083967264276 128.35384615382645,259.51083967264276 127.45384615380317,259.55059837320005 126.9692307690857,259.55059837320005 126.06923076917883,259.63011576244025 125.16923076915555,259.6698744512396 124.30384615377989,259.63011576244025 123.47307692305185,259.43132225988666 123.05769230762962,259.31204611138673 122.15769230772275,259.03373496080167 121.74230769230053,258.8746999313298 120.91153846145608,258.5963884788216 119.80384615366347,258.27831801210414 119.49230769218411,258.23855918616755 118.66153846145608,258.03976499740384 117.51923076924868,257.68193521071225 117.2076923076529,257.4433818432153 116.4807692306349,257.0457925835217 116.09999999997672,256.84699780662777" stroke="#4dd2ff" stroke-linecap="round" stroke-linejoin="round" stroke-width="0.5"><title>2020-12-03 1.3km</title></polyline><polyline fill="none" points="162.57183098583482,258.56783315117355 162.76197183085606,259.26669882109854 162.80000000004657,259.48509411676787 162.15352112683468,259.87820537763764 161.0507042251993,259.834526365943 159.5295774647966,259.57245220491313 158.08450704207644,258.960945226223 157.59014084516093,258.87358701741323 154.77605633810163,257.78160795453005 153.74929577461444,257.60689105445636 152.19014084502123,257.6505702859722 151.12535211257637,257.60689105445636 150.3647887322586,257.60689105445636 149.90845070406795,257.60689105445636 148.8816901408136,257.5195325787645 148.53943661949597,257.47585333450115 147.36056338017806,257.38849483264494 146.9042253519874,257.3448155754595 145.30704225343652,257.213777777768 144.81267605605535,257.1264192244271 143.8239436619915,257.0390606537985 142.53098591556773,256.47122952505015 142.03661971818656,256.29651210826705 141.19999999995343,256.12179462239146 142.15070422529243,256.3401914689457 142.98732394375838,256.73330552110565 143.8239436619915,257.1264192244271 144.31830985913984,257.17009850317845 145.57323943660595,257.3011363137921 145.9535211266484,257.3448155754595 146.94225352117792,257.4321740856976 147.43661971809343,257.47585333450115 148.4633802815806,257.47585333450115 148.9197183100041,257.5195325787645 149.94647887325846,257.60689105445636 150.4028169014491,257.60689105445636 151.80985915474594,257.6505702859722 152.26619718316942,257.6505702859722 152.950704225339,257.56321181877865 153.1788732393179,257.56321181877865 153.33098591538146,257.56321181877865 153.483098591445,257.56321181877865 153.63521126750857,257.56321181877865 153.8253521125298,257.5195325787645 154.01549295755103,257.5195325787645 154.39577464782633,257.56321181877865 154.54788732388988,257.56321181877865 154.8901408452075,257.6942495130643 155.23239436605945,257.8689663785335 155.19436619710177,257.95632478545303 155.19436619710177,258.00000398236443 155.1563380281441,258.00000398236443" stroke="#4dd2ff" stroke-linecap="round" stroke-linejoin="round" stroke-width="0.5"><title>2020-11-30 1.0km</title></polyline></svg>